solid OpenSCAD_Model
  facet normal -4.44089e-016 0 1
    outer loop
      vertex 15.7675 -1.91452 3
      vertex 16 0 3
      vertex 15.7675 1.91452 3
    endloop
  endfacet
  facet normal -4.44089e-016 0 1
    outer loop
      vertex 13.9881 5.30498 3
      vertex 15.7675 -1.91452 3
      vertex 15.0836 3.71778 3
    endloop
  endfacet
  facet normal -4.44089e-016 0 1
    outer loop
      vertex 15.0836 3.71778 3
      vertex 15.7675 -1.91452 3
      vertex 15.7675 1.91452 3
    endloop
  endfacet
  facet normal -4.44089e-016 0 1
    outer loop
      vertex 12.5445 6.58387 3
      vertex 15.7675 -1.91452 3
      vertex 13.9881 5.30498 3
    endloop
  endfacet
  facet normal -4.44089e-016 0 1
    outer loop
      vertex 11.9741 6.88327 3
      vertex 15.7675 -1.91452 3
      vertex 12.5445 6.58387 3
    endloop
  endfacet
  facet normal -4.44089e-016 0 1
    outer loop
      vertex 11.5355 3.53553 3
      vertex 15.7675 -1.91452 3
      vertex 11.9741 6.88327 3
    endloop
  endfacet
  facet normal -4.44089e-016 0 1
    outer loop
      vertex 10.4572 4.25604 3
      vertex 11.5355 3.53553 3
      vertex 11.9741 6.88327 3
    endloop
  endfacet
  facet normal -4.44089e-016 0 1
    outer loop
      vertex 12.6194 1.91342 3
      vertex 15.7675 -1.91452 3
      vertex 11.5355 3.53553 3
    endloop
  endfacet
  facet normal -4.44089e-016 0 1
    outer loop
      vertex 12.6194 -1.91342 3
      vertex 15.7675 -1.91452 3
      vertex 13 0 3
    endloop
  endfacet
  facet normal -4.44089e-016 0 1
    outer loop
      vertex 11.5355 -3.53553 3
      vertex 15.7675 -1.91452 3
      vertex 12.6194 -1.91342 3
    endloop
  endfacet
  facet normal -4.44089e-016 0 1
    outer loop
      vertex 9.91342 -4.6194 3
      vertex 15.7675 -1.91452 3
      vertex 11.5355 -3.53553 3
    endloop
  endfacet
  facet normal -4.44089e-016 0 1
    outer loop
      vertex 5.16316 -7.48013 3
      vertex 15.7675 -1.91452 3
      vertex 9.91342 -4.6194 3
    endloop
  endfacet
  facet normal -4.44089e-016 0 1
    outer loop
      vertex 3.45548 -6.58387 3
      vertex 9.91342 -4.6194 3
      vertex 8 -5 3
    endloop
  endfacet
  facet normal -4.44089e-016 0 1
    outer loop
      vertex 0.916352 -3.71778 3
      vertex 8 -5 3
      vertex 6.08658 -4.6194 3
    endloop
  endfacet
  facet normal -4.44089e-016 0 1
    outer loop
      vertex 4 -3.5 3
      vertex 6.08658 -4.6194 3
      vertex 4.46447 -3.53553 3
    endloop
  endfacet
  facet normal -4.44089e-016 0 1
    outer loop
      vertex 4 -3.5 3
      vertex 4.46447 -3.53553 3
      vertex 4 -2.84041 3
    endloop
  endfacet
  facet normal -4.44089e-016 0 1
    outer loop
      vertex 0.833757 -3.5 3
      vertex 6.08658 -4.6194 3
      vertex 4 -3.5 3
    endloop
  endfacet
  facet normal -4.44089e-016 0 1
    outer loop
      vertex 0.916352 -3.71778 3
      vertex 6.08658 -4.6194 3
      vertex 0.833757 -3.5 3
    endloop
  endfacet
  facet normal -4.44089e-016 0 1
    outer loop
      vertex 2.01191 -5.30498 3
      vertex 8 -5 3
      vertex 0.916352 -3.71778 3
    endloop
  endfacet
  facet normal -4.44089e-016 0 1
    outer loop
      vertex 3.45548 -6.58387 3
      vertex 8 -5 3
      vertex 2.01191 -5.30498 3
    endloop
  endfacet
  facet normal -4.44089e-016 0 1
    outer loop
      vertex 5.16316 -7.48013 3
      vertex 9.91342 -4.6194 3
      vertex 3.45548 -6.58387 3
    endloop
  endfacet
  facet normal -4.44089e-016 0 1
    outer loop
      vertex 7.03571 -7.94167 3
      vertex 15.7675 -1.91452 3
      vertex 5.16316 -7.48013 3
    endloop
  endfacet
  facet normal -4.44089e-016 0 1
    outer loop
      vertex 8.96429 -7.94167 3
      vertex 15.7675 -1.91452 3
      vertex 7.03571 -7.94167 3
    endloop
  endfacet
  facet normal -4.44089e-016 0 1
    outer loop
      vertex 10.8368 -7.48013 3
      vertex 15.7675 -1.91452 3
      vertex 8.96429 -7.94167 3
    endloop
  endfacet
  facet normal -4.44089e-016 0 1
    outer loop
      vertex 12.5445 -6.58387 3
      vertex 15.7675 -1.91452 3
      vertex 10.8368 -7.48013 3
    endloop
  endfacet
  facet normal -4.44089e-016 0 1
    outer loop
      vertex 13.9881 -5.30498 3
      vertex 15.7675 -1.91452 3
      vertex 12.5445 -6.58387 3
    endloop
  endfacet
  facet normal -4.44089e-016 0 1
    outer loop
      vertex 15.0836 -3.71778 3
      vertex 15.7675 -1.91452 3
      vertex 13.9881 -5.30498 3
    endloop
  endfacet
  facet normal -4.44089e-016 0 1
    outer loop
      vertex 12.6194 1.91342 3
      vertex 13 0 3
      vertex 15.7675 -1.91452 3
    endloop
  endfacet
  facet normal 0.992709 0.120536 4.40851e-016
    outer loop
      vertex 15.7675 1.91452 3
      vertex 16 0 3
      vertex 16 0 1.8
    endloop
  endfacet
  facet normal 0.992709 0.120536 4.40851e-016
    outer loop
      vertex 15.8455 1.27279 1.27279
      vertex 15.7675 1.91452 3
      vertex 15.9164 0.68883 1.66298
    endloop
  endfacet
  facet normal 0.992709 0.120536 4.40851e-016
    outer loop
      vertex 15.9164 0.68883 1.66298
      vertex 15.7675 1.91452 3
      vertex 16 0 1.8
    endloop
  endfacet
  facet normal 0.992709 0.120536 4.40851e-016
    outer loop
      vertex 15.7981 1.66298 0.68883
      vertex 15.7675 1.91452 3
      vertex 15.8455 1.27279 1.27279
    endloop
  endfacet
  facet normal 0.992709 0.120536 4.40851e-016
    outer loop
      vertex 15.7814 1.8 3.50418e-015
      vertex 15.7675 1.91452 3
      vertex 15.7981 1.66298 0.68883
    endloop
  endfacet
  facet normal 0.992709 0.120536 4.40851e-016
    outer loop
      vertex 15.7675 1.91452 -3
      vertex 15.7675 1.91452 3
      vertex 15.7814 1.8 3.50418e-015
    endloop
  endfacet
  facet normal 0.992709 0.120536 4.40851e-016
    outer loop
      vertex 15.7675 1.91452 -3
      vertex 15.7814 1.8 3.50418e-015
      vertex 15.7981 1.66298 -0.68883
    endloop
  endfacet
  facet normal 0.992709 0.120536 4.40851e-016
    outer loop
      vertex 15.7675 1.91452 -3
      vertex 15.7981 1.66298 -0.68883
      vertex 15.8455 1.27279 -1.27279
    endloop
  endfacet
  facet normal 0.992709 0.120536 4.40851e-016
    outer loop
      vertex 16 0 -3
      vertex 15.8455 1.27279 -1.27279
      vertex 15.9164 0.68883 -1.66298
    endloop
  endfacet
  facet normal 0.992709 0.120536 4.40851e-016
    outer loop
      vertex 16 0 -3
      vertex 15.9164 0.68883 -1.66298
      vertex 16 0 -1.8
    endloop
  endfacet
  facet normal 0.992709 0.120536 4.40851e-016
    outer loop
      vertex 15.7675 1.91452 -3
      vertex 15.8455 1.27279 -1.27279
      vertex 16 0 -3
    endloop
  endfacet
  facet normal 0.992709 -0.120536 4.40851e-016
    outer loop
      vertex 16 0 1.8
      vertex 16 0 3
      vertex 15.7675 -1.91452 3
    endloop
  endfacet
  facet normal 0.992709 -0.120536 4.40851e-016
    outer loop
      vertex 15.7814 -1.8 3.50418e-015
      vertex 15.7981 -1.66298 0.68883
      vertex 15.7675 -1.91452 3
    endloop
  endfacet
  facet normal 0.992709 -0.120536 4.40851e-016
    outer loop
      vertex 15.9164 -0.68883 1.66298
      vertex 16 0 1.8
      vertex 15.7675 -1.91452 3
    endloop
  endfacet
  facet normal 0.992709 -0.120536 4.40851e-016
    outer loop
      vertex 16 0 -3
      vertex 16 0 -1.8
      vertex 15.7675 -1.91452 -3
    endloop
  endfacet
  facet normal 0.992709 -0.120536 4.40851e-016
    outer loop
      vertex 16 0 -1.8
      vertex 15.9164 -0.68883 -1.66298
      vertex 15.7675 -1.91452 -3
    endloop
  endfacet
  facet normal 0.992709 -0.120536 4.40851e-016
    outer loop
      vertex 15.7981 -1.66298 0.68883
      vertex 15.8455 -1.27279 1.27279
      vertex 15.7675 -1.91452 3
    endloop
  endfacet
  facet normal 0.992709 -0.120536 4.40851e-016
    outer loop
      vertex 15.7675 -1.91452 -3
      vertex 15.8455 -1.27279 -1.27279
      vertex 15.7981 -1.66298 -0.68883
    endloop
  endfacet
  facet normal 0.992709 -0.120536 4.40851e-016
    outer loop
      vertex 15.7675 -1.91452 -3
      vertex 15.7814 -1.8 3.50418e-015
      vertex 15.7675 -1.91452 3
    endloop
  endfacet
  facet normal 0.992709 -0.120536 4.40851e-016
    outer loop
      vertex 15.7675 -1.91452 -3
      vertex 15.7981 -1.66298 -0.68883
      vertex 15.7814 -1.8 3.50418e-015
    endloop
  endfacet
  facet normal 0.992709 -0.120536 4.40851e-016
    outer loop
      vertex 15.8455 -1.27279 1.27279
      vertex 15.9164 -0.68883 1.66298
      vertex 15.7675 -1.91452 3
    endloop
  endfacet
  facet normal 0.992709 -0.120536 4.40851e-016
    outer loop
      vertex 15.9164 -0.68883 -1.66298
      vertex 15.8455 -1.27279 -1.27279
      vertex 15.7675 -1.91452 -3
    endloop
  endfacet
  facet normal 0.935016 -0.354605 4.15231e-016
    outer loop
      vertex 15.7675 -1.91452 -3
      vertex 15.7675 -1.91452 3
      vertex 15.0836 -3.71778 3
    endloop
  endfacet
  facet normal 0.935016 -0.354605 4.15231e-016
    outer loop
      vertex 15.0836 -3.71778 -3
      vertex 15.7675 -1.91452 -3
      vertex 15.0836 -3.71778 3
    endloop
  endfacet
  facet normal 0.822984 -0.568065 3.65478e-016
    outer loop
      vertex 15.0836 -3.71778 -3
      vertex 15.0836 -3.71778 3
      vertex 13.9881 -5.30498 3
    endloop
  endfacet
  facet normal 0.822984 -0.568065 3.65478e-016
    outer loop
      vertex 13.9881 -5.30498 -3
      vertex 15.0836 -3.71778 -3
      vertex 13.9881 -5.30498 3
    endloop
  endfacet
  facet normal 0.663123 -0.748511 2.94486e-016
    outer loop
      vertex 13.9881 -5.30498 -3
      vertex 13.9881 -5.30498 3
      vertex 12.5445 -6.58387 3
    endloop
  endfacet
  facet normal 0.663123 -0.748511 2.94486e-016
    outer loop
      vertex 12.5445 -6.58387 -3
      vertex 13.9881 -5.30498 -3
      vertex 12.5445 -6.58387 3
    endloop
  endfacet
  facet normal 0.464723 -0.885456 2.06379e-016
    outer loop
      vertex 12.5445 -6.58387 -3
      vertex 12.5445 -6.58387 3
      vertex 10.8368 -7.48013 3
    endloop
  endfacet
  facet normal 0.464723 -0.885456 2.06379e-016
    outer loop
      vertex 10.8368 -7.48013 -3
      vertex 12.5445 -6.58387 -3
      vertex 10.8368 -7.48013 3
    endloop
  endfacet
  facet normal 0.239316 -0.970942 1.06277e-016
    outer loop
      vertex 10.8368 -7.48013 -3
      vertex 10.8368 -7.48013 3
      vertex 8.96429 -7.94167 3
    endloop
  endfacet
  facet normal 0.239316 -0.970942 1.06277e-016
    outer loop
      vertex 8.96429 -7.94167 -3
      vertex 10.8368 -7.48013 -3
      vertex 8.96429 -7.94167 3
    endloop
  endfacet
  facet normal 0 -1 0
    outer loop
      vertex 8.96429 -7.94167 -3
      vertex 8.96429 -7.94167 3
      vertex 7.03571 -7.94167 3
    endloop
  endfacet
  facet normal 0 -1 0
    outer loop
      vertex 7.03571 -7.94167 -3
      vertex 8.96429 -7.94167 -3
      vertex 7.03571 -7.94167 3
    endloop
  endfacet
  facet normal -0.239316 -0.970942 -1.06277e-016
    outer loop
      vertex 7.03571 -7.94167 -3
      vertex 7.03571 -7.94167 3
      vertex 5.16316 -7.48013 3
    endloop
  endfacet
  facet normal -0.239316 -0.970942 -1.06277e-016
    outer loop
      vertex 5.16316 -7.48013 -3
      vertex 7.03571 -7.94167 -3
      vertex 5.16316 -7.48013 3
    endloop
  endfacet
  facet normal -0.464723 -0.885456 -2.06379e-016
    outer loop
      vertex 5.16316 -7.48013 -3
      vertex 5.16316 -7.48013 3
      vertex 3.45548 -6.58387 3
    endloop
  endfacet
  facet normal -0.464723 -0.885456 -2.06379e-016
    outer loop
      vertex 3.45548 -6.58387 -3
      vertex 5.16316 -7.48013 -3
      vertex 3.45548 -6.58387 3
    endloop
  endfacet
  facet normal -0.663123 -0.748511 -2.94486e-016
    outer loop
      vertex 3.45548 -6.58387 -3
      vertex 3.45548 -6.58387 3
      vertex 2.01191 -5.30498 3
    endloop
  endfacet
  facet normal -0.663123 -0.748511 -2.94486e-016
    outer loop
      vertex 2.01191 -5.30498 -3
      vertex 3.45548 -6.58387 -3
      vertex 2.01191 -5.30498 3
    endloop
  endfacet
  facet normal -0.822984 -0.568065 -3.65478e-016
    outer loop
      vertex 2.01191 -5.30498 3
      vertex 0.916352 -3.71778 3
      vertex 2.01191 -5.30498 -3
    endloop
  endfacet
  facet normal -0.822984 -0.568065 -3.65478e-016
    outer loop
      vertex 2.01191 -5.30498 -3
      vertex 0.916352 -3.71778 3
      vertex 0.916352 -3.71778 -3
    endloop
  endfacet
  facet normal -0.935016 -0.354605 -4.15231e-016
    outer loop
      vertex 0.916352 -3.71778 3
      vertex 0.833757 -3.5 3
      vertex 0.916352 -3.71778 -3
    endloop
  endfacet
  facet normal -0.935016 -0.354605 -4.15231e-016
    outer loop
      vertex 0.916352 -3.71778 -3
      vertex 0.833757 -3.5 3
      vertex 0.833757 -3.5 -3
    endloop
  endfacet
  facet normal -0.935016 -0.354605 -4.15231e-016
    outer loop
      vertex 0.916352 -3.71778 -3
      vertex 0.833757 -3.5 -3
      vertex 0.232465 -1.91452 -3
    endloop
  endfacet
  facet normal 0 -1 0
    outer loop
      vertex 0.833757 -3.5 3
      vertex -6.66134e-016 -3.5 3
      vertex 6.66134e-016 -3.5 -3
    endloop
  endfacet
  facet normal 0 -1 0
    outer loop
      vertex 4 -3.5 3
      vertex -6.66134e-016 -3.5 3
      vertex 0.833757 -3.5 3
    endloop
  endfacet
  facet normal 0 -1 0
    outer loop
      vertex 0.833757 -3.5 -3
      vertex 0.833757 -3.5 3
      vertex 6.66134e-016 -3.5 -3
    endloop
  endfacet
  facet normal 1 0 2.22045e-016
    outer loop
      vertex 4 -0.68883 1.66298
      vertex 4 3.5 3
      vertex 4 -2.84041 3
    endloop
  endfacet
  facet normal 1 0 2.22045e-016
    outer loop
      vertex 4 -2.84041 3
      vertex 4 3.5 3
      vertex 4 -3.5 3
    endloop
  endfacet
  facet normal 1 0 2.22045e-016
    outer loop
      vertex 4 -1.27279 1.27279
      vertex 4 -0.68883 1.66298
      vertex 4 -2.84041 3
    endloop
  endfacet
  facet normal 1 0 2.22045e-016
    outer loop
      vertex 4 0 1.8
      vertex 4 3.5 3
      vertex 4 -0.68883 1.66298
    endloop
  endfacet
  facet normal 1 0 2.22045e-016
    outer loop
      vertex 4 0.68883 1.66298
      vertex 4 3.5 3
      vertex 4 0 1.8
    endloop
  endfacet
  facet normal 1 0 2.22045e-016
    outer loop
      vertex 4 -1.66298 -0.68883
      vertex 4 -1.8 8.88178e-016
      vertex 4 -2.84041 -3
    endloop
  endfacet
  facet normal 1 0 2.22045e-016
    outer loop
      vertex 4 1.27279 1.27279
      vertex 4 3.5 3
      vertex 4 0.68883 1.66298
    endloop
  endfacet
  facet normal 1 0 2.22045e-016
    outer loop
      vertex 4 0.68883 -1.66298
      vertex 4 0 -1.8
      vertex 4 -2.84041 -3
    endloop
  endfacet
  facet normal 1 0 2.22045e-016
    outer loop
      vertex 4 -1.27279 -1.27279
      vertex 4 -1.66298 -0.68883
      vertex 4 -2.84041 -3
    endloop
  endfacet
  facet normal 1 0 2.22045e-016
    outer loop
      vertex 4 3.5 -3
      vertex 4 3.5 3
      vertex 4 1.66298 0.68883
    endloop
  endfacet
  facet normal 1 0 2.22045e-016
    outer loop
      vertex 4 3.5 -3
      vertex 4 1.66298 0.68883
      vertex 4 1.8 8.88178e-016
    endloop
  endfacet
  facet normal 1 0 2.22045e-016
    outer loop
      vertex 4 3.5 -3
      vertex 4 1.8 8.88178e-016
      vertex 4 1.66298 -0.68883
    endloop
  endfacet
  facet normal 1 0 2.22045e-016
    outer loop
      vertex 4 0 -1.8
      vertex 4 -0.68883 -1.66298
      vertex 4 -2.84041 -3
    endloop
  endfacet
  facet normal 1 0 2.22045e-016
    outer loop
      vertex 4 3.5 -3
      vertex 4 1.66298 -0.68883
      vertex 4 1.27279 -1.27279
    endloop
  endfacet
  facet normal 1 0 2.22045e-016
    outer loop
      vertex 4 3.5 -3
      vertex 4 0.68883 -1.66298
      vertex 4 -2.84041 -3
    endloop
  endfacet
  facet normal 1 0 2.22045e-016
    outer loop
      vertex 4 3.5 -3
      vertex 4 1.27279 -1.27279
      vertex 4 0.68883 -1.66298
    endloop
  endfacet
  facet normal 1 0 2.22045e-016
    outer loop
      vertex 4 -2.84041 -3
      vertex 4 -1.8 8.88178e-016
      vertex 4 -2.84041 3
    endloop
  endfacet
  facet normal 1 0 2.22045e-016
    outer loop
      vertex 4 -1.8 8.88178e-016
      vertex 4 -1.66298 0.68883
      vertex 4 -2.84041 3
    endloop
  endfacet
  facet normal 1 0 2.22045e-016
    outer loop
      vertex 4 -1.66298 0.68883
      vertex 4 -1.27279 1.27279
      vertex 4 -2.84041 3
    endloop
  endfacet
  facet normal 1 0 2.22045e-016
    outer loop
      vertex 4 1.27279 1.27279
      vertex 4 1.66298 0.68883
      vertex 4 3.5 3
    endloop
  endfacet
  facet normal 1 0 2.22045e-016
    outer loop
      vertex 4 -0.68883 -1.66298
      vertex 4 -1.27279 -1.27279
      vertex 4 -2.84041 -3
    endloop
  endfacet
  facet normal 0.83147 0.55557 3.69247e-016
    outer loop
      vertex 4 -2.84041 3
      vertex 4.46447 -3.53553 -3
      vertex 4 -2.84041 -3
    endloop
  endfacet
  facet normal 0.83147 0.55557 3.69247e-016
    outer loop
      vertex 4 -2.84041 -3
      vertex 4.46447 -3.53553 -3
      vertex 3.3806 -1.91342 -3
    endloop
  endfacet
  facet normal 0.83147 0.55557 3.69247e-016
    outer loop
      vertex 4.46447 -3.53553 3
      vertex 4.46447 -3.53553 -3
      vertex 4 -2.84041 3
    endloop
  endfacet
  facet normal 0.55557 0.83147 2.46723e-016
    outer loop
      vertex 4.46447 -3.53553 -3
      vertex 4.46447 -3.53553 3
      vertex 6.08658 -4.6194 -3
    endloop
  endfacet
  facet normal 0.55557 0.83147 2.46723e-016
    outer loop
      vertex 6.08658 -4.6194 -3
      vertex 4.46447 -3.53553 3
      vertex 6.08658 -4.6194 3
    endloop
  endfacet
  facet normal 0.19509 0.980785 8.66374e-017
    outer loop
      vertex 6.08658 -4.6194 -3
      vertex 6.08658 -4.6194 3
      vertex 8 -5 -3
    endloop
  endfacet
  facet normal 0.19509 0.980785 8.66374e-017
    outer loop
      vertex 8 -5 -3
      vertex 6.08658 -4.6194 3
      vertex 8 -5 3
    endloop
  endfacet
  facet normal -0.19509 0.980785 -8.66374e-017
    outer loop
      vertex 8 -5 -3
      vertex 8 -5 3
      vertex 9.91342 -4.6194 -3
    endloop
  endfacet
  facet normal -0.19509 0.980785 -8.66374e-017
    outer loop
      vertex 9.91342 -4.6194 -3
      vertex 8 -5 3
      vertex 9.91342 -4.6194 3
    endloop
  endfacet
  facet normal -0.55557 0.83147 -2.46723e-016
    outer loop
      vertex 9.91342 -4.6194 -3
      vertex 9.91342 -4.6194 3
      vertex 11.5355 -3.53553 -3
    endloop
  endfacet
  facet normal -0.55557 0.83147 -2.46723e-016
    outer loop
      vertex 11.5355 -3.53553 -3
      vertex 9.91342 -4.6194 3
      vertex 11.5355 -3.53553 3
    endloop
  endfacet
  facet normal -0.83147 0.55557 -3.69247e-016
    outer loop
      vertex 11.5355 -3.53553 -3
      vertex 11.5355 -3.53553 3
      vertex 12.6194 -1.91342 -3
    endloop
  endfacet
  facet normal -0.83147 0.55557 -3.69247e-016
    outer loop
      vertex 12.6194 -1.91342 -3
      vertex 11.5355 -3.53553 3
      vertex 12.6194 -1.91342 3
    endloop
  endfacet
  facet normal -0.980785 0.19509 -4.35556e-016
    outer loop
      vertex 12.863 -0.68883 1.66298
      vertex 12.6194 -1.91342 3
      vertex 13 0 1.8
    endloop
  endfacet
  facet normal -0.980785 0.19509 -4.35556e-016
    outer loop
      vertex 12.863 -0.68883 1.66298
      vertex 12.7468 -1.27279 1.27279
      vertex 12.6194 -1.91342 3
    endloop
  endfacet
  facet normal -0.980785 0.19509 -4.35556e-016
    outer loop
      vertex 12.7468 -1.27279 1.27279
      vertex 12.6692 -1.66298 0.68883
      vertex 12.6194 -1.91342 3
    endloop
  endfacet
  facet normal -0.980785 0.19509 -4.35556e-016
    outer loop
      vertex 12.6194 -1.91342 3
      vertex 12.642 -1.8 2.80708e-015
      vertex 12.6194 -1.91342 -3
    endloop
  endfacet
  facet normal -0.980785 0.19509 -4.35556e-016
    outer loop
      vertex 12.642 -1.8 2.80708e-015
      vertex 12.6692 -1.66298 -0.68883
      vertex 12.6194 -1.91342 -3
    endloop
  endfacet
  facet normal -0.980785 0.19509 -4.35556e-016
    outer loop
      vertex 12.6194 -1.91342 -3
      vertex 12.7468 -1.27279 -1.27279
      vertex 13 0 -3
    endloop
  endfacet
  facet normal -0.980785 0.19509 -4.35556e-016
    outer loop
      vertex 13 0 -3
      vertex 12.863 -0.68883 -1.66298
      vertex 13 0 -1.8
    endloop
  endfacet
  facet normal -0.980785 0.19509 -4.35556e-016
    outer loop
      vertex 12.7468 -1.27279 -1.27279
      vertex 12.863 -0.68883 -1.66298
      vertex 13 0 -3
    endloop
  endfacet
  facet normal -0.980785 0.19509 -4.35556e-016
    outer loop
      vertex 12.6692 -1.66298 -0.68883
      vertex 12.7468 -1.27279 -1.27279
      vertex 12.6194 -1.91342 -3
    endloop
  endfacet
  facet normal -0.980785 0.19509 -4.35556e-016
    outer loop
      vertex 12.6692 -1.66298 0.68883
      vertex 12.642 -1.8 2.80708e-015
      vertex 12.6194 -1.91342 3
    endloop
  endfacet
  facet normal -0.980785 0.19509 -4.35556e-016
    outer loop
      vertex 12.6194 -1.91342 3
      vertex 13 0 3
      vertex 13 0 1.8
    endloop
  endfacet
  facet normal -0.980785 -0.19509 -4.35556e-016
    outer loop
      vertex 12.6692 1.66298 0.68883
      vertex 12.6194 1.91342 3
      vertex 12.642 1.8 2.80708e-015
    endloop
  endfacet
  facet normal -0.980785 -0.19509 -4.35556e-016
    outer loop
      vertex 12.6194 1.91342 -3
      vertex 13 0 -3
      vertex 12.863 0.68883 -1.66298
    endloop
  endfacet
  facet normal -0.980785 -0.19509 -4.35556e-016
    outer loop
      vertex 12.6194 1.91342 -3
      vertex 12.863 0.68883 -1.66298
      vertex 12.7468 1.27279 -1.27279
    endloop
  endfacet
  facet normal -0.980785 -0.19509 -4.35556e-016
    outer loop
      vertex 12.6194 1.91342 -3
      vertex 12.7468 1.27279 -1.27279
      vertex 12.6692 1.66298 -0.68883
    endloop
  endfacet
  facet normal -0.980785 -0.19509 -4.35556e-016
    outer loop
      vertex 12.6194 1.91342 -3
      vertex 12.6692 1.66298 -0.68883
      vertex 12.642 1.8 2.80708e-015
    endloop
  endfacet
  facet normal -0.980785 -0.19509 -4.35556e-016
    outer loop
      vertex 12.6194 1.91342 -3
      vertex 12.642 1.8 2.80708e-015
      vertex 12.6194 1.91342 3
    endloop
  endfacet
  facet normal -0.980785 -0.19509 -4.35556e-016
    outer loop
      vertex 12.7468 1.27279 1.27279
      vertex 12.6194 1.91342 3
      vertex 12.6692 1.66298 0.68883
    endloop
  endfacet
  facet normal -0.980785 -0.19509 -4.35556e-016
    outer loop
      vertex 12.6194 1.91342 3
      vertex 12.863 0.68883 1.66298
      vertex 13 0 1.8
    endloop
  endfacet
  facet normal -0.980785 -0.19509 -4.35556e-016
    outer loop
      vertex 12.6194 1.91342 3
      vertex 13 0 1.8
      vertex 13 0 3
    endloop
  endfacet
  facet normal -0.980785 -0.19509 -4.35556e-016
    outer loop
      vertex 12.863 0.68883 -1.66298
      vertex 13 0 -3
      vertex 13 0 -1.8
    endloop
  endfacet
  facet normal -0.980785 -0.19509 -4.35556e-016
    outer loop
      vertex 12.863 0.68883 1.66298
      vertex 12.6194 1.91342 3
      vertex 12.7468 1.27279 1.27279
    endloop
  endfacet
  facet normal -0.83147 -0.55557 -3.69247e-016
    outer loop
      vertex 11.5355 3.53553 -3
      vertex 12.6194 1.91342 -3
      vertex 11.5355 3.53553 3
    endloop
  endfacet
  facet normal -0.83147 -0.55557 -3.69247e-016
    outer loop
      vertex 11.5355 3.53553 3
      vertex 12.6194 1.91342 -3
      vertex 12.6194 1.91342 3
    endloop
  endfacet
  facet normal -0.55557 -0.83147 -2.46723e-016
    outer loop
      vertex 10.4572 4.25604 3
      vertex 10.4572 4.25604 -3
      vertex 11.5355 3.53553 -3
    endloop
  endfacet
  facet normal -0.55557 -0.83147 -2.46723e-016
    outer loop
      vertex 11.5355 3.53553 3
      vertex 10.4572 4.25604 3
      vertex 11.5355 3.53553 -3
    endloop
  endfacet
  facet normal -0.866025 0.5 -3.84593e-016
    outer loop
      vertex 11.9628 6.86372 -3
      vertex 11.9628 6.86372 3
      vertex 11.9741 6.88327 -3
    endloop
  endfacet
  facet normal -0.866025 0.5 -3.84593e-016
    outer loop
      vertex 11.9741 6.88327 3
      vertex 11.9628 6.86372 3
      vertex 10.4572 4.25604 3
    endloop
  endfacet
  facet normal -0.866025 0.5 -3.84593e-016
    outer loop
      vertex 10.4572 4.25604 -3
      vertex 10.5305 4.38296 3
      vertex 10.5305 4.38296 -3
    endloop
  endfacet
  facet normal -0.866025 0.5 -3.84593e-016
    outer loop
      vertex 10.4572 4.25604 3
      vertex 10.5305 4.38296 3
      vertex 10.4572 4.25604 -3
    endloop
  endfacet
  facet normal -0.866025 0.5 -3.84593e-016
    outer loop
      vertex 11.9628 6.86372 3
      vertex 10.5305 4.38296 3
      vertex 10.4572 4.25604 3
    endloop
  endfacet
  facet normal -0.866025 0.5 -3.84593e-016
    outer loop
      vertex 11.9741 6.88327 -3
      vertex 11.9628 6.86372 3
      vertex 11.9741 6.88327 3
    endloop
  endfacet
  facet normal 0.464723 0.885456 2.06379e-016
    outer loop
      vertex 12.5445 6.58387 3
      vertex 12.5445 6.58387 -3
      vertex 11.9741 6.88327 3
    endloop
  endfacet
  facet normal 0.464723 0.885456 2.06379e-016
    outer loop
      vertex 11.9741 6.88327 3
      vertex 12.5445 6.58387 -3
      vertex 11.9741 6.88327 -3
    endloop
  endfacet
  facet normal 0.663123 0.748511 2.94486e-016
    outer loop
      vertex 13.9881 5.30498 3
      vertex 13.9881 5.30498 -3
      vertex 12.5445 6.58387 3
    endloop
  endfacet
  facet normal 0.663123 0.748511 2.94486e-016
    outer loop
      vertex 12.5445 6.58387 3
      vertex 13.9881 5.30498 -3
      vertex 12.5445 6.58387 -3
    endloop
  endfacet
  facet normal 0.822984 0.568065 3.65478e-016
    outer loop
      vertex 13.9881 5.30498 3
      vertex 15.0836 3.71778 3
      vertex 15.0836 3.71778 -3
    endloop
  endfacet
  facet normal 0.822984 0.568065 3.65478e-016
    outer loop
      vertex 13.9881 5.30498 -3
      vertex 13.9881 5.30498 3
      vertex 15.0836 3.71778 -3
    endloop
  endfacet
  facet normal 0.935016 0.354605 4.15231e-016
    outer loop
      vertex 15.0836 3.71778 3
      vertex 15.7675 1.91452 3
      vertex 15.7675 1.91452 -3
    endloop
  endfacet
  facet normal 0.935016 0.354605 4.15231e-016
    outer loop
      vertex 15.0836 3.71778 -3
      vertex 15.0836 3.71778 3
      vertex 15.7675 1.91452 -3
    endloop
  endfacet
  facet normal 4.44089e-016 0 -1
    outer loop
      vertex 16 0 -3
      vertex 15.7675 -1.91452 -3
      vertex 15.7675 1.91452 -3
    endloop
  endfacet
  facet normal 4.44089e-016 0 -1
    outer loop
      vertex 15.7675 1.91452 -3
      vertex 15.7675 -1.91452 -3
      vertex 15.0836 -3.71778 -3
    endloop
  endfacet
  facet normal 4.44089e-016 0 -1
    outer loop
      vertex 15.7675 1.91452 -3
      vertex 15.0836 -3.71778 -3
      vertex 13.9881 -5.30498 -3
    endloop
  endfacet
  facet normal 4.44089e-016 0 -1
    outer loop
      vertex 15.7675 1.91452 -3
      vertex 13.9881 -5.30498 -3
      vertex 12.5445 -6.58387 -3
    endloop
  endfacet
  facet normal 4.44089e-016 0 -1
    outer loop
      vertex 15.7675 1.91452 -3
      vertex 12.5445 -6.58387 -3
      vertex 10.8368 -7.48013 -3
    endloop
  endfacet
  facet normal 4.44089e-016 0 -1
    outer loop
      vertex 15.7675 1.91452 -3
      vertex 10.8368 -7.48013 -3
      vertex 8.96429 -7.94167 -3
    endloop
  endfacet
  facet normal 4.44089e-016 0 -1
    outer loop
      vertex 11.5355 -3.53553 -3
      vertex 8.96429 -7.94167 -3
      vertex 7.03571 -7.94167 -3
    endloop
  endfacet
  facet normal 4.44089e-016 0 -1
    outer loop
      vertex 8 -5 -3
      vertex 7.03571 -7.94167 -3
      vertex 5.16316 -7.48013 -3
    endloop
  endfacet
  facet normal 4.44089e-016 0 -1
    outer loop
      vertex 6.08658 -4.6194 -3
      vertex 3.45548 -6.58387 -3
      vertex 2.01191 -5.30498 -3
    endloop
  endfacet
  facet normal 4.44089e-016 0 -1
    outer loop
      vertex 4.46447 -3.53553 -3
      vertex 2.01191 -5.30498 -3
      vertex 0.916352 -3.71778 -3
    endloop
  endfacet
  facet normal 4.44089e-016 0 -1
    outer loop
      vertex 3.3806 -1.91342 -3
      vertex 0.916352 -3.71778 -3
      vertex 0.232465 -1.91452 -3
    endloop
  endfacet
  facet normal 4.44089e-016 0 -1
    outer loop
      vertex 3 0 -3
      vertex 0.232465 -1.91452 -3
      vertex 1.33227e-015 0 -3
    endloop
  endfacet
  facet normal 4.44089e-016 0 -1
    outer loop
      vertex 4.46447 -3.53553 -3
      vertex 0.916352 -3.71778 -3
      vertex 3.3806 -1.91342 -3
    endloop
  endfacet
  facet normal 4.44089e-016 0 -1
    outer loop
      vertex 8 -5 -3
      vertex 3.45548 -6.58387 -3
      vertex 6.08658 -4.6194 -3
    endloop
  endfacet
  facet normal 4.44089e-016 0 -1
    outer loop
      vertex 6.08658 -4.6194 -3
      vertex 2.01191 -5.30498 -3
      vertex 4.46447 -3.53553 -3
    endloop
  endfacet
  facet normal 4.44089e-016 0 -1
    outer loop
      vertex 8 -5 -3
      vertex 5.16316 -7.48013 -3
      vertex 3.45548 -6.58387 -3
    endloop
  endfacet
  facet normal 4.44089e-016 0 -1
    outer loop
      vertex 9.91342 -4.6194 -3
      vertex 7.03571 -7.94167 -3
      vertex 8 -5 -3
    endloop
  endfacet
  facet normal 4.44089e-016 0 -1
    outer loop
      vertex 11.5355 -3.53553 -3
      vertex 7.03571 -7.94167 -3
      vertex 9.91342 -4.6194 -3
    endloop
  endfacet
  facet normal 4.44089e-016 0 -1
    outer loop
      vertex 15.7675 1.91452 -3
      vertex 8.96429 -7.94167 -3
      vertex 11.5355 -3.53553 -3
    endloop
  endfacet
  facet normal 4.44089e-016 0 -1
    outer loop
      vertex 13 0 -3
      vertex 15.7675 1.91452 -3
      vertex 12.6194 -1.91342 -3
    endloop
  endfacet
  facet normal 4.44089e-016 0 -1
    outer loop
      vertex 15.7675 1.91452 -3
      vertex 11.5355 -3.53553 -3
      vertex 12.6194 -1.91342 -3
    endloop
  endfacet
  facet normal 4.44089e-016 0 -1
    outer loop
      vertex 12.4635 4.74749 -3
      vertex 15.7675 1.91452 -3
      vertex 10.7865 4.20258 -3
    endloop
  endfacet
  facet normal 4.44089e-016 0 -1
    outer loop
      vertex 15.7675 1.91452 -3
      vertex 12.6194 1.91342 -3
      vertex 11.5355 3.53553 -3
    endloop
  endfacet
  facet normal 4.44089e-016 0 -1
    outer loop
      vertex 11.5355 3.53553 -3
      vertex 10.4572 4.25604 -3
      vertex 15.7675 1.91452 -3
    endloop
  endfacet
  facet normal 4.44089e-016 0 -1
    outer loop
      vertex 10.7865 4.20258 -3
      vertex 10.4572 4.25604 -3
      vertex 10.5305 4.38296 -3
    endloop
  endfacet
  facet normal 4.44089e-016 0 -1
    outer loop
      vertex 15.7675 1.91452 -3
      vertex 10.4572 4.25604 -3
      vertex 10.7865 4.20258 -3
    endloop
  endfacet
  facet normal 4.44089e-016 0 -1
    outer loop
      vertex 15.7675 1.91452 -3
      vertex 12.4635 4.74749 -3
      vertex 12.4635 6.51084 -3
    endloop
  endfacet
  facet normal 4.44089e-016 0 -1
    outer loop
      vertex 12.4635 6.51084 -3
      vertex 11.9628 6.86372 -3
      vertex 11.9741 6.88327 -3
    endloop
  endfacet
  facet normal 4.44089e-016 0 -1
    outer loop
      vertex 12.4635 6.51084 -3
      vertex 11.9741 6.88327 -3
      vertex 12.5445 6.58387 -3
    endloop
  endfacet
  facet normal 4.44089e-016 0 -1
    outer loop
      vertex 12.4635 6.51084 -3
      vertex 12.5445 6.58387 -3
      vertex 15.7675 1.91452 -3
    endloop
  endfacet
  facet normal 4.44089e-016 0 -1
    outer loop
      vertex 15.7675 1.91452 -3
      vertex 12.5445 6.58387 -3
      vertex 13.9881 5.30498 -3
    endloop
  endfacet
  facet normal 4.44089e-016 0 -1
    outer loop
      vertex 15.7675 1.91452 -3
      vertex 13.9881 5.30498 -3
      vertex 15.0836 3.71778 -3
    endloop
  endfacet
  facet normal 4.44089e-016 0 -1
    outer loop
      vertex 3.3806 -1.91342 -3
      vertex 0.232465 -1.91452 -3
      vertex 3 0 -3
    endloop
  endfacet
  facet normal 4.44089e-016 0 -1
    outer loop
      vertex 12.6194 1.91342 -3
      vertex 15.7675 1.91452 -3
      vertex 13 0 -3
    endloop
  endfacet
  facet normal -2.17778e-016 0.195091 0.980785
    outer loop
      vertex 15.9164 -0.68883 -1.66298
      vertex 16 0 -1.8
      vertex 13 0 -1.8
    endloop
  endfacet
  facet normal -2.17778e-016 0.195091 0.980785
    outer loop
      vertex 12.863 -0.68883 -1.66298
      vertex 15.9164 -0.68883 -1.66298
      vertex 13 0 -1.8
    endloop
  endfacet
  facet normal -2.17778e-016 -0.195091 0.980785
    outer loop
      vertex 13 0 -1.8
      vertex 16 0 -1.8
      vertex 15.9164 0.68883 -1.66298
    endloop
  endfacet
  facet normal -2.17778e-016 -0.195091 0.980785
    outer loop
      vertex 12.863 0.68883 -1.66298
      vertex 13 0 -1.8
      vertex 15.9164 0.68883 -1.66298
    endloop
  endfacet
  facet normal -1.84623e-016 -0.55557 0.83147
    outer loop
      vertex 12.863 0.68883 -1.66298
      vertex 15.9164 0.68883 -1.66298
      vertex 15.8455 1.27279 -1.27279
    endloop
  endfacet
  facet normal -1.84623e-016 -0.55557 0.83147
    outer loop
      vertex 12.7468 1.27279 -1.27279
      vertex 12.863 0.68883 -1.66298
      vertex 15.8455 1.27279 -1.27279
    endloop
  endfacet
  facet normal -1.23361e-016 -0.83147 0.55557
    outer loop
      vertex 12.7468 1.27279 -1.27279
      vertex 15.8455 1.27279 -1.27279
      vertex 15.7981 1.66298 -0.68883
    endloop
  endfacet
  facet normal -1.23361e-016 -0.83147 0.55557
    outer loop
      vertex 12.6692 1.66298 -0.68883
      vertex 12.7468 1.27279 -1.27279
      vertex 15.7981 1.66298 -0.68883
    endloop
  endfacet
  facet normal -4.33188e-017 -0.980785 0.195091
    outer loop
      vertex 12.6692 1.66298 -0.68883
      vertex 15.7981 1.66298 -0.68883
      vertex 15.7814 1.8 3.50418e-015
    endloop
  endfacet
  facet normal -4.33188e-017 -0.980785 0.195091
    outer loop
      vertex 12.642 1.8 2.80708e-015
      vertex 12.6692 1.66298 -0.68883
      vertex 15.7814 1.8 3.50418e-015
    endloop
  endfacet
  facet normal 4.33188e-017 -0.980785 -0.195091
    outer loop
      vertex 12.642 1.8 2.80708e-015
      vertex 15.7814 1.8 3.50418e-015
      vertex 15.7981 1.66298 0.68883
    endloop
  endfacet
  facet normal 4.33188e-017 -0.980785 -0.195091
    outer loop
      vertex 12.6692 1.66298 0.68883
      vertex 12.642 1.8 2.80708e-015
      vertex 15.7981 1.66298 0.68883
    endloop
  endfacet
  facet normal 1.23361e-016 -0.83147 -0.55557
    outer loop
      vertex 12.6692 1.66298 0.68883
      vertex 15.7981 1.66298 0.68883
      vertex 15.8455 1.27279 1.27279
    endloop
  endfacet
  facet normal 1.23361e-016 -0.83147 -0.55557
    outer loop
      vertex 12.7468 1.27279 1.27279
      vertex 12.6692 1.66298 0.68883
      vertex 15.8455 1.27279 1.27279
    endloop
  endfacet
  facet normal 1.84623e-016 -0.55557 -0.83147
    outer loop
      vertex 15.8455 1.27279 1.27279
      vertex 15.9164 0.68883 1.66298
      vertex 12.7468 1.27279 1.27279
    endloop
  endfacet
  facet normal 1.84623e-016 -0.55557 -0.83147
    outer loop
      vertex 12.7468 1.27279 1.27279
      vertex 15.9164 0.68883 1.66298
      vertex 12.863 0.68883 1.66298
    endloop
  endfacet
  facet normal 2.17778e-016 -0.195091 -0.980785
    outer loop
      vertex 15.9164 0.68883 1.66298
      vertex 16 0 1.8
      vertex 12.863 0.68883 1.66298
    endloop
  endfacet
  facet normal 2.17778e-016 -0.195091 -0.980785
    outer loop
      vertex 12.863 0.68883 1.66298
      vertex 16 0 1.8
      vertex 13 0 1.8
    endloop
  endfacet
  facet normal 2.17778e-016 0.195091 -0.980785
    outer loop
      vertex 15.9164 -0.68883 1.66298
      vertex 12.863 -0.68883 1.66298
      vertex 16 0 1.8
    endloop
  endfacet
  facet normal 2.17778e-016 0.195091 -0.980785
    outer loop
      vertex 16 0 1.8
      vertex 12.863 -0.68883 1.66298
      vertex 13 0 1.8
    endloop
  endfacet
  facet normal 1.84623e-016 0.55557 -0.83147
    outer loop
      vertex 15.8455 -1.27279 1.27279
      vertex 12.7468 -1.27279 1.27279
      vertex 15.9164 -0.68883 1.66298
    endloop
  endfacet
  facet normal 1.84623e-016 0.55557 -0.83147
    outer loop
      vertex 15.9164 -0.68883 1.66298
      vertex 12.7468 -1.27279 1.27279
      vertex 12.863 -0.68883 1.66298
    endloop
  endfacet
  facet normal 1.23361e-016 0.83147 -0.55557
    outer loop
      vertex 15.7981 -1.66298 0.68883
      vertex 12.6692 -1.66298 0.68883
      vertex 15.8455 -1.27279 1.27279
    endloop
  endfacet
  facet normal 1.23361e-016 0.83147 -0.55557
    outer loop
      vertex 15.8455 -1.27279 1.27279
      vertex 12.6692 -1.66298 0.68883
      vertex 12.7468 -1.27279 1.27279
    endloop
  endfacet
  facet normal 4.33188e-017 0.980785 -0.195091
    outer loop
      vertex 15.7814 -1.8 3.50418e-015
      vertex 12.642 -1.8 2.80708e-015
      vertex 15.7981 -1.66298 0.68883
    endloop
  endfacet
  facet normal 4.33188e-017 0.980785 -0.195091
    outer loop
      vertex 15.7981 -1.66298 0.68883
      vertex 12.642 -1.8 2.80708e-015
      vertex 12.6692 -1.66298 0.68883
    endloop
  endfacet
  facet normal -4.33188e-017 0.980785 0.195091
    outer loop
      vertex 15.7981 -1.66298 -0.68883
      vertex 12.6692 -1.66298 -0.68883
      vertex 15.7814 -1.8 3.50418e-015
    endloop
  endfacet
  facet normal -4.33188e-017 0.980785 0.195091
    outer loop
      vertex 15.7814 -1.8 3.50418e-015
      vertex 12.6692 -1.66298 -0.68883
      vertex 12.642 -1.8 2.80708e-015
    endloop
  endfacet
  facet normal -1.23361e-016 0.83147 0.55557
    outer loop
      vertex 15.8455 -1.27279 -1.27279
      vertex 12.7468 -1.27279 -1.27279
      vertex 15.7981 -1.66298 -0.68883
    endloop
  endfacet
  facet normal -1.23361e-016 0.83147 0.55557
    outer loop
      vertex 15.7981 -1.66298 -0.68883
      vertex 12.7468 -1.27279 -1.27279
      vertex 12.6692 -1.66298 -0.68883
    endloop
  endfacet
  facet normal -1.84623e-016 0.55557 0.83147
    outer loop
      vertex 15.8455 -1.27279 -1.27279
      vertex 15.9164 -0.68883 -1.66298
      vertex 12.863 -0.68883 -1.66298
    endloop
  endfacet
  facet normal -1.84623e-016 0.55557 0.83147
    outer loop
      vertex 12.7468 -1.27279 -1.27279
      vertex 15.8455 -1.27279 -1.27279
      vertex 12.863 -0.68883 -1.66298
    endloop
  endfacet
  facet normal 2.22045e-016 0 -1
    outer loop
      vertex 3.3806 -1.91342 -3
      vertex 4 3.5 -3
      vertex 4 -2.84041 -3
    endloop
  endfacet
  facet normal 2.22045e-016 0 -1
    outer loop
      vertex 3 0 -3
      vertex 4 3.5 -3
      vertex 3.3806 -1.91342 -3
    endloop
  endfacet
  facet normal 2.22045e-016 0 -1
    outer loop
      vertex 6.66134e-016 -3.5 -3
      vertex 6.66134e-016 3.5 -3
      vertex 1.33227e-015 0 -3
    endloop
  endfacet
  facet normal 2.22045e-016 0 -1
    outer loop
      vertex 6.66134e-016 -3.5 -3
      vertex 1.33227e-015 0 -3
      vertex 0.232465 -1.91452 -3
    endloop
  endfacet
  facet normal 2.22045e-016 0 -1
    outer loop
      vertex 6.66134e-016 -3.5 -3
      vertex 0.232465 -1.91452 -3
      vertex 0.833757 -3.5 -3
    endloop
  endfacet
  facet normal 2.22045e-016 0 -1
    outer loop
      vertex 1.33227e-015 0 -3
      vertex 6.66134e-016 3.5 -3
      vertex 4 3.5 -3
    endloop
  endfacet
  facet normal 2.22045e-016 0 -1
    outer loop
      vertex 1.33227e-015 0 -3
      vertex 4 3.5 -3
      vertex 3 0 -3
    endloop
  endfacet
  facet normal -2.22045e-016 0 1
    outer loop
      vertex -6.66134e-016 3.5 3
      vertex -6.66134e-016 -3.5 3
      vertex 4 -3.5 3
    endloop
  endfacet
  facet normal -2.22045e-016 0 1
    outer loop
      vertex 4 3.5 3
      vertex -6.66134e-016 3.5 3
      vertex 4 -3.5 3
    endloop
  endfacet
  facet normal -1 0 -2.22045e-016
    outer loop
      vertex 1.52951e-016 1.66298 -0.68883
      vertex -6.66134e-016 3.5 3
      vertex 6.66134e-016 3.5 -3
    endloop
  endfacet
  facet normal -1 0 -2.22045e-016
    outer loop
      vertex -6.66134e-016 -3.5 3
      vertex -6.66134e-016 3.5 3
      vertex -6.66134e-016 0 3
    endloop
  endfacet
  facet normal -1 0 -2.22045e-016
    outer loop
      vertex -6.66134e-016 -3.5 3
      vertex -6.66134e-016 0 3
      vertex -6.66134e-016 -5.48612e-015 3
    endloop
  endfacet
  facet normal -1 0 -2.22045e-016
    outer loop
      vertex -3.69256e-016 0.68883 1.66298
      vertex -6.66134e-016 3.5 3
      vertex -2.82617e-016 1.27279 1.27279
    endloop
  endfacet
  facet normal -1 0 -2.22045e-016
    outer loop
      vertex -2.82617e-016 -1.27279 1.27279
      vertex -6.66134e-016 -5.48612e-015 3
      vertex -3.69256e-016 -0.68883 1.66298
    endloop
  endfacet
  facet normal -1 0 -2.22045e-016
    outer loop
      vertex -6.66134e-016 -3.5 3
      vertex -6.66134e-016 -5.48612e-015 3
      vertex -2.82617e-016 -1.27279 1.27279
    endloop
  endfacet
  facet normal -1 0 -2.22045e-016
    outer loop
      vertex -6.66134e-016 -3.5 3
      vertex -2.82617e-016 -1.27279 1.27279
      vertex -1.52951e-016 -1.66298 0.68883
    endloop
  endfacet
  facet normal -1 0 -2.22045e-016
    outer loop
      vertex -6.66134e-016 -3.5 3
      vertex -1.52951e-016 -1.66298 0.68883
      vertex 6.66134e-016 -3.5 -3
    endloop
  endfacet
  facet normal -1 0 -2.22045e-016
    outer loop
      vertex 0 -1.8 0
      vertex 6.66134e-016 -3.5 -3
      vertex -1.52951e-016 -1.66298 0.68883
    endloop
  endfacet
  facet normal -1 0 -2.22045e-016
    outer loop
      vertex 1.52951e-016 -1.66298 -0.68883
      vertex 6.66134e-016 -3.5 -3
      vertex 0 -1.8 0
    endloop
  endfacet
  facet normal -1 0 -2.22045e-016
    outer loop
      vertex 2.82617e-016 -1.27279 -1.27279
      vertex 6.66134e-016 -3.5 -3
      vertex 1.52951e-016 -1.66298 -0.68883
    endloop
  endfacet
  facet normal -1 0 -2.22045e-016
    outer loop
      vertex 3.69256e-016 0.68883 -1.66298
      vertex 6.66134e-016 3.5 -3
      vertex 3.9968e-016 0 -1.8
    endloop
  endfacet
  facet normal -1 0 -2.22045e-016
    outer loop
      vertex 6.66134e-016 -3.5 -3
      vertex 2.82617e-016 -1.27279 -1.27279
      vertex 3.69256e-016 -0.68883 -1.66298
    endloop
  endfacet
  facet normal -1 0 -2.22045e-016
    outer loop
      vertex 6.66134e-016 -3.5 -3
      vertex 3.69256e-016 -0.68883 -1.66298
      vertex 6.66134e-016 3.5 -3
    endloop
  endfacet
  facet normal -1 0 -2.22045e-016
    outer loop
      vertex 3.69256e-016 -0.68883 -1.66298
      vertex 3.9968e-016 0 -1.8
      vertex 6.66134e-016 3.5 -3
    endloop
  endfacet
  facet normal -1 0 -2.22045e-016
    outer loop
      vertex -2.82617e-016 1.27279 1.27279
      vertex -6.66134e-016 3.5 3
      vertex -1.52951e-016 1.66298 0.68883
    endloop
  endfacet
  facet normal -1 0 -2.22045e-016
    outer loop
      vertex 0 1.8 0
      vertex -6.66134e-016 3.5 3
      vertex 1.52951e-016 1.66298 -0.68883
    endloop
  endfacet
  facet normal -1 0 -2.22045e-016
    outer loop
      vertex -1.52951e-016 1.66298 0.68883
      vertex -6.66134e-016 3.5 3
      vertex 0 1.8 0
    endloop
  endfacet
  facet normal -1 0 -2.22045e-016
    outer loop
      vertex 3.69256e-016 0.68883 -1.66298
      vertex 2.82617e-016 1.27279 -1.27279
      vertex 6.66134e-016 3.5 -3
    endloop
  endfacet
  facet normal -1 0 -2.22045e-016
    outer loop
      vertex 2.82617e-016 1.27279 -1.27279
      vertex 1.52951e-016 1.66298 -0.68883
      vertex 6.66134e-016 3.5 -3
    endloop
  endfacet
  facet normal -1 0 -2.22045e-016
    outer loop
      vertex -3.9968e-016 0 1.8
      vertex -6.66134e-016 3.5 3
      vertex -3.69256e-016 0.68883 1.66298
    endloop
  endfacet
  facet normal -1 0 -2.22045e-016
    outer loop
      vertex -3.9968e-016 -3.29167e-015 1.8
      vertex -3.69256e-016 -0.68883 1.66298
      vertex -6.66134e-016 -5.48612e-015 3
    endloop
  endfacet
  facet normal -1 0 -2.22045e-016
    outer loop
      vertex -6.66134e-016 0 3
      vertex -6.66134e-016 3.5 3
      vertex -3.9968e-016 0 1.8
    endloop
  endfacet
  facet normal 0 1 0
    outer loop
      vertex -6.66134e-016 3.5 3
      vertex 4 3.5 3
      vertex 6.66134e-016 3.5 -3
    endloop
  endfacet
  facet normal 0 1 0
    outer loop
      vertex 6.66134e-016 3.5 -3
      vertex 4 3.5 3
      vertex 4 3.5 -3
    endloop
  endfacet
  facet normal 2.17778e-016 0.195091 -0.980785
    outer loop
      vertex 4 0 1.8
      vertex 4 -0.68883 1.66298
      vertex -3.9968e-016 0 1.8
    endloop
  endfacet
  facet normal 2.17778e-016 0.195091 -0.980785
    outer loop
      vertex -3.9968e-016 -3.29167e-015 1.8
      vertex 4 -0.68883 1.66298
      vertex -3.69256e-016 -0.68883 1.66298
    endloop
  endfacet
  facet normal 2.17778e-016 0.195091 -0.980785
    outer loop
      vertex -3.9968e-016 0 1.8
      vertex 4 -0.68883 1.66298
      vertex -3.9968e-016 -3.29167e-015 1.8
    endloop
  endfacet
  facet normal 2.17778e-016 0.195091 -0.980785
    outer loop
      vertex -3.9968e-016 -3.29167e-015 1.8
      vertex -7.99361e-016 0 1.8
      vertex -3.9968e-016 0 1.8
    endloop
  endfacet
  facet normal 1.84623e-016 0.55557 -0.83147
    outer loop
      vertex 4 -1.27279 1.27279
      vertex -2.82617e-016 -1.27279 1.27279
      vertex 4 -0.68883 1.66298
    endloop
  endfacet
  facet normal 1.84623e-016 0.55557 -0.83147
    outer loop
      vertex 4 -0.68883 1.66298
      vertex -2.82617e-016 -1.27279 1.27279
      vertex -3.69256e-016 -0.68883 1.66298
    endloop
  endfacet
  facet normal 1.23361e-016 0.83147 -0.55557
    outer loop
      vertex 4 -1.66298 0.68883
      vertex -1.52951e-016 -1.66298 0.68883
      vertex 4 -1.27279 1.27279
    endloop
  endfacet
  facet normal 1.23361e-016 0.83147 -0.55557
    outer loop
      vertex 4 -1.27279 1.27279
      vertex -1.52951e-016 -1.66298 0.68883
      vertex -2.82617e-016 -1.27279 1.27279
    endloop
  endfacet
  facet normal 4.33188e-017 0.980785 -0.195091
    outer loop
      vertex 4 -1.8 8.88178e-016
      vertex 0 -1.8 0
      vertex 4 -1.66298 0.68883
    endloop
  endfacet
  facet normal 4.33188e-017 0.980785 -0.195091
    outer loop
      vertex 4 -1.66298 0.68883
      vertex 0 -1.8 0
      vertex -1.52951e-016 -1.66298 0.68883
    endloop
  endfacet
  facet normal -4.33188e-017 0.980785 0.195091
    outer loop
      vertex 4 -1.66298 -0.68883
      vertex 1.52951e-016 -1.66298 -0.68883
      vertex 4 -1.8 8.88178e-016
    endloop
  endfacet
  facet normal -4.33188e-017 0.980785 0.195091
    outer loop
      vertex 4 -1.8 8.88178e-016
      vertex 1.52951e-016 -1.66298 -0.68883
      vertex 0 -1.8 0
    endloop
  endfacet
  facet normal -1.23361e-016 0.83147 0.55557
    outer loop
      vertex 4 -1.27279 -1.27279
      vertex 2.82617e-016 -1.27279 -1.27279
      vertex 4 -1.66298 -0.68883
    endloop
  endfacet
  facet normal -1.23361e-016 0.83147 0.55557
    outer loop
      vertex 4 -1.66298 -0.68883
      vertex 2.82617e-016 -1.27279 -1.27279
      vertex 1.52951e-016 -1.66298 -0.68883
    endloop
  endfacet
  facet normal -1.84623e-016 0.55557 0.83147
    outer loop
      vertex 4 -1.27279 -1.27279
      vertex 4 -0.68883 -1.66298
      vertex 3.69256e-016 -0.68883 -1.66298
    endloop
  endfacet
  facet normal -1.84623e-016 0.55557 0.83147
    outer loop
      vertex 2.82617e-016 -1.27279 -1.27279
      vertex 4 -1.27279 -1.27279
      vertex 3.69256e-016 -0.68883 -1.66298
    endloop
  endfacet
  facet normal -2.17778e-016 0.195091 0.980785
    outer loop
      vertex 4 -0.68883 -1.66298
      vertex 4 0 -1.8
      vertex 3.9968e-016 0 -1.8
    endloop
  endfacet
  facet normal -2.17778e-016 0.195091 0.980785
    outer loop
      vertex 3.69256e-016 -0.68883 -1.66298
      vertex 4 -0.68883 -1.66298
      vertex 3.9968e-016 0 -1.8
    endloop
  endfacet
  facet normal -2.17778e-016 -0.195091 0.980785
    outer loop
      vertex 3.9968e-016 0 -1.8
      vertex 4 0 -1.8
      vertex 4 0.68883 -1.66298
    endloop
  endfacet
  facet normal -2.17778e-016 -0.195091 0.980785
    outer loop
      vertex 3.69256e-016 0.68883 -1.66298
      vertex 3.9968e-016 0 -1.8
      vertex 4 0.68883 -1.66298
    endloop
  endfacet
  facet normal -1.84623e-016 -0.55557 0.83147
    outer loop
      vertex 3.69256e-016 0.68883 -1.66298
      vertex 4 0.68883 -1.66298
      vertex 4 1.27279 -1.27279
    endloop
  endfacet
  facet normal -1.84623e-016 -0.55557 0.83147
    outer loop
      vertex 2.82617e-016 1.27279 -1.27279
      vertex 3.69256e-016 0.68883 -1.66298
      vertex 4 1.27279 -1.27279
    endloop
  endfacet
  facet normal -1.23361e-016 -0.83147 0.55557
    outer loop
      vertex 2.82617e-016 1.27279 -1.27279
      vertex 4 1.27279 -1.27279
      vertex 4 1.66298 -0.68883
    endloop
  endfacet
  facet normal -1.23361e-016 -0.83147 0.55557
    outer loop
      vertex 1.52951e-016 1.66298 -0.68883
      vertex 2.82617e-016 1.27279 -1.27279
      vertex 4 1.66298 -0.68883
    endloop
  endfacet
  facet normal -4.33188e-017 -0.980785 0.195091
    outer loop
      vertex 1.52951e-016 1.66298 -0.68883
      vertex 4 1.66298 -0.68883
      vertex 4 1.8 8.88178e-016
    endloop
  endfacet
  facet normal -4.33188e-017 -0.980785 0.195091
    outer loop
      vertex 0 1.8 0
      vertex 1.52951e-016 1.66298 -0.68883
      vertex 4 1.8 8.88178e-016
    endloop
  endfacet
  facet normal 4.33188e-017 -0.980785 -0.195091
    outer loop
      vertex 0 1.8 0
      vertex 4 1.8 8.88178e-016
      vertex 4 1.66298 0.68883
    endloop
  endfacet
  facet normal 4.33188e-017 -0.980785 -0.195091
    outer loop
      vertex -1.52951e-016 1.66298 0.68883
      vertex 0 1.8 0
      vertex 4 1.66298 0.68883
    endloop
  endfacet
  facet normal 1.23361e-016 -0.83147 -0.55557
    outer loop
      vertex -1.52951e-016 1.66298 0.68883
      vertex 4 1.66298 0.68883
      vertex 4 1.27279 1.27279
    endloop
  endfacet
  facet normal 1.23361e-016 -0.83147 -0.55557
    outer loop
      vertex -2.82617e-016 1.27279 1.27279
      vertex -1.52951e-016 1.66298 0.68883
      vertex 4 1.27279 1.27279
    endloop
  endfacet
  facet normal 1.84623e-016 -0.55557 -0.83147
    outer loop
      vertex 4 1.27279 1.27279
      vertex 4 0.68883 1.66298
      vertex -2.82617e-016 1.27279 1.27279
    endloop
  endfacet
  facet normal 1.84623e-016 -0.55557 -0.83147
    outer loop
      vertex -2.82617e-016 1.27279 1.27279
      vertex 4 0.68883 1.66298
      vertex -3.69256e-016 0.68883 1.66298
    endloop
  endfacet
  facet normal 2.17778e-016 -0.195091 -0.980785
    outer loop
      vertex 4 0.68883 1.66298
      vertex 4 0 1.8
      vertex -3.69256e-016 0.68883 1.66298
    endloop
  endfacet
  facet normal 2.17778e-016 -0.195091 -0.980785
    outer loop
      vertex -3.69256e-016 0.68883 1.66298
      vertex 4 0 1.8
      vertex -3.9968e-016 0 1.8
    endloop
  endfacet
  facet normal -0.576039 -0.817423 -1.27906e-016
    outer loop
      vertex 10.5305 4.38296 -3
      vertex 10.5305 4.38296 3
      vertex 1.03647 11.0734 3
    endloop
  endfacet
  facet normal -0.576039 -0.817423 -1.27906e-016
    outer loop
      vertex 10.7865 4.20258 -3
      vertex 10.5305 4.38296 -3
      vertex 1.03648 11.0734 -3
    endloop
  endfacet
  facet normal -0.576039 -0.817423 -1.27906e-016
    outer loop
      vertex 1.03648 11.0734 -3
      vertex 10.5305 4.38296 -3
      vertex 1.03647 11.0734 3
    endloop
  endfacet
  facet normal -2.22045e-016 0 1
    outer loop
      vertex 1.03647 11.0734 3
      vertex 10.5305 4.38296 3
      vertex 11.9628 6.86372 3
    endloop
  endfacet
  facet normal -2.22045e-016 0 1
    outer loop
      vertex 4.21352 14.6183 3
      vertex 1.03647 11.0734 3
      vertex 3.36548 12.9222 3
    endloop
  endfacet
  facet normal -2.22045e-016 0 1
    outer loop
      vertex 3.36548 12.9222 3
      vertex 1.03647 11.0734 3
      vertex 11.9628 6.86372 3
    endloop
  endfacet
  facet normal -2.22045e-016 0 1
    outer loop
      vertex 4.21352 16.3817 3
      vertex 1.03647 11.0734 3
      vertex 4.21352 14.6183 3
    endloop
  endfacet
  facet normal -2.22045e-016 0 1
    outer loop
      vertex 2.53647 16.9266 3
      vertex 1.03647 11.0734 3
      vertex 4.21352 16.3817 3
    endloop
  endfacet
  facet normal -2.22045e-016 0 1
    outer loop
      vertex 1.5 15.5 3
      vertex 1.03647 11.0734 3
      vertex 2.53647 16.9266 3
    endloop
  endfacet
  facet normal -2.22045e-016 0 1
    outer loop
      vertex -6.66134e-016 12.5 3
      vertex 1.03647 11.0734 3
      vertex 1.5 15.5 3
    endloop
  endfacet
  facet normal 0.576039 0.817423 1.27906e-016
    outer loop
      vertex 11.9628 6.86372 3
      vertex 11.9628 6.86372 -3
      vertex 3.36548 12.9222 3
    endloop
  endfacet
  facet normal 0.576039 0.817423 1.27906e-016
    outer loop
      vertex 3.36548 12.9222 -3
      vertex 11.9628 6.86372 -3
      vertex 12.4635 6.51084 -3
    endloop
  endfacet
  facet normal 0.576039 0.817423 1.27906e-016
    outer loop
      vertex 3.36548 12.9222 3
      vertex 11.9628 6.86372 -3
      vertex 3.36548 12.9222 -3
    endloop
  endfacet
  facet normal -4.44089e-016 0 1
    outer loop
      vertex -1.33227e-015 0 3
      vertex -6.66134e-016 -5.48612e-015 3
      vertex -6.66134e-016 0 3
    endloop
  endfacet
  facet normal 0 1 0
    outer loop
      vertex -7.99361e-016 0 1.8
      vertex -1.33227e-015 0 3
      vertex -3.9968e-016 0 1.8
    endloop
  endfacet
  facet normal 0 1 0
    outer loop
      vertex -3.9968e-016 0 1.8
      vertex -1.33227e-015 0 3
      vertex -6.66134e-016 0 3
    endloop
  endfacet
  facet normal -0.992709 -0.120536 -4.40851e-016
    outer loop
      vertex -6.66134e-016 -5.48612e-015 3
      vertex -1.33227e-015 0 3
      vertex -3.9968e-016 -3.29167e-015 1.8
    endloop
  endfacet
  facet normal -0.992709 -0.120536 -4.40851e-016
    outer loop
      vertex -3.9968e-016 -3.29167e-015 1.8
      vertex -1.33227e-015 0 3
      vertex -7.99361e-016 0 1.8
    endloop
  endfacet
  facet normal 2.22045e-016 0 -1
    outer loop
      vertex 10.7865 4.20258 -3
      vertex 1.03648 11.0734 -3
      vertex 12.4635 4.74749 -3
    endloop
  endfacet
  facet normal 2.22045e-016 0 -1
    outer loop
      vertex 12.4635 4.74749 -3
      vertex 1.03648 11.0734 -3
      vertex 6.66134e-016 12.5 -3
    endloop
  endfacet
  facet normal 2.22045e-016 0 -1
    outer loop
      vertex 3.36548 12.9222 -3
      vertex 6.66134e-016 12.5 -3
      vertex 1.5 15.5 -3
    endloop
  endfacet
  facet normal 2.22045e-016 0 -1
    outer loop
      vertex 4.21352 14.6183 -3
      vertex 1.5 15.5 -3
      vertex 2.53648 16.9266 -3
    endloop
  endfacet
  facet normal 2.22045e-016 0 -1
    outer loop
      vertex 3.36548 12.9222 -3
      vertex 1.5 15.5 -3
      vertex 4.21352 14.6183 -3
    endloop
  endfacet
  facet normal 2.22045e-016 0 -1
    outer loop
      vertex 12.4635 4.74749 -3
      vertex 6.66134e-016 12.5 -3
      vertex 3.36548 12.9222 -3
    endloop
  endfacet
  facet normal 2.22045e-016 0 -1
    outer loop
      vertex 12.4635 6.51084 -3
      vertex 12.4635 4.74749 -3
      vertex 3.36548 12.9222 -3
    endloop
  endfacet
  facet normal 2.22045e-016 0 -1
    outer loop
      vertex 4.21352 14.6183 -3
      vertex 2.53648 16.9266 -3
      vertex 4.21352 16.3817 -3
    endloop
  endfacet
  facet normal -0.809017 -0.587785 -1.79638e-016
    outer loop
      vertex 1.03647 11.0734 3
      vertex -6.66134e-016 12.5 3
      vertex 1.03648 11.0734 -3
    endloop
  endfacet
  facet normal -0.809017 -0.587785 -1.79638e-016
    outer loop
      vertex 1.03648 11.0734 -3
      vertex -6.66134e-016 12.5 3
      vertex 6.66134e-016 12.5 -3
    endloop
  endfacet
  facet normal -0.894427 0.447214 -1.98603e-016
    outer loop
      vertex -6.66134e-016 12.5 3
      vertex 1.5 15.5 3
      vertex 6.66134e-016 12.5 -3
    endloop
  endfacet
  facet normal -0.894427 0.447214 -1.98603e-016
    outer loop
      vertex 6.66134e-016 12.5 -3
      vertex 1.5 15.5 3
      vertex 1.5 15.5 -3
    endloop
  endfacet
  facet normal -0.809017 0.587785 -1.79638e-016
    outer loop
      vertex 1.5 15.5 3
      vertex 2.53647 16.9266 3
      vertex 1.5 15.5 -3
    endloop
  endfacet
  facet normal -0.809017 0.587785 -1.79638e-016
    outer loop
      vertex 1.5 15.5 -3
      vertex 2.53647 16.9266 3
      vertex 2.53648 16.9266 -3
    endloop
  endfacet
  facet normal 0.309017 0.951056 6.86156e-017
    outer loop
      vertex 4.21352 16.3817 3
      vertex 4.21352 16.3817 -3
      vertex 2.53647 16.9266 3
    endloop
  endfacet
  facet normal 0.309017 0.951056 6.86156e-017
    outer loop
      vertex 2.53647 16.9266 3
      vertex 4.21352 16.3817 -3
      vertex 2.53648 16.9266 -3
    endloop
  endfacet
  facet normal 1 0 2.22045e-016
    outer loop
      vertex 4.21352 16.3817 3
      vertex 4.21352 14.6183 3
      vertex 4.21352 14.6183 -3
    endloop
  endfacet
  facet normal 1 0 2.22045e-016
    outer loop
      vertex 4.21352 16.3817 -3
      vertex 4.21352 16.3817 3
      vertex 4.21352 14.6183 -3
    endloop
  endfacet
  facet normal 0.894427 -0.447214 1.98603e-016
    outer loop
      vertex 4.21352 14.6183 3
      vertex 3.36548 12.9222 3
      vertex 3.36548 12.9222 -3
    endloop
  endfacet
  facet normal 0.894427 -0.447214 1.98603e-016
    outer loop
      vertex 4.21352 14.6183 -3
      vertex 4.21352 14.6183 3
      vertex 3.36548 12.9222 -3
    endloop
  endfacet
endsolid OpenSCAD_Model
