solid OpenSCAD_Model
  facet normal -0.99294 0.117733 -0.0144558
    outer loop
      vertex -12 -0.0788532 0
      vertex -12 1.90631 16.1678
      vertex -11.7378 2.13273 0
    endloop
  endfacet
  facet normal -0.99294 0.117733 -0.0144558
    outer loop
      vertex -11.7378 2.13273 0
      vertex -12 1.90631 16.1678
      vertex -11.7378 4.08504 15.9003
    endloop
  endfacet
  facet normal -0.99294 -0.117733 0.0144558
    outer loop
      vertex -12 -0.0788532 0
      vertex -11.7378 -2.29044 0
      vertex -12 1.90631 16.1678
    endloop
  endfacet
  facet normal -0.99294 -0.117733 0.0144558
    outer loop
      vertex -12 1.90631 16.1678
      vertex -11.7378 -2.29044 0
      vertex -11.7378 -0.27243 16.4353
    endloop
  endfacet
  facet normal 0 0 -1
    outer loop
      vertex -12 -0.0788532 0
      vertex -11.7378 2.13273 0
      vertex -11.7378 -2.29044 0
    endloop
  endfacet
  facet normal 0 0 -1
    outer loop
      vertex -11.7378 -2.29044 0
      vertex -11.7378 2.13273 0
      vertex -11.4125 3.02018 0
    endloop
  endfacet
  facet normal 0 0 -1
    outer loop
      vertex -11.7378 -2.29044 0
      vertex -11.4125 3.02018 0
      vertex -9.26444 3.02018 0
    endloop
  endfacet
  facet normal 0 0 -1
    outer loop
      vertex -11.7378 -2.29044 0
      vertex -9.26444 3.02018 0
      vertex -9.42467 2.59447 0
    endloop
  endfacet
  facet normal 0 0 -1
    outer loop
      vertex -11.7378 -2.29044 0
      vertex -9.42467 2.59447 0
      vertex -7.97746 2.59447 0
    endloop
  endfacet
  facet normal 0 0 -1
    outer loop
      vertex -11.7378 -2.29044 0
      vertex -7.97746 2.59447 0
      vertex -8.31425 1.60616 0
    endloop
  endfacet
  facet normal 0 0 -1
    outer loop
      vertex -11.7378 -2.29044 0
      vertex -8.31425 1.60616 0
      vertex -8.5 -0.0788532 0
    endloop
  endfacet
  facet normal 0 0 -1
    outer loop
      vertex -8.5 -0.0788532 0
      vertex -8.31425 -1.76387 0
      vertex -11.7378 -2.29044 0
    endloop
  endfacet
  facet normal 0 0 -1
    outer loop
      vertex -8.31425 -1.76387 0
      vertex -7.96882 -2.77755 0
      vertex -11.7378 -2.29044 0
    endloop
  endfacet
  facet normal 0 0 -1
    outer loop
      vertex -11.7378 -2.29044 0
      vertex -7.96882 -2.77755 0
      vertex -9.41512 -2.77755 0
    endloop
  endfacet
  facet normal 0 0 -1
    outer loop
      vertex -11.7378 -2.29044 0
      vertex -9.41512 -2.77755 0
      vertex -9.23911 -3.24519 0
    endloop
  endfacet
  facet normal 0 0 -1
    outer loop
      vertex -11.7378 -2.29044 0
      vertex -9.23911 -3.24519 0
      vertex -11.3878 -3.24519 0
    endloop
  endfacet
  facet normal -0.938075 0.343851 -0.0422196
    outer loop
      vertex -11.7378 2.13273 0
      vertex -11.7378 4.08504 15.9003
      vertex -11.5357 3.15376 3.82522
    endloop
  endfacet
  facet normal -0.938075 0.343851 -0.0422196
    outer loop
      vertex -11.7378 2.13273 0
      vertex -11.5357 3.15376 3.82522
      vertex -11.4125 3.02018 0
    endloop
  endfacet
  facet normal -0.938075 0.343851 -0.0422196
    outer loop
      vertex -11.5357 3.15376 3.82522
      vertex -11.7378 4.08504 15.9003
      vertex -10.9625 6.16856 15.6445
    endloop
  endfacet
  facet normal -0.938075 0.343851 -0.0422196
    outer loop
      vertex -11.5357 3.15376 3.82522
      vertex -10.9625 6.16856 15.6445
      vertex -10.9625 4.71066 3.77085
    endloop
  endfacet
  facet normal 0 0.121869 0.992546
    outer loop
      vertex -11.7378 4.08504 15.9003
      vertex -12 1.90631 16.1678
      vertex -11.7378 -0.27243 16.4353
    endloop
  endfacet
  facet normal 0 0.121869 0.992546
    outer loop
      vertex -9.7082 -4.25318 16.9241
      vertex -11.7378 4.08504 15.9003
      vertex -10.9625 -2.35595 16.6912
    endloop
  endfacet
  facet normal 0 0.121869 0.992546
    outer loop
      vertex -10.9625 -2.35595 16.6912
      vertex -11.7378 4.08504 15.9003
      vertex -11.7378 -0.27243 16.4353
    endloop
  endfacet
  facet normal 0 0.121869 0.992546
    outer loop
      vertex -8.02957 -5.88121 17.124
      vertex -11.7378 4.08504 15.9003
      vertex -9.7082 -4.25318 16.9241
    endloop
  endfacet
  facet normal 0 0.121869 0.992546
    outer loop
      vertex -9.11262 -1.54409 16.5915
      vertex -11.7378 4.08504 15.9003
      vertex -8.02957 -5.88121 17.124
    endloop
  endfacet
  facet normal 0 0.121869 0.992546
    outer loop
      vertex -9.78148 0.142567 16.3844
      vertex -10 1.90631 16.1678
      vertex -11.7378 4.08504 15.9003
    endloop
  endfacet
  facet normal 0 0.121869 0.992546
    outer loop
      vertex 1.04267 -6.53034 17.2037
      vertex -1.04267 -6.53034 17.2037
      vertex 1.25434 -8.51543 17.4474
    endloop
  endfacet
  facet normal 0 0.121869 0.992546
    outer loop
      vertex 3.08244 -6.16162 17.1584
      vertex 1.04267 -6.53034 17.2037
      vertex 3.7082 -8.05995 17.3915
    endloop
  endfacet
  facet normal 0 0.121869 0.992546
    outer loop
      vertex 4.9875 -5.44029 17.0699
      vertex 3.08244 -6.16162 17.1584
      vertex 6 -7.1689 17.2821
    endloop
  endfacet
  facet normal 0 0.121869 0.992546
    outer loop
      vertex 6.67458 -4.39788 16.9419
      vertex 4.9875 -5.44029 17.0699
      vertex 8.02957 -5.88121 17.124
    endloop
  endfacet
  facet normal 0 0.121869 0.992546
    outer loop
      vertex 8.06994 -3.07994 16.7801
      vertex 6.67458 -4.39788 16.9419
      vertex 9.7082 -4.25318 16.9241
    endloop
  endfacet
  facet normal 0 0.121869 0.992546
    outer loop
      vertex 9.11262 -1.54409 16.5915
      vertex 8.06994 -3.07994 16.7801
      vertex 10.9625 -2.35595 16.6912
    endloop
  endfacet
  facet normal 0 0.121869 0.992546
    outer loop
      vertex 9.78148 0.142567 16.3844
      vertex 9.68171 -0.117916 16.4164
      vertex 11.7378 -0.27243 16.4353
    endloop
  endfacet
  facet normal 0 0.121869 0.992546
    outer loop
      vertex 9.68171 3.93053 15.9193
      vertex 9.78148 3.67004 15.9513
      vertex 12 1.90631 16.1678
    endloop
  endfacet
  facet normal 0 0.121869 0.992546
    outer loop
      vertex 9.11262 5.3567 15.7442
      vertex 9.6575 3.93053 15.9193
      vertex 11.7378 4.08504 15.9003
    endloop
  endfacet
  facet normal 0 0.121869 0.992546
    outer loop
      vertex 8.06994 6.89255 15.5556
      vertex 9.11262 5.3567 15.7442
      vertex 10.9625 6.16856 15.6445
    endloop
  endfacet
  facet normal 0 0.121869 0.992546
    outer loop
      vertex 6.67458 8.21049 15.3938
      vertex 8.06994 6.89255 15.5556
      vertex 9.7082 8.06579 15.4115
    endloop
  endfacet
  facet normal 0 0.121869 0.992546
    outer loop
      vertex 4.9875 9.2529 15.2658
      vertex 6.67458 8.21049 15.3938
      vertex 8.02957 9.69382 15.2116
    endloop
  endfacet
  facet normal 0 0.121869 0.992546
    outer loop
      vertex 6 10.9815 15.0535
      vertex 4.5 9.43748 15.2431
      vertex 8.02957 9.69382 15.2116
    endloop
  endfacet
  facet normal 0 0.121869 0.992546
    outer loop
      vertex 4.5 9.43748 15.2431
      vertex 4.9875 9.2529 15.2658
      vertex 8.02957 9.69382 15.2116
    endloop
  endfacet
  facet normal 0 0.121869 0.992546
    outer loop
      vertex 8.02957 9.69382 15.2116
      vertex 6.67458 8.21049 15.3938
      vertex 9.7082 8.06579 15.4115
    endloop
  endfacet
  facet normal 0 0.121869 0.992546
    outer loop
      vertex 9.7082 8.06579 15.4115
      vertex 8.06994 6.89255 15.5556
      vertex 10.9625 6.16856 15.6445
    endloop
  endfacet
  facet normal 0 0.121869 0.992546
    outer loop
      vertex 10.9625 6.16856 15.6445
      vertex 9.11262 5.3567 15.7442
      vertex 11.7378 4.08504 15.9003
    endloop
  endfacet
  facet normal 0 0.121869 0.992546
    outer loop
      vertex 11.7378 4.08504 15.9003
      vertex 9.68171 3.93053 15.9193
      vertex 12 1.90631 16.1678
    endloop
  endfacet
  facet normal 0 0.121869 0.992546
    outer loop
      vertex 11.7378 4.08504 15.9003
      vertex 9.6575 3.93053 15.9193
      vertex 9.68171 3.93053 15.9193
    endloop
  endfacet
  facet normal 0 0.121869 0.992546
    outer loop
      vertex 12 1.90631 16.1678
      vertex 10 1.90631 16.1678
      vertex 11.7378 -0.27243 16.4353
    endloop
  endfacet
  facet normal 0 0.121869 0.992546
    outer loop
      vertex 10 1.90631 16.1678
      vertex 9.78148 0.142567 16.3844
      vertex 11.7378 -0.27243 16.4353
    endloop
  endfacet
  facet normal 0 0.121869 0.992546
    outer loop
      vertex 11.7378 -0.27243 16.4353
      vertex 9.68171 -0.117916 16.4164
      vertex 10.9625 -2.35595 16.6912
    endloop
  endfacet
  facet normal 0 0.121869 0.992546
    outer loop
      vertex 9.68171 -0.117916 16.4164
      vertex 9.6575 -0.117916 16.4164
      vertex 10.9625 -2.35595 16.6912
    endloop
  endfacet
  facet normal 0 0.121869 0.992546
    outer loop
      vertex 9.6575 -0.117916 16.4164
      vertex 9.11262 -1.54409 16.5915
      vertex 10.9625 -2.35595 16.6912
    endloop
  endfacet
  facet normal 0 0.121869 0.992546
    outer loop
      vertex 10.9625 -2.35595 16.6912
      vertex 8.06994 -3.07994 16.7801
      vertex 9.7082 -4.25318 16.9241
    endloop
  endfacet
  facet normal 0 0.121869 0.992546
    outer loop
      vertex 9.7082 -4.25318 16.9241
      vertex 6.67458 -4.39788 16.9419
      vertex 8.02957 -5.88121 17.124
    endloop
  endfacet
  facet normal 0 0.121869 0.992546
    outer loop
      vertex 8.02957 -5.88121 17.124
      vertex 4.9875 -5.44029 17.0699
      vertex 6 -7.1689 17.2821
    endloop
  endfacet
  facet normal 0 0.121869 0.992546
    outer loop
      vertex -9.78148 3.67004 15.9513
      vertex -9.68171 3.93053 15.9193
      vertex -11.7378 4.08504 15.9003
    endloop
  endfacet
  facet normal 0 0.121869 0.992546
    outer loop
      vertex 6 -7.1689 17.2821
      vertex 3.08244 -6.16162 17.1584
      vertex 3.7082 -8.05995 17.3915
    endloop
  endfacet
  facet normal 0 0.121869 0.992546
    outer loop
      vertex 3.7082 -8.05995 17.3915
      vertex 1.04267 -6.53034 17.2037
      vertex 1.25434 -8.51543 17.4474
    endloop
  endfacet
  facet normal 0 0.121869 0.992546
    outer loop
      vertex 1.25434 -8.51543 17.4474
      vertex -1.04267 -6.53034 17.2037
      vertex -1.25434 -8.51543 17.4474
    endloop
  endfacet
  facet normal 0 0.121869 0.992546
    outer loop
      vertex -9.6575 3.93053 15.9193
      vertex -9.11262 5.3567 15.7442
      vertex -11.7378 4.08504 15.9003
    endloop
  endfacet
  facet normal 0 0.121869 0.992546
    outer loop
      vertex -1.04267 -6.53034 17.2037
      vertex -3.08244 -6.16162 17.1584
      vertex -1.25434 -8.51543 17.4474
    endloop
  endfacet
  facet normal 0 0.121869 0.992546
    outer loop
      vertex -1.25434 -8.51543 17.4474
      vertex -4.9875 -5.44029 17.0699
      vertex -3.7082 -8.05995 17.3915
    endloop
  endfacet
  facet normal 0 0.121869 0.992546
    outer loop
      vertex -3.7082 -8.05995 17.3915
      vertex -6.67458 -4.39788 16.9419
      vertex -6 -7.1689 17.2821
    endloop
  endfacet
  facet normal 0 0.121869 0.992546
    outer loop
      vertex -6.67458 -4.39788 16.9419
      vertex -8.06994 -3.07994 16.7801
      vertex -6 -7.1689 17.2821
    endloop
  endfacet
  facet normal 0 0.121869 0.992546
    outer loop
      vertex -6 -7.1689 17.2821
      vertex -9.11262 -1.54409 16.5915
      vertex -8.02957 -5.88121 17.124
    endloop
  endfacet
  facet normal 0 0.121869 0.992546
    outer loop
      vertex -9.68171 -0.117916 16.4164
      vertex -11.7378 4.08504 15.9003
      vertex -9.11262 -1.54409 16.5915
    endloop
  endfacet
  facet normal 0 0.121869 0.992546
    outer loop
      vertex -9.6575 -0.117916 16.4164
      vertex -9.68171 -0.117916 16.4164
      vertex -9.11262 -1.54409 16.5915
    endloop
  endfacet
  facet normal 0 0.121869 0.992546
    outer loop
      vertex -9.68171 -0.117916 16.4164
      vertex -9.78148 0.142567 16.3844
      vertex -11.7378 4.08504 15.9003
    endloop
  endfacet
  facet normal 0 0.121869 0.992546
    outer loop
      vertex -4.9875 -5.44029 17.0699
      vertex -6.67458 -4.39788 16.9419
      vertex -3.7082 -8.05995 17.3915
    endloop
  endfacet
  facet normal 0 0.121869 0.992546
    outer loop
      vertex -3.08244 -6.16162 17.1584
      vertex -4.9875 -5.44029 17.0699
      vertex -1.25434 -8.51543 17.4474
    endloop
  endfacet
  facet normal 0 0.121869 0.992546
    outer loop
      vertex -9.6575 3.93053 15.9193
      vertex -11.7378 4.08504 15.9003
      vertex -9.68171 3.93053 15.9193
    endloop
  endfacet
  facet normal 0 0.121869 0.992546
    outer loop
      vertex -8.06994 6.89255 15.5556
      vertex -11.7378 4.08504 15.9003
      vertex -9.11262 5.3567 15.7442
    endloop
  endfacet
  facet normal 0 0.121869 0.992546
    outer loop
      vertex -6.67458 8.21049 15.3938
      vertex -11.7378 4.08504 15.9003
      vertex -8.06994 6.89255 15.5556
    endloop
  endfacet
  facet normal 0 0.121869 0.992546
    outer loop
      vertex -4.5 11.5647 14.9819
      vertex -11.7378 4.08504 15.9003
      vertex -6.67458 8.21049 15.3938
    endloop
  endfacet
  facet normal 0 0.121869 0.992546
    outer loop
      vertex -4.5 11.5647 14.9819
      vertex -6.67458 8.21049 15.3938
      vertex -4.9875 9.2529 15.2658
    endloop
  endfacet
  facet normal 0 0.121869 0.992546
    outer loop
      vertex -4.5 11.5647 14.9819
      vertex -4.9875 9.2529 15.2658
      vertex -4.5 9.43748 15.2431
    endloop
  endfacet
  facet normal 0 0.121869 0.992546
    outer loop
      vertex -6 10.9815 15.0535
      vertex -11.7378 4.08504 15.9003
      vertex -4.5 11.5647 14.9819
    endloop
  endfacet
  facet normal 0 0.121869 0.992546
    outer loop
      vertex -8.02957 9.69382 15.2116
      vertex -11.7378 4.08504 15.9003
      vertex -6 10.9815 15.0535
    endloop
  endfacet
  facet normal 0 0.121869 0.992546
    outer loop
      vertex -9.7082 8.06579 15.4115
      vertex -11.7378 4.08504 15.9003
      vertex -8.02957 9.69382 15.2116
    endloop
  endfacet
  facet normal 0 0.121869 0.992546
    outer loop
      vertex -10.9625 6.16856 15.6445
      vertex -11.7378 4.08504 15.9003
      vertex -9.7082 8.06579 15.4115
    endloop
  endfacet
  facet normal 0 0.121869 0.992546
    outer loop
      vertex 4.5 11.5647 14.9819
      vertex 4.5 9.43748 15.2431
      vertex 6 10.9815 15.0535
    endloop
  endfacet
  facet normal 0 0.121869 0.992546
    outer loop
      vertex 9.78148 3.67004 15.9513
      vertex 10 1.90631 16.1678
      vertex 12 1.90631 16.1678
    endloop
  endfacet
  facet normal 0 0.121869 0.992546
    outer loop
      vertex -8.06994 -3.07994 16.7801
      vertex -9.11262 -1.54409 16.5915
      vertex -6 -7.1689 17.2821
    endloop
  endfacet
  facet normal 0 0.121869 0.992546
    outer loop
      vertex -10 1.90631 16.1678
      vertex -9.78148 3.67004 15.9513
      vertex -11.7378 4.08504 15.9003
    endloop
  endfacet
  facet normal -0.938075 -0.343851 0.0422196
    outer loop
      vertex -11.7378 -2.29044 0
      vertex -11.5357 -2.29004 4.49364
      vertex -11.7378 -0.27243 16.4353
    endloop
  endfacet
  facet normal -0.938075 -0.343851 0.0422196
    outer loop
      vertex -11.7378 -2.29044 0
      vertex -11.3878 -3.24519 0
      vertex -11.5357 -2.29004 4.49364
    endloop
  endfacet
  facet normal -0.938075 -0.343851 0.0422196
    outer loop
      vertex -11.7378 -0.27243 16.4353
      vertex -10.9625 -3.81384 4.81753
      vertex -10.9625 -2.35595 16.6912
    endloop
  endfacet
  facet normal -0.938075 -0.343851 0.0422196
    outer loop
      vertex -10.9625 -3.81384 4.81753
      vertex -11.7378 -0.27243 16.4353
      vertex -11.5357 -2.29004 4.49364
    endloop
  endfacet
  facet normal 0 -0.978148 0.207912
    outer loop
      vertex -9.39095 -2.29004 4.49364
      vertex -11.5357 -2.29004 4.49364
      vertex -11.3878 -3.24519 0
    endloop
  endfacet
  facet normal 0 -0.978148 0.207912
    outer loop
      vertex -9.23911 -3.24519 0
      vertex -9.39095 -2.29004 4.49364
      vertex -11.3878 -3.24519 0
    endloop
  endfacet
  facet normal 0.935027 0.351932 -0.0432119
    outer loop
      vertex -9.11262 -1.54409 16.5915
      vertex -9.11262 -3.01071 4.64682
      vertex -9.39095 -2.29004 4.49364
    endloop
  endfacet
  facet normal 0.935027 0.351932 -0.0432119
    outer loop
      vertex -9.6575 -0.117916 16.4164
      vertex -9.11262 -1.54409 16.5915
      vertex -9.39095 -2.29004 4.49364
    endloop
  endfacet
  facet normal 0.935027 0.351932 -0.0432119
    outer loop
      vertex -9.23911 -3.24519 0
      vertex -9.41512 -2.77755 0
      vertex -9.39095 -2.29004 4.49364
    endloop
  endfacet
  facet normal 0.935027 0.351932 -0.0432119
    outer loop
      vertex -9.41512 -2.77755 0
      vertex -9.6575 -0.117916 16.4164
      vertex -9.39095 -2.29004 4.49364
    endloop
  endfacet
  facet normal 0 -0.987129 0.159926
    outer loop
      vertex -8.20147 0.0421282 17.4042
      vertex -9.69633 0.0421282 17.4042
      vertex -9.68171 -0.117916 16.4164
    endloop
  endfacet
  facet normal 0 -0.987129 0.159926
    outer loop
      vertex -9.41512 -2.77755 0
      vertex -8.20147 0.0421282 17.4042
      vertex -9.6575 -0.117916 16.4164
    endloop
  endfacet
  facet normal 0 -0.987129 0.159926
    outer loop
      vertex -9.6575 -0.117916 16.4164
      vertex -8.20147 0.0421282 17.4042
      vertex -9.68171 -0.117916 16.4164
    endloop
  endfacet
  facet normal 0 -0.987129 0.159926
    outer loop
      vertex -7.96882 -2.77755 0
      vertex -8.20147 0.0421282 17.4042
      vertex -9.41512 -2.77755 0
    endloop
  endfacet
  facet normal 0.945807 0.322309 -0.0395746
    outer loop
      vertex -8.31425 0.368186 17.3642
      vertex -8.20147 0.0421282 17.4042
      vertex -7.96882 -2.77755 0
    endloop
  endfacet
  facet normal 0.945807 0.322309 -0.0395746
    outer loop
      vertex -8.31425 -1.76387 0
      vertex -8.31425 0.368186 17.3642
      vertex -7.96882 -2.77755 0
    endloop
  endfacet
  facet normal 0.993889 0.10956 -0.0134523
    outer loop
      vertex -8.5 2.02817 17.1604
      vertex -8.31425 0.368186 17.3642
      vertex -8.31425 -1.76387 0
    endloop
  endfacet
  facet normal 0.993889 0.10956 -0.0134523
    outer loop
      vertex -8.5 -0.0788532 0
      vertex -8.5 2.02817 17.1604
      vertex -8.31425 -1.76387 0
    endloop
  endfacet
  facet normal 0.993889 -0.10956 0.0134523
    outer loop
      vertex -8.31425 1.60616 0
      vertex -8.31425 3.68816 16.9565
      vertex -8.5 2.02817 17.1604
    endloop
  endfacet
  facet normal 0.993889 -0.10956 0.0134523
    outer loop
      vertex -8.5 -0.0788532 0
      vertex -8.31425 1.60616 0
      vertex -8.5 2.02817 17.1604
    endloop
  endfacet
  facet normal 0.945807 -0.322309 0.0395746
    outer loop
      vertex -7.97746 2.59447 0
      vertex -8.20147 4.01422 16.9165
      vertex -8.31425 3.68816 16.9565
    endloop
  endfacet
  facet normal 0.945807 -0.322309 0.0395746
    outer loop
      vertex -8.31425 1.60616 0
      vertex -7.97746 2.59447 0
      vertex -8.31425 3.68816 16.9565
    endloop
  endfacet
  facet normal 0 0.996497 -0.0836327
    outer loop
      vertex -9.69633 4.01422 16.9165
      vertex -8.20147 4.01422 16.9165
      vertex -9.68171 3.93053 15.9193
    endloop
  endfacet
  facet normal 0 0.996497 -0.0836327
    outer loop
      vertex -9.6575 3.93053 15.9193
      vertex -8.20147 4.01422 16.9165
      vertex -7.97746 2.59447 0
    endloop
  endfacet
  facet normal 0 0.996497 -0.0836327
    outer loop
      vertex -9.68171 3.93053 15.9193
      vertex -8.20147 4.01422 16.9165
      vertex -9.6575 3.93053 15.9193
    endloop
  endfacet
  facet normal 0 0.996497 -0.0836327
    outer loop
      vertex -9.6575 3.93053 15.9193
      vertex -7.97746 2.59447 0
      vertex -9.42467 2.59447 0
    endloop
  endfacet
  facet normal 0.935027 -0.351932 0.0432119
    outer loop
      vertex -9.42467 2.59447 0
      vertex -9.26444 3.02018 0
      vertex -9.39095 3.15376 3.82522
    endloop
  endfacet
  facet normal 0.935027 -0.351932 0.0432119
    outer loop
      vertex -9.6575 3.93053 15.9193
      vertex -9.42467 2.59447 0
      vertex -9.39095 3.15376 3.82522
    endloop
  endfacet
  facet normal 0.935027 -0.351932 0.0432119
    outer loop
      vertex -9.11262 3.89008 3.79951
      vertex -9.11262 5.3567 15.7442
      vertex -9.39095 3.15376 3.82522
    endloop
  endfacet
  facet normal 0.935027 -0.351932 0.0432119
    outer loop
      vertex -9.11262 5.3567 15.7442
      vertex -9.6575 3.93053 15.9193
      vertex -9.39095 3.15376 3.82522
    endloop
  endfacet
  facet normal 0 0.999391 -0.0348995
    outer loop
      vertex -9.26444 3.02018 0
      vertex -11.4125 3.02018 0
      vertex -9.39095 3.15376 3.82522
    endloop
  endfacet
  facet normal 0 0.999391 -0.0348995
    outer loop
      vertex -9.39095 3.15376 3.82522
      vertex -11.4125 3.02018 0
      vertex -11.5357 3.15376 3.82522
    endloop
  endfacet
  facet normal 0 -0.0348995 -0.999391
    outer loop
      vertex -11.5357 3.15376 3.82522
      vertex -10.9625 4.71066 3.77085
      vertex -9.39095 3.15376 3.82522
    endloop
  endfacet
  facet normal 0 -0.0348995 -0.999391
    outer loop
      vertex -9.39095 3.15376 3.82522
      vertex -10.9625 4.71066 3.77085
      vertex -10.6735 5.15254 3.75542
    endloop
  endfacet
  facet normal 0 -0.0348995 -0.999391
    outer loop
      vertex -9.11262 3.89008 3.79951
      vertex -10.6735 5.15254 3.75542
      vertex -8.26466 5.15254 3.75542
    endloop
  endfacet
  facet normal 0 -0.0348995 -0.999391
    outer loop
      vertex -9.39095 3.15376 3.82522
      vertex -10.6735 5.15254 3.75542
      vertex -9.11262 3.89008 3.79951
    endloop
  endfacet
  facet normal -0.836062 0.544546 -0.0668619
    outer loop
      vertex -10.9625 4.71066 3.77085
      vertex -10.9625 6.16856 15.6445
      vertex -10.6735 5.15254 3.75542
    endloop
  endfacet
  facet normal -0.836062 0.544546 -0.0668619
    outer loop
      vertex -10.6735 5.15254 3.75542
      vertex -10.9625 6.16856 15.6445
      vertex -9.7082 8.06579 15.4115
    endloop
  endfacet
  facet normal -0.836062 0.544546 -0.0668619
    outer loop
      vertex -10.6735 5.15254 3.75542
      vertex -9.7082 8.06579 15.4115
      vertex -9.7082 6.17349 0
    endloop
  endfacet
  facet normal -0.836062 0.544546 -0.0668619
    outer loop
      vertex -10.6735 5.15254 3.75542
      vertex -9.7082 6.17349 0
      vertex -10.4586 5.0214 0
    endloop
  endfacet
  facet normal -0.698884 0.709904 -0.0871652
    outer loop
      vertex -9.7082 6.17349 0
      vertex -9.7082 8.06579 15.4115
      vertex -8.02957 7.82607 0
    endloop
  endfacet
  facet normal -0.698884 0.709904 -0.0871652
    outer loop
      vertex -8.02957 7.82607 0
      vertex -9.7082 8.06579 15.4115
      vertex -8.02957 9.69382 15.2116
    endloop
  endfacet
  facet normal -0.538591 0.836287 -0.102683
    outer loop
      vertex -8.02957 7.82607 0
      vertex -8.02957 9.69382 15.2116
      vertex -6 9.13317 0
    endloop
  endfacet
  facet normal -0.538591 0.836287 -0.102683
    outer loop
      vertex -6 9.13317 0
      vertex -8.02957 9.69382 15.2116
      vertex -6 10.9815 15.0535
    endloop
  endfacet
  facet normal -0.364736 0.924171 -0.113474
    outer loop
      vertex -6 9.13317 0
      vertex -6 10.9815 15.0535
      vertex -3.7082 10.0377 0
    endloop
  endfacet
  facet normal -0.364736 0.924171 -0.113474
    outer loop
      vertex -4.5 10.8335 9.02664
      vertex -6 10.9815 15.0535
      vertex -4.5 11.5647 14.9819
    endloop
  endfacet
  facet normal -0.364736 0.924171 -0.113474
    outer loop
      vertex -3.7082 10.0377 0
      vertex -6 10.9815 15.0535
      vertex -4.5 10.8335 9.02664
    endloop
  endfacet
  facet normal -0.364736 0.924171 -0.113474
    outer loop
      vertex -3.7082 11.1413 8.98884
      vertex -3.7082 10.0377 0
      vertex -4.5 10.8335 9.02664
    endloop
  endfacet
  facet normal 1 0 0
    outer loop
      vertex -4.5 10.8335 9.02664
      vertex -4.5 11.5647 14.9819
      vertex -4.5 9.43748 15.2431
    endloop
  endfacet
  facet normal 1 0 0
    outer loop
      vertex -4.5 8.70627 9.28783
      vertex -4.5 10.8335 9.02664
      vertex -4.5 9.43748 15.2431
    endloop
  endfacet
  facet normal 0.356428 -0.927358 0.113865
    outer loop
      vertex -3.08244 8.51179 3.26665
      vertex -3.08244 9.24301 9.22193
      vertex -4.5 8.70627 9.28783
    endloop
  endfacet
  facet normal 0.356428 -0.927358 0.113865
    outer loop
      vertex -4.9875 7.79047 3.35522
      vertex -3.08244 8.51179 3.26665
      vertex -4.5 8.70627 9.28783
    endloop
  endfacet
  facet normal 0.356428 -0.927358 0.113865
    outer loop
      vertex -4.5 9.43748 15.2431
      vertex -4.9875 9.2529 15.2658
      vertex -4.5 8.70627 9.28783
    endloop
  endfacet
  facet normal 0.356428 -0.927358 0.113865
    outer loop
      vertex -4.9875 9.2529 15.2658
      vertex -4.9875 7.79047 3.35522
      vertex -4.5 8.70627 9.28783
    endloop
  endfacet
  facet normal 0.528484 -0.842616 0.10346
    outer loop
      vertex -4.9875 9.2529 15.2658
      vertex -6 7.16486 3.43203
      vertex -4.9875 7.79047 3.35522
    endloop
  endfacet
  facet normal 0.528484 -0.842616 0.10346
    outer loop
      vertex -6.67458 8.21049 15.3938
      vertex -6 7.16486 3.43203
      vertex -4.9875 9.2529 15.2658
    endloop
  endfacet
  facet normal 0.528484 -0.842616 0.10346
    outer loop
      vertex -6 6.74346 0
      vertex -6 7.16486 3.43203
      vertex -6.67458 8.21049 15.3938
    endloop
  endfacet
  facet normal 0.528484 -0.842616 0.10346
    outer loop
      vertex -6.67458 6.32037 0
      vertex -6 6.74346 0
      vertex -6.67458 8.21049 15.3938
    endloop
  endfacet
  facet normal 0.689358 -0.719021 0.0882847
    outer loop
      vertex -8.02945 5.0214 0
      vertex -6.67458 6.32037 0
      vertex -6.67458 8.21049 15.3938
    endloop
  endfacet
  facet normal 0.689358 -0.719021 0.0882847
    outer loop
      vertex -8.06994 5.03683 0.441914
      vertex -8.02945 5.0214 0
      vertex -8.06994 6.89255 15.5556
    endloop
  endfacet
  facet normal 0.689358 -0.719021 0.0882847
    outer loop
      vertex -8.06994 6.89255 15.5556
      vertex -8.02945 5.0214 0
      vertex -6.67458 8.21049 15.3938
    endloop
  endfacet
  facet normal 0.8293 -0.554639 0.0681011
    outer loop
      vertex -8.26466 5.15254 3.75542
      vertex -8.06994 5.03683 0.441914
      vertex -8.06994 6.89255 15.5556
    endloop
  endfacet
  facet normal 0.8293 -0.554639 0.0681011
    outer loop
      vertex -9.11262 5.3567 15.7442
      vertex -8.26466 5.15254 3.75542
      vertex -8.06994 6.89255 15.5556
    endloop
  endfacet
  facet normal 0.8293 -0.554639 0.0681011
    outer loop
      vertex -9.11262 3.89008 3.79951
      vertex -8.26466 5.15254 3.75542
      vertex -9.11262 5.3567 15.7442
    endloop
  endfacet
  facet normal -0.934733 0.352703 -0.0433065
    outer loop
      vertex -9.78148 3.67004 15.9513
      vertex -9.78148 3.79191 16.9438
      vertex -9.68171 3.93053 15.9193
    endloop
  endfacet
  facet normal -0.934733 0.352703 -0.0433065
    outer loop
      vertex -9.68171 3.93053 15.9193
      vertex -9.78148 3.79191 16.9438
      vertex -9.69633 4.01422 16.9165
    endloop
  endfacet
  facet normal -0.992523 0.121145 -0.0148748
    outer loop
      vertex -10 1.90631 16.1678
      vertex -10 2.02817 17.1604
      vertex -9.78148 3.67004 15.9513
    endloop
  endfacet
  facet normal -0.992523 0.121145 -0.0148748
    outer loop
      vertex -9.78148 3.67004 15.9513
      vertex -10 2.02817 17.1604
      vertex -9.78148 3.79191 16.9438
    endloop
  endfacet
  facet normal -0.992523 -0.121145 0.0148748
    outer loop
      vertex -10 1.90631 16.1678
      vertex -9.78148 0.142567 16.3844
      vertex -10 2.02817 17.1604
    endloop
  endfacet
  facet normal -0.992523 -0.121145 0.0148748
    outer loop
      vertex -10 2.02817 17.1604
      vertex -9.78148 0.142567 16.3844
      vertex -9.78148 0.264436 17.3769
    endloop
  endfacet
  facet normal -0.934733 -0.352703 0.0433065
    outer loop
      vertex -9.78148 0.142567 16.3844
      vertex -9.68171 -0.117916 16.4164
      vertex -9.78148 0.264436 17.3769
    endloop
  endfacet
  facet normal -0.934733 -0.352703 0.0433065
    outer loop
      vertex -9.78148 0.264436 17.3769
      vertex -9.68171 -0.117916 16.4164
      vertex -9.69633 0.0421282 17.4042
    endloop
  endfacet
  facet normal 0.8293 0.554639 -0.0681011
    outer loop
      vertex -8.26466 -4.24633 4.90946
      vertex -8.06994 -3.07994 16.7801
      vertex -8.06994 -4.93567 1.66638
    endloop
  endfacet
  facet normal 0.8293 0.554639 -0.0681011
    outer loop
      vertex -9.11262 -1.54409 16.5915
      vertex -8.06994 -3.07994 16.7801
      vertex -8.26466 -4.24633 4.90946
    endloop
  endfacet
  facet normal 0.8293 0.554639 -0.0681011
    outer loop
      vertex -8.26466 -4.24633 4.90946
      vertex -9.11262 -3.01071 4.64682
      vertex -9.11262 -1.54409 16.5915
    endloop
  endfacet
  facet normal 0.689358 0.719021 -0.0882847
    outer loop
      vertex -6.67458 -4.39788 16.9419
      vertex -6.67458 -6.47808 0
      vertex -8.06994 -3.07994 16.7801
    endloop
  endfacet
  facet normal 0.689358 0.719021 -0.0882847
    outer loop
      vertex -8.06994 -3.07994 16.7801
      vertex -6.67458 -6.47808 0
      vertex -7.91391 -5.28987 0
    endloop
  endfacet
  facet normal 0.689358 0.719021 -0.0882847
    outer loop
      vertex -8.06994 -3.07994 16.7801
      vertex -7.91391 -5.28987 0
      vertex -8.06994 -4.93567 1.66638
    endloop
  endfacet
  facet normal 0.528484 0.842616 -0.10346
    outer loop
      vertex -4.9875 -5.44029 17.0699
      vertex -4.9875 -6.90272 5.15931
      vertex -6.67458 -4.39788 16.9419
    endloop
  endfacet
  facet normal 0.528484 0.842616 -0.10346
    outer loop
      vertex -6.67458 -4.39788 16.9419
      vertex -4.9875 -6.90272 5.15931
      vertex -6 -6.27712 5.0825
    endloop
  endfacet
  facet normal 0.528484 0.842616 -0.10346
    outer loop
      vertex -6.67458 -4.39788 16.9419
      vertex -6 -6.27712 5.0825
      vertex -6 -6.90117 0
    endloop
  endfacet
  facet normal 0.528484 0.842616 -0.10346
    outer loop
      vertex -6.67458 -4.39788 16.9419
      vertex -6 -6.90117 0
      vertex -6.67458 -6.47808 0
    endloop
  endfacet
  facet normal 0.356428 0.927358 -0.113865
    outer loop
      vertex -3.08244 -6.16162 17.1584
      vertex -3.08244 -7.62405 5.24788
      vertex -4.9875 -5.44029 17.0699
    endloop
  endfacet
  facet normal 0.356428 0.927358 -0.113865
    outer loop
      vertex -4.9875 -5.44029 17.0699
      vertex -3.08244 -7.62405 5.24788
      vertex -4.9875 -6.90272 5.15931
    endloop
  endfacet
  facet normal 0.179176 0.976484 -0.119897
    outer loop
      vertex -1.04267 -6.53034 17.2037
      vertex -1.04267 -7.99277 5.29316
      vertex -3.08244 -6.16162 17.1584
    endloop
  endfacet
  facet normal 0.179176 0.976484 -0.119897
    outer loop
      vertex -3.08244 -6.16162 17.1584
      vertex -1.04267 -7.99277 5.29316
      vertex -3.08244 -7.62405 5.24788
    endloop
  endfacet
  facet normal 0 0.992546 -0.121869
    outer loop
      vertex 1.04267 -6.53034 17.2037
      vertex 1.04267 -7.99277 5.29316
      vertex -1.04267 -6.53034 17.2037
    endloop
  endfacet
  facet normal 0 0.992546 -0.121869
    outer loop
      vertex -1.04267 -6.53034 17.2037
      vertex 1.04267 -7.99277 5.29316
      vertex -1.04267 -7.99277 5.29316
    endloop
  endfacet
  facet normal -0.179176 0.976484 -0.119897
    outer loop
      vertex 3.08244 -6.16162 17.1584
      vertex 3.08244 -7.62405 5.24788
      vertex 1.04267 -6.53034 17.2037
    endloop
  endfacet
  facet normal -0.179176 0.976484 -0.119897
    outer loop
      vertex 1.04267 -6.53034 17.2037
      vertex 3.08244 -7.62405 5.24788
      vertex 1.04267 -7.99277 5.29316
    endloop
  endfacet
  facet normal -0.356428 0.927358 -0.113865
    outer loop
      vertex 4.9875 -5.44029 17.0699
      vertex 4.9875 -6.90272 5.15931
      vertex 3.08244 -6.16162 17.1584
    endloop
  endfacet
  facet normal -0.356428 0.927358 -0.113865
    outer loop
      vertex 3.08244 -6.16162 17.1584
      vertex 4.9875 -6.90272 5.15931
      vertex 3.08244 -7.62405 5.24788
    endloop
  endfacet
  facet normal -0.528484 0.842616 -0.10346
    outer loop
      vertex 6.67458 -4.39788 16.9419
      vertex 6.67458 -6.47808 0
      vertex 4.9875 -5.44029 17.0699
    endloop
  endfacet
  facet normal -0.528484 0.842616 -0.10346
    outer loop
      vertex 6 -6.27712 5.0825
      vertex 6.67458 -6.47808 0
      vertex 6 -6.90117 0
    endloop
  endfacet
  facet normal -0.528484 0.842616 -0.10346
    outer loop
      vertex 4.9875 -5.44029 17.0699
      vertex 6.67458 -6.47808 0
      vertex 6 -6.27712 5.0825
    endloop
  endfacet
  facet normal -0.528484 0.842616 -0.10346
    outer loop
      vertex 4.9875 -6.90272 5.15931
      vertex 4.9875 -5.44029 17.0699
      vertex 6 -6.27712 5.0825
    endloop
  endfacet
  facet normal -0.689358 0.719021 -0.0882847
    outer loop
      vertex 8.06994 -3.07994 16.7801
      vertex 8.06994 -4.93567 1.66638
      vertex 6.67458 -4.39788 16.9419
    endloop
  endfacet
  facet normal -0.689358 0.719021 -0.0882847
    outer loop
      vertex 6.67458 -4.39788 16.9419
      vertex 8.06994 -4.93567 1.66638
      vertex 7.91391 -5.28987 0
    endloop
  endfacet
  facet normal -0.689358 0.719021 -0.0882847
    outer loop
      vertex 6.67458 -4.39788 16.9419
      vertex 7.91391 -5.28987 0
      vertex 6.67458 -6.47808 0
    endloop
  endfacet
  facet normal -0.8293 0.554639 -0.0681011
    outer loop
      vertex 9.11262 -1.54409 16.5915
      vertex 9.11262 -3.01071 4.64682
      vertex 8.06994 -3.07994 16.7801
    endloop
  endfacet
  facet normal -0.8293 0.554639 -0.0681011
    outer loop
      vertex 8.06994 -3.07994 16.7801
      vertex 9.11262 -3.01071 4.64682
      vertex 8.26466 -4.24633 4.90946
    endloop
  endfacet
  facet normal -0.8293 0.554639 -0.0681011
    outer loop
      vertex 8.06994 -3.07994 16.7801
      vertex 8.26466 -4.24633 4.90946
      vertex 8.06994 -4.93567 1.66638
    endloop
  endfacet
  facet normal -0.935027 0.351932 -0.0432119
    outer loop
      vertex 9.11262 -3.01071 4.64682
      vertex 9.11262 -1.54409 16.5915
      vertex 9.39095 -2.29004 4.49364
    endloop
  endfacet
  facet normal -0.935027 0.351932 -0.0432119
    outer loop
      vertex 9.6575 -0.117916 16.4164
      vertex 9.41512 -2.77755 0
      vertex 9.39095 -2.29004 4.49364
    endloop
  endfacet
  facet normal -0.935027 0.351932 -0.0432119
    outer loop
      vertex 9.6575 -0.117916 16.4164
      vertex 9.39095 -2.29004 4.49364
      vertex 9.11262 -1.54409 16.5915
    endloop
  endfacet
  facet normal -0.935027 0.351932 -0.0432119
    outer loop
      vertex 9.39095 -2.29004 4.49364
      vertex 9.41512 -2.77755 0
      vertex 9.23911 -3.24519 0
    endloop
  endfacet
  facet normal 0 -0.987129 0.159926
    outer loop
      vertex 8.20147 0.0421282 17.4042
      vertex 7.96882 -2.77755 0
      vertex 9.41512 -2.77755 0
    endloop
  endfacet
  facet normal 0 -0.987129 0.159926
    outer loop
      vertex 9.68171 -0.117916 16.4164
      vertex 8.20147 0.0421282 17.4042
      vertex 9.6575 -0.117916 16.4164
    endloop
  endfacet
  facet normal 0 -0.987129 0.159926
    outer loop
      vertex 9.6575 -0.117916 16.4164
      vertex 8.20147 0.0421282 17.4042
      vertex 9.41512 -2.77755 0
    endloop
  endfacet
  facet normal 0 -0.987129 0.159926
    outer loop
      vertex 9.69633 0.0421282 17.4042
      vertex 8.20147 0.0421282 17.4042
      vertex 9.68171 -0.117916 16.4164
    endloop
  endfacet
  facet normal 0.934733 -0.352703 0.0433065
    outer loop
      vertex 9.69633 0.0421282 17.4042
      vertex 9.68171 -0.117916 16.4164
      vertex 9.78148 0.142567 16.3844
    endloop
  endfacet
  facet normal 0.934733 -0.352703 0.0433065
    outer loop
      vertex 9.78148 0.264436 17.3769
      vertex 9.69633 0.0421282 17.4042
      vertex 9.78148 0.142567 16.3844
    endloop
  endfacet
  facet normal 0.992523 -0.121145 0.0148748
    outer loop
      vertex 9.78148 0.264436 17.3769
      vertex 9.78148 0.142567 16.3844
      vertex 10 1.90631 16.1678
    endloop
  endfacet
  facet normal 0.992523 -0.121145 0.0148748
    outer loop
      vertex 10 2.02817 17.1604
      vertex 9.78148 0.264436 17.3769
      vertex 10 1.90631 16.1678
    endloop
  endfacet
  facet normal 0.992523 0.121145 -0.0148748
    outer loop
      vertex 10 1.90631 16.1678
      vertex 9.78148 3.67004 15.9513
      vertex 9.78148 3.79191 16.9438
    endloop
  endfacet
  facet normal 0.992523 0.121145 -0.0148748
    outer loop
      vertex 10 2.02817 17.1604
      vertex 10 1.90631 16.1678
      vertex 9.78148 3.79191 16.9438
    endloop
  endfacet
  facet normal 0.934733 0.352703 -0.0433065
    outer loop
      vertex 9.78148 3.67004 15.9513
      vertex 9.68171 3.93053 15.9193
      vertex 9.69633 4.01422 16.9165
    endloop
  endfacet
  facet normal 0.934733 0.352703 -0.0433065
    outer loop
      vertex 9.78148 3.79191 16.9438
      vertex 9.78148 3.67004 15.9513
      vertex 9.69633 4.01422 16.9165
    endloop
  endfacet
  facet normal 0 0.996497 -0.0836327
    outer loop
      vertex 7.97746 2.59447 0
      vertex 8.20147 4.01422 16.9165
      vertex 9.42467 2.59447 0
    endloop
  endfacet
  facet normal 0 0.996497 -0.0836327
    outer loop
      vertex 9.6575 3.93053 15.9193
      vertex 8.20147 4.01422 16.9165
      vertex 9.69633 4.01422 16.9165
    endloop
  endfacet
  facet normal 0 0.996497 -0.0836327
    outer loop
      vertex 9.42467 2.59447 0
      vertex 8.20147 4.01422 16.9165
      vertex 9.6575 3.93053 15.9193
    endloop
  endfacet
  facet normal 0 0.996497 -0.0836327
    outer loop
      vertex 9.6575 3.93053 15.9193
      vertex 9.69633 4.01422 16.9165
      vertex 9.68171 3.93053 15.9193
    endloop
  endfacet
  facet normal -0.935027 -0.351932 0.0432119
    outer loop
      vertex 9.26444 3.02018 0
      vertex 9.42467 2.59447 0
      vertex 9.39095 3.15376 3.82522
    endloop
  endfacet
  facet normal -0.935027 -0.351932 0.0432119
    outer loop
      vertex 9.39095 3.15376 3.82522
      vertex 9.42467 2.59447 0
      vertex 9.6575 3.93053 15.9193
    endloop
  endfacet
  facet normal -0.935027 -0.351932 0.0432119
    outer loop
      vertex 9.39095 3.15376 3.82522
      vertex 9.6575 3.93053 15.9193
      vertex 9.11262 5.3567 15.7442
    endloop
  endfacet
  facet normal -0.935027 -0.351932 0.0432119
    outer loop
      vertex 9.39095 3.15376 3.82522
      vertex 9.11262 5.3567 15.7442
      vertex 9.11262 3.89008 3.79951
    endloop
  endfacet
  facet normal -0.8293 -0.554639 0.0681011
    outer loop
      vertex 9.11262 3.89008 3.79951
      vertex 9.11262 5.3567 15.7442
      vertex 8.26466 5.15254 3.75542
    endloop
  endfacet
  facet normal -0.8293 -0.554639 0.0681011
    outer loop
      vertex 8.26466 5.15254 3.75542
      vertex 9.11262 5.3567 15.7442
      vertex 8.06994 6.89255 15.5556
    endloop
  endfacet
  facet normal -0.8293 -0.554639 0.0681011
    outer loop
      vertex 8.26466 5.15254 3.75542
      vertex 8.06994 6.89255 15.5556
      vertex 8.06994 5.03683 0.441914
    endloop
  endfacet
  facet normal -0.689358 -0.719021 0.0882847
    outer loop
      vertex 8.02945 5.0214 0
      vertex 8.06994 5.03683 0.441914
      vertex 8.06994 6.89255 15.5556
    endloop
  endfacet
  facet normal -0.689358 -0.719021 0.0882847
    outer loop
      vertex 6.67458 6.32037 0
      vertex 8.02945 5.0214 0
      vertex 6.67458 8.21049 15.3938
    endloop
  endfacet
  facet normal -0.689358 -0.719021 0.0882847
    outer loop
      vertex 6.67458 8.21049 15.3938
      vertex 8.02945 5.0214 0
      vertex 8.06994 6.89255 15.5556
    endloop
  endfacet
  facet normal -0.528484 -0.842616 0.10346
    outer loop
      vertex 6 7.16486 3.43203
      vertex 6 6.74346 0
      vertex 6.67458 6.32037 0
    endloop
  endfacet
  facet normal -0.528484 -0.842616 0.10346
    outer loop
      vertex 4.9875 9.2529 15.2658
      vertex 6 7.16486 3.43203
      vertex 6.67458 8.21049 15.3938
    endloop
  endfacet
  facet normal -0.528484 -0.842616 0.10346
    outer loop
      vertex 6.67458 8.21049 15.3938
      vertex 6 7.16486 3.43203
      vertex 6.67458 6.32037 0
    endloop
  endfacet
  facet normal -0.528484 -0.842616 0.10346
    outer loop
      vertex 4.9875 7.79047 3.35522
      vertex 6 7.16486 3.43203
      vertex 4.9875 9.2529 15.2658
    endloop
  endfacet
  facet normal -0.356428 -0.927358 0.113865
    outer loop
      vertex 4.9875 7.79047 3.35522
      vertex 4.9875 9.2529 15.2658
      vertex 4.5 9.43748 15.2431
    endloop
  endfacet
  facet normal -0.356428 -0.927358 0.113865
    outer loop
      vertex 3.08244 9.24301 9.22193
      vertex 4.9875 7.79047 3.35522
      vertex 4.5 8.70627 9.28783
    endloop
  endfacet
  facet normal -0.356428 -0.927358 0.113865
    outer loop
      vertex 4.5 8.70627 9.28783
      vertex 4.9875 7.79047 3.35522
      vertex 4.5 9.43748 15.2431
    endloop
  endfacet
  facet normal -0.356428 -0.927358 0.113865
    outer loop
      vertex 3.08244 8.51179 3.26665
      vertex 4.9875 7.79047 3.35522
      vertex 3.08244 9.24301 9.22193
    endloop
  endfacet
  facet normal -1 0 0
    outer loop
      vertex 4.5 11.5647 14.9819
      vertex 4.5 10.8335 9.02664
      vertex 4.5 9.43748 15.2431
    endloop
  endfacet
  facet normal -1 0 0
    outer loop
      vertex 4.5 9.43748 15.2431
      vertex 4.5 10.8335 9.02664
      vertex 4.5 8.70627 9.28783
    endloop
  endfacet
  facet normal 0.364736 0.924171 -0.113474
    outer loop
      vertex 3.7082 10.0377 0
      vertex 3.7082 11.1413 8.98884
      vertex 6 9.13317 0
    endloop
  endfacet
  facet normal 0.364736 0.924171 -0.113474
    outer loop
      vertex 6 9.13317 0
      vertex 3.7082 11.1413 8.98884
      vertex 4.5 10.8335 9.02664
    endloop
  endfacet
  facet normal 0.364736 0.924171 -0.113474
    outer loop
      vertex 6 9.13317 0
      vertex 4.5 10.8335 9.02664
      vertex 4.5 11.5647 14.9819
    endloop
  endfacet
  facet normal 0.364736 0.924171 -0.113474
    outer loop
      vertex 6 9.13317 0
      vertex 4.5 11.5647 14.9819
      vertex 6 10.9815 15.0535
    endloop
  endfacet
  facet normal 0.538591 0.836287 -0.102683
    outer loop
      vertex 6 9.13317 0
      vertex 6 10.9815 15.0535
      vertex 8.02957 7.82607 0
    endloop
  endfacet
  facet normal 0.538591 0.836287 -0.102683
    outer loop
      vertex 8.02957 7.82607 0
      vertex 6 10.9815 15.0535
      vertex 8.02957 9.69382 15.2116
    endloop
  endfacet
  facet normal 0.698884 0.709904 -0.0871652
    outer loop
      vertex 8.02957 7.82607 0
      vertex 8.02957 9.69382 15.2116
      vertex 9.7082 6.17349 0
    endloop
  endfacet
  facet normal 0.698884 0.709904 -0.0871652
    outer loop
      vertex 9.7082 6.17349 0
      vertex 8.02957 9.69382 15.2116
      vertex 9.7082 8.06579 15.4115
    endloop
  endfacet
  facet normal 0.836062 0.544546 -0.0668619
    outer loop
      vertex 10.4586 5.0214 0
      vertex 9.7082 6.17349 0
      vertex 9.7082 8.06579 15.4115
    endloop
  endfacet
  facet normal 0.836062 0.544546 -0.0668619
    outer loop
      vertex 10.6735 5.15254 3.75542
      vertex 10.4586 5.0214 0
      vertex 10.9625 6.16856 15.6445
    endloop
  endfacet
  facet normal 0.836062 0.544546 -0.0668619
    outer loop
      vertex 10.9625 6.16856 15.6445
      vertex 10.4586 5.0214 0
      vertex 9.7082 8.06579 15.4115
    endloop
  endfacet
  facet normal 0.836062 0.544546 -0.0668619
    outer loop
      vertex 10.9625 4.71066 3.77085
      vertex 10.6735 5.15254 3.75542
      vertex 10.9625 6.16856 15.6445
    endloop
  endfacet
  facet normal 0.938075 0.343851 -0.0422196
    outer loop
      vertex 11.5357 3.15376 3.82522
      vertex 10.9625 4.71066 3.77085
      vertex 10.9625 6.16856 15.6445
    endloop
  endfacet
  facet normal 0.938075 0.343851 -0.0422196
    outer loop
      vertex 11.7378 2.13273 0
      vertex 11.5357 3.15376 3.82522
      vertex 11.7378 4.08504 15.9003
    endloop
  endfacet
  facet normal 0.938075 0.343851 -0.0422196
    outer loop
      vertex 11.7378 4.08504 15.9003
      vertex 11.5357 3.15376 3.82522
      vertex 10.9625 6.16856 15.6445
    endloop
  endfacet
  facet normal 0.938075 0.343851 -0.0422196
    outer loop
      vertex 11.4125 3.02018 0
      vertex 11.5357 3.15376 3.82522
      vertex 11.7378 2.13273 0
    endloop
  endfacet
  facet normal 0.99294 0.117733 -0.0144558
    outer loop
      vertex 12 -0.0788532 0
      vertex 11.7378 2.13273 0
      vertex 11.7378 4.08504 15.9003
    endloop
  endfacet
  facet normal 0.99294 0.117733 -0.0144558
    outer loop
      vertex 12 1.90631 16.1678
      vertex 12 -0.0788532 0
      vertex 11.7378 4.08504 15.9003
    endloop
  endfacet
  facet normal 0.99294 -0.117733 0.0144558
    outer loop
      vertex 11.7378 -0.27243 16.4353
      vertex 11.7378 -2.29044 0
      vertex 12 -0.0788532 0
    endloop
  endfacet
  facet normal 0.99294 -0.117733 0.0144558
    outer loop
      vertex 12 1.90631 16.1678
      vertex 11.7378 -0.27243 16.4353
      vertex 12 -0.0788532 0
    endloop
  endfacet
  facet normal 0.938075 -0.343851 0.0422196
    outer loop
      vertex 10.9625 -2.35595 16.6912
      vertex 10.9625 -3.81384 4.81753
      vertex 11.5357 -2.29004 4.49364
    endloop
  endfacet
  facet normal 0.938075 -0.343851 0.0422196
    outer loop
      vertex 11.7378 -0.27243 16.4353
      vertex 10.9625 -2.35595 16.6912
      vertex 11.5357 -2.29004 4.49364
    endloop
  endfacet
  facet normal 0.938075 -0.343851 0.0422196
    outer loop
      vertex 11.3878 -3.24519 0
      vertex 11.7378 -2.29044 0
      vertex 11.5357 -2.29004 4.49364
    endloop
  endfacet
  facet normal 0.938075 -0.343851 0.0422196
    outer loop
      vertex 11.7378 -2.29044 0
      vertex 11.7378 -0.27243 16.4353
      vertex 11.5357 -2.29004 4.49364
    endloop
  endfacet
  facet normal 0.836062 -0.544546 0.0668619
    outer loop
      vertex 9.7082 -4.25318 16.9241
      vertex 9.7082 -6.3312 0
      vertex 10.3864 -5.28987 0
    endloop
  endfacet
  facet normal 0.836062 -0.544546 0.0668619
    outer loop
      vertex 10.9625 -3.81384 4.81753
      vertex 9.7082 -4.25318 16.9241
      vertex 10.6735 -4.24633 4.90946
    endloop
  endfacet
  facet normal 0.836062 -0.544546 0.0668619
    outer loop
      vertex 10.6735 -4.24633 4.90946
      vertex 9.7082 -4.25318 16.9241
      vertex 10.3864 -5.28987 0
    endloop
  endfacet
  facet normal 0.836062 -0.544546 0.0668619
    outer loop
      vertex 10.9625 -2.35595 16.6912
      vertex 9.7082 -4.25318 16.9241
      vertex 10.9625 -3.81384 4.81753
    endloop
  endfacet
  facet normal 0.698884 -0.709904 0.0871652
    outer loop
      vertex 8.02957 -5.88121 17.124
      vertex 8.02957 -7.98378 0
      vertex 9.7082 -6.3312 0
    endloop
  endfacet
  facet normal 0.698884 -0.709904 0.0871652
    outer loop
      vertex 9.7082 -4.25318 16.9241
      vertex 8.02957 -5.88121 17.124
      vertex 9.7082 -6.3312 0
    endloop
  endfacet
  facet normal 0.538591 -0.836287 0.102683
    outer loop
      vertex 6 -7.1689 17.2821
      vertex 6 -9.29087 0
      vertex 8.02957 -7.98378 0
    endloop
  endfacet
  facet normal 0.538591 -0.836287 0.102683
    outer loop
      vertex 8.02957 -5.88121 17.124
      vertex 6 -7.1689 17.2821
      vertex 8.02957 -7.98378 0
    endloop
  endfacet
  facet normal 0.364736 -0.924171 0.113474
    outer loop
      vertex 3.7082 -8.05995 17.3915
      vertex 3.7082 -10.1954 0
      vertex 6 -9.29087 0
    endloop
  endfacet
  facet normal 0.364736 -0.924171 0.113474
    outer loop
      vertex 6 -7.1689 17.2821
      vertex 3.7082 -8.05995 17.3915
      vertex 6 -9.29087 0
    endloop
  endfacet
  facet normal 0.183825 -0.975632 0.119793
    outer loop
      vertex 1.25434 -8.51543 17.4474
      vertex 1.25434 -10.6577 0
      vertex 3.7082 -10.1954 0
    endloop
  endfacet
  facet normal 0.183825 -0.975632 0.119793
    outer loop
      vertex 3.7082 -8.05995 17.3915
      vertex 1.25434 -8.51543 17.4474
      vertex 3.7082 -10.1954 0
    endloop
  endfacet
  facet normal 0 -0.992546 0.121869
    outer loop
      vertex -1.25434 -8.51543 17.4474
      vertex -1.25434 -10.6577 0
      vertex 1.25434 -10.6577 0
    endloop
  endfacet
  facet normal 0 -0.992546 0.121869
    outer loop
      vertex 1.25434 -8.51543 17.4474
      vertex -1.25434 -8.51543 17.4474
      vertex 1.25434 -10.6577 0
    endloop
  endfacet
  facet normal -0.183825 -0.975632 0.119793
    outer loop
      vertex -3.7082 -8.05995 17.3915
      vertex -3.7082 -10.1954 0
      vertex -1.25434 -10.6577 0
    endloop
  endfacet
  facet normal -0.183825 -0.975632 0.119793
    outer loop
      vertex -1.25434 -8.51543 17.4474
      vertex -3.7082 -8.05995 17.3915
      vertex -1.25434 -10.6577 0
    endloop
  endfacet
  facet normal -0.364736 -0.924171 0.113474
    outer loop
      vertex -6 -7.1689 17.2821
      vertex -6 -9.29087 0
      vertex -3.7082 -10.1954 0
    endloop
  endfacet
  facet normal -0.364736 -0.924171 0.113474
    outer loop
      vertex -3.7082 -8.05995 17.3915
      vertex -6 -7.1689 17.2821
      vertex -3.7082 -10.1954 0
    endloop
  endfacet
  facet normal -0.538591 -0.836287 0.102683
    outer loop
      vertex -8.02957 -5.88121 17.124
      vertex -8.02957 -7.98378 0
      vertex -6 -9.29087 0
    endloop
  endfacet
  facet normal -0.538591 -0.836287 0.102683
    outer loop
      vertex -6 -7.1689 17.2821
      vertex -8.02957 -5.88121 17.124
      vertex -6 -9.29087 0
    endloop
  endfacet
  facet normal -0.698884 -0.709904 0.0871652
    outer loop
      vertex -9.7082 -4.25318 16.9241
      vertex -9.7082 -6.3312 0
      vertex -8.02957 -7.98378 0
    endloop
  endfacet
  facet normal -0.698884 -0.709904 0.0871652
    outer loop
      vertex -8.02957 -5.88121 17.124
      vertex -9.7082 -4.25318 16.9241
      vertex -8.02957 -7.98378 0
    endloop
  endfacet
  facet normal -0.836062 -0.544546 0.0668619
    outer loop
      vertex -10.9625 -3.81384 4.81753
      vertex -10.6735 -4.24633 4.90946
      vertex -10.9625 -2.35595 16.6912
    endloop
  endfacet
  facet normal -0.836062 -0.544546 0.0668619
    outer loop
      vertex -10.9625 -2.35595 16.6912
      vertex -10.6735 -4.24633 4.90946
      vertex -10.3864 -5.28987 0
    endloop
  endfacet
  facet normal -0.836062 -0.544546 0.0668619
    outer loop
      vertex -10.9625 -2.35595 16.6912
      vertex -10.3864 -5.28987 0
      vertex -9.7082 -6.3312 0
    endloop
  endfacet
  facet normal -0.836062 -0.544546 0.0668619
    outer loop
      vertex -10.9625 -2.35595 16.6912
      vertex -9.7082 -6.3312 0
      vertex -9.7082 -4.25318 16.9241
    endloop
  endfacet
  facet normal 0 -0.207912 -0.978148
    outer loop
      vertex -9.11262 -3.01071 4.64682
      vertex -8.26466 -4.24633 4.90946
      vertex -10.6735 -4.24633 4.90946
    endloop
  endfacet
  facet normal 0 -0.207912 -0.978148
    outer loop
      vertex -9.11262 -3.01071 4.64682
      vertex -10.6735 -4.24633 4.90946
      vertex -9.39095 -2.29004 4.49364
    endloop
  endfacet
  facet normal 0 -0.207912 -0.978148
    outer loop
      vertex -10.6735 -4.24633 4.90946
      vertex -10.9625 -3.81384 4.81753
      vertex -9.39095 -2.29004 4.49364
    endloop
  endfacet
  facet normal 0 -0.207912 -0.978148
    outer loop
      vertex -10.9625 -3.81384 4.81753
      vertex -11.5357 -2.29004 4.49364
      vertex -9.39095 -2.29004 4.49364
    endloop
  endfacet
  facet normal 0 0.121869 0.992546
    outer loop
      vertex -9.78148 3.79191 16.9438
      vertex -10 2.02817 17.1604
      vertex -9.78148 0.264436 17.3769
    endloop
  endfacet
  facet normal 0 0.121869 0.992546
    outer loop
      vertex -8.20147 0.0421282 17.4042
      vertex -9.78148 3.79191 16.9438
      vertex -9.69633 0.0421282 17.4042
    endloop
  endfacet
  facet normal 0 0.121869 0.992546
    outer loop
      vertex -9.69633 0.0421282 17.4042
      vertex -9.78148 3.79191 16.9438
      vertex -9.78148 0.264436 17.3769
    endloop
  endfacet
  facet normal 0 0.121869 0.992546
    outer loop
      vertex -8.31425 0.368186 17.3642
      vertex -9.78148 3.79191 16.9438
      vertex -8.20147 0.0421282 17.4042
    endloop
  endfacet
  facet normal 0 0.121869 0.992546
    outer loop
      vertex -8.5 2.02817 17.1604
      vertex -9.78148 3.79191 16.9438
      vertex -8.31425 0.368186 17.3642
    endloop
  endfacet
  facet normal 0 0.121869 0.992546
    outer loop
      vertex -8.31425 3.68816 16.9565
      vertex -9.78148 3.79191 16.9438
      vertex -8.5 2.02817 17.1604
    endloop
  endfacet
  facet normal 0 0.121869 0.992546
    outer loop
      vertex -8.20147 4.01422 16.9165
      vertex -9.78148 3.79191 16.9438
      vertex -8.31425 3.68816 16.9565
    endloop
  endfacet
  facet normal 0 0.121869 0.992546
    outer loop
      vertex -9.69633 4.01422 16.9165
      vertex -9.78148 3.79191 16.9438
      vertex -8.20147 4.01422 16.9165
    endloop
  endfacet
  facet normal 0 -0.999391 0.0348995
    outer loop
      vertex -10.4586 5.0214 0
      vertex -8.02945 5.0214 0
      vertex -8.06994 5.03683 0.441914
    endloop
  endfacet
  facet normal 0 -0.999391 0.0348995
    outer loop
      vertex -8.26466 5.15254 3.75542
      vertex -10.4586 5.0214 0
      vertex -8.06994 5.03683 0.441914
    endloop
  endfacet
  facet normal 0 -0.999391 0.0348995
    outer loop
      vertex -8.26466 5.15254 3.75542
      vertex -10.6735 5.15254 3.75542
      vertex -10.4586 5.0214 0
    endloop
  endfacet
  facet normal 0 0 -1
    outer loop
      vertex -10.4586 5.0214 0
      vertex -9.7082 6.17349 0
      vertex -8.02945 5.0214 0
    endloop
  endfacet
  facet normal 0 0 -1
    outer loop
      vertex -8.02945 5.0214 0
      vertex -9.7082 6.17349 0
      vertex -8.02957 7.82607 0
    endloop
  endfacet
  facet normal 0 0 -1
    outer loop
      vertex -8.02945 5.0214 0
      vertex -8.02957 7.82607 0
      vertex -6 9.13317 0
    endloop
  endfacet
  facet normal 0 0 -1
    outer loop
      vertex -8.02945 5.0214 0
      vertex -6 9.13317 0
      vertex -3.7082 10.0377 0
    endloop
  endfacet
  facet normal 0 0 -1
    outer loop
      vertex -6 6.74346 0
      vertex -3.7082 10.0377 0
      vertex -1.25434 10.5 0
    endloop
  endfacet
  facet normal 0 0 -1
    outer loop
      vertex 6.67458 6.32037 0
      vertex 8.02957 7.82607 0
      vertex 9.7082 6.17349 0
    endloop
  endfacet
  facet normal 0 0 -1
    outer loop
      vertex 8.02945 5.0214 0
      vertex 9.7082 6.17349 0
      vertex 10.4586 5.0214 0
    endloop
  endfacet
  facet normal 0 0 -1
    outer loop
      vertex -6 6.74346 0
      vertex 6 9.13317 0
      vertex 8.02957 7.82607 0
    endloop
  endfacet
  facet normal 0 0 -1
    outer loop
      vertex 6 6.74346 0
      vertex 8.02957 7.82607 0
      vertex 6.67458 6.32037 0
    endloop
  endfacet
  facet normal 0 0 -1
    outer loop
      vertex -6 6.74346 0
      vertex 3.7082 10.0377 0
      vertex 6 9.13317 0
    endloop
  endfacet
  facet normal 0 0 -1
    outer loop
      vertex 6 5.0214 0
      vertex -6 5.0214 0
      vertex 6 6.74346 0
    endloop
  endfacet
  facet normal 0 0 -1
    outer loop
      vertex -6.67458 6.32037 0
      vertex -3.7082 10.0377 0
      vertex -6 6.74346 0
    endloop
  endfacet
  facet normal 0 0 -1
    outer loop
      vertex -8.02945 5.0214 0
      vertex -3.7082 10.0377 0
      vertex -6.67458 6.32037 0
    endloop
  endfacet
  facet normal 0 0 -1
    outer loop
      vertex 6.67458 6.32037 0
      vertex 9.7082 6.17349 0
      vertex 8.02945 5.0214 0
    endloop
  endfacet
  facet normal 0 0 -1
    outer loop
      vertex -6 6.74346 0
      vertex 1.25434 10.5 0
      vertex 3.7082 10.0377 0
    endloop
  endfacet
  facet normal 0 0 -1
    outer loop
      vertex -6 6.74346 0
      vertex -1.25434 10.5 0
      vertex 1.25434 10.5 0
    endloop
  endfacet
  facet normal 0 0 -1
    outer loop
      vertex -6 6.74346 0
      vertex 8.02957 7.82607 0
      vertex 6 6.74346 0
    endloop
  endfacet
  facet normal 0 0 -1
    outer loop
      vertex -6 6.74346 0
      vertex 6 6.74346 0
      vertex -6 5.0214 0
    endloop
  endfacet
  facet normal -0.183825 0.975632 -0.119793
    outer loop
      vertex -3.7082 10.0377 0
      vertex -3.7082 11.1413 8.98884
      vertex -1.25434 10.5 0
    endloop
  endfacet
  facet normal -0.183825 0.975632 -0.119793
    outer loop
      vertex -1.25434 10.5 0
      vertex -3.7082 11.1413 8.98884
      vertex -1.25434 11.5968 8.93292
    endloop
  endfacet
  facet normal 0 0.121869 0.992546
    outer loop
      vertex 4.5 10.8335 9.02664
      vertex -1.04267 9.61173 9.17665
      vertex 1.04267 9.61173 9.17665
    endloop
  endfacet
  facet normal 0 0.121869 0.992546
    outer loop
      vertex 3.08244 9.24301 9.22193
      vertex 4.5 10.8335 9.02664
      vertex 1.04267 9.61173 9.17665
    endloop
  endfacet
  facet normal 0 0.121869 0.992546
    outer loop
      vertex -3.08244 9.24301 9.22193
      vertex -1.04267 9.61173 9.17665
      vertex 4.5 10.8335 9.02664
    endloop
  endfacet
  facet normal 0 0.121869 0.992546
    outer loop
      vertex 4.5 8.70627 9.28783
      vertex 4.5 10.8335 9.02664
      vertex 3.08244 9.24301 9.22193
    endloop
  endfacet
  facet normal 0 0.121869 0.992546
    outer loop
      vertex 4.5 10.8335 9.02664
      vertex 3.7082 11.1413 8.98884
      vertex -3.08244 9.24301 9.22193
    endloop
  endfacet
  facet normal 0 0.121869 0.992546
    outer loop
      vertex 3.7082 11.1413 8.98884
      vertex 1.25434 11.5968 8.93292
      vertex -3.08244 9.24301 9.22193
    endloop
  endfacet
  facet normal 0 0.121869 0.992546
    outer loop
      vertex 1.25434 11.5968 8.93292
      vertex -1.25434 11.5968 8.93292
      vertex -3.08244 9.24301 9.22193
    endloop
  endfacet
  facet normal 0 0.121869 0.992546
    outer loop
      vertex -1.25434 11.5968 8.93292
      vertex -3.7082 11.1413 8.98884
      vertex -3.08244 9.24301 9.22193
    endloop
  endfacet
  facet normal 0 0.121869 0.992546
    outer loop
      vertex -3.7082 11.1413 8.98884
      vertex -4.5 10.8335 9.02664
      vertex -3.08244 9.24301 9.22193
    endloop
  endfacet
  facet normal 0 0.121869 0.992546
    outer loop
      vertex -4.5 10.8335 9.02664
      vertex -4.5 8.70627 9.28783
      vertex -3.08244 9.24301 9.22193
    endloop
  endfacet
  facet normal 0.179176 -0.976484 0.119897
    outer loop
      vertex -1.04267 8.88052 3.22138
      vertex -1.04267 9.61173 9.17665
      vertex -3.08244 9.24301 9.22193
    endloop
  endfacet
  facet normal 0.179176 -0.976484 0.119897
    outer loop
      vertex -3.08244 8.51179 3.26665
      vertex -1.04267 8.88052 3.22138
      vertex -3.08244 9.24301 9.22193
    endloop
  endfacet
  facet normal 0 0.121869 0.992546
    outer loop
      vertex -6 7.16486 3.43203
      vertex -6 -6.27712 5.0825
      vertex -4.9875 -6.90272 5.15931
    endloop
  endfacet
  facet normal 0 0.121869 0.992546
    outer loop
      vertex -1.04267 -7.99277 5.29316
      vertex -6 7.16486 3.43203
      vertex -3.08244 -7.62405 5.24788
    endloop
  endfacet
  facet normal 0 0.121869 0.992546
    outer loop
      vertex -3.08244 -7.62405 5.24788
      vertex -6 7.16486 3.43203
      vertex -4.9875 -6.90272 5.15931
    endloop
  endfacet
  facet normal 0 0.121869 0.992546
    outer loop
      vertex 1.04267 -7.99277 5.29316
      vertex -6 7.16486 3.43203
      vertex -1.04267 -7.99277 5.29316
    endloop
  endfacet
  facet normal 0 0.121869 0.992546
    outer loop
      vertex 3.08244 -7.62405 5.24788
      vertex -6 7.16486 3.43203
      vertex 1.04267 -7.99277 5.29316
    endloop
  endfacet
  facet normal 0 0.121869 0.992546
    outer loop
      vertex 4.9875 -6.90272 5.15931
      vertex -6 7.16486 3.43203
      vertex 3.08244 -7.62405 5.24788
    endloop
  endfacet
  facet normal 0 0.121869 0.992546
    outer loop
      vertex 6 -6.27712 5.0825
      vertex -6 7.16486 3.43203
      vertex 4.9875 -6.90272 5.15931
    endloop
  endfacet
  facet normal 0 0.121869 0.992546
    outer loop
      vertex 6 7.16486 3.43203
      vertex -6 7.16486 3.43203
      vertex 6 -6.27712 5.0825
    endloop
  endfacet
  facet normal 0 0.121869 0.992546
    outer loop
      vertex 4.9875 7.79047 3.35522
      vertex -6 7.16486 3.43203
      vertex 6 7.16486 3.43203
    endloop
  endfacet
  facet normal 0 0.121869 0.992546
    outer loop
      vertex 3.08244 8.51179 3.26665
      vertex -6 7.16486 3.43203
      vertex 4.9875 7.79047 3.35522
    endloop
  endfacet
  facet normal 0 0.121869 0.992546
    outer loop
      vertex 1.04267 8.88052 3.22138
      vertex -6 7.16486 3.43203
      vertex 3.08244 8.51179 3.26665
    endloop
  endfacet
  facet normal 0 0.121869 0.992546
    outer loop
      vertex -1.04267 8.88052 3.22138
      vertex -6 7.16486 3.43203
      vertex 1.04267 8.88052 3.22138
    endloop
  endfacet
  facet normal 0 0.121869 0.992546
    outer loop
      vertex -3.08244 8.51179 3.26665
      vertex -6 7.16486 3.43203
      vertex -1.04267 8.88052 3.22138
    endloop
  endfacet
  facet normal 0 0.121869 0.992546
    outer loop
      vertex -4.9875 7.79047 3.35522
      vertex -6 7.16486 3.43203
      vertex -3.08244 8.51179 3.26665
    endloop
  endfacet
  facet normal -1 0 0
    outer loop
      vertex -6 -6.90117 0
      vertex -6 -6.27712 5.0825
      vertex -6 -5.28987 0
    endloop
  endfacet
  facet normal -1 0 0
    outer loop
      vertex -6 -2.70586 2.53734
      vertex -6 -6.27712 5.0825
      vertex -6 7.16486 3.43203
    endloop
  endfacet
  facet normal -1 0 0
    outer loop
      vertex -6 5.0214 0
      vertex -6 7.16486 3.43203
      vertex -6 6.74346 0
    endloop
  endfacet
  facet normal -1 0 0
    outer loop
      vertex -6 5.08274 1.75664
      vertex -6 7.16486 3.43203
      vertex -6 5.0214 0
    endloop
  endfacet
  facet normal -1 0 0
    outer loop
      vertex -6 3.08396 1.82644
      vertex -6 7.16486 3.43203
      vertex -6 5.08274 1.75664
    endloop
  endfacet
  facet normal -1 0 0
    outer loop
      vertex -6 -2.70586 2.53734
      vertex -6 7.16486 3.43203
      vertex -6 3.08396 1.82644
    endloop
  endfacet
  facet normal -1 0 0
    outer loop
      vertex -6 -2.70586 2.53734
      vertex -6 3.08396 1.82644
      vertex -6 -3.24519 0
    endloop
  endfacet
  facet normal -1 0 0
    outer loop
      vertex -6 -4.66216 2.95316
      vertex -6 -6.27712 5.0825
      vertex -6 -2.70586 2.53734
    endloop
  endfacet
  facet normal -1 0 0
    outer loop
      vertex -6 -5.28987 0
      vertex -6 -6.27712 5.0825
      vertex -6 -4.66216 2.95316
    endloop
  endfacet
  facet normal -1 0 0
    outer loop
      vertex -6 3.02018 0
      vertex -6 -3.24519 0
      vertex -6 3.08396 1.82644
    endloop
  endfacet
  facet normal 0 0.978148 -0.207912
    outer loop
      vertex -10.6735 -4.24633 4.90946
      vertex -8.26466 -4.24633 4.90946
      vertex -10.3864 -5.28987 0
    endloop
  endfacet
  facet normal 0 0.978148 -0.207912
    outer loop
      vertex -10.3864 -5.28987 0
      vertex -8.26466 -4.24633 4.90946
      vertex -8.06994 -4.93567 1.66638
    endloop
  endfacet
  facet normal 0 0.978148 -0.207912
    outer loop
      vertex -10.3864 -5.28987 0
      vertex -8.06994 -4.93567 1.66638
      vertex -7.91391 -5.28987 0
    endloop
  endfacet
  facet normal 0 0 -1
    outer loop
      vertex -10.3864 -5.28987 0
      vertex -7.91391 -5.28987 0
      vertex -9.7082 -6.3312 0
    endloop
  endfacet
  facet normal 0 0 -1
    outer loop
      vertex -9.7082 -6.3312 0
      vertex -7.91391 -5.28987 0
      vertex -6.67458 -6.47808 0
    endloop
  endfacet
  facet normal 0 0 -1
    outer loop
      vertex -9.7082 -6.3312 0
      vertex -6.67458 -6.47808 0
      vertex -6 -6.90117 0
    endloop
  endfacet
  facet normal 0 0 -1
    outer loop
      vertex -6 -6.90117 0
      vertex -6 -5.28987 0
      vertex 6 -5.28987 0
    endloop
  endfacet
  facet normal 0 0 -1
    outer loop
      vertex -6 -6.90117 0
      vertex 6 -5.28987 0
      vertex 6 -6.90117 0
    endloop
  endfacet
  facet normal 0 0 -1
    outer loop
      vertex 6.67458 -6.47808 0
      vertex 7.91391 -5.28987 0
      vertex 10.3864 -5.28987 0
    endloop
  endfacet
  facet normal 0 0 -1
    outer loop
      vertex 6.67458 -6.47808 0
      vertex 10.3864 -5.28987 0
      vertex 6 -6.90117 0
    endloop
  endfacet
  facet normal 0 0 -1
    outer loop
      vertex 6 -6.90117 0
      vertex 10.3864 -5.28987 0
      vertex 9.7082 -6.3312 0
    endloop
  endfacet
  facet normal 0 0 -1
    outer loop
      vertex 6 -6.90117 0
      vertex 9.7082 -6.3312 0
      vertex 8.02957 -7.98378 0
    endloop
  endfacet
  facet normal 0 0 -1
    outer loop
      vertex 6 -6.90117 0
      vertex 8.02957 -7.98378 0
      vertex -6 -6.90117 0
    endloop
  endfacet
  facet normal 0 0 -1
    outer loop
      vertex -6 -6.90117 0
      vertex 8.02957 -7.98378 0
      vertex 6 -9.29087 0
    endloop
  endfacet
  facet normal 0 0 -1
    outer loop
      vertex -6 -6.90117 0
      vertex 6 -9.29087 0
      vertex -9.7082 -6.3312 0
    endloop
  endfacet
  facet normal 0 0 -1
    outer loop
      vertex -9.7082 -6.3312 0
      vertex 6 -9.29087 0
      vertex 3.7082 -10.1954 0
    endloop
  endfacet
  facet normal 0 0 -1
    outer loop
      vertex -9.7082 -6.3312 0
      vertex 3.7082 -10.1954 0
      vertex 1.25434 -10.6577 0
    endloop
  endfacet
  facet normal 0 0 -1
    outer loop
      vertex -9.7082 -6.3312 0
      vertex 1.25434 -10.6577 0
      vertex -1.25434 -10.6577 0
    endloop
  endfacet
  facet normal 0 0 -1
    outer loop
      vertex -9.7082 -6.3312 0
      vertex -1.25434 -10.6577 0
      vertex -3.7082 -10.1954 0
    endloop
  endfacet
  facet normal 0 0 -1
    outer loop
      vertex -9.7082 -6.3312 0
      vertex -3.7082 -10.1954 0
      vertex -6 -9.29087 0
    endloop
  endfacet
  facet normal 0 0 -1
    outer loop
      vertex -9.7082 -6.3312 0
      vertex -6 -9.29087 0
      vertex -8.02957 -7.98378 0
    endloop
  endfacet
  facet normal 1 0 0
    outer loop
      vertex 6 -6.27712 5.0825
      vertex 6 -6.90117 0
      vertex 6 -5.28987 0
    endloop
  endfacet
  facet normal 1 0 0
    outer loop
      vertex 6 -2.70586 2.53734
      vertex 6 -6.27712 5.0825
      vertex 6 -4.66216 2.95316
    endloop
  endfacet
  facet normal 1 0 0
    outer loop
      vertex 6 -4.66216 2.95316
      vertex 6 -6.27712 5.0825
      vertex 6 -5.28987 0
    endloop
  endfacet
  facet normal 1 0 0
    outer loop
      vertex 6 3.02018 0
      vertex 6 -6.27712 5.0825
      vertex 6 -2.70586 2.53734
    endloop
  endfacet
  facet normal 1 0 0
    outer loop
      vertex 6 3.02018 0
      vertex 6 -2.70586 2.53734
      vertex 6 -3.24519 0
    endloop
  endfacet
  facet normal 1 0 0
    outer loop
      vertex 6 3.08396 1.82644
      vertex 6 -6.27712 5.0825
      vertex 6 3.02018 0
    endloop
  endfacet
  facet normal 1 0 0
    outer loop
      vertex 6 5.08274 1.75664
      vertex 6 -6.27712 5.0825
      vertex 6 3.08396 1.82644
    endloop
  endfacet
  facet normal 1 0 0
    outer loop
      vertex 6 7.16486 3.43203
      vertex 6 -6.27712 5.0825
      vertex 6 5.08274 1.75664
    endloop
  endfacet
  facet normal 1 0 0
    outer loop
      vertex 6 6.74346 0
      vertex 6 5.08274 1.75664
      vertex 6 5.0214 0
    endloop
  endfacet
  facet normal 1 0 0
    outer loop
      vertex 6 7.16486 3.43203
      vertex 6 5.08274 1.75664
      vertex 6 6.74346 0
    endloop
  endfacet
  facet normal 0 0.978148 -0.207912
    outer loop
      vertex 7.91391 -5.28987 0
      vertex 8.06994 -4.93567 1.66638
      vertex 10.3864 -5.28987 0
    endloop
  endfacet
  facet normal 0 0.978148 -0.207912
    outer loop
      vertex 10.3864 -5.28987 0
      vertex 8.06994 -4.93567 1.66638
      vertex 8.26466 -4.24633 4.90946
    endloop
  endfacet
  facet normal 0 0.978148 -0.207912
    outer loop
      vertex 10.3864 -5.28987 0
      vertex 8.26466 -4.24633 4.90946
      vertex 10.6735 -4.24633 4.90946
    endloop
  endfacet
  facet normal 0 -0.207912 -0.978148
    outer loop
      vertex 8.26466 -4.24633 4.90946
      vertex 9.11262 -3.01071 4.64682
      vertex 10.6735 -4.24633 4.90946
    endloop
  endfacet
  facet normal 0 -0.207912 -0.978148
    outer loop
      vertex 10.6735 -4.24633 4.90946
      vertex 9.11262 -3.01071 4.64682
      vertex 9.39095 -2.29004 4.49364
    endloop
  endfacet
  facet normal 0 -0.207912 -0.978148
    outer loop
      vertex 10.6735 -4.24633 4.90946
      vertex 9.39095 -2.29004 4.49364
      vertex 11.5357 -2.29004 4.49364
    endloop
  endfacet
  facet normal 0 -0.207912 -0.978148
    outer loop
      vertex 10.6735 -4.24633 4.90946
      vertex 11.5357 -2.29004 4.49364
      vertex 10.9625 -3.81384 4.81753
    endloop
  endfacet
  facet normal 0 -0.978148 0.207912
    outer loop
      vertex 9.39095 -2.29004 4.49364
      vertex 9.23911 -3.24519 0
      vertex 11.3878 -3.24519 0
    endloop
  endfacet
  facet normal 0 -0.978148 0.207912
    outer loop
      vertex 11.5357 -2.29004 4.49364
      vertex 9.39095 -2.29004 4.49364
      vertex 11.3878 -3.24519 0
    endloop
  endfacet
  facet normal 0 0 -1
    outer loop
      vertex 7.96882 -2.77755 0
      vertex 8.31425 -1.76387 0
      vertex 9.41512 -2.77755 0
    endloop
  endfacet
  facet normal 0 0 -1
    outer loop
      vertex 9.41512 -2.77755 0
      vertex 8.31425 -1.76387 0
      vertex 8.5 -0.0788532 0
    endloop
  endfacet
  facet normal 0 0 -1
    outer loop
      vertex 8.5 -0.0788532 0
      vertex 8.31425 1.60616 0
      vertex 9.41512 -2.77755 0
    endloop
  endfacet
  facet normal 0 0 -1
    outer loop
      vertex 8.31425 1.60616 0
      vertex 7.97746 2.59447 0
      vertex 9.42467 2.59447 0
    endloop
  endfacet
  facet normal 0 0 -1
    outer loop
      vertex 8.31425 1.60616 0
      vertex 9.42467 2.59447 0
      vertex 9.41512 -2.77755 0
    endloop
  endfacet
  facet normal 0 0 -1
    outer loop
      vertex 9.42467 2.59447 0
      vertex 9.26444 3.02018 0
      vertex 11.4125 3.02018 0
    endloop
  endfacet
  facet normal 0 0 -1
    outer loop
      vertex 9.42467 2.59447 0
      vertex 11.4125 3.02018 0
      vertex 9.41512 -2.77755 0
    endloop
  endfacet
  facet normal 0 0 -1
    outer loop
      vertex 9.41512 -2.77755 0
      vertex 11.4125 3.02018 0
      vertex 11.7378 2.13273 0
    endloop
  endfacet
  facet normal 0 0 -1
    outer loop
      vertex 9.41512 -2.77755 0
      vertex 11.7378 2.13273 0
      vertex 12 -0.0788532 0
    endloop
  endfacet
  facet normal 0 0 -1
    outer loop
      vertex 9.41512 -2.77755 0
      vertex 12 -0.0788532 0
      vertex 11.7378 -2.29044 0
    endloop
  endfacet
  facet normal 0 0 -1
    outer loop
      vertex 9.41512 -2.77755 0
      vertex 11.7378 -2.29044 0
      vertex 11.3878 -3.24519 0
    endloop
  endfacet
  facet normal 0 0 -1
    outer loop
      vertex 9.41512 -2.77755 0
      vertex 11.3878 -3.24519 0
      vertex 9.23911 -3.24519 0
    endloop
  endfacet
  facet normal 0 0.121869 0.992546
    outer loop
      vertex 8.31425 0.368186 17.3642
      vertex 8.20147 0.0421282 17.4042
      vertex 9.69633 0.0421282 17.4042
    endloop
  endfacet
  facet normal 0 0.121869 0.992546
    outer loop
      vertex 10 2.02817 17.1604
      vertex 8.31425 0.368186 17.3642
      vertex 9.78148 0.264436 17.3769
    endloop
  endfacet
  facet normal 0 0.121869 0.992546
    outer loop
      vertex 9.78148 0.264436 17.3769
      vertex 8.31425 0.368186 17.3642
      vertex 9.69633 0.0421282 17.4042
    endloop
  endfacet
  facet normal 0 0.121869 0.992546
    outer loop
      vertex 9.78148 3.79191 16.9438
      vertex 8.31425 0.368186 17.3642
      vertex 10 2.02817 17.1604
    endloop
  endfacet
  facet normal 0 0.121869 0.992546
    outer loop
      vertex 9.69633 4.01422 16.9165
      vertex 8.31425 0.368186 17.3642
      vertex 9.78148 3.79191 16.9438
    endloop
  endfacet
  facet normal 0 0.121869 0.992546
    outer loop
      vertex 8.5 2.02817 17.1604
      vertex 8.31425 0.368186 17.3642
      vertex 9.69633 4.01422 16.9165
    endloop
  endfacet
  facet normal 0 0.121869 0.992546
    outer loop
      vertex 8.20147 4.01422 16.9165
      vertex 8.31425 3.68816 16.9565
      vertex 9.69633 4.01422 16.9165
    endloop
  endfacet
  facet normal 0 0.121869 0.992546
    outer loop
      vertex 8.31425 3.68816 16.9565
      vertex 8.5 2.02817 17.1604
      vertex 9.69633 4.01422 16.9165
    endloop
  endfacet
  facet normal -0.945807 0.322309 -0.0395746
    outer loop
      vertex 8.31425 0.368186 17.3642
      vertex 8.31425 -1.76387 0
      vertex 8.20147 0.0421282 17.4042
    endloop
  endfacet
  facet normal -0.945807 0.322309 -0.0395746
    outer loop
      vertex 8.20147 0.0421282 17.4042
      vertex 8.31425 -1.76387 0
      vertex 7.96882 -2.77755 0
    endloop
  endfacet
  facet normal -0.945807 -0.322309 0.0395746
    outer loop
      vertex 8.31425 3.68816 16.9565
      vertex 8.20147 4.01422 16.9165
      vertex 8.31425 1.60616 0
    endloop
  endfacet
  facet normal -0.945807 -0.322309 0.0395746
    outer loop
      vertex 8.31425 1.60616 0
      vertex 8.20147 4.01422 16.9165
      vertex 7.97746 2.59447 0
    endloop
  endfacet
  facet normal 0 0.999391 -0.0348995
    outer loop
      vertex 11.5357 3.15376 3.82522
      vertex 11.4125 3.02018 0
      vertex 9.39095 3.15376 3.82522
    endloop
  endfacet
  facet normal 0 0.999391 -0.0348995
    outer loop
      vertex 9.39095 3.15376 3.82522
      vertex 11.4125 3.02018 0
      vertex 9.26444 3.02018 0
    endloop
  endfacet
  facet normal 0 -0.0348995 -0.999391
    outer loop
      vertex 10.9625 4.71066 3.77085
      vertex 11.5357 3.15376 3.82522
      vertex 10.6735 5.15254 3.75542
    endloop
  endfacet
  facet normal 0 -0.0348995 -0.999391
    outer loop
      vertex 10.6735 5.15254 3.75542
      vertex 11.5357 3.15376 3.82522
      vertex 9.39095 3.15376 3.82522
    endloop
  endfacet
  facet normal 0 -0.0348995 -0.999391
    outer loop
      vertex 10.6735 5.15254 3.75542
      vertex 9.39095 3.15376 3.82522
      vertex 9.11262 3.89008 3.79951
    endloop
  endfacet
  facet normal 0 -0.0348995 -0.999391
    outer loop
      vertex 10.6735 5.15254 3.75542
      vertex 9.11262 3.89008 3.79951
      vertex 8.26466 5.15254 3.75542
    endloop
  endfacet
  facet normal 0 -0.999391 0.0348995
    outer loop
      vertex 10.4586 5.0214 0
      vertex 10.6735 5.15254 3.75542
      vertex 8.26466 5.15254 3.75542
    endloop
  endfacet
  facet normal 0 -0.999391 0.0348995
    outer loop
      vertex 8.02945 5.0214 0
      vertex 10.4586 5.0214 0
      vertex 8.06994 5.03683 0.441914
    endloop
  endfacet
  facet normal 0 -0.999391 0.0348995
    outer loop
      vertex 8.06994 5.03683 0.441914
      vertex 10.4586 5.0214 0
      vertex 8.26466 5.15254 3.75542
    endloop
  endfacet
  facet normal -0.179176 -0.976484 0.119897
    outer loop
      vertex 3.08244 8.51179 3.26665
      vertex 3.08244 9.24301 9.22193
      vertex 1.04267 9.61173 9.17665
    endloop
  endfacet
  facet normal -0.179176 -0.976484 0.119897
    outer loop
      vertex 1.04267 8.88052 3.22138
      vertex 3.08244 8.51179 3.26665
      vertex 1.04267 9.61173 9.17665
    endloop
  endfacet
  facet normal 0.183825 0.975632 -0.119793
    outer loop
      vertex 1.25434 10.5 0
      vertex 1.25434 11.5968 8.93292
      vertex 3.7082 10.0377 0
    endloop
  endfacet
  facet normal 0.183825 0.975632 -0.119793
    outer loop
      vertex 3.7082 10.0377 0
      vertex 1.25434 11.5968 8.93292
      vertex 3.7082 11.1413 8.98884
    endloop
  endfacet
  facet normal 0 -0.999391 0.0348995
    outer loop
      vertex 6 5.0214 0
      vertex 6 5.08274 1.75664
      vertex -6 5.08274 1.75664
    endloop
  endfacet
  facet normal 0 -0.999391 0.0348995
    outer loop
      vertex -6 5.0214 0
      vertex 6 5.0214 0
      vertex -6 5.08274 1.75664
    endloop
  endfacet
  facet normal 0 0.992546 -0.121869
    outer loop
      vertex -1.25434 10.5 0
      vertex -1.25434 11.5968 8.93292
      vertex 1.25434 10.5 0
    endloop
  endfacet
  facet normal 0 0.992546 -0.121869
    outer loop
      vertex 1.25434 10.5 0
      vertex -1.25434 11.5968 8.93292
      vertex 1.25434 11.5968 8.93292
    endloop
  endfacet
  facet normal 0 -0.992546 0.121869
    outer loop
      vertex 1.04267 8.88052 3.22138
      vertex 1.04267 9.61173 9.17665
      vertex -1.04267 9.61173 9.17665
    endloop
  endfacet
  facet normal 0 -0.992546 0.121869
    outer loop
      vertex -1.04267 8.88052 3.22138
      vertex 1.04267 8.88052 3.22138
      vertex -1.04267 9.61173 9.17665
    endloop
  endfacet
  facet normal 0 0.978148 -0.207912
    outer loop
      vertex -6 -5.28987 0
      vertex -6 -4.66216 2.95316
      vertex 6 -5.28987 0
    endloop
  endfacet
  facet normal 0 0.978148 -0.207912
    outer loop
      vertex 6 -5.28987 0
      vertex -6 -4.66216 2.95316
      vertex 6 -4.66216 2.95316
    endloop
  endfacet
  facet normal 0 -0.207912 -0.978148
    outer loop
      vertex -6 -4.66216 2.95316
      vertex -6 -2.70586 2.53734
      vertex 6 -4.66216 2.95316
    endloop
  endfacet
  facet normal 0 -0.207912 -0.978148
    outer loop
      vertex 6 -4.66216 2.95316
      vertex -6 -2.70586 2.53734
      vertex 6 -2.70586 2.53734
    endloop
  endfacet
  facet normal 0 -0.978148 0.207912
    outer loop
      vertex -6 -2.70586 2.53734
      vertex -6 -3.24519 0
      vertex 6 -3.24519 0
    endloop
  endfacet
  facet normal 0 -0.978148 0.207912
    outer loop
      vertex 6 -2.70586 2.53734
      vertex -6 -2.70586 2.53734
      vertex 6 -3.24519 0
    endloop
  endfacet
  facet normal 0 0 -1
    outer loop
      vertex -6 -3.24519 0
      vertex -6 3.02018 0
      vertex 6 -3.24519 0
    endloop
  endfacet
  facet normal 0 0 -1
    outer loop
      vertex 6 -3.24519 0
      vertex -6 3.02018 0
      vertex 6 3.02018 0
    endloop
  endfacet
  facet normal 0 0.999391 -0.0348995
    outer loop
      vertex 6 3.08396 1.82644
      vertex 6 3.02018 0
      vertex -6 3.08396 1.82644
    endloop
  endfacet
  facet normal 0 0.999391 -0.0348995
    outer loop
      vertex -6 3.08396 1.82644
      vertex 6 3.02018 0
      vertex -6 3.02018 0
    endloop
  endfacet
  facet normal 0 -0.0348995 -0.999391
    outer loop
      vertex 6 5.08274 1.75664
      vertex 6 3.08396 1.82644
      vertex -6 5.08274 1.75664
    endloop
  endfacet
  facet normal 0 -0.0348995 -0.999391
    outer loop
      vertex -6 5.08274 1.75664
      vertex 6 3.08396 1.82644
      vertex -6 3.08396 1.82644
    endloop
  endfacet
  facet normal -0.993889 -0.10956 0.0134523
    outer loop
      vertex 8.5 2.02817 17.1604
      vertex 8.31425 3.68816 16.9565
      vertex 8.5 -0.0788532 0
    endloop
  endfacet
  facet normal -0.993889 -0.10956 0.0134523
    outer loop
      vertex 8.5 -0.0788532 0
      vertex 8.31425 3.68816 16.9565
      vertex 8.31425 1.60616 0
    endloop
  endfacet
  facet normal -0.993889 0.10956 -0.0134523
    outer loop
      vertex 8.5 2.02817 17.1604
      vertex 8.5 -0.0788532 0
      vertex 8.31425 0.368186 17.3642
    endloop
  endfacet
  facet normal -0.993889 0.10956 -0.0134523
    outer loop
      vertex 8.31425 0.368186 17.3642
      vertex 8.5 -0.0788532 0
      vertex 8.31425 -1.76387 0
    endloop
  endfacet
endsolid OpenSCAD_Model
