solid OpenSCAD_Model
  facet normal 0.634393 0.773011 -0
    outer loop
      vertex 5.3033 5.3033 0
      vertex 4.16678 6.23602 10
      vertex 5.3033 5.3033 10
    endloop
  endfacet
  facet normal 0.634393 0.773011 0
    outer loop
      vertex 4.16678 6.23602 10
      vertex 5.3033 5.3033 0
      vertex 4.16678 6.23602 0
    endloop
  endfacet
  facet normal -0.95694 0.290285 0
    outer loop
      vertex -7.35589 1.46318 0
      vertex -6.9291 2.87012 10
      vertex -6.9291 2.87012 0
    endloop
  endfacet
  facet normal -0.95694 0.290285 0
    outer loop
      vertex -6.9291 2.87012 10
      vertex -7.35589 1.46318 0
      vertex -7.35589 1.46318 10
    endloop
  endfacet
  facet normal 0.995185 -0.0980174 0
    outer loop
      vertex 7.35589 -1.46318 10
      vertex 7.5 0 0
      vertex 7.5 0 10
    endloop
  endfacet
  facet normal 0.995185 -0.0980174 0
    outer loop
      vertex 7.5 0 0
      vertex 7.35589 -1.46318 10
      vertex 7.35589 -1.46318 0
    endloop
  endfacet
  facet normal -0.290285 -0.95694 0
    outer loop
      vertex -2.87012 -6.9291 0
      vertex -1.46318 -7.35589 10
      vertex -2.87012 -6.9291 10
    endloop
  endfacet
  facet normal -0.290285 -0.95694 -0
    outer loop
      vertex -1.46318 -7.35589 10
      vertex -2.87012 -6.9291 0
      vertex -1.46318 -7.35589 0
    endloop
  endfacet
  facet normal 0.773011 0.634393 0
    outer loop
      vertex 6.23602 4.16678 10
      vertex 5.3033 5.3033 0
      vertex 5.3033 5.3033 10
    endloop
  endfacet
  facet normal 0.773011 0.634393 0
    outer loop
      vertex 5.3033 5.3033 0
      vertex 6.23602 4.16678 10
      vertex 6.23602 4.16678 0
    endloop
  endfacet
  facet normal -0.290285 0.95694 0
    outer loop
      vertex -1.46318 7.35589 0
      vertex -2.87012 6.9291 10
      vertex -1.46318 7.35589 10
    endloop
  endfacet
  facet normal -0.290285 0.95694 0
    outer loop
      vertex -2.87012 6.9291 10
      vertex -1.46318 7.35589 0
      vertex -2.87012 6.9291 0
    endloop
  endfacet
  facet normal -0.881921 0.471396 0
    outer loop
      vertex -6.9291 2.87012 0
      vertex -6.23602 4.16678 10
      vertex -6.23602 4.16678 0
    endloop
  endfacet
  facet normal -0.881921 0.471396 0
    outer loop
      vertex -6.23602 4.16678 10
      vertex -6.9291 2.87012 0
      vertex -6.9291 2.87012 10
    endloop
  endfacet
  facet normal 0.95694 0.290285 0
    outer loop
      vertex 7.35589 1.46318 10
      vertex 6.9291 2.87012 0
      vertex 6.9291 2.87012 10
    endloop
  endfacet
  facet normal 0.95694 0.290285 0
    outer loop
      vertex 6.9291 2.87012 0
      vertex 7.35589 1.46318 10
      vertex 7.35589 1.46318 0
    endloop
  endfacet
  facet normal 0.881921 0.471396 0
    outer loop
      vertex 6.9291 2.87012 10
      vertex 6.23602 4.16678 0
      vertex 6.23602 4.16678 10
    endloop
  endfacet
  facet normal 0.881921 0.471396 0
    outer loop
      vertex 6.23602 4.16678 0
      vertex 6.9291 2.87012 10
      vertex 6.9291 2.87012 0
    endloop
  endfacet
  facet normal 0.471396 0.881921 -0
    outer loop
      vertex 4.16678 6.23602 0
      vertex 2.87012 6.9291 10
      vertex 4.16678 6.23602 10
    endloop
  endfacet
  facet normal 0.471396 0.881921 0
    outer loop
      vertex 2.87012 6.9291 10
      vertex 4.16678 6.23602 0
      vertex 2.87012 6.9291 0
    endloop
  endfacet
  facet normal 0.0980174 0.995185 -0
    outer loop
      vertex 1.46318 7.35589 0
      vertex 0 7.5 10
      vertex 1.46318 7.35589 10
    endloop
  endfacet
  facet normal 0.0980174 0.995185 0
    outer loop
      vertex 0 7.5 10
      vertex 1.46318 7.35589 0
      vertex 0 7.5 0
    endloop
  endfacet
  facet normal -0.995185 0.0980174 0
    outer loop
      vertex -7.5 0 0
      vertex -7.35589 1.46318 10
      vertex -7.35589 1.46318 0
    endloop
  endfacet
  facet normal -0.995185 0.0980174 0
    outer loop
      vertex -7.35589 1.46318 10
      vertex -7.5 0 0
      vertex -7.5 0 10
    endloop
  endfacet
  facet normal -0.773011 0.634393 0
    outer loop
      vertex -6.23602 4.16678 0
      vertex -5.3033 5.3033 10
      vertex -5.3033 5.3033 0
    endloop
  endfacet
  facet normal -0.773011 0.634393 0
    outer loop
      vertex -5.3033 5.3033 10
      vertex -6.23602 4.16678 0
      vertex -6.23602 4.16678 10
    endloop
  endfacet
  facet normal -0.471396 0.881921 0
    outer loop
      vertex -2.87012 6.9291 0
      vertex -4.16678 6.23602 10
      vertex -2.87012 6.9291 10
    endloop
  endfacet
  facet normal -0.471396 0.881921 0
    outer loop
      vertex -4.16678 6.23602 10
      vertex -2.87012 6.9291 0
      vertex -4.16678 6.23602 0
    endloop
  endfacet
  facet normal -0.0980174 0.995185 0
    outer loop
      vertex 0 7.5 0
      vertex -1.46318 7.35589 10
      vertex 0 7.5 10
    endloop
  endfacet
  facet normal -0.0980174 0.995185 0
    outer loop
      vertex -1.46318 7.35589 10
      vertex 0 7.5 0
      vertex -1.46318 7.35589 0
    endloop
  endfacet
  facet normal -0.634393 0.773011 0
    outer loop
      vertex -4.16678 6.23602 0
      vertex -5.3033 5.3033 10
      vertex -4.16678 6.23602 10
    endloop
  endfacet
  facet normal -0.634393 0.773011 0
    outer loop
      vertex -5.3033 5.3033 10
      vertex -4.16678 6.23602 0
      vertex -5.3033 5.3033 0
    endloop
  endfacet
  facet normal 0.995185 0.0980174 0
    outer loop
      vertex 7.5 0 10
      vertex 7.35589 1.46318 0
      vertex 7.35589 1.46318 10
    endloop
  endfacet
  facet normal 0.995185 0.0980174 0
    outer loop
      vertex 7.35589 1.46318 0
      vertex 7.5 0 10
      vertex 7.5 0 0
    endloop
  endfacet
  facet normal 0.0980174 -0.995185 0
    outer loop
      vertex 0 -7.5 0
      vertex 1.46318 -7.35589 10
      vertex 0 -7.5 10
    endloop
  endfacet
  facet normal 0.0980174 -0.995185 0
    outer loop
      vertex 1.46318 -7.35589 10
      vertex 0 -7.5 0
      vertex 1.46318 -7.35589 0
    endloop
  endfacet
  facet normal 0.95694 -0.290285 0
    outer loop
      vertex 6.9291 -2.87012 10
      vertex 7.35589 -1.46318 0
      vertex 7.35589 -1.46318 10
    endloop
  endfacet
  facet normal 0.95694 -0.290285 0
    outer loop
      vertex 7.35589 -1.46318 0
      vertex 6.9291 -2.87012 10
      vertex 6.9291 -2.87012 0
    endloop
  endfacet
  facet normal 0.290285 -0.95694 0
    outer loop
      vertex 1.46318 -7.35589 0
      vertex 2.87012 -6.9291 10
      vertex 1.46318 -7.35589 10
    endloop
  endfacet
  facet normal 0.290285 -0.95694 0
    outer loop
      vertex 2.87012 -6.9291 10
      vertex 1.46318 -7.35589 0
      vertex 2.87012 -6.9291 0
    endloop
  endfacet
  facet normal 0.471396 -0.881921 0
    outer loop
      vertex 2.87012 -6.9291 0
      vertex 4.16678 -6.23602 10
      vertex 2.87012 -6.9291 10
    endloop
  endfacet
  facet normal 0.471396 -0.881921 0
    outer loop
      vertex 4.16678 -6.23602 10
      vertex 2.87012 -6.9291 0
      vertex 4.16678 -6.23602 0
    endloop
  endfacet
  facet normal -0.0980174 -0.995185 0
    outer loop
      vertex -1.46318 -7.35589 0
      vertex 0 -7.5 10
      vertex -1.46318 -7.35589 10
    endloop
  endfacet
  facet normal -0.0980174 -0.995185 -0
    outer loop
      vertex 0 -7.5 10
      vertex -1.46318 -7.35589 0
      vertex 0 -7.5 0
    endloop
  endfacet
  facet normal -0.634393 -0.773011 0
    outer loop
      vertex -5.3033 -5.3033 0
      vertex -4.16678 -6.23602 10
      vertex -5.3033 -5.3033 10
    endloop
  endfacet
  facet normal -0.634393 -0.773011 -0
    outer loop
      vertex -4.16678 -6.23602 10
      vertex -5.3033 -5.3033 0
      vertex -4.16678 -6.23602 0
    endloop
  endfacet
  facet normal -0.881921 -0.471396 0
    outer loop
      vertex -6.23602 -4.16678 0
      vertex -6.9291 -2.87012 10
      vertex -6.9291 -2.87012 0
    endloop
  endfacet
  facet normal -0.881921 -0.471396 0
    outer loop
      vertex -6.9291 -2.87012 10
      vertex -6.23602 -4.16678 0
      vertex -6.23602 -4.16678 10
    endloop
  endfacet
  facet normal -0.995185 -0.0980174 0
    outer loop
      vertex -7.35589 -1.46318 0
      vertex -7.5 0 10
      vertex -7.5 0 0
    endloop
  endfacet
  facet normal -0.995185 -0.0980174 0
    outer loop
      vertex -7.5 0 10
      vertex -7.35589 -1.46318 0
      vertex -7.35589 -1.46318 10
    endloop
  endfacet
  facet normal 0 0 -1
    outer loop
      vertex 6.5 0 0
      vertex 7.5 0 0
      vertex 7.35589 -1.46318 0
    endloop
  endfacet
  facet normal 0 0 -1
    outer loop
      vertex 6.3751 -1.26809 0
      vertex 7.35589 -1.46318 0
      vertex 6.9291 -2.87012 0
    endloop
  endfacet
  facet normal 0 0 -1
    outer loop
      vertex 7.5 0 0
      vertex 6.5 0 0
      vertex 7.35589 1.46318 0
    endloop
  endfacet
  facet normal 0 0 -1
    outer loop
      vertex 6.3751 1.26809 0
      vertex 7.35589 1.46318 0
      vertex 6.5 0 0
    endloop
  endfacet
  facet normal 0 0 -1
    outer loop
      vertex 7.35589 -1.46318 0
      vertex 6.3751 -1.26809 0
      vertex 6.5 0 0
    endloop
  endfacet
  facet normal 0 0 -1
    outer loop
      vertex 6.00522 -2.48744 0
      vertex 6.9291 -2.87012 0
      vertex 6.23602 -4.16678 0
    endloop
  endfacet
  facet normal 0 0 -1
    outer loop
      vertex 6.9291 -2.87012 0
      vertex 6.00522 -2.48744 0
      vertex 6.3751 -1.26809 0
    endloop
  endfacet
  facet normal 0 0 -1
    outer loop
      vertex 6.23602 -4.16678 0
      vertex 5.40455 -3.61121 0
      vertex 6.00522 -2.48744 0
    endloop
  endfacet
  facet normal 0 0 -1
    outer loop
      vertex 5.3033 -5.3033 0
      vertex 5.40455 -3.61121 0
      vertex 6.23602 -4.16678 0
    endloop
  endfacet
  facet normal 0 0 -1
    outer loop
      vertex 5.3033 -5.3033 0
      vertex 4.59619 -4.59619 0
      vertex 5.40455 -3.61121 0
    endloop
  endfacet
  facet normal 0 0 -1
    outer loop
      vertex 4.16678 -6.23602 0
      vertex 4.59619 -4.59619 0
      vertex 5.3033 -5.3033 0
    endloop
  endfacet
  facet normal 0 0 -1
    outer loop
      vertex 4.16678 -6.23602 0
      vertex 3.61121 -5.40455 0
      vertex 4.59619 -4.59619 0
    endloop
  endfacet
  facet normal 0 0 -1
    outer loop
      vertex 2.87012 -6.9291 0
      vertex 3.61121 -5.40455 0
      vertex 4.16678 -6.23602 0
    endloop
  endfacet
  facet normal 0 0 -1
    outer loop
      vertex 2.87012 -6.9291 0
      vertex 2.48744 -6.00522 0
      vertex 3.61121 -5.40455 0
    endloop
  endfacet
  facet normal 0 0 -1
    outer loop
      vertex 1.46318 -7.35589 0
      vertex 2.48744 -6.00522 0
      vertex 2.87012 -6.9291 0
    endloop
  endfacet
  facet normal 0 0 -1
    outer loop
      vertex 1.46318 -7.35589 0
      vertex 1.26809 -6.3751 0
      vertex 2.48744 -6.00522 0
    endloop
  endfacet
  facet normal 0 0 -1
    outer loop
      vertex 0 -7.5 0
      vertex 1.26809 -6.3751 0
      vertex 1.46318 -7.35589 0
    endloop
  endfacet
  facet normal 0 0 -1
    outer loop
      vertex 0 -7.5 0
      vertex 0 -6.5 0
      vertex 1.26809 -6.3751 0
    endloop
  endfacet
  facet normal 0 0 -1
    outer loop
      vertex 0 -7.5 0
      vertex -1.26809 -6.3751 0
      vertex 0 -6.5 0
    endloop
  endfacet
  facet normal 0 0 -1
    outer loop
      vertex -1.46318 -7.35589 0
      vertex -1.26809 -6.3751 0
      vertex 0 -7.5 0
    endloop
  endfacet
  facet normal 0 0 -1
    outer loop
      vertex -1.46318 -7.35589 0
      vertex -2.48744 -6.00522 0
      vertex -1.26809 -6.3751 0
    endloop
  endfacet
  facet normal 0 0 -1
    outer loop
      vertex -2.87012 -6.9291 0
      vertex -2.48744 -6.00522 0
      vertex -1.46318 -7.35589 0
    endloop
  endfacet
  facet normal 0 0 -1
    outer loop
      vertex -2.87012 -6.9291 0
      vertex -3.61121 -5.40455 0
      vertex -2.48744 -6.00522 0
    endloop
  endfacet
  facet normal 0 0 -1
    outer loop
      vertex -4.16678 -6.23602 0
      vertex -3.61121 -5.40455 0
      vertex -2.87012 -6.9291 0
    endloop
  endfacet
  facet normal 0 0 -1
    outer loop
      vertex -4.16678 -6.23602 0
      vertex -4.59619 -4.59619 0
      vertex -3.61121 -5.40455 0
    endloop
  endfacet
  facet normal 0 0 -1
    outer loop
      vertex -5.3033 -5.3033 0
      vertex -4.59619 -4.59619 0
      vertex -4.16678 -6.23602 0
    endloop
  endfacet
  facet normal 0 0 -1
    outer loop
      vertex -5.3033 -5.3033 0
      vertex -5.40455 -3.61121 0
      vertex -4.59619 -4.59619 0
    endloop
  endfacet
  facet normal 0 0 -1
    outer loop
      vertex -6.23602 -4.16678 0
      vertex -5.40455 -3.61121 0
      vertex -5.3033 -5.3033 0
    endloop
  endfacet
  facet normal -0 0 -1
    outer loop
      vertex -5.40455 -3.61121 0
      vertex -6.23602 -4.16678 0
      vertex -6.00522 -2.48744 0
    endloop
  endfacet
  facet normal 0 0 -1
    outer loop
      vertex -6.9291 -2.87012 0
      vertex -6.00522 -2.48744 0
      vertex -6.23602 -4.16678 0
    endloop
  endfacet
  facet normal -0 0 -1
    outer loop
      vertex -6.00522 -2.48744 0
      vertex -6.9291 -2.87012 0
      vertex -6.3751 -1.26809 0
    endloop
  endfacet
  facet normal 0 0 -1
    outer loop
      vertex -7.35589 -1.46318 0
      vertex -6.3751 -1.26809 0
      vertex -6.9291 -2.87012 0
    endloop
  endfacet
  facet normal -0 0 -1
    outer loop
      vertex 7.35589 1.46318 0
      vertex 6.3751 1.26809 0
      vertex 6.9291 2.87012 0
    endloop
  endfacet
  facet normal 0 0 -1
    outer loop
      vertex 6.00522 2.48744 0
      vertex 6.9291 2.87012 0
      vertex 6.3751 1.26809 0
    endloop
  endfacet
  facet normal -0 0 -1
    outer loop
      vertex 6.9291 2.87012 0
      vertex 6.00522 2.48744 0
      vertex 6.23602 4.16678 0
    endloop
  endfacet
  facet normal 0 0 -1
    outer loop
      vertex 5.40455 3.61121 0
      vertex 6.23602 4.16678 0
      vertex 6.00522 2.48744 0
    endloop
  endfacet
  facet normal 0 0 -1
    outer loop
      vertex 5.40455 3.61121 0
      vertex 5.3033 5.3033 0
      vertex 6.23602 4.16678 0
    endloop
  endfacet
  facet normal 0 0 -1
    outer loop
      vertex 4.59619 4.59619 0
      vertex 5.3033 5.3033 0
      vertex 5.40455 3.61121 0
    endloop
  endfacet
  facet normal 0 0 -1
    outer loop
      vertex 4.59619 4.59619 0
      vertex 4.16678 6.23602 0
      vertex 5.3033 5.3033 0
    endloop
  endfacet
  facet normal 0 0 -1
    outer loop
      vertex 3.61121 5.40455 0
      vertex 4.16678 6.23602 0
      vertex 4.59619 4.59619 0
    endloop
  endfacet
  facet normal 0 0 -1
    outer loop
      vertex 3.61121 5.40455 0
      vertex 2.87012 6.9291 0
      vertex 4.16678 6.23602 0
    endloop
  endfacet
  facet normal 0 0 -1
    outer loop
      vertex 2.48744 6.00522 0
      vertex 2.87012 6.9291 0
      vertex 3.61121 5.40455 0
    endloop
  endfacet
  facet normal 0 0 -1
    outer loop
      vertex 2.48744 6.00522 0
      vertex 1.46318 7.35589 0
      vertex 2.87012 6.9291 0
    endloop
  endfacet
  facet normal 0 0 -1
    outer loop
      vertex 1.26809 6.3751 0
      vertex 1.46318 7.35589 0
      vertex 2.48744 6.00522 0
    endloop
  endfacet
  facet normal 0 0 -1
    outer loop
      vertex 0 6.5 0
      vertex 1.46318 7.35589 0
      vertex 1.26809 6.3751 0
    endloop
  endfacet
  facet normal 0 0 -1
    outer loop
      vertex 0 6.5 0
      vertex 0 7.5 0
      vertex 1.46318 7.35589 0
    endloop
  endfacet
  facet normal 0 0 -1
    outer loop
      vertex -1.26809 6.3751 0
      vertex 0 7.5 0
      vertex 0 6.5 0
    endloop
  endfacet
  facet normal 0 0 -1
    outer loop
      vertex -1.26809 6.3751 0
      vertex -1.46318 7.35589 0
      vertex 0 7.5 0
    endloop
  endfacet
  facet normal 0 0 -1
    outer loop
      vertex -2.48744 6.00522 0
      vertex -1.46318 7.35589 0
      vertex -1.26809 6.3751 0
    endloop
  endfacet
  facet normal 0 0 -1
    outer loop
      vertex -2.48744 6.00522 0
      vertex -2.87012 6.9291 0
      vertex -1.46318 7.35589 0
    endloop
  endfacet
  facet normal 0 0 -1
    outer loop
      vertex -3.61121 5.40455 0
      vertex -2.87012 6.9291 0
      vertex -2.48744 6.00522 0
    endloop
  endfacet
  facet normal 0 0 -1
    outer loop
      vertex -3.61121 5.40455 0
      vertex -4.16678 6.23602 0
      vertex -2.87012 6.9291 0
    endloop
  endfacet
  facet normal 0 0 -1
    outer loop
      vertex -4.59619 4.59619 0
      vertex -4.16678 6.23602 0
      vertex -3.61121 5.40455 0
    endloop
  endfacet
  facet normal 0 0 -1
    outer loop
      vertex -4.59619 4.59619 0
      vertex -5.3033 5.3033 0
      vertex -4.16678 6.23602 0
    endloop
  endfacet
  facet normal 0 0 -1
    outer loop
      vertex -5.40455 3.61121 0
      vertex -5.3033 5.3033 0
      vertex -4.59619 4.59619 0
    endloop
  endfacet
  facet normal 0 0 -1
    outer loop
      vertex -6.23602 4.16678 0
      vertex -5.40455 3.61121 0
      vertex -6.00522 2.48744 0
    endloop
  endfacet
  facet normal 0 0 -1
    outer loop
      vertex -5.40455 3.61121 0
      vertex -6.23602 4.16678 0
      vertex -5.3033 5.3033 0
    endloop
  endfacet
  facet normal 0 0 -1
    outer loop
      vertex -6.9291 2.87012 0
      vertex -6.00522 2.48744 0
      vertex -6.3751 1.26809 0
    endloop
  endfacet
  facet normal 0 0 -1
    outer loop
      vertex -7.35589 1.46318 0
      vertex -6.3751 1.26809 0
      vertex -6.5 0 0
    endloop
  endfacet
  facet normal -0 0 -1
    outer loop
      vertex -6.3751 -1.26809 0
      vertex -7.35589 -1.46318 0
      vertex -6.5 0 0
    endloop
  endfacet
  facet normal 0 0 -1
    outer loop
      vertex -6.00522 2.48744 0
      vertex -6.9291 2.87012 0
      vertex -6.23602 4.16678 0
    endloop
  endfacet
  facet normal 0 0 -1
    outer loop
      vertex -7.5 0 0
      vertex -6.5 0 0
      vertex -7.35589 -1.46318 0
    endloop
  endfacet
  facet normal 0 0 -1
    outer loop
      vertex -6.3751 1.26809 0
      vertex -7.35589 1.46318 0
      vertex -6.9291 2.87012 0
    endloop
  endfacet
  facet normal 0 0 -1
    outer loop
      vertex -6.5 0 0
      vertex -7.5 0 0
      vertex -7.35589 1.46318 0
    endloop
  endfacet
  facet normal -0.773011 -0.634393 0
    outer loop
      vertex -5.3033 -5.3033 0
      vertex -6.23602 -4.16678 10
      vertex -6.23602 -4.16678 0
    endloop
  endfacet
  facet normal -0.773011 -0.634393 0
    outer loop
      vertex -6.23602 -4.16678 10
      vertex -5.3033 -5.3033 0
      vertex -5.3033 -5.3033 10
    endloop
  endfacet
  facet normal 0.290285 0.95694 -0
    outer loop
      vertex 2.87012 6.9291 0
      vertex 1.46318 7.35589 10
      vertex 2.87012 6.9291 10
    endloop
  endfacet
  facet normal 0.290285 0.95694 0
    outer loop
      vertex 1.46318 7.35589 10
      vertex 2.87012 6.9291 0
      vertex 1.46318 7.35589 0
    endloop
  endfacet
  facet normal 0 0 1
    outer loop
      vertex 6.5 0 10
      vertex 7.5 0 10
      vertex 7.35589 1.46318 10
    endloop
  endfacet
  facet normal 0 0 1
    outer loop
      vertex 6.3751 1.26809 10
      vertex 7.35589 1.46318 10
      vertex 6.9291 2.87012 10
    endloop
  endfacet
  facet normal 0 0 1
    outer loop
      vertex 7.5 0 10
      vertex 6.5 0 10
      vertex 7.35589 -1.46318 10
    endloop
  endfacet
  facet normal -0 0 1
    outer loop
      vertex 6.3751 -1.26809 10
      vertex 7.35589 -1.46318 10
      vertex 6.5 0 10
    endloop
  endfacet
  facet normal 0 0 1
    outer loop
      vertex 7.35589 1.46318 10
      vertex 6.3751 1.26809 10
      vertex 6.5 0 10
    endloop
  endfacet
  facet normal 0 0 1
    outer loop
      vertex 6.00522 2.48744 10
      vertex 6.9291 2.87012 10
      vertex 6.23602 4.16678 10
    endloop
  endfacet
  facet normal 0 0 1
    outer loop
      vertex 6.9291 2.87012 10
      vertex 6.00522 2.48744 10
      vertex 6.3751 1.26809 10
    endloop
  endfacet
  facet normal 0 0 1
    outer loop
      vertex 6.23602 4.16678 10
      vertex 5.40455 3.61121 10
      vertex 6.00522 2.48744 10
    endloop
  endfacet
  facet normal 0 0 1
    outer loop
      vertex 5.3033 5.3033 10
      vertex 5.40455 3.61121 10
      vertex 6.23602 4.16678 10
    endloop
  endfacet
  facet normal 0 0 1
    outer loop
      vertex 5.3033 5.3033 10
      vertex 4.59619 4.59619 10
      vertex 5.40455 3.61121 10
    endloop
  endfacet
  facet normal 0 0 1
    outer loop
      vertex 4.16678 6.23602 10
      vertex 4.59619 4.59619 10
      vertex 5.3033 5.3033 10
    endloop
  endfacet
  facet normal 0 0 1
    outer loop
      vertex 4.16678 6.23602 10
      vertex 3.61121 5.40455 10
      vertex 4.59619 4.59619 10
    endloop
  endfacet
  facet normal 0 0 1
    outer loop
      vertex 2.87012 6.9291 10
      vertex 3.61121 5.40455 10
      vertex 4.16678 6.23602 10
    endloop
  endfacet
  facet normal 0 0 1
    outer loop
      vertex 2.87012 6.9291 10
      vertex 2.48744 6.00522 10
      vertex 3.61121 5.40455 10
    endloop
  endfacet
  facet normal 0 0 1
    outer loop
      vertex 1.46318 7.35589 10
      vertex 2.48744 6.00522 10
      vertex 2.87012 6.9291 10
    endloop
  endfacet
  facet normal 0 0 1
    outer loop
      vertex 1.46318 7.35589 10
      vertex 1.26809 6.3751 10
      vertex 2.48744 6.00522 10
    endloop
  endfacet
  facet normal 0 0 1
    outer loop
      vertex 0 7.5 10
      vertex 1.26809 6.3751 10
      vertex 1.46318 7.35589 10
    endloop
  endfacet
  facet normal 0 0 1
    outer loop
      vertex 0 7.5 10
      vertex 0 6.5 10
      vertex 1.26809 6.3751 10
    endloop
  endfacet
  facet normal 0 0 1
    outer loop
      vertex 0 7.5 10
      vertex -1.26809 6.3751 10
      vertex 0 6.5 10
    endloop
  endfacet
  facet normal -0 0 1
    outer loop
      vertex -1.46318 7.35589 10
      vertex -1.26809 6.3751 10
      vertex 0 7.5 10
    endloop
  endfacet
  facet normal 0 0 1
    outer loop
      vertex -1.46318 7.35589 10
      vertex -2.48744 6.00522 10
      vertex -1.26809 6.3751 10
    endloop
  endfacet
  facet normal -0 0 1
    outer loop
      vertex -2.87012 6.9291 10
      vertex -2.48744 6.00522 10
      vertex -1.46318 7.35589 10
    endloop
  endfacet
  facet normal 0 0 1
    outer loop
      vertex -2.87012 6.9291 10
      vertex -3.61121 5.40455 10
      vertex -2.48744 6.00522 10
    endloop
  endfacet
  facet normal -0 0 1
    outer loop
      vertex -4.16678 6.23602 10
      vertex -3.61121 5.40455 10
      vertex -2.87012 6.9291 10
    endloop
  endfacet
  facet normal 0 0 1
    outer loop
      vertex -4.16678 6.23602 10
      vertex -4.59619 4.59619 10
      vertex -3.61121 5.40455 10
    endloop
  endfacet
  facet normal -0 0 1
    outer loop
      vertex -5.3033 5.3033 10
      vertex -4.59619 4.59619 10
      vertex -4.16678 6.23602 10
    endloop
  endfacet
  facet normal 0 0 1
    outer loop
      vertex -5.3033 5.3033 10
      vertex -5.40455 3.61121 10
      vertex -4.59619 4.59619 10
    endloop
  endfacet
  facet normal -0 0 1
    outer loop
      vertex -6.23602 4.16678 10
      vertex -5.40455 3.61121 10
      vertex -5.3033 5.3033 10
    endloop
  endfacet
  facet normal 0 0 1
    outer loop
      vertex -5.40455 3.61121 10
      vertex -6.23602 4.16678 10
      vertex -6.00522 2.48744 10
    endloop
  endfacet
  facet normal -0 0 1
    outer loop
      vertex -6.9291 2.87012 10
      vertex -6.00522 2.48744 10
      vertex -6.23602 4.16678 10
    endloop
  endfacet
  facet normal 0 0 1
    outer loop
      vertex -6.00522 2.48744 10
      vertex -6.9291 2.87012 10
      vertex -6.3751 1.26809 10
    endloop
  endfacet
  facet normal -0 0 1
    outer loop
      vertex -7.35589 1.46318 10
      vertex -6.3751 1.26809 10
      vertex -6.9291 2.87012 10
    endloop
  endfacet
  facet normal 0 0 1
    outer loop
      vertex 7.35589 -1.46318 10
      vertex 6.3751 -1.26809 10
      vertex 6.9291 -2.87012 10
    endloop
  endfacet
  facet normal -0 0 1
    outer loop
      vertex 6.00522 -2.48744 10
      vertex 6.9291 -2.87012 10
      vertex 6.3751 -1.26809 10
    endloop
  endfacet
  facet normal 0 0 1
    outer loop
      vertex 6.9291 -2.87012 10
      vertex 6.00522 -2.48744 10
      vertex 6.23602 -4.16678 10
    endloop
  endfacet
  facet normal -0 0 1
    outer loop
      vertex 5.40455 -3.61121 10
      vertex 6.23602 -4.16678 10
      vertex 6.00522 -2.48744 10
    endloop
  endfacet
  facet normal 0 0 1
    outer loop
      vertex 5.40455 -3.61121 10
      vertex 5.3033 -5.3033 10
      vertex 6.23602 -4.16678 10
    endloop
  endfacet
  facet normal -0 0 1
    outer loop
      vertex 4.59619 -4.59619 10
      vertex 5.3033 -5.3033 10
      vertex 5.40455 -3.61121 10
    endloop
  endfacet
  facet normal 0 0 1
    outer loop
      vertex 4.59619 -4.59619 10
      vertex 4.16678 -6.23602 10
      vertex 5.3033 -5.3033 10
    endloop
  endfacet
  facet normal -0 0 1
    outer loop
      vertex 3.61121 -5.40455 10
      vertex 4.16678 -6.23602 10
      vertex 4.59619 -4.59619 10
    endloop
  endfacet
  facet normal 0 0 1
    outer loop
      vertex 3.61121 -5.40455 10
      vertex 2.87012 -6.9291 10
      vertex 4.16678 -6.23602 10
    endloop
  endfacet
  facet normal -0 0 1
    outer loop
      vertex 2.48744 -6.00522 10
      vertex 2.87012 -6.9291 10
      vertex 3.61121 -5.40455 10
    endloop
  endfacet
  facet normal 0 0 1
    outer loop
      vertex 2.48744 -6.00522 10
      vertex 1.46318 -7.35589 10
      vertex 2.87012 -6.9291 10
    endloop
  endfacet
  facet normal -0 0 1
    outer loop
      vertex 1.26809 -6.3751 10
      vertex 1.46318 -7.35589 10
      vertex 2.48744 -6.00522 10
    endloop
  endfacet
  facet normal -0 0 1
    outer loop
      vertex 0 -6.5 10
      vertex 1.46318 -7.35589 10
      vertex 1.26809 -6.3751 10
    endloop
  endfacet
  facet normal 0 0 1
    outer loop
      vertex 0 -6.5 10
      vertex 0 -7.5 10
      vertex 1.46318 -7.35589 10
    endloop
  endfacet
  facet normal 0 0 1
    outer loop
      vertex -1.26809 -6.3751 10
      vertex 0 -7.5 10
      vertex 0 -6.5 10
    endloop
  endfacet
  facet normal 0 0 1
    outer loop
      vertex -1.26809 -6.3751 10
      vertex -1.46318 -7.35589 10
      vertex 0 -7.5 10
    endloop
  endfacet
  facet normal 0 0 1
    outer loop
      vertex -2.48744 -6.00522 10
      vertex -1.46318 -7.35589 10
      vertex -1.26809 -6.3751 10
    endloop
  endfacet
  facet normal 0 0 1
    outer loop
      vertex -2.48744 -6.00522 10
      vertex -2.87012 -6.9291 10
      vertex -1.46318 -7.35589 10
    endloop
  endfacet
  facet normal 0 0 1
    outer loop
      vertex -3.61121 -5.40455 10
      vertex -2.87012 -6.9291 10
      vertex -2.48744 -6.00522 10
    endloop
  endfacet
  facet normal 0 0 1
    outer loop
      vertex -3.61121 -5.40455 10
      vertex -4.16678 -6.23602 10
      vertex -2.87012 -6.9291 10
    endloop
  endfacet
  facet normal 0 0 1
    outer loop
      vertex -4.59619 -4.59619 10
      vertex -4.16678 -6.23602 10
      vertex -3.61121 -5.40455 10
    endloop
  endfacet
  facet normal 0 0 1
    outer loop
      vertex -4.59619 -4.59619 10
      vertex -5.3033 -5.3033 10
      vertex -4.16678 -6.23602 10
    endloop
  endfacet
  facet normal 0 0 1
    outer loop
      vertex -5.40455 -3.61121 10
      vertex -5.3033 -5.3033 10
      vertex -4.59619 -4.59619 10
    endloop
  endfacet
  facet normal 0 0 1
    outer loop
      vertex -6.23602 -4.16678 10
      vertex -5.40455 -3.61121 10
      vertex -6.00522 -2.48744 10
    endloop
  endfacet
  facet normal 0 0 1
    outer loop
      vertex -5.40455 -3.61121 10
      vertex -6.23602 -4.16678 10
      vertex -5.3033 -5.3033 10
    endloop
  endfacet
  facet normal 0 0 1
    outer loop
      vertex -6.9291 -2.87012 10
      vertex -6.00522 -2.48744 10
      vertex -6.3751 -1.26809 10
    endloop
  endfacet
  facet normal 0 0 1
    outer loop
      vertex -7.35589 -1.46318 10
      vertex -6.3751 -1.26809 10
      vertex -6.5 0 10
    endloop
  endfacet
  facet normal 0 0 1
    outer loop
      vertex -6.3751 1.26809 10
      vertex -7.35589 1.46318 10
      vertex -6.5 0 10
    endloop
  endfacet
  facet normal 0 0 1
    outer loop
      vertex -6.00522 -2.48744 10
      vertex -6.9291 -2.87012 10
      vertex -6.23602 -4.16678 10
    endloop
  endfacet
  facet normal 0 0 1
    outer loop
      vertex -7.5 0 10
      vertex -6.5 0 10
      vertex -7.35589 1.46318 10
    endloop
  endfacet
  facet normal 0 0 1
    outer loop
      vertex -6.3751 -1.26809 10
      vertex -7.35589 -1.46318 10
      vertex -6.9291 -2.87012 10
    endloop
  endfacet
  facet normal 0 0 1
    outer loop
      vertex -6.5 0 10
      vertex -7.5 0 10
      vertex -7.35589 -1.46318 10
    endloop
  endfacet
  facet normal 0.773011 -0.634393 0
    outer loop
      vertex 5.3033 -5.3033 10
      vertex 6.23602 -4.16678 0
      vertex 6.23602 -4.16678 10
    endloop
  endfacet
  facet normal 0.773011 -0.634393 0
    outer loop
      vertex 6.23602 -4.16678 0
      vertex 5.3033 -5.3033 10
      vertex 5.3033 -5.3033 0
    endloop
  endfacet
  facet normal 0.881921 -0.471396 0
    outer loop
      vertex 6.23602 -4.16678 10
      vertex 6.9291 -2.87012 0
      vertex 6.9291 -2.87012 10
    endloop
  endfacet
  facet normal 0.881921 -0.471396 0
    outer loop
      vertex 6.9291 -2.87012 0
      vertex 6.23602 -4.16678 10
      vertex 6.23602 -4.16678 0
    endloop
  endfacet
  facet normal 0.634393 -0.773011 0
    outer loop
      vertex 4.16678 -6.23602 0
      vertex 5.3033 -5.3033 10
      vertex 4.16678 -6.23602 10
    endloop
  endfacet
  facet normal 0.634393 -0.773011 0
    outer loop
      vertex 5.3033 -5.3033 10
      vertex 4.16678 -6.23602 0
      vertex 5.3033 -5.3033 0
    endloop
  endfacet
  facet normal -0.471396 -0.881921 0
    outer loop
      vertex -4.16678 -6.23602 0
      vertex -2.87012 -6.9291 10
      vertex -4.16678 -6.23602 10
    endloop
  endfacet
  facet normal -0.471396 -0.881921 -0
    outer loop
      vertex -2.87012 -6.9291 10
      vertex -4.16678 -6.23602 0
      vertex -2.87012 -6.9291 0
    endloop
  endfacet
  facet normal -0.95694 -0.290285 0
    outer loop
      vertex -6.9291 -2.87012 0
      vertex -7.35589 -1.46318 10
      vertex -7.35589 -1.46318 0
    endloop
  endfacet
  facet normal -0.95694 -0.290285 0
    outer loop
      vertex -7.35589 -1.46318 10
      vertex -6.9291 -2.87012 0
      vertex -6.9291 -2.87012 10
    endloop
  endfacet
  facet normal -0.471397 -0.881921 0
    outer loop
      vertex 2.48744 6.00522 0
      vertex 3.61121 5.40455 10
      vertex 2.48744 6.00522 10
    endloop
  endfacet
  facet normal -0.471397 -0.881921 -0
    outer loop
      vertex 3.61121 5.40455 10
      vertex 2.48744 6.00522 0
      vertex 3.61121 5.40455 0
    endloop
  endfacet
  facet normal 0.95694 -0.290285 0
    outer loop
      vertex -6.3751 1.26809 10
      vertex -6.00522 2.48744 0
      vertex -6.00522 2.48744 10
    endloop
  endfacet
  facet normal 0.95694 -0.290285 0
    outer loop
      vertex -6.00522 2.48744 0
      vertex -6.3751 1.26809 10
      vertex -6.3751 1.26809 0
    endloop
  endfacet
  facet normal -0.995185 0.0980175 0
    outer loop
      vertex 6.3751 -1.26809 0
      vertex 6.5 0 10
      vertex 6.5 0 0
    endloop
  endfacet
  facet normal -0.995185 0.0980175 0
    outer loop
      vertex 6.5 0 10
      vertex 6.3751 -1.26809 0
      vertex 6.3751 -1.26809 10
    endloop
  endfacet
  facet normal 0.290285 0.95694 -0
    outer loop
      vertex -1.26809 -6.3751 0
      vertex -2.48744 -6.00522 10
      vertex -1.26809 -6.3751 10
    endloop
  endfacet
  facet normal 0.290285 0.95694 0
    outer loop
      vertex -2.48744 -6.00522 10
      vertex -1.26809 -6.3751 0
      vertex -2.48744 -6.00522 0
    endloop
  endfacet
  facet normal 0.290285 -0.95694 0
    outer loop
      vertex -2.48744 6.00522 0
      vertex -1.26809 6.3751 10
      vertex -2.48744 6.00522 10
    endloop
  endfacet
  facet normal 0.290285 -0.95694 0
    outer loop
      vertex -1.26809 6.3751 10
      vertex -2.48744 6.00522 0
      vertex -1.26809 6.3751 0
    endloop
  endfacet
  facet normal 0.881921 -0.471397 0
    outer loop
      vertex -6.00522 2.48744 10
      vertex -5.40455 3.61121 0
      vertex -5.40455 3.61121 10
    endloop
  endfacet
  facet normal 0.881921 -0.471397 0
    outer loop
      vertex -5.40455 3.61121 0
      vertex -6.00522 2.48744 10
      vertex -6.00522 2.48744 0
    endloop
  endfacet
  facet normal -0.881921 -0.471397 0
    outer loop
      vertex 6.00522 2.48744 0
      vertex 5.40455 3.61121 10
      vertex 5.40455 3.61121 0
    endloop
  endfacet
  facet normal -0.881921 -0.471397 0
    outer loop
      vertex 5.40455 3.61121 10
      vertex 6.00522 2.48744 0
      vertex 6.00522 2.48744 10
    endloop
  endfacet
  facet normal -0.77301 -0.634394 0
    outer loop
      vertex 5.40455 3.61121 0
      vertex 4.59619 4.59619 10
      vertex 4.59619 4.59619 0
    endloop
  endfacet
  facet normal -0.77301 -0.634394 0
    outer loop
      vertex 4.59619 4.59619 10
      vertex 5.40455 3.61121 0
      vertex 5.40455 3.61121 10
    endloop
  endfacet
  facet normal -0.634394 -0.77301 0
    outer loop
      vertex 3.61121 5.40455 0
      vertex 4.59619 4.59619 10
      vertex 3.61121 5.40455 10
    endloop
  endfacet
  facet normal -0.634394 -0.77301 -0
    outer loop
      vertex 4.59619 4.59619 10
      vertex 3.61121 5.40455 0
      vertex 4.59619 4.59619 0
    endloop
  endfacet
  facet normal -0.0980175 -0.995185 0
    outer loop
      vertex 0 6.5 0
      vertex 1.26809 6.3751 10
      vertex 0 6.5 10
    endloop
  endfacet
  facet normal -0.0980175 -0.995185 -0
    outer loop
      vertex 1.26809 6.3751 10
      vertex 0 6.5 0
      vertex 1.26809 6.3751 0
    endloop
  endfacet
  facet normal 0.995185 -0.0980175 0
    outer loop
      vertex -6.5 0 10
      vertex -6.3751 1.26809 0
      vertex -6.3751 1.26809 10
    endloop
  endfacet
  facet normal 0.995185 -0.0980175 0
    outer loop
      vertex -6.3751 1.26809 0
      vertex -6.5 0 10
      vertex -6.5 0 0
    endloop
  endfacet
  facet normal 0.77301 -0.634394 0
    outer loop
      vertex -5.40455 3.61121 10
      vertex -4.59619 4.59619 0
      vertex -4.59619 4.59619 10
    endloop
  endfacet
  facet normal 0.77301 -0.634394 0
    outer loop
      vertex -4.59619 4.59619 0
      vertex -5.40455 3.61121 10
      vertex -5.40455 3.61121 0
    endloop
  endfacet
  facet normal 0.471397 -0.881921 0
    outer loop
      vertex -3.61121 5.40455 0
      vertex -2.48744 6.00522 10
      vertex -3.61121 5.40455 10
    endloop
  endfacet
  facet normal 0.471397 -0.881921 0
    outer loop
      vertex -2.48744 6.00522 10
      vertex -3.61121 5.40455 0
      vertex -2.48744 6.00522 0
    endloop
  endfacet
  facet normal 0.0980175 -0.995185 0
    outer loop
      vertex -1.26809 6.3751 0
      vertex 0 6.5 10
      vertex -1.26809 6.3751 10
    endloop
  endfacet
  facet normal 0.0980175 -0.995185 0
    outer loop
      vertex 0 6.5 10
      vertex -1.26809 6.3751 0
      vertex 0 6.5 0
    endloop
  endfacet
  facet normal 0.634394 -0.77301 0
    outer loop
      vertex -4.59619 4.59619 0
      vertex -3.61121 5.40455 10
      vertex -4.59619 4.59619 10
    endloop
  endfacet
  facet normal 0.634394 -0.77301 0
    outer loop
      vertex -3.61121 5.40455 10
      vertex -4.59619 4.59619 0
      vertex -3.61121 5.40455 0
    endloop
  endfacet
  facet normal -0.995185 -0.0980175 0
    outer loop
      vertex 6.5 0 0
      vertex 6.3751 1.26809 10
      vertex 6.3751 1.26809 0
    endloop
  endfacet
  facet normal -0.995185 -0.0980175 0
    outer loop
      vertex 6.3751 1.26809 10
      vertex 6.5 0 0
      vertex 6.5 0 10
    endloop
  endfacet
  facet normal -0.881921 0.471397 0
    outer loop
      vertex 5.40455 -3.61121 0
      vertex 6.00522 -2.48744 10
      vertex 6.00522 -2.48744 0
    endloop
  endfacet
  facet normal -0.881921 0.471397 0
    outer loop
      vertex 6.00522 -2.48744 10
      vertex 5.40455 -3.61121 0
      vertex 5.40455 -3.61121 10
    endloop
  endfacet
  facet normal -0.95694 0.290285 0
    outer loop
      vertex 6.00522 -2.48744 0
      vertex 6.3751 -1.26809 10
      vertex 6.3751 -1.26809 0
    endloop
  endfacet
  facet normal -0.95694 0.290285 0
    outer loop
      vertex 6.3751 -1.26809 10
      vertex 6.00522 -2.48744 0
      vertex 6.00522 -2.48744 10
    endloop
  endfacet
  facet normal -0.471397 0.881921 0
    outer loop
      vertex 3.61121 -5.40455 0
      vertex 2.48744 -6.00522 10
      vertex 3.61121 -5.40455 10
    endloop
  endfacet
  facet normal -0.471397 0.881921 0
    outer loop
      vertex 2.48744 -6.00522 10
      vertex 3.61121 -5.40455 0
      vertex 2.48744 -6.00522 0
    endloop
  endfacet
  facet normal -0.634394 0.77301 0
    outer loop
      vertex 4.59619 -4.59619 0
      vertex 3.61121 -5.40455 10
      vertex 4.59619 -4.59619 10
    endloop
  endfacet
  facet normal -0.634394 0.77301 0
    outer loop
      vertex 3.61121 -5.40455 10
      vertex 4.59619 -4.59619 0
      vertex 3.61121 -5.40455 0
    endloop
  endfacet
  facet normal 0.0980175 0.995185 -0
    outer loop
      vertex 0 -6.5 0
      vertex -1.26809 -6.3751 10
      vertex 0 -6.5 10
    endloop
  endfacet
  facet normal 0.0980175 0.995185 0
    outer loop
      vertex -1.26809 -6.3751 10
      vertex 0 -6.5 0
      vertex -1.26809 -6.3751 0
    endloop
  endfacet
  facet normal 0.634394 0.77301 -0
    outer loop
      vertex -3.61121 -5.40455 0
      vertex -4.59619 -4.59619 10
      vertex -3.61121 -5.40455 10
    endloop
  endfacet
  facet normal 0.634394 0.77301 0
    outer loop
      vertex -4.59619 -4.59619 10
      vertex -3.61121 -5.40455 0
      vertex -4.59619 -4.59619 0
    endloop
  endfacet
  facet normal 0.881921 0.471397 0
    outer loop
      vertex -5.40455 -3.61121 10
      vertex -6.00522 -2.48744 0
      vertex -6.00522 -2.48744 10
    endloop
  endfacet
  facet normal 0.881921 0.471397 0
    outer loop
      vertex -6.00522 -2.48744 0
      vertex -5.40455 -3.61121 10
      vertex -5.40455 -3.61121 0
    endloop
  endfacet
  facet normal 0.995185 0.0980175 0
    outer loop
      vertex -6.3751 -1.26809 10
      vertex -6.5 0 0
      vertex -6.5 0 10
    endloop
  endfacet
  facet normal 0.995185 0.0980175 0
    outer loop
      vertex -6.5 0 0
      vertex -6.3751 -1.26809 10
      vertex -6.3751 -1.26809 0
    endloop
  endfacet
  facet normal -0.95694 -0.290285 0
    outer loop
      vertex 6.3751 1.26809 0
      vertex 6.00522 2.48744 10
      vertex 6.00522 2.48744 0
    endloop
  endfacet
  facet normal -0.95694 -0.290285 0
    outer loop
      vertex 6.00522 2.48744 10
      vertex 6.3751 1.26809 0
      vertex 6.3751 1.26809 10
    endloop
  endfacet
  facet normal -0.290285 -0.95694 0
    outer loop
      vertex 1.26809 6.3751 0
      vertex 2.48744 6.00522 10
      vertex 1.26809 6.3751 10
    endloop
  endfacet
  facet normal -0.290285 -0.95694 -0
    outer loop
      vertex 2.48744 6.00522 10
      vertex 1.26809 6.3751 0
      vertex 2.48744 6.00522 0
    endloop
  endfacet
  facet normal -0.0980175 0.995185 0
    outer loop
      vertex 1.26809 -6.3751 0
      vertex 0 -6.5 10
      vertex 1.26809 -6.3751 10
    endloop
  endfacet
  facet normal -0.0980175 0.995185 0
    outer loop
      vertex 0 -6.5 10
      vertex 1.26809 -6.3751 0
      vertex 0 -6.5 0
    endloop
  endfacet
  facet normal -0.77301 0.634394 0
    outer loop
      vertex 4.59619 -4.59619 0
      vertex 5.40455 -3.61121 10
      vertex 5.40455 -3.61121 0
    endloop
  endfacet
  facet normal -0.77301 0.634394 0
    outer loop
      vertex 5.40455 -3.61121 10
      vertex 4.59619 -4.59619 0
      vertex 4.59619 -4.59619 10
    endloop
  endfacet
  facet normal 0.471397 0.881921 -0
    outer loop
      vertex -2.48744 -6.00522 0
      vertex -3.61121 -5.40455 10
      vertex -2.48744 -6.00522 10
    endloop
  endfacet
  facet normal 0.471397 0.881921 0
    outer loop
      vertex -3.61121 -5.40455 10
      vertex -2.48744 -6.00522 0
      vertex -3.61121 -5.40455 0
    endloop
  endfacet
  facet normal 0.95694 0.290285 0
    outer loop
      vertex -6.00522 -2.48744 10
      vertex -6.3751 -1.26809 0
      vertex -6.3751 -1.26809 10
    endloop
  endfacet
  facet normal 0.95694 0.290285 0
    outer loop
      vertex -6.3751 -1.26809 0
      vertex -6.00522 -2.48744 10
      vertex -6.00522 -2.48744 0
    endloop
  endfacet
  facet normal 0.77301 0.634394 0
    outer loop
      vertex -4.59619 -4.59619 10
      vertex -5.40455 -3.61121 0
      vertex -5.40455 -3.61121 10
    endloop
  endfacet
  facet normal 0.77301 0.634394 0
    outer loop
      vertex -5.40455 -3.61121 0
      vertex -4.59619 -4.59619 10
      vertex -4.59619 -4.59619 0
    endloop
  endfacet
  facet normal -0.290285 0.95694 0
    outer loop
      vertex 2.48744 -6.00522 0
      vertex 1.26809 -6.3751 10
      vertex 2.48744 -6.00522 10
    endloop
  endfacet
  facet normal -0.290285 0.95694 0
    outer loop
      vertex 1.26809 -6.3751 10
      vertex 2.48744 -6.00522 0
      vertex 1.26809 -6.3751 0
    endloop
  endfacet
endsolid OpenSCAD_Model
