solid OpenSCAD_Model
  facet normal -0.99294 0.118618 0
    outer loop
      vertex -12 0 0
      vertex -12 0 15
      vertex -11.7378 2.1951 0
    endloop
  endfacet
  facet normal -0.99294 0.118618 0
    outer loop
      vertex -11.7378 2.1951 0
      vertex -12 0 15
      vertex -11.7378 2.1951 15
    endloop
  endfacet
  facet normal -0.99294 -0.118618 0
    outer loop
      vertex -12 0 0
      vertex -11.7378 -2.1951 0
      vertex -12 0 15
    endloop
  endfacet
  facet normal -0.99294 -0.118618 0
    outer loop
      vertex -12 0 15
      vertex -11.7378 -2.1951 0
      vertex -11.7378 -2.1951 15
    endloop
  endfacet
  facet normal 0 0 -1
    outer loop
      vertex -12 0 0
      vertex -11.7378 2.1951 0
      vertex -11.7378 -2.1951 0
    endloop
  endfacet
  facet normal 0 0 -1
    outer loop
      vertex -11.7378 -2.1951 0
      vertex -11.7378 2.1951 0
      vertex -11.4419 2.99618 0
    endloop
  endfacet
  facet normal 0 0 -1
    outer loop
      vertex -11.7378 -2.1951 0
      vertex -11.4419 2.99618 0
      vertex -9.29469 2.99618 0
    endloop
  endfacet
  facet normal 0 0 -1
    outer loop
      vertex -11.7378 -2.1951 0
      vertex -9.29469 2.99618 0
      vertex -9.43872 2.61635 0
    endloop
  endfacet
  facet normal 0 0 -1
    outer loop
      vertex -11.7378 -2.1951 0
      vertex -9.43872 2.61635 0
      vertex -7.99018 2.61635 0
    endloop
  endfacet
  facet normal 0 0 -1
    outer loop
      vertex -11.7378 -2.1951 0
      vertex -7.99018 2.61635 0
      vertex -8.31425 1.67246 0
    endloop
  endfacet
  facet normal 0 0 -1
    outer loop
      vertex -11.7378 -2.1951 0
      vertex -8.31425 1.67246 0
      vertex -8.5 0 0
    endloop
  endfacet
  facet normal 0 0 -1
    outer loop
      vertex -8.5 0 0
      vertex -8.31425 -1.67246 0
      vertex -11.7378 -2.1951 0
    endloop
  endfacet
  facet normal 0 0 -1
    outer loop
      vertex -8.31425 -1.67246 0
      vertex -7.99018 -2.61635 0
      vertex -11.7378 -2.1951 0
    endloop
  endfacet
  facet normal 0 0 -1
    outer loop
      vertex -11.7378 -2.1951 0
      vertex -7.99018 -2.61635 0
      vertex -9.43872 -2.61635 0
    endloop
  endfacet
  facet normal 0 0 -1
    outer loop
      vertex -11.7378 -2.1951 0
      vertex -9.43872 -2.61635 0
      vertex -9.29469 -2.99618 0
    endloop
  endfacet
  facet normal 0 0 -1
    outer loop
      vertex -11.7378 -2.1951 0
      vertex -9.29469 -2.99618 0
      vertex -11.4419 -2.99618 0
    endloop
  endfacet
  facet normal -0.938075 0.346433 0
    outer loop
      vertex -11.7378 2.1951 0
      vertex -11.7378 2.1951 15
      vertex -11.5357 2.74234 2.90143
    endloop
  endfacet
  facet normal -0.938075 0.346433 0
    outer loop
      vertex -11.7378 2.1951 0
      vertex -11.5357 2.74234 2.90143
      vertex -11.4419 2.99618 0
    endloop
  endfacet
  facet normal -0.938075 0.346433 0
    outer loop
      vertex -11.5357 2.74234 2.90143
      vertex -11.7378 2.1951 15
      vertex -10.9625 4.29426 15
    endloop
  endfacet
  facet normal -0.938075 0.346433 0
    outer loop
      vertex -11.5357 2.74234 2.90143
      vertex -10.9625 4.29426 15
      vertex -10.9625 4.29426 3.0372
    endloop
  endfacet
  facet normal 0 0 1
    outer loop
      vertex -11.7378 2.1951 15
      vertex -12 0 15
      vertex -11.7378 -2.1951 15
    endloop
  endfacet
  facet normal 0 0 1
    outer loop
      vertex -9.7082 -6.20574 15
      vertex -11.7378 2.1951 15
      vertex -10.9625 -4.29426 15
    endloop
  endfacet
  facet normal 0 0 1
    outer loop
      vertex -10.9625 -4.29426 15
      vertex -11.7378 2.1951 15
      vertex -11.7378 -2.1951 15
    endloop
  endfacet
  facet normal 0 0 1
    outer loop
      vertex -8.02957 -7.846 15
      vertex -11.7378 2.1951 15
      vertex -9.7082 -6.20574 15
    endloop
  endfacet
  facet normal 0 0 1
    outer loop
      vertex -9.11262 -3.47631 15
      vertex -11.7378 2.1951 15
      vertex -8.02957 -7.846 15
    endloop
  endfacet
  facet normal 0 0 1
    outer loop
      vertex -9.78148 -1.77698 15
      vertex -10 0 15
      vertex -11.7378 2.1951 15
    endloop
  endfacet
  facet normal 0 0 1
    outer loop
      vertex 1.04267 -8.5 15
      vertex -1.04267 -8.5 15
      vertex 1.25434 -10.5 15
    endloop
  endfacet
  facet normal 0 0 1
    outer loop
      vertex 3.08244 -8.12851 15
      vertex 1.04267 -8.5 15
      vertex 3.7082 -10.0411 15
    endloop
  endfacet
  facet normal 0 0 1
    outer loop
      vertex 4.9875 -7.40176 15
      vertex 3.08244 -8.12851 15
      vertex 6 -9.14335 15
    endloop
  endfacet
  facet normal 0 0 1
    outer loop
      vertex 6.67458 -6.35153 15
      vertex 4.9875 -7.40176 15
      vertex 8.02957 -7.846 15
    endloop
  endfacet
  facet normal 0 0 1
    outer loop
      vertex 8.06994 -5.02369 15
      vertex 6.67458 -6.35153 15
      vertex 9.7082 -6.20574 15
    endloop
  endfacet
  facet normal 0 0 1
    outer loop
      vertex 9.11262 -3.47631 15
      vertex 8.06994 -5.02369 15
      vertex 10.9625 -4.29426 15
    endloop
  endfacet
  facet normal 0 0 1
    outer loop
      vertex 9.78148 -1.77698 15
      vertex 9.68171 -2.03942 15
      vertex 11.7378 -2.1951 15
    endloop
  endfacet
  facet normal 0 0 1
    outer loop
      vertex 9.68171 2.03942 15
      vertex 9.78148 1.77698 15
      vertex 12 0 15
    endloop
  endfacet
  facet normal 0 0 1
    outer loop
      vertex 9.11262 3.47631 15
      vertex 9.6575 2.03942 15
      vertex 11.7378 2.1951 15
    endloop
  endfacet
  facet normal 0 0 1
    outer loop
      vertex 8.06994 5.02369 15
      vertex 9.11262 3.47631 15
      vertex 10.9625 4.29426 15
    endloop
  endfacet
  facet normal 0 0 1
    outer loop
      vertex 6.67458 6.35153 15
      vertex 8.06994 5.02369 15
      vertex 9.7082 6.20574 15
    endloop
  endfacet
  facet normal 0 0 1
    outer loop
      vertex 4.9875 7.40176 15
      vertex 6.67458 6.35153 15
      vertex 8.02957 7.846 15
    endloop
  endfacet
  facet normal 0 0 1
    outer loop
      vertex 6 9.14335 15
      vertex 4.5 7.58774 15
      vertex 8.02957 7.846 15
    endloop
  endfacet
  facet normal 0 0 1
    outer loop
      vertex 4.5 7.58774 15
      vertex 4.9875 7.40176 15
      vertex 8.02957 7.846 15
    endloop
  endfacet
  facet normal 0 0 1
    outer loop
      vertex 8.02957 7.846 15
      vertex 6.67458 6.35153 15
      vertex 9.7082 6.20574 15
    endloop
  endfacet
  facet normal 0 0 1
    outer loop
      vertex 9.7082 6.20574 15
      vertex 8.06994 5.02369 15
      vertex 10.9625 4.29426 15
    endloop
  endfacet
  facet normal 0 0 1
    outer loop
      vertex 10.9625 4.29426 15
      vertex 9.11262 3.47631 15
      vertex 11.7378 2.1951 15
    endloop
  endfacet
  facet normal 0 0 1
    outer loop
      vertex 11.7378 2.1951 15
      vertex 9.68171 2.03942 15
      vertex 12 0 15
    endloop
  endfacet
  facet normal 0 0 1
    outer loop
      vertex 11.7378 2.1951 15
      vertex 9.6575 2.03942 15
      vertex 9.68171 2.03942 15
    endloop
  endfacet
  facet normal 0 0 1
    outer loop
      vertex 12 0 15
      vertex 10 0 15
      vertex 11.7378 -2.1951 15
    endloop
  endfacet
  facet normal 0 0 1
    outer loop
      vertex 10 0 15
      vertex 9.78148 -1.77698 15
      vertex 11.7378 -2.1951 15
    endloop
  endfacet
  facet normal 0 0 1
    outer loop
      vertex 11.7378 -2.1951 15
      vertex 9.68171 -2.03942 15
      vertex 10.9625 -4.29426 15
    endloop
  endfacet
  facet normal 0 0 1
    outer loop
      vertex 9.68171 -2.03942 15
      vertex 9.6575 -2.03942 15
      vertex 10.9625 -4.29426 15
    endloop
  endfacet
  facet normal 0 0 1
    outer loop
      vertex 9.6575 -2.03942 15
      vertex 9.11262 -3.47631 15
      vertex 10.9625 -4.29426 15
    endloop
  endfacet
  facet normal 0 0 1
    outer loop
      vertex 10.9625 -4.29426 15
      vertex 8.06994 -5.02369 15
      vertex 9.7082 -6.20574 15
    endloop
  endfacet
  facet normal 0 0 1
    outer loop
      vertex 9.7082 -6.20574 15
      vertex 6.67458 -6.35153 15
      vertex 8.02957 -7.846 15
    endloop
  endfacet
  facet normal 0 0 1
    outer loop
      vertex 8.02957 -7.846 15
      vertex 4.9875 -7.40176 15
      vertex 6 -9.14335 15
    endloop
  endfacet
  facet normal 0 0 1
    outer loop
      vertex -9.78148 1.77698 15
      vertex -9.68171 2.03942 15
      vertex -11.7378 2.1951 15
    endloop
  endfacet
  facet normal 0 0 1
    outer loop
      vertex 6 -9.14335 15
      vertex 3.08244 -8.12851 15
      vertex 3.7082 -10.0411 15
    endloop
  endfacet
  facet normal 0 0 1
    outer loop
      vertex 3.7082 -10.0411 15
      vertex 1.04267 -8.5 15
      vertex 1.25434 -10.5 15
    endloop
  endfacet
  facet normal 0 0 1
    outer loop
      vertex 1.25434 -10.5 15
      vertex -1.04267 -8.5 15
      vertex -1.25434 -10.5 15
    endloop
  endfacet
  facet normal 0 0 1
    outer loop
      vertex -9.6575 2.03942 15
      vertex -9.11262 3.47631 15
      vertex -11.7378 2.1951 15
    endloop
  endfacet
  facet normal 0 0 1
    outer loop
      vertex -1.04267 -8.5 15
      vertex -3.08244 -8.12851 15
      vertex -1.25434 -10.5 15
    endloop
  endfacet
  facet normal 0 0 1
    outer loop
      vertex -1.25434 -10.5 15
      vertex -4.9875 -7.40176 15
      vertex -3.7082 -10.0411 15
    endloop
  endfacet
  facet normal 0 0 1
    outer loop
      vertex -3.7082 -10.0411 15
      vertex -6.67458 -6.35153 15
      vertex -6 -9.14335 15
    endloop
  endfacet
  facet normal 0 0 1
    outer loop
      vertex -6.67458 -6.35153 15
      vertex -8.06994 -5.02369 15
      vertex -6 -9.14335 15
    endloop
  endfacet
  facet normal 0 0 1
    outer loop
      vertex -6 -9.14335 15
      vertex -9.11262 -3.47631 15
      vertex -8.02957 -7.846 15
    endloop
  endfacet
  facet normal 0 0 1
    outer loop
      vertex -9.68171 -2.03942 15
      vertex -11.7378 2.1951 15
      vertex -9.11262 -3.47631 15
    endloop
  endfacet
  facet normal 0 0 1
    outer loop
      vertex -9.6575 -2.03942 15
      vertex -9.68171 -2.03942 15
      vertex -9.11262 -3.47631 15
    endloop
  endfacet
  facet normal 0 0 1
    outer loop
      vertex -9.68171 -2.03942 15
      vertex -9.78148 -1.77698 15
      vertex -11.7378 2.1951 15
    endloop
  endfacet
  facet normal 0 0 1
    outer loop
      vertex -4.9875 -7.40176 15
      vertex -6.67458 -6.35153 15
      vertex -3.7082 -10.0411 15
    endloop
  endfacet
  facet normal 0 0 1
    outer loop
      vertex -3.08244 -8.12851 15
      vertex -4.9875 -7.40176 15
      vertex -1.25434 -10.5 15
    endloop
  endfacet
  facet normal 0 0 1
    outer loop
      vertex -9.6575 2.03942 15
      vertex -11.7378 2.1951 15
      vertex -9.68171 2.03942 15
    endloop
  endfacet
  facet normal 0 0 1
    outer loop
      vertex -8.06994 5.02369 15
      vertex -11.7378 2.1951 15
      vertex -9.11262 3.47631 15
    endloop
  endfacet
  facet normal 0 0 1
    outer loop
      vertex -6.67458 6.35153 15
      vertex -11.7378 2.1951 15
      vertex -8.06994 5.02369 15
    endloop
  endfacet
  facet normal 0 0 1
    outer loop
      vertex -4.5 9.73094 15
      vertex -11.7378 2.1951 15
      vertex -6.67458 6.35153 15
    endloop
  endfacet
  facet normal 0 0 1
    outer loop
      vertex -4.5 9.73094 15
      vertex -6.67458 6.35153 15
      vertex -4.9875 7.40176 15
    endloop
  endfacet
  facet normal 0 0 1
    outer loop
      vertex -4.5 9.73094 15
      vertex -4.9875 7.40176 15
      vertex -4.5 7.58774 15
    endloop
  endfacet
  facet normal 0 0 1
    outer loop
      vertex -6 9.14335 15
      vertex -11.7378 2.1951 15
      vertex -4.5 9.73094 15
    endloop
  endfacet
  facet normal 0 0 1
    outer loop
      vertex -8.02957 7.846 15
      vertex -11.7378 2.1951 15
      vertex -6 9.14335 15
    endloop
  endfacet
  facet normal 0 0 1
    outer loop
      vertex -9.7082 6.20574 15
      vertex -11.7378 2.1951 15
      vertex -8.02957 7.846 15
    endloop
  endfacet
  facet normal 0 0 1
    outer loop
      vertex -10.9625 4.29426 15
      vertex -11.7378 2.1951 15
      vertex -9.7082 6.20574 15
    endloop
  endfacet
  facet normal 0 0 1
    outer loop
      vertex 4.5 9.73094 15
      vertex 4.5 7.58774 15
      vertex 6 9.14335 15
    endloop
  endfacet
  facet normal 0 0 1
    outer loop
      vertex 9.78148 1.77698 15
      vertex 10 0 15
      vertex 12 0 15
    endloop
  endfacet
  facet normal 0 0 1
    outer loop
      vertex -8.06994 -5.02369 15
      vertex -9.11262 -3.47631 15
      vertex -6 -9.14335 15
    endloop
  endfacet
  facet normal 0 0 1
    outer loop
      vertex -10 0 15
      vertex -9.78148 1.77698 15
      vertex -11.7378 2.1951 15
    endloop
  endfacet
  facet normal -0.938075 -0.346433 0
    outer loop
      vertex -11.7378 -2.1951 0
      vertex -11.5357 -2.74234 2.90143
      vertex -11.7378 -2.1951 15
    endloop
  endfacet
  facet normal -0.938075 -0.346433 0
    outer loop
      vertex -11.7378 -2.1951 0
      vertex -11.4419 -2.99618 0
      vertex -11.5357 -2.74234 2.90143
    endloop
  endfacet
  facet normal -0.938075 -0.346433 0
    outer loop
      vertex -11.7378 -2.1951 15
      vertex -10.9625 -4.29426 3.0372
      vertex -10.9625 -4.29426 15
    endloop
  endfacet
  facet normal -0.938075 -0.346433 0
    outer loop
      vertex -10.9625 -4.29426 3.0372
      vertex -11.7378 -2.1951 15
      vertex -11.5357 -2.74234 2.90143
    endloop
  endfacet
  facet normal 0 -0.996195 0.0871557
    outer loop
      vertex -9.39095 -2.74234 2.90143
      vertex -11.5357 -2.74234 2.90143
      vertex -11.4419 -2.99618 0
    endloop
  endfacet
  facet normal 0 -0.996195 0.0871557
    outer loop
      vertex -9.29469 -2.99618 0
      vertex -9.39095 -2.74234 2.90143
      vertex -11.4419 -2.99618 0
    endloop
  endfacet
  facet normal 0.935027 0.354575 0
    outer loop
      vertex -9.11262 -3.47631 15
      vertex -9.11262 -3.47631 2.96564
      vertex -9.39095 -2.74234 2.90143
    endloop
  endfacet
  facet normal 0.935027 0.354575 0
    outer loop
      vertex -9.6575 -2.03942 15
      vertex -9.11262 -3.47631 15
      vertex -9.39095 -2.74234 2.90143
    endloop
  endfacet
  facet normal 0.935027 0.354575 0
    outer loop
      vertex -9.29469 -2.99618 0
      vertex -9.43872 -2.61635 0
      vertex -9.39095 -2.74234 2.90143
    endloop
  endfacet
  facet normal 0.935027 0.354575 0
    outer loop
      vertex -9.43872 -2.61635 0
      vertex -9.6575 -2.03942 15
      vertex -9.39095 -2.74234 2.90143
    endloop
  endfacet
  facet normal 0 -0.999261 0.0384331
    outer loop
      vertex -8.20147 -2.00096 16
      vertex -9.69633 -2.00096 16
      vertex -9.68171 -2.03942 15
    endloop
  endfacet
  facet normal 0 -0.999261 0.0384331
    outer loop
      vertex -9.43872 -2.61635 0
      vertex -8.20147 -2.00096 16
      vertex -9.6575 -2.03942 15
    endloop
  endfacet
  facet normal 0 -0.999261 0.0384331
    outer loop
      vertex -9.6575 -2.03942 15
      vertex -8.20147 -2.00096 16
      vertex -9.68171 -2.03942 15
    endloop
  endfacet
  facet normal 0 -0.999261 0.0384331
    outer loop
      vertex -7.99018 -2.61635 0
      vertex -8.20147 -2.00096 16
      vertex -9.43872 -2.61635 0
    endloop
  endfacet
  facet normal 0.945807 0.32473 0
    outer loop
      vertex -8.31425 -1.67246 16
      vertex -8.20147 -2.00096 16
      vertex -7.99018 -2.61635 0
    endloop
  endfacet
  facet normal 0.945807 0.32473 0
    outer loop
      vertex -8.31425 -1.67246 0
      vertex -8.31425 -1.67246 16
      vertex -7.99018 -2.61635 0
    endloop
  endfacet
  facet normal 0.993889 0.110383 0
    outer loop
      vertex -8.5 0 16
      vertex -8.31425 -1.67246 16
      vertex -8.31425 -1.67246 0
    endloop
  endfacet
  facet normal 0.993889 0.110383 0
    outer loop
      vertex -8.5 0 0
      vertex -8.5 0 16
      vertex -8.31425 -1.67246 0
    endloop
  endfacet
  facet normal 0.993889 -0.110383 0
    outer loop
      vertex -8.31425 1.67246 0
      vertex -8.31425 1.67246 16
      vertex -8.5 0 16
    endloop
  endfacet
  facet normal 0.993889 -0.110383 0
    outer loop
      vertex -8.5 0 0
      vertex -8.31425 1.67246 0
      vertex -8.5 0 16
    endloop
  endfacet
  facet normal 0.945807 -0.32473 0
    outer loop
      vertex -7.99018 2.61635 0
      vertex -8.20147 2.00096 16
      vertex -8.31425 1.67246 16
    endloop
  endfacet
  facet normal 0.945807 -0.32473 0
    outer loop
      vertex -8.31425 1.67246 0
      vertex -7.99018 2.61635 0
      vertex -8.31425 1.67246 16
    endloop
  endfacet
  facet normal 0 0.999261 0.0384331
    outer loop
      vertex -9.69633 2.00096 16
      vertex -8.20147 2.00096 16
      vertex -9.68171 2.03942 15
    endloop
  endfacet
  facet normal 0 0.999261 0.0384331
    outer loop
      vertex -9.6575 2.03942 15
      vertex -8.20147 2.00096 16
      vertex -7.99018 2.61635 0
    endloop
  endfacet
  facet normal 0 0.999261 0.0384331
    outer loop
      vertex -9.68171 2.03942 15
      vertex -8.20147 2.00096 16
      vertex -9.6575 2.03942 15
    endloop
  endfacet
  facet normal 0 0.999261 0.0384331
    outer loop
      vertex -9.6575 2.03942 15
      vertex -7.99018 2.61635 0
      vertex -9.43872 2.61635 0
    endloop
  endfacet
  facet normal 0.935027 -0.354575 0
    outer loop
      vertex -9.43872 2.61635 0
      vertex -9.29469 2.99618 0
      vertex -9.39095 2.74234 2.90143
    endloop
  endfacet
  facet normal 0.935027 -0.354575 0
    outer loop
      vertex -9.6575 2.03942 15
      vertex -9.43872 2.61635 0
      vertex -9.39095 2.74234 2.90143
    endloop
  endfacet
  facet normal 0.935027 -0.354575 0
    outer loop
      vertex -9.11262 3.47631 2.96564
      vertex -9.11262 3.47631 15
      vertex -9.39095 2.74234 2.90143
    endloop
  endfacet
  facet normal 0.935027 -0.354575 0
    outer loop
      vertex -9.11262 3.47631 15
      vertex -9.6575 2.03942 15
      vertex -9.39095 2.74234 2.90143
    endloop
  endfacet
  facet normal 0 0.996195 0.0871557
    outer loop
      vertex -9.29469 2.99618 0
      vertex -11.4419 2.99618 0
      vertex -9.39095 2.74234 2.90143
    endloop
  endfacet
  facet normal 0 0.996195 0.0871557
    outer loop
      vertex -9.39095 2.74234 2.90143
      vertex -11.4419 2.99618 0
      vertex -11.5357 2.74234 2.90143
    endloop
  endfacet
  facet normal 0 0.0871557 -0.996195
    outer loop
      vertex -11.5357 2.74234 2.90143
      vertex -10.9625 4.29426 3.0372
      vertex -9.39095 2.74234 2.90143
    endloop
  endfacet
  facet normal 0 0.0871557 -0.996195
    outer loop
      vertex -9.39095 2.74234 2.90143
      vertex -10.9625 4.29426 3.0372
      vertex -10.6735 4.73473 3.07574
    endloop
  endfacet
  facet normal 0 0.0871557 -0.996195
    outer loop
      vertex -9.11262 3.47631 2.96564
      vertex -10.6735 4.73473 3.07574
      vertex -8.26466 4.73473 3.07574
    endloop
  endfacet
  facet normal 0 0.0871557 -0.996195
    outer loop
      vertex -9.39095 2.74234 2.90143
      vertex -10.6735 4.73473 3.07574
      vertex -9.11262 3.47631 2.96564
    endloop
  endfacet
  facet normal -0.836062 0.548636 0
    outer loop
      vertex -10.9625 4.29426 3.0372
      vertex -10.9625 4.29426 15
      vertex -10.6735 4.73473 3.07574
    endloop
  endfacet
  facet normal -0.836062 0.548636 0
    outer loop
      vertex -10.6735 4.73473 3.07574
      vertex -10.9625 4.29426 15
      vertex -9.7082 6.20574 15
    endloop
  endfacet
  facet normal -0.836062 0.548636 0
    outer loop
      vertex -10.6735 4.73473 3.07574
      vertex -9.7082 6.20574 15
      vertex -9.7082 6.20574 0
    endloop
  endfacet
  facet normal -0.836062 0.548636 0
    outer loop
      vertex -10.6735 4.73473 3.07574
      vertex -9.7082 6.20574 0
      vertex -10.4969 5.00382 0
    endloop
  endfacet
  facet normal -0.698884 0.715235 0
    outer loop
      vertex -9.7082 6.20574 0
      vertex -9.7082 6.20574 15
      vertex -8.02957 7.846 0
    endloop
  endfacet
  facet normal -0.698884 0.715235 0
    outer loop
      vertex -8.02957 7.846 0
      vertex -9.7082 6.20574 15
      vertex -8.02957 7.846 15
    endloop
  endfacet
  facet normal -0.538591 0.842567 0
    outer loop
      vertex -8.02957 7.846 0
      vertex -8.02957 7.846 15
      vertex -6 9.14335 0
    endloop
  endfacet
  facet normal -0.538591 0.842567 0
    outer loop
      vertex -6 9.14335 0
      vertex -8.02957 7.846 15
      vertex -6 9.14335 15
    endloop
  endfacet
  facet normal -0.364736 0.931111 0
    outer loop
      vertex -6 9.14335 0
      vertex -6 9.14335 15
      vertex -3.7082 10.0411 0
    endloop
  endfacet
  facet normal -0.364736 0.931111 0
    outer loop
      vertex -4.5 9.73094 9
      vertex -6 9.14335 15
      vertex -4.5 9.73094 15
    endloop
  endfacet
  facet normal -0.364736 0.931111 0
    outer loop
      vertex -3.7082 10.0411 0
      vertex -6 9.14335 15
      vertex -4.5 9.73094 9
    endloop
  endfacet
  facet normal -0.364736 0.931111 0
    outer loop
      vertex -3.7082 10.0411 9
      vertex -3.7082 10.0411 0
      vertex -4.5 9.73094 9
    endloop
  endfacet
  facet normal 1 0 0
    outer loop
      vertex -4.5 9.73094 9
      vertex -4.5 9.73094 15
      vertex -4.5 7.58774 15
    endloop
  endfacet
  facet normal 1 0 0
    outer loop
      vertex -4.5 7.58774 9
      vertex -4.5 9.73094 9
      vertex -4.5 7.58774 15
    endloop
  endfacet
  facet normal 0.356428 -0.934323 0
    outer loop
      vertex -3.08244 8.12851 3
      vertex -3.08244 8.12851 9
      vertex -4.5 7.58774 9
    endloop
  endfacet
  facet normal 0.356428 -0.934323 0
    outer loop
      vertex -4.9875 7.40176 3
      vertex -3.08244 8.12851 3
      vertex -4.5 7.58774 9
    endloop
  endfacet
  facet normal 0.356428 -0.934323 0
    outer loop
      vertex -4.5 7.58774 15
      vertex -4.9875 7.40176 15
      vertex -4.5 7.58774 9
    endloop
  endfacet
  facet normal 0.356428 -0.934323 0
    outer loop
      vertex -4.9875 7.40176 15
      vertex -4.9875 7.40176 3
      vertex -4.5 7.58774 9
    endloop
  endfacet
  facet normal 0.528484 -0.848943 0
    outer loop
      vertex -4.9875 7.40176 15
      vertex -6 6.77146 3
      vertex -4.9875 7.40176 3
    endloop
  endfacet
  facet normal 0.528484 -0.848943 0
    outer loop
      vertex -6.67458 6.35153 15
      vertex -6 6.77146 3
      vertex -4.9875 7.40176 15
    endloop
  endfacet
  facet normal 0.528484 -0.848943 0
    outer loop
      vertex -6 6.77146 0
      vertex -6 6.77146 3
      vertex -6.67458 6.35153 15
    endloop
  endfacet
  facet normal 0.528484 -0.848943 0
    outer loop
      vertex -6.67458 6.35153 0
      vertex -6 6.77146 0
      vertex -6.67458 6.35153 15
    endloop
  endfacet
  facet normal 0.689358 -0.724421 0
    outer loop
      vertex -6.67458 6.35153 0
      vertex -6.67458 6.35153 15
      vertex -8.06994 5.02369 15
    endloop
  endfacet
  facet normal 0.689358 -0.724421 0
    outer loop
      vertex -8.06994 5.02369 0
      vertex -6.67458 6.35153 0
      vertex -8.06994 5.02369 15
    endloop
  endfacet
  facet normal 0.8293 -0.558804 0
    outer loop
      vertex -8.26466 4.73473 3.07574
      vertex -8.08334 5.00382 0
      vertex -8.06994 5.02369 0
    endloop
  endfacet
  facet normal 0.8293 -0.558804 0
    outer loop
      vertex -9.11262 3.47631 15
      vertex -8.26466 4.73473 3.07574
      vertex -8.06994 5.02369 15
    endloop
  endfacet
  facet normal 0.8293 -0.558804 0
    outer loop
      vertex -8.06994 5.02369 15
      vertex -8.26466 4.73473 3.07574
      vertex -8.06994 5.02369 0
    endloop
  endfacet
  facet normal 0.8293 -0.558804 0
    outer loop
      vertex -9.11262 3.47631 2.96564
      vertex -8.26466 4.73473 3.07574
      vertex -9.11262 3.47631 15
    endloop
  endfacet
  facet normal -0.934733 0.355352 0
    outer loop
      vertex -9.78148 1.77698 15
      vertex -9.78148 1.77698 16
      vertex -9.68171 2.03942 15
    endloop
  endfacet
  facet normal -0.934733 0.355352 0
    outer loop
      vertex -9.68171 2.03942 15
      vertex -9.78148 1.77698 16
      vertex -9.69633 2.00096 16
    endloop
  endfacet
  facet normal -0.992523 0.122055 0
    outer loop
      vertex -10 0 15
      vertex -10 0 16
      vertex -9.78148 1.77698 15
    endloop
  endfacet
  facet normal -0.992523 0.122055 0
    outer loop
      vertex -9.78148 1.77698 15
      vertex -10 0 16
      vertex -9.78148 1.77698 16
    endloop
  endfacet
  facet normal -0.992523 -0.122055 0
    outer loop
      vertex -10 0 15
      vertex -9.78148 -1.77698 15
      vertex -10 0 16
    endloop
  endfacet
  facet normal -0.992523 -0.122055 0
    outer loop
      vertex -10 0 16
      vertex -9.78148 -1.77698 15
      vertex -9.78148 -1.77698 16
    endloop
  endfacet
  facet normal -0.934733 -0.355352 0
    outer loop
      vertex -9.78148 -1.77698 15
      vertex -9.68171 -2.03942 15
      vertex -9.78148 -1.77698 16
    endloop
  endfacet
  facet normal -0.934733 -0.355352 0
    outer loop
      vertex -9.78148 -1.77698 16
      vertex -9.68171 -2.03942 15
      vertex -9.69633 -2.00096 16
    endloop
  endfacet
  facet normal 0.8293 0.558804 0
    outer loop
      vertex -8.26466 -4.73473 3.07574
      vertex -8.06994 -5.02369 15
      vertex -8.06994 -5.02369 0
    endloop
  endfacet
  facet normal 0.8293 0.558804 0
    outer loop
      vertex -8.26466 -4.73473 3.07574
      vertex -9.11262 -3.47631 2.96564
      vertex -9.11262 -3.47631 15
    endloop
  endfacet
  facet normal 0.8293 0.558804 0
    outer loop
      vertex -9.11262 -3.47631 15
      vertex -8.06994 -5.02369 15
      vertex -8.26466 -4.73473 3.07574
    endloop
  endfacet
  facet normal 0.8293 0.558804 0
    outer loop
      vertex -8.08334 -5.00382 0
      vertex -8.26466 -4.73473 3.07574
      vertex -8.06994 -5.02369 0
    endloop
  endfacet
  facet normal 0.689358 0.724421 0
    outer loop
      vertex -6.67458 -6.35153 15
      vertex -6.67458 -6.35153 0
      vertex -8.06994 -5.02369 15
    endloop
  endfacet
  facet normal 0.689358 0.724421 0
    outer loop
      vertex -8.06994 -5.02369 15
      vertex -6.67458 -6.35153 0
      vertex -8.06994 -5.02369 0
    endloop
  endfacet
  facet normal 0.528484 0.848943 0
    outer loop
      vertex -4.9875 -7.40176 15
      vertex -4.9875 -7.40176 3
      vertex -6.67458 -6.35153 15
    endloop
  endfacet
  facet normal 0.528484 0.848943 0
    outer loop
      vertex -6.67458 -6.35153 15
      vertex -4.9875 -7.40176 3
      vertex -6 -6.77146 3
    endloop
  endfacet
  facet normal 0.528484 0.848943 0
    outer loop
      vertex -6.67458 -6.35153 15
      vertex -6 -6.77146 3
      vertex -6 -6.77146 0
    endloop
  endfacet
  facet normal 0.528484 0.848943 0
    outer loop
      vertex -6.67458 -6.35153 15
      vertex -6 -6.77146 0
      vertex -6.67458 -6.35153 0
    endloop
  endfacet
  facet normal 0.356428 0.934323 0
    outer loop
      vertex -3.08244 -8.12851 15
      vertex -3.08244 -8.12851 3
      vertex -4.9875 -7.40176 15
    endloop
  endfacet
  facet normal 0.356428 0.934323 0
    outer loop
      vertex -4.9875 -7.40176 15
      vertex -3.08244 -8.12851 3
      vertex -4.9875 -7.40176 3
    endloop
  endfacet
  facet normal 0.179176 0.983817 0
    outer loop
      vertex -1.04267 -8.5 15
      vertex -1.04267 -8.5 3
      vertex -3.08244 -8.12851 15
    endloop
  endfacet
  facet normal 0.179176 0.983817 0
    outer loop
      vertex -3.08244 -8.12851 15
      vertex -1.04267 -8.5 3
      vertex -3.08244 -8.12851 3
    endloop
  endfacet
  facet normal 0 1 0
    outer loop
      vertex 1.04267 -8.5 15
      vertex 1.04267 -8.5 3
      vertex -1.04267 -8.5 15
    endloop
  endfacet
  facet normal 0 1 0
    outer loop
      vertex -1.04267 -8.5 15
      vertex 1.04267 -8.5 3
      vertex -1.04267 -8.5 3
    endloop
  endfacet
  facet normal -0.179176 0.983817 0
    outer loop
      vertex 3.08244 -8.12851 15
      vertex 3.08244 -8.12851 3
      vertex 1.04267 -8.5 15
    endloop
  endfacet
  facet normal -0.179176 0.983817 0
    outer loop
      vertex 1.04267 -8.5 15
      vertex 3.08244 -8.12851 3
      vertex 1.04267 -8.5 3
    endloop
  endfacet
  facet normal -0.356428 0.934323 0
    outer loop
      vertex 4.9875 -7.40176 15
      vertex 4.9875 -7.40176 3
      vertex 3.08244 -8.12851 15
    endloop
  endfacet
  facet normal -0.356428 0.934323 0
    outer loop
      vertex 3.08244 -8.12851 15
      vertex 4.9875 -7.40176 3
      vertex 3.08244 -8.12851 3
    endloop
  endfacet
  facet normal -0.528484 0.848943 0
    outer loop
      vertex 6.67458 -6.35153 15
      vertex 6.67458 -6.35153 0
      vertex 4.9875 -7.40176 15
    endloop
  endfacet
  facet normal -0.528484 0.848943 0
    outer loop
      vertex 6 -6.77146 3
      vertex 6.67458 -6.35153 0
      vertex 6 -6.77146 0
    endloop
  endfacet
  facet normal -0.528484 0.848943 0
    outer loop
      vertex 4.9875 -7.40176 15
      vertex 6.67458 -6.35153 0
      vertex 6 -6.77146 3
    endloop
  endfacet
  facet normal -0.528484 0.848943 0
    outer loop
      vertex 4.9875 -7.40176 3
      vertex 4.9875 -7.40176 15
      vertex 6 -6.77146 3
    endloop
  endfacet
  facet normal -0.689358 0.724421 0
    outer loop
      vertex 8.06994 -5.02369 15
      vertex 8.06994 -5.02369 0
      vertex 6.67458 -6.35153 15
    endloop
  endfacet
  facet normal -0.689358 0.724421 0
    outer loop
      vertex 6.67458 -6.35153 15
      vertex 8.06994 -5.02369 0
      vertex 6.67458 -6.35153 0
    endloop
  endfacet
  facet normal -0.8293 0.558804 0
    outer loop
      vertex 9.11262 -3.47631 15
      vertex 9.11262 -3.47631 2.96564
      vertex 8.06994 -5.02369 15
    endloop
  endfacet
  facet normal -0.8293 0.558804 0
    outer loop
      vertex 8.06994 -5.02369 15
      vertex 9.11262 -3.47631 2.96564
      vertex 8.26466 -4.73473 3.07574
    endloop
  endfacet
  facet normal -0.8293 0.558804 0
    outer loop
      vertex 8.06994 -5.02369 15
      vertex 8.26466 -4.73473 3.07574
      vertex 8.08334 -5.00382 0
    endloop
  endfacet
  facet normal -0.8293 0.558804 0
    outer loop
      vertex 8.06994 -5.02369 15
      vertex 8.08334 -5.00382 0
      vertex 8.06994 -5.02369 0
    endloop
  endfacet
  facet normal -0.935027 0.354575 0
    outer loop
      vertex 9.11262 -3.47631 2.96564
      vertex 9.11262 -3.47631 15
      vertex 9.39095 -2.74234 2.90143
    endloop
  endfacet
  facet normal -0.935027 0.354575 0
    outer loop
      vertex 9.6575 -2.03942 15
      vertex 9.43872 -2.61635 0
      vertex 9.39095 -2.74234 2.90143
    endloop
  endfacet
  facet normal -0.935027 0.354575 0
    outer loop
      vertex 9.6575 -2.03942 15
      vertex 9.39095 -2.74234 2.90143
      vertex 9.11262 -3.47631 15
    endloop
  endfacet
  facet normal -0.935027 0.354575 0
    outer loop
      vertex 9.39095 -2.74234 2.90143
      vertex 9.43872 -2.61635 0
      vertex 9.29469 -2.99618 0
    endloop
  endfacet
  facet normal 0 -0.999261 0.0384331
    outer loop
      vertex 8.20147 -2.00096 16
      vertex 7.99018 -2.61635 0
      vertex 9.43872 -2.61635 0
    endloop
  endfacet
  facet normal 0 -0.999261 0.0384331
    outer loop
      vertex 9.68171 -2.03942 15
      vertex 8.20147 -2.00096 16
      vertex 9.6575 -2.03942 15
    endloop
  endfacet
  facet normal 0 -0.999261 0.0384331
    outer loop
      vertex 9.6575 -2.03942 15
      vertex 8.20147 -2.00096 16
      vertex 9.43872 -2.61635 0
    endloop
  endfacet
  facet normal 0 -0.999261 0.0384331
    outer loop
      vertex 9.69633 -2.00096 16
      vertex 8.20147 -2.00096 16
      vertex 9.68171 -2.03942 15
    endloop
  endfacet
  facet normal 0.934733 -0.355352 0
    outer loop
      vertex 9.69633 -2.00096 16
      vertex 9.68171 -2.03942 15
      vertex 9.78148 -1.77698 15
    endloop
  endfacet
  facet normal 0.934733 -0.355352 0
    outer loop
      vertex 9.78148 -1.77698 16
      vertex 9.69633 -2.00096 16
      vertex 9.78148 -1.77698 15
    endloop
  endfacet
  facet normal 0.992523 -0.122055 0
    outer loop
      vertex 9.78148 -1.77698 16
      vertex 9.78148 -1.77698 15
      vertex 10 0 15
    endloop
  endfacet
  facet normal 0.992523 -0.122055 0
    outer loop
      vertex 10 0 16
      vertex 9.78148 -1.77698 16
      vertex 10 0 15
    endloop
  endfacet
  facet normal 0.992523 0.122055 0
    outer loop
      vertex 10 0 15
      vertex 9.78148 1.77698 15
      vertex 9.78148 1.77698 16
    endloop
  endfacet
  facet normal 0.992523 0.122055 0
    outer loop
      vertex 10 0 16
      vertex 10 0 15
      vertex 9.78148 1.77698 16
    endloop
  endfacet
  facet normal 0.934733 0.355352 0
    outer loop
      vertex 9.78148 1.77698 15
      vertex 9.68171 2.03942 15
      vertex 9.69633 2.00096 16
    endloop
  endfacet
  facet normal 0.934733 0.355352 0
    outer loop
      vertex 9.78148 1.77698 16
      vertex 9.78148 1.77698 15
      vertex 9.69633 2.00096 16
    endloop
  endfacet
  facet normal 0 0.999261 0.0384331
    outer loop
      vertex 7.99018 2.61635 0
      vertex 8.20147 2.00096 16
      vertex 9.43872 2.61635 0
    endloop
  endfacet
  facet normal 0 0.999261 0.0384331
    outer loop
      vertex 9.6575 2.03942 15
      vertex 8.20147 2.00096 16
      vertex 9.69633 2.00096 16
    endloop
  endfacet
  facet normal 0 0.999261 0.0384331
    outer loop
      vertex 9.43872 2.61635 0
      vertex 8.20147 2.00096 16
      vertex 9.6575 2.03942 15
    endloop
  endfacet
  facet normal 0 0.999261 0.0384331
    outer loop
      vertex 9.6575 2.03942 15
      vertex 9.69633 2.00096 16
      vertex 9.68171 2.03942 15
    endloop
  endfacet
  facet normal -0.935027 -0.354575 0
    outer loop
      vertex 9.29469 2.99618 0
      vertex 9.43872 2.61635 0
      vertex 9.39095 2.74234 2.90143
    endloop
  endfacet
  facet normal -0.935027 -0.354575 0
    outer loop
      vertex 9.39095 2.74234 2.90143
      vertex 9.43872 2.61635 0
      vertex 9.6575 2.03942 15
    endloop
  endfacet
  facet normal -0.935027 -0.354575 0
    outer loop
      vertex 9.39095 2.74234 2.90143
      vertex 9.6575 2.03942 15
      vertex 9.11262 3.47631 15
    endloop
  endfacet
  facet normal -0.935027 -0.354575 0
    outer loop
      vertex 9.39095 2.74234 2.90143
      vertex 9.11262 3.47631 15
      vertex 9.11262 3.47631 2.96564
    endloop
  endfacet
  facet normal -0.8293 -0.558804 0
    outer loop
      vertex 8.26466 4.73473 3.07574
      vertex 9.11262 3.47631 2.96564
      vertex 9.11262 3.47631 15
    endloop
  endfacet
  facet normal -0.8293 -0.558804 0
    outer loop
      vertex 8.26466 4.73473 3.07574
      vertex 9.11262 3.47631 15
      vertex 8.06994 5.02369 15
    endloop
  endfacet
  facet normal -0.8293 -0.558804 0
    outer loop
      vertex 8.26466 4.73473 3.07574
      vertex 8.06994 5.02369 15
      vertex 8.08334 5.00382 0
    endloop
  endfacet
  facet normal -0.8293 -0.558804 0
    outer loop
      vertex 8.06994 5.02369 15
      vertex 8.06994 5.02369 0
      vertex 8.08334 5.00382 0
    endloop
  endfacet
  facet normal -0.689358 -0.724421 0
    outer loop
      vertex 8.06994 5.02369 0
      vertex 8.06994 5.02369 15
      vertex 6.67458 6.35153 15
    endloop
  endfacet
  facet normal -0.689358 -0.724421 0
    outer loop
      vertex 6.67458 6.35153 0
      vertex 8.06994 5.02369 0
      vertex 6.67458 6.35153 15
    endloop
  endfacet
  facet normal -0.528484 -0.848943 0
    outer loop
      vertex 6 6.77146 3
      vertex 6 6.77146 0
      vertex 6.67458 6.35153 0
    endloop
  endfacet
  facet normal -0.528484 -0.848943 0
    outer loop
      vertex 4.9875 7.40176 15
      vertex 6 6.77146 3
      vertex 6.67458 6.35153 15
    endloop
  endfacet
  facet normal -0.528484 -0.848943 0
    outer loop
      vertex 6.67458 6.35153 15
      vertex 6 6.77146 3
      vertex 6.67458 6.35153 0
    endloop
  endfacet
  facet normal -0.528484 -0.848943 0
    outer loop
      vertex 4.9875 7.40176 3
      vertex 6 6.77146 3
      vertex 4.9875 7.40176 15
    endloop
  endfacet
  facet normal -0.356428 -0.934323 0
    outer loop
      vertex 4.9875 7.40176 3
      vertex 4.9875 7.40176 15
      vertex 4.5 7.58774 15
    endloop
  endfacet
  facet normal -0.356428 -0.934323 0
    outer loop
      vertex 3.08244 8.12851 9
      vertex 4.9875 7.40176 3
      vertex 4.5 7.58774 9
    endloop
  endfacet
  facet normal -0.356428 -0.934323 0
    outer loop
      vertex 4.5 7.58774 9
      vertex 4.9875 7.40176 3
      vertex 4.5 7.58774 15
    endloop
  endfacet
  facet normal -0.356428 -0.934323 0
    outer loop
      vertex 3.08244 8.12851 3
      vertex 4.9875 7.40176 3
      vertex 3.08244 8.12851 9
    endloop
  endfacet
  facet normal -1 0 0
    outer loop
      vertex 4.5 9.73094 15
      vertex 4.5 9.73094 9
      vertex 4.5 7.58774 15
    endloop
  endfacet
  facet normal -1 0 0
    outer loop
      vertex 4.5 7.58774 15
      vertex 4.5 9.73094 9
      vertex 4.5 7.58774 9
    endloop
  endfacet
  facet normal 0.364736 0.931111 0
    outer loop
      vertex 3.7082 10.0411 0
      vertex 3.7082 10.0411 9
      vertex 6 9.14335 0
    endloop
  endfacet
  facet normal 0.364736 0.931111 0
    outer loop
      vertex 6 9.14335 0
      vertex 3.7082 10.0411 9
      vertex 4.5 9.73094 9
    endloop
  endfacet
  facet normal 0.364736 0.931111 0
    outer loop
      vertex 6 9.14335 0
      vertex 4.5 9.73094 9
      vertex 4.5 9.73094 15
    endloop
  endfacet
  facet normal 0.364736 0.931111 0
    outer loop
      vertex 6 9.14335 0
      vertex 4.5 9.73094 15
      vertex 6 9.14335 15
    endloop
  endfacet
  facet normal 0.538591 0.842567 0
    outer loop
      vertex 6 9.14335 0
      vertex 6 9.14335 15
      vertex 8.02957 7.846 0
    endloop
  endfacet
  facet normal 0.538591 0.842567 0
    outer loop
      vertex 8.02957 7.846 0
      vertex 6 9.14335 15
      vertex 8.02957 7.846 15
    endloop
  endfacet
  facet normal 0.698884 0.715235 0
    outer loop
      vertex 8.02957 7.846 0
      vertex 8.02957 7.846 15
      vertex 9.7082 6.20574 0
    endloop
  endfacet
  facet normal 0.698884 0.715235 0
    outer loop
      vertex 9.7082 6.20574 0
      vertex 8.02957 7.846 15
      vertex 9.7082 6.20574 15
    endloop
  endfacet
  facet normal 0.836062 0.548636 0
    outer loop
      vertex 10.4969 5.00382 0
      vertex 9.7082 6.20574 0
      vertex 9.7082 6.20574 15
    endloop
  endfacet
  facet normal 0.836062 0.548636 0
    outer loop
      vertex 10.6735 4.73473 3.07574
      vertex 10.4969 5.00382 0
      vertex 10.9625 4.29426 15
    endloop
  endfacet
  facet normal 0.836062 0.548636 0
    outer loop
      vertex 10.9625 4.29426 15
      vertex 10.4969 5.00382 0
      vertex 9.7082 6.20574 15
    endloop
  endfacet
  facet normal 0.836062 0.548636 0
    outer loop
      vertex 10.9625 4.29426 3.0372
      vertex 10.6735 4.73473 3.07574
      vertex 10.9625 4.29426 15
    endloop
  endfacet
  facet normal 0.938075 0.346433 0
    outer loop
      vertex 11.5357 2.74234 2.90143
      vertex 10.9625 4.29426 3.0372
      vertex 10.9625 4.29426 15
    endloop
  endfacet
  facet normal 0.938075 0.346433 0
    outer loop
      vertex 11.7378 2.1951 0
      vertex 11.5357 2.74234 2.90143
      vertex 11.7378 2.1951 15
    endloop
  endfacet
  facet normal 0.938075 0.346433 0
    outer loop
      vertex 11.7378 2.1951 15
      vertex 11.5357 2.74234 2.90143
      vertex 10.9625 4.29426 15
    endloop
  endfacet
  facet normal 0.938075 0.346433 0
    outer loop
      vertex 11.4419 2.99618 0
      vertex 11.5357 2.74234 2.90143
      vertex 11.7378 2.1951 0
    endloop
  endfacet
  facet normal 0.99294 0.118618 0
    outer loop
      vertex 12 0 0
      vertex 11.7378 2.1951 0
      vertex 11.7378 2.1951 15
    endloop
  endfacet
  facet normal 0.99294 0.118618 0
    outer loop
      vertex 12 0 15
      vertex 12 0 0
      vertex 11.7378 2.1951 15
    endloop
  endfacet
  facet normal 0.99294 -0.118618 0
    outer loop
      vertex 11.7378 -2.1951 15
      vertex 11.7378 -2.1951 0
      vertex 12 0 0
    endloop
  endfacet
  facet normal 0.99294 -0.118618 0
    outer loop
      vertex 12 0 15
      vertex 11.7378 -2.1951 15
      vertex 12 0 0
    endloop
  endfacet
  facet normal 0.938075 -0.346433 0
    outer loop
      vertex 10.9625 -4.29426 15
      vertex 10.9625 -4.29426 3.0372
      vertex 11.5357 -2.74234 2.90143
    endloop
  endfacet
  facet normal 0.938075 -0.346433 0
    outer loop
      vertex 11.7378 -2.1951 0
      vertex 10.9625 -4.29426 15
      vertex 11.5357 -2.74234 2.90143
    endloop
  endfacet
  facet normal 0.938075 -0.346433 0
    outer loop
      vertex 11.4419 -2.99618 0
      vertex 11.7378 -2.1951 0
      vertex 11.5357 -2.74234 2.90143
    endloop
  endfacet
  facet normal 0.938075 -0.346433 0
    outer loop
      vertex 11.7378 -2.1951 0
      vertex 11.7378 -2.1951 15
      vertex 10.9625 -4.29426 15
    endloop
  endfacet
  facet normal 0.836062 -0.548636 0
    outer loop
      vertex 9.7082 -6.20574 15
      vertex 9.7082 -6.20574 0
      vertex 10.4969 -5.00382 0
    endloop
  endfacet
  facet normal 0.836062 -0.548636 0
    outer loop
      vertex 10.9625 -4.29426 3.0372
      vertex 9.7082 -6.20574 15
      vertex 10.6735 -4.73473 3.07574
    endloop
  endfacet
  facet normal 0.836062 -0.548636 0
    outer loop
      vertex 10.6735 -4.73473 3.07574
      vertex 9.7082 -6.20574 15
      vertex 10.4969 -5.00382 0
    endloop
  endfacet
  facet normal 0.836062 -0.548636 0
    outer loop
      vertex 10.9625 -4.29426 15
      vertex 9.7082 -6.20574 15
      vertex 10.9625 -4.29426 3.0372
    endloop
  endfacet
  facet normal 0.698884 -0.715235 0
    outer loop
      vertex 8.02957 -7.846 15
      vertex 8.02957 -7.846 0
      vertex 9.7082 -6.20574 0
    endloop
  endfacet
  facet normal 0.698884 -0.715235 0
    outer loop
      vertex 9.7082 -6.20574 15
      vertex 8.02957 -7.846 15
      vertex 9.7082 -6.20574 0
    endloop
  endfacet
  facet normal 0.538591 -0.842567 0
    outer loop
      vertex 6 -9.14335 15
      vertex 6 -9.14335 0
      vertex 8.02957 -7.846 0
    endloop
  endfacet
  facet normal 0.538591 -0.842567 0
    outer loop
      vertex 8.02957 -7.846 15
      vertex 6 -9.14335 15
      vertex 8.02957 -7.846 0
    endloop
  endfacet
  facet normal 0.364736 -0.931111 0
    outer loop
      vertex 3.7082 -10.0411 15
      vertex 3.7082 -10.0411 0
      vertex 6 -9.14335 0
    endloop
  endfacet
  facet normal 0.364736 -0.931111 0
    outer loop
      vertex 6 -9.14335 15
      vertex 3.7082 -10.0411 15
      vertex 6 -9.14335 0
    endloop
  endfacet
  facet normal 0.183825 -0.982959 0
    outer loop
      vertex 1.25434 -10.5 15
      vertex 1.25434 -10.5 0
      vertex 3.7082 -10.0411 0
    endloop
  endfacet
  facet normal 0.183825 -0.982959 0
    outer loop
      vertex 3.7082 -10.0411 15
      vertex 1.25434 -10.5 15
      vertex 3.7082 -10.0411 0
    endloop
  endfacet
  facet normal 0 -1 0
    outer loop
      vertex -1.25434 -10.5 15
      vertex -1.25434 -10.5 0
      vertex 1.25434 -10.5 0
    endloop
  endfacet
  facet normal 0 -1 0
    outer loop
      vertex 1.25434 -10.5 15
      vertex -1.25434 -10.5 15
      vertex 1.25434 -10.5 0
    endloop
  endfacet
  facet normal -0.183825 -0.982959 0
    outer loop
      vertex -3.7082 -10.0411 15
      vertex -3.7082 -10.0411 0
      vertex -1.25434 -10.5 0
    endloop
  endfacet
  facet normal -0.183825 -0.982959 0
    outer loop
      vertex -1.25434 -10.5 15
      vertex -3.7082 -10.0411 15
      vertex -1.25434 -10.5 0
    endloop
  endfacet
  facet normal -0.364736 -0.931111 0
    outer loop
      vertex -6 -9.14335 15
      vertex -6 -9.14335 0
      vertex -3.7082 -10.0411 0
    endloop
  endfacet
  facet normal -0.364736 -0.931111 0
    outer loop
      vertex -3.7082 -10.0411 15
      vertex -6 -9.14335 15
      vertex -3.7082 -10.0411 0
    endloop
  endfacet
  facet normal -0.538591 -0.842567 0
    outer loop
      vertex -8.02957 -7.846 15
      vertex -8.02957 -7.846 0
      vertex -6 -9.14335 0
    endloop
  endfacet
  facet normal -0.538591 -0.842567 0
    outer loop
      vertex -6 -9.14335 15
      vertex -8.02957 -7.846 15
      vertex -6 -9.14335 0
    endloop
  endfacet
  facet normal -0.698884 -0.715235 0
    outer loop
      vertex -9.7082 -6.20574 15
      vertex -9.7082 -6.20574 0
      vertex -8.02957 -7.846 0
    endloop
  endfacet
  facet normal -0.698884 -0.715235 0
    outer loop
      vertex -8.02957 -7.846 15
      vertex -9.7082 -6.20574 15
      vertex -8.02957 -7.846 0
    endloop
  endfacet
  facet normal -0.836062 -0.548636 0
    outer loop
      vertex -10.9625 -4.29426 3.0372
      vertex -10.6735 -4.73473 3.07574
      vertex -10.9625 -4.29426 15
    endloop
  endfacet
  facet normal -0.836062 -0.548636 0
    outer loop
      vertex -10.9625 -4.29426 15
      vertex -10.6735 -4.73473 3.07574
      vertex -10.4969 -5.00382 0
    endloop
  endfacet
  facet normal -0.836062 -0.548636 0
    outer loop
      vertex -10.9625 -4.29426 15
      vertex -10.4969 -5.00382 0
      vertex -9.7082 -6.20574 0
    endloop
  endfacet
  facet normal -0.836062 -0.548636 0
    outer loop
      vertex -10.9625 -4.29426 15
      vertex -9.7082 -6.20574 0
      vertex -9.7082 -6.20574 15
    endloop
  endfacet
  facet normal 0 -0.0871557 -0.996195
    outer loop
      vertex -9.11262 -3.47631 2.96564
      vertex -8.26466 -4.73473 3.07574
      vertex -10.6735 -4.73473 3.07574
    endloop
  endfacet
  facet normal 0 -0.0871557 -0.996195
    outer loop
      vertex -9.11262 -3.47631 2.96564
      vertex -10.6735 -4.73473 3.07574
      vertex -9.39095 -2.74234 2.90143
    endloop
  endfacet
  facet normal 0 -0.0871557 -0.996195
    outer loop
      vertex -10.6735 -4.73473 3.07574
      vertex -10.9625 -4.29426 3.0372
      vertex -9.39095 -2.74234 2.90143
    endloop
  endfacet
  facet normal 0 -0.0871557 -0.996195
    outer loop
      vertex -10.9625 -4.29426 3.0372
      vertex -11.5357 -2.74234 2.90143
      vertex -9.39095 -2.74234 2.90143
    endloop
  endfacet
  facet normal 0 0 1
    outer loop
      vertex -9.78148 1.77698 16
      vertex -10 0 16
      vertex -9.78148 -1.77698 16
    endloop
  endfacet
  facet normal 0 0 1
    outer loop
      vertex -8.20147 -2.00096 16
      vertex -9.78148 1.77698 16
      vertex -9.69633 -2.00096 16
    endloop
  endfacet
  facet normal 0 0 1
    outer loop
      vertex -9.69633 -2.00096 16
      vertex -9.78148 1.77698 16
      vertex -9.78148 -1.77698 16
    endloop
  endfacet
  facet normal 0 0 1
    outer loop
      vertex -8.31425 -1.67246 16
      vertex -9.78148 1.77698 16
      vertex -8.20147 -2.00096 16
    endloop
  endfacet
  facet normal 0 0 1
    outer loop
      vertex -8.5 0 16
      vertex -9.78148 1.77698 16
      vertex -8.31425 -1.67246 16
    endloop
  endfacet
  facet normal 0 0 1
    outer loop
      vertex -8.31425 1.67246 16
      vertex -9.78148 1.77698 16
      vertex -8.5 0 16
    endloop
  endfacet
  facet normal 0 0 1
    outer loop
      vertex -8.20147 2.00096 16
      vertex -9.78148 1.77698 16
      vertex -8.31425 1.67246 16
    endloop
  endfacet
  facet normal 0 0 1
    outer loop
      vertex -9.69633 2.00096 16
      vertex -9.78148 1.77698 16
      vertex -8.20147 2.00096 16
    endloop
  endfacet
  facet normal 0 -0.996195 -0.0871557
    outer loop
      vertex -10.4969 5.00382 0
      vertex -8.08334 5.00382 0
      vertex -8.26466 4.73473 3.07574
    endloop
  endfacet
  facet normal 0 -0.996195 -0.0871557
    outer loop
      vertex -10.6735 4.73473 3.07574
      vertex -10.4969 5.00382 0
      vertex -8.26466 4.73473 3.07574
    endloop
  endfacet
  facet normal 0 0 -1
    outer loop
      vertex -10.4969 5.00382 0
      vertex -9.7082 6.20574 0
      vertex -8.08334 5.00382 0
    endloop
  endfacet
  facet normal 0 0 -1
    outer loop
      vertex -8.08334 5.00382 0
      vertex -9.7082 6.20574 0
      vertex -8.02957 7.846 0
    endloop
  endfacet
  facet normal 0 0 -1
    outer loop
      vertex -8.08334 5.00382 0
      vertex -8.02957 7.846 0
      vertex -6 9.14335 0
    endloop
  endfacet
  facet normal 0 0 -1
    outer loop
      vertex -8.06994 5.02369 0
      vertex -6 9.14335 0
      vertex -3.7082 10.0411 0
    endloop
  endfacet
  facet normal 0 0 -1
    outer loop
      vertex -6 6.77146 0
      vertex -3.7082 10.0411 0
      vertex -1.25434 10.5 0
    endloop
  endfacet
  facet normal 0 0 -1
    outer loop
      vertex 6.67458 6.35153 0
      vertex 8.02957 7.846 0
      vertex 9.7082 6.20574 0
    endloop
  endfacet
  facet normal 0 0 -1
    outer loop
      vertex 8.08334 5.00382 0
      vertex 9.7082 6.20574 0
      vertex 10.4969 5.00382 0
    endloop
  endfacet
  facet normal 0 0 -1
    outer loop
      vertex 8.06994 5.02369 0
      vertex 9.7082 6.20574 0
      vertex 8.08334 5.00382 0
    endloop
  endfacet
  facet normal 0 0 -1
    outer loop
      vertex 6 5.00382 0
      vertex -6 5.00382 0
      vertex 6 6.77146 0
    endloop
  endfacet
  facet normal 0 0 -1
    outer loop
      vertex 6 6.77146 0
      vertex 8.02957 7.846 0
      vertex 6.67458 6.35153 0
    endloop
  endfacet
  facet normal 0 0 -1
    outer loop
      vertex -6 6.77146 0
      vertex 6 9.14335 0
      vertex 8.02957 7.846 0
    endloop
  endfacet
  facet normal 0 0 -1
    outer loop
      vertex -6 6.77146 0
      vertex -1.25434 10.5 0
      vertex 1.25434 10.5 0
    endloop
  endfacet
  facet normal 0 0 -1
    outer loop
      vertex -6 6.77146 0
      vertex 1.25434 10.5 0
      vertex 3.7082 10.0411 0
    endloop
  endfacet
  facet normal 0 0 -1
    outer loop
      vertex -6.67458 6.35153 0
      vertex -3.7082 10.0411 0
      vertex -6 6.77146 0
    endloop
  endfacet
  facet normal 0 0 -1
    outer loop
      vertex -8.06994 5.02369 0
      vertex -3.7082 10.0411 0
      vertex -6.67458 6.35153 0
    endloop
  endfacet
  facet normal 0 0 -1
    outer loop
      vertex -8.08334 5.00382 0
      vertex -6 9.14335 0
      vertex -8.06994 5.02369 0
    endloop
  endfacet
  facet normal 0 0 -1
    outer loop
      vertex 6.67458 6.35153 0
      vertex 9.7082 6.20574 0
      vertex 8.06994 5.02369 0
    endloop
  endfacet
  facet normal 0 0 -1
    outer loop
      vertex -6 6.77146 0
      vertex 3.7082 10.0411 0
      vertex 6 9.14335 0
    endloop
  endfacet
  facet normal 0 0 -1
    outer loop
      vertex -6 6.77146 0
      vertex 8.02957 7.846 0
      vertex 6 6.77146 0
    endloop
  endfacet
  facet normal 0 0 -1
    outer loop
      vertex -6 6.77146 0
      vertex 6 6.77146 0
      vertex -6 5.00382 0
    endloop
  endfacet
  facet normal -0.183825 0.982959 0
    outer loop
      vertex -3.7082 10.0411 0
      vertex -3.7082 10.0411 9
      vertex -1.25434 10.5 0
    endloop
  endfacet
  facet normal -0.183825 0.982959 0
    outer loop
      vertex -1.25434 10.5 0
      vertex -3.7082 10.0411 9
      vertex -1.25434 10.5 9
    endloop
  endfacet
  facet normal 0 0 1
    outer loop
      vertex 4.5 9.73094 9
      vertex -1.04267 8.5 9
      vertex 1.04267 8.5 9
    endloop
  endfacet
  facet normal 0 0 1
    outer loop
      vertex 3.08244 8.12851 9
      vertex 4.5 9.73094 9
      vertex 1.04267 8.5 9
    endloop
  endfacet
  facet normal 0 0 1
    outer loop
      vertex -3.08244 8.12851 9
      vertex -1.04267 8.5 9
      vertex 4.5 9.73094 9
    endloop
  endfacet
  facet normal 0 0 1
    outer loop
      vertex 4.5 7.58774 9
      vertex 4.5 9.73094 9
      vertex 3.08244 8.12851 9
    endloop
  endfacet
  facet normal 0 0 1
    outer loop
      vertex 4.5 9.73094 9
      vertex 3.7082 10.0411 9
      vertex -3.08244 8.12851 9
    endloop
  endfacet
  facet normal 0 0 1
    outer loop
      vertex 3.7082 10.0411 9
      vertex 1.25434 10.5 9
      vertex -3.08244 8.12851 9
    endloop
  endfacet
  facet normal 0 0 1
    outer loop
      vertex 1.25434 10.5 9
      vertex -1.25434 10.5 9
      vertex -3.08244 8.12851 9
    endloop
  endfacet
  facet normal 0 0 1
    outer loop
      vertex -1.25434 10.5 9
      vertex -3.7082 10.0411 9
      vertex -3.08244 8.12851 9
    endloop
  endfacet
  facet normal 0 0 1
    outer loop
      vertex -3.7082 10.0411 9
      vertex -4.5 9.73094 9
      vertex -3.08244 8.12851 9
    endloop
  endfacet
  facet normal 0 0 1
    outer loop
      vertex -4.5 9.73094 9
      vertex -4.5 7.58774 9
      vertex -3.08244 8.12851 9
    endloop
  endfacet
  facet normal 0.179176 -0.983817 0
    outer loop
      vertex -1.04267 8.5 3
      vertex -1.04267 8.5 9
      vertex -3.08244 8.12851 9
    endloop
  endfacet
  facet normal 0.179176 -0.983817 0
    outer loop
      vertex -3.08244 8.12851 3
      vertex -1.04267 8.5 3
      vertex -3.08244 8.12851 9
    endloop
  endfacet
  facet normal 0 0 1
    outer loop
      vertex -6 6.77146 3
      vertex -6 -6.77146 3
      vertex -4.9875 -7.40176 3
    endloop
  endfacet
  facet normal 0 0 1
    outer loop
      vertex -1.04267 -8.5 3
      vertex -6 6.77146 3
      vertex -3.08244 -8.12851 3
    endloop
  endfacet
  facet normal 0 0 1
    outer loop
      vertex -3.08244 -8.12851 3
      vertex -6 6.77146 3
      vertex -4.9875 -7.40176 3
    endloop
  endfacet
  facet normal 0 0 1
    outer loop
      vertex 1.04267 -8.5 3
      vertex -6 6.77146 3
      vertex -1.04267 -8.5 3
    endloop
  endfacet
  facet normal 0 0 1
    outer loop
      vertex 3.08244 -8.12851 3
      vertex -6 6.77146 3
      vertex 1.04267 -8.5 3
    endloop
  endfacet
  facet normal 0 0 1
    outer loop
      vertex 4.9875 -7.40176 3
      vertex -6 6.77146 3
      vertex 3.08244 -8.12851 3
    endloop
  endfacet
  facet normal 0 0 1
    outer loop
      vertex 6 -6.77146 3
      vertex -6 6.77146 3
      vertex 4.9875 -7.40176 3
    endloop
  endfacet
  facet normal 0 0 1
    outer loop
      vertex 6 6.77146 3
      vertex -6 6.77146 3
      vertex 6 -6.77146 3
    endloop
  endfacet
  facet normal 0 0 1
    outer loop
      vertex 4.9875 7.40176 3
      vertex -6 6.77146 3
      vertex 6 6.77146 3
    endloop
  endfacet
  facet normal 0 0 1
    outer loop
      vertex 3.08244 8.12851 3
      vertex -6 6.77146 3
      vertex 4.9875 7.40176 3
    endloop
  endfacet
  facet normal 0 0 1
    outer loop
      vertex 1.04267 8.5 3
      vertex -6 6.77146 3
      vertex 3.08244 8.12851 3
    endloop
  endfacet
  facet normal 0 0 1
    outer loop
      vertex -1.04267 8.5 3
      vertex -6 6.77146 3
      vertex 1.04267 8.5 3
    endloop
  endfacet
  facet normal 0 0 1
    outer loop
      vertex -3.08244 8.12851 3
      vertex -6 6.77146 3
      vertex -1.04267 8.5 3
    endloop
  endfacet
  facet normal 0 0 1
    outer loop
      vertex -4.9875 7.40176 3
      vertex -6 6.77146 3
      vertex -3.08244 8.12851 3
    endloop
  endfacet
  facet normal -1 0 0
    outer loop
      vertex -6 -6.77146 0
      vertex -6 -6.77146 3
      vertex -6 -5.00382 0
    endloop
  endfacet
  facet normal -1 0 0
    outer loop
      vertex -6 -2.91665 0.909039
      vertex -6 -6.77146 3
      vertex -6 6.77146 3
    endloop
  endfacet
  facet normal -1 0 0
    outer loop
      vertex -6 5.00382 0
      vertex -6 6.77146 3
      vertex -6 6.77146 0
    endloop
  endfacet
  facet normal -1 0 0
    outer loop
      vertex -6 4.90904 1.08335
      vertex -6 6.77146 3
      vertex -6 5.00382 0
    endloop
  endfacet
  facet normal -1 0 0
    outer loop
      vertex -6 2.91665 0.909039
      vertex -6 6.77146 3
      vertex -6 4.90904 1.08335
    endloop
  endfacet
  facet normal -1 0 0
    outer loop
      vertex -6 -2.91665 0.909039
      vertex -6 6.77146 3
      vertex -6 2.91665 0.909039
    endloop
  endfacet
  facet normal -1 0 0
    outer loop
      vertex -6 -2.91665 0.909039
      vertex -6 2.91665 0.909039
      vertex -6 -2.99618 0
    endloop
  endfacet
  facet normal -1 0 0
    outer loop
      vertex -6 -4.90904 1.08335
      vertex -6 -6.77146 3
      vertex -6 -2.91665 0.909039
    endloop
  endfacet
  facet normal -1 0 0
    outer loop
      vertex -6 -5.00382 0
      vertex -6 -6.77146 3
      vertex -6 -4.90904 1.08335
    endloop
  endfacet
  facet normal -1 0 0
    outer loop
      vertex -6 2.99618 0
      vertex -6 -2.99618 0
      vertex -6 2.91665 0.909039
    endloop
  endfacet
  facet normal 0 0.996195 -0.0871557
    outer loop
      vertex -10.6735 -4.73473 3.07574
      vertex -8.26466 -4.73473 3.07574
      vertex -10.4969 -5.00382 0
    endloop
  endfacet
  facet normal 0 0.996195 -0.0871557
    outer loop
      vertex -10.4969 -5.00382 0
      vertex -8.26466 -4.73473 3.07574
      vertex -8.08334 -5.00382 0
    endloop
  endfacet
  facet normal 0 0 -1
    outer loop
      vertex -10.4969 -5.00382 0
      vertex -8.08334 -5.00382 0
      vertex -9.7082 -6.20574 0
    endloop
  endfacet
  facet normal 0 0 -1
    outer loop
      vertex -9.7082 -6.20574 0
      vertex -8.08334 -5.00382 0
      vertex -8.06994 -5.02369 0
    endloop
  endfacet
  facet normal 0 0 -1
    outer loop
      vertex -9.7082 -6.20574 0
      vertex -8.06994 -5.02369 0
      vertex -6.67458 -6.35153 0
    endloop
  endfacet
  facet normal 0 0 -1
    outer loop
      vertex -6.67458 -6.35153 0
      vertex -6 -6.77146 0
      vertex -9.7082 -6.20574 0
    endloop
  endfacet
  facet normal 0 0 -1
    outer loop
      vertex -6 -6.77146 0
      vertex -6 -5.00382 0
      vertex 6 -5.00382 0
    endloop
  endfacet
  facet normal 0 0 -1
    outer loop
      vertex -6 -6.77146 0
      vertex 6 -5.00382 0
      vertex 6 -6.77146 0
    endloop
  endfacet
  facet normal 0 0 -1
    outer loop
      vertex 6.67458 -6.35153 0
      vertex 10.4969 -5.00382 0
      vertex 6 -6.77146 0
    endloop
  endfacet
  facet normal 0 0 -1
    outer loop
      vertex 8.06994 -5.02369 0
      vertex 8.08334 -5.00382 0
      vertex 10.4969 -5.00382 0
    endloop
  endfacet
  facet normal 0 0 -1
    outer loop
      vertex 8.06994 -5.02369 0
      vertex 10.4969 -5.00382 0
      vertex 6.67458 -6.35153 0
    endloop
  endfacet
  facet normal 0 0 -1
    outer loop
      vertex 6 -6.77146 0
      vertex 10.4969 -5.00382 0
      vertex 9.7082 -6.20574 0
    endloop
  endfacet
  facet normal 0 0 -1
    outer loop
      vertex 6 -6.77146 0
      vertex 9.7082 -6.20574 0
      vertex 8.02957 -7.846 0
    endloop
  endfacet
  facet normal 0 0 -1
    outer loop
      vertex 6 -6.77146 0
      vertex 8.02957 -7.846 0
      vertex -6 -6.77146 0
    endloop
  endfacet
  facet normal 0 0 -1
    outer loop
      vertex -6 -6.77146 0
      vertex 8.02957 -7.846 0
      vertex 6 -9.14335 0
    endloop
  endfacet
  facet normal 0 0 -1
    outer loop
      vertex -6 -6.77146 0
      vertex 6 -9.14335 0
      vertex -9.7082 -6.20574 0
    endloop
  endfacet
  facet normal 0 0 -1
    outer loop
      vertex -9.7082 -6.20574 0
      vertex 6 -9.14335 0
      vertex 3.7082 -10.0411 0
    endloop
  endfacet
  facet normal 0 0 -1
    outer loop
      vertex -9.7082 -6.20574 0
      vertex 3.7082 -10.0411 0
      vertex 1.25434 -10.5 0
    endloop
  endfacet
  facet normal 0 0 -1
    outer loop
      vertex -9.7082 -6.20574 0
      vertex 1.25434 -10.5 0
      vertex -1.25434 -10.5 0
    endloop
  endfacet
  facet normal 0 0 -1
    outer loop
      vertex -9.7082 -6.20574 0
      vertex -1.25434 -10.5 0
      vertex -3.7082 -10.0411 0
    endloop
  endfacet
  facet normal 0 0 -1
    outer loop
      vertex -9.7082 -6.20574 0
      vertex -3.7082 -10.0411 0
      vertex -6 -9.14335 0
    endloop
  endfacet
  facet normal 0 0 -1
    outer loop
      vertex -9.7082 -6.20574 0
      vertex -6 -9.14335 0
      vertex -8.02957 -7.846 0
    endloop
  endfacet
  facet normal 1 0 0
    outer loop
      vertex 6 -6.77146 3
      vertex 6 -6.77146 0
      vertex 6 -5.00382 0
    endloop
  endfacet
  facet normal 1 0 0
    outer loop
      vertex 6 -2.91665 0.909039
      vertex 6 -6.77146 3
      vertex 6 -4.90904 1.08335
    endloop
  endfacet
  facet normal 1 0 0
    outer loop
      vertex 6 -4.90904 1.08335
      vertex 6 -6.77146 3
      vertex 6 -5.00382 0
    endloop
  endfacet
  facet normal 1 0 0
    outer loop
      vertex 6 2.99618 0
      vertex 6 -6.77146 3
      vertex 6 -2.91665 0.909039
    endloop
  endfacet
  facet normal 1 0 0
    outer loop
      vertex 6 2.99618 0
      vertex 6 -2.91665 0.909039
      vertex 6 -2.99618 0
    endloop
  endfacet
  facet normal 1 0 0
    outer loop
      vertex 6 2.91665 0.909039
      vertex 6 -6.77146 3
      vertex 6 2.99618 0
    endloop
  endfacet
  facet normal 1 0 0
    outer loop
      vertex 6 4.90904 1.08335
      vertex 6 -6.77146 3
      vertex 6 2.91665 0.909039
    endloop
  endfacet
  facet normal 1 0 0
    outer loop
      vertex 6 6.77146 3
      vertex 6 -6.77146 3
      vertex 6 4.90904 1.08335
    endloop
  endfacet
  facet normal 1 0 0
    outer loop
      vertex 6 6.77146 0
      vertex 6 4.90904 1.08335
      vertex 6 5.00382 0
    endloop
  endfacet
  facet normal 1 0 0
    outer loop
      vertex 6 6.77146 3
      vertex 6 4.90904 1.08335
      vertex 6 6.77146 0
    endloop
  endfacet
  facet normal 0 0.996195 -0.0871557
    outer loop
      vertex 8.08334 -5.00382 0
      vertex 8.26466 -4.73473 3.07574
      vertex 10.4969 -5.00382 0
    endloop
  endfacet
  facet normal 0 0.996195 -0.0871557
    outer loop
      vertex 10.4969 -5.00382 0
      vertex 8.26466 -4.73473 3.07574
      vertex 10.6735 -4.73473 3.07574
    endloop
  endfacet
  facet normal 0 -0.0871557 -0.996195
    outer loop
      vertex 8.26466 -4.73473 3.07574
      vertex 9.11262 -3.47631 2.96564
      vertex 10.6735 -4.73473 3.07574
    endloop
  endfacet
  facet normal 0 -0.0871557 -0.996195
    outer loop
      vertex 10.6735 -4.73473 3.07574
      vertex 9.11262 -3.47631 2.96564
      vertex 9.39095 -2.74234 2.90143
    endloop
  endfacet
  facet normal 0 -0.0871557 -0.996195
    outer loop
      vertex 10.6735 -4.73473 3.07574
      vertex 9.39095 -2.74234 2.90143
      vertex 11.5357 -2.74234 2.90143
    endloop
  endfacet
  facet normal 0 -0.0871557 -0.996195
    outer loop
      vertex 10.6735 -4.73473 3.07574
      vertex 11.5357 -2.74234 2.90143
      vertex 10.9625 -4.29426 3.0372
    endloop
  endfacet
  facet normal 0 -0.996195 0.0871557
    outer loop
      vertex 9.39095 -2.74234 2.90143
      vertex 9.29469 -2.99618 0
      vertex 11.4419 -2.99618 0
    endloop
  endfacet
  facet normal 0 -0.996195 0.0871557
    outer loop
      vertex 11.5357 -2.74234 2.90143
      vertex 9.39095 -2.74234 2.90143
      vertex 11.4419 -2.99618 0
    endloop
  endfacet
  facet normal 0 0 -1
    outer loop
      vertex 7.99018 -2.61635 0
      vertex 8.31425 -1.67246 0
      vertex 9.43872 -2.61635 0
    endloop
  endfacet
  facet normal 0 0 -1
    outer loop
      vertex 9.43872 -2.61635 0
      vertex 8.31425 -1.67246 0
      vertex 8.5 0 0
    endloop
  endfacet
  facet normal 0 0 -1
    outer loop
      vertex 8.5 0 0
      vertex 8.31425 1.67246 0
      vertex 9.43872 -2.61635 0
    endloop
  endfacet
  facet normal 0 0 -1
    outer loop
      vertex 8.31425 1.67246 0
      vertex 7.99018 2.61635 0
      vertex 9.43872 2.61635 0
    endloop
  endfacet
  facet normal 0 0 -1
    outer loop
      vertex 8.31425 1.67246 0
      vertex 9.43872 2.61635 0
      vertex 9.43872 -2.61635 0
    endloop
  endfacet
  facet normal 0 0 -1
    outer loop
      vertex 9.43872 2.61635 0
      vertex 9.29469 2.99618 0
      vertex 11.4419 2.99618 0
    endloop
  endfacet
  facet normal 0 0 -1
    outer loop
      vertex 9.43872 2.61635 0
      vertex 11.4419 2.99618 0
      vertex 9.43872 -2.61635 0
    endloop
  endfacet
  facet normal 0 0 -1
    outer loop
      vertex 9.43872 -2.61635 0
      vertex 11.4419 2.99618 0
      vertex 11.7378 2.1951 0
    endloop
  endfacet
  facet normal 0 0 -1
    outer loop
      vertex 9.43872 -2.61635 0
      vertex 11.7378 2.1951 0
      vertex 12 0 0
    endloop
  endfacet
  facet normal 0 0 -1
    outer loop
      vertex 9.43872 -2.61635 0
      vertex 12 0 0
      vertex 11.7378 -2.1951 0
    endloop
  endfacet
  facet normal 0 0 -1
    outer loop
      vertex 9.43872 -2.61635 0
      vertex 11.7378 -2.1951 0
      vertex 11.4419 -2.99618 0
    endloop
  endfacet
  facet normal 0 0 -1
    outer loop
      vertex 9.43872 -2.61635 0
      vertex 11.4419 -2.99618 0
      vertex 9.29469 -2.99618 0
    endloop
  endfacet
  facet normal 0 0 1
    outer loop
      vertex 8.31425 -1.67246 16
      vertex 8.20147 -2.00096 16
      vertex 9.69633 -2.00096 16
    endloop
  endfacet
  facet normal 0 0 1
    outer loop
      vertex 10 0 16
      vertex 8.31425 -1.67246 16
      vertex 9.78148 -1.77698 16
    endloop
  endfacet
  facet normal 0 0 1
    outer loop
      vertex 9.78148 -1.77698 16
      vertex 8.31425 -1.67246 16
      vertex 9.69633 -2.00096 16
    endloop
  endfacet
  facet normal 0 0 1
    outer loop
      vertex 9.78148 1.77698 16
      vertex 8.31425 -1.67246 16
      vertex 10 0 16
    endloop
  endfacet
  facet normal 0 0 1
    outer loop
      vertex 9.69633 2.00096 16
      vertex 8.31425 -1.67246 16
      vertex 9.78148 1.77698 16
    endloop
  endfacet
  facet normal 0 0 1
    outer loop
      vertex 8.5 0 16
      vertex 8.31425 -1.67246 16
      vertex 9.69633 2.00096 16
    endloop
  endfacet
  facet normal 0 0 1
    outer loop
      vertex 8.20147 2.00096 16
      vertex 8.31425 1.67246 16
      vertex 9.69633 2.00096 16
    endloop
  endfacet
  facet normal 0 0 1
    outer loop
      vertex 8.31425 1.67246 16
      vertex 8.5 0 16
      vertex 9.69633 2.00096 16
    endloop
  endfacet
  facet normal -0.945807 0.32473 0
    outer loop
      vertex 8.31425 -1.67246 16
      vertex 8.31425 -1.67246 0
      vertex 8.20147 -2.00096 16
    endloop
  endfacet
  facet normal -0.945807 0.32473 0
    outer loop
      vertex 8.20147 -2.00096 16
      vertex 8.31425 -1.67246 0
      vertex 7.99018 -2.61635 0
    endloop
  endfacet
  facet normal -0.945807 -0.32473 0
    outer loop
      vertex 8.31425 1.67246 16
      vertex 8.20147 2.00096 16
      vertex 8.31425 1.67246 0
    endloop
  endfacet
  facet normal -0.945807 -0.32473 0
    outer loop
      vertex 8.31425 1.67246 0
      vertex 8.20147 2.00096 16
      vertex 7.99018 2.61635 0
    endloop
  endfacet
  facet normal 0 0.996195 0.0871557
    outer loop
      vertex 11.5357 2.74234 2.90143
      vertex 11.4419 2.99618 0
      vertex 9.39095 2.74234 2.90143
    endloop
  endfacet
  facet normal 0 0.996195 0.0871557
    outer loop
      vertex 9.39095 2.74234 2.90143
      vertex 11.4419 2.99618 0
      vertex 9.29469 2.99618 0
    endloop
  endfacet
  facet normal 0 0.0871557 -0.996195
    outer loop
      vertex 10.9625 4.29426 3.0372
      vertex 11.5357 2.74234 2.90143
      vertex 10.6735 4.73473 3.07574
    endloop
  endfacet
  facet normal 0 0.0871557 -0.996195
    outer loop
      vertex 10.6735 4.73473 3.07574
      vertex 11.5357 2.74234 2.90143
      vertex 9.39095 2.74234 2.90143
    endloop
  endfacet
  facet normal 0 0.0871557 -0.996195
    outer loop
      vertex 10.6735 4.73473 3.07574
      vertex 9.39095 2.74234 2.90143
      vertex 9.11262 3.47631 2.96564
    endloop
  endfacet
  facet normal 0 0.0871557 -0.996195
    outer loop
      vertex 10.6735 4.73473 3.07574
      vertex 9.11262 3.47631 2.96564
      vertex 8.26466 4.73473 3.07574
    endloop
  endfacet
  facet normal 0 -0.996195 -0.0871557
    outer loop
      vertex 10.4969 5.00382 0
      vertex 10.6735 4.73473 3.07574
      vertex 8.26466 4.73473 3.07574
    endloop
  endfacet
  facet normal 0 -0.996195 -0.0871557
    outer loop
      vertex 8.08334 5.00382 0
      vertex 10.4969 5.00382 0
      vertex 8.26466 4.73473 3.07574
    endloop
  endfacet
  facet normal -0.179176 -0.983817 0
    outer loop
      vertex 3.08244 8.12851 3
      vertex 3.08244 8.12851 9
      vertex 1.04267 8.5 9
    endloop
  endfacet
  facet normal -0.179176 -0.983817 0
    outer loop
      vertex 1.04267 8.5 3
      vertex 3.08244 8.12851 3
      vertex 1.04267 8.5 9
    endloop
  endfacet
  facet normal 0.183825 0.982959 0
    outer loop
      vertex 1.25434 10.5 0
      vertex 1.25434 10.5 9
      vertex 3.7082 10.0411 0
    endloop
  endfacet
  facet normal 0.183825 0.982959 0
    outer loop
      vertex 3.7082 10.0411 0
      vertex 1.25434 10.5 9
      vertex 3.7082 10.0411 9
    endloop
  endfacet
  facet normal 0 -0.996195 -0.0871557
    outer loop
      vertex -6 5.00382 0
      vertex 6 5.00382 0
      vertex 6 4.90904 1.08335
    endloop
  endfacet
  facet normal 0 -0.996195 -0.0871557
    outer loop
      vertex -6 4.90904 1.08335
      vertex -6 5.00382 0
      vertex 6 4.90904 1.08335
    endloop
  endfacet
  facet normal 0 1 0
    outer loop
      vertex -1.25434 10.5 0
      vertex -1.25434 10.5 9
      vertex 1.25434 10.5 0
    endloop
  endfacet
  facet normal 0 1 0
    outer loop
      vertex 1.25434 10.5 0
      vertex -1.25434 10.5 9
      vertex 1.25434 10.5 9
    endloop
  endfacet
  facet normal 0 -1 0
    outer loop
      vertex 1.04267 8.5 3
      vertex 1.04267 8.5 9
      vertex -1.04267 8.5 9
    endloop
  endfacet
  facet normal 0 -1 0
    outer loop
      vertex -1.04267 8.5 3
      vertex 1.04267 8.5 3
      vertex -1.04267 8.5 9
    endloop
  endfacet
  facet normal 0 0.996195 -0.0871557
    outer loop
      vertex -6 -5.00382 0
      vertex -6 -4.90904 1.08335
      vertex 6 -5.00382 0
    endloop
  endfacet
  facet normal 0 0.996195 -0.0871557
    outer loop
      vertex 6 -5.00382 0
      vertex -6 -4.90904 1.08335
      vertex 6 -4.90904 1.08335
    endloop
  endfacet
  facet normal 0 -0.0871557 -0.996195
    outer loop
      vertex -6 -4.90904 1.08335
      vertex -6 -2.91665 0.909039
      vertex 6 -4.90904 1.08335
    endloop
  endfacet
  facet normal 0 -0.0871557 -0.996195
    outer loop
      vertex 6 -4.90904 1.08335
      vertex -6 -2.91665 0.909039
      vertex 6 -2.91665 0.909039
    endloop
  endfacet
  facet normal 0 -0.996195 0.0871557
    outer loop
      vertex -6 -2.91665 0.909039
      vertex -6 -2.99618 0
      vertex 6 -2.99618 0
    endloop
  endfacet
  facet normal 0 -0.996195 0.0871557
    outer loop
      vertex 6 -2.91665 0.909039
      vertex -6 -2.91665 0.909039
      vertex 6 -2.99618 0
    endloop
  endfacet
  facet normal 0 0 -1
    outer loop
      vertex -6 -2.99618 0
      vertex -6 2.99618 0
      vertex 6 -2.99618 0
    endloop
  endfacet
  facet normal 0 0 -1
    outer loop
      vertex 6 -2.99618 0
      vertex -6 2.99618 0
      vertex 6 2.99618 0
    endloop
  endfacet
  facet normal 0 0.996195 0.0871557
    outer loop
      vertex 6 2.99618 0
      vertex -6 2.99618 0
      vertex 6 2.91665 0.909039
    endloop
  endfacet
  facet normal 0 0.996195 0.0871557
    outer loop
      vertex 6 2.91665 0.909039
      vertex -6 2.99618 0
      vertex -6 2.91665 0.909039
    endloop
  endfacet
  facet normal 0 0.0871557 -0.996195
    outer loop
      vertex 6 4.90904 1.08335
      vertex 6 2.91665 0.909039
      vertex -6 4.90904 1.08335
    endloop
  endfacet
  facet normal 0 0.0871557 -0.996195
    outer loop
      vertex -6 4.90904 1.08335
      vertex 6 2.91665 0.909039
      vertex -6 2.91665 0.909039
    endloop
  endfacet
  facet normal -0.993889 -0.110383 0
    outer loop
      vertex 8.5 0 16
      vertex 8.31425 1.67246 16
      vertex 8.5 0 0
    endloop
  endfacet
  facet normal -0.993889 -0.110383 0
    outer loop
      vertex 8.5 0 0
      vertex 8.31425 1.67246 16
      vertex 8.31425 1.67246 0
    endloop
  endfacet
  facet normal -0.993889 0.110383 0
    outer loop
      vertex 8.5 0 16
      vertex 8.5 0 0
      vertex 8.31425 -1.67246 16
    endloop
  endfacet
  facet normal -0.993889 0.110383 0
    outer loop
      vertex 8.31425 -1.67246 16
      vertex 8.5 0 0
      vertex 8.31425 -1.67246 0
    endloop
  endfacet
endsolid OpenSCAD_Model
