solid OpenSCAD_Model
  facet normal -0.707107 -0.707107 0
    outer loop
      vertex -2.05061 -15.6271 -4.525
      vertex -19.0212 1.3435 -0.974999
      vertex -19.0212 1.3435 -4.525
    endloop
  endfacet
  facet normal -0.707107 -0.707107 0
    outer loop
      vertex -19.0212 1.3435 -0.974999
      vertex -2.05061 -15.6271 -4.525
      vertex -2.05061 -15.6271 -0.974999
    endloop
  endfacet
  facet normal -0 0 -1
    outer loop
      vertex -5.55112e-016 -7.07107 -4.525
      vertex -6.87851 -9.46272 -4.525
      vertex -5.93263 -5.93263 -4.525
    endloop
  endfacet
  facet normal 0 0 -1
    outer loop
      vertex -2.05061 -15.6271 -4.525
      vertex -7.54539 -8.79585 -4.525
      vertex -6.87851 -9.46272 -4.525
    endloop
  endfacet
  facet normal 0 0 -1
    outer loop
      vertex -2.05061 -15.6271 -4.525
      vertex -9.46272 -6.87851 -4.525
      vertex -7.54539 -8.79585 -4.525
    endloop
  endfacet
  facet normal 0 0 -1
    outer loop
      vertex -19.0212 1.3435 -4.525
      vertex -9.86414 -0.388909 -4.525
      vertex -9.46272 -6.87851 -4.525
    endloop
  endfacet
  facet normal 0 0 -1
    outer loop
      vertex -9.86414 -0.388909 -4.525
      vertex -19.0212 1.3435 -4.525
      vertex -13.6825 3.42947 -4.525
    endloop
  endfacet
  facet normal 0 0 -1
    outer loop
      vertex -19.0212 1.3435 -4.525
      vertex -9.46272 -6.87851 -4.525
      vertex -2.05061 -15.6271 -4.525
    endloop
  endfacet
  facet normal -0 0 -1
    outer loop
      vertex -6.89429 0.176777 -4.525
      vertex -7.07107 5.55112e-016 -4.525
      vertex -8.09637 1.37886 -4.525
    endloop
  endfacet
  facet normal -0 0 -1
    outer loop
      vertex 15.6271 2.05061 -4.525
      vertex 7.07107 -5.55112e-016 -4.525
      vertex 9.46272 6.87851 -4.525
    endloop
  endfacet
  facet normal 0 0 -1
    outer loop
      vertex 15.6271 2.05061 -4.525
      vertex -5.55112e-016 -7.07107 -4.525
      vertex 7.07107 -5.55112e-016 -4.525
    endloop
  endfacet
  facet normal 0 0 -1
    outer loop
      vertex -2.05061 -15.6271 -4.525
      vertex -5.55112e-016 -7.07107 -4.525
      vertex 15.6271 2.05061 -4.525
    endloop
  endfacet
  facet normal 0 0 -1
    outer loop
      vertex -6.87851 -9.46272 -4.525
      vertex -5.55112e-016 -7.07107 -4.525
      vertex -2.05061 -15.6271 -4.525
    endloop
  endfacet
  facet normal 0 0 -1
    outer loop
      vertex -5.93263 -5.93263 -4.525
      vertex -7.07107 5.55112e-016 -4.525
      vertex -5.55112e-016 -7.07107 -4.525
    endloop
  endfacet
  facet normal 0 0 -1
    outer loop
      vertex -6.84359 -6.17672 -4.525
      vertex -7.07107 5.55112e-016 -4.525
      vertex -5.93263 -5.93263 -4.525
    endloop
  endfacet
  facet normal 0 0 -1
    outer loop
      vertex -9.86414 -0.388909 -4.525
      vertex -7.07107 5.55112e-016 -4.525
      vertex -6.84359 -6.17672 -4.525
    endloop
  endfacet
  facet normal 0 0 -1
    outer loop
      vertex -9.86414 -0.388909 -4.525
      vertex -6.84359 -6.17672 -4.525
      vertex -9.46272 -6.87851 -4.525
    endloop
  endfacet
  facet normal -0 0 -1
    outer loop
      vertex -7.07107 5.55112e-016 -4.525
      vertex -9.86414 -0.388909 -4.525
      vertex -8.09637 1.37886 -4.525
    endloop
  endfacet
  facet normal 0 0 -1
    outer loop
      vertex 8.79585 7.54539 -4.525
      vertex 15.6271 2.05061 -4.525
      vertex 9.46272 6.87851 -4.525
    endloop
  endfacet
  facet normal 0 0 -1
    outer loop
      vertex 6.87851 9.46272 -4.525
      vertex 15.6271 2.05061 -4.525
      vertex 8.79585 7.54539 -4.525
    endloop
  endfacet
  facet normal 0 0 -1
    outer loop
      vertex 5.55112e-016 7.07107 -4.525
      vertex 6.17672 6.84359 -4.525
      vertex 5.93263 5.93263 -4.525
    endloop
  endfacet
  facet normal 0 0 -1
    outer loop
      vertex 5.55112e-016 7.07107 -4.525
      vertex 6.87851 9.46272 -4.525
      vertex 6.17672 6.84359 -4.525
    endloop
  endfacet
  facet normal 0 0 -1
    outer loop
      vertex 6.87851 9.46272 -4.525
      vertex -1.3435 19.0212 -4.525
      vertex 15.6271 2.05061 -4.525
    endloop
  endfacet
  facet normal 0 0 -1
    outer loop
      vertex 5.55112e-016 7.07107 -4.525
      vertex -1.3435 19.0212 -4.525
      vertex 6.87851 9.46272 -4.525
    endloop
  endfacet
  facet normal 0 0 -1
    outer loop
      vertex -5.19723 11.9147 -4.525
      vertex 5.55112e-016 7.07107 -4.525
      vertex -0.176777 6.89429 -4.525
    endloop
  endfacet
  facet normal 0 0 -1
    outer loop
      vertex 5.55112e-016 7.07107 -4.525
      vertex -5.19723 11.9147 -4.525
      vertex -1.3435 19.0212 -4.525
    endloop
  endfacet
  facet normal 0 0 -1
    outer loop
      vertex -19.0212 1.3435 -4.525
      vertex -5.19723 11.9147 -4.525
      vertex -13.6825 3.42947 -4.525
    endloop
  endfacet
  facet normal -0 0 -1
    outer loop
      vertex -5.19723 11.9147 -4.525
      vertex -19.0212 1.3435 -4.525
      vertex -1.3435 19.0212 -4.525
    endloop
  endfacet
  facet normal 0 0 -1
    outer loop
      vertex 7.07107 -5.55112e-016 -4.525
      vertex 5.93263 5.93263 -4.525
      vertex 9.46272 6.87851 -4.525
    endloop
  endfacet
  facet normal -0 -0 -1
    outer loop
      vertex 5.93263 5.93263 -4.525
      vertex 7.07107 -5.55112e-016 -4.525
      vertex 5.55112e-016 7.07107 -4.525
    endloop
  endfacet
  facet normal 0.707107 -0.707107 0
    outer loop
      vertex 13.5057 -0.0707107 0.0249996
      vertex 15.6271 2.05061 -4.525
      vertex 15.6271 2.05061 -0.974999
    endloop
  endfacet
  facet normal 0.707107 -0.707107 7.06307e-008
    outer loop
      vertex 0.0707107 -13.5057 0.0249996
      vertex 15.6271 2.05061 -4.525
      vertex 13.5057 -0.0707107 0.0249996
    endloop
  endfacet
  facet normal 0.707107 -0.707107 0
    outer loop
      vertex -2.05061 -15.6271 -4.525
      vertex 0.0707107 -13.5057 0.0249996
      vertex -2.05061 -15.6271 -0.974999
    endloop
  endfacet
  facet normal 0.707107 -0.707107 7.06307e-008
    outer loop
      vertex 0.0707107 -13.5057 0.0249996
      vertex -2.05061 -15.6271 -4.525
      vertex 15.6271 2.05061 -4.525
    endloop
  endfacet
  facet normal -0.707107 0.707107 0
    outer loop
      vertex -1.3435 19.0212 -4.525
      vertex -3.46482 16.8999 0.0249996
      vertex -1.3435 19.0212 -0.974999
    endloop
  endfacet
  facet normal -0.707107 0.707107 -2.40839e-007
    outer loop
      vertex -1.3435 19.0212 -4.525
      vertex -16.8999 3.46482 0.0249996
      vertex -3.46482 16.8999 0.0249996
    endloop
  endfacet
  facet normal -0.707107 0.707107 -2.40839e-007
    outer loop
      vertex -19.0212 1.3435 -4.525
      vertex -16.8999 3.46482 0.0249996
      vertex -1.3435 19.0212 -4.525
    endloop
  endfacet
  facet normal -0.707107 0.707107 0
    outer loop
      vertex -16.8999 3.46482 0.0249996
      vertex -19.0212 1.3435 -4.525
      vertex -19.0212 1.3435 -0.974999
    endloop
  endfacet
  facet normal 0.707107 0.707107 0
    outer loop
      vertex 15.6271 2.05061 -0.974999
      vertex -1.3435 19.0212 -4.525
      vertex -1.3435 19.0212 -0.974999
    endloop
  endfacet
  facet normal 0.707107 0.707107 0
    outer loop
      vertex -1.3435 19.0212 -4.525
      vertex 15.6271 2.05061 -0.974999
      vertex 15.6271 2.05061 -4.525
    endloop
  endfacet
  facet normal 0 0 1
    outer loop
      vertex 1.64554 3.97268 0.0249996
      vertex 6.6468 6.6468 0.0249996
      vertex 6.67669 6.75834 0.0249996
    endloop
  endfacet
  facet normal 0 0 1
    outer loop
      vertex 6.6468 6.6468 0.0249996
      vertex 4.21738 0.838889 0.0249996
      vertex 4.3 -3.3757e-016 0.0249996
    endloop
  endfacet
  facet normal 0 0 1
    outer loop
      vertex 6.6468 6.6468 0.0249996
      vertex 3.97268 1.64554 0.0249996
      vertex 4.21738 0.838889 0.0249996
    endloop
  endfacet
  facet normal 0 0 1
    outer loop
      vertex 6.6468 6.6468 0.0249996
      vertex 3.57532 2.38895 0.0249996
      vertex 3.97268 1.64554 0.0249996
    endloop
  endfacet
  facet normal 0 0 1
    outer loop
      vertex 6.6468 6.6468 0.0249996
      vertex 3.04056 3.04056 0.0249996
      vertex 3.57532 2.38895 0.0249996
    endloop
  endfacet
  facet normal 0 0 1
    outer loop
      vertex 6.6468 6.6468 0.0249996
      vertex 2.38895 3.57532 0.0249996
      vertex 3.04056 3.04056 0.0249996
    endloop
  endfacet
  facet normal 0 0 1
    outer loop
      vertex 6.6468 6.6468 0.0249996
      vertex 1.64554 3.97268 0.0249996
      vertex 2.38895 3.57532 0.0249996
    endloop
  endfacet
  facet normal 0 0 1
    outer loop
      vertex 6.67669 6.75834 0.0249996
      vertex 0.838889 4.21738 0.0249996
      vertex 1.64554 3.97268 0.0249996
    endloop
  endfacet
  facet normal 0 0 1
    outer loop
      vertex 6.67669 6.75834 0.0249996
      vertex 3.3757e-016 4.3 0.0249996
      vertex 0.838889 4.21738 0.0249996
    endloop
  endfacet
  facet normal 0 0 1
    outer loop
      vertex -3.46482 16.8999 0.0249996
      vertex 3.3757e-016 4.3 0.0249996
      vertex 6.67669 6.75834 0.0249996
    endloop
  endfacet
  facet normal 0 0 1
    outer loop
      vertex 3.3757e-016 4.3 0.0249996
      vertex -3.46482 16.8999 0.0249996
      vertex -0.838889 4.21738 0.0249996
    endloop
  endfacet
  facet normal 0 0 1
    outer loop
      vertex -0.838889 4.21738 0.0249996
      vertex -3.46482 16.8999 0.0249996
      vertex -1.64554 3.97268 0.0249996
    endloop
  endfacet
  facet normal 0 0 1
    outer loop
      vertex -3.46482 16.8999 0.0249996
      vertex -2.38895 3.57532 0.0249996
      vertex -1.64554 3.97268 0.0249996
    endloop
  endfacet
  facet normal 0 0 1
    outer loop
      vertex -3.46482 16.8999 0.0249996
      vertex -3.04056 3.04056 0.0249996
      vertex -2.38895 3.57532 0.0249996
    endloop
  endfacet
  facet normal -0 0 1
    outer loop
      vertex -16.8999 3.46482 0.0249996
      vertex -3.04056 3.04056 0.0249996
      vertex -3.46482 16.8999 0.0249996
    endloop
  endfacet
  facet normal 0 0 1
    outer loop
      vertex -3.04056 3.04056 0.0249996
      vertex -16.8999 3.46482 0.0249996
      vertex -3.57532 2.38895 0.0249996
    endloop
  endfacet
  facet normal 0 0 1
    outer loop
      vertex -3.57532 2.38895 0.0249996
      vertex -16.8999 3.46482 0.0249996
      vertex -3.97268 1.64554 0.0249996
    endloop
  endfacet
  facet normal 0 0 1
    outer loop
      vertex -3.97268 1.64554 0.0249996
      vertex -16.8999 3.46482 0.0249996
      vertex -4.21738 0.838889 0.0249996
    endloop
  endfacet
  facet normal 0 0 1
    outer loop
      vertex -4.21738 0.838889 0.0249996
      vertex -16.8999 3.46482 0.0249996
      vertex -4.3 3.3757e-016 0.0249996
    endloop
  endfacet
  facet normal 0 -0 1
    outer loop
      vertex -6.75834 -6.67669 0.0249996
      vertex -4.3 3.3757e-016 0.0249996
      vertex -16.8999 3.46482 0.0249996
    endloop
  endfacet
  facet normal 0 0 1
    outer loop
      vertex -4.3 3.3757e-016 0.0249996
      vertex -6.75834 -6.67669 0.0249996
      vertex -6.6468 -6.6468 0.0249996
    endloop
  endfacet
  facet normal 0 0 1
    outer loop
      vertex 4.3 -3.3757e-016 0.0249996
      vertex 6.75834 6.67669 0.0249996
      vertex 6.6468 6.6468 0.0249996
    endloop
  endfacet
  facet normal 0 0 1
    outer loop
      vertex 6.75834 6.67669 0.0249996
      vertex 4.3 -3.3757e-016 0.0249996
      vertex 13.5057 -0.0707107 0.0249996
    endloop
  endfacet
  facet normal 0 0 1
    outer loop
      vertex 4.21738 -0.838889 0.0249996
      vertex 13.5057 -0.0707107 0.0249996
      vertex 4.3 -3.3757e-016 0.0249996
    endloop
  endfacet
  facet normal 0 0 1
    outer loop
      vertex 3.97268 -1.64554 0.0249996
      vertex 13.5057 -0.0707107 0.0249996
      vertex 4.21738 -0.838889 0.0249996
    endloop
  endfacet
  facet normal 0 0 1
    outer loop
      vertex 3.57532 -2.38895 0.0249996
      vertex 13.5057 -0.0707107 0.0249996
      vertex 3.97268 -1.64554 0.0249996
    endloop
  endfacet
  facet normal 0 0 1
    outer loop
      vertex 3.04056 -3.04056 0.0249996
      vertex 13.5057 -0.0707107 0.0249996
      vertex 3.57532 -2.38895 0.0249996
    endloop
  endfacet
  facet normal 0 0 1
    outer loop
      vertex 0.0707107 -13.5057 0.0249996
      vertex 3.04056 -3.04056 0.0249996
      vertex 2.38895 -3.57532 0.0249996
    endloop
  endfacet
  facet normal 0 0 1
    outer loop
      vertex 0.0707107 -13.5057 0.0249996
      vertex 2.38895 -3.57532 0.0249996
      vertex 1.64554 -3.97268 0.0249996
    endloop
  endfacet
  facet normal -0 0 1
    outer loop
      vertex 3.04056 -3.04056 0.0249996
      vertex 0.0707107 -13.5057 0.0249996
      vertex 13.5057 -0.0707107 0.0249996
    endloop
  endfacet
  facet normal -0 0 1
    outer loop
      vertex 0.838889 -4.21738 0.0249996
      vertex 0.0707107 -13.5057 0.0249996
      vertex 1.64554 -3.97268 0.0249996
    endloop
  endfacet
  facet normal -0 0 1
    outer loop
      vertex -3.3757e-016 -4.3 0.0249996
      vertex 0.0707107 -13.5057 0.0249996
      vertex 0.838889 -4.21738 0.0249996
    endloop
  endfacet
  facet normal 0 0 1
    outer loop
      vertex -0.838889 -4.21738 0.0249996
      vertex 0.0707107 -13.5057 0.0249996
      vertex -3.3757e-016 -4.3 0.0249996
    endloop
  endfacet
  facet normal 0 0 1
    outer loop
      vertex -6.67669 -6.75834 0.0249996
      vertex -0.838889 -4.21738 0.0249996
      vertex -1.64554 -3.97268 0.0249996
    endloop
  endfacet
  facet normal 0 0 1
    outer loop
      vertex -6.6468 -6.6468 0.0249996
      vertex -1.64554 -3.97268 0.0249996
      vertex -2.38895 -3.57532 0.0249996
    endloop
  endfacet
  facet normal 0 0 1
    outer loop
      vertex -6.6468 -6.6468 0.0249996
      vertex -2.38895 -3.57532 0.0249996
      vertex -3.04056 -3.04056 0.0249996
    endloop
  endfacet
  facet normal 0 0 1
    outer loop
      vertex -6.6468 -6.6468 0.0249996
      vertex -3.04056 -3.04056 0.0249996
      vertex -3.57532 -2.38895 0.0249996
    endloop
  endfacet
  facet normal 0 0 1
    outer loop
      vertex -6.6468 -6.6468 0.0249996
      vertex -3.57532 -2.38895 0.0249996
      vertex -3.97268 -1.64554 0.0249996
    endloop
  endfacet
  facet normal 0 0 1
    outer loop
      vertex -6.6468 -6.6468 0.0249996
      vertex -4.21738 -0.838889 0.0249996
      vertex -4.3 3.3757e-016 0.0249996
    endloop
  endfacet
  facet normal 0 0 1
    outer loop
      vertex -6.6468 -6.6468 0.0249996
      vertex -3.97268 -1.64554 0.0249996
      vertex -4.21738 -0.838889 0.0249996
    endloop
  endfacet
  facet normal 0 0 1
    outer loop
      vertex -1.64554 -3.97268 0.0249996
      vertex -6.6468 -6.6468 0.0249996
      vertex -6.67669 -6.75834 0.0249996
    endloop
  endfacet
  facet normal 0 0 1
    outer loop
      vertex -0.838889 -4.21738 0.0249996
      vertex -6.67669 -6.75834 0.0249996
      vertex 0.0707107 -13.5057 0.0249996
    endloop
  endfacet
  facet normal 0.223607 0.223607 0.948683
    outer loop
      vertex 15.6271 2.05061 -0.974999
      vertex 8.48714 7.13992 -0.491666
      vertex 13.5057 -0.0707107 0.0249996
    endloop
  endfacet
  facet normal 0.223607 0.223607 0.948683
    outer loop
      vertex 15.6271 2.05061 -0.974999
      vertex 7.13992 8.48714 -0.491666
      vertex 8.48714 7.13992 -0.491666
    endloop
  endfacet
  facet normal 0.223607 0.223607 0.948683
    outer loop
      vertex -1.3435 19.0212 -0.974999
      vertex 7.13992 8.48714 -0.491666
      vertex 15.6271 2.05061 -0.974999
    endloop
  endfacet
  facet normal 0.223607 0.223607 0.948683
    outer loop
      vertex -3.46482 16.8999 0.0249996
      vertex 7.13992 8.48714 -0.491666
      vertex -1.3435 19.0212 -0.974999
    endloop
  endfacet
  facet normal 0.223607 0.223607 0.948683
    outer loop
      vertex 7.13992 8.48714 -0.491666
      vertex -3.46482 16.8999 0.0249996
      vertex 6.67669 6.75834 0.0249996
    endloop
  endfacet
  facet normal 0.223607 0.223607 0.948683
    outer loop
      vertex 13.5057 -0.0707107 0.0249996
      vertex 8.48714 7.13992 -0.491666
      vertex 6.75834 6.67669 0.0249996
    endloop
  endfacet
  facet normal -0.223607 -0.223607 0.948683
    outer loop
      vertex -6.75834 -6.67669 0.0249996
      vertex -16.8999 3.46482 0.0249996
      vertex -8.48714 -7.13992 -0.491666
    endloop
  endfacet
  facet normal -0.223607 -0.223607 0.948683
    outer loop
      vertex -7.13992 -8.48714 -0.491666
      vertex 0.0707107 -13.5057 0.0249996
      vertex -6.67669 -6.75834 0.0249996
    endloop
  endfacet
  facet normal -0.223607 -0.223607 0.948683
    outer loop
      vertex 0.0707107 -13.5057 0.0249996
      vertex -7.13992 -8.48714 -0.491666
      vertex -2.05061 -15.6271 -0.974999
    endloop
  endfacet
  facet normal -0.223607 -0.223607 0.948683
    outer loop
      vertex -8.48714 -7.13992 -0.491666
      vertex -2.05061 -15.6271 -0.974999
      vertex -7.13992 -8.48714 -0.491666
    endloop
  endfacet
  facet normal -0.223607 -0.223607 0.948683
    outer loop
      vertex -19.0212 1.3435 -0.974999
      vertex -8.48714 -7.13992 -0.491666
      vertex -16.8999 3.46482 0.0249996
    endloop
  endfacet
  facet normal -0.223607 -0.223607 0.948683
    outer loop
      vertex -8.48714 -7.13992 -0.491666
      vertex -19.0212 1.3435 -0.974999
      vertex -2.05061 -15.6271 -0.974999
    endloop
  endfacet
  facet normal -0.643726 0.643726 -0.413803
    outer loop
      vertex 7.07107 -5.55112e-016 -4.525
      vertex -5.27356e-016 -6.71751 -3.975
      vertex 6.71751 -5.27356e-016 -3.975
    endloop
  endfacet
  facet normal -0.643726 0.643726 -0.413803
    outer loop
      vertex -5.27356e-016 -6.71751 -3.975
      vertex 7.07107 -5.55112e-016 -4.525
      vertex -5.55112e-016 -7.07107 -4.525
    endloop
  endfacet
  facet normal -0.643726 -0.643726 -0.413803
    outer loop
      vertex 7.07107 -5.55112e-016 -4.525
      vertex 5.27356e-016 6.71751 -3.975
      vertex 5.55112e-016 7.07107 -4.525
    endloop
  endfacet
  facet normal -0.643726 -0.643726 -0.413803
    outer loop
      vertex 5.27356e-016 6.71751 -3.975
      vertex 7.07107 -5.55112e-016 -4.525
      vertex 6.71751 -5.27356e-016 -3.975
    endloop
  endfacet
  facet normal 0.643726 0.643726 -0.413803
    outer loop
      vertex -5.55112e-016 -7.07107 -4.525
      vertex -6.71751 5.27356e-016 -3.975
      vertex -5.27356e-016 -6.71751 -3.975
    endloop
  endfacet
  facet normal 0.643726 0.643726 -0.413803
    outer loop
      vertex -6.71751 5.27356e-016 -3.975
      vertex -5.55112e-016 -7.07107 -4.525
      vertex -7.07107 5.55112e-016 -4.525
    endloop
  endfacet
  facet normal 0.643727 -0.643726 -0.413803
    outer loop
      vertex -0.176777 6.89429 -4.525
      vertex 5.55112e-016 7.07107 -4.525
      vertex 5.27356e-016 6.71751 -3.975
    endloop
  endfacet
  facet normal 0.643726 -0.643727 -0.413803
    outer loop
      vertex -6.89429 0.176777 -4.525
      vertex -6.71751 5.27356e-016 -3.975
      vertex -7.07107 5.55112e-016 -4.525
    endloop
  endfacet
  facet normal 0.707107 0.707107 0
    outer loop
      vertex -5.27356e-016 -6.71751 -1.6
      vertex -6.71751 5.27356e-016 -3.05
      vertex -6.71751 5.27356e-016 -1.6
    endloop
  endfacet
  facet normal 0.707107 0.707107 -0
    outer loop
      vertex -5.27356e-016 -6.71751 -3.975
      vertex -6.71751 5.27356e-016 -3.05
      vertex -5.27356e-016 -6.71751 -1.6
    endloop
  endfacet
  facet normal 0.707107 0.707107 0
    outer loop
      vertex -6.71751 5.27356e-016 -3.05
      vertex -5.27356e-016 -6.71751 -3.975
      vertex -6.71751 5.27356e-016 -3.975
    endloop
  endfacet
  facet normal 0.707107 0.707107 0
    outer loop
      vertex -6.71751 5.27356e-016 -3.975
      vertex -8.09637 1.37886 -4.525
      vertex -8.09637 1.37886 -3.05
    endloop
  endfacet
  facet normal 0.707107 0.707107 -0
    outer loop
      vertex -6.71751 5.27356e-016 -3.975
      vertex -8.09637 1.37886 -3.05
      vertex -6.71751 5.27356e-016 -3.05
    endloop
  endfacet
  facet normal 0.707107 0.707107 4.17525e-007
    outer loop
      vertex -8.09637 1.37886 -4.525
      vertex -6.71751 5.27356e-016 -3.975
      vertex -6.89429 0.176777 -4.525
    endloop
  endfacet
  facet normal -0.707107 0.707107 0
    outer loop
      vertex -5.27356e-016 -6.71751 -3.975
      vertex 6.71751 -5.27356e-016 -1.6
      vertex 6.71751 -5.27356e-016 -3.975
    endloop
  endfacet
  facet normal -0.707107 0.707107 0
    outer loop
      vertex 6.71751 -5.27356e-016 -1.6
      vertex -5.27356e-016 -6.71751 -3.975
      vertex -5.27356e-016 -6.71751 -1.6
    endloop
  endfacet
  facet normal 0.707107 -0.707107 0
    outer loop
      vertex 5.27356e-016 6.71751 -3.05
      vertex 5.27356e-016 6.71751 -1.6
      vertex -1.0253 5.69221 -1.6
    endloop
  endfacet
  facet normal 0.707107 -0.707107 0
    outer loop
      vertex -5.69221 1.0253 -1.6
      vertex -6.71751 5.27356e-016 -1.6
      vertex -6.71751 5.27356e-016 -3.05
    endloop
  endfacet
  facet normal -0.707107 -0.707107 0
    outer loop
      vertex -0.176777 6.89429 -4.525
      vertex -5.19723 11.9147 -3.05
      vertex -5.19723 11.9147 -4.525
    endloop
  endfacet
  facet normal -0.707106 -0.707107 -0
    outer loop
      vertex 5.27356e-016 6.71751 -3.05
      vertex -0.176777 6.89429 -4.525
      vertex 5.27356e-016 6.71751 -3.975
    endloop
  endfacet
  facet normal -0.707107 -0.707107 1.35727e-007
    outer loop
      vertex -0.176777 6.89429 -4.525
      vertex 5.27356e-016 6.71751 -3.05
      vertex -5.19723 11.9147 -3.05
    endloop
  endfacet
  facet normal -0.707107 -0.707107 0
    outer loop
      vertex 6.71751 -5.27356e-016 -3.975
      vertex 5.27356e-016 6.71751 -3.05
      vertex 5.27356e-016 6.71751 -3.975
    endloop
  endfacet
  facet normal -0.707107 -0.707107 -0
    outer loop
      vertex 6.71751 -5.27356e-016 -1.6
      vertex 5.27356e-016 6.71751 -3.05
      vertex 6.71751 -5.27356e-016 -3.975
    endloop
  endfacet
  facet normal -0.707107 -0.707107 0
    outer loop
      vertex 5.27356e-016 6.71751 -3.05
      vertex 6.71751 -5.27356e-016 -1.6
      vertex 5.27356e-016 6.71751 -1.6
    endloop
  endfacet
  facet normal -0.680697 0.680697 -0.270746
    outer loop
      vertex 3.04056 -3.04056 0
      vertex 6.71751 -5.27356e-016 -1.6
      vertex -5.27356e-016 -6.71751 -1.6
    endloop
  endfacet
  facet normal 0.328671 0.614901 -0.716849
    outer loop
      vertex -2.38895 -3.57532 0
      vertex -1.64554 -3.97268 0
      vertex -5.27356e-016 -6.71751 -1.6
    endloop
  endfacet
  facet normal -0.550937 0.671318 -0.495783
    outer loop
      vertex 2.38895 -3.57532 0
      vertex 3.04056 -3.04056 0
      vertex -5.27356e-016 -6.71751 -1.6
    endloop
  endfacet
  facet normal -0.680697 -0.680697 -0.270746
    outer loop
      vertex 5.27356e-016 6.71751 -1.6
      vertex 6.71751 -5.27356e-016 -1.6
      vertex 3.04056 3.04056 0
    endloop
  endfacet
  facet normal 0.680697 -0.680697 -0.270746
    outer loop
      vertex -1.0253 5.69221 -1.6
      vertex 5.27356e-016 6.71751 -1.6
      vertex -1.39962 5.02495 -0.863492
    endloop
  endfacet
  facet normal 0.680697 -0.680697 -0.270746
    outer loop
      vertex -5.69221 1.0253 -1.6
      vertex -5.02495 1.39962 -0.863492
      vertex -6.71751 5.27356e-016 -1.6
    endloop
  endfacet
  facet normal 0.680697 -0.680697 -0.270746
    outer loop
      vertex -1.52028 4.87904 -0.8
      vertex -3.04056 3.04056 0
      vertex -4.87904 1.52028 -0.8
    endloop
  endfacet
  facet normal -0.671318 -0.550937 -0.495783
    outer loop
      vertex 3.04056 3.04056 0
      vertex 6.71751 -5.27356e-016 -1.6
      vertex 3.57532 2.38895 0
    endloop
  endfacet
  facet normal 0.173357 -0.571481 -0.802095
    outer loop
      vertex 5.27356e-016 6.71751 -1.6
      vertex -0.838889 4.21738 0
      vertex -1.64554 3.97268 0
    endloop
  endfacet
  facet normal -0.551095 0.0542782 -0.832675
    outer loop
      vertex 4.3 -3.3757e-016 0
      vertex 6.71751 -5.27356e-016 -1.6
      vertex 4.21738 -0.838889 0
    endloop
  endfacet
  facet normal -0.0542782 0.551095 -0.832675
    outer loop
      vertex -3.3757e-016 -4.3 0
      vertex 0.838889 -4.21738 0
      vertex -5.27356e-016 -6.71751 -1.6
    endloop
  endfacet
  facet normal 0.551095 0.0542782 -0.832675
    outer loop
      vertex -4.3 3.3757e-016 0
      vertex -4.21738 -0.838889 0
      vertex -6.71751 5.27356e-016 -1.6
    endloop
  endfacet
  facet normal 0.680697 0.680697 -0.270746
    outer loop
      vertex -6.71751 5.27356e-016 -1.6
      vertex -3.04056 -3.04056 0
      vertex -5.27356e-016 -6.71751 -1.6
    endloop
  endfacet
  facet normal 0.550937 -0.671318 -0.495783
    outer loop
      vertex -1.52028 4.87904 -0.8
      vertex -2.38895 3.57532 0
      vertex -3.04056 3.04056 0
    endloop
  endfacet
  facet normal 0.550937 -0.671318 -0.495783
    outer loop
      vertex -1.42319 4.95872 -0.8
      vertex -2.38895 3.57532 0
      vertex -1.52028 4.87904 -0.8
    endloop
  endfacet
  facet normal 0.550937 -0.671318 -0.495782
    outer loop
      vertex -1.42319 4.95872 -0.8
      vertex 5.27356e-016 6.71751 -1.6
      vertex -2.38895 3.57532 0
    endloop
  endfacet
  facet normal 0.550934 -0.671318 -0.495786
    outer loop
      vertex 5.27356e-016 6.71751 -1.6
      vertex -1.42319 4.95872 -0.8
      vertex -1.39962 5.02495 -0.863492
    endloop
  endfacet
  facet normal -0.173357 -0.571481 -0.802095
    outer loop
      vertex 5.27356e-016 6.71751 -1.6
      vertex 1.64554 3.97268 0
      vertex 0.838889 4.21738 0
    endloop
  endfacet
  facet normal -0.571481 -0.173357 -0.802095
    outer loop
      vertex 3.97268 1.64554 0
      vertex 6.71751 -5.27356e-016 -1.6
      vertex 4.21738 0.838889 0
    endloop
  endfacet
  facet normal -0.614901 0.328671 -0.716849
    outer loop
      vertex 3.97268 -1.64554 0
      vertex 6.71751 -5.27356e-016 -1.6
      vertex 3.57532 -2.38895 0
    endloop
  endfacet
  facet normal -0.328671 0.614901 -0.716849
    outer loop
      vertex 1.64554 -3.97268 0
      vertex 2.38895 -3.57532 0
      vertex -5.27356e-016 -6.71751 -1.6
    endloop
  endfacet
  facet normal 0.173357 0.571481 -0.802095
    outer loop
      vertex -1.64554 -3.97268 0
      vertex -0.838889 -4.21738 0
      vertex -5.27356e-016 -6.71751 -1.6
    endloop
  endfacet
  facet normal 0.550937 0.671318 -0.495783
    outer loop
      vertex -3.04056 -3.04056 0
      vertex -2.38895 -3.57532 0
      vertex -5.27356e-016 -6.71751 -1.6
    endloop
  endfacet
  facet normal 0.671318 0.550937 -0.495783
    outer loop
      vertex -3.57532 -2.38895 0
      vertex -3.04056 -3.04056 0
      vertex -6.71751 5.27356e-016 -1.6
    endloop
  endfacet
  facet normal 0.614901 -0.328671 -0.716849
    outer loop
      vertex -3.57532 2.38895 0
      vertex -3.97268 1.64554 0
      vertex -6.71751 5.27356e-016 -1.6
    endloop
  endfacet
  facet normal 0.328671 -0.614901 -0.716849
    outer loop
      vertex 5.27356e-016 6.71751 -1.6
      vertex -1.64554 3.97268 0
      vertex -2.38895 3.57532 0
    endloop
  endfacet
  facet normal 0.0542782 -0.551095 -0.832675
    outer loop
      vertex 5.27356e-016 6.71751 -1.6
      vertex 3.3757e-016 4.3 0
      vertex -0.838889 4.21738 0
    endloop
  endfacet
  facet normal -0.550937 -0.671318 -0.495783
    outer loop
      vertex 5.27356e-016 6.71751 -1.6
      vertex 3.04056 3.04056 0
      vertex 2.38895 3.57532 0
    endloop
  endfacet
  facet normal -0.614901 -0.328671 -0.716849
    outer loop
      vertex 3.57532 2.38895 0
      vertex 6.71751 -5.27356e-016 -1.6
      vertex 3.97268 1.64554 0
    endloop
  endfacet
  facet normal -0.551095 -0.0542782 -0.832675
    outer loop
      vertex 4.21738 0.838889 0
      vertex 6.71751 -5.27356e-016 -1.6
      vertex 4.3 -3.3757e-016 0
    endloop
  endfacet
  facet normal -0.571481 0.173357 -0.802095
    outer loop
      vertex 4.21738 -0.838889 0
      vertex 6.71751 -5.27356e-016 -1.6
      vertex 3.97268 -1.64554 0
    endloop
  endfacet
  facet normal -0.671318 0.550937 -0.495783
    outer loop
      vertex 3.57532 -2.38895 0
      vertex 6.71751 -5.27356e-016 -1.6
      vertex 3.04056 -3.04056 0
    endloop
  endfacet
  facet normal -0.173357 0.571481 -0.802095
    outer loop
      vertex 0.838889 -4.21738 0
      vertex 1.64554 -3.97268 0
      vertex -5.27356e-016 -6.71751 -1.6
    endloop
  endfacet
  facet normal 0.0542782 0.551095 -0.832675
    outer loop
      vertex -0.838889 -4.21738 0
      vertex -3.3757e-016 -4.3 0
      vertex -5.27356e-016 -6.71751 -1.6
    endloop
  endfacet
  facet normal 0.571481 0.173357 -0.802095
    outer loop
      vertex -4.21738 -0.838889 0
      vertex -3.97268 -1.64554 0
      vertex -6.71751 5.27356e-016 -1.6
    endloop
  endfacet
  facet normal 0.614901 0.328671 -0.716849
    outer loop
      vertex -3.97268 -1.64554 0
      vertex -3.57532 -2.38895 0
      vertex -6.71751 5.27356e-016 -1.6
    endloop
  endfacet
  facet normal 0.671318 -0.550937 -0.495783
    outer loop
      vertex -3.57532 2.38895 0
      vertex -4.87904 1.52028 -0.8
      vertex -3.04056 3.04056 0
    endloop
  endfacet
  facet normal 0.671318 -0.550937 -0.495783
    outer loop
      vertex -3.57532 2.38895 0
      vertex -4.95872 1.42319 -0.8
      vertex -4.87904 1.52028 -0.8
    endloop
  endfacet
  facet normal 0.671318 -0.550934 -0.495786
    outer loop
      vertex -4.95872 1.42319 -0.8
      vertex -6.71751 5.27356e-016 -1.6
      vertex -5.02495 1.39962 -0.863492
    endloop
  endfacet
  facet normal 0.671318 -0.550937 -0.495782
    outer loop
      vertex -6.71751 5.27356e-016 -1.6
      vertex -4.95872 1.42319 -0.8
      vertex -3.57532 2.38895 0
    endloop
  endfacet
  facet normal 0.571481 -0.173357 -0.802095
    outer loop
      vertex -3.97268 1.64554 0
      vertex -4.21738 0.838889 0
      vertex -6.71751 5.27356e-016 -1.6
    endloop
  endfacet
  facet normal 0.551095 -0.0542782 -0.832675
    outer loop
      vertex -4.21738 0.838889 0
      vertex -4.3 3.3757e-016 0
      vertex -6.71751 5.27356e-016 -1.6
    endloop
  endfacet
  facet normal -0.0542782 -0.551095 -0.832675
    outer loop
      vertex 5.27356e-016 6.71751 -1.6
      vertex 0.838889 4.21738 0
      vertex 3.3757e-016 4.3 0
    endloop
  endfacet
  facet normal -0.328671 -0.614901 -0.716849
    outer loop
      vertex 5.27356e-016 6.71751 -1.6
      vertex 2.38895 3.57532 0
      vertex 1.64554 3.97268 0
    endloop
  endfacet
  facet normal 0.947168 -0.253793 -0.196116
    outer loop
      vertex 6.87851 9.46272 -4.525
      vertex 7.13992 8.48714 -2
      vertex 6.17672 6.84359 -4.525
    endloop
  endfacet
  facet normal -0.253793 0.947168 -0.196116
    outer loop
      vertex 5.93263 5.93263 -4.525
      vertex 8.48714 7.13992 -2
      vertex 9.46272 6.87851 -4.525
    endloop
  endfacet
  facet normal -0.253793 0.947168 -0.196116
    outer loop
      vertex 8.48714 7.13992 -2
      vertex 5.93263 5.93263 -4.525
      vertex 6.6468 6.6468 -2
    endloop
  endfacet
  facet normal -0.693375 -0.693375 -0.196116
    outer loop
      vertex 6.87851 9.46272 -4.525
      vertex 8.79585 7.54539 -4.525
      vertex 7.13992 8.48714 -2
    endloop
  endfacet
  facet normal 0.947168 -0.253793 -0.196116
    outer loop
      vertex 6.6468 6.6468 -2
      vertex 6.17672 6.84359 -4.525
      vertex 7.13992 8.48714 -2
    endloop
  endfacet
  facet normal 0.947168 -0.253793 -0.196116
    outer loop
      vertex 6.17672 6.84359 -4.525
      vertex 6.6468 6.6468 -2
      vertex 5.93263 5.93263 -4.525
    endloop
  endfacet
  facet normal -0.693375 -0.693375 -0.196116
    outer loop
      vertex 8.79585 7.54539 -4.525
      vertex 8.48714 7.13992 -2
      vertex 7.13992 8.48714 -2
    endloop
  endfacet
  facet normal -0.693375 -0.693375 -0.196116
    outer loop
      vertex 8.48714 7.13992 -2
      vertex 8.79585 7.54539 -4.525
      vertex 9.46272 6.87851 -4.525
    endloop
  endfacet
  facet normal -0.258819 0.965926 8.57868e-008
    outer loop
      vertex 6.6468 6.6468 -2
      vertex 6.75834 6.67669 0.0249996
      vertex 8.48714 7.13992 -0.491666
    endloop
  endfacet
  facet normal -0.258819 0.965926 0
    outer loop
      vertex 6.6468 6.6468 -2
      vertex 8.48714 7.13992 -0.491666
      vertex 8.48714 7.13992 -2
    endloop
  endfacet
  facet normal -0.258818 0.965926 0
    outer loop
      vertex 6.75834 6.67669 0.0249996
      vertex 6.6468 6.6468 -2
      vertex 6.6468 6.6468 0.0249996
    endloop
  endfacet
  facet normal 0.965926 -0.258819 8.9655e-008
    outer loop
      vertex 6.6468 6.6468 -2
      vertex 7.13992 8.48714 -0.491666
      vertex 6.67669 6.75834 0.0249996
    endloop
  endfacet
  facet normal 0.965926 -0.258818 0
    outer loop
      vertex 6.6468 6.6468 -2
      vertex 6.67669 6.75834 0.0249996
      vertex 6.6468 6.6468 0.0249996
    endloop
  endfacet
  facet normal 0.965926 -0.258819 0
    outer loop
      vertex 7.13992 8.48714 -0.491666
      vertex 6.6468 6.6468 -2
      vertex 7.13992 8.48714 -2
    endloop
  endfacet
  facet normal -0.707107 -0.707107 0
    outer loop
      vertex 7.13992 8.48714 -2
      vertex 8.48714 7.13992 -0.491666
      vertex 7.13992 8.48714 -0.491666
    endloop
  endfacet
  facet normal -0.707107 -0.707107 -0
    outer loop
      vertex 8.48714 7.13992 -0.491666
      vertex 7.13992 8.48714 -2
      vertex 8.48714 7.13992 -2
    endloop
  endfacet
  facet normal 0.253793 -0.947168 -0.196116
    outer loop
      vertex -8.48714 -7.13992 -2
      vertex -9.46272 -6.87851 -4.525
      vertex -6.84359 -6.17672 -4.525
    endloop
  endfacet
  facet normal -0.947168 0.253793 -0.196116
    outer loop
      vertex -5.93263 -5.93263 -4.525
      vertex -7.13992 -8.48714 -2
      vertex -6.6468 -6.6468 -2
    endloop
  endfacet
  facet normal -0.947168 0.253793 -0.196116
    outer loop
      vertex -7.13992 -8.48714 -2
      vertex -5.93263 -5.93263 -4.525
      vertex -6.87851 -9.46272 -4.525
    endloop
  endfacet
  facet normal 0.693375 0.693375 -0.196116
    outer loop
      vertex -8.48714 -7.13992 -2
      vertex -7.54539 -8.79585 -4.525
      vertex -9.46272 -6.87851 -4.525
    endloop
  endfacet
  facet normal 0.253793 -0.947168 -0.196116
    outer loop
      vertex -6.84359 -6.17672 -4.525
      vertex -6.6468 -6.6468 -2
      vertex -8.48714 -7.13992 -2
    endloop
  endfacet
  facet normal 0.253793 -0.947168 -0.196116
    outer loop
      vertex -6.6468 -6.6468 -2
      vertex -6.84359 -6.17672 -4.525
      vertex -5.93263 -5.93263 -4.525
    endloop
  endfacet
  facet normal 0.693375 0.693375 -0.196116
    outer loop
      vertex -7.13992 -8.48714 -2
      vertex -7.54539 -8.79585 -4.525
      vertex -8.48714 -7.13992 -2
    endloop
  endfacet
  facet normal 0.693375 0.693375 -0.196116
    outer loop
      vertex -7.54539 -8.79585 -4.525
      vertex -7.13992 -8.48714 -2
      vertex -6.87851 -9.46272 -4.525
    endloop
  endfacet
  facet normal -0.965926 0.258818 0
    outer loop
      vertex -6.6468 -6.6468 -2
      vertex -6.67669 -6.75834 0.0249996
      vertex -6.6468 -6.6468 0.0249996
    endloop
  endfacet
  facet normal -0.965926 0.258819 0
    outer loop
      vertex -7.13992 -8.48714 -0.491666
      vertex -6.6468 -6.6468 -2
      vertex -7.13992 -8.48714 -2
    endloop
  endfacet
  facet normal -0.965926 0.258819 8.57868e-008
    outer loop
      vertex -6.6468 -6.6468 -2
      vertex -7.13992 -8.48714 -0.491666
      vertex -6.67669 -6.75834 0.0249996
    endloop
  endfacet
  facet normal 0.258819 -0.965926 8.9655e-008
    outer loop
      vertex -6.6468 -6.6468 -2
      vertex -6.75834 -6.67669 0.0249996
      vertex -8.48714 -7.13992 -0.491666
    endloop
  endfacet
  facet normal 0.258819 -0.965926 0
    outer loop
      vertex -6.6468 -6.6468 -2
      vertex -8.48714 -7.13992 -0.491666
      vertex -8.48714 -7.13992 -2
    endloop
  endfacet
  facet normal 0.258818 -0.965926 0
    outer loop
      vertex -6.75834 -6.67669 0.0249996
      vertex -6.6468 -6.6468 -2
      vertex -6.6468 -6.6468 0.0249996
    endloop
  endfacet
  facet normal 0.707107 0.707107 0
    outer loop
      vertex -7.13992 -8.48714 -0.491666
      vertex -8.48714 -7.13992 -2
      vertex -8.48714 -7.13992 -0.491666
    endloop
  endfacet
  facet normal 0.707107 0.707107 0
    outer loop
      vertex -8.48714 -7.13992 -2
      vertex -7.13992 -8.48714 -0.491666
      vertex -7.13992 -8.48714 -2
    endloop
  endfacet
  facet normal 0 0 -1
    outer loop
      vertex -1.52028 4.87904 -0.8
      vertex -5.19723 8.73277 -0.8
      vertex -1.42319 4.95872 -0.8
    endloop
  endfacet
  facet normal 0 0 -1
    outer loop
      vertex -6.50538 2.96985 -0.8
      vertex -1.52028 4.87904 -0.8
      vertex -4.87904 1.52028 -0.8
    endloop
  endfacet
  facet normal 0 0 -1
    outer loop
      vertex -6.50538 2.96985 -0.8
      vertex -4.87904 1.52028 -0.8
      vertex -4.95872 1.42319 -0.8
    endloop
  endfacet
  facet normal -0 0 -1
    outer loop
      vertex -1.52028 4.87904 -0.8
      vertex -6.50538 2.96985 -0.8
      vertex -5.19723 8.73277 -0.8
    endloop
  endfacet
  facet normal 0 0 -1
    outer loop
      vertex -10.5005 3.42947 -0.8
      vertex -6.50538 2.96985 -0.8
      vertex -8.27315 1.20208 -0.8
    endloop
  endfacet
  facet normal 0 0 -1
    outer loop
      vertex -6.50538 2.96985 -0.8
      vertex -10.5005 3.42947 -0.8
      vertex -5.19723 8.73277 -0.8
    endloop
  endfacet
  facet normal -0.499999 -0.499999 -0.707108
    outer loop
      vertex -5.19723 8.73277 -0.8
      vertex -1.39962 5.02495 -0.863492
      vertex -1.42319 4.95872 -0.8
    endloop
  endfacet
  facet normal -0.5 -0.5 -0.707107
    outer loop
      vertex -5.19723 8.73277 -0.8
      vertex -1.0253 5.69221 -1.6
      vertex -1.39962 5.02495 -0.863492
    endloop
  endfacet
  facet normal -0.5 -0.5 -0.707107
    outer loop
      vertex -5.19723 8.73277 -0.8
      vertex 5.27356e-016 6.71751 -3.05
      vertex -1.0253 5.69221 -1.6
    endloop
  endfacet
  facet normal -0.5 -0.5 -0.707107
    outer loop
      vertex 5.27356e-016 6.71751 -3.05
      vertex -5.19723 8.73277 -0.8
      vertex -5.19723 11.9147 -3.05
    endloop
  endfacet
  facet normal 0.499999 0.499999 -0.707108
    outer loop
      vertex -5.02495 1.39962 -0.863492
      vertex -6.50538 2.96985 -0.8
      vertex -4.95872 1.42319 -0.8
    endloop
  endfacet
  facet normal 0.5 0.5 -0.707107
    outer loop
      vertex -5.69221 1.0253 -1.6
      vertex -6.50538 2.96985 -0.8
      vertex -5.02495 1.39962 -0.863492
    endloop
  endfacet
  facet normal 0.5 0.5 -0.707107
    outer loop
      vertex -8.09637 1.37886 -3.05
      vertex -5.69221 1.0253 -1.6
      vertex -6.71751 5.27356e-016 -3.05
    endloop
  endfacet
  facet normal 0.5 0.5 -0.707107
    outer loop
      vertex -5.69221 1.0253 -1.6
      vertex -8.09637 1.37886 -3.05
      vertex -6.50538 2.96985 -0.8
    endloop
  endfacet
  facet normal 0.707107 0.707107 -0
    outer loop
      vertex -9.86414 -0.388909 -4.525
      vertex -13.6825 3.42947 -3.05
      vertex -9.86414 -0.388909 -3.05
    endloop
  endfacet
  facet normal 0.707107 0.707107 0
    outer loop
      vertex -13.6825 3.42947 -3.05
      vertex -9.86414 -0.388909 -4.525
      vertex -13.6825 3.42947 -4.525
    endloop
  endfacet
  facet normal -0.707107 0.707107 -5.99422e-008
    outer loop
      vertex -8.09637 1.37886 -3.05
      vertex -8.27315 1.20208 -0.8
      vertex -6.50538 2.96985 -0.8
    endloop
  endfacet
  facet normal -0.707107 0.707107 -7.49277e-008
    outer loop
      vertex -8.09637 1.37886 -3.05
      vertex -9.86414 -0.388909 -3.05
      vertex -8.27315 1.20208 -0.8
    endloop
  endfacet
  facet normal -0.707107 0.707107 0
    outer loop
      vertex -8.09637 1.37886 -4.525
      vertex -9.86414 -0.388909 -3.05
      vertex -8.09637 1.37886 -3.05
    endloop
  endfacet
  facet normal -0.707107 0.707107 0
    outer loop
      vertex -9.86414 -0.388909 -3.05
      vertex -8.09637 1.37886 -4.525
      vertex -9.86414 -0.388909 -4.525
    endloop
  endfacet
  facet normal 0.707107 -0.707107 0
    outer loop
      vertex -13.6825 3.42947 -3.05
      vertex -5.19723 11.9147 -4.525
      vertex -5.19723 11.9147 -3.05
    endloop
  endfacet
  facet normal 0.707107 -0.707107 0
    outer loop
      vertex -5.19723 11.9147 -4.525
      vertex -13.6825 3.42947 -3.05
      vertex -13.6825 3.42947 -4.525
    endloop
  endfacet
  facet normal 0.5 0.5 -0.707107
    outer loop
      vertex -9.86414 -0.388909 -3.05
      vertex -10.5005 3.42947 -0.8
      vertex -8.27315 1.20208 -0.8
    endloop
  endfacet
  facet normal 0.5 0.5 -0.707107
    outer loop
      vertex -10.5005 3.42947 -0.8
      vertex -9.86414 -0.388909 -3.05
      vertex -13.6825 3.42947 -3.05
    endloop
  endfacet
  facet normal 0.5 -0.5 -0.707107
    outer loop
      vertex -10.5005 3.42947 -0.8
      vertex -5.19723 11.9147 -3.05
      vertex -5.19723 8.73277 -0.8
    endloop
  endfacet
  facet normal 0.5 -0.5 -0.707107
    outer loop
      vertex -5.19723 11.9147 -3.05
      vertex -10.5005 3.42947 -0.8
      vertex -13.6825 3.42947 -3.05
    endloop
  endfacet
  facet normal -0.634393 -0.77301 0
    outer loop
      vertex 2.38895 3.57532 0
      vertex 3.04056 3.04056 0.0249996
      vertex 2.38895 3.57532 0.0249996
    endloop
  endfacet
  facet normal -0.634393 -0.77301 -0
    outer loop
      vertex 3.04056 3.04056 0.0249996
      vertex 2.38895 3.57532 0
      vertex 3.04056 3.04056 0
    endloop
  endfacet
  facet normal 0.77301 0.634393 0
    outer loop
      vertex -3.04056 -3.04056 0.0249996
      vertex -3.57532 -2.38895 0
      vertex -3.57532 -2.38895 0.0249996
    endloop
  endfacet
  facet normal 0.77301 0.634393 0
    outer loop
      vertex -3.57532 -2.38895 0
      vertex -3.04056 -3.04056 0.0249996
      vertex -3.04056 -3.04056 0
    endloop
  endfacet
  facet normal 0.634393 -0.77301 0
    outer loop
      vertex -3.04056 3.04056 0
      vertex -2.38895 3.57532 0.0249996
      vertex -3.04056 3.04056 0.0249996
    endloop
  endfacet
  facet normal 0.634393 -0.77301 0
    outer loop
      vertex -2.38895 3.57532 0.0249996
      vertex -3.04056 3.04056 0
      vertex -2.38895 3.57532 0
    endloop
  endfacet
  facet normal -0.634393 0.77301 0
    outer loop
      vertex 3.04056 -3.04056 0
      vertex 2.38895 -3.57532 0.0249996
      vertex 3.04056 -3.04056 0.0249996
    endloop
  endfacet
  facet normal -0.634393 0.77301 0
    outer loop
      vertex 2.38895 -3.57532 0.0249996
      vertex 3.04056 -3.04056 0
      vertex 2.38895 -3.57532 0
    endloop
  endfacet
  facet normal 0.0980173 0.995185 -0
    outer loop
      vertex -3.3757e-016 -4.3 0
      vertex -0.838889 -4.21738 0.0249996
      vertex -3.3757e-016 -4.3 0.0249996
    endloop
  endfacet
  facet normal 0.0980173 0.995185 0
    outer loop
      vertex -0.838889 -4.21738 0.0249996
      vertex -3.3757e-016 -4.3 0
      vertex -0.838889 -4.21738 0
    endloop
  endfacet
  facet normal -0.0980173 -0.995185 0
    outer loop
      vertex 3.3757e-016 4.3 0
      vertex 0.838889 4.21738 0.0249996
      vertex 3.3757e-016 4.3 0.0249996
    endloop
  endfacet
  facet normal -0.0980173 -0.995185 -0
    outer loop
      vertex 0.838889 4.21738 0.0249996
      vertex 3.3757e-016 4.3 0
      vertex 0.838889 4.21738 0
    endloop
  endfacet
  facet normal 0.995185 -0.0980173 0
    outer loop
      vertex -4.3 3.3757e-016 0.0249996
      vertex -4.21738 0.838889 0
      vertex -4.21738 0.838889 0.0249996
    endloop
  endfacet
  facet normal 0.995185 -0.0980173 0
    outer loop
      vertex -4.21738 0.838889 0
      vertex -4.3 3.3757e-016 0.0249996
      vertex -4.3 3.3757e-016 0
    endloop
  endfacet
  facet normal 0.881921 -0.471397 0
    outer loop
      vertex -3.97268 1.64554 0.0249996
      vertex -3.57532 2.38895 0
      vertex -3.57532 2.38895 0.0249996
    endloop
  endfacet
  facet normal 0.881921 -0.471397 0
    outer loop
      vertex -3.57532 2.38895 0
      vertex -3.97268 1.64554 0.0249996
      vertex -3.97268 1.64554 0
    endloop
  endfacet
  facet normal -0.95694 -0.290285 0
    outer loop
      vertex 4.21738 0.838889 0
      vertex 3.97268 1.64554 0.0249996
      vertex 3.97268 1.64554 0
    endloop
  endfacet
  facet normal -0.95694 -0.290285 0
    outer loop
      vertex 3.97268 1.64554 0.0249996
      vertex 4.21738 0.838889 0
      vertex 4.21738 0.838889 0.0249996
    endloop
  endfacet
  facet normal -0.290285 -0.95694 0
    outer loop
      vertex 0.838889 4.21738 0
      vertex 1.64554 3.97268 0.0249996
      vertex 0.838889 4.21738 0.0249996
    endloop
  endfacet
  facet normal -0.290285 -0.95694 -0
    outer loop
      vertex 1.64554 3.97268 0.0249996
      vertex 0.838889 4.21738 0
      vertex 1.64554 3.97268 0
    endloop
  endfacet
  facet normal -0.471397 -0.881921 0
    outer loop
      vertex 1.64554 3.97268 0
      vertex 2.38895 3.57532 0.0249996
      vertex 1.64554 3.97268 0.0249996
    endloop
  endfacet
  facet normal -0.471397 -0.881921 -0
    outer loop
      vertex 2.38895 3.57532 0.0249996
      vertex 1.64554 3.97268 0
      vertex 2.38895 3.57532 0
    endloop
  endfacet
  facet normal 0.290285 -0.95694 0
    outer loop
      vertex -1.64554 3.97268 0
      vertex -0.838889 4.21738 0.0249996
      vertex -1.64554 3.97268 0.0249996
    endloop
  endfacet
  facet normal 0.290285 -0.95694 0
    outer loop
      vertex -0.838889 4.21738 0.0249996
      vertex -1.64554 3.97268 0
      vertex -0.838889 4.21738 0
    endloop
  endfacet
  facet normal 0.471397 -0.881921 0
    outer loop
      vertex -2.38895 3.57532 0
      vertex -1.64554 3.97268 0.0249996
      vertex -2.38895 3.57532 0.0249996
    endloop
  endfacet
  facet normal 0.471397 -0.881921 0
    outer loop
      vertex -1.64554 3.97268 0.0249996
      vertex -2.38895 3.57532 0
      vertex -1.64554 3.97268 0
    endloop
  endfacet
  facet normal 0.0980173 -0.995185 0
    outer loop
      vertex -0.838889 4.21738 0
      vertex 3.3757e-016 4.3 0.0249996
      vertex -0.838889 4.21738 0.0249996
    endloop
  endfacet
  facet normal 0.0980173 -0.995185 0
    outer loop
      vertex 3.3757e-016 4.3 0.0249996
      vertex -0.838889 4.21738 0
      vertex 3.3757e-016 4.3 0
    endloop
  endfacet
  facet normal 0.95694 0.290285 0
    outer loop
      vertex -3.97268 -1.64554 0.0249996
      vertex -4.21738 -0.838889 0
      vertex -4.21738 -0.838889 0.0249996
    endloop
  endfacet
  facet normal 0.95694 0.290285 0
    outer loop
      vertex -4.21738 -0.838889 0
      vertex -3.97268 -1.64554 0.0249996
      vertex -3.97268 -1.64554 0
    endloop
  endfacet
  facet normal 0.995185 0.0980173 0
    outer loop
      vertex -4.21738 -0.838889 0.0249996
      vertex -4.3 3.3757e-016 0
      vertex -4.3 3.3757e-016 0.0249996
    endloop
  endfacet
  facet normal 0.995185 0.0980173 0
    outer loop
      vertex -4.3 3.3757e-016 0
      vertex -4.21738 -0.838889 0.0249996
      vertex -4.21738 -0.838889 0
    endloop
  endfacet
  facet normal 0.881921 0.471397 0
    outer loop
      vertex -3.57532 -2.38895 0.0249996
      vertex -3.97268 -1.64554 0
      vertex -3.97268 -1.64554 0.0249996
    endloop
  endfacet
  facet normal 0.881921 0.471397 0
    outer loop
      vertex -3.97268 -1.64554 0
      vertex -3.57532 -2.38895 0.0249996
      vertex -3.57532 -2.38895 0
    endloop
  endfacet
  facet normal 0.95694 -0.290285 0
    outer loop
      vertex -4.21738 0.838889 0.0249996
      vertex -3.97268 1.64554 0
      vertex -3.97268 1.64554 0.0249996
    endloop
  endfacet
  facet normal 0.95694 -0.290285 0
    outer loop
      vertex -3.97268 1.64554 0
      vertex -4.21738 0.838889 0.0249996
      vertex -4.21738 0.838889 0
    endloop
  endfacet
  facet normal 0.77301 -0.634393 0
    outer loop
      vertex -3.57532 2.38895 0.0249996
      vertex -3.04056 3.04056 0
      vertex -3.04056 3.04056 0.0249996
    endloop
  endfacet
  facet normal 0.77301 -0.634393 0
    outer loop
      vertex -3.04056 3.04056 0
      vertex -3.57532 2.38895 0.0249996
      vertex -3.57532 2.38895 0
    endloop
  endfacet
  facet normal -0.95694 0.290285 0
    outer loop
      vertex 3.97268 -1.64554 0
      vertex 4.21738 -0.838889 0.0249996
      vertex 4.21738 -0.838889 0
    endloop
  endfacet
  facet normal -0.95694 0.290285 0
    outer loop
      vertex 4.21738 -0.838889 0.0249996
      vertex 3.97268 -1.64554 0
      vertex 3.97268 -1.64554 0.0249996
    endloop
  endfacet
  facet normal -0.77301 0.634393 0
    outer loop
      vertex 3.04056 -3.04056 0
      vertex 3.57532 -2.38895 0.0249996
      vertex 3.57532 -2.38895 0
    endloop
  endfacet
  facet normal -0.77301 0.634393 0
    outer loop
      vertex 3.57532 -2.38895 0.0249996
      vertex 3.04056 -3.04056 0
      vertex 3.04056 -3.04056 0.0249996
    endloop
  endfacet
  facet normal -0.995185 0.0980173 0
    outer loop
      vertex 4.21738 -0.838889 0
      vertex 4.3 -3.3757e-016 0.0249996
      vertex 4.3 -3.3757e-016 0
    endloop
  endfacet
  facet normal -0.995185 0.0980173 0
    outer loop
      vertex 4.3 -3.3757e-016 0.0249996
      vertex 4.21738 -0.838889 0
      vertex 4.21738 -0.838889 0.0249996
    endloop
  endfacet
  facet normal -0.0980173 0.995185 0
    outer loop
      vertex 0.838889 -4.21738 0
      vertex -3.3757e-016 -4.3 0.0249996
      vertex 0.838889 -4.21738 0.0249996
    endloop
  endfacet
  facet normal -0.0980173 0.995185 0
    outer loop
      vertex -3.3757e-016 -4.3 0.0249996
      vertex 0.838889 -4.21738 0
      vertex -3.3757e-016 -4.3 0
    endloop
  endfacet
  facet normal -0.471397 0.881921 0
    outer loop
      vertex 2.38895 -3.57532 0
      vertex 1.64554 -3.97268 0.0249996
      vertex 2.38895 -3.57532 0.0249996
    endloop
  endfacet
  facet normal -0.471397 0.881921 0
    outer loop
      vertex 1.64554 -3.97268 0.0249996
      vertex 2.38895 -3.57532 0
      vertex 1.64554 -3.97268 0
    endloop
  endfacet
  facet normal 0.290285 0.95694 -0
    outer loop
      vertex -0.838889 -4.21738 0
      vertex -1.64554 -3.97268 0.0249996
      vertex -0.838889 -4.21738 0.0249996
    endloop
  endfacet
  facet normal 0.290285 0.95694 0
    outer loop
      vertex -1.64554 -3.97268 0.0249996
      vertex -0.838889 -4.21738 0
      vertex -1.64554 -3.97268 0
    endloop
  endfacet
  facet normal 0.634393 0.77301 -0
    outer loop
      vertex -2.38895 -3.57532 0
      vertex -3.04056 -3.04056 0.0249996
      vertex -2.38895 -3.57532 0.0249996
    endloop
  endfacet
  facet normal 0.634393 0.77301 0
    outer loop
      vertex -3.04056 -3.04056 0.0249996
      vertex -2.38895 -3.57532 0
      vertex -3.04056 -3.04056 0
    endloop
  endfacet
  facet normal -0.881921 0.471397 0
    outer loop
      vertex 3.57532 -2.38895 0
      vertex 3.97268 -1.64554 0.0249996
      vertex 3.97268 -1.64554 0
    endloop
  endfacet
  facet normal -0.881921 0.471397 0
    outer loop
      vertex 3.97268 -1.64554 0.0249996
      vertex 3.57532 -2.38895 0
      vertex 3.57532 -2.38895 0.0249996
    endloop
  endfacet
  facet normal -0.995185 -0.0980173 0
    outer loop
      vertex 4.3 -3.3757e-016 0
      vertex 4.21738 0.838889 0.0249996
      vertex 4.21738 0.838889 0
    endloop
  endfacet
  facet normal -0.995185 -0.0980173 0
    outer loop
      vertex 4.21738 0.838889 0.0249996
      vertex 4.3 -3.3757e-016 0
      vertex 4.3 -3.3757e-016 0.0249996
    endloop
  endfacet
  facet normal -0.881921 -0.471397 0
    outer loop
      vertex 3.97268 1.64554 0
      vertex 3.57532 2.38895 0.0249996
      vertex 3.57532 2.38895 0
    endloop
  endfacet
  facet normal -0.881921 -0.471397 0
    outer loop
      vertex 3.57532 2.38895 0.0249996
      vertex 3.97268 1.64554 0
      vertex 3.97268 1.64554 0.0249996
    endloop
  endfacet
  facet normal -0.77301 -0.634393 0
    outer loop
      vertex 3.57532 2.38895 0
      vertex 3.04056 3.04056 0.0249996
      vertex 3.04056 3.04056 0
    endloop
  endfacet
  facet normal -0.77301 -0.634393 0
    outer loop
      vertex 3.04056 3.04056 0.0249996
      vertex 3.57532 2.38895 0
      vertex 3.57532 2.38895 0.0249996
    endloop
  endfacet
  facet normal -0.290285 0.95694 0
    outer loop
      vertex 1.64554 -3.97268 0
      vertex 0.838889 -4.21738 0.0249996
      vertex 1.64554 -3.97268 0.0249996
    endloop
  endfacet
  facet normal -0.290285 0.95694 0
    outer loop
      vertex 0.838889 -4.21738 0.0249996
      vertex 1.64554 -3.97268 0
      vertex 0.838889 -4.21738 0
    endloop
  endfacet
  facet normal 0.471397 0.881921 -0
    outer loop
      vertex -1.64554 -3.97268 0
      vertex -2.38895 -3.57532 0.0249996
      vertex -1.64554 -3.97268 0.0249996
    endloop
  endfacet
  facet normal 0.471397 0.881921 0
    outer loop
      vertex -2.38895 -3.57532 0.0249996
      vertex -1.64554 -3.97268 0
      vertex -2.38895 -3.57532 0
    endloop
  endfacet
endsolid OpenSCAD_Model
