  0
SECTION
  2
HEADER
  9
$ACADVER
  1
AC1014
  9
$HANDSEED
  5
FFFF
  9
$MEASUREMENT
 70
     1
  0
ENDSEC
  0
SECTION
  2
TABLES
  0
TABLE
  2
VPORT
  5
8
330
0
100
AcDbSymbolTable
 70
     4
  0
VPORT
  5
2E
330
8
100
AcDbSymbolTableRecord
100
AcDbViewportTableRecord
  2
*ACTIVE
 70
     0
 10
0.0
 20
0.0
 11
1.0
 21
1.0
 12
210.0
 22
148.5
 13
0.0
 23
0.0
 14
10.0
 24
10.0
 15
10.0
 25
10.0
 16
0.0
 26
0.0
 36
1.0
 17
0.0
 27
0.0
 37
0.0
 40
341.0
 41
1.24
 42
50.0
 43
0.0
 44
0.0
 50
0.0
 51
0.0
 71
     0
 72
   100
 73
     1
 74
     3
 75
     0
 76
     0
 77
     0
 78
     0
  0
ENDTAB
  0
TABLE
  2
LTYPE
  5
5
330
0
100
AcDbSymbolTable
 70
     1
  0
LTYPE
  5
14
330
5
100
AcDbSymbolTableRecord
100
AcDbLinetypeTableRecord
  2
BYBLOCK
 70
     0
  3

 72
    65
 73
     0
 40
0.0
  0
LTYPE
  5
15
330
5
100
AcDbSymbolTableRecord
100
AcDbLinetypeTableRecord
  2
BYLAYER
 70
     0
  3

 72
    65
 73
     0
 40
0.0
  0
LTYPE
  5
16
330
5
100
AcDbSymbolTableRecord
100
AcDbLinetypeTableRecord
  2
CONTINUOUS
 70
     0
  3
Solid line
 72
    65
 73
     0
 40
0.0
  0
ENDTAB
  0
TABLE
  2
LAYER
  5
2
100
AcDbSymbolTable
 70
1
  0
LAYER
  5
50
100
AcDbSymbolTableRecord
100
AcDbLayerTableRecord
  2
0
 70
0
  6
CONTINUOUS
  0
ENDTAB
  0
TABLE
  2
STYLE
  5
3
330
0
100
AcDbSymbolTable
 70
     1
  0
STYLE
  5
11
330
3
100
AcDbSymbolTableRecord
100
AcDbTextStyleTableRecord
  2
STANDARD
 70
     0
 40
0.0
 41
1.0
 50
0.0
 71
     0
 42
2.5
  3
txt
  4

  0
ENDTAB
  0
TABLE
  2
VIEW
  5
6
330
0
100
AcDbSymbolTable
 70
     0
  0
ENDTAB
  0
TABLE
  2
UCS
  5
7
330
0
100
AcDbSymbolTable
 70
     0
  0
ENDTAB
  0
TABLE
  2
APPID
  5
9
330
0
100
AcDbSymbolTable
 70
     2
  0
APPID
  5
12
330
9
100
AcDbSymbolTableRecord
100
AcDbRegAppTableRecord
  2
ACAD
 70
     0
  0
ENDTAB
  0
TABLE
  2
DIMSTYLE
  5
A
330
0
100
AcDbSymbolTable
 70
     1
  0
DIMSTYLE
105
27
330
A
100
AcDbSymbolTableRecord
100
AcDbDimStyleTableRecord
  2
ISO-25
 70
     0
  3

  4

  5

  6

  7

 40
1.0
 41
2.5
 42
0.625
 43
3.75
 44
1.25
 45
0.0
 46
0.0
 47
0.0
 48
0.0
140
2.5
141
2.5
142
0.0
143
0.03937007874016
144
1.0
145
0.0
146
1.0
147
0.625
 71
     0
 72
     0
 73
     0
 74
     0
 75
     0
 76
     0
 77
     1
 78
     8
170
     0
171
     3
172
     1
173
     0
174
     0
175
     0
176
     0
177
     0
178
     0
270
     2
271
     2
272
     2
273
     2
274
     3
340
11
275
     0
280
     0
281
     0
282
     0
283
     0
284
     8
285
     0
286
     0
287
     3
288
     0
  0
ENDTAB
  0
TABLE
  2
BLOCK_RECORD
  5
1
330
0
100
AcDbSymbolTable
 70
     1
  0
BLOCK_RECORD
  5
1F
330
1
100
AcDbSymbolTableRecord
100
AcDbBlockTableRecord
  2
*MODEL_SPACE
  0
BLOCK_RECORD
  5
1B
330
1
100
AcDbSymbolTableRecord
100
AcDbBlockTableRecord
  2
*PAPER_SPACE
  0
ENDTAB
  0
ENDSEC
  0
SECTION
  2
BLOCKS
  0
BLOCK
  5
20
330
1F
100
AcDbEntity
  8
0
100
AcDbBlockBegin
  2
*MODEL_SPACE
 70
     0
 10
0.0
 20
0.0
 30
0.0
  3
*MODEL_SPACE
  1

  0
ENDBLK
  5
21
330
1F
100
AcDbEntity
  8
0
100
AcDbBlockEnd
  0
BLOCK
  5
1C
330
1B
100
AcDbEntity
 67
     1
  8
0
100
AcDbBlockBegin
  2
*PAPER_SPACE
  1

  0
ENDBLK
  5
1D
330
1B
100
AcDbEntity
 67
     1
  8
0
100
AcDbBlockEnd
  0
ENDSEC
  0
SECTION
  2
ENTITIES
  0
LWPOLYLINE
  5
100
100
AcDbEntity
  8
0
 62
7
100
AcDbPolyline
 90
68
 70
1
 10
20.790365
 20
13.650902
 30
0.0
 10
21.870582
 20
16.331062
 30
0.0
 10
23.343572
 20
18.781623
 30
0.0
 10
25.169954
 20
20.963208
 30
0.0
 10
27.310345
 20
22.836440
 30
0.0
 10
29.725358
 20
24.361944
 30
0.0
 10
32.375615
 20
25.500342
 30
0.0
 10
35.221730
 20
26.212256
 30
0.0
 10
38.224320
 20
26.458312
 30
0.0
 10
41.226912
 20
26.212256
 30
0.0
 10
44.073027
 20
25.500342
 30
0.0
 10
46.723289
 20
24.361944
 30
0.0
 10
49.138311
 20
22.836440
 30
0.0
 10
51.278713
 20
20.963208
 30
0.0
 10
53.105116
 20
18.781623
 30
0.0
 10
54.578134
 20
16.331062
 30
0.0
 10
55.658385
 20
13.650902
 30
0.0
 10
55.658385
 20
13.650902
 30
0.0
 10
55.658496
 20
13.650453
 30
0.0
 10
55.827692
 20
13.076611
 30
0.0
 10
57.149495
 20
10.614622
 30
0.0
 10
59.022131
 20
9.010617
 30
0.0
 10
61.221501
 20
8.101327
 30
0.0
 10
63.523511
 20
7.723480
 30
0.0
 10
65.704061
 20
7.713810
 30
0.0
 10
67.539052
 20
7.909045
 30
0.0
 10
68.804385
 20
8.145917
 30
0.0
 10
69.275963
 20
8.261156
 30
0.0
 10
76.448661
 20
-10.266931
 30
0.0
 10
49.209344
 20
-20.811934
 30
0.0
 10
44.604371
 20
-8.916868
 30
0.0
 10
44.584977
 20
-8.924091
 30
0.0
 10
42.035979
 20
-2.281981
 30
0.0
 10
42.607521
 20
-2.043245
 30
0.0
 10
44.811556
 20
-0.700738
 30
0.0
 10
47.037577
 20
1.701417
 30
0.0
 10
48.431908
 20
4.666764
 30
0.0
 10
48.659063
 20
9.251286
 30
0.0
 10
48.195801
 20
11.324974
 30
0.0
 10
46.639557
 20
14.118234
 30
0.0
 10
44.347651
 20
16.320028
 30
0.0
 10
41.486947
 20
17.763480
 30
0.0
 10
38.224309
 20
18.281714
 30
0.0
 10
34.961677
 20
17.763480
 30
0.0
 10
32.100983
 20
16.320028
 30
0.0
 10
29.809109
 20
14.118234
 30
0.0
 10
28.252931
 20
11.324974
 30
0.0
 10
27.789627
 20
9.251409
 30
0.0
 10
28.016822
 20
4.666764
 30
0.0
 10
29.411112
 20
1.701417
 30
0.0
 10
31.637174
 20
-0.700738
 30
0.0
 10
33.841208
 20
-2.043245
 30
0.0
 10
34.412751
 20
-2.281981
 30
0.0
 10
34.404416
 20
-2.303650
 30
0.0
 10
31.863633
 20
-8.924078
 30
0.0
 10
31.844239
 20
-8.916855
 30
0.0
 10
27.239375
 20
-20.811921
 30
0.0
 10
-0.000018
 20
-10.266921
 30
0.0
 10
7.172678
 20
8.261168
 30
0.0
 10
7.644256
 20
8.145929
 30
0.0
 10
8.909589
 20
7.909056
 30
0.0
 10
10.744580
 20
7.713822
 30
0.0
 10
12.925129
 20
7.723492
 30
0.0
 10
15.227140
 20
8.101338
 30
0.0
 10
17.426513
 20
9.010629
 30
0.0
 10
19.299149
 20
10.614634
 30
0.0
 10
20.620951
 20
13.076622
 30
0.0
 10
20.790256
 20
13.650464
 30
0.0
  0
LWPOLYLINE
  5
101
100
AcDbEntity
  8
0
 62
7
100
AcDbPolyline
 90
36
 70
1
 10
93.167539
 20
11.972424
 30
0.0
 10
93.091209
 20
10.847400
 30
0.0
 10
92.862233
 20
9.853034
 30
0.0
 10
92.480630
 20
8.989326
 30
0.0
 10
91.946410
 20
8.256276
 30
0.0
 10
91.275945
 20
7.672107
 30
0.0
 10
90.485838
 20
7.254804
 30
0.0
 10
89.576077
 20
7.004397
 30
0.0
 10
88.546644
 20
6.920921
 30
0.0
 10
87.885516
 20
6.959375
 30
0.0
 10
87.263938
 20
7.074716
 30
0.0
 10
86.681900
 20
7.266911
 30
0.0
 10
86.139382
 20
7.535926
 30
0.0
 10
85.646924
 20
7.876939
 30
0.0
 10
85.214830
 20
8.284898
 30
0.0
 10
84.843136
 20
8.759817
 30
0.0
 10
84.531875
 20
9.301715
 30
0.0
 10
84.285868
 20
9.900186
 30
0.0
 10
84.110166
 20
10.544806
 30
0.0
 10
84.004759
 20
11.235557
 30
0.0
 10
83.969627
 20
11.972424
 30
0.0
 10
84.045377
 20
13.089224
 30
0.0
 10
84.272647
 20
14.076426
 30
0.0
 10
84.651469
 20
14.934048
 30
0.0
 10
85.181877
 20
15.662106
 30
0.0
 10
85.850121
 20
16.242463
 30
0.0
 10
86.642427
 20
16.656983
 30
0.0
 10
87.558795
 20
16.905684
 30
0.0
 10
88.599230
 20
16.988580
 30
0.0
 10
89.598563
 20
16.903757
 30
0.0
 10
90.488037
 20
16.649278
 30
0.0
 10
91.267680
 20
16.225127
 30
0.0
 10
91.937528
 20
15.631286
 30
0.0
 10
92.475632
 20
14.893670
 30
0.0
 10
92.860013
 20
14.037967
 30
0.0
 10
93.090656
 20
13.064207
 30
0.0
  0
LWPOLYLINE
  5
102
100
AcDbEntity
  8
0
 62
7
100
AcDbPolyline
 90
20
 70
1
 10
86.095504
 20
11.972424
 30
0.0
 10
86.250904
 20
10.500388
 30
0.0
 10
86.717082
 20
9.448893
 30
0.0
 10
87.494007
 20
8.817972
 30
0.0
 10
88.581643
 20
8.607658
 30
0.0
 10
89.657825
 20
8.817972
 30
0.0
 10
90.426527
 20
9.448893
 30
0.0
 10
90.887748
 20
10.500388
 30
0.0
 10
91.041487
 20
11.972424
 30
0.0
 10
90.886664
 20
13.429094
 30
0.0
 10
90.422174
 20
14.469532
 30
0.0
 10
89.647982
 20
15.093771
 30
0.0
 10
88.564056
 20
15.301844
 30
0.0
 10
87.958724
 20
15.248039
 30
0.0
 10
87.442895
 20
15.086627
 30
0.0
 10
87.016558
 20
14.817606
 30
0.0
 10
86.679691
 20
14.440976
 30
0.0
 10
86.424159
 20
13.963858
 30
0.0
 10
86.241594
 20
13.393382
 30
0.0
 10
86.132032
 20
12.729566
 30
0.0
  0
LWPOLYLINE
  5
103
100
AcDbEntity
  8
0
 62
7
100
AcDbPolyline
 90
56
 70
1
 10
100.467851
 20
6.920921
 30
0.0
 10
99.597059
 20
7.003845
 30
0.0
 10
98.829455
 20
7.252605
 30
0.0
 10
98.165050
 20
7.667186
 30
0.0
 10
97.603863
 20
8.247570
 30
0.0
 10
97.573129
 20
8.247570
 30
0.0
 10
97.542398
 20
8.247570
 30
0.0
 10
97.511664
 20
8.247570
 30
0.0
 10
97.480932
 20
8.247570
 30
0.0
 10
97.534738
 20
7.693008
 30
0.0
 10
97.573150
 20
7.259244
 30
0.0
 10
97.596195
 20
6.946278
 30
0.0
 10
97.603868
 20
6.754111
 30
0.0
 10
97.603868
 20
5.759212
 30
0.0
 10
97.603868
 20
4.764312
 30
0.0
 10
97.603868
 20
3.769413
 30
0.0
 10
97.603868
 20
2.774513
 30
0.0
 10
97.087764
 20
2.774513
 30
0.0
 10
96.571663
 20
2.774513
 30
0.0
 10
96.055558
 20
2.774513
 30
0.0
 10
95.539457
 20
2.774513
 30
0.0
 10
95.539457
 20
6.284107
 30
0.0
 10
95.539457
 20
9.793701
 30
0.0
 10
95.539457
 20
13.303295
 30
0.0
 10
95.539457
 20
16.812889
 30
0.0
 10
95.956744
 20
16.812889
 30
0.0
 10
96.374032
 20
16.812889
 30
0.0
 10
96.791320
 20
16.812889
 30
0.0
 10
97.208607
 20
16.812889
 30
0.0
 10
97.253073
 20
16.629569
 30
0.0
 10
97.316216
 20
16.351766
 30
0.0
 10
97.398033
 20
15.979479
 30
0.0
 10
97.498524
 20
15.512707
 30
0.0
 10
97.524850
 20
15.512707
 30
0.0
 10
97.551177
 20
15.512707
 30
0.0
 10
97.577503
 20
15.512707
 30
0.0
 10
97.603829
 20
15.512707
 30
0.0
 10
98.147420
 20
16.158426
 30
0.0
 10
98.811810
 20
16.619634
 30
0.0
 10
99.597001
 20
16.896346
 30
0.0
 10
100.502987
 20
16.988580
 30
0.0
 10
101.361960
 20
16.906236
 30
0.0
 10
102.120488
 20
16.659181
 30
0.0
 10
102.778560
 20
16.247384
 30
0.0
 10
103.336156
 20
15.670812
 30
0.0
 10
103.780077
 20
14.945532
 30
0.0
 10
104.097143
 20
14.087374
 30
0.0
 10
104.287370
 20
13.096338
 30
0.0
 10
104.350775
 20
11.972424
 30
0.0
 10
104.286262
 20
10.847400
 30
0.0
 10
104.092724
 20
9.853034
 30
0.0
 10
103.770160
 20
8.989326
 30
0.0
 10
103.318569
 20
8.256276
 30
0.0
 10
102.753303
 20
7.672107
 30
0.0
 10
102.089733
 20
7.254804
 30
0.0
 10
101.327895
 20
7.004397
 30
0.0
  0
LWPOLYLINE
  5
104
100
AcDbEntity
  8
0
 62
7
100
AcDbPolyline
 90
36
 70
1
 10
99.967071
 20
15.301844
 30
0.0
 10
99.393573
 20
15.256822
 30
0.0
 10
98.902999
 20
15.121756
 30
0.0
 10
98.495353
 20
14.896647
 30
0.0
 10
98.170635
 20
14.581494
 30
0.0
 10
97.922673
 20
14.167515
 30
0.0
 10
97.745555
 20
13.645927
 30
0.0
 10
97.639285
 20
13.016731
 30
0.0
 10
97.603863
 20
12.279927
 30
0.0
 10
97.603863
 20
12.203051
 30
0.0
 10
97.603863
 20
12.126175
 30
0.0
 10
97.603863
 20
12.049300
 30
0.0
 10
97.603863
 20
11.972424
 30
0.0
 10
97.639021
 20
11.146292
 30
0.0
 10
97.744468
 20
10.442638
 30
0.0
 10
97.920175
 20
9.861449
 30
0.0
 10
98.166108
 20
9.402706
 30
0.0
 10
98.491741
 20
9.054873
 30
0.0
 10
98.906306
 20
8.806420
 30
0.0
 10
99.409808
 20
8.657348
 30
0.0
 10
100.002242
 20
8.607658
 30
0.0
 10
100.507340
 20
8.662572
 30
0.0
 10
100.950977
 20
8.827315
 30
0.0
 10
101.333139
 20
9.101886
 30
0.0
 10
101.653806
 20
9.486286
 30
0.0
 10
101.907483
 20
9.972156
 30
0.0
 10
102.088680
 20
10.551401
 30
0.0
 10
102.197397
 20
11.224019
 30
0.0
 10
102.233637
 20
11.990011
 30
0.0
 10
102.197662
 20
12.757308
 30
0.0
 10
102.089746
 20
13.425225
 30
0.0
 10
101.909906
 20
13.993761
 30
0.0
 10
101.658158
 20
14.462916
 30
0.0
 10
101.336703
 20
14.829947
 30
0.0
 10
100.947712
 20
15.092112
 30
0.0
 10
100.491174
 20
15.249411
 30
0.0
  0
LWPOLYLINE
  5
105
100
AcDbEntity
  8
0
 62
7
100
AcDbPolyline
 90
60
 70
1
 10
110.992235
 20
6.920921
 30
0.0
 10
109.920823
 20
7.003557
 30
0.0
 10
108.972900
 20
7.251474
 30
0.0
 10
108.148488
 20
7.664688
 30
0.0
 10
107.447599
 20
8.243217
 30
0.0
 10
106.888367
 20
8.966600
 30
0.0
 10
106.488918
 20
9.814618
 30
0.0
 10
106.249248
 20
10.787254
 30
0.0
 10
106.169357
 20
11.884492
 30
0.0
 10
106.243472
 20
13.011175
 30
0.0
 10
106.465825
 20
14.010499
 30
0.0
 10
106.836432
 20
14.882429
 30
0.0
 10
107.355312
 20
15.626933
 30
0.0
 10
108.003774
 20
16.222702
 30
0.0
 10
108.763125
 20
16.648212
 30
0.0
 10
109.633382
 20
16.903493
 30
0.0
 10
110.614561
 20
16.988580
 30
0.0
 10
111.526000
 20
16.915573
 30
0.0
 10
112.336427
 20
16.696531
 30
0.0
 10
113.045841
 20
16.331421
 30
0.0
 10
113.654239
 20
15.820210
 30
0.0
 10
114.142292
 20
15.181127
 30
0.0
 10
114.490923
 20
14.432183
 30
0.0
 10
114.700116
 20
13.573410
 30
0.0
 10
114.769850
 20
12.604842
 30
0.0
 10
114.769850
 20
12.325939
 30
0.0
 10
114.769850
 20
12.047036
 30
0.0
 10
114.769850
 20
11.768134
 30
0.0
 10
114.769850
 20
11.489231
 30
0.0
 10
113.151195
 20
11.489231
 30
0.0
 10
111.532540
 20
11.489231
 30
0.0
 10
109.913888
 20
11.489231
 30
0.0
 10
108.295234
 20
11.489231
 30
0.0
 10
108.359554
 20
10.822952
 30
0.0
 10
108.508382
 20
10.238457
 30
0.0
 10
108.741737
 20
9.735778
 30
0.0
 10
109.059636
 20
9.314948
 30
0.0
 10
109.456601
 20
8.982453
 30
0.0
 10
109.927141
 20
8.744998
 30
0.0
 10
110.471238
 20
8.602548
 30
0.0
 10
111.088874
 20
8.555072
 30
0.0
 10
111.511995
 20
8.565227
 30
0.0
 10
111.920248
 20
8.595688
 30
0.0
 10
112.313646
 20
8.646456
 30
0.0
 10
112.692204
 20
8.717531
 30
0.0
 10
113.070233
 20
8.812238
 30
0.0
 10
113.462004
 20
8.933879
 30
0.0
 10
113.867491
 20
9.082423
 30
0.0
 10
114.286654
 20
9.257837
 30
0.0
 10
114.286654
 20
8.838329
 30
0.0
 10
114.286654
 20
8.418822
 30
0.0
 10
114.286654
 20
7.999314
 30
0.0
 10
114.286654
 20
7.579806
 30
0.0
 10
113.907843
 20
7.412906
 30
0.0
 10
113.526779
 20
7.272369
 30
0.0
 10
113.143496
 20
7.158179
 30
0.0
 10
112.758024
 20
7.070320
 30
0.0
 10
112.357826
 20
7.004959
 30
0.0
 10
111.930109
 20
6.958272
 30
0.0
 10
111.474901
 20
6.930260
 30
0.0
  0
LWPOLYLINE
  5
106
100
AcDbEntity
  8
0
 62
7
100
AcDbPolyline
 90
20
 70
1
 10
110.614561
 20
15.424949
 30
0.0
 10
110.147042
 20
15.385967
 30
0.0
 10
109.728381
 20
15.269021
 30
0.0
 10
109.358594
 20
15.074112
 30
0.0
 10
109.037697
 20
14.801238
 30
0.0
 10
108.771084
 20
14.453671
 30
0.0
 10
108.564362
 20
14.034702
 30
0.0
 10
108.417487
 20
13.544364
 30
0.0
 10
108.330405
 20
12.982690
 30
0.0
 10
109.432958
 20
12.982690
 30
0.0
 10
110.535508
 20
12.982690
 30
0.0
 10
111.638061
 20
12.982690
 30
0.0
 10
112.740612
 20
12.982690
 30
0.0
 10
112.697718
 20
13.547958
 30
0.0
 10
112.586778
 20
14.040209
 30
0.0
 10
112.407798
 20
14.459425
 30
0.0
 10
112.160780
 20
14.805591
 30
0.0
 10
111.853266
 20
15.076536
 30
0.0
 10
111.493057
 20
15.270088
 30
0.0
 10
111.080156
 20
15.386231
 30
0.0
  0
LWPOLYLINE
  5
107
100
AcDbEntity
  8
0
 62
7
100
AcDbPolyline
 90
64
 70
1
 10
125.663375
 20
7.096612
 30
0.0
 10
125.145054
 20
7.096612
 30
0.0
 10
124.626730
 20
7.096612
 30
0.0
 10
124.108406
 20
7.096612
 30
0.0
 10
123.590084
 20
7.096612
 30
0.0
 10
123.590084
 20
8.590071
 30
0.0
 10
123.590084
 20
10.083530
 30
0.0
 10
123.590084
 20
11.576989
 30
0.0
 10
123.590084
 20
13.070448
 30
0.0
 10
123.561808
 20
13.597066
 30
0.0
 10
123.476970
 20
14.052267
 30
0.0
 10
123.335553
 20
14.436065
 30
0.0
 10
123.137538
 20
14.748479
 30
0.0
 10
122.878144
 20
14.990600
 30
0.0
 10
122.552309
 20
15.163524
 30
0.0
 10
122.160004
 20
15.267267
 30
0.0
 10
121.701192
 20
15.301844
 30
0.0
 10
121.090703
 20
15.253527
 30
0.0
 10
120.568037
 20
15.108588
 30
0.0
 10
120.133197
 20
14.867043
 30
0.0
 10
119.786178
 20
14.528908
 30
0.0
 10
119.520946
 20
14.076998
 30
0.0
 10
119.331475
 20
13.494396
 30
0.0
 10
119.217781
 20
12.781136
 30
0.0
 10
119.179880
 20
11.937251
 30
0.0
 10
119.179880
 20
10.727092
 30
0.0
 10
119.179880
 20
9.516932
 30
0.0
 10
119.179880
 20
8.306772
 30
0.0
 10
119.179880
 20
7.096612
 30
0.0
 10
118.663778
 20
7.096612
 30
0.0
 10
118.147674
 20
7.096612
 30
0.0
 10
117.631570
 20
7.096612
 30
0.0
 10
117.115468
 20
7.096612
 30
0.0
 10
117.115468
 20
9.525681
 30
0.0
 10
117.115468
 20
11.954751
 30
0.0
 10
117.115468
 20
14.383820
 30
0.0
 10
117.115468
 20
16.812889
 30
0.0
 10
117.519566
 20
16.812889
 30
0.0
 10
117.923665
 20
16.812889
 30
0.0
 10
118.327763
 20
16.812889
 30
0.0
 10
118.731861
 20
16.812889
 30
0.0
 10
118.804338
 20
16.494460
 30
0.0
 10
118.876818
 20
16.176032
 30
0.0
 10
118.949295
 20
15.857603
 30
0.0
 10
119.021775
 20
15.539174
 30
0.0
 10
119.048154
 20
15.539174
 30
0.0
 10
119.074533
 20
15.539174
 30
0.0
 10
119.100912
 20
15.539174
 30
0.0
 10
119.127291
 20
15.539174
 30
0.0
 10
119.369999
 20
15.866404
 30
0.0
 10
119.658805
 20
16.154114
 30
0.0
 10
119.993709
 20
16.402287
 30
0.0
 10
120.374714
 20
16.610906
 30
0.0
 10
120.789769
 20
16.776138
 30
0.0
 10
121.226810
 20
16.894162
 30
0.0
 10
121.685825
 20
16.964975
 30
0.0
 10
122.166795
 20
16.988579
 30
0.0
 10
123.696524
 20
16.766212
 30
0.0
 10
124.789208
 20
16.099112
 30
0.0
 10
125.444829
 20
14.987277
 30
0.0
 10
125.663373
 20
13.430709
 30
0.0
 10
125.663373
 20
11.847185
 30
0.0
 10
125.663373
 20
10.263660
 30
0.0
 10
125.663373
 20
8.680136
 30
0.0
  0
LWPOLYLINE
  5
108
100
AcDbEntity
  8
0
 62
7
100
AcDbPolyline
 90
68
 70
1
 10
132.946100
 20
15.591760
 30
0.0
 10
132.333360
 20
15.591760
 30
0.0
 10
131.720619
 20
15.591760
 30
0.0
 10
131.107876
 20
15.591760
 30
0.0
 10
130.495135
 20
15.591760
 30
0.0
 10
130.495135
 20
13.467973
 30
0.0
 10
130.495135
 20
11.344186
 30
0.0
 10
130.495135
 20
9.220399
 30
0.0
 10
130.495135
 20
7.096612
 30
0.0
 10
130.130563
 20
7.096612
 30
0.0
 10
129.765994
 20
7.096612
 30
0.0
 10
129.401422
 20
7.096612
 30
0.0
 10
129.036850
 20
7.096612
 30
0.0
 10
129.036850
 20
9.220399
 30
0.0
 10
129.036850
 20
11.344186
 30
0.0
 10
129.036850
 20
13.467973
 30
0.0
 10
129.036850
 20
15.591760
 30
0.0
 10
128.606373
 20
15.591760
 30
0.0
 10
128.175893
 20
15.591760
 30
0.0
 10
127.745416
 20
15.591760
 30
0.0
 10
127.314939
 20
15.591760
 30
0.0
 10
127.314939
 20
15.756481
 30
0.0
 10
127.314939
 20
15.921202
 30
0.0
 10
127.314939
 20
16.085923
 30
0.0
 10
127.314939
 20
16.250644
 30
0.0
 10
127.745416
 20
16.382412
 30
0.0
 10
128.175893
 20
16.514180
 30
0.0
 10
128.606373
 20
16.645948
 30
0.0
 10
129.036850
 20
16.777716
 30
0.0
 10
129.036850
 20
16.911704
 30
0.0
 10
129.036850
 20
17.045693
 30
0.0
 10
129.036850
 20
17.179681
 30
0.0
 10
129.036850
 20
17.313669
 30
0.0
 10
129.230652
 20
18.866452
 30
0.0
 10
129.812071
 20
19.975564
 30
0.0
 10
130.781121
 20
20.641018
 30
0.0
 10
132.137819
 20
20.862833
 30
0.0
 10
132.536494
 20
20.843605
 30
0.0
 10
132.968061
 20
20.785935
 30
0.0
 10
133.432571
 20
20.689838
 30
0.0
 10
133.930072
 20
20.555330
 30
0.0
 10
133.835611
 20
20.263237
 30
0.0
 10
133.741149
 20
19.971145
 30
0.0
 10
133.646688
 20
19.679052
 30
0.0
 10
133.552226
 20
19.386960
 30
0.0
 10
133.145919
 20
19.506128
 30
0.0
 10
132.770367
 20
19.591229
 30
0.0
 10
132.425570
 20
19.642277
 30
0.0
 10
132.111525
 20
19.659289
 30
0.0
 10
131.725519
 20
19.624976
 30
0.0
 10
131.393351
 20
19.522037
 30
0.0
 10
131.114988
 20
19.350470
 30
0.0
 10
130.890396
 20
19.110277
 30
0.0
 10
130.717420
 20
18.794308
 30
0.0
 10
130.593907
 20
18.395413
 30
0.0
 10
130.519824
 20
17.913591
 30
0.0
 10
130.495138
 20
17.348842
 30
0.0
 10
130.495138
 20
17.192914
 30
0.0
 10
130.495138
 20
17.036986
 30
0.0
 10
130.495138
 20
16.881059
 30
0.0
 10
130.495138
 20
16.725131
 30
0.0
 10
131.107879
 20
16.725131
 30
0.0
 10
131.720619
 20
16.725131
 30
0.0
 10
132.333362
 20
16.725131
 30
0.0
 10
132.946103
 20
16.725131
 30
0.0
 10
132.946103
 20
16.441788
 30
0.0
 10
132.946103
 20
16.158445
 30
0.0
 10
132.946103
 20
15.875102
 30
0.0
  0
LWPOLYLINE
  5
109
100
AcDbEntity
  8
0
 62
7
100
AcDbPolyline
 90
16
 70
1
 10
136.161468
 20
7.096612
 30
0.0
 10
135.796896
 20
7.096612
 30
0.0
 10
135.432326
 20
7.096612
 30
0.0
 10
135.067754
 20
7.096612
 30
0.0
 10
134.703182
 20
7.096612
 30
0.0
 10
134.703182
 20
10.514007
 30
0.0
 10
134.703182
 20
13.931403
 30
0.0
 10
134.703182
 20
17.348798
 30
0.0
 10
134.703182
 20
20.766194
 30
0.0
 10
135.067754
 20
20.766194
 30
0.0
 10
135.432326
 20
20.766194
 30
0.0
 10
135.796896
 20
20.766194
 30
0.0
 10
136.161468
 20
20.766194
 30
0.0
 10
136.161468
 20
17.348798
 30
0.0
 10
136.161468
 20
13.931403
 30
0.0
 10
136.161468
 20
10.514007
 30
0.0
  0
LWPOLYLINE
  5
10a
100
AcDbEntity
  8
0
 62
7
100
AcDbPolyline
 90
56
 70
1
 10
143.321262
 20
6.920921
 30
0.0
 10
142.310109
 20
7.002183
 30
0.0
 10
141.411560
 20
7.245967
 30
0.0
 10
140.625581
 20
7.652274
 30
0.0
 10
139.952143
 20
8.221103
 30
0.0
 10
139.412136
 20
8.934338
 30
0.0
 10
139.026458
 20
9.773873
 30
0.0
 10
138.795075
 20
10.739724
 30
0.0
 10
138.717954
 20
11.831906
 30
0.0
 10
138.789590
 20
12.936036
 30
0.0
 10
139.004516
 20
13.920477
 30
0.0
 10
139.362770
 20
14.785229
 30
0.0
 10
139.864383
 20
15.530294
 30
0.0
 10
140.486717
 20
16.129875
 30
0.0
 10
141.207358
 20
16.558168
 30
0.0
 10
142.026267
 20
16.815156
 30
0.0
 10
142.943413
 20
16.900822
 30
0.0
 10
143.801079
 20
16.826416
 30
0.0
 10
144.564309
 20
16.603201
 30
0.0
 10
145.233088
 20
16.231174
 30
0.0
 10
145.807401
 20
15.710338
 30
0.0
 10
146.268588
 20
15.067723
 30
0.0
 10
146.598010
 20
14.330103
 30
0.0
 10
146.795662
 20
13.497476
 30
0.0
 10
146.861546
 20
12.569843
 30
0.0
 10
146.861546
 20
12.339216
 30
0.0
 10
146.861546
 20
12.108589
 30
0.0
 10
146.861546
 20
11.877962
 30
0.0
 10
146.861546
 20
11.647335
 30
0.0
 10
145.203365
 20
11.647335
 30
0.0
 10
143.545184
 20
11.647335
 30
0.0
 10
141.887006
 20
11.647335
 30
0.0
 10
140.228825
 20
11.647335
 30
0.0
 10
140.298898
 20
10.850616
 30
0.0
 10
140.465003
 20
10.156053
 30
0.0
 10
140.727192
 20
9.563613
 30
0.0
 10
141.085514
 20
9.073264
 30
0.0
 10
141.533250
 20
8.688965
 30
0.0
 10
142.063914
 20
8.414446
 30
0.0
 10
142.677504
 20
8.249722
 30
0.0
 10
143.374020
 20
8.194810
 30
0.0
 10
144.149252
 20
8.235454
 30
0.0
 10
144.920110
 20
8.357377
 30
0.0
 10
145.686589
 20
8.560560
 30
0.0
 10
146.448698
 20
8.844988
 30
0.0
 10
146.448698
 20
8.519943
 30
0.0
 10
146.448698
 20
8.194897
 30
0.0
 10
146.448698
 20
7.869852
 30
0.0
 10
146.448698
 20
7.544806
 30
0.0
 10
146.067367
 20
7.389624
 30
0.0
 10
145.696482
 20
7.258112
 30
0.0
 10
145.336046
 20
7.150237
 30
0.0
 10
144.986057
 20
7.065966
 30
0.0
 10
144.623338
 20
7.002534
 30
0.0
 10
144.224965
 20
6.957204
 30
0.0
 10
143.790940
 20
6.929995
 30
0.0
  0
LWPOLYLINE
  5
10b
100
AcDbEntity
  8
0
 62
7
100
AcDbPolyline
 90
20
 70
1
 10
142.925826
 20
15.679692
 30
0.0
 10
142.375451
 20
15.632480
 30
0.0
 10
141.883762
 20
15.490833
 30
0.0
 10
141.450806
 20
15.254735
 30
0.0
 10
141.076632
 20
14.924169
 30
0.0
 10
140.767260
 20
14.510152
 30
0.0
 10
140.528686
 20
14.023688
 30
0.0
 10
140.360927
 20
13.464746
 30
0.0
 10
140.263996
 20
12.833292
 30
0.0
 10
141.522476
 20
12.833292
 30
0.0
 10
142.780956
 20
12.833292
 30
0.0
 10
144.039434
 20
12.833292
 30
0.0
 10
145.297914
 20
12.833292
 30
0.0
 10
145.259459
 20
13.482596
 30
0.0
 10
145.144120
 20
14.051178
 30
0.0
 10
144.951924
 20
14.539021
 30
0.0
 10
144.682908
 20
14.946109
 30
0.0
 10
144.342522
 20
15.267076
 30
0.0
 10
143.936201
 20
15.496318
 30
0.0
 10
143.463965
 20
15.633851
 30
0.0
  0
LWPOLYLINE
  5
10c
100
AcDbEntity
  8
0
 62
7
100
AcDbPolyline
 90
48
 70
1
 10
151.306750
 20
12.025184
 30
0.0
 10
150.469997
 20
13.200170
 30
0.0
 10
149.633247
 20
14.375157
 30
0.0
 10
148.796494
 20
15.550144
 30
0.0
 10
147.959744
 20
16.725131
 30
0.0
 10
148.374812
 20
16.725131
 30
0.0
 10
148.789879
 20
16.725131
 30
0.0
 10
149.204945
 20
16.725131
 30
0.0
 10
149.620012
 20
16.725131
 30
0.0
 10
150.254737
 20
15.802711
 30
0.0
 10
150.889462
 20
14.880290
 30
0.0
 10
151.524187
 20
13.957870
 30
0.0
 10
152.158912
 20
13.035449
 30
0.0
 10
152.791459
 20
13.957870
 30
0.0
 10
153.424006
 20
14.880290
 30
0.0
 10
154.056554
 20
15.802711
 30
0.0
 10
154.689101
 20
16.725131
 30
0.0
 10
155.099771
 20
16.725131
 30
0.0
 10
155.510442
 20
16.725131
 30
0.0
 10
155.921115
 20
16.725131
 30
0.0
 10
156.331785
 20
16.725131
 30
0.0
 10
155.495032
 20
15.550144
 30
0.0
 10
154.658282
 20
14.375157
 30
0.0
 10
153.821530
 20
13.200170
 30
0.0
 10
152.984779
 20
12.025184
 30
0.0
 10
153.865453
 20
10.793041
 30
0.0
 10
154.746127
 20
9.560898
 30
0.0
 10
155.626803
 20
8.328755
 30
0.0
 10
156.507476
 20
7.096612
 30
0.0
 10
156.094586
 20
7.096612
 30
0.0
 10
155.681693
 20
7.096612
 30
0.0
 10
155.268803
 20
7.096612
 30
0.0
 10
154.855913
 20
7.096612
 30
0.0
 10
154.181662
 20
8.071792
 30
0.0
 10
153.507411
 20
9.046972
 30
0.0
 10
152.833163
 20
10.022152
 30
0.0
 10
152.158912
 20
10.997331
 30
0.0
 10
151.478088
 20
10.022152
 30
0.0
 10
150.797263
 20
9.046972
 30
0.0
 10
150.116439
 20
8.071792
 30
0.0
 10
149.435616
 20
7.096612
 30
0.0
 10
149.022726
 20
7.096612
 30
0.0
 10
148.609833
 20
7.096612
 30
0.0
 10
148.196943
 20
7.096612
 30
0.0
 10
147.784053
 20
7.096612
 30
0.0
 10
148.664726
 20
8.328755
 30
0.0
 10
149.545400
 20
9.560898
 30
0.0
 10
150.426076
 20
10.793041
 30
0.0
  0
LWPOLYLINE
  5
10d
100
AcDbEntity
  8
0
 62
7
100
AcDbPolyline
 90
68
 70
1
 10
159.784309
 20
16.725131
 30
0.0
 10
159.784309
 20
15.163589
 30
0.0
 10
159.784309
 20
13.602048
 30
0.0
 10
159.784309
 20
12.040507
 30
0.0
 10
159.784309
 20
10.478965
 30
0.0
 10
159.817805
 20
9.927703
 30
0.0
 10
159.918297
 20
9.451091
 30
0.0
 10
160.085783
 20
9.049146
 30
0.0
 10
160.320262
 20
8.721883
 30
0.0
 10
160.626110
 20
8.468206
 30
0.0
 10
161.007703
 20
8.287009
 30
0.0
 10
161.465040
 20
8.178290
 30
0.0
 10
161.998120
 20
8.142051
 30
0.0
 10
162.702901
 20
8.193668
 30
0.0
 10
163.306048
 20
8.348518
 30
0.0
 10
163.807595
 20
8.606602
 30
0.0
 10
164.207574
 20
8.967920
 30
0.0
 10
164.513128
 20
9.446183
 30
0.0
 10
164.731382
 20
10.055104
 30
0.0
 10
164.862333
 20
10.794684
 30
0.0
 10
164.905984
 20
11.664922
 30
0.0
 10
164.905984
 20
12.929974
 30
0.0
 10
164.905984
 20
14.195026
 30
0.0
 10
164.905984
 20
15.460079
 30
0.0
 10
164.905984
 20
16.725131
 30
0.0
 10
165.270601
 20
16.725131
 30
0.0
 10
165.635215
 20
16.725131
 30
0.0
 10
165.999832
 20
16.725131
 30
0.0
 10
166.364446
 20
16.725131
 30
0.0
 10
166.364446
 20
14.318001
 30
0.0
 10
166.364446
 20
11.910871
 30
0.0
 10
166.364446
 20
9.503742
 30
0.0
 10
166.364446
 20
7.096612
 30
0.0
 10
166.063517
 20
7.096612
 30
0.0
 10
165.762588
 20
7.096612
 30
0.0
 10
165.461656
 20
7.096612
 30
0.0
 10
165.160727
 20
7.096612
 30
0.0
 10
165.108057
 20
7.419481
 30
0.0
 10
165.055383
 20
7.742350
 30
0.0
 10
165.002713
 20
8.065219
 30
0.0
 10
164.950039
 20
8.388088
 30
0.0
 10
164.930275
 20
8.388088
 30
0.0
 10
164.910511
 20
8.388088
 30
0.0
 10
164.890746
 20
8.388088
 30
0.0
 10
164.870982
 20
8.388088
 30
0.0
 10
164.625205
 20
8.053188
 30
0.0
 10
164.336074
 20
7.759980
 30
0.0
 10
164.003583
 20
7.508496
 30
0.0
 10
163.627737
 20
7.298770
 30
0.0
 10
163.216233
 20
7.133510
 30
0.0
 10
162.776752
 20
7.015427
 30
0.0
 10
162.309257
 20
6.944553
 30
0.0
 10
161.813716
 20
6.920921
 30
0.0
 10
160.990394
 20
6.973090
 30
0.0
 10
160.277424
 20
7.129586
 30
0.0
 10
159.674803
 20
7.390394
 30
0.0
 10
159.182533
 20
7.755496
 30
0.0
 10
158.800162
 20
8.235429
 30
0.0
 10
158.527001
 20
8.840504
 30
0.0
 10
158.363079
 20
9.570751
 30
0.0
 10
158.308432
 20
10.426205
 30
0.0
 10
158.308432
 20
12.000936
 30
0.0
 10
158.308432
 20
13.575668
 30
0.0
 10
158.308432
 20
15.150399
 30
0.0
 10
158.308432
 20
16.725130
 30
0.0
 10
158.677401
 20
16.725130
 30
0.0
 10
159.046368
 20
16.725130
 30
0.0
 10
159.415337
 20
16.725130
 30
0.0
  0
LWPOLYLINE
  5
10e
100
AcDbEntity
  8
0
 62
7
100
AcDbPolyline
 90
52
 70
1
 10
173.849152
 20
16.900822
 30
0.0
 10
174.161630
 20
16.894226
 30
0.0
 10
174.457606
 20
16.874440
 30
0.0
 10
174.737093
 20
16.841465
 30
0.0
 10
175.000110
 20
16.795301
 30
0.0
 10
174.949572
 20
16.457109
 30
0.0
 10
174.899032
 20
16.118917
 30
0.0
 10
174.848494
 20
15.780726
 30
0.0
 10
174.797953
 20
15.442534
 30
0.0
 10
174.508070
 20
15.500125
 30
0.0
 10
174.235750
 20
15.541262
 30
0.0
 10
173.980996
 20
15.565945
 30
0.0
 10
173.743808
 20
15.574174
 30
0.0
 10
173.180692
 20
15.514884
 30
0.0
 10
172.659889
 20
15.337017
 30
0.0
 10
172.181396
 20
15.040571
 30
0.0
 10
171.745217
 20
14.625548
 30
0.0
 10
171.381970
 20
14.122015
 30
0.0
 10
171.122528
 20
13.560302
 30
0.0
 10
170.966873
 20
12.940411
 30
0.0
 10
170.914994
 20
12.262341
 30
0.0
 10
170.914994
 20
10.970908
 30
0.0
 10
170.914994
 20
9.679476
 30
0.0
 10
170.914994
 20
8.388044
 30
0.0
 10
170.914994
 20
7.096612
 30
0.0
 10
170.550422
 20
7.096612
 30
0.0
 10
170.185853
 20
7.096612
 30
0.0
 10
169.821281
 20
7.096612
 30
0.0
 10
169.456709
 20
7.096612
 30
0.0
 10
169.456709
 20
9.503742
 30
0.0
 10
169.456709
 20
11.910871
 30
0.0
 10
169.456709
 20
14.318001
 30
0.0
 10
169.456709
 20
16.725131
 30
0.0
 10
169.757595
 20
16.725131
 30
0.0
 10
170.058480
 20
16.725131
 30
0.0
 10
170.359366
 20
16.725131
 30
0.0
 10
170.660250
 20
16.725131
 30
0.0
 10
170.701996
 20
16.279287
 30
0.0
 10
170.743745
 20
15.833443
 30
0.0
 10
170.785491
 20
15.387600
 30
0.0
 10
170.827237
 20
14.941756
 30
0.0
 10
170.844779
 20
14.941756
 30
0.0
 10
170.862321
 20
14.941756
 30
0.0
 10
170.879863
 20
14.941756
 30
0.0
 10
170.897404
 20
14.941756
 30
0.0
 10
171.179096
 20
15.384857
 30
0.0
 10
171.488227
 20
15.774154
 30
0.0
 10
171.824817
 20
16.109647
 30
0.0
 10
172.188881
 20
16.391336
 30
0.0
 10
172.575918
 20
16.614187
 30
0.0
 10
172.981665
 20
16.773407
 30
0.0
 10
173.406086
 20
16.868962
 30
0.0
  0
LWPOLYLINE
  5
10f
100
AcDbEntity
  8
0
 62
7
100
AcDbPolyline
 90
56
 70
1
 10
180.508341
 20
6.920921
 30
0.0
 10
179.497188
 20
7.002183
 30
0.0
 10
178.598637
 20
7.245967
 30
0.0
 10
177.812660
 20
7.652273
 30
0.0
 10
177.139222
 20
8.221103
 30
0.0
 10
176.599189
 20
8.934338
 30
0.0
 10
176.213450
 20
9.773873
 30
0.0
 10
175.982006
 20
10.739724
 30
0.0
 10
175.904858
 20
11.831906
 30
0.0
 10
175.976518
 20
12.936036
 30
0.0
 10
176.191487
 20
13.920477
 30
0.0
 10
176.549749
 20
14.785229
 30
0.0
 10
177.051287
 20
15.530294
 30
0.0
 10
177.673699
 20
16.129875
 30
0.0
 10
178.394347
 20
16.558168
 30
0.0
 10
179.213269
 20
16.815156
 30
0.0
 10
180.130492
 20
16.900822
 30
0.0
 10
180.988134
 20
16.826416
 30
0.0
 10
181.751322
 20
16.603201
 30
0.0
 10
182.420093
 20
16.231174
 30
0.0
 10
182.994477
 20
15.710338
 30
0.0
 10
183.455667
 20
15.067723
 30
0.0
 10
183.785087
 20
14.330103
 30
0.0
 10
183.982738
 20
13.497476
 30
0.0
 10
184.048622
 20
12.569843
 30
0.0
 10
184.048622
 20
12.339216
 30
0.0
 10
184.048622
 20
12.108589
 30
0.0
 10
184.048622
 20
11.877962
 30
0.0
 10
184.048622
 20
11.647335
 30
0.0
 10
182.390441
 20
11.647335
 30
0.0
 10
180.732261
 20
11.647335
 30
0.0
 10
179.074083
 20
11.647335
 30
0.0
 10
177.415902
 20
11.647335
 30
0.0
 10
177.485897
 20
10.850616
 30
0.0
 10
177.651992
 20
10.156053
 30
0.0
 10
177.914170
 20
9.563613
 30
0.0
 10
178.272416
 20
9.073264
 30
0.0
 10
178.720253
 20
8.688965
 30
0.0
 10
179.250949
 20
8.414446
 30
0.0
 10
179.864507
 20
8.249722
 30
0.0
 10
180.560924
 20
8.194810
 30
0.0
 10
181.336257
 20
8.235454
 30
0.0
 10
182.107165
 20
8.357377
 30
0.0
 10
182.873666
 20
8.560560
 30
0.0
 10
183.635777
 20
8.844988
 30
0.0
 10
183.635777
 20
8.519943
 30
0.0
 10
183.635777
 20
8.194897
 30
0.0
 10
183.635777
 20
7.869852
 30
0.0
 10
183.635777
 20
7.544806
 30
0.0
 10
183.254444
 20
7.389624
 30
0.0
 10
182.883540
 20
7.258112
 30
0.0
 10
182.523051
 20
7.150237
 30
0.0
 10
182.172962
 20
7.065966
 30
0.0
 10
181.810340
 20
7.002534
 30
0.0
 10
181.412020
 20
6.957204
 30
0.0
 10
180.978014
 20
6.929995
 30
0.0
  0
LWPOLYLINE
  5
110
100
AcDbEntity
  8
0
 62
7
100
AcDbPolyline
 90
20
 70
1
 10
180.112905
 20
15.679692
 30
0.0
 10
179.562456
 20
15.632480
 30
0.0
 10
179.070775
 20
15.490833
 30
0.0
 10
178.637859
 20
15.254735
 30
0.0
 10
178.263711
 20
14.924169
 30
0.0
 10
177.954339
 20
14.510152
 30
0.0
 10
177.715765
 20
14.023688
 30
0.0
 10
177.548006
 20
13.464746
 30
0.0
 10
177.451075
 20
12.833292
 30
0.0
 10
178.709511
 20
12.833292
 30
0.0
 10
179.967948
 20
12.833292
 30
0.0
 10
181.226383
 20
12.833292
 30
0.0
 10
182.484818
 20
12.833292
 30
0.0
 10
182.446390
 20
13.482596
 30
0.0
 10
182.331111
 20
14.051178
 30
0.0
 10
182.138976
 20
14.539021
 30
0.0
 10
181.869988
 20
14.946109
 30
0.0
 10
181.529527
 20
15.267076
 30
0.0
 10
181.123214
 20
15.496318
 30
0.0
 10
180.651018
 20
15.633851
 30
0.0
  0
LWPOLYLINE
  5
111
100
AcDbEntity
  8
0
 62
7
100
AcDbPolyline
 90
108
 70
1
 10
96.602479
 20
-10.895068
 30
0.0
 10
96.602479
 20
-9.329129
 30
0.0
 10
96.602479
 20
-7.763193
 30
0.0
 10
96.602479
 20
-6.197256
 30
0.0
 10
96.602479
 20
-4.631317
 30
0.0
 10
96.568429
 20
-3.980119
 30
0.0
 10
96.466292
 20
-3.423354
 30
0.0
 10
96.296083
 20
-2.961042
 30
0.0
 10
96.057818
 20
-2.593197
 30
0.0
 10
95.749192
 20
-2.312654
 30
0.0
 10
95.368136
 20
-2.112245
 30
0.0
 10
94.914633
 20
-1.991990
 30
0.0
 10
94.388667
 20
-1.951900
 30
0.0
 10
93.702894
 20
-2.002409
 30
0.0
 10
93.112646
 20
-2.153949
 30
0.0
 10
92.617928
 20
-2.406536
 30
0.0
 10
92.218738
 20
-2.760184
 30
0.0
 10
91.911255
 20
-3.221895
 30
0.0
 10
91.691645
 20
-3.798919
 30
0.0
 10
91.559891
 20
-4.491254
 30
0.0
 10
91.515975
 20
-5.298906
 30
0.0
 10
91.515975
 20
-6.697946
 30
0.0
 10
91.515975
 20
-8.096986
 30
0.0
 10
91.515975
 20
-9.496028
 30
0.0
 10
91.515975
 20
-10.895068
 30
0.0
 10
91.294140
 20
-10.895068
 30
0.0
 10
91.072309
 20
-10.895068
 30
0.0
 10
90.850477
 20
-10.895068
 30
0.0
 10
90.628642
 20
-10.895068
 30
0.0
 10
90.628642
 20
-9.263224
 30
0.0
 10
90.628642
 20
-7.631380
 30
0.0
 10
90.628642
 20
-5.999538
 30
0.0
 10
90.628642
 20
-4.367694
 30
0.0
 10
90.490278
 20
-3.310808
 30
0.0
 10
90.075189
 20
-2.555870
 30
0.0
 10
89.383375
 20
-2.102895
 30
0.0
 10
88.414834
 20
-1.951900
 30
0.0
 10
87.714751
 20
-2.006523
 30
0.0
 10
87.116827
 20
-2.170404
 30
0.0
 10
86.621027
 20
-2.443557
 30
0.0
 10
86.227317
 20
-2.826001
 30
0.0
 10
85.927501
 20
-3.328689
 30
0.0
 10
85.713390
 20
-3.962572
 30
0.0
 10
85.584945
 20
-4.727670
 30
0.0
 10
85.542139
 20
-5.623997
 30
0.0
 10
85.542139
 20
-6.941764
 30
0.0
 10
85.542139
 20
-8.259532
 30
0.0
 10
85.542139
 20
-9.577300
 30
0.0
 10
85.542139
 20
-10.895068
 30
0.0
 10
85.324701
 20
-10.895068
 30
0.0
 10
85.107264
 20
-10.895068
 30
0.0
 10
84.889829
 20
-10.895068
 30
0.0
 10
84.672392
 20
-10.895068
 30
0.0
 10
84.672392
 20
-8.507746
 30
0.0
 10
84.672392
 20
-6.120424
 30
0.0
 10
84.672392
 20
-3.733099
 30
0.0
 10
84.672392
 20
-1.345777
 30
0.0
 10
84.852478
 20
-1.345777
 30
0.0
 10
85.032567
 20
-1.345777
 30
0.0
 10
85.212656
 20
-1.345777
 30
0.0
 10
85.392742
 20
-1.345777
 30
0.0
 10
85.438840
 20
-1.672997
 30
0.0
 10
85.484938
 20
-2.000221
 30
0.0
 10
85.531039
 20
-2.327442
 30
0.0
 10
85.577138
 20
-2.654665
 30
0.0
 10
85.590314
 20
-2.654665
 30
0.0
 10
85.603490
 20
-2.654665
 30
0.0
 10
85.616693
 20
-2.654665
 30
0.0
 10
85.629869
 20
-2.654665
 30
0.0
 10
85.848420
 20
-2.318946
 30
0.0
 10
86.108664
 20
-2.023271
 30
0.0
 10
86.410633
 20
-1.767655
 30
0.0
 10
86.754359
 20
-1.552112
 30
0.0
 10
87.128284
 20
-1.381141
 30
0.0
 10
87.520851
 20
-1.258977
 30
0.0
 10
87.932093
 20
-1.185653
 30
0.0
 10
88.362044
 20
-1.161206
 30
0.0
 10
89.389871
 20
-1.267182
 30
0.0
 10
90.215657
 20
-1.585111
 30
0.0
 10
90.839383
 20
-2.114989
 30
0.0
 10
91.261031
 20
-2.856823
 30
0.0
 10
91.269815
 20
-2.856823
 30
0.0
 10
91.278599
 20
-2.856823
 30
0.0
 10
91.287383
 20
-2.856823
 30
0.0
 10
91.296167
 20
-2.856823
 30
0.0
 10
91.549032
 20
-2.471859
 30
0.0
 10
91.841958
 20
-2.134187
 30
0.0
 10
92.174975
 20
-1.843757
 30
0.0
 10
92.548117
 20
-1.600520
 30
0.0
 10
92.954655
 20
-1.408319
 30
0.0
 10
93.388111
 20
-1.271035
 30
0.0
 10
93.848502
 20
-1.188662
 30
0.0
 10
94.335846
 20
-1.161206
 30
0.0
 10
95.068832
 20
-1.213374
 30
0.0
 10
95.704089
 20
-1.369870
 30
0.0
 10
96.241627
 20
-1.630677
 30
0.0
 10
96.681467
 20
-1.995779
 30
0.0
 10
97.023486
 20
-2.474606
 30
0.0
 10
97.267805
 20
-3.076369
 30
0.0
 10
97.414411
 20
-3.801121
 30
0.0
 10
97.463282
 20
-4.648904
 30
0.0
 10
97.463282
 20
-6.210446
 30
0.0
 10
97.463282
 20
-7.771985
 30
0.0
 10
97.463282
 20
-9.333526
 30
0.0
 10
97.463282
 20
-10.895068
 30
0.0
 10
97.248065
 20
-10.895068
 30
0.0
 10
97.032847
 20
-10.895068
 30
0.0
 10
96.817632
 20
-10.895068
 30
0.0
  0
LWPOLYLINE
  5
112
100
AcDbEntity
  8
0
 62
7
100
AcDbPolyline
 90
16
 70
1
 10
101.425356
 20
-10.895068
 30
0.0
 10
101.207962
 20
-10.895068
 30
0.0
 10
100.990569
 20
-10.895068
 30
0.0
 10
100.773177
 20
-10.895068
 30
0.0
 10
100.555782
 20
-10.895068
 30
0.0
 10
100.555782
 20
-8.507746
 30
0.0
 10
100.555782
 20
-6.120424
 30
0.0
 10
100.555782
 20
-3.733099
 30
0.0
 10
100.555782
 20
-1.345777
 30
0.0
 10
100.773177
 20
-1.345777
 30
0.0
 10
100.990569
 20
-1.345777
 30
0.0
 10
101.207962
 20
-1.345777
 30
0.0
 10
101.425356
 20
-1.345777
 30
0.0
 10
101.425356
 20
-3.733099
 30
0.0
 10
101.425356
 20
-6.120424
 30
0.0
 10
101.425356
 20
-8.507746
 30
0.0
  0
LWPOLYLINE
  5
113
100
AcDbEntity
  8
0
 62
7
100
AcDbPolyline
 90
24
 70
1
 10
100.432677
 20
1.307347
 30
0.0
 10
100.467282
 20
1.676334
 30
0.0
 10
100.571083
 20
1.939917
 30
0.0
 10
100.744068
 20
2.098078
 30
0.0
 10
100.986217
 20
2.150802
 30
0.0
 10
101.114913
 20
2.137060
 30
0.0
 10
101.228835
 20
2.095844
 30
0.0
 10
101.327969
 20
2.027171
 30
0.0
 10
101.412297
 20
1.931058
 30
0.0
 10
101.479514
 20
1.809704
 30
0.0
 10
101.527568
 20
1.665302
 30
0.0
 10
101.556423
 20
1.497849
 30
0.0
 10
101.566054
 20
1.307347
 30
0.0
 10
101.556423
 20
1.120150
 30
0.0
 10
101.527568
 20
0.953767
 30
0.0
 10
101.479514
 20
0.808246
 30
0.0
 10
101.412297
 20
0.683636
 30
0.0
 10
101.327969
 20
0.583664
 30
0.0
 10
101.228835
 20
0.512276
 30
0.0
 10
101.114913
 20
0.469455
 30
0.0
 10
100.986217
 20
0.455186
 30
0.0
 10
100.744068
 20
0.508438
 30
0.0
 10
100.571083
 20
0.668205
 30
0.0
 10
100.467282
 20
0.934503
 30
0.0
  0
LWPOLYLINE
  5
114
100
AcDbEntity
  8
0
 62
7
100
AcDbPolyline
 90
56
 70
1
 10
108.435926
 20
-11.070759
 30
0.0
 10
107.467908
 20
-10.990051
 30
0.0
 10
106.610782
 20
-10.747912
 30
0.0
 10
105.864562
 20
-10.344327
 30
0.0
 10
105.229263
 20
-9.779283
 30
0.0
 10
104.722009
 20
-9.069935
 30
0.0
 10
104.359668
 20
-8.233196
 30
0.0
 10
104.142249
 20
-7.269062
 30
0.0
 10
104.069772
 20
-6.177534
 30
0.0
 10
104.144993
 20
-5.057114
 30
0.0
 10
104.370658
 20
-4.067940
 30
0.0
 10
104.746766
 20
-3.210010
 30
0.0
 10
105.273316
 20
-2.483326
 30
0.0
 10
105.930528
 20
-1.904899
 30
0.0
 10
106.698627
 20
-1.491737
 30
0.0
 10
107.577633
 20
-1.243838
 30
0.0
 10
108.567561
 20
-1.161206
 30
0.0
 10
109.180368
 20
-1.188109
 30
0.0
 10
109.779985
 20
-1.268815
 30
0.0
 10
110.366413
 20
-1.403324
 30
0.0
 10
110.939649
 20
-1.591638
 30
0.0
 10
110.880358
 20
-1.784916
 30
0.0
 10
110.821070
 20
-1.978194
 30
0.0
 10
110.761780
 20
-2.171470
 30
0.0
 10
110.702492
 20
-2.364748
 30
0.0
 10
110.103428
 20
-2.184104
 30
0.0
 10
109.545027
 20
-2.055090
 30
0.0
 10
109.027272
 20
-1.977694
 30
0.0
 10
108.550149
 20
-1.951897
 30
0.0
 10
107.724900
 20
-2.019707
 30
0.0
 10
107.006152
 20
-2.223140
 30
0.0
 10
106.393901
 20
-2.562191
 30
0.0
 10
105.888147
 20
-3.036864
 30
0.0
 10
105.492320
 20
-3.638902
 30
0.0
 10
105.209586
 20
-4.360074
 30
0.0
 10
105.039946
 20
-5.200409
 30
0.0
 10
104.983399
 20
-6.159945
 30
0.0
 10
105.039946
 20
-7.073871
 30
0.0
 10
105.209586
 20
-7.882898
 30
0.0
 10
105.492320
 20
-8.587060
 30
0.0
 10
105.888147
 20
-9.186389
 30
0.0
 10
106.385646
 20
-9.664846
 30
0.0
 10
106.973156
 20
-10.006621
 30
0.0
 10
107.650709
 20
-10.211697
 30
0.0
 10
108.418339
 20
-10.280060
 30
0.0
 10
109.056903
 20
-10.250969
 30
0.0
 10
109.672398
 20
-10.163680
 30
0.0
 10
110.264813
 20
-10.018181
 30
0.0
 10
110.834130
 20
-9.814454
 30
0.0
 10
110.834130
 20
-10.016524
 30
0.0
 10
110.834130
 20
-10.218595
 30
0.0
 10
110.834130
 20
-10.420665
 30
0.0
 10
110.834130
 20
-10.622735
 30
0.0
 10
110.341632
 20
-10.818720
 30
0.0
 10
109.777765
 20
-10.958729
 30
0.0
 10
109.142530
 20
-11.042748
 30
0.0
  0
LWPOLYLINE
  5
115
100
AcDbEntity
  8
0
 62
7
100
AcDbPolyline
 90
52
 70
1
 10
116.931072
 20
-1.161206
 30
0.0
 10
117.239566
 20
-1.168905
 30
0.0
 10
117.559093
 20
-1.191977
 30
0.0
 10
117.889655
 20
-1.230397
 30
0.0
 10
118.231253
 20
-1.284131
 30
0.0
 10
118.189507
 20
-1.492819
 30
0.0
 10
118.147761
 20
-1.701506
 30
0.0
 10
118.106015
 20
-1.910194
 30
0.0
 10
118.064269
 20
-2.118881
 30
0.0
 10
117.762835
 20
-2.053519
 30
0.0
 10
117.455881
 20
-2.006833
 30
0.0
 10
117.143443
 20
-1.978819
 30
0.0
 10
116.825554
 20
-1.969479
 30
0.0
 10
116.242462
 20
-2.034257
 30
0.0
 10
115.714253
 20
-2.228596
 30
0.0
 10
115.240956
 20
-2.552517
 30
0.0
 10
114.822608
 20
-3.006037
 30
0.0
 10
114.480515
 20
-3.558410
 30
0.0
 10
114.236204
 20
-4.178869
 30
0.0
 10
114.089640
 20
-4.867402
 30
0.0
 10
114.040793
 20
-5.623989
 30
0.0
 10
114.040793
 20
-6.941757
 30
0.0
 10
114.040793
 20
-8.259524
 30
0.0
 10
114.040793
 20
-9.577292
 30
0.0
 10
114.040793
 20
-10.895060
 30
0.0
 10
113.823356
 20
-10.895060
 30
0.0
 10
113.605919
 20
-10.895060
 30
0.0
 10
113.388481
 20
-10.895060
 30
0.0
 10
113.171044
 20
-10.895060
 30
0.0
 10
113.171044
 20
-8.507738
 30
0.0
 10
113.171044
 20
-6.120416
 30
0.0
 10
113.171044
 20
-3.733091
 30
0.0
 10
113.171044
 20
-1.345769
 30
0.0
 10
113.355527
 20
-1.345769
 30
0.0
 10
113.540011
 20
-1.345769
 30
0.0
 10
113.724497
 20
-1.345769
 30
0.0
 10
113.908980
 20
-1.345769
 30
0.0
 10
113.930914
 20
-1.776201
 30
0.0
 10
113.952848
 20
-2.206636
 30
0.0
 10
113.974782
 20
-2.637068
 30
0.0
 10
113.996716
 20
-3.067502
 30
0.0
 10
114.012088
 20
-3.067502
 30
0.0
 10
114.027461
 20
-3.067502
 30
0.0
 10
114.042833
 20
-3.067502
 30
0.0
 10
114.058205
 20
-3.067502
 30
0.0
 10
114.357491
 20
-2.579677
 30
0.0
 10
114.666636
 20
-2.170353
 30
0.0
 10
114.985641
 20
-1.839547
 30
0.0
 10
115.314508
 20
-1.587278
 30
0.0
 10
115.665972
 20
-1.400892
 30
0.0
 10
116.052531
 20
-1.267740
 30
0.0
 10
116.474221
 20
-1.187836
 30
0.0
  0
LWPOLYLINE
  5
116
100
AcDbEntity
  8
0
 62
7
100
AcDbPolyline
 90
36
 70
1
 10
127.710200
 20
-6.107189
 30
0.0
 10
127.639384
 20
-7.211642
 30
0.0
 10
127.426921
 20
-8.188164
 30
0.0
 10
127.072800
 20
-9.036735
 30
0.0
 10
126.577003
 20
-9.757344
 30
0.0
 10
125.956557
 20
-10.331987
 30
0.0
 10
125.228501
 20
-10.742427
 30
0.0
 10
124.392838
 20
-10.988678
 30
0.0
 10
123.449567
 20
-11.070759
 30
0.0
 10
122.840089
 20
-11.032884
 30
0.0
 10
122.267943
 20
-10.919251
 30
0.0
 10
121.733112
 20
-10.729838
 30
0.0
 10
121.235584
 20
-10.464636
 30
0.0
 10
120.784840
 20
-10.128586
 30
0.0
 10
120.390105
 20
-9.726655
 30
0.0
 10
120.051362
 20
-9.258837
 30
0.0
 10
119.768591
 20
-8.725138
 30
0.0
 10
119.545666
 20
-8.136528
 30
0.0
 10
119.386456
 20
-7.503988
 30
0.0
 10
119.290941
 20
-6.827536
 30
0.0
 10
119.259107
 20
-6.107189
 30
0.0
 10
119.329922
 20
-5.003289
 30
0.0
 10
119.542383
 20
-4.028414
 30
0.0
 10
119.896506
 20
-3.182564
 30
0.0
 10
120.392304
 20
-2.465739
 30
0.0
 10
121.011643
 20
-1.895054
 30
0.0
 10
121.736387
 20
-1.487382
 30
0.0
 10
122.566552
 20
-1.242756
 30
0.0
 10
123.502153
 20
-1.161206
 30
0.0
 10
124.433150
 20
-1.243838
 30
0.0
 10
125.258124
 20
-1.491737
 30
0.0
 10
125.977089
 20
-1.904899
 30
0.0
 10
126.590063
 20
-2.483326
 30
0.0
 10
127.080148
 20
-3.205628
 30
0.0
 10
127.430186
 20
-4.050395
 30
0.0
 10
127.640199
 20
-5.017593
 30
0.0
  0
LWPOLYLINE
  5
117
100
AcDbEntity
  8
0
 62
7
100
AcDbPolyline
 90
32
 70
1
 10
120.172734
 20
-6.107189
 30
0.0
 10
120.226802
 20
-7.037007
 30
0.0
 10
120.389018
 20
-7.858678
 30
0.0
 10
120.659395
 20
-8.572185
 30
0.0
 10
121.037953
 20
-9.177512
 30
0.0
 10
121.515365
 20
-9.659927
 30
0.0
 10
122.082282
 20
-10.004467
 30
0.0
 10
122.738687
 20
-10.211170
 30
0.0
 10
123.484566
 20
-10.280063
 30
0.0
 10
124.230519
 20
-10.211170
 30
0.0
 10
124.886916
 20
-10.004467
 30
0.0
 10
125.453791
 20
-9.659927
 30
0.0
 10
125.931179
 20
-9.177512
 30
0.0
 10
126.309837
 20
-8.572185
 30
0.0
 10
126.580268
 20
-7.858678
 30
0.0
 10
126.742502
 20
-7.037007
 30
0.0
 10
126.796572
 20
-6.107189
 30
0.0
 10
126.741949
 20
-5.174329
 30
0.0
 10
126.578069
 20
-4.352393
 30
0.0
 10
126.304916
 20
-3.641360
 30
0.0
 10
125.922471
 20
-3.041219
 30
0.0
 10
125.441199
 20
-2.564617
 30
0.0
 10
124.871549
 20
-2.224207
 30
0.0
 10
124.213485
 20
-2.019975
 30
0.0
 10
123.466979
 20
-1.951900
 30
0.0
 10
122.721656
 20
-2.019710
 30
0.0
 10
122.066918
 20
-2.223143
 30
0.0
 10
121.502776
 20
-2.562193
 30
0.0
 10
121.029248
 20
-3.036866
 30
0.0
 10
120.654474
 20
-3.635632
 30
0.0
 10
120.386819
 20
-4.346951
 30
0.0
 10
120.226249
 20
-5.170810
 30
0.0
  0
LWPOLYLINE
  5
118
100
AcDbEntity
  8
0
 62
7
100
AcDbPolyline
 90
96
 70
1
 10
136.275694
 20
-8.408929
 30
0.0
 10
136.214739
 20
-9.013111
 30
0.0
 10
136.031878
 20
-9.543217
 30
0.0
 10
135.727107
 20
-9.999207
 30
0.0
 10
135.300426
 20
-10.381054
 30
0.0
 10
134.761835
 20
-10.682825
 30
0.0
 10
134.121086
 20
-10.898354
 30
0.0
 10
133.378215
 20
-11.027661
 30
0.0
 10
132.533252
 20
-11.070759
 30
0.0
 10
131.625046
 20
-11.033969
 30
0.0
 10
130.815696
 20
-10.923603
 30
0.0
 10
130.105208
 20
-10.739684
 30
0.0
 10
129.493576
 20
-10.482220
 30
0.0
 10
129.493576
 20
-10.247196
 30
0.0
 10
129.493576
 20
-10.012172
 30
0.0
 10
129.493576
 20
-9.777151
 30
0.0
 10
129.493576
 20
-9.542126
 30
0.0
 10
130.223818
 20
-9.857280
 30
0.0
 10
130.973846
 20
-10.082390
 30
0.0
 10
131.743656
 20
-10.217454
 30
0.0
 10
132.533252
 20
-10.262476
 30
0.0
 10
133.197870
 20
-10.233120
 30
0.0
 10
133.777387
 20
-10.145030
 30
0.0
 10
134.271792
 20
-9.998173
 30
0.0
 10
134.681068
 20
-9.792518
 30
0.0
 10
135.002037
 20
-9.538062
 30
0.0
 10
135.231277
 20
-9.244595
 30
0.0
 10
135.368811
 20
-8.912143
 30
0.0
 10
135.414652
 20
-8.540742
 30
0.0
 10
135.378148
 20
-8.194762
 30
0.0
 10
135.268629
 20
-7.877395
 30
0.0
 10
135.086074
 20
-7.588597
 30
0.0
 10
134.830468
 20
-7.328318
 30
0.0
 10
134.491410
 20
-7.083414
 30
0.0
 10
134.058491
 20
-6.840749
 30
0.0
 10
133.531673
 20
-6.600272
 30
0.0
 10
132.910927
 20
-6.361933
 30
0.0
 10
132.248243
 20
-6.111880
 30
0.0
 10
131.692039
 20
-5.879915
 30
0.0
 10
131.242369
 20
-5.666036
 30
0.0
 10
130.899276
 20
-5.470245
 30
0.0
 10
130.627189
 20
-5.277562
 30
0.0
 10
130.390770
 20
-5.072764
 30
0.0
 10
130.190034
 20
-4.855887
 30
0.0
 10
130.025000
 20
-4.626962
 30
0.0
 10
129.896306
 20
-4.379026
 30
0.0
 10
129.804343
 20
-4.105333
 30
0.0
 10
129.749140
 20
-3.805846
 30
0.0
 10
129.730725
 20
-3.480533
 30
0.0
 10
129.787010
 20
-2.972591
 30
0.0
 10
129.955867
 20
-2.520675
 30
0.0
 10
130.237293
 20
-2.124784
 30
0.0
 10
130.631292
 20
-1.784916
 30
0.0
 10
131.126230
 20
-1.512043
 30
0.0
 10
131.710708
 20
-1.317133
 30
0.0
 10
132.384670
 20
-1.200187
 30
0.0
 10
133.148075
 20
-1.161206
 30
0.0
 10
133.911295
 20
-1.197446
 30
0.0
 10
134.654745
 20
-1.306163
 30
0.0
 10
135.378444
 20
-1.487361
 30
0.0
 10
136.082408
 20
-1.741038
 30
0.0
 10
136.001136
 20
-1.938711
 30
0.0
 10
135.919864
 20
-2.136383
 30
0.0
 10
135.838591
 20
-2.334059
 30
0.0
 10
135.757319
 20
-2.531732
 30
0.0
 10
135.067103
 20
-2.278055
 30
0.0
 10
134.402158
 20
-2.096857
 30
0.0
 10
133.762483
 20
-1.988140
 30
0.0
 10
133.148075
 20
-1.951900
 30
0.0
 10
132.594107
 20
-1.976057
 30
0.0
 10
132.100505
 20
-2.048536
 30
0.0
 10
131.667300
 20
-2.169335
 30
0.0
 10
131.294529
 20
-2.338454
 30
0.0
 10
130.994716
 20
-2.550401
 30
0.0
 10
130.780602
 20
-2.799683
 30
0.0
 10
130.652160
 20
-3.086283
 30
0.0
 10
130.609353
 20
-3.410183
 30
0.0
 10
130.642558
 20
-3.764875
 30
0.0
 10
130.742187
 20
-4.082235
 30
0.0
 10
130.908256
 20
-4.362278
 30
0.0
 10
131.140777
 20
-4.605020
 30
0.0
 10
131.469940
 20
-4.835581
 30
0.0
 10
131.925923
 20
-5.079333
 30
0.0
 10
132.508744
 20
-5.336275
 30
0.0
 10
133.218423
 20
-5.606407
 30
0.0
 10
133.820162
 20
-5.833478
 30
0.0
 10
134.334075
 20
-6.049007
 30
0.0
 10
134.760168
 20
-6.253012
 30
0.0
 10
135.098435
 20
-6.445509
 30
0.0
 10
135.374377
 20
-6.638457
 30
0.0
 10
135.613495
 20
-6.844056
 30
0.0
 10
135.815782
 20
-7.062290
 30
0.0
 10
135.981242
 20
-7.293142
 30
0.0
 10
136.110035
 20
-7.540821
 30
0.0
 10
136.202052
 20
-7.809309
 30
0.0
 10
136.257276
 20
-8.098663
 30
0.0
  0
LWPOLYLINE
  5
119
100
AcDbEntity
  8
0
 62
7
100
AcDbPolyline
 90
56
 70
1
 10
142.548152
 20
-11.070759
 30
0.0
 10
141.580164
 20
-10.990051
 30
0.0
 10
140.723096
 20
-10.747912
 30
0.0
 10
139.976937
 20
-10.344327
 30
0.0
 10
139.341664
 20
-9.779283
 30
0.0
 10
138.834310
 20
-9.069935
 30
0.0
 10
138.471915
 20
-8.233196
 30
0.0
 10
138.254481
 20
-7.269062
 30
0.0
 10
138.182001
 20
-6.177534
 30
0.0
 10
138.257222
 20
-5.057114
 30
0.0
 10
138.482885
 20
-4.067940
 30
0.0
 10
138.858993
 20
-3.210010
 30
0.0
 10
139.385543
 20
-2.483326
 30
0.0
 10
140.042781
 20
-1.904899
 30
0.0
 10
140.810940
 20
-1.491737
 30
0.0
 10
141.690008
 20
-1.243838
 30
0.0
 10
142.679965
 20
-1.161206
 30
0.0
 10
143.292671
 20
-1.188109
 30
0.0
 10
143.892236
 20
-1.268815
 30
0.0
 10
144.478642
 20
-1.403324
 30
0.0
 10
145.051878
 20
-1.591638
 30
0.0
 10
144.992587
 20
-1.784916
 30
0.0
 10
144.933300
 20
-1.978194
 30
0.0
 10
144.874012
 20
-2.171470
 30
0.0
 10
144.814721
 20
-2.364748
 30
0.0
 10
144.215657
 20
-2.184104
 30
0.0
 10
143.657254
 20
-2.055090
 30
0.0
 10
143.139501
 20
-1.977694
 30
0.0
 10
142.662378
 20
-1.951897
 30
0.0
 10
141.837132
 20
-2.019707
 30
0.0
 10
141.118399
 20
-2.223140
 30
0.0
 10
140.506201
 20
-2.562191
 30
0.0
 10
140.000548
 20
-3.036864
 30
0.0
 10
139.604620
 20
-3.638902
 30
0.0
 10
139.321836
 20
-4.360074
 30
0.0
 10
139.152178
 20
-5.200409
 30
0.0
 10
139.095628
 20
-6.159945
 30
0.0
 10
139.152178
 20
-7.073871
 30
0.0
 10
139.321836
 20
-7.882898
 30
0.0
 10
139.604620
 20
-8.587060
 30
0.0
 10
140.000548
 20
-9.186389
 30
0.0
 10
140.497970
 20
-9.664846
 30
0.0
 10
141.085469
 20
-10.006621
 30
0.0
 10
141.763012
 20
-10.211697
 30
0.0
 10
142.530565
 20
-10.280060
 30
0.0
 10
143.169132
 20
-10.250969
 30
0.0
 10
143.784648
 20
-10.163680
 30
0.0
 10
144.377116
 20
-10.018181
 30
0.0
 10
144.946531
 20
-9.814454
 30
0.0
 10
144.946531
 20
-10.016524
 30
0.0
 10
144.946531
 20
-10.218595
 30
0.0
 10
144.946531
 20
-10.420665
 30
0.0
 10
144.946531
 20
-10.622735
 30
0.0
 10
144.454007
 20
-10.818720
 30
0.0
 10
143.890079
 20
-10.958729
 30
0.0
 10
143.254783
 20
-11.042748
 30
0.0
  0
LWPOLYLINE
  5
11a
100
AcDbEntity
  8
0
 62
7
100
AcDbPolyline
 90
36
 70
1
 10
155.181001
 20
-6.107189
 30
0.0
 10
155.110185
 20
-7.211642
 30
0.0
 10
154.897722
 20
-8.188164
 30
0.0
 10
154.543601
 20
-9.036735
 30
0.0
 10
154.047804
 20
-9.757344
 30
0.0
 10
153.427356
 20
-10.331987
 30
0.0
 10
152.699281
 20
-10.742427
 30
0.0
 10
151.863565
 20
-10.988678
 30
0.0
 10
150.920193
 20
-11.070759
 30
0.0
 10
150.310816
 20
-11.032884
 30
0.0
 10
149.738723
 20
-10.919251
 30
0.0
 10
149.203913
 20
-10.729838
 30
0.0
 10
148.706385
 20
-10.464636
 30
0.0
 10
148.255641
 20
-10.128586
 30
0.0
 10
147.860906
 20
-9.726655
 30
0.0
 10
147.522163
 20
-9.258837
 30
0.0
 10
147.239395
 20
-8.725138
 30
0.0
 10
147.016441
 20
-8.136528
 30
0.0
 10
146.857170
 20
-7.503988
 30
0.0
 10
146.761594
 20
-6.827536
 30
0.0
 10
146.729733
 20
-6.107189
 30
0.0
 10
146.800578
 20
-5.003289
 30
0.0
 10
147.013097
 20
-4.028414
 30
0.0
 10
147.367278
 20
-3.182564
 30
0.0
 10
147.863105
 20
-2.465739
 30
0.0
 10
148.482444
 20
-1.895054
 30
0.0
 10
149.207188
 20
-1.487382
 30
0.0
 10
150.037353
 20
-1.242756
 30
0.0
 10
150.972954
 20
-1.161206
 30
0.0
 10
151.903880
 20
-1.243838
 30
0.0
 10
152.728861
 20
-1.491737
 30
0.0
 10
153.447866
 20
-1.904899
 30
0.0
 10
154.060864
 20
-2.483326
 30
0.0
 10
154.550949
 20
-3.205628
 30
0.0
 10
154.900987
 20
-4.050395
 30
0.0
 10
155.111000
 20
-5.017593
 30
0.0
  0
LWPOLYLINE
  5
11b
100
AcDbEntity
  8
0
 62
7
100
AcDbPolyline
 90
32
 70
1
 10
147.643535
 20
-6.107189
 30
0.0
 10
147.697603
 20
-7.037007
 30
0.0
 10
147.859819
 20
-7.858678
 30
0.0
 10
148.130196
 20
-8.572185
 30
0.0
 10
148.508754
 20
-9.177512
 30
0.0
 10
148.986166
 20
-9.659927
 30
0.0
 10
149.553083
 20
-10.004467
 30
0.0
 10
150.209488
 20
-10.211170
 30
0.0
 10
150.955367
 20
-10.280063
 30
0.0
 10
151.701320
 20
-10.211170
 30
0.0
 10
152.357717
 20
-10.004467
 30
0.0
 10
152.924592
 20
-9.659927
 30
0.0
 10
153.401980
 20
-9.177512
 30
0.0
 10
153.780564
 20
-8.572185
 30
0.0
 10
154.051003
 20
-7.858678
 30
0.0
 10
154.213280
 20
-7.037007
 30
0.0
 10
154.267374
 20
-6.107189
 30
0.0
 10
154.212750
 20
-5.174329
 30
0.0
 10
154.048870
 20
-4.352393
 30
0.0
 10
153.775717
 20
-3.641360
 30
0.0
 10
153.393272
 20
-3.041219
 30
0.0
 10
152.912001
 20
-2.564617
 30
0.0
 10
152.342350
 20
-2.224207
 30
0.0
 10
151.684286
 20
-2.019975
 30
0.0
 10
150.937780
 20
-1.951900
 30
0.0
 10
150.192457
 20
-2.019710
 30
0.0
 10
149.537716
 20
-2.223143
 30
0.0
 10
148.973577
 20
-2.562193
 30
0.0
 10
148.500050
 20
-3.036866
 30
0.0
 10
148.125275
 20
-3.635632
 30
0.0
 10
147.857620
 20
-4.346951
 30
0.0
 10
147.697050
 20
-5.170810
 30
0.0
  0
LWPOLYLINE
  5
11c
100
AcDbEntity
  8
0
 62
7
100
AcDbPolyline
 90
64
 70
1
 10
161.910361
 20
-11.070759
 30
0.0
 10
160.882536
 20
-10.967530
 30
0.0
 10
160.004011
 20
-10.657848
 30
0.0
 10
159.274820
 20
-10.141731
 30
0.0
 10
158.694993
 20
-9.419196
 30
0.0
 10
158.679621
 20
-9.419196
 30
0.0
 10
158.664249
 20
-9.419196
 30
0.0
 10
158.648876
 20
-9.419196
 30
0.0
 10
158.633504
 20
-9.419196
 30
0.0
 10
158.640092
 20
-9.603679
 30
0.0
 10
158.646680
 20
-9.788165
 30
0.0
 10
158.653242
 20
-9.972649
 30
0.0
 10
158.659830
 20
-10.157132
 30
0.0
 10
158.675229
 20
-10.489853
 30
0.0
 10
158.686209
 20
-10.837934
 30
0.0
 10
158.692797
 20
-11.201392
 30
0.0
 10
158.694914
 20
-11.580246
 30
0.0
 10
158.694914
 20
-12.489519
 30
0.0
 10
158.694914
 20
-13.398794
 30
0.0
 10
158.694914
 20
-14.308069
 30
0.0
 10
158.694914
 20
-15.217341
 30
0.0
 10
158.477477
 20
-15.217341
 30
0.0
 10
158.260039
 20
-15.217341
 30
0.0
 10
158.042602
 20
-15.217341
 30
0.0
 10
157.825165
 20
-15.217341
 30
0.0
 10
157.825165
 20
-11.749450
 30
0.0
 10
157.825165
 20
-8.281559
 30
0.0
 10
157.825165
 20
-4.813668
 30
0.0
 10
157.825165
 20
-1.345777
 30
0.0
 10
158.009648
 20
-1.345777
 30
0.0
 10
158.194132
 20
-1.345777
 30
0.0
 10
158.378618
 20
-1.345777
 30
0.0
 10
158.563101
 20
-1.345777
 30
0.0
 10
158.604847
 20
-1.686190
 30
0.0
 10
158.646593
 20
-2.026600
 30
0.0
 10
158.688339
 20
-2.367010
 30
0.0
 10
158.730085
 20
-2.707423
 30
0.0
 10
158.743261
 20
-2.707423
 30
0.0
 10
158.756437
 20
-2.707423
 30
0.0
 10
158.769640
 20
-2.707423
 30
0.0
 10
158.782816
 20
-2.707423
 30
0.0
 10
159.348345
 20
-2.030952
 30
0.0
 10
160.061037
 20
-1.547760
 30
0.0
 10
160.920875
 20
-1.257845
 30
0.0
 10
161.927839
 20
-1.161206
 30
0.0
 10
162.836834
 20
-1.240544
 30
0.0
 10
163.631052
 20
-1.478568
 30
0.0
 10
164.310512
 20
-1.875295
 30
0.0
 10
164.875231
 20
-2.430740
 30
0.0
 10
165.319152
 20
-3.137636
 30
0.0
 10
165.636218
 20
-3.988954
 30
0.0
 10
165.826445
 20
-4.984671
 30
0.0
 10
165.889850
 20
-6.124776
 30
0.0
 10
165.823146
 20
-7.235791
 30
0.0
 10
165.623026
 20
-8.214500
 30
0.0
 10
165.289473
 20
-9.060884
 30
0.0
 10
164.822471
 20
-9.774931
 30
0.0
 10
164.240157
 20
-10.341832
 30
0.0
 10
163.560683
 20
-10.746780
 30
0.0
 10
162.784049
 20
-10.989762
 30
0.0
 10
161.910252
 20
-11.070759
 30
0.0
 10
161.910249
 20
-11.070759
 30
0.0
 10
161.910247
 20
-11.070759
 30
0.0
 10
161.910247
 20
-11.070759
 30
0.0
  0
LWPOLYLINE
  5
11d
100
AcDbEntity
  8
0
 62
7
100
AcDbPolyline
 90
32
 70
1
 10
161.892766
 20
-10.297649
 30
0.0
 10
162.584844
 20
-10.229575
 30
0.0
 10
163.194013
 20
-10.025340
 30
0.0
 10
163.720291
 20
-9.684933
 30
0.0
 10
164.163687
 20
-9.208331
 30
0.0
 10
164.515406
 20
-8.609272
 30
0.0
 10
164.766633
 20
-7.901511
 30
0.0
 10
164.917371
 20
-7.085063
 30
0.0
 10
164.967616
 20
-6.159947
 30
0.0
 10
164.777637
 20
-4.318953
 30
0.0
 10
164.207698
 20
-3.003934
 30
0.0
 10
163.257799
 20
-2.214912
 30
0.0
 10
161.927940
 20
-1.951900
 30
0.0
 10
161.148789
 20
-2.009264
 30
0.0
 10
160.480579
 20
-2.181373
 30
0.0
 10
159.923308
 20
-2.468240
 30
0.0
 10
159.476974
 20
-2.869880
 30
0.0
 10
159.134855
 20
-3.401126
 30
0.0
 10
158.890483
 20
-4.076774
 30
0.0
 10
158.743859
 20
-4.896795
 30
0.0
 10
158.694985
 20
-5.861153
 30
0.0
 10
158.694985
 20
-5.931456
 30
0.0
 10
158.694985
 20
-6.001758
 30
0.0
 10
158.694985
 20
-6.072060
 30
0.0
 10
158.694985
 20
-6.142363
 30
0.0
 10
158.741933
 20
-7.182279
 30
0.0
 10
158.882776
 20
-8.061859
 30
0.0
 10
159.117517
 20
-8.781137
 30
0.0
 10
159.446153
 20
-9.340144
 30
0.0
 10
159.880739
 20
-9.759053
 30
0.0
 10
160.433348
 20
-10.058273
 30
0.0
 10
161.104014
 20
-10.237806
 30
0.0
  0
LWPOLYLINE
  5
11e
100
AcDbEntity
  8
0
 62
7
100
AcDbPolyline
 90
60
 70
1
 10
172.390866
 20
-11.070759
 30
0.0
 10
171.407275
 20
-10.990606
 30
0.0
 10
170.538407
 20
-10.750132
 30
0.0
 10
169.784268
 20
-10.349325
 30
0.0
 10
169.144852
 20
-9.788165
 30
0.0
 10
168.635572
 20
-9.082601
 30
0.0
 10
168.271820
 20
-8.248584
 30
0.0
 10
168.053578
 20
-7.286096
 30
0.0
 10
167.980836
 20
-6.195121
 30
0.0
 10
168.051125
 20
-5.109824
 30
0.0
 10
168.261980
 20
-4.138242
 30
0.0
 10
168.613386
 20
-3.280339
 30
0.0
 10
169.105326
 20
-2.536087
 30
0.0
 10
169.716402
 20
-1.934575
 30
0.0
 10
170.425226
 20
-1.504926
 30
0.0
 10
171.231801
 20
-1.247135
 30
0.0
 10
172.136123
 20
-1.161206
 30
0.0
 10
172.935022
 20
-1.234792
 30
0.0
 10
173.644970
 20
-1.455542
 30
0.0
 10
174.265952
 20
-1.823434
 30
0.0
 10
174.797953
 20
-2.338456
 30
0.0
 10
175.224607
 20
-2.979761
 30
0.0
 10
175.529317
 20
-3.726505
 30
0.0
 10
175.712120
 20
-4.578667
 30
0.0
 10
175.773046
 20
-5.536237
 30
0.0
 10
175.773046
 20
-5.711928
 30
0.0
 10
175.773046
 20
-5.887619
 30
0.0
 10
175.773046
 20
-6.063308
 30
0.0
 10
175.773046
 20
-6.238999
 30
0.0
 10
174.053399
 20
-6.238999
 30
0.0
 10
172.333753
 20
-6.238999
 30
0.0
 10
170.614110
 20
-6.238999
 30
0.0
 10
168.894464
 20
-6.238999
 30
0.0
 10
168.958416
 20
-7.164705
 30
0.0
 10
169.132753
 20
-7.974034
 30
0.0
 10
169.417439
 20
-8.666972
 30
0.0
 10
169.812443
 20
-9.243504
 30
0.0
 10
170.311307
 20
-9.697024
 30
0.0
 10
170.907332
 20
-10.020946
 30
0.0
 10
171.600519
 20
-10.215285
 30
0.0
 10
172.390866
 20
-10.280063
 30
0.0
 10
172.787019
 20
-10.272945
 30
0.0
 10
173.158470
 20
-10.251567
 30
0.0
 10
173.505207
 20
-10.215877
 30
0.0
 10
173.827212
 20
-10.165855
 30
0.0
 10
174.157450
 20
-10.092301
 30
0.0
 10
174.528887
 20
-9.985788
 30
0.0
 10
174.941529
 20
-9.846334
 30
0.0
 10
175.395371
 20
-9.673955
 30
0.0
 10
175.395371
 20
-9.871628
 30
0.0
 10
175.395371
 20
-10.069303
 30
0.0
 10
175.395371
 20
-10.266976
 30
0.0
 10
175.395371
 20
-10.464652
 30
0.0
 10
174.998989
 20
-10.626320
 30
0.0
 10
174.617952
 20
-10.760009
 30
0.0
 10
174.252260
 20
-10.865686
 30
0.0
 10
173.901912
 20
-10.943317
 30
0.0
 10
173.550482
 20
-10.999081
 30
0.0
 10
173.181518
 20
-11.038911
 30
0.0
 10
172.794991
 20
-11.062803
 30
0.0
  0
LWPOLYLINE
  5
11f
100
AcDbEntity
  8
0
 62
7
100
AcDbPolyline
 90
20
 70
1
 10
172.136123
 20
-1.934313
 30
0.0
 10
171.480514
 20
-1.991151
 30
0.0
 10
170.893010
 20
-2.161654
 30
0.0
 10
170.373611
 20
-2.445806
 30
0.0
 10
169.922314
 20
-2.843588
 30
0.0
 10
169.548432
 20
-3.348426
 30
0.0
 10
169.261277
 20
-3.953756
 30
0.0
 10
169.060868
 20
-4.659580
 30
0.0
 10
168.947222
 20
-5.465892
 30
0.0
 10
170.423094
 20
-5.465892
 30
0.0
 10
171.898966
 20
-5.465892
 30
0.0
 10
173.374841
 20
-5.465892
 30
0.0
 10
174.850713
 20
-5.465892
 30
0.0
 10
174.805692
 20
-4.680998
 30
0.0
 10
174.670625
 20
-3.986689
 30
0.0
 10
174.445515
 20
-3.382976
 30
0.0
 10
174.130361
 20
-2.869880
 30
0.0
 10
173.735582
 20
-2.460569
 30
0.0
 10
173.271606
 20
-2.168205
 30
0.0
 10
172.738447
 20
-1.992786
 30
0.0
  0
ENDSEC
  0
SECTION
  2
OBJECTS
  0
DICTIONARY
  5
C
330
0
100
AcDbDictionary
  3
ACAD_GROUP
350
D
  3
ACAD_MLINESTYLE
350
17
  0
DICTIONARY
  5
D
330
C
100
AcDbDictionary
  0
DICTIONARY
  5
1A
330
C
100
AcDbDictionary
  0
DICTIONARY
  5
17
330
C
100
AcDbDictionary
  3
STANDARD
350
18
  0
DICTIONARY
  5
19
330
C
100
AcDbDictionary
  0
ENDSEC
  0
EOF
