  0
SECTION
  2
HEADER
  9
$ACADVER
  1
AC1014
  9
$HANDSEED
  5
FFFF
  9
$MEASUREMENT
 70
     1
  0
ENDSEC
  0
SECTION
  2
TABLES
  0
TABLE
  2
VPORT
  5
8
330
0
100
AcDbSymbolTable
 70
     4
  0
VPORT
  5
2E
330
8
100
AcDbSymbolTableRecord
100
AcDbViewportTableRecord
  2
*ACTIVE
 70
     0
 10
0.0
 20
0.0
 11
1.0
 21
1.0
 12
210.0
 22
148.5
 13
0.0
 23
0.0
 14
10.0
 24
10.0
 15
10.0
 25
10.0
 16
0.0
 26
0.0
 36
1.0
 17
0.0
 27
0.0
 37
0.0
 40
341.0
 41
1.24
 42
50.0
 43
0.0
 44
0.0
 50
0.0
 51
0.0
 71
     0
 72
   100
 73
     1
 74
     3
 75
     0
 76
     0
 77
     0
 78
     0
  0
ENDTAB
  0
TABLE
  2
LTYPE
  5
5
330
0
100
AcDbSymbolTable
 70
     1
  0
LTYPE
  5
14
330
5
100
AcDbSymbolTableRecord
100
AcDbLinetypeTableRecord
  2
BYBLOCK
 70
     0
  3

 72
    65
 73
     0
 40
0.0
  0
LTYPE
  5
15
330
5
100
AcDbSymbolTableRecord
100
AcDbLinetypeTableRecord
  2
BYLAYER
 70
     0
  3

 72
    65
 73
     0
 40
0.0
  0
LTYPE
  5
16
330
5
100
AcDbSymbolTableRecord
100
AcDbLinetypeTableRecord
  2
CONTINUOUS
 70
     0
  3
Solid line
 72
    65
 73
     0
 40
0.0
  0
ENDTAB
  0
TABLE
  2
LAYER
  5
2
100
AcDbSymbolTable
 70
1
  0
LAYER
  5
50
100
AcDbSymbolTableRecord
100
AcDbLayerTableRecord
  2
0
 70
0
  6
CONTINUOUS
  0
ENDTAB
  0
TABLE
  2
STYLE
  5
3
330
0
100
AcDbSymbolTable
 70
     1
  0
STYLE
  5
11
330
3
100
AcDbSymbolTableRecord
100
AcDbTextStyleTableRecord
  2
STANDARD
 70
     0
 40
0.0
 41
1.0
 50
0.0
 71
     0
 42
2.5
  3
txt
  4

  0
ENDTAB
  0
TABLE
  2
VIEW
  5
6
330
0
100
AcDbSymbolTable
 70
     0
  0
ENDTAB
  0
TABLE
  2
UCS
  5
7
330
0
100
AcDbSymbolTable
 70
     0
  0
ENDTAB
  0
TABLE
  2
APPID
  5
9
330
0
100
AcDbSymbolTable
 70
     2
  0
APPID
  5
12
330
9
100
AcDbSymbolTableRecord
100
AcDbRegAppTableRecord
  2
ACAD
 70
     0
  0
ENDTAB
  0
TABLE
  2
DIMSTYLE
  5
A
330
0
100
AcDbSymbolTable
 70
     1
  0
DIMSTYLE
105
27
330
A
100
AcDbSymbolTableRecord
100
AcDbDimStyleTableRecord
  2
ISO-25
 70
     0
  3

  4

  5

  6

  7

 40
1.0
 41
2.5
 42
0.625
 43
3.75
 44
1.25
 45
0.0
 46
0.0
 47
0.0
 48
0.0
140
2.5
141
2.5
142
0.0
143
0.03937007874016
144
1.0
145
0.0
146
1.0
147
0.625
 71
     0
 72
     0
 73
     0
 74
     0
 75
     0
 76
     0
 77
     1
 78
     8
170
     0
171
     3
172
     1
173
     0
174
     0
175
     0
176
     0
177
     0
178
     0
270
     2
271
     2
272
     2
273
     2
274
     3
340
11
275
     0
280
     0
281
     0
282
     0
283
     0
284
     8
285
     0
286
     0
287
     3
288
     0
  0
ENDTAB
  0
TABLE
  2
BLOCK_RECORD
  5
1
330
0
100
AcDbSymbolTable
 70
     1
  0
BLOCK_RECORD
  5
1F
330
1
100
AcDbSymbolTableRecord
100
AcDbBlockTableRecord
  2
*MODEL_SPACE
  0
BLOCK_RECORD
  5
1B
330
1
100
AcDbSymbolTableRecord
100
AcDbBlockTableRecord
  2
*PAPER_SPACE
  0
ENDTAB
  0
ENDSEC
  0
SECTION
  2
BLOCKS
  0
BLOCK
  5
20
330
1F
100
AcDbEntity
  8
0
100
AcDbBlockBegin
  2
*MODEL_SPACE
 70
     0
 10
0.0
 20
0.0
 30
0.0
  3
*MODEL_SPACE
  1

  0
ENDBLK
  5
21
330
1F
100
AcDbEntity
  8
0
100
AcDbBlockEnd
  0
BLOCK
  5
1C
330
1B
100
AcDbEntity
 67
     1
  8
0
100
AcDbBlockBegin
  2
*PAPER_SPACE
  1

  0
ENDBLK
  5
1D
330
1B
100
AcDbEntity
 67
     1
  8
0
100
AcDbBlockEnd
  0
ENDSEC
  0
SECTION
  2
ENTITIES
  0
SPLINE
  5
100
100
AcDbEntity
  8
0
 62
7
100
AcDbSpline
 70
8
 71
3
 72
8
 73
4
 74
0
 40
0
 40
0
 40
0
 40
0
 40
1
 40
1
 40
1
 40
1
 10
251.027340
 20
49.652344
 30
0.0
 10
242.399633
 20
50.301019
 30
0.0
 10
235.795448
 20
42.122338
 30
0.0
 10
236.525393
 20
33.865723
 30
0.0
  0
SPLINE
  5
101
100
AcDbEntity
  8
0
 62
7
100
AcDbSpline
 70
8
 71
3
 72
8
 73
4
 74
0
 40
0
 40
0
 40
0
 40
0
 40
1
 40
1
 40
1
 40
1
 10
236.525393
 20
33.865723
 30
0.0
 10
235.855500
 20
25.394282
 30
0.0
 10
243.086175
 20
17.056796
 30
0.0
 10
251.865727
 20
18.183467
 30
0.0
  0
SPLINE
  5
102
100
AcDbEntity
  8
0
 62
7
100
AcDbSpline
 70
8
 71
3
 72
8
 73
4
 74
0
 40
0
 40
0
 40
0
 40
0
 40
1
 40
1
 40
1
 40
1
 10
251.865727
 20
18.183467
 30
0.0
 10
260.902163
 20
17.830254
 30
0.0
 10
266.822767
 20
27.229308
 30
0.0
 10
265.486770
 20
35.539253
 30
0.0
  0
SPLINE
  5
103
100
AcDbEntity
  8
0
 62
7
100
AcDbSpline
 70
8
 71
3
 72
8
 73
4
 74
0
 40
0
 40
0
 40
0
 40
0
 40
1
 40
1
 40
1
 40
1
 10
265.486770
 20
35.539253
 30
0.0
 10
265.450245
 20
43.383209
 30
0.0
 10
259.040767
 20
50.087192
 30
0.0
 10
251.027340
 20
49.652344
 30
0.0
  0
LWPOLYLINE
  5
104
100
AcDbEntity
  8
0
 62
7
100
AcDbPolyline
 90
68
 70
1
 10
58.933319
 20
38.695471
 30
0.0
 10
61.995350
 20
46.292774
 30
0.0
 10
66.170755
 20
53.239246
 30
0.0
 10
71.347901
 20
59.423266
 30
0.0
 10
77.415150
 20
64.733217
 30
0.0
 10
84.260858
 20
69.057479
 30
0.0
 10
91.773398
 20
72.284433
 30
0.0
 10
99.841125
 20
74.302459
 30
0.0
 10
108.352402
 20
74.999939
 30
0.0
 10
116.863687
 20
74.302459
 30
0.0
 10
124.931415
 20
72.284433
 30
0.0
 10
132.443970
 20
69.057479
 30
0.0
 10
139.289700
 20
64.733217
 30
0.0
 10
145.356982
 20
59.423266
 30
0.0
 10
150.534187
 20
53.239246
 30
0.0
 10
154.709670
 20
46.292774
 30
0.0
 10
157.771800
 20
38.695471
 30
0.0
 10
157.771800
 20
38.695471
 30
0.0
 10
157.772115
 20
38.694196
 30
0.0
 10
158.251725
 20
37.067557
 30
0.0
 10
161.998567
 20
30.088693
 30
0.0
 10
167.306827
 20
25.541908
 30
0.0
 10
173.541262
 20
22.964390
 30
0.0
 10
180.066645
 20
21.893330
 30
0.0
 10
186.247732
 20
21.865918
 30
0.0
 10
191.449282
 20
22.419340
 30
0.0
 10
195.036052
 20
23.090789
 30
0.0
 10
196.372807
 20
23.417451
 30
0.0
 10
216.704865
 20
-29.103112
 30
0.0
 10
139.491052
 20
-58.994459
 30
0.0
 10
126.437587
 20
-25.276162
 30
0.0
 10
126.382612
 20
-25.296637
 30
0.0
 10
119.157105
 20
-6.468607
 30
0.0
 10
120.777225
 20
-5.791874
 30
0.0
 10
127.024882
 20
-1.986344
 30
0.0
 10
133.334865
 20
4.822913
 30
0.0
 10
137.287297
 20
13.228623
 30
0.0
 10
137.931202
 20
26.224117
 30
0.0
 10
136.618020
 20
32.102289
 30
0.0
 10
132.206617
 20
40.020192
 30
0.0
 10
125.709877
 20
46.261497
 30
0.0
 10
117.600795
 20
50.353171
 30
0.0
 10
108.352372
 20
51.822181
 30
0.0
 10
99.103965
 20
50.353171
 30
0.0
 10
90.994912
 20
46.261497
 30
0.0
 10
84.498262
 20
40.020192
 30
0.0
 10
80.087047
 20
32.102289
 30
0.0
 10
78.773745
 20
26.224465
 30
0.0
 10
79.417762
 20
13.228623
 30
0.0
 10
83.370082
 20
4.822913
 30
0.0
 10
89.680177
 20
-1.986344
 30
0.0
 10
95.927835
 20
-5.791874
 30
0.0
 10
97.547955
 20
-6.468607
 30
0.0
 10
97.524330
 20
-6.530032
 30
0.0
 10
90.322110
 20
-25.296599
 30
0.0
 10
90.267135
 20
-25.276124
 30
0.0
 10
77.213977
 20
-58.994422
 30
0.0
 10
-0.000052
 20
-29.103082
 30
0.0
 10
20.332001
 20
23.417484
 30
0.0
 10
21.668756
 20
23.090822
 30
0.0
 10
25.255528
 20
22.419373
 30
0.0
 10
30.457076
 20
21.865951
 30
0.0
 10
36.638162
 20
21.893363
 30
0.0
 10
43.163546
 20
22.964423
 30
0.0
 10
49.397989
 20
25.541941
 30
0.0
 10
54.706249
 20
30.088726
 30
0.0
 10
58.453088
 20
37.067591
 30
0.0
 10
58.933009
 20
38.694229
 30
0.0
  0
SPLINE
  5
105
100
AcDbEntity
  8
0
 62
7
100
AcDbSpline
 70
8
 71
3
 72
8
 73
4
 74
0
 40
0
 40
0
 40
0
 40
0
 40
1
 40
1
 40
1
 40
1
 10
253.470705
 20
41.381836
 30
0.0
 10
257.717947
 20
38.078509
 30
0.0
 10
257.737748
 20
29.726281
 30
0.0
 10
253.486830
 20
26.395019
 30
0.0
  0
SPLINE
  5
106
100
AcDbEntity
  8
0
 62
7
100
AcDbSpline
 70
8
 71
3
 72
8
 73
4
 74
0
 40
0
 40
0
 40
0
 40
0
 40
1
 40
1
 40
1
 40
1
 10
253.486830
 20
26.395019
 30
0.0
 10
248.107770
 20
24.070481
 30
0.0
 10
244.761818
 20
30.037174
 30
0.0
 10
245.590620
 20
34.724725
 30
0.0
  0
SPLINE
  5
107
100
AcDbEntity
  8
0
 62
7
100
AcDbSpline
 70
8
 71
3
 72
8
 73
4
 74
0
 40
0
 40
0
 40
0
 40
0
 40
1
 40
1
 40
1
 40
1
 10
245.590620
 20
34.724725
 30
0.0
 10
245.209545
 20
39.344641
 30
0.0
 10
248.592810
 20
43.469907
 30
0.0
 10
253.470720
 20
41.381836
 30
0.0
  0
LWPOLYLINE
  5
108
100
AcDbEntity
  8
0
 62
7
100
AcDbPolyline
 90
1
 70
1
 10
251.027340
 20
49.652344
 30
0.0
  0
SPLINE
  5
109
100
AcDbEntity
  8
0
 62
7
100
AcDbSpline
 70
8
 71
3
 72
8
 73
4
 74
0
 40
0
 40
0
 40
0
 40
0
 40
1
 40
1
 40
1
 40
1
 10
284.737793
 20
49.649414
 30
0.0
 10
282.053632
 20
50.296724
 30
0.0
 10
278.573798
 20
47.374038
 30
0.0
 10
277.138185
 20
47.481445
 30
0.0
  0
SPLINE
  5
10a
100
AcDbEntity
  8
0
 62
7
100
AcDbSpline
 70
8
 71
3
 72
8
 73
4
 74
0
 40
0
 40
0
 40
0
 40
0
 40
1
 40
1
 40
1
 40
1
 10
277.138185
 20
47.481445
 30
0.0
 10
277.005150
 20
50.184557
 30
0.0
 10
268.080848
 20
50.331614
 30
0.0
 10
269.320312
 20
46.908692
 30
0.0
  0
SPLINE
  5
10b
100
AcDbEntity
  8
0
 62
7
100
AcDbSpline
 70
8
 71
3
 72
8
 73
4
 74
0
 40
0
 40
0
 40
0
 40
0
 40
1
 40
1
 40
1
 40
1
 10
269.320312
 20
46.908692
 30
0.0
 10
269.320312
 20
33.394043
 30
0.0
 10
269.320312
 20
19.879394
 30
0.0
 10
269.320312
 20
6.364746
 30
0.0
  0
SPLINE
  5
10c
100
AcDbEntity
  8
0
 62
7
100
AcDbSpline
 70
8
 71
3
 72
8
 73
4
 74
0
 40
0
 40
0
 40
0
 40
0
 40
1
 40
1
 40
1
 40
1
 10
269.320312
 20
6.364746
 30
0.0
 10
273.849758
 20
6.475924
 30
0.0
 10
280.266705
 20
4.699601
 30
0.0
 10
278.172360
 20
11.434570
 30
0.0
  0
SPLINE
  5
10d
100
AcDbEntity
  8
0
 62
7
100
AcDbSpline
 70
8
 71
3
 72
8
 73
4
 74
0
 40
0
 40
0
 40
0
 40
0
 40
1
 40
1
 40
1
 40
1
 10
278.172360
 20
11.434570
 30
0.0
 10
278.972123
 20
13.341630
 30
0.0
 10
276.550530
 20
21.104758
 30
0.0
 10
279.353025
 20
19.286133
 30
0.0
  0
SPLINE
  5
10e
100
AcDbEntity
  8
0
 62
7
100
AcDbSpline
 70
8
 71
3
 72
8
 73
4
 74
0
 40
0
 40
0
 40
0
 40
0
 40
1
 40
1
 40
1
 40
1
 10
279.353025
 20
19.286133
 30
0.0
 10
286.723830
 20
15.500225
 30
0.0
 10
296.184293
 20
20.871106
 30
0.0
 10
296.824800
 20
29.116970
 30
0.0
  0
SPLINE
  5
10f
100
AcDbEntity
  8
0
 62
7
100
AcDbSpline
 70
8
 71
3
 72
8
 73
4
 74
0
 40
0
 40
0
 40
0
 40
0
 40
1
 40
1
 40
1
 40
1
 10
296.824800
 20
29.116970
 30
0.0
 10
298.553850
 20
36.927489
 30
0.0
 10
296.177993
 20
48.415640
 30
0.0
 10
286.721670
 20
49.487929
 30
0.0
  0
SPLINE
  5
110
100
AcDbEntity
  8
0
 62
7
100
AcDbSpline
 70
8
 71
3
 72
8
 73
4
 74
0
 40
0
 40
0
 40
0
 40
0
 40
1
 40
1
 40
1
 40
1
 10
286.721670
 20
49.487929
 30
0.0
 10
286.061265
 20
49.515596
 30
0.0
 10
285.398070
 20
49.672353
 30
0.0
 10
284.737793
 20
49.649414
 30
0.0
  0
LWPOLYLINE
  5
111
100
AcDbEntity
  8
0
 62
7
100
AcDbPolyline
 90
1
 70
1
 10
253.470720
 20
41.381836
 30
0.0
  0
SPLINE
  5
112
100
AcDbEntity
  8
0
 62
7
100
AcDbSpline
 70
8
 71
3
 72
8
 73
4
 74
0
 40
0
 40
0
 40
0
 40
0
 40
1
 40
1
 40
1
 40
1
 10
284.535645
 20
41.750977
 30
0.0
 10
289.638390
 20
39.593775
 30
0.0
 10
288.827985
 20
31.918138
 30
0.0
 10
286.898438
 20
27.729492
 30
0.0
  0
SPLINE
  5
113
100
AcDbEntity
  8
0
 62
7
100
AcDbSpline
 70
8
 71
3
 72
8
 73
4
 74
0
 40
0
 40
0
 40
0
 40
0
 40
1
 40
1
 40
1
 40
1
 10
286.898438
 20
27.729492
 30
0.0
 10
284.046375
 20
23.627742
 30
0.0
 10
277.436310
 20
26.938763
 30
0.0
 10
278.267580
 20
31.744629
 30
0.0
  0
SPLINE
  5
114
100
AcDbEntity
  8
0
 62
7
100
AcDbSpline
 70
8
 71
3
 72
8
 73
4
 74
0
 40
0
 40
0
 40
0
 40
0
 40
1
 40
1
 40
1
 40
1
 10
278.267580
 20
31.744629
 30
0.0
 10
277.839390
 20
36.144986
 30
0.0
 10
278.063550
 20
43.236839
 30
0.0
 10
284.535645
 20
41.750977
 30
0.0
  0
LWPOLYLINE
  5
115
100
AcDbEntity
  8
0
 62
7
100
AcDbPolyline
 90
1
 70
1
 10
284.737793
 20
49.649414
 30
0.0
  0
SPLINE
  5
116
100
AcDbEntity
  8
0
 62
7
100
AcDbSpline
 70
8
 71
3
 72
8
 73
4
 74
0
 40
0
 40
0
 40
0
 40
0
 40
1
 40
1
 40
1
 40
1
 10
313.422360
 20
49.650879
 30
0.0
 10
304.173923
 20
50.200930
 30
0.0
 10
298.212457
 20
40.504131
 30
0.0
 10
299.565765
 20
32.082595
 30
0.0
  0
SPLINE
  5
117
100
AcDbEntity
  8
0
 62
7
100
AcDbSpline
 70
8
 71
3
 72
8
 73
4
 74
0
 40
0
 40
0
 40
0
 40
0
 40
1
 40
1
 40
1
 40
1
 10
299.565765
 20
32.082595
 30
0.0
 10
299.391810
 20
23.463324
 30
0.0
 10
307.786567
 20
16.987344
 30
0.0
 10
316.083982
 20
18.147949
 30
0.0
  0
SPLINE
  5
118
100
AcDbEntity
  8
0
 62
7
100
AcDbSpline
 70
8
 71
3
 72
8
 73
4
 74
0
 40
0
 40
0
 40
0
 40
0
 40
1
 40
1
 40
1
 40
1
 10
316.083982
 20
18.147949
 30
0.0
 10
319.234395
 20
18.434922
 30
0.0
 10
323.805885
 20
18.721773
 30
0.0
 10
325.461915
 20
21.257812
 30
0.0
  0
SPLINE
  5
119
100
AcDbEntity
  8
0
 62
7
100
AcDbSpline
 70
8
 71
3
 72
8
 73
4
 74
0
 40
0
 40
0
 40
0
 40
0
 40
1
 40
1
 40
1
 40
1
 10
325.461915
 20
21.257812
 30
0.0
 10
325.785180
 20
24.364512
 30
0.0
 10
325.901423
 20
29.914018
 30
0.0
 10
321.490868
 20
26.872960
 30
0.0
  0
SPLINE
  5
11a
100
AcDbEntity
  8
0
 62
7
100
AcDbSpline
 70
8
 71
3
 72
8
 73
4
 74
0
 40
0
 40
0
 40
0
 40
0
 40
1
 40
1
 40
1
 40
1
 10
321.490868
 20
26.872960
 30
0.0
 10
317.034337
 20
25.068686
 30
0.0
 10
309.262905
 20
24.708310
 30
0.0
 10
308.630857
 20
31.067871
 30
0.0
  0
SPLINE
  5
11b
100
AcDbEntity
  8
0
 62
7
100
AcDbSpline
 70
8
 71
3
 72
8
 73
4
 74
0
 40
0
 40
0
 40
0
 40
0
 40
1
 40
1
 40
1
 40
1
 10
308.630857
 20
31.067871
 30
0.0
 10
314.697758
 20
31.067871
 30
0.0
 10
320.764650
 20
31.067871
 30
0.0
 10
326.831543
 20
31.067871
 30
0.0
  0
SPLINE
  5
11c
100
AcDbEntity
  8
0
 62
7
100
AcDbSpline
 70
8
 71
3
 72
8
 73
4
 74
0
 40
0
 40
0
 40
0
 40
0
 40
1
 40
1
 40
1
 40
1
 10
326.831543
 20
31.067871
 30
0.0
 10
327.521940
 20
37.987426
 30
0.0
 10
325.907445
 20
46.960341
 30
0.0
 10
318.100710
 20
48.972142
 30
0.0
  0
SPLINE
  5
11d
100
AcDbEntity
  8
0
 62
7
100
AcDbSpline
 70
8
 71
3
 72
8
 73
4
 74
0
 40
0
 40
0
 40
0
 40
0
 40
1
 40
1
 40
1
 40
1
 10
318.100710
 20
48.972142
 30
0.0
 10
316.595843
 20
49.535740
 30
0.0
 10
315.004627
 20
49.570754
 30
0.0
 10
313.422360
 20
49.650879
 30
0.0
  0
LWPOLYLINE
  5
11e
100
AcDbEntity
  8
0
 62
7
100
AcDbPolyline
 90
1
 70
1
 10
284.535645
 20
41.750977
 30
0.0
  0
SPLINE
  5
11f
100
AcDbEntity
  8
0
 62
7
100
AcDbSpline
 70
8
 71
3
 72
8
 73
4
 74
0
 40
0
 40
0
 40
0
 40
0
 40
1
 40
1
 40
1
 40
1
 10
314.597168
 20
42.133301
 30
0.0
 10
319.029345
 20
40.993110
 30
0.0
 10
318.211133
 20
36.487652
 30
0.0
 10
313.328610
 20
38.301269
 30
0.0
  0
SPLINE
  5
120
100
AcDbEntity
  8
0
 62
7
100
AcDbSpline
 70
8
 71
3
 72
8
 73
4
 74
0
 40
0
 40
0
 40
0
 40
0
 40
1
 40
1
 40
1
 40
1
 10
313.328610
 20
38.301269
 30
0.0
 10
308.313952
 20
36.595894
 30
0.0
 10
308.186798
 20
41.082857
 30
0.0
 10
312.498045
 20
42.131836
 30
0.0
  0
SPLINE
  5
121
100
AcDbEntity
  8
0
 62
7
100
AcDbSpline
 70
8
 71
3
 72
8
 73
4
 74
0
 40
0
 40
0
 40
0
 40
0
 40
1
 40
1
 40
1
 40
1
 10
312.498045
 20
42.131836
 30
0.0
 10
313.200038
 20
42.246862
 30
0.0
 10
313.895078
 20
42.217427
 30
0.0
 10
314.597168
 20
42.133336
 30
0.0
  0
LWPOLYLINE
  5
122
100
AcDbEntity
  8
0
 62
7
100
AcDbPolyline
 90
1
 70
1
 10
313.422360
 20
49.650879
 30
0.0
  0
SPLINE
  5
123
100
AcDbEntity
  8
0
 62
7
100
AcDbSpline
 70
8
 71
3
 72
8
 73
4
 74
0
 40
0
 40
0
 40
0
 40
0
 40
1
 40
1
 40
1
 40
1
 10
346.224607
 20
49.655273
 30
0.0
 10
343.383293
 20
49.782216
 30
0.0
 10
340.284915
 20
48.510644
 30
0.0
 10
338.230957
 20
47.088867
 30
0.0
  0
SPLINE
  5
124
100
AcDbEntity
  8
0
 62
7
100
AcDbSpline
 70
8
 71
3
 72
8
 73
4
 74
0
 40
0
 40
0
 40
0
 40
0
 40
1
 40
1
 40
1
 40
1
 10
338.230957
 20
47.088867
 30
0.0
 10
338.551478
 20
50.407489
 30
0.0
 10
329.256165
 20
50.280381
 30
0.0
 10
330.480465
 20
46.908692
 30
0.0
  0
SPLINE
  5
125
100
AcDbEntity
  8
0
 62
7
100
AcDbSpline
 70
8
 71
3
 72
8
 73
4
 74
0
 40
0
 40
0
 40
0
 40
0
 40
1
 40
1
 40
1
 40
1
 10
330.480465
 20
46.908692
 30
0.0
 10
330.480473
 20
37.478027
 30
0.0
 10
330.480465
 20
28.047363
 30
0.0
 10
330.480465
 20
18.616699
 30
0.0
  0
SPLINE
  5
126
100
AcDbEntity
  8
0
 62
7
100
AcDbSpline
 70
8
 71
3
 72
8
 73
4
 74
0
 40
0
 40
0
 40
0
 40
0
 40
1
 40
1
 40
1
 40
1
 10
330.480465
 20
18.616699
 30
0.0
 10
334.888395
 20
18.803014
 30
0.0
 10
341.428058
 20
16.857588
 30
0.0
 10
339.332520
 20
23.547363
 30
0.0
  0
SPLINE
  5
127
100
AcDbEntity
  8
0
 62
7
100
AcDbSpline
 70
8
 71
3
 72
8
 73
4
 74
0
 40
0
 40
0
 40
0
 40
0
 40
1
 40
1
 40
1
 40
1
 10
339.332520
 20
23.547363
 30
0.0
 10
339.985530
 20
29.250349
 30
0.0
 10
337.669328
 20
36.088628
 30
0.0
 10
341.437500
 20
40.927734
 30
0.0
  0
SPLINE
  5
128
100
AcDbEntity
  8
0
 62
7
100
AcDbSpline
 70
8
 71
3
 72
8
 73
4
 74
0
 40
0
 40
0
 40
0
 40
0
 40
1
 40
1
 40
1
 40
1
 10
341.437500
 20
40.927734
 30
0.0
 10
345.010605
 20
43.608630
 30
0.0
 10
350.041215
 20
40.787213
 30
0.0
 10
348.833498
 20
36.249023
 30
0.0
  0
SPLINE
  5
129
100
AcDbEntity
  8
0
 62
7
100
AcDbSpline
 70
8
 71
3
 72
8
 73
4
 74
0
 40
0
 40
0
 40
0
 40
0
 40
1
 40
1
 40
1
 40
1
 10
348.833498
 20
36.249023
 30
0.0
 10
348.833498
 20
30.371582
 30
0.0
 10
348.833498
 20
24.494141
 30
0.0
 10
348.833498
 20
18.616699
 30
0.0
  0
SPLINE
  5
12a
100
AcDbEntity
  8
0
 62
7
100
AcDbSpline
 70
8
 71
3
 72
8
 73
4
 74
0
 40
0
 40
0
 40
0
 40
0
 40
1
 40
1
 40
1
 40
1
 10
348.833498
 20
18.616699
 30
0.0
 10
353.491890
 20
18.667287
 30
0.0
 10
359.847615
 20
17.020550
 30
0.0
 10
357.710452
 20
23.866699
 30
0.0
  0
SPLINE
  5
12b
100
AcDbEntity
  8
0
 62
7
100
AcDbSpline
 70
8
 71
3
 72
8
 73
4
 74
0
 40
0
 40
0
 40
0
 40
0
 40
1
 40
1
 40
1
 40
1
 10
357.710452
 20
23.866699
 30
0.0
 10
356.955075
 20
31.483235
 30
0.0
 10
359.848425
 20
40.566160
 30
0.0
 10
354.515625
 20
46.916016
 30
0.0
  0
SPLINE
  5
12c
100
AcDbEntity
  8
0
 62
7
100
AcDbSpline
 70
8
 71
3
 72
8
 73
4
 74
0
 40
0
 40
0
 40
0
 40
0
 40
1
 40
1
 40
1
 40
1
 10
354.515625
 20
46.916016
 30
0.0
 10
352.056998
 20
48.983513
 30
0.0
 10
349.336957
 20
49.434600
 30
0.0
 10
346.224607
 20
49.655273
 30
0.0
  0
LWPOLYLINE
  5
12d
100
AcDbEntity
  8
0
 62
7
100
AcDbPolyline
 90
1
 70
1
 10
314.597168
 20
42.133336
 30
0.0
  0
SPLINE
  5
12e
100
AcDbEntity
  8
0
 62
7
100
AcDbSpline
 70
8
 71
3
 72
8
 73
4
 74
0
 40
0
 40
0
 40
0
 40
0
 40
1
 40
1
 40
1
 40
1
 10
374.321775
 20
60.619629
 30
0.0
 10
367.801958
 20
60.986694
 30
0.0
 10
363.731700
 20
54.668262
 30
0.0
 10
364.274415
 20
48.667969
 30
0.0
  0
SPLINE
  5
12f
100
AcDbEntity
  8
0
 62
7
100
AcDbSpline
 70
8
 71
3
 72
8
 73
4
 74
0
 40
0
 40
0
 40
0
 40
0
 40
1
 40
1
 40
1
 40
1
 10
364.274415
 20
48.667969
 30
0.0
 10
360.606240
 20
48.188958
 30
0.0
 10
358.318935
 20
46.684598
 30
0.0
 10
359.392088
 20
42.697266
 30
0.0
  0
SPLINE
  5
130
100
AcDbEntity
  8
0
 62
7
100
AcDbSpline
 70
8
 71
3
 72
8
 73
4
 74
0
 40
0
 40
0
 40
0
 40
0
 40
1
 40
1
 40
1
 40
1
 10
359.392088
 20
42.697266
 30
0.0
 10
365.456490
 20
44.627385
 30
0.0
 10
364.383780
 20
39.420400
 30
0.0
 10
364.274415
 20
35.176758
 30
0.0
  0
SPLINE
  5
131
100
AcDbEntity
  8
0
 62
7
100
AcDbSpline
 70
8
 71
3
 72
8
 73
4
 74
0
 40
0
 40
0
 40
0
 40
0
 40
1
 40
1
 40
1
 40
1
 10
364.274415
 20
35.176758
 30
0.0
 10
364.274415
 20
29.656739
 30
0.0
 10
364.274415
 20
24.136719
 30
0.0
 10
364.274415
 20
18.616699
 30
0.0
  0
SPLINE
  5
132
100
AcDbEntity
  8
0
 62
7
100
AcDbSpline
 70
8
 71
3
 72
8
 73
4
 74
0
 40
0
 40
0
 40
0
 40
0
 40
1
 40
1
 40
1
 40
1
 10
364.274415
 20
18.616699
 30
0.0
 10
368.758905
 20
18.259648
 30
0.0
 10
373.175423
 20
17.970572
 30
0.0
 10
371.406735
 20
23.866699
 30
0.0
  0
SPLINE
  5
133
100
AcDbEntity
  8
0
 62
7
100
AcDbSpline
 70
8
 71
3
 72
8
 73
4
 74
0
 40
0
 40
0
 40
0
 40
0
 40
1
 40
1
 40
1
 40
1
 10
371.406735
 20
23.866699
 30
0.0
 10
371.564527
 20
30.064868
 30
0.0
 10
371.090445
 20
36.894907
 30
0.0
 10
371.644043
 20
42.697266
 30
0.0
  0
SPLINE
  5
134
100
AcDbEntity
  8
0
 62
7
100
AcDbSpline
 70
8
 71
3
 72
8
 73
4
 74
0
 40
0
 40
0
 40
0
 40
0
 40
1
 40
1
 40
1
 40
1
 10
371.644043
 20
42.697266
 30
0.0
 10
375.204450
 20
42.676896
 30
0.0
 10
379.801695
 20
41.619688
 30
0.0
 10
378.354495
 20
46.606933
 30
0.0
  0
SPLINE
  5
135
100
AcDbEntity
  8
0
 62
7
100
AcDbSpline
 70
8
 71
3
 72
8
 73
4
 74
0
 40
0
 40
0
 40
0
 40
0
 40
1
 40
1
 40
1
 40
1
 10
378.354495
 20
46.606933
 30
0.0
 10
380.047050
 20
51.915037
 30
0.0
 10
370.426575
 20
46.077150
 30
0.0
 10
371.472660
 20
50.630859
 30
0.0
  0
SPLINE
  5
136
100
AcDbEntity
  8
0
 62
7
100
AcDbSpline
 70
8
 71
3
 72
8
 73
4
 74
0
 40
0
 40
0
 40
0
 40
0
 40
1
 40
1
 40
1
 40
1
 10
371.472660
 20
50.630859
 30
0.0
 10
371.260733
 20
55.359943
 30
0.0
 10
376.699763
 20
54.375811
 30
0.0
 10
379.549808
 20
53.104981
 30
0.0
  0
SPLINE
  5
137
100
AcDbEntity
  8
0
 62
7
100
AcDbSpline
 70
8
 71
3
 72
8
 73
4
 74
0
 40
0
 40
0
 40
0
 40
0
 40
1
 40
1
 40
1
 40
1
 10
379.549808
 20
53.104981
 30
0.0
 10
381.132338
 20
59.154871
 30
0.0
 10
380.001420
 20
48.027508
 30
0.0
 10
380.336423
 20
46.177734
 30
0.0
  0
SPLINE
  5
138
100
AcDbEntity
  8
0
 62
7
100
AcDbSpline
 70
8
 71
3
 72
8
 73
4
 74
0
 40
0
 40
0
 40
0
 40
0
 40
1
 40
1
 40
1
 40
1
 10
380.336423
 20
46.177734
 30
0.0
 10
380.336423
 20
36.990723
 30
0.0
 10
380.336423
 20
27.803711
 30
0.0
 10
380.336423
 20
18.616699
 30
0.0
  0
SPLINE
  5
139
100
AcDbEntity
  8
0
 62
7
100
AcDbSpline
 70
8
 71
3
 72
8
 73
4
 74
0
 40
0
 40
0
 40
0
 40
0
 40
1
 40
1
 40
1
 40
1
 10
380.336423
 20
18.616699
 30
0.0
 10
384.820935
 20
18.260118
 30
0.0
 10
389.239328
 20
17.969658
 30
0.0
 10
387.470213
 20
23.866699
 30
0.0
  0
SPLINE
  5
13a
100
AcDbEntity
  8
0
 62
7
100
AcDbSpline
 70
8
 71
3
 72
8
 73
4
 74
0
 40
0
 40
0
 40
0
 40
0
 40
1
 40
1
 40
1
 40
1
 10
387.470213
 20
23.866699
 30
0.0
 10
387.470213
 20
36.032715
 30
0.0
 10
387.470213
 20
48.198731
 30
0.0
 10
387.470213
 20
60.364746
 30
0.0
  0
SPLINE
  5
13b
100
AcDbEntity
  8
0
 62
7
100
AcDbSpline
 70
8
 71
3
 72
8
 73
4
 74
0
 40
0
 40
0
 40
0
 40
0
 40
1
 40
1
 40
1
 40
1
 10
387.470213
 20
60.364746
 30
0.0
 10
383.588527
 20
60.915740
 30
0.0
 10
380.859427
 20
59.477061
 30
0.0
 10
377.803155
 20
60.269142
 30
0.0
  0
SPLINE
  5
13c
100
AcDbEntity
  8
0
 62
7
100
AcDbSpline
 70
8
 71
3
 72
8
 73
4
 74
0
 40
0
 40
0
 40
0
 40
0
 40
1
 40
1
 40
1
 40
1
 10
377.803155
 20
60.269142
 30
0.0
 10
376.664580
 20
60.513347
 30
0.0
 10
375.484537
 20
60.667930
 30
0.0
 10
374.321775
 20
60.619629
 30
0.0
  0
LWPOLYLINE
  5
13d
100
AcDbEntity
  8
0
 62
7
100
AcDbPolyline
 90
1
 70
1
 10
346.224607
 20
49.655273
 30
0.0
  0
SPLINE
  5
13e
100
AcDbEntity
  8
0
 62
7
100
AcDbSpline
 70
8
 71
3
 72
8
 73
4
 74
0
 40
0
 40
0
 40
0
 40
0
 40
1
 40
1
 40
1
 40
1
 10
381.534668
 20
59.232422
 30
0.0
 10
381.379860
 20
59.178092
 30
0.0
 10
381.529418
 20
59.489290
 30
0.0
 10
381.534668
 20
59.232422
 30
0.0
  0
LWPOLYLINE
  5
13f
100
AcDbEntity
  8
0
 62
7
100
AcDbPolyline
 90
1
 70
1
 10
374.321775
 20
60.619629
 30
0.0
  0
SPLINE
  5
140
100
AcDbEntity
  8
0
 62
7
100
AcDbSpline
 70
8
 71
3
 72
8
 73
4
 74
0
 40
0
 40
0
 40
0
 40
0
 40
1
 40
1
 40
1
 40
1
 10
405.054202
 20
49.401856
 30
0.0
 10
395.680950
 20
49.763470
 30
0.0
 10
390.391290
 20
39.482326
 30
0.0
 10
391.879462
 20
31.189167
 30
0.0
  0
SPLINE
  5
141
100
AcDbEntity
  8
0
 62
7
100
AcDbSpline
 70
8
 71
3
 72
8
 73
4
 74
0
 40
0
 40
0
 40
0
 40
0
 40
1
 40
1
 40
1
 40
1
 10
391.879462
 20
31.189167
 30
0.0
 10
392.006633
 20
22.522629
 30
0.0
 10
400.834087
 20
16.675298
 30
0.0
 10
408.996090
 20
18.231445
 30
0.0
  0
SPLINE
  5
142
100
AcDbEntity
  8
0
 62
7
100
AcDbSpline
 70
8
 71
3
 72
8
 73
4
 74
0
 40
0
 40
0
 40
0
 40
0
 40
1
 40
1
 40
1
 40
1
 10
408.996090
 20
18.231445
 30
0.0
 10
412.025917
 20
18.871471
 30
0.0
 10
417.743655
 20
18.917811
 30
0.0
 10
416.630858
 20
23.229492
 30
0.0
  0
SPLINE
  5
143
100
AcDbEntity
  8
0
 62
7
100
AcDbSpline
 70
8
 71
3
 72
8
 73
4
 74
0
 40
0
 40
0
 40
0
 40
0
 40
1
 40
1
 40
1
 40
1
 10
416.630858
 20
23.229492
 30
0.0
 10
417.705848
 20
29.187454
 30
0.0
 10
411.564480
 20
24.840791
 30
0.0
 10
408.467287
 20
24.840820
 30
0.0
  0
SPLINE
  5
144
100
AcDbEntity
  8
0
 62
7
100
AcDbSpline
 70
8
 71
3
 72
8
 73
4
 74
0
 40
0
 40
0
 40
0
 40
0
 40
1
 40
1
 40
1
 40
1
 10
408.467287
 20
24.840820
 30
0.0
 10
404.038125
 20
23.767698
 30
0.0
 10
399.129000
 20
26.704020
 30
0.0
 10
399.136230
 20
31.516113
 30
0.0
  0
SPLINE
  5
145
100
AcDbEntity
  8
0
 62
7
100
AcDbSpline
 70
8
 71
3
 72
8
 73
4
 74
0
 40
0
 40
0
 40
0
 40
0
 40
1
 40
1
 40
1
 40
1
 10
399.136230
 20
31.516113
 30
0.0
 10
405.357420
 20
31.516113
 30
0.0
 10
411.578610
 20
31.516113
 30
0.0
 10
417.799808
 20
31.516113
 30
0.0
  0
SPLINE
  5
146
100
AcDbEntity
  8
0
 62
7
100
AcDbSpline
 70
8
 71
3
 72
8
 73
4
 74
0
 40
0
 40
0
 40
0
 40
0
 40
1
 40
1
 40
1
 40
1
 10
417.799808
 20
31.516113
 30
0.0
 10
418.749667
 20
38.719955
 30
0.0
 10
416.027325
 20
48.001807
 30
0.0
 10
407.753910
 20
49.190918
 30
0.0
  0
SPLINE
  5
147
100
AcDbEntity
  8
0
 62
7
100
AcDbSpline
 70
8
 71
3
 72
8
 73
4
 74
0
 40
0
 40
0
 40
0
 40
0
 40
1
 40
1
 40
1
 40
1
 10
407.753910
 20
49.190918
 30
0.0
 10
406.854645
 20
49.237553
 30
0.0
 10
405.953228
 20
49.399528
 30
0.0
 10
405.054202
 20
49.401856
 30
0.0
  0
LWPOLYLINE
  5
148
100
AcDbEntity
  8
0
 62
7
100
AcDbPolyline
 90
1
 70
1
 10
381.534668
 20
59.232422
 30
0.0
  0
SPLINE
  5
149
100
AcDbEntity
  8
0
 62
7
100
AcDbSpline
 70
8
 71
3
 72
8
 73
4
 74
0
 40
0
 40
0
 40
0
 40
0
 40
1
 40
1
 40
1
 40
1
 10
406.393065
 20
42.834961
 30
0.0
 10
410.592720
 20
42.099886
 30
0.0
 10
411.711600
 20
35.715234
 30
0.0
 10
406.050293
 20
37.877930
 30
0.0
  0
SPLINE
  5
14a
100
AcDbEntity
  8
0
 62
7
100
AcDbSpline
 70
8
 71
3
 72
8
 73
4
 74
0
 40
0
 40
0
 40
0
 40
0
 40
1
 40
1
 40
1
 40
1
 10
406.050293
 20
37.877930
 30
0.0
 10
401.176485
 20
36.688357
 30
0.0
 10
396.870705
 20
38.792980
 30
0.0
 10
402.486795
 20
42.365433
 30
0.0
  0
SPLINE
  5
14b
100
AcDbEntity
  8
0
 62
7
100
AcDbSpline
 70
8
 71
3
 72
8
 73
4
 74
0
 40
0
 40
0
 40
0
 40
0
 40
1
 40
1
 40
1
 40
1
 10
402.486795
 20
42.365433
 30
0.0
 10
403.678792
 20
42.982999
 30
0.0
 10
405.089497
 20
43.000150
 30
0.0
 10
406.393065
 20
42.834961
 30
0.0
  0
LWPOLYLINE
  5
14c
100
AcDbEntity
  8
0
 62
7
100
AcDbPolyline
 90
1
 70
1
 10
405.054202
 20
49.401856
 30
0.0
  0
SPLINE
  5
14d
100
AcDbEntity
  8
0
 62
7
100
AcDbSpline
 70
8
 71
3
 72
8
 73
4
 74
0
 40
0
 40
0
 40
0
 40
0
 40
1
 40
1
 40
1
 40
1
 10
417.921390
 20
48.178711
 30
0.0
 10
419.622150
 20
42.927020
 30
0.0
 10
424.213545
 20
38.868619
 30
0.0
 10
427.057620
 20
34.088379
 30
0.0
  0
SPLINE
  5
14e
100
AcDbEntity
  8
0
 62
7
100
AcDbSpline
 70
8
 71
3
 72
8
 73
4
 74
0
 40
0
 40
0
 40
0
 40
0
 40
1
 40
1
 40
1
 40
1
 10
427.057620
 20
34.088379
 30
0.0
 10
424.024320
 20
29.101294
 30
0.0
 10
419.312212
 20
24.809776
 30
0.0
 10
417.423338
 20
19.349121
 30
0.0
  0
SPLINE
  5
14f
100
AcDbEntity
  8
0
 62
7
100
AcDbSpline
 70
8
 71
3
 72
8
 73
4
 74
0
 40
0
 40
0
 40
0
 40
0
 40
1
 40
1
 40
1
 40
1
 10
417.423338
 20
19.349121
 30
0.0
 10
420.557228
 20
18.037838
 30
0.0
 10
425.342962
 20
17.618381
 30
0.0
 10
426.545100
 20
21.718383
 30
0.0
  0
SPLINE
  5
150
100
AcDbEntity
  8
0
 62
7
100
AcDbSpline
 70
8
 71
3
 72
8
 73
4
 74
0
 40
0
 40
0
 40
0
 40
0
 40
1
 40
1
 40
1
 40
1
 10
426.545100
 20
21.718383
 30
0.0
 10
428.642100
 20
23.387558
 30
0.0
 10
430.762057
 20
31.302374
 30
0.0
 10
432.847342
 20
26.322928
 30
0.0
  0
SPLINE
  5
151
100
AcDbEntity
  8
0
 62
7
100
AcDbSpline
 70
8
 71
3
 72
8
 73
4
 74
0
 40
0
 40
0
 40
0
 40
0
 40
1
 40
1
 40
1
 40
1
 10
432.847342
 20
26.322928
 30
0.0
 10
435.625432
 20
23.675810
 30
0.0
 10
436.486380
 20
17.376787
 30
0.0
 10
441.301755
 20
18.616699
 30
0.0
  0
SPLINE
  5
152
100
AcDbEntity
  8
0
 62
7
100
AcDbSpline
 70
8
 71
3
 72
8
 73
4
 74
0
 40
0
 40
0
 40
0
 40
0
 40
1
 40
1
 40
1
 40
1
 10
441.301755
 20
18.616699
 30
0.0
 10
448.007400
 20
17.600530
 30
0.0
 10
443.275515
 20
23.814391
 30
0.0
 10
441.058335
 20
26.310954
 30
0.0
  0
SPLINE
  5
153
100
AcDbEntity
  8
0
 62
7
100
AcDbSpline
 70
8
 71
3
 72
8
 73
4
 74
0
 40
0
 40
0
 40
0
 40
0
 40
1
 40
1
 40
1
 40
1
 10
441.058335
 20
26.310954
 30
0.0
 10
439.750875
 20
29.722883
 30
0.0
 10
433.239825
 20
33.130774
 30
0.0
 10
437.251463
 20
36.547852
 30
0.0
  0
SPLINE
  5
154
100
AcDbEntity
  8
0
 62
7
100
AcDbSpline
 70
8
 71
3
 72
8
 73
4
 74
0
 40
0
 40
0
 40
0
 40
0
 40
1
 40
1
 40
1
 40
1
 10
437.251463
 20
36.547852
 30
0.0
 10
439.536705
 20
40.497840
 30
0.0
 10
443.484922
 20
43.761265
 30
0.0
 10
444.637207
 20
48.178711
 30
0.0
  0
SPLINE
  5
155
100
AcDbEntity
  8
0
 62
7
100
AcDbSpline
 70
8
 71
3
 72
8
 73
4
 74
0
 40
0
 40
0
 40
0
 40
0
 40
1
 40
1
 40
1
 40
1
 10
444.637207
 20
48.178711
 30
0.0
 10
441.504427
 20
49.492003
 30
0.0
 10
436.718948
 20
49.904583
 30
0.0
 10
435.554880
 20
45.783626
 30
0.0
  0
SPLINE
  5
156
100
AcDbEntity
  8
0
 62
7
100
AcDbSpline
 70
8
 71
3
 72
8
 73
4
 74
0
 40
0
 40
0
 40
0
 40
0
 40
1
 40
1
 40
1
 40
1
 10
435.554880
 20
45.783626
 30
0.0
 10
433.528057
 20
43.774315
 30
0.0
 10
431.509897
 20
36.632722
 30
0.0
 10
429.478155
 20
42.268739
 30
0.0
  0
SPLINE
  5
157
100
AcDbEntity
  8
0
 62
7
100
AcDbSpline
 70
8
 71
3
 72
8
 73
4
 74
0
 40
0
 40
0
 40
0
 40
0
 40
1
 40
1
 40
1
 40
1
 10
429.478155
 20
42.268739
 30
0.0
 10
427.030267
 20
44.714346
 30
0.0
 10
426.196147
 20
50.231436
 30
0.0
 10
421.766602
 20
48.909668
 30
0.0
  0
SPLINE
  5
158
100
AcDbEntity
  8
0
 62
7
100
AcDbSpline
 70
8
 71
3
 72
8
 73
4
 74
0
 40
0
 40
0
 40
0
 40
0
 40
1
 40
1
 40
1
 40
1
 10
421.766602
 20
48.909668
 30
0.0
 10
420.397425
 20
48.936608
 30
0.0
 10
419.079390
 20
49.075781
 30
0.0
 10
417.921390
 20
48.178711
 30
0.0
  0
LWPOLYLINE
  5
159
100
AcDbEntity
  8
0
 62
7
100
AcDbPolyline
 90
1
 70
1
 10
406.393065
 20
42.834961
 30
0.0
  0
SPLINE
  5
15a
100
AcDbEntity
  8
0
 62
7
100
AcDbSpline
 70
8
 71
3
 72
8
 73
4
 74
0
 40
0
 40
0
 40
0
 40
0
 40
1
 40
1
 40
1
 40
1
 10
447.249023
 20
47.409668
 30
0.0
 10
447.967553
 20
39.247021
 30
0.0
 10
445.643745
 20
30.490547
 30
0.0
 10
448.775393
 20
22.727051
 30
0.0
  0
SPLINE
  5
15b
100
AcDbEntity
  8
0
 62
7
100
AcDbSpline
 70
8
 71
3
 72
8
 73
4
 74
0
 40
0
 40
0
 40
0
 40
0
 40
1
 40
1
 40
1
 40
1
 10
448.775393
 20
22.727051
 30
0.0
 10
452.465250
 20
17.031248
 30
0.0
 10
461.450723
 20
16.789777
 30
0.0
 10
466.562985
 20
20.666016
 30
0.0
  0
SPLINE
  5
15c
100
AcDbEntity
  8
0
 62
7
100
AcDbSpline
 70
8
 71
3
 72
8
 73
4
 74
0
 40
0
 40
0
 40
0
 40
0
 40
1
 40
1
 40
1
 40
1
 10
466.562985
 20
20.666016
 30
0.0
 10
465.885030
 20
17.475209
 30
0.0
 10
474.499425
 20
17.593443
 30
0.0
 10
473.084475
 20
20.866699
 30
0.0
  0
SPLINE
  5
15d
100
AcDbEntity
  8
0
 62
7
100
AcDbSpline
 70
8
 71
3
 72
8
 73
4
 74
0
 40
0
 40
0
 40
0
 40
0
 40
1
 40
1
 40
1
 40
1
 10
473.084475
 20
20.866699
 30
0.0
 10
473.084475
 20
30.214355
 30
0.0
 10
473.084475
 20
39.562012
 30
0.0
 10
473.084475
 20
48.909668
 30
0.0
  0
SPLINE
  5
15e
100
AcDbEntity
  8
0
 62
7
100
AcDbSpline
 70
8
 71
3
 72
8
 73
4
 74
0
 40
0
 40
0
 40
0
 40
0
 40
1
 40
1
 40
1
 40
1
 10
473.084475
 20
48.909668
 30
0.0
 10
468.728017
 20
49.192883
 30
0.0
 10
464.172915
 20
49.674744
 30
0.0
 10
465.950685
 20
43.823731
 30
0.0
  0
SPLINE
  5
15f
100
AcDbEntity
  8
0
 62
7
100
AcDbSpline
 70
8
 71
3
 72
8
 73
4
 74
0
 40
0
 40
0
 40
0
 40
0
 40
1
 40
1
 40
1
 40
1
 10
465.950685
 20
43.823731
 30
0.0
 10
465.206408
 20
37.883054
 30
0.0
 10
467.864468
 20
30.485993
 30
0.0
 10
463.476563
 20
25.640625
 30
0.0
  0
SPLINE
  5
160
100
AcDbEntity
  8
0
 62
7
100
AcDbSpline
 70
8
 71
3
 72
8
 73
4
 74
0
 40
0
 40
0
 40
0
 40
0
 40
1
 40
1
 40
1
 40
1
 10
463.476563
 20
25.640625
 30
0.0
 10
459.671265
 20
22.998598
 30
0.0
 10
453.118283
 20
25.065747
 30
0.0
 10
454.432620
 20
30.495117
 30
0.0
  0
SPLINE
  5
161
100
AcDbEntity
  8
0
 62
7
100
AcDbSpline
 70
8
 71
3
 72
8
 73
4
 74
0
 40
0
 40
0
 40
0
 40
0
 40
1
 40
1
 40
1
 40
1
 10
454.432620
 20
30.495117
 30
0.0
 10
454.432620
 20
36.633301
 30
0.0
 10
454.432620
 20
42.771484
 30
0.0
 10
454.432620
 20
48.909668
 30
0.0
  0
SPLINE
  5
162
100
AcDbEntity
  8
0
 62
7
100
AcDbSpline
 70
8
 71
3
 72
8
 73
4
 74
0
 40
0
 40
0
 40
0
 40
0
 40
1
 40
1
 40
1
 40
1
 10
454.432620
 20
48.909668
 30
0.0
 10
452.466023
 20
48.235040
 30
0.0
 10
446.750700
 20
50.402372
 30
0.0
 10
447.249023
 20
47.409668
 30
0.0
  0
LWPOLYLINE
  5
163
100
AcDbEntity
  8
0
 62
7
100
AcDbPolyline
 90
1
 70
1
 10
417.921390
 20
48.178711
 30
0.0
  0
SPLINE
  5
164
100
AcDbEntity
  8
0
 62
7
100
AcDbSpline
 70
8
 71
3
 72
8
 73
4
 74
0
 40
0
 40
0
 40
0
 40
0
 40
1
 40
1
 40
1
 40
1
 10
492.692872
 20
49.403320
 30
0.0
 10
489.943507
 20
49.605818
 30
0.0
 10
487.010100
 20
47.668684
 30
0.0
 10
485.374515
 20
46.286133
 30
0.0
  0
SPLINE
  5
165
100
AcDbEntity
  8
0
 62
7
100
AcDbSpline
 70
8
 71
3
 72
8
 73
4
 74
0
 40
0
 40
0
 40
0
 40
0
 40
1
 40
1
 40
1
 40
1
 10
485.374515
 20
46.286133
 30
0.0
 10
486.858637
 20
50.147636
 30
0.0
 10
477.504248
 20
50.048525
 30
0.0
 10
478.850100
 20
46.659668
 30
0.0
  0
SPLINE
  5
166
100
AcDbEntity
  8
0
 62
7
100
AcDbSpline
 70
8
 71
3
 72
8
 73
4
 74
0
 40
0
 40
0
 40
0
 40
0
 40
1
 40
1
 40
1
 40
1
 10
478.850100
 20
46.659668
 30
0.0
 10
478.850100
 20
37.312012
 30
0.0
 10
478.850100
 20
27.964355
 30
0.0
 10
478.850100
 20
18.616699
 30
0.0
  0
SPLINE
  5
167
100
AcDbEntity
  8
0
 62
7
100
AcDbSpline
 70
8
 71
3
 72
8
 73
4
 74
0
 40
0
 40
0
 40
0
 40
0
 40
1
 40
1
 40
1
 40
1
 10
478.850100
 20
18.616699
 30
0.0
 10
483.265028
 20
18.299913
 30
0.0
 10
487.757858
 20
17.905231
 30
0.0
 10
485.983890
 20
23.777344
 30
0.0
  0
SPLINE
  5
168
100
AcDbEntity
  8
0
 62
7
100
AcDbSpline
 70
8
 71
3
 72
8
 73
4
 74
0
 40
0
 40
0
 40
0
 40
0
 40
1
 40
1
 40
1
 40
1
 10
485.983890
 20
23.777344
 30
0.0
 10
486.645150
 20
30.040241
 30
0.0
 10
483.437955
 20
39.715312
 30
0.0
 10
491.232420
 20
42.505371
 30
0.0
  0
SPLINE
  5
169
100
AcDbEntity
  8
0
 62
7
100
AcDbSpline
 70
8
 71
3
 72
8
 73
4
 74
0
 40
0
 40
0
 40
0
 40
0
 40
1
 40
1
 40
1
 40
1
 10
491.232420
 20
42.505371
 30
0.0
 10
494.280112
 20
42.730914
 30
0.0
 10
497.846835
 20
40.922800
 30
0.0
 10
497.260252
 20
45.468750
 30
0.0
  0
SPLINE
  5
16a
100
AcDbEntity
  8
0
 62
7
100
AcDbSpline
 70
8
 71
3
 72
8
 73
4
 74
0
 40
0
 40
0
 40
0
 40
0
 40
1
 40
1
 40
1
 40
1
 10
497.260252
 20
45.468750
 30
0.0
 10
498.841747
 20
50.157415
 30
0.0
 10
495.909195
 20
49.052982
 30
0.0
 10
492.692872
 20
49.403320
 30
0.0
  0
LWPOLYLINE
  5
16b
100
AcDbEntity
  8
0
 62
7
100
AcDbPolyline
 90
1
 70
1
 10
447.249023
 20
47.409668
 30
0.0
  0
SPLINE
  5
16c
100
AcDbEntity
  8
0
 62
7
100
AcDbSpline
 70
8
 71
3
 72
8
 73
4
 74
0
 40
0
 40
0
 40
0
 40
0
 40
1
 40
1
 40
1
 40
1
 10
510.467287
 20
49.401856
 30
0.0
 10
501.093533
 20
49.764841
 30
0.0
 10
495.802785
 20
39.482542
 30
0.0
 10
497.291078
 20
31.189167
 30
0.0
  0
SPLINE
  5
16d
100
AcDbEntity
  8
0
 62
7
100
AcDbSpline
 70
8
 71
3
 72
8
 73
4
 74
0
 40
0
 40
0
 40
0
 40
0
 40
1
 40
1
 40
1
 40
1
 10
497.291078
 20
31.189167
 30
0.0
 10
497.418248
 20
22.521890
 30
0.0
 10
506.246798
 20
16.675004
 30
0.0
 10
514.409183
 20
18.231445
 30
0.0
  0
SPLINE
  5
16e
100
AcDbEntity
  8
0
 62
7
100
AcDbSpline
 70
8
 71
3
 72
8
 73
4
 74
0
 40
0
 40
0
 40
0
 40
0
 40
1
 40
1
 40
1
 40
1
 10
514.409183
 20
18.231445
 30
0.0
 10
517.438710
 20
18.871431
 30
0.0
 10
523.155323
 20
18.918330
 30
0.0
 10
522.042480
 20
23.229492
 30
0.0
  0
SPLINE
  5
16f
100
AcDbEntity
  8
0
 62
7
100
AcDbSpline
 70
8
 71
3
 72
8
 73
4
 74
0
 40
0
 40
0
 40
0
 40
0
 40
1
 40
1
 40
1
 40
1
 10
522.042480
 20
23.229492
 30
0.0
 10
523.117470
 20
29.187454
 30
0.0
 10
516.976095
 20
24.840791
 30
0.0
 10
513.878910
 20
24.840820
 30
0.0
  0
SPLINE
  5
170
100
AcDbEntity
  8
0
 62
7
100
AcDbSpline
 70
8
 71
3
 72
8
 73
4
 74
0
 40
0
 40
0
 40
0
 40
0
 40
1
 40
1
 40
1
 40
1
 10
513.878910
 20
24.840820
 30
0.0
 10
509.453108
 20
23.791507
 30
0.0
 10
504.541628
 20
26.700875
 30
0.0
 10
504.547853
 20
31.516113
 30
0.0
  0
SPLINE
  5
171
100
AcDbEntity
  8
0
 62
7
100
AcDbSpline
 70
8
 71
3
 72
8
 73
4
 74
0
 40
0
 40
0
 40
0
 40
0
 40
1
 40
1
 40
1
 40
1
 10
504.547853
 20
31.516113
 30
0.0
 10
510.769530
 20
31.516113
 30
0.0
 10
516.991208
 20
31.516113
 30
0.0
 10
523.212893
 20
31.516113
 30
0.0
  0
SPLINE
  5
172
100
AcDbEntity
  8
0
 62
7
100
AcDbSpline
 70
8
 71
3
 72
8
 73
4
 74
0
 40
0
 40
0
 40
0
 40
0
 40
1
 40
1
 40
1
 40
1
 10
523.212893
 20
31.516113
 30
0.0
 10
524.161943
 20
38.720157
 30
0.0
 10
521.439578
 20
48.000066
 30
0.0
 10
513.166995
 20
49.190918
 30
0.0
  0
SPLINE
  5
173
100
AcDbEntity
  8
0
 62
7
100
AcDbSpline
 70
8
 71
3
 72
8
 73
4
 74
0
 40
0
 40
0
 40
0
 40
0
 40
1
 40
1
 40
1
 40
1
 10
513.166995
 20
49.190918
 30
0.0
 10
512.267722
 20
49.237516
 30
0.0
 10
511.366342
 20
49.399792
 30
0.0
 10
510.467287
 20
49.401856
 30
0.0
  0
LWPOLYLINE
  5
174
100
AcDbEntity
  8
0
 62
7
100
AcDbPolyline
 90
1
 70
1
 10
492.692872
 20
49.403320
 30
0.0
  0
SPLINE
  5
175
100
AcDbEntity
  8
0
 62
7
100
AcDbSpline
 70
8
 71
3
 72
8
 73
4
 74
0
 40
0
 40
0
 40
0
 40
0
 40
1
 40
1
 40
1
 40
1
 10
511.804688
 20
42.834961
 30
0.0
 10
516.004343
 20
42.099886
 30
0.0
 10
517.123222
 20
35.715234
 30
0.0
 10
511.461915
 20
37.877930
 30
0.0
  0
SPLINE
  5
176
100
AcDbEntity
  8
0
 62
7
100
AcDbSpline
 70
8
 71
3
 72
8
 73
4
 74
0
 40
0
 40
0
 40
0
 40
0
 40
1
 40
1
 40
1
 40
1
 10
511.461915
 20
37.877930
 30
0.0
 10
506.588903
 20
36.689237
 30
0.0
 10
502.281840
 20
38.792288
 30
0.0
 10
507.898658
 20
42.364999
 30
0.0
  0
SPLINE
  5
177
100
AcDbEntity
  8
0
 62
7
100
AcDbSpline
 70
8
 71
3
 72
8
 73
4
 74
0
 40
0
 40
0
 40
0
 40
0
 40
1
 40
1
 40
1
 40
1
 10
507.898658
 20
42.364999
 30
0.0
 10
509.090497
 20
42.983086
 30
0.0
 10
510.501128
 20
43.000193
 30
0.0
 10
511.804688
 20
42.834961
 30
0.0
  0
LWPOLYLINE
  5
178
100
AcDbEntity
  8
0
 62
7
100
AcDbPolyline
 90
1
 70
1
 10
510.467287
 20
49.401856
 30
0.0
  0
SPLINE
  5
179
100
AcDbEntity
  8
0
 62
7
100
AcDbSpline
 70
8
 71
3
 72
8
 73
4
 74
0
 40
0
 40
0
 40
0
 40
0
 40
1
 40
1
 40
1
 40
1
 10
250.390140
 20
-1.794435
 30
0.0
 10
247.961940
 20
-1.810335
 30
0.0
 10
245.486707
 20
-2.579355
 30
0.0
 10
243.622560
 20
-4.164547
 30
0.0
  0
SPLINE
  5
17a
100
AcDbEntity
  8
0
 62
7
100
AcDbSpline
 70
8
 71
3
 72
8
 73
4
 74
0
 40
0
 40
0
 40
0
 40
0
 40
1
 40
1
 40
1
 40
1
 10
243.622560
 20
-4.164547
 30
0.0
 10
241.944015
 20
0.575389
 30
0.0
 10
236.185110
 20
-3.539265
 30
0.0
 10
238.516110
 20
-8.314455
 30
0.0
  0
SPLINE
  5
17b
100
AcDbEntity
  8
0
 62
7
100
AcDbSpline
 70
8
 71
3
 72
8
 73
4
 74
0
 40
0
 40
0
 40
0
 40
0
 40
1
 40
1
 40
1
 40
1
 10
238.516110
 20
-8.314455
 30
0.0
 10
238.516110
 20
-16.337400
 30
0.0
 10
238.516110
 20
-24.360353
 30
0.0
 10
238.516110
 20
-32.383297
 30
0.0
  0
SPLINE
  5
17c
100
AcDbEntity
  8
0
 62
7
100
AcDbSpline
 70
8
 71
3
 72
8
 73
4
 74
0
 40
0
 40
0
 40
0
 40
0
 40
1
 40
1
 40
1
 40
1
 10
238.516110
 20
-32.383297
 30
0.0
 10
244.991445
 20
-34.291740
 30
0.0
 10
244.274573
 20
-29.007968
 30
0.0
 10
243.981442
 20
-24.147953
 30
0.0
  0
SPLINE
  5
17d
100
AcDbEntity
  8
0
 62
7
100
AcDbSpline
 70
8
 71
3
 72
8
 73
4
 74
0
 40
0
 40
0
 40
0
 40
0
 40
1
 40
1
 40
1
 40
1
 10
243.981442
 20
-24.147953
 30
0.0
 10
244.640130
 20
-18.743040
 30
0.0
 10
241.990800
 20
-10.982805
 30
0.0
 10
247.513185
 20
-7.552733
 30
0.0
  0
SPLINE
  5
17e
100
AcDbEntity
  8
0
 62
7
100
AcDbSpline
 70
8
 71
3
 72
8
 73
4
 74
0
 40
0
 40
0
 40
0
 40
0
 40
1
 40
1
 40
1
 40
1
 10
247.513185
 20
-7.552733
 30
0.0
 10
251.551357
 20
-5.617298
 30
0.0
 10
256.402432
 20
-8.520938
 30
0.0
 10
255.399900
 20
-13.224608
 30
0.0
  0
SPLINE
  5
17f
100
AcDbEntity
  8
0
 62
7
100
AcDbSpline
 70
8
 71
3
 72
8
 73
4
 74
0
 40
0
 40
0
 40
0
 40
0
 40
1
 40
1
 40
1
 40
1
 10
255.399900
 20
-13.224608
 30
0.0
 10
255.399900
 20
-19.610843
 30
0.0
 10
255.399900
 20
-25.997070
 30
0.0
 10
255.399900
 20
-32.383297
 30
0.0
  0
SPLINE
  5
180
100
AcDbEntity
  8
0
 62
7
100
AcDbSpline
 70
8
 71
3
 72
8
 73
4
 74
0
 40
0
 40
0
 40
0
 40
0
 40
1
 40
1
 40
1
 40
1
 10
255.399900
 20
-32.383297
 30
0.0
 10
261.616522
 20
-34.189763
 30
0.0
 10
261.324982
 20
-29.488073
 30
0.0
 10
260.915040
 20
-24.667965
 30
0.0
  0
SPLINE
  5
181
100
AcDbEntity
  8
0
 62
7
100
AcDbSpline
 70
8
 71
3
 72
8
 73
4
 74
0
 40
0
 40
0
 40
0
 40
0
 40
1
 40
1
 40
1
 40
1
 10
260.915040
 20
-24.667965
 30
0.0
 10
261.697440
 20
-19.082865
 30
0.0
 10
258.640882
 20
-10.965645
 30
0.0
 10
264.476077
 20
-7.516110
 30
0.0
  0
SPLINE
  5
182
100
AcDbEntity
  8
0
 62
7
100
AcDbSpline
 70
8
 71
3
 72
8
 73
4
 74
0
 40
0
 40
0
 40
0
 40
0
 40
1
 40
1
 40
1
 40
1
 10
264.476077
 20
-7.516110
 30
0.0
 10
268.511430
 20
-5.591362
 30
0.0
 10
273.323865
 20
-8.465550
 30
0.0
 10
272.333497
 20
-13.179202
 30
0.0
  0
SPLINE
  5
183
100
AcDbEntity
  8
0
 62
7
100
AcDbSpline
 70
8
 71
3
 72
8
 73
4
 74
0
 40
0
 40
0
 40
0
 40
0
 40
1
 40
1
 40
1
 40
1
 10
272.333497
 20
-13.179202
 30
0.0
 10
272.333497
 20
-19.580565
 30
0.0
 10
272.333497
 20
-25.981935
 30
0.0
 10
272.333497
 20
-32.383297
 30
0.0
  0
SPLINE
  5
184
100
AcDbEntity
  8
0
 62
7
100
AcDbSpline
 70
8
 71
3
 72
8
 73
4
 74
0
 40
0
 40
0
 40
0
 40
0
 40
1
 40
1
 40
1
 40
1
 10
272.333497
 20
-32.383297
 30
0.0
 10
278.765985
 20
-34.276725
 30
0.0
 10
278.069205
 20
-29.040885
 30
0.0
 10
277.773922
 20
-24.206542
 30
0.0
  0
SPLINE
  5
185
100
AcDbEntity
  8
0
 62
7
100
AcDbSpline
 70
8
 71
3
 72
8
 73
4
 74
0
 40
0
 40
0
 40
0
 40
0
 40
1
 40
1
 40
1
 40
1
 10
277.773922
 20
-24.206542
 30
0.0
 10
277.045260
 20
-17.350230
 30
0.0
 10
280.108627
 20
-8.011530
 30
0.0
 10
273.465817
 20
-3.273922
 30
0.0
  0
SPLINE
  5
186
100
AcDbEntity
  8
0
 62
7
100
AcDbSpline
 70
8
 71
3
 72
8
 73
4
 74
0
 40
0
 40
0
 40
0
 40
0
 40
1
 40
1
 40
1
 40
1
 10
273.465817
 20
-3.273922
 30
0.0
 10
268.856355
 20
-0.493800
 30
0.0
 10
262.220242
 20
-1.833052
 30
0.0
 10
258.801270
 20
-5.254395
 30
0.0
  0
SPLINE
  5
187
100
AcDbEntity
  8
0
 62
7
100
AcDbSpline
 70
8
 71
3
 72
8
 73
4
 74
0
 40
0
 40
0
 40
0
 40
0
 40
1
 40
1
 40
1
 40
1
 10
258.801270
 20
-5.254395
 30
0.0
 10
256.803135
 20
-2.667907
 30
0.0
 10
253.529910
 20
-1.820925
 30
0.0
 10
250.390140
 20
-1.794435
 30
0.0
  0
LWPOLYLINE
  5
188
100
AcDbEntity
  8
0
 62
7
100
AcDbPolyline
 90
1
 70
1
 10
511.804688
 20
42.834961
 30
0.0
  0
SPLINE
  5
189
100
AcDbEntity
  8
0
 62
7
100
AcDbSpline
 70
8
 71
3
 72
8
 73
4
 74
0
 40
0
 40
0
 40
0
 40
0
 40
1
 40
1
 40
1
 40
1
 10
285.940433
 20
7.562988
 30
0.0
 10
280.576740
 20
6.877889
 30
0.0
 10
283.817018
 20
-3.353212
 30
0.0
 10
288.377933
 20
0.688477
 30
0.0
  0
SPLINE
  5
18a
100
AcDbEntity
  8
0
 62
7
100
AcDbSpline
 70
8
 71
3
 72
8
 73
4
 74
0
 40
0
 40
0
 40
0
 40
0
 40
1
 40
1
 40
1
 40
1
 10
288.377933
 20
0.688477
 30
0.0
 10
290.339902
 20
2.809476
 30
0.0
 10
289.536765
 20
7.991448
 30
0.0
 10
285.940433
 20
7.562988
 30
0.0
  0
LWPOLYLINE
  5
18b
100
AcDbEntity
  8
0
 62
7
100
AcDbPolyline
 90
1
 70
1
 10
250.390140
 20
-1.794435
 30
0.0
  0
SPLINE
  5
18c
100
AcDbEntity
  8
0
 62
7
100
AcDbSpline
 70
8
 71
3
 72
8
 73
4
 74
0
 40
0
 40
0
 40
0
 40
0
 40
1
 40
1
 40
1
 40
1
 10
283.539548
 20
-3.814455
 30
0.0
 10
283.539548
 20
-13.337400
 30
0.0
 10
283.539548
 20
-22.860353
 30
0.0
 10
283.539548
 20
-32.383297
 30
0.0
  0
SPLINE
  5
18d
100
AcDbEntity
  8
0
 62
7
100
AcDbSpline
 70
8
 71
3
 72
8
 73
4
 74
0
 40
0
 40
0
 40
0
 40
0
 40
1
 40
1
 40
1
 40
1
 10
283.539548
 20
-32.383297
 30
0.0
 10
290.022578
 20
-34.294545
 30
0.0
 10
289.295392
 20
-28.995585
 30
0.0
 10
289.004880
 20
-24.133297
 30
0.0
  0
SPLINE
  5
18e
100
AcDbEntity
  8
0
 62
7
100
AcDbSpline
 70
8
 71
3
 72
8
 73
4
 74
0
 40
0
 40
0
 40
0
 40
0
 40
1
 40
1
 40
1
 40
1
 10
289.004880
 20
-24.133297
 30
0.0
 10
289.004880
 20
-16.860353
 30
0.0
 10
289.004880
 20
-9.587400
 30
0.0
 10
289.004880
 20
-2.314455
 30
0.0
  0
SPLINE
  5
18f
100
AcDbEntity
  8
0
 62
7
100
AcDbSpline
 70
8
 71
3
 72
8
 73
4
 74
0
 40
0
 40
0
 40
0
 40
0
 40
1
 40
1
 40
1
 40
1
 10
289.004880
 20
-2.314455
 30
0.0
 10
287.420655
 20
-2.888903
 30
0.0
 10
282.685957
 20
-0.941190
 30
0.0
 10
283.539548
 20
-3.814455
 30
0.0
  0
LWPOLYLINE
  5
190
100
AcDbEntity
  8
0
 62
7
100
AcDbPolyline
 90
1
 70
1
 10
285.940433
 20
7.562988
 30
0.0
  0
SPLINE
  5
191
100
AcDbEntity
  8
0
 62
7
100
AcDbSpline
 70
8
 71
3
 72
8
 73
4
 74
0
 40
0
 40
0
 40
0
 40
0
 40
1
 40
1
 40
1
 40
1
 10
307.625978
 20
-1.797360
 30
0.0
 10
298.772595
 20
-1.213207
 30
0.0
 10
292.479233
 20
-10.073003
 30
0.0
 10
293.553375
 20
-18.358688
 30
0.0
  0
SPLINE
  5
192
100
AcDbEntity
  8
0
 62
7
100
AcDbSpline
 70
8
 71
3
 72
8
 73
4
 74
0
 40
0
 40
0
 40
0
 40
0
 40
1
 40
1
 40
1
 40
1
 10
293.553375
 20
-18.358688
 30
0.0
 10
293.050215
 20
-26.366115
 30
0.0
 10
299.973923
 20
-33.873383
 30
0.0
 10
308.184960
 20
-32.850300
 30
0.0
  0
SPLINE
  5
193
100
AcDbEntity
  8
0
 62
7
100
AcDbSpline
 70
8
 71
3
 72
8
 73
4
 74
0
 40
0
 40
0
 40
0
 40
0
 40
1
 40
1
 40
1
 40
1
 10
308.184960
 20
-32.850300
 30
0.0
 10
311.420925
 20
-32.628353
 30
0.0
 10
317.135610
 20
-32.452860
 30
0.0
 10
315.675293
 20
-27.820312
 30
0.0
  0
SPLINE
  5
194
100
AcDbEntity
  8
0
 62
7
100
AcDbSpline
 70
8
 71
3
 72
8
 73
4
 74
0
 40
0
 40
0
 40
0
 40
0
 40
1
 40
1
 40
1
 40
1
 10
315.675293
 20
-27.820312
 30
0.0
 10
314.593800
 20
-24.172853
 30
0.0
 10
309.553230
 20
-28.948005
 30
0.0
 10
306.612345
 20
-27.570540
 30
0.0
  0
SPLINE
  5
195
100
AcDbEntity
  8
0
 62
7
100
AcDbSpline
 70
8
 71
3
 72
8
 73
4
 74
0
 40
0
 40
0
 40
0
 40
0
 40
1
 40
1
 40
1
 40
1
 10
306.612345
 20
-27.570540
 30
0.0
 10
297.970635
 20
-27.004238
 30
0.0
 10
297.122377
 20
-14.329695
 30
0.0
 10
301.859355
 20
-9.068265
 30
0.0
  0
SPLINE
  5
196
100
AcDbEntity
  8
0
 62
7
100
AcDbSpline
 70
8
 71
3
 72
8
 73
4
 74
0
 40
0
 40
0
 40
0
 40
0
 40
1
 40
1
 40
1
 40
1
 10
301.859355
 20
-9.068265
 30
0.0
 10
305.416793
 20
-5.796960
 30
0.0
 10
310.706130
 20
-7.173892
 30
0.0
 10
314.796390
 20
-8.570797
 30
0.0
  0
SPLINE
  5
197
100
AcDbEntity
  8
0
 62
7
100
AcDbSpline
 70
8
 71
3
 72
8
 73
4
 74
0
 40
0
 40
0
 40
0
 40
0
 40
1
 40
1
 40
1
 40
1
 10
314.796390
 20
-8.570797
 30
0.0
 10
316.776997
 20
-4.920705
 30
0.0
 10
316.109753
 20
-2.332927
 30
0.0
 10
311.723212
 20
-2.180437
 30
0.0
  0
SPLINE
  5
198
100
AcDbEntity
  8
0
 62
7
100
AcDbSpline
 70
8
 71
3
 72
8
 73
4
 74
0
 40
0
 40
0
 40
0
 40
0
 40
1
 40
1
 40
1
 40
1
 10
311.723212
 20
-2.180437
 30
0.0
 10
310.378852
 20
-1.901325
 30
0.0
 10
308.996242
 20
-1.800757
 30
0.0
 10
307.625977
 20
-1.797360
 30
0.0
  0
LWPOLYLINE
  5
199
100
AcDbEntity
  8
0
 62
7
100
AcDbPolyline
 90
1
 70
1
 10
283.539548
 20
-3.814455
 30
0.0
  0
SPLINE
  5
19a
100
AcDbEntity
  8
0
 62
7
100
AcDbSpline
 70
8
 71
3
 72
8
 73
4
 74
0
 40
0
 40
0
 40
0
 40
0
 40
1
 40
1
 40
1
 40
1
 10
331.369627
 20
-1.794435
 30
0.0
 10
328.813103
 20
-1.784760
 30
0.0
 10
326.168948
 20
-2.679390
 30
0.0
 10
324.435060
 20
-4.617188
 30
0.0
  0
SPLINE
  5
19b
100
AcDbEntity
  8
0
 62
7
100
AcDbSpline
 70
8
 71
3
 72
8
 73
4
 74
0
 40
0
 40
0
 40
0
 40
0
 40
1
 40
1
 40
1
 40
1
 10
324.435060
 20
-4.617188
 30
0.0
 10
324.240810
 20
0.296293
 30
0.0
 10
316.553895
 20
-2.579730
 30
0.0
 10
319.299315
 20
-7.564455
 30
0.0
  0
SPLINE
  5
19c
100
AcDbEntity
  8
0
 62
7
100
AcDbSpline
 70
8
 71
3
 72
8
 73
4
 74
0
 40
0
 40
0
 40
0
 40
0
 40
1
 40
1
 40
1
 40
1
 10
319.299315
 20
-7.564455
 30
0.0
 10
319.299315
 20
-15.837405
 30
0.0
 10
319.299315
 20
-24.110355
 30
0.0
 10
319.299315
 20
-32.383297
 30
0.0
  0
SPLINE
  5
19d
100
AcDbEntity
  8
0
 62
7
100
AcDbSpline
 70
8
 71
3
 72
8
 73
4
 74
0
 40
0
 40
0
 40
0
 40
0
 40
1
 40
1
 40
1
 40
1
 10
319.299315
 20
-32.383297
 30
0.0
 10
325.774807
 20
-34.291898
 30
0.0
 10
325.057673
 20
-29.007870
 30
0.0
 10
324.764647
 20
-24.147953
 30
0.0
  0
SPLINE
  5
19e
100
AcDbEntity
  8
0
 62
7
100
AcDbSpline
 70
8
 71
3
 72
8
 73
4
 74
0
 40
0
 40
0
 40
0
 40
0
 40
1
 40
1
 40
1
 40
1
 10
324.764647
 20
-24.147953
 30
0.0
 10
325.011773
 20
-18.388290
 30
0.0
 10
323.015640
 20
-8.845770
 30
0.0
 10
330.597442
 20
-7.154798
 30
0.0
  0
SPLINE
  5
19f
100
AcDbEntity
  8
0
 62
7
100
AcDbSpline
 70
8
 71
3
 72
8
 73
4
 74
0
 40
0
 40
0
 40
0
 40
0
 40
1
 40
1
 40
1
 40
1
 10
330.597442
 20
-7.154798
 30
0.0
 10
333.562492
 20
-7.068630
 30
0.0
 10
336.747630
 20
-8.710155
 30
0.0
 10
336.496582
 20
-4.526370
 30
0.0
  0
SPLINE
  5
1a0
100
AcDbEntity
  8
0
 62
7
100
AcDbSpline
 70
8
 71
3
 72
8
 73
4
 74
0
 40
0
 40
0
 40
0
 40
0
 40
1
 40
1
 40
1
 40
1
 10
336.496582
 20
-4.526370
 30
0.0
 10
338.320845
 20
-1.049917
 30
0.0
 10
333.272857
 20
-2.234775
 30
0.0
 10
331.369627
 20
-1.794435
 30
0.0
  0
LWPOLYLINE
  5
1a1
100
AcDbEntity
  8
0
 62
7
100
AcDbPolyline
 90
1
 70
1
 10
307.625977
 20
-1.797360
 30
0.0
  0
SPLINE
  5
1a2
100
AcDbEntity
  8
0
 62
7
100
AcDbSpline
 70
8
 71
3
 72
8
 73
4
 74
0
 40
0
 40
0
 40
0
 40
0
 40
1
 40
1
 40
1
 40
1
 10
349.954103
 20
-1.797360
 30
0.0
 10
341.290665
 20
-1.289932
 30
0.0
 10
335.630805
 20
-10.186612
 30
0.0
 10
336.591428
 20
-18.126697
 30
0.0
  0
SPLINE
  5
1a3
100
AcDbEntity
  8
0
 62
7
100
AcDbSpline
 70
8
 71
3
 72
8
 73
4
 74
0
 40
0
 40
0
 40
0
 40
0
 40
1
 40
1
 40
1
 40
1
 10
336.591428
 20
-18.126697
 30
0.0
 10
336.112508
 20
-26.198962
 30
0.0
 10
343.118798
 20
-34.302210
 30
0.0
 10
351.559778
 20
-32.745367
 30
0.0
  0
SPLINE
  5
1a4
100
AcDbEntity
  8
0
 62
7
100
AcDbSpline
 70
8
 71
3
 72
8
 73
4
 74
0
 40
0
 40
0
 40
0
 40
0
 40
1
 40
1
 40
1
 40
1
 10
351.559778
 20
-32.745367
 30
0.0
 10
361.399470
 20
-32.314785
 30
0.0
 10
365.237970
 20
-20.697592
 30
0.0
 10
362.962575
 20
-12.438540
 30
0.0
  0
SPLINE
  5
1a5
100
AcDbEntity
  8
0
 62
7
100
AcDbSpline
 70
8
 71
3
 72
8
 73
4
 74
0
 40
0
 40
0
 40
0
 40
0
 40
1
 40
1
 40
1
 40
1
 10
362.962575
 20
-12.438540
 30
0.0
 10
361.910738
 20
-6.165945
 30
0.0
 10
356.366603
 20
-1.490625
 30
0.0
 10
349.954103
 20
-1.797360
 30
0.0
  0
LWPOLYLINE
  5
1a6
100
AcDbEntity
  8
0
 62
7
100
AcDbPolyline
 90
1
 70
1
 10
331.369627
 20
-1.794435
 30
0.0
  0
SPLINE
  5
1a7
100
AcDbEntity
  8
0
 62
7
100
AcDbSpline
 70
8
 71
3
 72
8
 73
4
 74
0
 40
0
 40
0
 40
0
 40
0
 40
1
 40
1
 40
1
 40
1
 10
351.810060
 20
-7.205565
 30
0.0
 10
359.325277
 20
-9.248385
 30
0.0
 10
359.446537
 20
-20.476485
 30
0.0
 10
355.260690
 20
-25.609425
 30
0.0
  0
SPLINE
  5
1a8
100
AcDbEntity
  8
0
 62
7
100
AcDbSpline
 70
8
 71
3
 72
8
 73
4
 74
0
 40
0
 40
0
 40
0
 40
0
 40
1
 40
1
 40
1
 40
1
 10
355.260690
 20
-25.609425
 30
0.0
 10
350.632050
 20
-30.331372
 30
0.0
 10
342.040560
 20
-26.339752
 30
0.0
 10
342.291502
 20
-19.750485
 30
0.0
  0
SPLINE
  5
1a9
100
AcDbEntity
  8
0
 62
7
100
AcDbSpline
 70
8
 71
3
 72
8
 73
4
 74
0
 40
0
 40
0
 40
0
 40
0
 40
1
 40
1
 40
1
 40
1
 10
342.291502
 20
-19.750485
 30
0.0
 10
341.305290
 20
-13.522207
 30
0.0
 10
343.972672
 20
-5.475367
 30
0.0
 10
351.810060
 20
-7.205565
 30
0.0
  0
LWPOLYLINE
  5
1aa
100
AcDbEntity
  8
0
 62
7
100
AcDbPolyline
 90
1
 70
1
 10
349.954103
 20
-1.797360
 30
0.0
  0
SPLINE
  5
1ab
100
AcDbEntity
  8
0
 62
7
100
AcDbSpline
 70
8
 71
3
 72
8
 73
4
 74
0
 40
0
 40
0
 40
0
 40
0
 40
1
 40
1
 40
1
 40
1
 10
377.349607
 20
-1.792965
 30
0.0
 10
371.593237
 20
-1.127422
 30
0.0
 10
364.497398
 20
-5.658113
 30
0.0
 10
366.527340
 20
-12.114255
 30
0.0
  0
SPLINE
  5
1ac
100
AcDbEntity
  8
0
 62
7
100
AcDbSpline
 70
8
 71
3
 72
8
 73
4
 74
0
 40
0
 40
0
 40
0
 40
0
 40
1
 40
1
 40
1
 40
1
 10
366.527340
 20
-12.114255
 30
0.0
 10
368.616120
 20
-19.407607
 30
0.0
 10
378.755842
 20
-17.921445
 30
0.0
 10
382.275877
 20
-23.559082
 30
0.0
  0
SPLINE
  5
1ad
100
AcDbEntity
  8
0
 62
7
100
AcDbSpline
 70
8
 71
3
 72
8
 73
4
 74
0
 40
0
 40
0
 40
0
 40
0
 40
1
 40
1
 40
1
 40
1
 10
382.275877
 20
-23.559082
 30
0.0
 10
381.879645
 20
-29.052937
 30
0.0
 10
373.924785
 20
-27.760650
 30
0.0
 10
370.170743
 20
-26.685968
 30
0.0
  0
SPLINE
  5
1ae
100
AcDbEntity
  8
0
 62
7
100
AcDbSpline
 70
8
 71
3
 72
8
 73
4
 74
0
 40
0
 40
0
 40
0
 40
0
 40
1
 40
1
 40
1
 40
1
 10
370.170743
 20
-26.685968
 30
0.0
 10
366.058230
 20
-22.421137
 30
0.0
 10
363.310935
 20
-30.097635
 30
0.0
 10
367.175993
 20
-31.386983
 30
0.0
  0
SPLINE
  5
1af
100
AcDbEntity
  8
0
 62
7
100
AcDbSpline
 70
8
 71
3
 72
8
 73
4
 74
0
 40
0
 40
0
 40
0
 40
0
 40
1
 40
1
 40
1
 40
1
 10
367.175993
 20
-31.386983
 30
0.0
 10
373.533240
 20
-33.652463
 30
0.0
 10
383.158380
 20
-34.258335
 30
0.0
 10
387.020505
 20
-27.540525
 30
0.0
  0
SPLINE
  5
1b0
100
AcDbEntity
  8
0
 62
7
100
AcDbSpline
 70
8
 71
3
 72
8
 73
4
 74
0
 40
0
 40
0
 40
0
 40
0
 40
1
 40
1
 40
1
 40
1
 10
387.020505
 20
-27.540525
 30
0.0
 10
389.855242
 20
-22.027447
 30
0.0
 10
385.205512
 20
-16.404435
 30
0.0
 10
379.861815
 20
-15.131835
 30
0.0
  0
SPLINE
  5
1b1
100
AcDbEntity
  8
0
 62
7
100
AcDbSpline
 70
8
 71
3
 72
8
 73
4
 74
0
 40
0
 40
0
 40
0
 40
0
 40
1
 40
1
 40
1
 40
1
 10
379.861815
 20
-15.131835
 30
0.0
 10
376.986255
 20
-13.783552
 30
0.0
 10
370.126013
 20
-12.752032
 30
0.0
 10
372.338377
 20
-8.348145
 30
0.0
  0
SPLINE
  5
1b2
100
AcDbEntity
  8
0
 62
7
100
AcDbSpline
 70
8
 71
3
 72
8
 73
4
 74
0
 40
0
 40
0
 40
0
 40
0
 40
1
 40
1
 40
1
 40
1
 10
372.338377
 20
-8.348145
 30
0.0
 10
376.401142
 20
-5.766915
 30
0.0
 10
381.554258
 20
-7.437810
 30
0.0
 10
385.658205
 20
-9.082035
 30
0.0
  0
SPLINE
  5
1b3
100
AcDbEntity
  8
0
 62
7
100
AcDbSpline
 70
8
 71
3
 72
8
 73
4
 74
0
 40
0
 40
0
 40
0
 40
0
 40
1
 40
1
 40
1
 40
1
 10
385.658205
 20
-9.082035
 30
0.0
 10
386.883555
 20
-6.333292
 30
0.0
 10
388.950022
 20
-2.978745
 30
0.0
 10
384.257812
 20
-2.805172
 30
0.0
  0
SPLINE
  5
1b4
100
AcDbEntity
  8
0
 62
7
100
AcDbSpline
 70
8
 71
3
 72
8
 73
4
 74
0
 40
0
 40
0
 40
0
 40
0
 40
1
 40
1
 40
1
 40
1
 10
384.257812
 20
-2.805172
 30
0.0
 10
382.018072
 20
-2.129010
 30
0.0
 10
379.688452
 20
-1.797712
 30
0.0
 10
377.349607
 20
-1.792965
 30
0.0
  0
LWPOLYLINE
  5
1b5
100
AcDbEntity
  8
0
 62
7
100
AcDbPolyline
 90
1
 70
1
 10
351.810060
 20
-7.205565
 30
0.0
  0
SPLINE
  5
1b6
100
AcDbEntity
  8
0
 62
7
100
AcDbSpline
 70
8
 71
3
 72
8
 73
4
 74
0
 40
0
 40
0
 40
0
 40
0
 40
1
 40
1
 40
1
 40
1
 10
404.323245
 20
-1.797360
 30
0.0
 10
395.469563
 20
-1.212900
 30
0.0
 10
389.175330
 20
-10.072590
 30
0.0
 10
390.249180
 20
-18.358688
 30
0.0
  0
SPLINE
  5
1b7
100
AcDbEntity
  8
0
 62
7
100
AcDbSpline
 70
8
 71
3
 72
8
 73
4
 74
0
 40
0
 40
0
 40
0
 40
0
 40
1
 40
1
 40
1
 40
1
 10
390.249180
 20
-18.358688
 30
0.0
 10
389.748023
 20
-26.365545
 30
0.0
 10
396.671002
 20
-33.873795
 30
0.0
 10
404.882227
 20
-32.850278
 30
0.0
  0
SPLINE
  5
1b8
100
AcDbEntity
  8
0
 62
7
100
AcDbSpline
 70
8
 71
3
 72
8
 73
4
 74
0
 40
0
 40
0
 40
0
 40
0
 40
1
 40
1
 40
1
 40
1
 10
404.882227
 20
-32.850278
 30
0.0
 10
408.118223
 20
-32.627910
 30
0.0
 10
413.832908
 20
-32.453092
 30
0.0
 10
412.372560
 20
-27.820313
 30
0.0
  0
SPLINE
  5
1b9
100
AcDbEntity
  8
0
 62
7
100
AcDbSpline
 70
8
 71
3
 72
8
 73
4
 74
0
 40
0
 40
0
 40
0
 40
0
 40
1
 40
1
 40
1
 40
1
 10
412.372560
 20
-27.820313
 30
0.0
 10
411.291008
 20
-24.172155
 30
0.0
 10
406.248855
 20
-28.947930
 30
0.0
 10
403.308143
 20
-27.570540
 30
0.0
  0
SPLINE
  5
1ba
100
AcDbEntity
  8
0
 62
7
100
AcDbSpline
 70
8
 71
3
 72
8
 73
4
 74
0
 40
0
 40
0
 40
0
 40
0
 40
1
 40
1
 40
1
 40
1
 10
403.308143
 20
-27.570540
 30
0.0
 10
394.665533
 20
-27.003653
 30
0.0
 10
393.819008
 20
-14.328795
 30
0.0
 10
398.554875
 20
-9.066503
 30
0.0
  0
SPLINE
  5
1bb
100
AcDbEntity
  8
0
 62
7
100
AcDbSpline
 70
8
 71
3
 72
8
 73
4
 74
0
 40
0
 40
0
 40
0
 40
0
 40
1
 40
1
 40
1
 40
1
 10
398.554875
 20
-9.066503
 30
0.0
 10
402.116003
 20
-5.796518
 30
0.0
 10
407.405085
 20
-7.176308
 30
0.0
 10
411.498045
 20
-8.570798
 30
0.0
  0
SPLINE
  5
1bc
100
AcDbEntity
  8
0
 62
7
100
AcDbSpline
 70
8
 71
3
 72
8
 73
4
 74
0
 40
0
 40
0
 40
0
 40
0
 40
1
 40
1
 40
1
 40
1
 10
411.498045
 20
-8.570798
 30
0.0
 10
413.560583
 20
-4.810388
 30
0.0
 10
412.663943
 20
-2.292788
 30
0.0
 10
408.218265
 20
-2.134275
 30
0.0
  0
SPLINE
  5
1bd
100
AcDbEntity
  8
0
 62
7
100
AcDbSpline
 70
8
 71
3
 72
8
 73
4
 74
0
 40
0
 40
0
 40
0
 40
0
 40
1
 40
1
 40
1
 40
1
 10
408.218265
 20
-2.134275
 30
0.0
 10
406.929330
 20
-1.907783
 30
0.0
 10
405.631868
 20
-1.788435
 30
0.0
 10
404.323245
 20
-1.797360
 30
0.0
  0
LWPOLYLINE
  5
1be
100
AcDbEntity
  8
0
 62
7
100
AcDbPolyline
 90
1
 70
1
 10
377.349607
 20
-1.792965
 30
0.0
  0
SPLINE
  5
1bf
100
AcDbEntity
  8
0
 62
7
100
AcDbSpline
 70
8
 71
3
 72
8
 73
4
 74
0
 40
0
 40
0
 40
0
 40
0
 40
1
 40
1
 40
1
 40
1
 10
427.823730
 20
-1.797360
 30
0.0
 10
419.160510
 20
-1.289820
 30
0.0
 10
413.500515
 20
-10.187115
 30
0.0
 10
414.461055
 20
-18.126697
 30
0.0
  0
SPLINE
  5
1c0
100
AcDbEntity
  8
0
 62
7
100
AcDbSpline
 70
8
 71
3
 72
8
 73
4
 74
0
 40
0
 40
0
 40
0
 40
0
 40
1
 40
1
 40
1
 40
1
 10
414.461055
 20
-18.126697
 30
0.0
 10
413.983530
 20
-26.198235
 30
0.0
 10
420.987953
 20
-34.302615
 30
0.0
 10
429.429405
 20
-32.745367
 30
0.0
  0
SPLINE
  5
1c1
100
AcDbEntity
  8
0
 62
7
100
AcDbSpline
 70
8
 71
3
 72
8
 73
4
 74
0
 40
0
 40
0
 40
0
 40
0
 40
1
 40
1
 40
1
 40
1
 10
429.429405
 20
-32.745367
 30
0.0
 10
439.267725
 20
-32.314657
 30
0.0
 10
443.109465
 20
-20.698687
 30
0.0
 10
440.832953
 20
-12.439845
 30
0.0
  0
SPLINE
  5
1c2
100
AcDbEntity
  8
0
 62
7
100
AcDbSpline
 70
8
 71
3
 72
8
 73
4
 74
0
 40
0
 40
0
 40
0
 40
0
 40
1
 40
1
 40
1
 40
1
 10
440.832953
 20
-12.439845
 30
0.0
 10
439.782180
 20
-6.167437
 30
0.0
 10
434.236058
 20
-1.490302
 30
0.0
 10
427.823730
 20
-1.797360
 30
0.0
  0
LWPOLYLINE
  5
1c3
100
AcDbEntity
  8
0
 62
7
100
AcDbPolyline
 90
1
 70
1
 10
404.323245
 20
-1.797360
 30
0.0
  0
SPLINE
  5
1c4
100
AcDbEntity
  8
0
 62
7
100
AcDbSpline
 70
8
 71
3
 72
8
 73
4
 74
0
 40
0
 40
0
 40
0
 40
0
 40
1
 40
1
 40
1
 40
1
 10
429.679688
 20
-7.205565
 30
0.0
 10
437.194830
 20
-9.248077
 30
0.0
 10
437.315205
 20
-20.474617
 30
0.0
 10
433.131780
 20
-25.607955
 30
0.0
  0
SPLINE
  5
1c5
100
AcDbEntity
  8
0
 62
7
100
AcDbSpline
 70
8
 71
3
 72
8
 73
4
 74
0
 40
0
 40
0
 40
0
 40
0
 40
1
 40
1
 40
1
 40
1
 10
433.131780
 20
-25.607955
 30
0.0
 10
428.503905
 20
-30.331995
 30
0.0
 10
419.910015
 20
-26.340675
 30
0.0
 10
420.161130
 20
-19.750485
 30
0.0
  0
SPLINE
  5
1c6
100
AcDbEntity
  8
0
 62
7
100
AcDbSpline
 70
8
 71
3
 72
8
 73
4
 74
0
 40
0
 40
0
 40
0
 40
0
 40
1
 40
1
 40
1
 40
1
 10
420.161130
 20
-19.750485
 30
0.0
 10
419.176740
 20
-13.521367
 30
0.0
 10
421.840702
 20
-5.475945
 30
0.0
 10
429.679688
 20
-7.205565
 30
0.0
  0
LWPOLYLINE
  5
1c7
100
AcDbEntity
  8
0
 62
7
100
AcDbPolyline
 90
1
 70
1
 10
427.823730
 20
-1.797360
 30
0.0
  0
SPLINE
  5
1c8
100
AcDbEntity
  8
0
 62
7
100
AcDbSpline
 70
8
 71
3
 72
8
 73
4
 74
0
 40
0
 40
0
 40
0
 40
0
 40
1
 40
1
 40
1
 40
1
 10
458.863770
 20
-1.798830
 30
0.0
 10
455.839605
 20
-0.404077
 30
0.0
 10
450.708682
 20
-6.341377
 30
0.0
 10
450.796875
 20
-2.314455
 30
0.0
  0
SPLINE
  5
1c9
100
AcDbEntity
  8
0
 62
7
100
AcDbSpline
 70
8
 71
3
 72
8
 73
4
 74
0
 40
0
 40
0
 40
0
 40
0
 40
1
 40
1
 40
1
 40
1
 10
450.796875
 20
-2.314455
 30
0.0
 10
444.586125
 20
-0.493350
 30
0.0
 10
445.793865
 20
-6.090742
 30
0.0
 10
445.877933
 20
-10.564455
 30
0.0
  0
SPLINE
  5
1ca
100
AcDbEntity
  8
0
 62
7
100
AcDbSpline
 70
8
 71
3
 72
8
 73
4
 74
0
 40
0
 40
0
 40
0
 40
0
 40
1
 40
1
 40
1
 40
1
 10
445.877933
 20
-10.564455
 30
0.0
 10
445.877933
 20
-21.921390
 30
0.0
 10
445.877933
 20
-33.278317
 30
0.0
 10
445.877933
 20
-44.635252
 30
0.0
  0
SPLINE
  5
1cb
100
AcDbEntity
  8
0
 62
7
100
AcDbSpline
 70
8
 71
3
 72
8
 73
4
 74
0
 40
0
 40
0
 40
0
 40
0
 40
1
 40
1
 40
1
 40
1
 10
445.877933
 20
-44.635252
 30
0.0
 10
451.878390
 20
-46.345680
 30
0.0
 10
451.817265
 20
-41.994510
 30
0.0
 10
451.343265
 20
-37.230465
 30
0.0
  0
SPLINE
  5
1cc
100
AcDbEntity
  8
0
 62
7
100
AcDbSpline
 70
8
 71
3
 72
8
 73
4
 74
0
 40
0
 40
0
 40
0
 40
0
 40
1
 40
1
 40
1
 40
1
 10
451.343265
 20
-37.230465
 30
0.0
 10
451.858748
 20
-35.710987
 30
0.0
 10
450.473715
 20
-30.525112
 30
0.0
 10
451.923307
 20
-30.894577
 30
0.0
  0
SPLINE
  5
1cd
100
AcDbEntity
  8
0
 62
7
100
AcDbSpline
 70
8
 71
3
 72
8
 73
4
 74
0
 40
0
 40
0
 40
0
 40
0
 40
1
 40
1
 40
1
 40
1
 10
451.923307
 20
-30.894577
 30
0.0
 10
459.161677
 20
-35.918730
 30
0.0
 10
470.469435
 20
-31.124280
 30
0.0
 10
471.251947
 20
-22.115813
 30
0.0
  0
SPLINE
  5
1ce
100
AcDbEntity
  8
0
 62
7
100
AcDbSpline
 70
8
 71
3
 72
8
 73
4
 74
0
 40
0
 40
0
 40
0
 40
0
 40
1
 40
1
 40
1
 40
1
 10
471.251947
 20
-22.115813
 30
0.0
 10
473.058742
 20
-14.281125
 30
0.0
 10
470.561535
 20
-2.760548
 30
0.0
 10
460.968675
 20
-1.957575
 30
0.0
  0
SPLINE
  5
1cf
100
AcDbEntity
  8
0
 62
7
100
AcDbSpline
 70
8
 71
3
 72
8
 73
4
 74
0
 40
0
 40
0
 40
0
 40
0
 40
1
 40
1
 40
1
 40
1
 10
460.968675
 20
-1.957575
 30
0.0
 10
460.268055
 20
-1.928400
 30
0.0
 10
459.564202
 20
-1.782533
 30
0.0
 10
458.863770
 20
-1.798830
 30
0.0
  0
LWPOLYLINE
  5
1d0
100
AcDbEntity
  8
0
 62
7
100
AcDbPolyline
 90
1
 70
1
 10
429.679688
 20
-7.205565
 30
0.0
  0
SPLINE
  5
1d1
100
AcDbEntity
  8
0
 62
7
100
AcDbSpline
 70
8
 71
3
 72
8
 73
4
 74
0
 40
0
 40
0
 40
0
 40
0
 40
1
 40
1
 40
1
 40
1
 10
462.114255
 20
-7.677247
 30
0.0
 10
467.303550
 20
-11.666947
 30
0.0
 10
467.288498
 20
-20.686583
 30
0.0
 10
463.625887
 20
-25.746922
 30
0.0
  0
SPLINE
  5
1d2
100
AcDbEntity
  8
0
 62
7
100
AcDbSpline
 70
8
 71
3
 72
8
 73
4
 74
0
 40
0
 40
0
 40
0
 40
0
 40
1
 40
1
 40
1
 40
1
 10
463.625887
 20
-25.746922
 30
0.0
 10
459.295515
 20
-30.207652
 30
0.0
 10
450.775125
 20
-26.706787
 30
0.0
 10
451.470705
 20
-20.208982
 30
0.0
  0
SPLINE
  5
1d3
100
AcDbEntity
  8
0
 62
7
100
AcDbSpline
 70
8
 71
3
 72
8
 73
4
 74
0
 40
0
 40
0
 40
0
 40
0
 40
1
 40
1
 40
1
 40
1
 10
451.470705
 20
-20.208982
 30
0.0
 10
450.833955
 20
-14.961720
 30
0.0
 10
451.403280
 20
-6.664080
 30
0.0
 10
458.543287
 20
-7.070205
 30
0.0
  0
SPLINE
  5
1d4
100
AcDbEntity
  8
0
 62
7
100
AcDbSpline
 70
8
 71
3
 72
8
 73
4
 74
0
 40
0
 40
0
 40
0
 40
0
 40
1
 40
1
 40
1
 40
1
 10
458.543287
 20
-7.070205
 30
0.0
 10
459.734947
 20
-7.061205
 30
0.0
 10
460.929855
 20
-7.517692
 30
0.0
 10
462.114255
 20
-7.677247
 30
0.0
  0
LWPOLYLINE
  5
1d5
100
AcDbEntity
  8
0
 62
7
100
AcDbPolyline
 90
1
 70
1
 10
458.863770
 20
-1.798830
 30
0.0
  0
SPLINE
  5
1d6
100
AcDbEntity
  8
0
 62
7
100
AcDbSpline
 70
8
 71
3
 72
8
 73
4
 74
0
 40
0
 40
0
 40
0
 40
0
 40
1
 40
1
 40
1
 40
1
 10
487.803225
 20
-1.798830
 30
0.0
 10
478.162785
 20
-1.483605
 30
0.0
 10
473.242395
 20
-12.295897
 30
0.0
 10
474.869370
 20
-20.653485
 30
0.0
  0
SPLINE
  5
1d7
100
AcDbEntity
  8
0
 62
7
100
AcDbSpline
 70
8
 71
3
 72
8
 73
4
 74
0
 40
0
 40
0
 40
0
 40
0
 40
1
 40
1
 40
1
 40
1
 10
474.869370
 20
-20.653485
 30
0.0
 10
475.297980
 20
-28.713352
 30
0.0
 10
483.372600
 20
-34.189320
 30
0.0
 10
491.069827
 20
-32.783205
 30
0.0
  0
SPLINE
  5
1d8
100
AcDbEntity
  8
0
 62
7
100
AcDbSpline
 70
8
 71
3
 72
8
 73
4
 74
0
 40
0
 40
0
 40
0
 40
0
 40
1
 40
1
 40
1
 40
1
 10
491.069827
 20
-32.783205
 30
0.0
 10
494.030573
 20
-32.175713
 30
0.0
 10
499.691873
 20
-32.170163
 30
0.0
 10
498.684082
 20
-27.982912
 30
0.0
  0
SPLINE
  5
1d9
100
AcDbEntity
  8
0
 62
7
100
AcDbSpline
 70
8
 71
3
 72
8
 73
4
 74
0
 40
0
 40
0
 40
0
 40
0
 40
1
 40
1
 40
1
 40
1
 10
498.684082
 20
-27.982912
 30
0.0
 10
498.536565
 20
-23.418128
 30
0.0
 10
493.405335
 20
-28.166603
 30
0.0
 10
490.699215
 20
-27.565433
 30
0.0
  0
SPLINE
  5
1da
100
AcDbEntity
  8
0
 62
7
100
AcDbSpline
 70
8
 71
3
 72
8
 73
4
 74
0
 40
0
 40
0
 40
0
 40
0
 40
1
 40
1
 40
1
 40
1
 10
490.699215
 20
-27.565433
 30
0.0
 10
485.404223
 20
-28.745820
 30
0.0
 10
480.072705
 20
-24.759443
 30
0.0
 10
480.364748
 20
-19.185060
 30
0.0
  0
SPLINE
  5
1db
100
AcDbEntity
  8
0
 62
7
100
AcDbSpline
 70
8
 71
3
 72
8
 73
4
 74
0
 40
0
 40
0
 40
0
 40
0
 40
1
 40
1
 40
1
 40
1
 10
480.364748
 20
-19.185060
 30
0.0
 10
486.828128
 20
-19.185060
 30
0.0
 10
493.291508
 20
-19.185060
 30
0.0
 10
499.754880
 20
-19.185060
 30
0.0
  0
SPLINE
  5
1dc
100
AcDbEntity
  8
0
 62
7
100
AcDbSpline
 70
8
 71
3
 72
8
 73
4
 74
0
 40
0
 40
0
 40
0
 40
0
 40
1
 40
1
 40
1
 40
1
 10
499.754880
 20
-19.185060
 30
0.0
 10
500.611088
 20
-12.121388
 30
0.0
 10
497.936723
 20
-2.637420
 30
0.0
 10
489.600803
 20
-1.936770
 30
0.0
  0
SPLINE
  5
1dd
100
AcDbEntity
  8
0
 62
7
100
AcDbSpline
 70
8
 71
3
 72
8
 73
4
 74
0
 40
0
 40
0
 40
0
 40
0
 40
1
 40
1
 40
1
 40
1
 10
489.600803
 20
-1.936770
 30
0.0
 10
489.002018
 20
-1.922820
 30
0.0
 10
488.402160
 20
-1.764180
 30
0.0
 10
487.803225
 20
-1.798830
 30
0.0
  0
LWPOLYLINE
  5
1de
100
AcDbEntity
  8
0
 62
7
100
AcDbPolyline
 90
1
 70
1
 10
462.114255
 20
-7.677247
 30
0.0
  0
SPLINE
  5
1df
100
AcDbEntity
  8
0
 62
7
100
AcDbSpline
 70
8
 71
3
 72
8
 73
4
 74
0
 40
0
 40
0
 40
0
 40
0
 40
1
 40
1
 40
1
 40
1
 10
489.338378
 20
-7.125000
 30
0.0
 10
492.593062
 20
-7.177050
 30
0.0
 10
496.623833
 20
-15.224250
 30
0.0
 10
491.456543
 20
-13.993650
 30
0.0
  0
SPLINE
  5
1e0
100
AcDbEntity
  8
0
 62
7
100
AcDbSpline
 70
8
 71
3
 72
8
 73
4
 74
0
 40
0
 40
0
 40
0
 40
0
 40
1
 40
1
 40
1
 40
1
 10
491.456543
 20
-13.993650
 30
0.0
 10
488.549003
 20
-12.945907
 30
0.0
 10
480.024195
 20
-16.235542
 30
0.0
 10
481.108935
 20
-12.076223
 30
0.0
  0
SPLINE
  5
1e1
100
AcDbEntity
  8
0
 62
7
100
AcDbSpline
 70
8
 71
3
 72
8
 73
4
 74
0
 40
0
 40
0
 40
0
 40
0
 40
1
 40
1
 40
1
 40
1
 10
481.108935
 20
-12.076223
 30
0.0
 10
482.041350
 20
-8.501108
 30
0.0
 10
485.762055
 20
-6.354727
 30
0.0
 10
489.338377
 20
-7.125000
 30
0.0
  0
LWPOLYLINE
  5
1e2
100
AcDbEntity
  8
0
 62
7
100
AcDbPolyline
 90
1
 70
1
 10
487.803225
 20
-1.798830
 30
0.0
  0
LWPOLYLINE
  5
1e3
100
AcDbEntity
  8
0
 62
7
100
AcDbPolyline
 90
1
 70
1
 10
489.338377
 20
-7.125000
 30
0.0
  0
ENDSEC
  0
SECTION
  2
OBJECTS
  0
DICTIONARY
  5
C
330
0
100
AcDbDictionary
  3
ACAD_GROUP
350
D
  3
ACAD_MLINESTYLE
350
17
  0
DICTIONARY
  5
D
330
C
100
AcDbDictionary
  0
DICTIONARY
  5
1A
330
C
100
AcDbDictionary
  0
DICTIONARY
  5
17
330
C
100
AcDbDictionary
  3
STANDARD
350
18
  0
DICTIONARY
  5
19
330
C
100
AcDbDictionary
  0
ENDSEC
  0
EOF
