  0
SECTION
  2
HEADER
  9
$ACADVER
  1
AC1014
  9
$HANDSEED
  5
FFFF
  9
$MEASUREMENT
 70
     1
  0
ENDSEC
  0
SECTION
  2
TABLES
  0
TABLE
  2
VPORT
  5
8
330
0
100
AcDbSymbolTable
 70
     4
  0
VPORT
  5
2E
330
8
100
AcDbSymbolTableRecord
100
AcDbViewportTableRecord
  2
*ACTIVE
 70
     0
 10
0.0
 20
0.0
 11
1.0
 21
1.0
 12
210.0
 22
148.5
 13
0.0
 23
0.0
 14
10.0
 24
10.0
 15
10.0
 25
10.0
 16
0.0
 26
0.0
 36
1.0
 17
0.0
 27
0.0
 37
0.0
 40
341.0
 41
1.24
 42
50.0
 43
0.0
 44
0.0
 50
0.0
 51
0.0
 71
     0
 72
   100
 73
     1
 74
     3
 75
     0
 76
     0
 77
     0
 78
     0
  0
ENDTAB
  0
TABLE
  2
LTYPE
  5
5
330
0
100
AcDbSymbolTable
 70
     1
  0
LTYPE
  5
14
330
5
100
AcDbSymbolTableRecord
100
AcDbLinetypeTableRecord
  2
BYBLOCK
 70
     0
  3

 72
    65
 73
     0
 40
0.0
  0
LTYPE
  5
15
330
5
100
AcDbSymbolTableRecord
100
AcDbLinetypeTableRecord
  2
BYLAYER
 70
     0
  3

 72
    65
 73
     0
 40
0.0
  0
LTYPE
  5
16
330
5
100
AcDbSymbolTableRecord
100
AcDbLinetypeTableRecord
  2
CONTINUOUS
 70
     0
  3
Solid line
 72
    65
 73
     0
 40
0.0
  0
ENDTAB
  0
TABLE
  2
LAYER
  5
2
100
AcDbSymbolTable
 70
1
  0
LAYER
  5
50
100
AcDbSymbolTableRecord
100
AcDbLayerTableRecord
  2
0
 70
0
  6
CONTINUOUS
  0
ENDTAB
  0
TABLE
  2
STYLE
  5
3
330
0
100
AcDbSymbolTable
 70
     1
  0
STYLE
  5
11
330
3
100
AcDbSymbolTableRecord
100
AcDbTextStyleTableRecord
  2
STANDARD
 70
     0
 40
0.0
 41
1.0
 50
0.0
 71
     0
 42
2.5
  3
txt
  4

  0
ENDTAB
  0
TABLE
  2
VIEW
  5
6
330
0
100
AcDbSymbolTable
 70
     0
  0
ENDTAB
  0
TABLE
  2
UCS
  5
7
330
0
100
AcDbSymbolTable
 70
     0
  0
ENDTAB
  0
TABLE
  2
APPID
  5
9
330
0
100
AcDbSymbolTable
 70
     2
  0
APPID
  5
12
330
9
100
AcDbSymbolTableRecord
100
AcDbRegAppTableRecord
  2
ACAD
 70
     0
  0
ENDTAB
  0
TABLE
  2
DIMSTYLE
  5
A
330
0
100
AcDbSymbolTable
 70
     1
  0
DIMSTYLE
105
27
330
A
100
AcDbSymbolTableRecord
100
AcDbDimStyleTableRecord
  2
ISO-25
 70
     0
  3

  4

  5

  6

  7

 40
1.0
 41
2.5
 42
0.625
 43
3.75
 44
1.25
 45
0.0
 46
0.0
 47
0.0
 48
0.0
140
2.5
141
2.5
142
0.0
143
0.03937007874016
144
1.0
145
0.0
146
1.0
147
0.625
 71
     0
 72
     0
 73
     0
 74
     0
 75
     0
 76
     0
 77
     1
 78
     8
170
     0
171
     3
172
     1
173
     0
174
     0
175
     0
176
     0
177
     0
178
     0
270
     2
271
     2
272
     2
273
     2
274
     3
340
11
275
     0
280
     0
281
     0
282
     0
283
     0
284
     8
285
     0
286
     0
287
     3
288
     0
  0
ENDTAB
  0
TABLE
  2
BLOCK_RECORD
  5
1
330
0
100
AcDbSymbolTable
 70
     1
  0
BLOCK_RECORD
  5
1F
330
1
100
AcDbSymbolTableRecord
100
AcDbBlockTableRecord
  2
*MODEL_SPACE
  0
BLOCK_RECORD
  5
1B
330
1
100
AcDbSymbolTableRecord
100
AcDbBlockTableRecord
  2
*PAPER_SPACE
  0
ENDTAB
  0
ENDSEC
  0
SECTION
  2
BLOCKS
  0
BLOCK
  5
20
330
1F
100
AcDbEntity
  8
0
100
AcDbBlockBegin
  2
*MODEL_SPACE
 70
     0
 10
0.0
 20
0.0
 30
0.0
  3
*MODEL_SPACE
  1

  0
ENDBLK
  5
21
330
1F
100
AcDbEntity
  8
0
100
AcDbBlockEnd
  0
BLOCK
  5
1C
330
1B
100
AcDbEntity
 67
     1
  8
0
100
AcDbBlockBegin
  2
*PAPER_SPACE
  1

  0
ENDBLK
  5
1D
330
1B
100
AcDbEntity
 67
     1
  8
0
100
AcDbBlockEnd
  0
ENDSEC
  0
SECTION
  2
ENTITIES
  0
LWPOLYLINE
  5
100
100
AcDbEntity
  8
0
 62
7
100
AcDbPolyline
 90
68
 70
1
 10
58.933372
 20
97.689926
 30
0.0
 10
61.995402
 20
105.287228
 30
0.0
 10
66.170808
 20
112.233700
 30
0.0
 10
71.347954
 20
118.417721
 30
0.0
 10
77.415202
 20
123.727671
 30
0.0
 10
84.260910
 20
128.051933
 30
0.0
 10
91.773450
 20
131.278887
 30
0.0
 10
99.841177
 20
133.296913
 30
0.0
 10
108.352455
 20
133.994393
 30
0.0
 10
116.863740
 20
133.296913
 30
0.0
 10
124.931467
 20
131.278887
 30
0.0
 10
132.444022
 20
128.051933
 30
0.0
 10
139.289753
 20
123.727671
 30
0.0
 10
145.357035
 20
118.417721
 30
0.0
 10
150.534240
 20
112.233700
 30
0.0
 10
154.709722
 20
105.287228
 30
0.0
 10
157.771852
 20
97.689926
 30
0.0
 10
157.771852
 20
97.689926
 30
0.0
 10
157.772167
 20
97.688651
 30
0.0
 10
158.251778
 20
96.062012
 30
0.0
 10
161.998620
 20
89.083148
 30
0.0
 10
167.306880
 20
84.536362
 30
0.0
 10
173.541315
 20
81.958844
 30
0.0
 10
180.066697
 20
80.887784
 30
0.0
 10
186.247785
 20
80.860372
 30
0.0
 10
191.449335
 20
81.413794
 30
0.0
 10
195.036105
 20
82.085243
 30
0.0
 10
196.372860
 20
82.411905
 30
0.0
 10
216.704917
 20
29.891340
 30
0.0
 10
139.491105
 20
-0.000007
 30
0.0
 10
126.437640
 20
33.718290
 30
0.0
 10
126.382665
 20
33.697815
 30
0.0
 10
119.157158
 20
52.525845
 30
0.0
 10
120.777277
 20
53.202578
 30
0.0
 10
127.024935
 20
57.008107
 30
0.0
 10
133.334917
 20
63.817367
 30
0.0
 10
137.287350
 20
72.223077
 30
0.0
 10
137.931255
 20
85.218571
 30
0.0
 10
136.618073
 20
91.096743
 30
0.0
 10
132.206670
 20
99.014646
 30
0.0
 10
125.709930
 20
105.255951
 30
0.0
 10
117.600848
 20
109.347625
 30
0.0
 10
108.352425
 20
110.816635
 30
0.0
 10
99.104018
 20
109.347625
 30
0.0
 10
90.994965
 20
105.255951
 30
0.0
 10
84.498315
 20
99.014646
 30
0.0
 10
80.087100
 20
91.096743
 30
0.0
 10
78.773798
 20
85.218919
 30
0.0
 10
79.417815
 20
72.223077
 30
0.0
 10
83.370135
 20
63.817367
 30
0.0
 10
89.680230
 20
57.008108
 30
0.0
 10
95.927888
 20
53.202578
 30
0.0
 10
97.548008
 20
52.525845
 30
0.0
 10
97.524383
 20
52.464420
 30
0.0
 10
90.322163
 20
33.697853
 30
0.0
 10
90.267188
 20
33.718328
 30
0.0
 10
77.214030
 20
0.000030
 30
0.0
 10
0.000000
 20
29.891370
 30
0.0
 10
20.332054
 20
82.411938
 30
0.0
 10
21.668809
 20
82.085275
 30
0.0
 10
25.255580
 20
81.413827
 30
0.0
 10
30.457129
 20
80.860405
 30
0.0
 10
36.638215
 20
80.887817
 30
0.0
 10
43.163599
 20
81.958877
 30
0.0
 10
49.398041
 20
84.536395
 30
0.0
 10
54.706301
 20
89.083180
 30
0.0
 10
58.453141
 20
96.062044
 30
0.0
 10
58.933061
 20
97.688683
 30
0.0
  0
ENDSEC
  0
SECTION
  2
OBJECTS
  0
DICTIONARY
  5
C
330
0
100
AcDbDictionary
  3
ACAD_GROUP
350
D
  3
ACAD_MLINESTYLE
350
17
  0
DICTIONARY
  5
D
330
C
100
AcDbDictionary
  0
DICTIONARY
  5
1A
330
C
100
AcDbDictionary
  0
DICTIONARY
  5
17
330
C
100
AcDbDictionary
  3
STANDARD
350
18
  0
DICTIONARY
  5
19
330
C
100
AcDbDictionary
  0
ENDSEC
  0
EOF
