  0
SECTION
  2
HEADER
  9
$ACADVER
  1
AC1014
  9
$HANDSEED
  5
FFFF
  9
$MEASUREMENT
 70
     1
  0
ENDSEC
  0
SECTION
  2
TABLES
  0
TABLE
  2
VPORT
  5
8
330
0
100
AcDbSymbolTable
 70
     4
  0
VPORT
  5
2E
330
8
100
AcDbSymbolTableRecord
100
AcDbViewportTableRecord
  2
*ACTIVE
 70
     0
 10
0.0
 20
0.0
 11
1.0
 21
1.0
 12
210.0
 22
148.5
 13
0.0
 23
0.0
 14
10.0
 24
10.0
 15
10.0
 25
10.0
 16
0.0
 26
0.0
 36
1.0
 17
0.0
 27
0.0
 37
0.0
 40
341.0
 41
1.24
 42
50.0
 43
0.0
 44
0.0
 50
0.0
 51
0.0
 71
     0
 72
   100
 73
     1
 74
     3
 75
     0
 76
     0
 77
     0
 78
     0
  0
ENDTAB
  0
TABLE
  2
LTYPE
  5
5
330
0
100
AcDbSymbolTable
 70
     1
  0
LTYPE
  5
14
330
5
100
AcDbSymbolTableRecord
100
AcDbLinetypeTableRecord
  2
BYBLOCK
 70
     0
  3

 72
    65
 73
     0
 40
0.0
  0
LTYPE
  5
15
330
5
100
AcDbSymbolTableRecord
100
AcDbLinetypeTableRecord
  2
BYLAYER
 70
     0
  3

 72
    65
 73
     0
 40
0.0
  0
LTYPE
  5
16
330
5
100
AcDbSymbolTableRecord
100
AcDbLinetypeTableRecord
  2
CONTINUOUS
 70
     0
  3
Solid line
 72
    65
 73
     0
 40
0.0
  0
ENDTAB
  0
TABLE
  2
LAYER
  5
2
100
AcDbSymbolTable
 70
1
  0
LAYER
  5
50
100
AcDbSymbolTableRecord
100
AcDbLayerTableRecord
  2
0
 70
0
  6
CONTINUOUS
  0
ENDTAB
  0
TABLE
  2
STYLE
  5
3
330
0
100
AcDbSymbolTable
 70
     1
  0
STYLE
  5
11
330
3
100
AcDbSymbolTableRecord
100
AcDbTextStyleTableRecord
  2
STANDARD
 70
     0
 40
0.0
 41
1.0
 50
0.0
 71
     0
 42
2.5
  3
txt
  4

  0
ENDTAB
  0
TABLE
  2
VIEW
  5
6
330
0
100
AcDbSymbolTable
 70
     0
  0
ENDTAB
  0
TABLE
  2
UCS
  5
7
330
0
100
AcDbSymbolTable
 70
     0
  0
ENDTAB
  0
TABLE
  2
APPID
  5
9
330
0
100
AcDbSymbolTable
 70
     2
  0
APPID
  5
12
330
9
100
AcDbSymbolTableRecord
100
AcDbRegAppTableRecord
  2
ACAD
 70
     0
  0
ENDTAB
  0
TABLE
  2
DIMSTYLE
  5
A
330
0
100
AcDbSymbolTable
 70
     1
  0
DIMSTYLE
105
27
330
A
100
AcDbSymbolTableRecord
100
AcDbDimStyleTableRecord
  2
ISO-25
 70
     0
  3

  4

  5

  6

  7

 40
1.0
 41
2.5
 42
0.625
 43
3.75
 44
1.25
 45
0.0
 46
0.0
 47
0.0
 48
0.0
140
2.5
141
2.5
142
0.0
143
0.03937007874016
144
1.0
145
0.0
146
1.0
147
0.625
 71
     0
 72
     0
 73
     0
 74
     0
 75
     0
 76
     0
 77
     1
 78
     8
170
     0
171
     3
172
     1
173
     0
174
     0
175
     0
176
     0
177
     0
178
     0
270
     2
271
     2
272
     2
273
     2
274
     3
340
11
275
     0
280
     0
281
     0
282
     0
283
     0
284
     8
285
     0
286
     0
287
     3
288
     0
  0
ENDTAB
  0
TABLE
  2
BLOCK_RECORD
  5
1
330
0
100
AcDbSymbolTable
 70
     1
  0
BLOCK_RECORD
  5
1F
330
1
100
AcDbSymbolTableRecord
100
AcDbBlockTableRecord
  2
*MODEL_SPACE
  0
BLOCK_RECORD
  5
1B
330
1
100
AcDbSymbolTableRecord
100
AcDbBlockTableRecord
  2
*PAPER_SPACE
  0
ENDTAB
  0
ENDSEC
  0
SECTION
  2
BLOCKS
  0
BLOCK
  5
20
330
1F
100
AcDbEntity
  8
0
100
AcDbBlockBegin
  2
*MODEL_SPACE
 70
     0
 10
0.0
 20
0.0
 30
0.0
  3
*MODEL_SPACE
  1

  0
ENDBLK
  5
21
330
1F
100
AcDbEntity
  8
0
100
AcDbBlockEnd
  0
BLOCK
  5
1C
330
1B
100
AcDbEntity
 67
     1
  8
0
100
AcDbBlockBegin
  2
*PAPER_SPACE
  1

  0
ENDBLK
  5
1D
330
1B
100
AcDbEntity
 67
     1
  8
0
100
AcDbBlockEnd
  0
ENDSEC
  0
SECTION
  2
ENTITIES
  0
LWPOLYLINE
  5
100
100
AcDbEntity
  8
0
 62
7
100
AcDbPolyline
 90
285
 70
0
 10
106.528800
 20
50.326543
 30
0.0
 10
103.241000
 20
50.937943
 30
0.0
 10
99.953200
 20
51.549343
 30
0.0
 10
96.665400
 20
52.160743
 30
0.0
 10
93.377600
 20
52.772143
 30
0.0
 10
93.136160
 20
52.858656
 30
0.0
 10
92.908904
 20
53.013643
 30
0.0
 10
92.721384
 20
53.215281
 30
0.0
 10
92.599200
 20
53.441743
 30
0.0
 10
91.591400
 20
55.792943
 30
0.0
 10
90.583600
 20
58.144143
 30
0.0
 10
89.575800
 20
60.495343
 30
0.0
 10
88.568000
 20
62.846543
 30
0.0
 10
88.488480
 20
63.089906
 30
0.0
 10
88.474000
 20
63.362443
 30
0.0
 10
88.522560
 20
63.631231
 30
0.0
 10
88.632000
 20
63.863343
 30
0.0
 10
90.547600
 20
66.655343
 30
0.0
 10
92.463200
 20
69.447343
 30
0.0
 10
94.378800
 20
72.239343
 30
0.0
 10
96.294400
 20
75.031343
 30
0.0
 10
96.391072
 20
75.254231
 30
0.0
 10
96.407792
 20
75.499843
 30
0.0
 10
96.346832
 20
75.738406
 30
0.0
 10
96.210408
 20
75.940143
 30
0.0
 10
93.817800
 20
78.332743
 30
0.0
 10
91.425200
 20
80.725343
 30
0.0
 10
89.032600
 20
83.117943
 30
0.0
 10
86.640000
 20
85.510543
 30
0.0
 10
86.438384
 20
85.647194
 30
0.0
 10
86.200096
 20
85.708546
 30
0.0
 10
85.954760
 20
85.691898
 30
0.0
 10
85.732000
 20
85.594547
 30
0.0
 10
82.891000
 20
83.644947
 30
0.0
 10
80.050000
 20
81.695347
 30
0.0
 10
77.209000
 20
79.745747
 30
0.0
 10
74.368000
 20
77.796147
 30
0.0
 10
74.136038
 20
77.686435
 30
0.0
 10
73.865900
 20
77.636051
 30
0.0
 10
73.591413
 20
77.647315
 30
0.0
 10
73.346400
 20
77.722543
 30
0.0
 10
71.067200
 20
78.655543
 30
0.0
 10
68.788000
 20
79.588543
 30
0.0
 10
66.508800
 20
80.521543
 30
0.0
 10
64.229600
 20
81.454543
 30
0.0
 10
64.002538
 20
81.572881
 30
0.0
 10
63.800300
 20
81.757443
 30
0.0
 10
63.644713
 20
81.982956
 30
0.0
 10
63.557600
 20
82.224143
 30
0.0
 10
62.924600
 20
85.624743
 30
0.0
 10
62.291600
 20
89.025343
 30
0.0
 10
61.658600
 20
92.425943
 30
0.0
 10
61.025600
 20
95.826543
 30
0.0
 10
60.936900
 20
96.053006
 30
0.0
 10
60.775000
 20
96.238443
 30
0.0
 10
60.563000
 20
96.363731
 30
0.0
 10
60.324000
 20
96.409743
 30
0.0
 10
56.940000
 20
96.409743
 30
0.0
 10
53.556000
 20
96.409743
 30
0.0
 10
50.172000
 20
96.409743
 30
0.0
 10
46.788000
 20
96.409743
 30
0.0
 10
46.549462
 20
96.363731
 30
0.0
 10
46.337700
 20
96.238443
 30
0.0
 10
46.175887
 20
96.053006
 30
0.0
 10
46.087200
 20
95.826543
 30
0.0
 10
45.454400
 20
92.425943
 30
0.0
 10
44.821600
 20
89.025343
 30
0.0
 10
44.188800
 20
85.624743
 30
0.0
 10
43.556000
 20
82.224143
 30
0.0
 10
43.469000
 20
81.982956
 30
0.0
 10
43.313600
 20
81.757443
 30
0.0
 10
43.111400
 20
81.572881
 30
0.0
 10
42.884000
 20
81.454543
 30
0.0
 10
40.604600
 20
80.521543
 30
0.0
 10
38.325200
 20
79.588543
 30
0.0
 10
36.045800
 20
78.655543
 30
0.0
 10
33.766400
 20
77.722543
 30
0.0
 10
33.520938
 20
77.647303
 30
0.0
 10
33.246300
 20
77.636039
 30
0.0
 10
32.976313
 20
77.686423
 30
0.0
 10
32.744800
 20
77.796143
 30
0.0
 10
29.904000
 20
79.745743
 30
0.0
 10
27.063200
 20
81.695343
 30
0.0
 10
24.222400
 20
83.644943
 30
0.0
 10
21.381600
 20
85.594543
 30
0.0
 10
21.158262
 20
85.691894
 30
0.0
 10
20.912500
 20
85.708542
 30
0.0
 10
20.674087
 20
85.647190
 30
0.0
 10
20.472800
 20
85.510543
 30
0.0
 10
18.080000
 20
83.117943
 30
0.0
 10
15.687200
 20
80.725343
 30
0.0
 10
13.294400
 20
78.332743
 30
0.0
 10
10.901600
 20
75.940143
 30
0.0
 10
10.765287
 20
75.738406
 30
0.0
 10
10.703903
 20
75.499843
 30
0.0
 10
10.720367
 20
75.254231
 30
0.0
 10
10.817605
 20
75.031343
 30
0.0
 10
12.733405
 20
72.239343
 30
0.0
 10
14.649205
 20
69.447343
 30
0.0
 10
16.565005
 20
66.655343
 30
0.0
 10
18.480805
 20
63.863343
 30
0.0
 10
18.589342
 20
63.631231
 30
0.0
 10
18.637502
 20
63.362443
 30
0.0
 10
18.623118
 20
63.089906
 30
0.0
 10
18.544000
 20
62.846543
 30
0.0
 10
17.536000
 20
60.495343
 30
0.0
 10
16.528000
 20
58.144143
 30
0.0
 10
15.520000
 20
55.792943
 30
0.0
 10
14.512000
 20
53.441743
 30
0.0
 10
14.390375
 20
53.215281
 30
0.0
 10
14.203200
 20
53.013643
 30
0.0
 10
13.975825
 20
52.858656
 30
0.0
 10
13.733600
 20
52.772143
 30
0.0
 10
10.446000
 20
52.160743
 30
0.0
 10
7.158400
 20
51.549343
 30
0.0
 10
3.870800
 20
50.937943
 30
0.0
 10
0.583200
 20
50.326543
 30
0.0
 10
0.356400
 20
50.237043
 30
0.0
 10
0.171000
 20
50.074943
 30
0.0
 10
0.045900
 20
49.863043
 30
0.0
 10
0.000000
 20
49.624143
 30
0.0
 10
0.000200
 20
46.240343
 30
0.0
 10
0.000400
 20
42.856543
 30
0.0
 10
0.000600
 20
39.472743
 30
0.0
 10
0.000800
 20
36.088943
 30
0.0
 10
0.046813
 20
35.849706
 30
0.0
 10
0.172100
 20
35.637243
 30
0.0
 10
0.357537
 20
35.475031
 30
0.0
 10
0.584000
 20
35.386543
 30
0.0
 10
3.791000
 20
34.789743
 30
0.0
 10
6.998000
 20
34.192943
 30
0.0
 10
10.205000
 20
33.596143
 30
0.0
 10
13.412000
 20
32.999343
 30
0.0
 10
13.652613
 20
32.913094
 30
0.0
 10
13.876500
 20
32.756943
 30
0.0
 10
14.058538
 20
32.553394
 30
0.0
 10
14.173600
 20
32.324943
 30
0.0
 10
15.174800
 20
29.823943
 30
0.0
 10
16.176000
 20
27.322943
 30
0.0
 10
17.177200
 20
24.821943
 30
0.0
 10
18.178400
 20
22.320943
 30
0.0
 10
18.253040
 20
22.075256
 30
0.0
 10
18.263704
 20
21.800843
 30
0.0
 10
18.212720
 20
21.531081
 30
0.0
 10
18.102400
 20
21.299343
 30
0.0
 10
16.280800
 20
18.644743
 30
0.0
 10
14.459200
 20
15.990143
 30
0.0
 10
12.637600
 20
13.335543
 30
0.0
 10
10.816000
 20
10.680943
 30
0.0
 10
10.719100
 20
10.457927
 30
0.0
 10
10.702596
 20
10.212047
 30
0.0
 10
10.763796
 20
9.973207
 30
0.0
 10
10.899996
 20
9.771343
 30
0.0
 10
13.292996
 20
7.378743
 30
0.0
 10
15.685996
 20
4.986143
 30
0.0
 10
18.078996
 20
2.593543
 30
0.0
 10
20.471996
 20
0.200943
 30
0.0
 10
20.673283
 20
0.065191
 30
0.0
 10
20.911696
 20
0.004151
 30
0.0
 10
21.157458
 20
0.020471
 30
0.0
 10
21.380796
 20
0.116919
 30
0.0
 10
23.988396
 20
1.906719
 30
0.0
 10
26.595996
 20
3.696519
 30
0.0
 10
29.203596
 20
5.486319
 30
0.0
 10
31.811196
 20
7.276119
 30
0.0
 10
32.041358
 20
7.382183
 30
0.0
 10
32.306696
 20
7.423783
 30
0.0
 10
32.574283
 20
7.400183
 30
0.0
 10
32.811196
 20
7.310495
 30
0.0
 10
33.961196
 20
6.696495
 30
0.0
 10
35.111196
 20
6.082495
 30
0.0
 10
36.261196
 20
5.468495
 30
0.0
 10
37.411196
 20
4.854495
 30
0.0
 10
37.634621
 20
4.792815
 30
0.0
 10
37.851596
 20
4.824815
 30
0.0
 10
38.037371
 20
4.941247
 30
0.0
 10
38.167196
 20
5.132911
 30
0.0
 10
40.538396
 20
10.862311
 30
0.0
 10
42.909596
 20
16.591711
 30
0.0
 10
45.280796
 20
22.321111
 30
0.0
 10
47.651996
 20
28.050511
 30
0.0
 10
47.700636
 20
28.287661
 30
0.0
 10
47.664300
 20
28.528111
 30
0.0
 10
47.552213
 20
28.743961
 30
0.0
 10
47.373600
 20
28.907343
 30
0.0
 10
47.085800
 20
29.083543
 30
0.0
 10
46.798000
 20
29.259743
 30
0.0
 10
46.510200
 20
29.435943
 30
0.0
 10
46.222400
 20
29.612143
 30
0.0
 10
46.050713
 20
29.725143
 30
0.0
 10
45.863500
 20
29.862743
 30
0.0
 10
45.673738
 20
30.014443
 30
0.0
 10
45.494400
 20
30.169743
 30
0.0
 10
42.663062
 20
32.516743
 30
0.0
 10
40.483100
 20
35.484743
 30
0.0
 10
39.081787
 20
38.947443
 30
0.0
 10
38.586400
 20
42.778543
 30
0.0
 10
39.762813
 20
48.605143
 30
0.0
 10
42.970900
 20
53.363143
 30
0.0
 10
47.728938
 20
56.571043
 30
0.0
 10
53.555200
 20
57.747343
 30
0.0
 10
59.381338
 20
56.571043
 30
0.0
 10
64.139100
 20
53.363143
 30
0.0
 10
67.346913
 20
48.605143
 30
0.0
 10
68.523200
 20
42.778543
 30
0.0
 10
68.027925
 20
38.947443
 30
0.0
 10
66.626800
 20
35.484743
 30
0.0
 10
64.446875
 20
32.516743
 30
0.0
 10
61.615200
 20
30.169743
 30
0.0
 10
61.436675
 20
30.014443
 30
0.0
 10
61.247200
 20
29.862743
 30
0.0
 10
61.060125
 20
29.725143
 30
0.0
 10
60.888800
 20
29.612143
 30
0.0
 10
60.601000
 20
29.435943
 30
0.0
 10
60.313200
 20
29.259743
 30
0.0
 10
60.025400
 20
29.083543
 30
0.0
 10
59.737600
 20
28.907343
 30
0.0
 10
59.559775
 20
28.743993
 30
0.0
 10
59.447800
 20
28.528143
 30
0.0
 10
59.411128
 20
28.287693
 30
0.0
 10
59.459200
 20
28.050543
 30
0.0
 10
61.830200
 20
22.320943
 30
0.0
 10
64.201200
 20
16.591343
 30
0.0
 10
66.572200
 20
10.861743
 30
0.0
 10
68.943200
 20
5.132143
 30
0.0
 10
69.072913
 20
4.940591
 30
0.0
 10
69.258500
 20
4.824343
 30
0.0
 10
69.475438
 20
4.792423
 30
0.0
 10
69.699200
 20
4.853783
 30
0.0
 10
70.849200
 20
5.467783
 30
0.0
 10
71.999200
 20
6.081783
 30
0.0
 10
73.149200
 20
6.695783
 30
0.0
 10
74.299200
 20
7.309783
 30
0.0
 10
74.536450
 20
7.399583
 30
0.0
 10
74.804000
 20
7.423343
 30
0.0
 10
75.069150
 20
7.381743
 30
0.0
 10
75.299200
 20
7.275343
 30
0.0
 10
77.907000
 20
5.485543
 30
0.0
 10
80.514800
 20
3.695743
 30
0.0
 10
83.122600
 20
1.905943
 30
0.0
 10
85.730400
 20
0.116143
 30
0.0
 10
85.953384
 20
0.019695
 30
0.0
 10
86.199096
 20
0.003375
 30
0.0
 10
86.437464
 20
0.064415
 30
0.0
 10
86.638400
 20
0.200167
 30
0.0
 10
89.031400
 20
2.592767
 30
0.0
 10
91.424400
 20
4.985367
 30
0.0
 10
93.817400
 20
7.377967
 30
0.0
 10
96.210400
 20
9.770567
 30
0.0
 10
96.347048
 20
9.972431
 30
0.0
 10
96.408408
 20
10.211263
 30
0.0
 10
96.391768
 20
10.457151
 30
0.0
 10
96.294416
 20
10.680167
 30
0.0
 10
94.472616
 20
13.334767
 30
0.0
 10
92.650816
 20
15.989367
 30
0.0
 10
90.829016
 20
18.643967
 30
0.0
 10
89.007200
 20
21.298543
 30
0.0
 10
88.897688
 20
21.530281
 30
0.0
 10
88.846888
 20
21.800043
 30
0.0
 10
88.857448
 20
22.074456
 30
0.0
 10
88.932008
 20
22.320143
 30
0.0
 10
89.933208
 20
24.821143
 30
0.0
 10
90.934408
 20
27.322143
 30
0.0
 10
91.935608
 20
29.823143
 30
0.0
 10
92.936808
 20
32.324143
 30
0.0
 10
93.051968
 20
32.552593
 30
0.0
 10
93.233512
 20
32.756143
 30
0.0
 10
93.456896
 20
32.912293
 30
0.0
 10
93.697608
 20
32.998543
 30
0.0
 10
96.904608
 20
33.595343
 30
0.0
 10
100.111608
 20
34.192143
 30
0.0
 10
103.318608
 20
34.788943
 30
0.0
 10
106.525608
 20
35.385743
 30
0.0
 10
106.751736
 20
35.474231
 30
0.0
 10
106.937208
 20
35.636443
 30
0.0
 10
107.062680
 20
35.848906
 30
0.0
 10
107.108840
 20
36.088143
 30
0.0
 10
107.109240
 20
39.471943
 30
0.0
 10
107.109640
 20
42.855743
 30
0.0
 10
107.110040
 20
46.239543
 30
0.0
 10
107.110440
 20
49.623343
 30
0.0
 10
107.064920
 20
49.862706
 30
0.0
 10
106.939960
 20
50.074843
 30
0.0
 10
106.754840
 20
50.237031
 30
0.0
 10
106.528800
 20
50.326543
 30
0.0
  0
ENDSEC
  0
SECTION
  2
OBJECTS
  0
DICTIONARY
  5
C
330
0
100
AcDbDictionary
  3
ACAD_GROUP
350
D
  3
ACAD_MLINESTYLE
350
17
  0
DICTIONARY
  5
D
330
C
100
AcDbDictionary
  0
DICTIONARY
  5
1A
330
C
100
AcDbDictionary
  0
DICTIONARY
  5
17
330
C
100
AcDbDictionary
  3
STANDARD
350
18
  0
DICTIONARY
  5
19
330
C
100
AcDbDictionary
  0
ENDSEC
  0
EOF
