<?xml version="1.0" encoding="UTF-8" standalone="no"?>
<svg
   xmlns:dc="http://purl.org/dc/elements/1.1/"
   xmlns:cc="http://creativecommons.org/ns#"
   xmlns:rdf="http://www.w3.org/1999/02/22-rdf-syntax-ns#"
   xmlns:svg="http://www.w3.org/2000/svg"
   xmlns="http://www.w3.org/2000/svg"
   xmlns:sodipodi="http://sodipodi.sourceforge.net/DTD/sodipodi-0.dtd"
   xmlns:inkscape="http://www.inkscape.org/namespaces/inkscape"
   version="1.2"
   id="Layer_1"
   x="0px"
   y="0px"
   viewBox="0 0 133.888 120.51218"
   xml:space="preserve"
   inkscape:version="0.91 r13725"
   sodipodi:docname="oshw_gear.svg"
   width="37.786167mm"
   height="34.011215mm"><metadata
     id="metadata43"><rdf:RDF><cc:Work
         rdf:about=""><dc:format>image/svg+xml</dc:format><dc:type
           rdf:resource="http://purl.org/dc/dcmitype/StillImage" /><dc:title></dc:title></cc:Work></rdf:RDF></metadata><defs
     id="defs41" /><sodipodi:namedview
     pagecolor="#ffffff"
     bordercolor="#666666"
     borderopacity="1"
     objecttolerance="10"
     gridtolerance="10"
     guidetolerance="10"
     inkscape:pageopacity="0"
     inkscape:pageshadow="2"
     inkscape:window-width="1680"
     inkscape:window-height="1001"
     id="namedview39"
     showgrid="false"
     fit-margin-top="0"
     fit-margin-left="0"
     fit-margin-right="0"
     fit-margin-bottom="0"
     units="mm"
     inkscape:zoom="3.6880161"
     inkscape:cx="18.861821"
     inkscape:cy="30.015182"
     inkscape:window-x="98"
     inkscape:window-y="28"
     inkscape:window-maximized="0"
     inkscape:current-layer="Layer_1" /><path
     d="M 133.161,57.604 129.05125,56.83975 124.9415,56.0755 120.83175,55.31125 116.722,54.547 116.4202,54.438859 116.13613,54.245125 115.90173,53.993078 115.749,53.71 l -1.25975,-2.939 -1.25975,-2.939 -1.25975,-2.939 -1.25975,-2.939 -0.0994,-0.304203 -0.0181,-0.340672 0.0607,-0.335984 0.1368,-0.290141 2.3945,-3.49 2.3945,-3.49 2.3945,-3.49 2.3945,-3.49 0.12084,-0.278609 0.0209,-0.307016 -0.0762,-0.298203 L 120.26301,25.587 117.27225,22.59625 114.2815,19.6055 111.29075,16.61475 108.3,13.624 l -0.25202,-0.170813 -0.29786,-0.07669 -0.30667,0.02081 -0.27845,0.121688 -3.55125,2.437 -3.55125,2.437 -3.55125,2.437 -3.55125,2.437 -0.289953,0.137141 -0.337672,0.06298 -0.343109,-0.01408 L 91.683,23.359 88.834,22.19275 85.985,21.0265 83.136,19.86025 80.287,18.694 80.003172,18.546078 79.750375,18.315375 79.555891,18.033484 79.447,17.732 78.65575,13.48125 77.8645,9.2305 77.07325,4.97975 76.282,0.729 76.171125,0.44592187 75.96875,0.214125 75.70375,0.05751563 75.405,0 71.175,0 66.945,0 62.715,0 58.485,0 58.186828,0.05751563 57.922125,0.214125 57.719859,0.44592187 57.609,0.729 56.818,4.97975 56.027,9.2305 55.236,13.48125 54.445,17.732 54.33625,18.033484 54.142,18.315375 53.88925,18.546078 53.605,18.694 50.75575,19.86025 47.9065,21.0265 45.05725,22.19275 42.208,23.359 41.901172,23.45305 41.557875,23.46713 41.220391,23.40415 40.931,23.267 37.38,20.83 33.829,18.393 30.278,15.956 26.727,13.519 26.447828,13.397312 26.140625,13.376502 25.842609,13.453192 25.591,13.624 22.6,16.61475 l -2.991,2.99075 -2.991,2.99075 -2.991,2.99075 -0.170391,0.252172 -0.07673,0.298203 0.02058,0.307016 0.121547,0.278609 2.39475,3.49 2.39475,3.49 2.39475,3.49 2.39475,3.49 0.135672,0.290141 0.0602,0.335984 -0.01798,0.340672 L 23.18,41.954 21.92,44.893 20.66,47.832 19.4,50.771 18.14,53.71 17.987969,53.993078 17.754,54.245125 17.469781,54.438859 17.167,54.547 13.0575,55.31125 8.948,56.0755 4.8385,56.83975 0.729,57.604 0.4455,57.715875 0.21375,57.9185 0.057375,58.183375 0,58.482 2.5e-4,62.71175 5e-4,66.9415 7.5e-4,71.17125 0.001,75.401 0.05851563,75.700047 0.215125,75.965625 0.44692187,76.168391 0.73,76.279 l 4.00875,0.746 4.00875,0.746 4.00875,0.746 4.00875,0.746 0.300766,0.107812 0.279859,0.195188 0.227547,0.254437 0.143828,0.285563 1.2515,3.12625 1.2515,3.12625 1.2515,3.12625 1.2515,3.12625 0.0933,0.307109 0.01333,0.343016 -0.06373,0.337203 -0.1379,0.289672 -2.277,3.31825 -2.277,3.31825 -2.277,3.31825 -2.277,3.31825 -0.121125,0.27877 -0.02063,0.30735 0.0765,0.29855 0.17025,0.25233 2.99125,2.99075 2.99125,2.99075 2.99125,2.99075 2.99125,2.99075 0.251609,0.16969 0.298016,0.0763 0.307203,-0.0204 0.279172,-0.12056 3.2595,-2.23725 3.2595,-2.23725 3.2595,-2.23725 3.2595,-2.23725 0.287703,-0.13258 0.331672,-0.052 0.334484,0.0295 0.296141,0.11211 1.4375,0.7675 1.4375,0.7675 1.4375,0.7675 1.4375,0.7675 0.279281,0.0771 0.271219,-0.04 0.232219,-0.14554 0.162281,-0.23958 2.964,-7.16175 2.964,-7.16175 2.964,-7.16175 2.964,-7.16175 0.0608,-0.296437 L 59.580375,84.85204 59.440266,84.582228 59.217,84.378 58.85725,84.15775 58.4975,83.9375 58.13775,83.71725 57.778,83.497 57.563391,83.35575 57.329375,83.18375 57.092172,82.994125 56.868,82.8 53.328828,79.86625 50.603875,76.15625 48.852234,71.827875 48.233,67.039 49.703516,59.75575 53.713625,53.80825 59.661172,49.798375 66.944,48.328 l 7.282672,1.470375 5.947203,4.009875 4.009766,5.9475 L 85.654,67.039 85.034906,71.827875 83.2835,76.15625 80.558594,79.86625 77.019,82.8 76.795844,82.994125 76.559,83.18375 76.325156,83.35575 76.111,83.497 75.75125,83.71725 75.3915,83.9375 75.03175,84.15775 74.672,84.378 74.449719,84.582188 74.30975,84.852 74.26391,85.152563 74.324,85.449 l 2.96375,7.162 2.96375,7.162 2.96375,7.162 2.96375,7.162 0.162141,0.23944 0.231984,0.14531 0.271172,0.0399 0.279703,-0.0767 1.4375,-0.7675 1.4375,-0.7675 1.4375,-0.7675 1.4375,-0.7675 0.296563,-0.11225 0.334437,-0.0297 0.331437,0.052 0.287563,0.133 3.25975,2.23725 3.25975,2.23725 3.25975,2.23725 3.25975,2.23725 0.27873,0.12056 0.30714,0.0204 0.29796,-0.0763 0.25117,-0.16969 2.99125,-2.99075 2.99125,-2.99075 2.99125,-2.99075 2.99125,-2.99075 0.17081,-0.25233 0.0767,-0.29854 -0.0208,-0.30736 -0.12169,-0.27877 -2.27725,-3.31825 -2.27725,-3.31825 -2.27725,-3.31825 -2.27727,-3.31822 -0.13689,-0.289672 -0.0635,-0.337203 0.0132,-0.343016 0.0932,-0.307109 1.2515,-3.12625 1.2515,-3.12625 1.2515,-3.12625 1.2515,-3.12625 0.14395,-0.285562 0.22693,-0.254438 0.27923,-0.195187 0.30089,-0.107813 4.00875,-0.746 4.00875,-0.746 4.00875,-0.746 4.00875,-0.746 0.28266,-0.110609 0.23184,-0.202766 0.15684,-0.265578 0.0577,-0.299047 5e-4,-4.22975 5e-4,-4.22975 5e-4,-4.22975 5e-4,-4.22975 -0.0569,-0.299203 -0.1562,-0.265172 -0.2314,-0.202734 L 133.161,57.604"
     id="path3"
     inkscape:connector-curvature="0"
     style="fill:#0099b0"
     sodipodi:nodetypes="ccccccccccccccccccccccccccccccccccccccccccccccccccccccccccccccccccccccccccccccccccccccccccccccccccccccccccccccccccccccccccccccccccccccccccccccccccccccccccccccccccccccccccccccccccccccccccccccccccccccccccccccccccccccccccccccccccccccccccccccccccccccccccccccccccccccccccccccccccccccccccccc" /></svg>