solid OpenSCAD_Model
  facet normal 0.866026 0.5 0
    outer loop
      vertex 18.2709 8.13473 1.7
      vertex 16.1803 11.7557 0
      vertex 16.1803 11.7557 1.7
    endloop
  endfacet
  facet normal 0.866026 0.5 0
    outer loop
      vertex 16.1803 11.7557 0
      vertex 18.2709 8.13473 1.7
      vertex 18.2709 8.13473 0
    endloop
  endfacet
  facet normal 0.743145 0.669131 0
    outer loop
      vertex 16.1803 11.7557 1.7
      vertex 13.3826 14.8629 0
      vertex 13.3826 14.8629 1.7
    endloop
  endfacet
  facet normal 0.743145 0.669131 0
    outer loop
      vertex 13.3826 14.8629 0
      vertex 16.1803 11.7557 1.7
      vertex 16.1803 11.7557 0
    endloop
  endfacet
  facet normal -0.406737 0.913545 0
    outer loop
      vertex -6.18034 19.0211 0
      vertex -10 17.3205 1.7
      vertex -6.18034 19.0211 1.7
    endloop
  endfacet
  facet normal -0.406737 0.913545 0
    outer loop
      vertex -10 17.3205 1.7
      vertex -6.18034 19.0211 0
      vertex -10 17.3205 0
    endloop
  endfacet
  facet normal 0.994522 -0.104529 0
    outer loop
      vertex 19.563 -4.15823 1.7
      vertex 20 0 0
      vertex 20 0 1.7
    endloop
  endfacet
  facet normal 0.994522 -0.104529 0
    outer loop
      vertex 20 0 0
      vertex 19.563 -4.15823 1.7
      vertex 19.563 -4.15823 0
    endloop
  endfacet
  facet normal 0.951057 0.309017 0
    outer loop
      vertex 19.563 4.15823 1.7
      vertex 18.2709 8.13473 0
      vertex 18.2709 8.13473 1.7
    endloop
  endfacet
  facet normal 0.951057 0.309017 0
    outer loop
      vertex 18.2709 8.13473 0
      vertex 19.563 4.15823 1.7
      vertex 19.563 4.15823 0
    endloop
  endfacet
  facet normal 0.587785 0.809017 -0
    outer loop
      vertex 13.3826 14.8629 0
      vertex 10 17.3205 1.7
      vertex 13.3826 14.8629 1.7
    endloop
  endfacet
  facet normal 0.587785 0.809017 0
    outer loop
      vertex 10 17.3205 1.7
      vertex 13.3826 14.8629 0
      vertex 10 17.3205 0
    endloop
  endfacet
  facet normal 0 1 -0
    outer loop
      vertex 2.09057 19.8904 0
      vertex -2.09057 19.8904 1.7
      vertex 2.09057 19.8904 1.7
    endloop
  endfacet
  facet normal 0 1 0
    outer loop
      vertex -2.09057 19.8904 1.7
      vertex 2.09057 19.8904 0
      vertex -2.09057 19.8904 0
    endloop
  endfacet
  facet normal 0.406737 0.913545 -0
    outer loop
      vertex 10 17.3205 0
      vertex 6.18034 19.0211 1.7
      vertex 10 17.3205 1.7
    endloop
  endfacet
  facet normal 0.406737 0.913545 0
    outer loop
      vertex 6.18034 19.0211 1.7
      vertex 10 17.3205 0
      vertex 6.18034 19.0211 0
    endloop
  endfacet
  facet normal -0.994522 0.104529 0
    outer loop
      vertex -20 0 0
      vertex -19.563 4.15823 1.7
      vertex -19.563 4.15823 0
    endloop
  endfacet
  facet normal -0.994522 0.104529 0
    outer loop
      vertex -19.563 4.15823 1.7
      vertex -20 0 0
      vertex -20 0 1.7
    endloop
  endfacet
  facet normal -0.866026 0.5 0
    outer loop
      vertex -18.2709 8.13473 0
      vertex -16.1803 11.7557 1.7
      vertex -16.1803 11.7557 0
    endloop
  endfacet
  facet normal -0.866026 0.5 0
    outer loop
      vertex -16.1803 11.7557 1.7
      vertex -18.2709 8.13473 0
      vertex -18.2709 8.13473 1.7
    endloop
  endfacet
  facet normal -0.587785 0.809017 0
    outer loop
      vertex -10 17.3205 0
      vertex -13.3826 14.8629 1.7
      vertex -10 17.3205 1.7
    endloop
  endfacet
  facet normal -0.587785 0.809017 0
    outer loop
      vertex -13.3826 14.8629 1.7
      vertex -10 17.3205 0
      vertex -13.3826 14.8629 0
    endloop
  endfacet
  facet normal -0.207912 0.978148 0
    outer loop
      vertex -2.09057 19.8904 0
      vertex -6.18034 19.0211 1.7
      vertex -2.09057 19.8904 1.7
    endloop
  endfacet
  facet normal -0.207912 0.978148 0
    outer loop
      vertex -6.18034 19.0211 1.7
      vertex -2.09057 19.8904 0
      vertex -6.18034 19.0211 0
    endloop
  endfacet
  facet normal -0.743145 0.669131 0
    outer loop
      vertex -16.1803 11.7557 0
      vertex -13.3826 14.8629 1.7
      vertex -13.3826 14.8629 0
    endloop
  endfacet
  facet normal -0.743145 0.669131 0
    outer loop
      vertex -13.3826 14.8629 1.7
      vertex -16.1803 11.7557 0
      vertex -16.1803 11.7557 1.7
    endloop
  endfacet
  facet normal 0.994522 0.104529 0
    outer loop
      vertex 20 0 1.7
      vertex 19.563 4.15823 0
      vertex 19.563 4.15823 1.7
    endloop
  endfacet
  facet normal 0.994522 0.104529 0
    outer loop
      vertex 19.563 4.15823 0
      vertex 20 0 1.7
      vertex 20 0 0
    endloop
  endfacet
  facet normal 0.951057 -0.309017 0
    outer loop
      vertex 18.2709 -8.13473 1.7
      vertex 19.563 -4.15823 0
      vertex 19.563 -4.15823 1.7
    endloop
  endfacet
  facet normal 0.951057 -0.309017 0
    outer loop
      vertex 19.563 -4.15823 0
      vertex 18.2709 -8.13473 1.7
      vertex 18.2709 -8.13473 0
    endloop
  endfacet
  facet normal -0.866026 -0.5 0
    outer loop
      vertex -16.1803 -11.7557 0
      vertex -18.2709 -8.13473 1.7
      vertex -18.2709 -8.13473 0
    endloop
  endfacet
  facet normal -0.866026 -0.5 0
    outer loop
      vertex -18.2709 -8.13473 1.7
      vertex -16.1803 -11.7557 0
      vertex -16.1803 -11.7557 1.7
    endloop
  endfacet
  facet normal 0.587785 -0.809017 0
    outer loop
      vertex 10 -17.3205 0
      vertex 13.3826 -14.8629 1.7
      vertex 10 -17.3205 1.7
    endloop
  endfacet
  facet normal 0.587785 -0.809017 0
    outer loop
      vertex 13.3826 -14.8629 1.7
      vertex 10 -17.3205 0
      vertex 13.3826 -14.8629 0
    endloop
  endfacet
  facet normal 0.207912 0.978148 -0
    outer loop
      vertex 6.18034 19.0211 0
      vertex 2.09057 19.8904 1.7
      vertex 6.18034 19.0211 1.7
    endloop
  endfacet
  facet normal 0.207912 0.978148 0
    outer loop
      vertex 2.09057 19.8904 1.7
      vertex 6.18034 19.0211 0
      vertex 2.09057 19.8904 0
    endloop
  endfacet
  facet normal 0 0 1
    outer loop
      vertex 13 0 1.7
      vertex 20 0 1.7
      vertex 19.563 4.15823 1.7
    endloop
  endfacet
  facet normal 0 0 1
    outer loop
      vertex 12.7159 2.70285 1.7
      vertex 19.563 4.15823 1.7
      vertex 18.2709 8.13473 1.7
    endloop
  endfacet
  facet normal 0 0 1
    outer loop
      vertex 20 0 1.7
      vertex 13 0 1.7
      vertex 19.563 -4.15823 1.7
    endloop
  endfacet
  facet normal 0 0 1
    outer loop
      vertex 11.8761 5.28758 1.7
      vertex 18.2709 8.13473 1.7
      vertex 16.1803 11.7557 1.7
    endloop
  endfacet
  facet normal -0 0 1
    outer loop
      vertex 12.7159 -2.70285 1.7
      vertex 19.563 -4.15823 1.7
      vertex 13 0 1.7
    endloop
  endfacet
  facet normal 0 0 1
    outer loop
      vertex 10.5172 7.64121 1.7
      vertex 16.1803 11.7557 1.7
      vertex 13.3826 14.8629 1.7
    endloop
  endfacet
  facet normal 0 0 1
    outer loop
      vertex 19.563 -4.15823 1.7
      vertex 12.7159 -2.70285 1.7
      vertex 18.2709 -8.13473 1.7
    endloop
  endfacet
  facet normal -0 0 1
    outer loop
      vertex 11.8761 -5.28758 1.7
      vertex 18.2709 -8.13473 1.7
      vertex 12.7159 -2.70285 1.7
    endloop
  endfacet
  facet normal 0 0 1
    outer loop
      vertex 19.563 4.15823 1.7
      vertex 12.7159 2.70285 1.7
      vertex 13 0 1.7
    endloop
  endfacet
  facet normal 0 0 1
    outer loop
      vertex 18.2709 8.13473 1.7
      vertex 11.8761 5.28758 1.7
      vertex 12.7159 2.70285 1.7
    endloop
  endfacet
  facet normal 0 0 1
    outer loop
      vertex 16.1803 11.7557 1.7
      vertex 10.5172 7.64121 1.7
      vertex 11.8761 5.28758 1.7
    endloop
  endfacet
  facet normal 0 0 1
    outer loop
      vertex 8.6987 9.66088 1.7
      vertex 13.3826 14.8629 1.7
      vertex 10 17.3205 1.7
    endloop
  endfacet
  facet normal 0 0 1
    outer loop
      vertex 13.3826 14.8629 1.7
      vertex 8.6987 9.66088 1.7
      vertex 10.5172 7.64121 1.7
    endloop
  endfacet
  facet normal 0 0 1
    outer loop
      vertex 10 17.3205 1.7
      vertex 6.5 11.2583 1.7
      vertex 8.6987 9.66088 1.7
    endloop
  endfacet
  facet normal 0 0 1
    outer loop
      vertex 6.18034 19.0211 1.7
      vertex 6.5 11.2583 1.7
      vertex 10 17.3205 1.7
    endloop
  endfacet
  facet normal 0 0 1
    outer loop
      vertex 6.18034 19.0211 1.7
      vertex 4.01722 12.3637 1.7
      vertex 6.5 11.2583 1.7
    endloop
  endfacet
  facet normal 0 0 1
    outer loop
      vertex 2.09057 19.8904 1.7
      vertex 4.01722 12.3637 1.7
      vertex 6.18034 19.0211 1.7
    endloop
  endfacet
  facet normal 0 0 1
    outer loop
      vertex 2.09057 19.8904 1.7
      vertex 1.35887 12.9288 1.7
      vertex 4.01722 12.3637 1.7
    endloop
  endfacet
  facet normal 0 0 1
    outer loop
      vertex 2.09057 19.8904 1.7
      vertex -1.35887 12.9288 1.7
      vertex 1.35887 12.9288 1.7
    endloop
  endfacet
  facet normal -0 0 1
    outer loop
      vertex -2.09057 19.8904 1.7
      vertex -1.35887 12.9288 1.7
      vertex 2.09057 19.8904 1.7
    endloop
  endfacet
  facet normal 0 0 1
    outer loop
      vertex -2.09057 19.8904 1.7
      vertex -4.01722 12.3637 1.7
      vertex -1.35887 12.9288 1.7
    endloop
  endfacet
  facet normal -0 0 1
    outer loop
      vertex -6.18034 19.0211 1.7
      vertex -4.01722 12.3637 1.7
      vertex -2.09057 19.8904 1.7
    endloop
  endfacet
  facet normal 0 0 1
    outer loop
      vertex -6.18034 19.0211 1.7
      vertex -6.5 11.2583 1.7
      vertex -4.01722 12.3637 1.7
    endloop
  endfacet
  facet normal -0 0 1
    outer loop
      vertex -10 17.3205 1.7
      vertex -6.5 11.2583 1.7
      vertex -6.18034 19.0211 1.7
    endloop
  endfacet
  facet normal 0 0 1
    outer loop
      vertex -6.5 11.2583 1.7
      vertex -10 17.3205 1.7
      vertex -8.6987 9.66088 1.7
    endloop
  endfacet
  facet normal -0 0 1
    outer loop
      vertex -13.3826 14.8629 1.7
      vertex -8.6987 9.66088 1.7
      vertex -10 17.3205 1.7
    endloop
  endfacet
  facet normal 0 0 1
    outer loop
      vertex -8.6987 9.66088 1.7
      vertex -13.3826 14.8629 1.7
      vertex -10.5172 7.64121 1.7
    endloop
  endfacet
  facet normal -0 0 1
    outer loop
      vertex -16.1803 11.7557 1.7
      vertex -10.5172 7.64121 1.7
      vertex -13.3826 14.8629 1.7
    endloop
  endfacet
  facet normal -0 0 1
    outer loop
      vertex -18.2709 8.13473 1.7
      vertex -11.8761 5.28758 1.7
      vertex -16.1803 11.7557 1.7
    endloop
  endfacet
  facet normal 0 0 1
    outer loop
      vertex -10.5172 7.64121 1.7
      vertex -16.1803 11.7557 1.7
      vertex -11.8761 5.28758 1.7
    endloop
  endfacet
  facet normal 0 0 1
    outer loop
      vertex 18.2709 -8.13473 1.7
      vertex 11.8761 -5.28758 1.7
      vertex 16.1803 -11.7557 1.7
    endloop
  endfacet
  facet normal -0 0 1
    outer loop
      vertex 10.5172 -7.64121 1.7
      vertex 16.1803 -11.7557 1.7
      vertex 11.8761 -5.28758 1.7
    endloop
  endfacet
  facet normal 0 0 1
    outer loop
      vertex 16.1803 -11.7557 1.7
      vertex 10.5172 -7.64121 1.7
      vertex 13.3826 -14.8629 1.7
    endloop
  endfacet
  facet normal -0 0 1
    outer loop
      vertex 8.6987 -9.66088 1.7
      vertex 13.3826 -14.8629 1.7
      vertex 10.5172 -7.64121 1.7
    endloop
  endfacet
  facet normal 0 0 1
    outer loop
      vertex 13.3826 -14.8629 1.7
      vertex 8.6987 -9.66088 1.7
      vertex 10 -17.3205 1.7
    endloop
  endfacet
  facet normal -0 0 1
    outer loop
      vertex 6.5 -11.2583 1.7
      vertex 10 -17.3205 1.7
      vertex 8.6987 -9.66088 1.7
    endloop
  endfacet
  facet normal 0 0 1
    outer loop
      vertex 6.5 -11.2583 1.7
      vertex 6.18034 -19.0211 1.7
      vertex 10 -17.3205 1.7
    endloop
  endfacet
  facet normal -0 0 1
    outer loop
      vertex 4.01722 -12.3637 1.7
      vertex 6.18034 -19.0211 1.7
      vertex 6.5 -11.2583 1.7
    endloop
  endfacet
  facet normal 0 0 1
    outer loop
      vertex 4.01722 -12.3637 1.7
      vertex 2.09057 -19.8904 1.7
      vertex 6.18034 -19.0211 1.7
    endloop
  endfacet
  facet normal -0 0 1
    outer loop
      vertex 1.35887 -12.9288 1.7
      vertex 2.09057 -19.8904 1.7
      vertex 4.01722 -12.3637 1.7
    endloop
  endfacet
  facet normal -0 0 1
    outer loop
      vertex -1.35887 -12.9288 1.7
      vertex 2.09057 -19.8904 1.7
      vertex 1.35887 -12.9288 1.7
    endloop
  endfacet
  facet normal 0 0 1
    outer loop
      vertex -1.35887 -12.9288 1.7
      vertex -2.09057 -19.8904 1.7
      vertex 2.09057 -19.8904 1.7
    endloop
  endfacet
  facet normal 0 0 1
    outer loop
      vertex -4.01722 -12.3637 1.7
      vertex -2.09057 -19.8904 1.7
      vertex -1.35887 -12.9288 1.7
    endloop
  endfacet
  facet normal 0 0 1
    outer loop
      vertex -4.01722 -12.3637 1.7
      vertex -6.18034 -19.0211 1.7
      vertex -2.09057 -19.8904 1.7
    endloop
  endfacet
  facet normal 0 0 1
    outer loop
      vertex -6.5 -11.2583 1.7
      vertex -6.18034 -19.0211 1.7
      vertex -4.01722 -12.3637 1.7
    endloop
  endfacet
  facet normal 0 0 1
    outer loop
      vertex -10 -17.3205 1.7
      vertex -6.5 -11.2583 1.7
      vertex -8.6987 -9.66088 1.7
    endloop
  endfacet
  facet normal 0 0 1
    outer loop
      vertex -6.5 -11.2583 1.7
      vertex -10 -17.3205 1.7
      vertex -6.18034 -19.0211 1.7
    endloop
  endfacet
  facet normal 0 0 1
    outer loop
      vertex -13.3826 -14.8629 1.7
      vertex -8.6987 -9.66088 1.7
      vertex -10.5172 -7.64121 1.7
    endloop
  endfacet
  facet normal 0 0 1
    outer loop
      vertex -16.1803 -11.7557 1.7
      vertex -10.5172 -7.64121 1.7
      vertex -11.8761 -5.28758 1.7
    endloop
  endfacet
  facet normal 0 0 1
    outer loop
      vertex -18.2709 -8.13473 1.7
      vertex -11.8761 -5.28758 1.7
      vertex -12.7159 -2.70285 1.7
    endloop
  endfacet
  facet normal 0 0 1
    outer loop
      vertex -8.6987 -9.66088 1.7
      vertex -13.3826 -14.8629 1.7
      vertex -10 -17.3205 1.7
    endloop
  endfacet
  facet normal 0 0 1
    outer loop
      vertex -19.563 -4.15823 1.7
      vertex -12.7159 -2.70285 1.7
      vertex -13 0 1.7
    endloop
  endfacet
  facet normal 0 0 1
    outer loop
      vertex -11.8761 5.28758 1.7
      vertex -18.2709 8.13473 1.7
      vertex -12.7159 2.70285 1.7
    endloop
  endfacet
  facet normal -0 0 1
    outer loop
      vertex -19.563 4.15823 1.7
      vertex -12.7159 2.70285 1.7
      vertex -18.2709 8.13473 1.7
    endloop
  endfacet
  facet normal 0 0 1
    outer loop
      vertex -10.5172 -7.64121 1.7
      vertex -16.1803 -11.7557 1.7
      vertex -13.3826 -14.8629 1.7
    endloop
  endfacet
  facet normal 0 0 1
    outer loop
      vertex -12.7159 2.70285 1.7
      vertex -19.563 4.15823 1.7
      vertex -13 0 1.7
    endloop
  endfacet
  facet normal 0 0 1
    outer loop
      vertex -11.8761 -5.28758 1.7
      vertex -18.2709 -8.13473 1.7
      vertex -16.1803 -11.7557 1.7
    endloop
  endfacet
  facet normal 0 0 1
    outer loop
      vertex -20 0 1.7
      vertex -13 0 1.7
      vertex -19.563 4.15823 1.7
    endloop
  endfacet
  facet normal 0 0 1
    outer loop
      vertex -12.7159 -2.70285 1.7
      vertex -19.563 -4.15823 1.7
      vertex -18.2709 -8.13473 1.7
    endloop
  endfacet
  facet normal 0 0 1
    outer loop
      vertex -13 0 1.7
      vertex -20 0 1.7
      vertex -19.563 -4.15823 1.7
    endloop
  endfacet
  facet normal -0.951057 0.309017 0
    outer loop
      vertex -19.563 4.15823 0
      vertex -18.2709 8.13473 1.7
      vertex -18.2709 8.13473 0
    endloop
  endfacet
  facet normal -0.951057 0.309017 0
    outer loop
      vertex -18.2709 8.13473 1.7
      vertex -19.563 4.15823 0
      vertex -19.563 4.15823 1.7
    endloop
  endfacet
  facet normal 0.866026 -0.5 0
    outer loop
      vertex 16.1803 -11.7557 1.7
      vertex 18.2709 -8.13473 0
      vertex 18.2709 -8.13473 1.7
    endloop
  endfacet
  facet normal 0.866026 -0.5 0
    outer loop
      vertex 18.2709 -8.13473 0
      vertex 16.1803 -11.7557 1.7
      vertex 16.1803 -11.7557 0
    endloop
  endfacet
  facet normal -0.994522 -0.104529 0
    outer loop
      vertex -19.563 -4.15823 0
      vertex -20 0 1.7
      vertex -20 0 0
    endloop
  endfacet
  facet normal -0.994522 -0.104529 0
    outer loop
      vertex -20 0 1.7
      vertex -19.563 -4.15823 0
      vertex -19.563 -4.15823 1.7
    endloop
  endfacet
  facet normal 0.207912 -0.978148 0
    outer loop
      vertex 2.09057 -19.8904 0
      vertex 6.18034 -19.0211 1.7
      vertex 2.09057 -19.8904 1.7
    endloop
  endfacet
  facet normal 0.207912 -0.978148 0
    outer loop
      vertex 6.18034 -19.0211 1.7
      vertex 2.09057 -19.8904 0
      vertex 6.18034 -19.0211 0
    endloop
  endfacet
  facet normal 0.406737 -0.913545 0
    outer loop
      vertex 6.18034 -19.0211 0
      vertex 10 -17.3205 1.7
      vertex 6.18034 -19.0211 1.7
    endloop
  endfacet
  facet normal 0.406737 -0.913545 0
    outer loop
      vertex 10 -17.3205 1.7
      vertex 6.18034 -19.0211 0
      vertex 10 -17.3205 0
    endloop
  endfacet
  facet normal -0.207912 -0.978148 0
    outer loop
      vertex -6.18034 -19.0211 0
      vertex -2.09057 -19.8904 1.7
      vertex -6.18034 -19.0211 1.7
    endloop
  endfacet
  facet normal -0.207912 -0.978148 -0
    outer loop
      vertex -2.09057 -19.8904 1.7
      vertex -6.18034 -19.0211 0
      vertex -2.09057 -19.8904 0
    endloop
  endfacet
  facet normal 0 -1 0
    outer loop
      vertex -2.09057 -19.8904 0
      vertex 2.09057 -19.8904 1.7
      vertex -2.09057 -19.8904 1.7
    endloop
  endfacet
  facet normal 0 -1 -0
    outer loop
      vertex 2.09057 -19.8904 1.7
      vertex -2.09057 -19.8904 0
      vertex 2.09057 -19.8904 0
    endloop
  endfacet
  facet normal 0 0 -1
    outer loop
      vertex 11.5 0 0
      vertex 20 0 0
      vertex 19.563 -4.15823 0
    endloop
  endfacet
  facet normal 0 0 -1
    outer loop
      vertex 11.2487 -2.39098 0
      vertex 19.563 -4.15823 0
      vertex 18.2709 -8.13473 0
    endloop
  endfacet
  facet normal 0 0 -1
    outer loop
      vertex 20 0 0
      vertex 11.5 0 0
      vertex 19.563 4.15823 0
    endloop
  endfacet
  facet normal 0 0 -1
    outer loop
      vertex 10.5058 -4.67747 0
      vertex 18.2709 -8.13473 0
      vertex 16.1803 -11.7557 0
    endloop
  endfacet
  facet normal 0 0 -1
    outer loop
      vertex 11.2487 2.39098 0
      vertex 19.563 4.15823 0
      vertex 11.5 0 0
    endloop
  endfacet
  facet normal 0 0 -1
    outer loop
      vertex 9.30369 -6.75953 0
      vertex 16.1803 -11.7557 0
      vertex 13.3826 -14.8629 0
    endloop
  endfacet
  facet normal -0 0 -1
    outer loop
      vertex 19.563 4.15823 0
      vertex 11.2487 2.39098 0
      vertex 18.2709 8.13473 0
    endloop
  endfacet
  facet normal 0 0 -1
    outer loop
      vertex 10.5058 4.67747 0
      vertex 18.2709 8.13473 0
      vertex 11.2487 2.39098 0
    endloop
  endfacet
  facet normal 0 0 -1
    outer loop
      vertex 19.563 -4.15823 0
      vertex 11.2487 -2.39098 0
      vertex 11.5 0 0
    endloop
  endfacet
  facet normal 0 0 -1
    outer loop
      vertex 18.2709 -8.13473 0
      vertex 10.5058 -4.67747 0
      vertex 11.2487 -2.39098 0
    endloop
  endfacet
  facet normal 0 0 -1
    outer loop
      vertex 7.695 -8.54617 0
      vertex 13.3826 -14.8629 0
      vertex 10 -17.3205 0
    endloop
  endfacet
  facet normal 0 0 -1
    outer loop
      vertex 16.1803 -11.7557 0
      vertex 9.30369 -6.75953 0
      vertex 10.5058 -4.67747 0
    endloop
  endfacet
  facet normal 0 0 -1
    outer loop
      vertex 13.3826 -14.8629 0
      vertex 7.695 -8.54617 0
      vertex 9.30369 -6.75953 0
    endloop
  endfacet
  facet normal 0 0 -1
    outer loop
      vertex 5.75 -9.95929 0
      vertex 10 -17.3205 0
      vertex 6.18034 -19.0211 0
    endloop
  endfacet
  facet normal 0 0 -1
    outer loop
      vertex 10 -17.3205 0
      vertex 5.75 -9.95929 0
      vertex 7.695 -8.54617 0
    endloop
  endfacet
  facet normal 0 0 -1
    outer loop
      vertex 6.18034 -19.0211 0
      vertex 3.55369 -10.9371 0
      vertex 5.75 -9.95929 0
    endloop
  endfacet
  facet normal 0 0 -1
    outer loop
      vertex 2.09057 -19.8904 0
      vertex 3.55369 -10.9371 0
      vertex 6.18034 -19.0211 0
    endloop
  endfacet
  facet normal 0 0 -1
    outer loop
      vertex 2.09057 -19.8904 0
      vertex 1.20208 -11.437 0
      vertex 3.55369 -10.9371 0
    endloop
  endfacet
  facet normal 0 0 -1
    outer loop
      vertex 2.09057 -19.8904 0
      vertex -1.20208 -11.437 0
      vertex 1.20208 -11.437 0
    endloop
  endfacet
  facet normal 0 0 -1
    outer loop
      vertex -2.09057 -19.8904 0
      vertex -1.20208 -11.437 0
      vertex 2.09057 -19.8904 0
    endloop
  endfacet
  facet normal 0 0 -1
    outer loop
      vertex -2.09057 -19.8904 0
      vertex -3.55369 -10.9371 0
      vertex -1.20208 -11.437 0
    endloop
  endfacet
  facet normal 0 0 -1
    outer loop
      vertex -6.18034 -19.0211 0
      vertex -3.55369 -10.9371 0
      vertex -2.09057 -19.8904 0
    endloop
  endfacet
  facet normal -0 0 -1
    outer loop
      vertex -3.55369 -10.9371 0
      vertex -6.18034 -19.0211 0
      vertex -5.75 -9.95929 0
    endloop
  endfacet
  facet normal 0 0 -1
    outer loop
      vertex -10 -17.3205 0
      vertex -5.75 -9.95929 0
      vertex -6.18034 -19.0211 0
    endloop
  endfacet
  facet normal -0 0 -1
    outer loop
      vertex -5.75 -9.95929 0
      vertex -10 -17.3205 0
      vertex -7.695 -8.54617 0
    endloop
  endfacet
  facet normal 0 0 -1
    outer loop
      vertex -13.3826 -14.8629 0
      vertex -7.695 -8.54617 0
      vertex -10 -17.3205 0
    endloop
  endfacet
  facet normal -0 0 -1
    outer loop
      vertex -7.695 -8.54617 0
      vertex -13.3826 -14.8629 0
      vertex -9.30369 -6.75953 0
    endloop
  endfacet
  facet normal 0 0 -1
    outer loop
      vertex -16.1803 -11.7557 0
      vertex -9.30369 -6.75953 0
      vertex -13.3826 -14.8629 0
    endloop
  endfacet
  facet normal -0 0 -1
    outer loop
      vertex -9.30369 -6.75953 0
      vertex -16.1803 -11.7557 0
      vertex -10.5058 -4.67747 0
    endloop
  endfacet
  facet normal 0 0 -1
    outer loop
      vertex -18.2709 -8.13473 0
      vertex -10.5058 -4.67747 0
      vertex -16.1803 -11.7557 0
    endloop
  endfacet
  facet normal -0 0 -1
    outer loop
      vertex 18.2709 8.13473 0
      vertex 10.5058 4.67747 0
      vertex 16.1803 11.7557 0
    endloop
  endfacet
  facet normal 0 0 -1
    outer loop
      vertex 9.30369 6.75953 0
      vertex 16.1803 11.7557 0
      vertex 10.5058 4.67747 0
    endloop
  endfacet
  facet normal -0 0 -1
    outer loop
      vertex 16.1803 11.7557 0
      vertex 9.30369 6.75953 0
      vertex 13.3826 14.8629 0
    endloop
  endfacet
  facet normal 0 0 -1
    outer loop
      vertex 7.695 8.54617 0
      vertex 13.3826 14.8629 0
      vertex 9.30369 6.75953 0
    endloop
  endfacet
  facet normal -0 0 -1
    outer loop
      vertex 13.3826 14.8629 0
      vertex 7.695 8.54617 0
      vertex 10 17.3205 0
    endloop
  endfacet
  facet normal 0 0 -1
    outer loop
      vertex 5.75 9.95929 0
      vertex 10 17.3205 0
      vertex 7.695 8.54617 0
    endloop
  endfacet
  facet normal -0 0 -1
    outer loop
      vertex 10 17.3205 0
      vertex 5.75 9.95929 0
      vertex 6.18034 19.0211 0
    endloop
  endfacet
  facet normal 0 0 -1
    outer loop
      vertex 3.55369 10.9371 0
      vertex 6.18034 19.0211 0
      vertex 5.75 9.95929 0
    endloop
  endfacet
  facet normal 0 0 -1
    outer loop
      vertex 3.55369 10.9371 0
      vertex 2.09057 19.8904 0
      vertex 6.18034 19.0211 0
    endloop
  endfacet
  facet normal 0 0 -1
    outer loop
      vertex 1.20208 11.437 0
      vertex 2.09057 19.8904 0
      vertex 3.55369 10.9371 0
    endloop
  endfacet
  facet normal 0 0 -1
    outer loop
      vertex -1.20208 11.437 0
      vertex 2.09057 19.8904 0
      vertex 1.20208 11.437 0
    endloop
  endfacet
  facet normal 0 0 -1
    outer loop
      vertex -1.20208 11.437 0
      vertex -2.09057 19.8904 0
      vertex 2.09057 19.8904 0
    endloop
  endfacet
  facet normal 0 0 -1
    outer loop
      vertex -3.55369 10.9371 0
      vertex -2.09057 19.8904 0
      vertex -1.20208 11.437 0
    endloop
  endfacet
  facet normal 0 0 -1
    outer loop
      vertex -6.18034 19.0211 0
      vertex -3.55369 10.9371 0
      vertex -5.75 9.95929 0
    endloop
  endfacet
  facet normal 0 0 -1
    outer loop
      vertex -3.55369 10.9371 0
      vertex -6.18034 19.0211 0
      vertex -2.09057 19.8904 0
    endloop
  endfacet
  facet normal 0 0 -1
    outer loop
      vertex -10 17.3205 0
      vertex -5.75 9.95929 0
      vertex -7.695 8.54617 0
    endloop
  endfacet
  facet normal 0 0 -1
    outer loop
      vertex -13.3826 14.8629 0
      vertex -7.695 8.54617 0
      vertex -9.30369 6.75953 0
    endloop
  endfacet
  facet normal 0 0 -1
    outer loop
      vertex -5.75 9.95929 0
      vertex -10 17.3205 0
      vertex -6.18034 19.0211 0
    endloop
  endfacet
  facet normal 0 0 -1
    outer loop
      vertex -16.1803 11.7557 0
      vertex -9.30369 6.75953 0
      vertex -10.5058 4.67747 0
    endloop
  endfacet
  facet normal 0 0 -1
    outer loop
      vertex -18.2709 8.13473 0
      vertex -10.5058 4.67747 0
      vertex -11.2487 2.39098 0
    endloop
  endfacet
  facet normal 0 0 -1
    outer loop
      vertex -19.563 4.15823 0
      vertex -11.2487 2.39098 0
      vertex -11.5 0 0
    endloop
  endfacet
  facet normal -0 0 -1
    outer loop
      vertex -10.5058 -4.67747 0
      vertex -18.2709 -8.13473 0
      vertex -11.2487 -2.39098 0
    endloop
  endfacet
  facet normal 0 0 -1
    outer loop
      vertex -7.695 8.54617 0
      vertex -13.3826 14.8629 0
      vertex -10 17.3205 0
    endloop
  endfacet
  facet normal 0 0 -1
    outer loop
      vertex -19.563 -4.15823 0
      vertex -11.2487 -2.39098 0
      vertex -18.2709 -8.13473 0
    endloop
  endfacet
  facet normal 0 0 -1
    outer loop
      vertex -9.30369 6.75953 0
      vertex -16.1803 11.7557 0
      vertex -13.3826 14.8629 0
    endloop
  endfacet
  facet normal -0 0 -1
    outer loop
      vertex -11.2487 -2.39098 0
      vertex -19.563 -4.15823 0
      vertex -11.5 0 0
    endloop
  endfacet
  facet normal 0 0 -1
    outer loop
      vertex -10.5058 4.67747 0
      vertex -18.2709 8.13473 0
      vertex -16.1803 11.7557 0
    endloop
  endfacet
  facet normal 0 0 -1
    outer loop
      vertex -20 0 0
      vertex -11.5 0 0
      vertex -19.563 -4.15823 0
    endloop
  endfacet
  facet normal 0 0 -1
    outer loop
      vertex -11.2487 2.39098 0
      vertex -19.563 4.15823 0
      vertex -18.2709 8.13473 0
    endloop
  endfacet
  facet normal 0 0 -1
    outer loop
      vertex -11.5 0 0
      vertex -20 0 0
      vertex -19.563 4.15823 0
    endloop
  endfacet
  facet normal -0.951057 -0.309017 0
    outer loop
      vertex -18.2709 -8.13473 0
      vertex -19.563 -4.15823 1.7
      vertex -19.563 -4.15823 0
    endloop
  endfacet
  facet normal -0.951057 -0.309017 0
    outer loop
      vertex -19.563 -4.15823 1.7
      vertex -18.2709 -8.13473 0
      vertex -18.2709 -8.13473 1.7
    endloop
  endfacet
  facet normal -0.743145 -0.669131 0
    outer loop
      vertex -13.3826 -14.8629 0
      vertex -16.1803 -11.7557 1.7
      vertex -16.1803 -11.7557 0
    endloop
  endfacet
  facet normal -0.743145 -0.669131 0
    outer loop
      vertex -16.1803 -11.7557 1.7
      vertex -13.3826 -14.8629 0
      vertex -13.3826 -14.8629 1.7
    endloop
  endfacet
  facet normal 0.743145 -0.669131 0
    outer loop
      vertex 13.3826 -14.8629 1.7
      vertex 16.1803 -11.7557 0
      vertex 16.1803 -11.7557 1.7
    endloop
  endfacet
  facet normal 0.743145 -0.669131 0
    outer loop
      vertex 16.1803 -11.7557 0
      vertex 13.3826 -14.8629 1.7
      vertex 13.3826 -14.8629 0
    endloop
  endfacet
  facet normal -0.406737 -0.913545 0
    outer loop
      vertex -10 -17.3205 0
      vertex -6.18034 -19.0211 1.7
      vertex -10 -17.3205 1.7
    endloop
  endfacet
  facet normal -0.406737 -0.913545 -0
    outer loop
      vertex -6.18034 -19.0211 1.7
      vertex -10 -17.3205 0
      vertex -6.18034 -19.0211 0
    endloop
  endfacet
  facet normal -0.587785 -0.809017 0
    outer loop
      vertex -13.3826 -14.8629 0
      vertex -10 -17.3205 1.7
      vertex -13.3826 -14.8629 1.7
    endloop
  endfacet
  facet normal -0.587785 -0.809017 -0
    outer loop
      vertex -10 -17.3205 1.7
      vertex -13.3826 -14.8629 0
      vertex -10 -17.3205 0
    endloop
  endfacet
  facet normal -0.994522 -0.104529 0
    outer loop
      vertex 13 0 0.7
      vertex 12.7159 2.70285 1.7
      vertex 12.7159 2.70285 0.7
    endloop
  endfacet
  facet normal -0.994522 -0.104529 0
    outer loop
      vertex 12.7159 2.70285 1.7
      vertex 13 0 0.7
      vertex 13 0 1.7
    endloop
  endfacet
  facet normal 0.994522 -0.104529 0
    outer loop
      vertex -13 0 1.7
      vertex -12.7159 2.70285 0.7
      vertex -12.7159 2.70285 1.7
    endloop
  endfacet
  facet normal 0.994522 -0.104529 0
    outer loop
      vertex -12.7159 2.70285 0.7
      vertex -13 0 1.7
      vertex -13 0 0.7
    endloop
  endfacet
  facet normal 0 -1 0
    outer loop
      vertex -1.35887 12.9288 0.7
      vertex 1.35887 12.9288 1.7
      vertex -1.35887 12.9288 1.7
    endloop
  endfacet
  facet normal 0 -1 -0
    outer loop
      vertex 1.35887 12.9288 1.7
      vertex -1.35887 12.9288 0.7
      vertex 1.35887 12.9288 0.7
    endloop
  endfacet
  facet normal 0 1 -0
    outer loop
      vertex 1.35887 -12.9288 0.7
      vertex -1.35887 -12.9288 1.7
      vertex 1.35887 -12.9288 1.7
    endloop
  endfacet
  facet normal 0 1 0
    outer loop
      vertex -1.35887 -12.9288 1.7
      vertex 1.35887 -12.9288 0.7
      vertex -1.35887 -12.9288 0.7
    endloop
  endfacet
  facet normal -0.587785 -0.809017 0
    outer loop
      vertex 6.5 11.2583 0.7
      vertex 8.6987 9.66088 1.7
      vertex 6.5 11.2583 1.7
    endloop
  endfacet
  facet normal -0.587785 -0.809017 -0
    outer loop
      vertex 8.6987 9.66088 1.7
      vertex 6.5 11.2583 0.7
      vertex 8.6987 9.66088 0.7
    endloop
  endfacet
  facet normal -0.406737 -0.913545 0
    outer loop
      vertex 4.01722 12.3637 0.7
      vertex 6.5 11.2583 1.7
      vertex 4.01722 12.3637 1.7
    endloop
  endfacet
  facet normal -0.406737 -0.913545 -0
    outer loop
      vertex 6.5 11.2583 1.7
      vertex 4.01722 12.3637 0.7
      vertex 6.5 11.2583 0.7
    endloop
  endfacet
  facet normal 0.743145 -0.669131 0
    outer loop
      vertex -10.5172 7.64121 1.7
      vertex -8.6987 9.66088 0.7
      vertex -8.6987 9.66088 1.7
    endloop
  endfacet
  facet normal 0.743145 -0.669131 0
    outer loop
      vertex -8.6987 9.66088 0.7
      vertex -10.5172 7.64121 1.7
      vertex -10.5172 7.64121 0.7
    endloop
  endfacet
  facet normal 0.406737 -0.913545 0
    outer loop
      vertex -6.5 11.2583 0.7
      vertex -4.01722 12.3637 1.7
      vertex -6.5 11.2583 1.7
    endloop
  endfacet
  facet normal 0.406737 -0.913545 0
    outer loop
      vertex -4.01722 12.3637 1.7
      vertex -6.5 11.2583 0.7
      vertex -4.01722 12.3637 0.7
    endloop
  endfacet
  facet normal -0.951056 0.309017 0
    outer loop
      vertex 11.8761 -5.28758 0.7
      vertex 12.7159 -2.70285 1.7
      vertex 12.7159 -2.70285 0.7
    endloop
  endfacet
  facet normal -0.951056 0.309017 0
    outer loop
      vertex 12.7159 -2.70285 1.7
      vertex 11.8761 -5.28758 0.7
      vertex 11.8761 -5.28758 1.7
    endloop
  endfacet
  facet normal -0.866025 -0.5 0
    outer loop
      vertex 11.8761 5.28758 0.7
      vertex 10.5172 7.64121 1.7
      vertex 10.5172 7.64121 0.7
    endloop
  endfacet
  facet normal -0.866025 -0.5 0
    outer loop
      vertex 10.5172 7.64121 1.7
      vertex 11.8761 5.28758 0.7
      vertex 11.8761 5.28758 1.7
    endloop
  endfacet
  facet normal -0.951056 -0.309017 0
    outer loop
      vertex 12.7159 2.70285 0.7
      vertex 11.8761 5.28758 1.7
      vertex 11.8761 5.28758 0.7
    endloop
  endfacet
  facet normal -0.951056 -0.309017 0
    outer loop
      vertex 11.8761 5.28758 1.7
      vertex 12.7159 2.70285 0.7
      vertex 12.7159 2.70285 1.7
    endloop
  endfacet
  facet normal -0.743145 -0.669131 0
    outer loop
      vertex 10.5172 7.64121 0.7
      vertex 8.6987 9.66088 1.7
      vertex 8.6987 9.66088 0.7
    endloop
  endfacet
  facet normal -0.743145 -0.669131 0
    outer loop
      vertex 8.6987 9.66088 1.7
      vertex 10.5172 7.64121 0.7
      vertex 10.5172 7.64121 1.7
    endloop
  endfacet
  facet normal -0.207912 -0.978148 0
    outer loop
      vertex 1.35887 12.9288 0.7
      vertex 4.01722 12.3637 1.7
      vertex 1.35887 12.9288 1.7
    endloop
  endfacet
  facet normal -0.207912 -0.978148 -0
    outer loop
      vertex 4.01722 12.3637 1.7
      vertex 1.35887 12.9288 0.7
      vertex 4.01722 12.3637 0.7
    endloop
  endfacet
  facet normal 0.866025 -0.5 0
    outer loop
      vertex -11.8761 5.28758 1.7
      vertex -10.5172 7.64121 0.7
      vertex -10.5172 7.64121 1.7
    endloop
  endfacet
  facet normal 0.866025 -0.5 0
    outer loop
      vertex -10.5172 7.64121 0.7
      vertex -11.8761 5.28758 1.7
      vertex -11.8761 5.28758 0.7
    endloop
  endfacet
  facet normal 0.951056 -0.309017 0
    outer loop
      vertex -12.7159 2.70285 1.7
      vertex -11.8761 5.28758 0.7
      vertex -11.8761 5.28758 1.7
    endloop
  endfacet
  facet normal 0.951056 -0.309017 0
    outer loop
      vertex -11.8761 5.28758 0.7
      vertex -12.7159 2.70285 1.7
      vertex -12.7159 2.70285 0.7
    endloop
  endfacet
  facet normal 0.587785 -0.809017 0
    outer loop
      vertex -8.6987 9.66088 0.7
      vertex -6.5 11.2583 1.7
      vertex -8.6987 9.66088 1.7
    endloop
  endfacet
  facet normal 0.587785 -0.809017 0
    outer loop
      vertex -6.5 11.2583 1.7
      vertex -8.6987 9.66088 0.7
      vertex -6.5 11.2583 0.7
    endloop
  endfacet
  facet normal 0.207912 -0.978148 0
    outer loop
      vertex -4.01722 12.3637 0.7
      vertex -1.35887 12.9288 1.7
      vertex -4.01722 12.3637 1.7
    endloop
  endfacet
  facet normal 0.207912 -0.978148 0
    outer loop
      vertex -1.35887 12.9288 1.7
      vertex -4.01722 12.3637 0.7
      vertex -1.35887 12.9288 0.7
    endloop
  endfacet
  facet normal -0.994522 0.104529 0
    outer loop
      vertex 12.7159 -2.70285 0.7
      vertex 13 0 1.7
      vertex 13 0 0.7
    endloop
  endfacet
  facet normal -0.994522 0.104529 0
    outer loop
      vertex 13 0 1.7
      vertex 12.7159 -2.70285 0.7
      vertex 12.7159 -2.70285 1.7
    endloop
  endfacet
  facet normal -0.207912 0.978148 0
    outer loop
      vertex 4.01722 -12.3637 0.7
      vertex 1.35887 -12.9288 1.7
      vertex 4.01722 -12.3637 1.7
    endloop
  endfacet
  facet normal -0.207912 0.978148 0
    outer loop
      vertex 1.35887 -12.9288 1.7
      vertex 4.01722 -12.3637 0.7
      vertex 1.35887 -12.9288 0.7
    endloop
  endfacet
  facet normal -0.866025 0.5 0
    outer loop
      vertex 10.5172 -7.64121 0.7
      vertex 11.8761 -5.28758 1.7
      vertex 11.8761 -5.28758 0.7
    endloop
  endfacet
  facet normal -0.866025 0.5 0
    outer loop
      vertex 11.8761 -5.28758 1.7
      vertex 10.5172 -7.64121 0.7
      vertex 10.5172 -7.64121 1.7
    endloop
  endfacet
  facet normal 0 0 1
    outer loop
      vertex 11.5 0 0.7
      vertex 13 0 0.7
      vertex 12.7159 2.70285 0.7
    endloop
  endfacet
  facet normal 0 0 1
    outer loop
      vertex 11.2487 2.39098 0.7
      vertex 12.7159 2.70285 0.7
      vertex 11.8761 5.28758 0.7
    endloop
  endfacet
  facet normal 0 0 1
    outer loop
      vertex 13 0 0.7
      vertex 11.5 0 0.7
      vertex 12.7159 -2.70285 0.7
    endloop
  endfacet
  facet normal -0 0 1
    outer loop
      vertex 11.2487 -2.39098 0.7
      vertex 12.7159 -2.70285 0.7
      vertex 11.5 0 0.7
    endloop
  endfacet
  facet normal 0 0 1
    outer loop
      vertex 12.7159 2.70285 0.7
      vertex 11.2487 2.39098 0.7
      vertex 11.5 0 0.7
    endloop
  endfacet
  facet normal 0 0 1
    outer loop
      vertex 10.5058 4.67747 0.7
      vertex 11.8761 5.28758 0.7
      vertex 10.5172 7.64121 0.7
    endloop
  endfacet
  facet normal 0 0 1
    outer loop
      vertex 11.8761 5.28758 0.7
      vertex 10.5058 4.67747 0.7
      vertex 11.2487 2.39098 0.7
    endloop
  endfacet
  facet normal 0 0 1
    outer loop
      vertex 10.5172 7.64121 0.7
      vertex 9.30369 6.75953 0.7
      vertex 10.5058 4.67747 0.7
    endloop
  endfacet
  facet normal 0 0 1
    outer loop
      vertex 8.6987 9.66088 0.7
      vertex 9.30369 6.75953 0.7
      vertex 10.5172 7.64121 0.7
    endloop
  endfacet
  facet normal 0 0 1
    outer loop
      vertex 8.6987 9.66088 0.7
      vertex 7.695 8.54617 0.7
      vertex 9.30369 6.75953 0.7
    endloop
  endfacet
  facet normal 0 0 1
    outer loop
      vertex 6.5 11.2583 0.7
      vertex 7.695 8.54617 0.7
      vertex 8.6987 9.66088 0.7
    endloop
  endfacet
  facet normal 0 0 1
    outer loop
      vertex 6.5 11.2583 0.7
      vertex 5.75 9.95929 0.7
      vertex 7.695 8.54617 0.7
    endloop
  endfacet
  facet normal 0 0 1
    outer loop
      vertex 4.01722 12.3637 0.7
      vertex 5.75 9.95929 0.7
      vertex 6.5 11.2583 0.7
    endloop
  endfacet
  facet normal 0 0 1
    outer loop
      vertex 4.01722 12.3637 0.7
      vertex 3.55369 10.9371 0.7
      vertex 5.75 9.95929 0.7
    endloop
  endfacet
  facet normal 0 0 1
    outer loop
      vertex 1.35887 12.9288 0.7
      vertex 3.55369 10.9371 0.7
      vertex 4.01722 12.3637 0.7
    endloop
  endfacet
  facet normal 0 0 1
    outer loop
      vertex 1.35887 12.9288 0.7
      vertex 1.20208 11.437 0.7
      vertex 3.55369 10.9371 0.7
    endloop
  endfacet
  facet normal 0 0 1
    outer loop
      vertex 1.35887 12.9288 0.7
      vertex -1.20208 11.437 0.7
      vertex 1.20208 11.437 0.7
    endloop
  endfacet
  facet normal -0 0 1
    outer loop
      vertex -1.35887 12.9288 0.7
      vertex -1.20208 11.437 0.7
      vertex 1.35887 12.9288 0.7
    endloop
  endfacet
  facet normal 0 0 1
    outer loop
      vertex -1.35887 12.9288 0.7
      vertex -3.55369 10.9371 0.7
      vertex -1.20208 11.437 0.7
    endloop
  endfacet
  facet normal -0 0 1
    outer loop
      vertex -4.01722 12.3637 0.7
      vertex -3.55369 10.9371 0.7
      vertex -1.35887 12.9288 0.7
    endloop
  endfacet
  facet normal 0 0 1
    outer loop
      vertex -4.01722 12.3637 0.7
      vertex -5.75 9.95929 0.7
      vertex -3.55369 10.9371 0.7
    endloop
  endfacet
  facet normal -0 0 1
    outer loop
      vertex -6.5 11.2583 0.7
      vertex -5.75 9.95929 0.7
      vertex -4.01722 12.3637 0.7
    endloop
  endfacet
  facet normal 0 0 1
    outer loop
      vertex -6.5 11.2583 0.7
      vertex -7.695 8.54617 0.7
      vertex -5.75 9.95929 0.7
    endloop
  endfacet
  facet normal -0 0 1
    outer loop
      vertex -8.6987 9.66088 0.7
      vertex -7.695 8.54617 0.7
      vertex -6.5 11.2583 0.7
    endloop
  endfacet
  facet normal 0 0 1
    outer loop
      vertex -8.6987 9.66088 0.7
      vertex -9.30369 6.75953 0.7
      vertex -7.695 8.54617 0.7
    endloop
  endfacet
  facet normal -0 0 1
    outer loop
      vertex -10.5172 7.64121 0.7
      vertex -9.30369 6.75953 0.7
      vertex -8.6987 9.66088 0.7
    endloop
  endfacet
  facet normal 0 0 1
    outer loop
      vertex -9.30369 6.75953 0.7
      vertex -10.5172 7.64121 0.7
      vertex -10.5058 4.67747 0.7
    endloop
  endfacet
  facet normal -0 0 1
    outer loop
      vertex -11.8761 5.28758 0.7
      vertex -10.5058 4.67747 0.7
      vertex -10.5172 7.64121 0.7
    endloop
  endfacet
  facet normal -0 0 1
    outer loop
      vertex -12.7159 2.70285 0.7
      vertex -11.2487 2.39098 0.7
      vertex -11.8761 5.28758 0.7
    endloop
  endfacet
  facet normal 0 0 1
    outer loop
      vertex -10.5058 4.67747 0.7
      vertex -11.8761 5.28758 0.7
      vertex -11.2487 2.39098 0.7
    endloop
  endfacet
  facet normal 0 0 1
    outer loop
      vertex 12.7159 -2.70285 0.7
      vertex 11.2487 -2.39098 0.7
      vertex 11.8761 -5.28758 0.7
    endloop
  endfacet
  facet normal -0 0 1
    outer loop
      vertex 10.5058 -4.67747 0.7
      vertex 11.8761 -5.28758 0.7
      vertex 11.2487 -2.39098 0.7
    endloop
  endfacet
  facet normal 0 0 1
    outer loop
      vertex 11.8761 -5.28758 0.7
      vertex 10.5058 -4.67747 0.7
      vertex 10.5172 -7.64121 0.7
    endloop
  endfacet
  facet normal -0 0 1
    outer loop
      vertex 9.30369 -6.75953 0.7
      vertex 10.5172 -7.64121 0.7
      vertex 10.5058 -4.67747 0.7
    endloop
  endfacet
  facet normal 0 0 1
    outer loop
      vertex 9.30369 -6.75953 0.7
      vertex 8.6987 -9.66088 0.7
      vertex 10.5172 -7.64121 0.7
    endloop
  endfacet
  facet normal -0 0 1
    outer loop
      vertex 7.695 -8.54617 0.7
      vertex 8.6987 -9.66088 0.7
      vertex 9.30369 -6.75953 0.7
    endloop
  endfacet
  facet normal 0 0 1
    outer loop
      vertex 7.695 -8.54617 0.7
      vertex 6.5 -11.2583 0.7
      vertex 8.6987 -9.66088 0.7
    endloop
  endfacet
  facet normal -0 0 1
    outer loop
      vertex 5.75 -9.95929 0.7
      vertex 6.5 -11.2583 0.7
      vertex 7.695 -8.54617 0.7
    endloop
  endfacet
  facet normal 0 0 1
    outer loop
      vertex 5.75 -9.95929 0.7
      vertex 4.01722 -12.3637 0.7
      vertex 6.5 -11.2583 0.7
    endloop
  endfacet
  facet normal -0 0 1
    outer loop
      vertex 3.55369 -10.9371 0.7
      vertex 4.01722 -12.3637 0.7
      vertex 5.75 -9.95929 0.7
    endloop
  endfacet
  facet normal 0 0 1
    outer loop
      vertex 3.55369 -10.9371 0.7
      vertex 1.35887 -12.9288 0.7
      vertex 4.01722 -12.3637 0.7
    endloop
  endfacet
  facet normal -0 0 1
    outer loop
      vertex 1.20208 -11.437 0.7
      vertex 1.35887 -12.9288 0.7
      vertex 3.55369 -10.9371 0.7
    endloop
  endfacet
  facet normal -0 0 1
    outer loop
      vertex -1.20208 -11.437 0.7
      vertex 1.35887 -12.9288 0.7
      vertex 1.20208 -11.437 0.7
    endloop
  endfacet
  facet normal 0 0 1
    outer loop
      vertex -1.20208 -11.437 0.7
      vertex -1.35887 -12.9288 0.7
      vertex 1.35887 -12.9288 0.7
    endloop
  endfacet
  facet normal 0 0 1
    outer loop
      vertex -3.55369 -10.9371 0.7
      vertex -1.35887 -12.9288 0.7
      vertex -1.20208 -11.437 0.7
    endloop
  endfacet
  facet normal 0 0 1
    outer loop
      vertex -3.55369 -10.9371 0.7
      vertex -4.01722 -12.3637 0.7
      vertex -1.35887 -12.9288 0.7
    endloop
  endfacet
  facet normal 0 0 1
    outer loop
      vertex -5.75 -9.95929 0.7
      vertex -4.01722 -12.3637 0.7
      vertex -3.55369 -10.9371 0.7
    endloop
  endfacet
  facet normal 0 0 1
    outer loop
      vertex -5.75 -9.95929 0.7
      vertex -6.5 -11.2583 0.7
      vertex -4.01722 -12.3637 0.7
    endloop
  endfacet
  facet normal 0 0 1
    outer loop
      vertex -7.695 -8.54617 0.7
      vertex -6.5 -11.2583 0.7
      vertex -5.75 -9.95929 0.7
    endloop
  endfacet
  facet normal 0 0 1
    outer loop
      vertex -7.695 -8.54617 0.7
      vertex -8.6987 -9.66088 0.7
      vertex -6.5 -11.2583 0.7
    endloop
  endfacet
  facet normal 0 0 1
    outer loop
      vertex -9.30369 -6.75953 0.7
      vertex -8.6987 -9.66088 0.7
      vertex -7.695 -8.54617 0.7
    endloop
  endfacet
  facet normal 0 0 1
    outer loop
      vertex -10.5172 -7.64121 0.7
      vertex -9.30369 -6.75953 0.7
      vertex -10.5058 -4.67747 0.7
    endloop
  endfacet
  facet normal 0 0 1
    outer loop
      vertex -9.30369 -6.75953 0.7
      vertex -10.5172 -7.64121 0.7
      vertex -8.6987 -9.66088 0.7
    endloop
  endfacet
  facet normal 0 0 1
    outer loop
      vertex -11.8761 -5.28758 0.7
      vertex -10.5058 -4.67747 0.7
      vertex -11.2487 -2.39098 0.7
    endloop
  endfacet
  facet normal 0 0 1
    outer loop
      vertex -10.5058 -4.67747 0.7
      vertex -11.8761 -5.28758 0.7
      vertex -10.5172 -7.64121 0.7
    endloop
  endfacet
  facet normal 0 0 1
    outer loop
      vertex -12.7159 -2.70285 0.7
      vertex -11.2487 -2.39098 0.7
      vertex -11.5 0 0.7
    endloop
  endfacet
  facet normal 0 0 1
    outer loop
      vertex -11.2487 2.39098 0.7
      vertex -12.7159 2.70285 0.7
      vertex -11.5 0 0.7
    endloop
  endfacet
  facet normal 0 0 1
    outer loop
      vertex -13 0 0.7
      vertex -11.5 0 0.7
      vertex -12.7159 2.70285 0.7
    endloop
  endfacet
  facet normal 0 0 1
    outer loop
      vertex -11.2487 -2.39098 0.7
      vertex -12.7159 -2.70285 0.7
      vertex -11.8761 -5.28758 0.7
    endloop
  endfacet
  facet normal 0 0 1
    outer loop
      vertex -11.5 0 0.7
      vertex -13 0 0.7
      vertex -12.7159 -2.70285 0.7
    endloop
  endfacet
  facet normal -0.587785 0.809017 0
    outer loop
      vertex 8.6987 -9.66088 0.7
      vertex 6.5 -11.2583 1.7
      vertex 8.6987 -9.66088 1.7
    endloop
  endfacet
  facet normal -0.587785 0.809017 0
    outer loop
      vertex 6.5 -11.2583 1.7
      vertex 8.6987 -9.66088 0.7
      vertex 6.5 -11.2583 0.7
    endloop
  endfacet
  facet normal -0.406737 0.913545 0
    outer loop
      vertex 6.5 -11.2583 0.7
      vertex 4.01722 -12.3637 1.7
      vertex 6.5 -11.2583 1.7
    endloop
  endfacet
  facet normal -0.406737 0.913545 0
    outer loop
      vertex 4.01722 -12.3637 1.7
      vertex 6.5 -11.2583 0.7
      vertex 4.01722 -12.3637 0.7
    endloop
  endfacet
  facet normal 0.207912 0.978148 -0
    outer loop
      vertex -1.35887 -12.9288 0.7
      vertex -4.01722 -12.3637 1.7
      vertex -1.35887 -12.9288 1.7
    endloop
  endfacet
  facet normal 0.207912 0.978148 0
    outer loop
      vertex -4.01722 -12.3637 1.7
      vertex -1.35887 -12.9288 0.7
      vertex -4.01722 -12.3637 0.7
    endloop
  endfacet
  facet normal 0.743145 0.669131 0
    outer loop
      vertex -8.6987 -9.66088 1.7
      vertex -10.5172 -7.64121 0.7
      vertex -10.5172 -7.64121 1.7
    endloop
  endfacet
  facet normal 0.743145 0.669131 0
    outer loop
      vertex -10.5172 -7.64121 0.7
      vertex -8.6987 -9.66088 1.7
      vertex -8.6987 -9.66088 0.7
    endloop
  endfacet
  facet normal 0.866025 0.5 0
    outer loop
      vertex -10.5172 -7.64121 1.7
      vertex -11.8761 -5.28758 0.7
      vertex -11.8761 -5.28758 1.7
    endloop
  endfacet
  facet normal 0.866025 0.5 0
    outer loop
      vertex -11.8761 -5.28758 0.7
      vertex -10.5172 -7.64121 1.7
      vertex -10.5172 -7.64121 0.7
    endloop
  endfacet
  facet normal 0.951056 0.309017 0
    outer loop
      vertex -11.8761 -5.28758 1.7
      vertex -12.7159 -2.70285 0.7
      vertex -12.7159 -2.70285 1.7
    endloop
  endfacet
  facet normal 0.951056 0.309017 0
    outer loop
      vertex -12.7159 -2.70285 0.7
      vertex -11.8761 -5.28758 1.7
      vertex -11.8761 -5.28758 0.7
    endloop
  endfacet
  facet normal 0.994522 0.104529 0
    outer loop
      vertex -12.7159 -2.70285 1.7
      vertex -13 0 0.7
      vertex -13 0 1.7
    endloop
  endfacet
  facet normal 0.994522 0.104529 0
    outer loop
      vertex -13 0 0.7
      vertex -12.7159 -2.70285 1.7
      vertex -12.7159 -2.70285 0.7
    endloop
  endfacet
  facet normal -0.743145 0.669131 0
    outer loop
      vertex 8.6987 -9.66088 0.7
      vertex 10.5172 -7.64121 1.7
      vertex 10.5172 -7.64121 0.7
    endloop
  endfacet
  facet normal -0.743145 0.669131 0
    outer loop
      vertex 10.5172 -7.64121 1.7
      vertex 8.6987 -9.66088 0.7
      vertex 8.6987 -9.66088 1.7
    endloop
  endfacet
  facet normal 0.406737 0.913545 -0
    outer loop
      vertex -4.01722 -12.3637 0.7
      vertex -6.5 -11.2583 1.7
      vertex -4.01722 -12.3637 1.7
    endloop
  endfacet
  facet normal 0.406737 0.913545 0
    outer loop
      vertex -6.5 -11.2583 1.7
      vertex -4.01722 -12.3637 0.7
      vertex -6.5 -11.2583 0.7
    endloop
  endfacet
  facet normal 0.587785 0.809017 -0
    outer loop
      vertex -6.5 -11.2583 0.7
      vertex -8.6987 -9.66088 1.7
      vertex -6.5 -11.2583 1.7
    endloop
  endfacet
  facet normal 0.587785 0.809017 0
    outer loop
      vertex -8.6987 -9.66088 1.7
      vertex -6.5 -11.2583 0.7
      vertex -8.6987 -9.66088 0.7
    endloop
  endfacet
  facet normal -0.994522 -0.104529 0
    outer loop
      vertex 11.5 0 0
      vertex 11.2487 2.39098 0.7
      vertex 11.2487 2.39098 0
    endloop
  endfacet
  facet normal -0.994522 -0.104529 0
    outer loop
      vertex 11.2487 2.39098 0.7
      vertex 11.5 0 0
      vertex 11.5 0 0.7
    endloop
  endfacet
  facet normal 0.994522 -0.104529 0
    outer loop
      vertex -11.5 0 0.7
      vertex -11.2487 2.39098 0
      vertex -11.2487 2.39098 0.7
    endloop
  endfacet
  facet normal 0.994522 -0.104529 0
    outer loop
      vertex -11.2487 2.39098 0
      vertex -11.5 0 0.7
      vertex -11.5 0 0
    endloop
  endfacet
  facet normal 0 -1 0
    outer loop
      vertex -1.20208 11.437 0
      vertex 1.20208 11.437 0.7
      vertex -1.20208 11.437 0.7
    endloop
  endfacet
  facet normal 0 -1 -0
    outer loop
      vertex 1.20208 11.437 0.7
      vertex -1.20208 11.437 0
      vertex 1.20208 11.437 0
    endloop
  endfacet
  facet normal -0.743145 -0.66913 0
    outer loop
      vertex 9.30369 6.75953 0
      vertex 7.695 8.54617 0.7
      vertex 7.695 8.54617 0
    endloop
  endfacet
  facet normal -0.743145 -0.66913 0
    outer loop
      vertex 7.695 8.54617 0.7
      vertex 9.30369 6.75953 0
      vertex 9.30369 6.75953 0.7
    endloop
  endfacet
  facet normal -0.951057 -0.309017 0
    outer loop
      vertex 11.2487 2.39098 0
      vertex 10.5058 4.67747 0.7
      vertex 10.5058 4.67747 0
    endloop
  endfacet
  facet normal -0.951057 -0.309017 0
    outer loop
      vertex 10.5058 4.67747 0.7
      vertex 11.2487 2.39098 0
      vertex 11.2487 2.39098 0.7
    endloop
  endfacet
  facet normal 0.587785 -0.809017 0
    outer loop
      vertex -7.695 8.54617 0
      vertex -5.75 9.95929 0.7
      vertex -7.695 8.54617 0.7
    endloop
  endfacet
  facet normal 0.587785 -0.809017 0
    outer loop
      vertex -5.75 9.95929 0.7
      vertex -7.695 8.54617 0
      vertex -5.75 9.95929 0
    endloop
  endfacet
  facet normal 0.207912 -0.978148 0
    outer loop
      vertex -3.55369 10.9371 0
      vertex -1.20208 11.437 0.7
      vertex -3.55369 10.9371 0.7
    endloop
  endfacet
  facet normal 0.207912 -0.978148 0
    outer loop
      vertex -1.20208 11.437 0.7
      vertex -3.55369 10.9371 0
      vertex -1.20208 11.437 0
    endloop
  endfacet
  facet normal -0.866025 0.5 0
    outer loop
      vertex 9.30369 -6.75953 0
      vertex 10.5058 -4.67747 0.7
      vertex 10.5058 -4.67747 0
    endloop
  endfacet
  facet normal -0.866025 0.5 0
    outer loop
      vertex 10.5058 -4.67747 0.7
      vertex 9.30369 -6.75953 0
      vertex 9.30369 -6.75953 0.7
    endloop
  endfacet
  facet normal -0.866025 -0.5 0
    outer loop
      vertex 10.5058 4.67747 0
      vertex 9.30369 6.75953 0.7
      vertex 9.30369 6.75953 0
    endloop
  endfacet
  facet normal -0.866025 -0.5 0
    outer loop
      vertex 9.30369 6.75953 0.7
      vertex 10.5058 4.67747 0
      vertex 10.5058 4.67747 0.7
    endloop
  endfacet
  facet normal -0.406736 -0.913546 0
    outer loop
      vertex 3.55369 10.9371 0
      vertex 5.75 9.95929 0.7
      vertex 3.55369 10.9371 0.7
    endloop
  endfacet
  facet normal -0.406736 -0.913546 -0
    outer loop
      vertex 5.75 9.95929 0.7
      vertex 3.55369 10.9371 0
      vertex 5.75 9.95929 0
    endloop
  endfacet
  facet normal -0.207912 -0.978148 0
    outer loop
      vertex 1.20208 11.437 0
      vertex 3.55369 10.9371 0.7
      vertex 1.20208 11.437 0.7
    endloop
  endfacet
  facet normal -0.207912 -0.978148 -0
    outer loop
      vertex 3.55369 10.9371 0.7
      vertex 1.20208 11.437 0
      vertex 3.55369 10.9371 0
    endloop
  endfacet
  facet normal -0.587785 -0.809017 0
    outer loop
      vertex 5.75 9.95929 0
      vertex 7.695 8.54617 0.7
      vertex 5.75 9.95929 0.7
    endloop
  endfacet
  facet normal -0.587785 -0.809017 -0
    outer loop
      vertex 7.695 8.54617 0.7
      vertex 5.75 9.95929 0
      vertex 7.695 8.54617 0
    endloop
  endfacet
  facet normal 0.866025 -0.5 0
    outer loop
      vertex -10.5058 4.67747 0.7
      vertex -9.30369 6.75953 0
      vertex -9.30369 6.75953 0.7
    endloop
  endfacet
  facet normal 0.866025 -0.5 0
    outer loop
      vertex -9.30369 6.75953 0
      vertex -10.5058 4.67747 0.7
      vertex -10.5058 4.67747 0
    endloop
  endfacet
  facet normal 0.743145 -0.66913 0
    outer loop
      vertex -9.30369 6.75953 0.7
      vertex -7.695 8.54617 0
      vertex -7.695 8.54617 0.7
    endloop
  endfacet
  facet normal 0.743145 -0.66913 0
    outer loop
      vertex -7.695 8.54617 0
      vertex -9.30369 6.75953 0.7
      vertex -9.30369 6.75953 0
    endloop
  endfacet
  facet normal 0.951057 -0.309017 0
    outer loop
      vertex -11.2487 2.39098 0.7
      vertex -10.5058 4.67747 0
      vertex -10.5058 4.67747 0.7
    endloop
  endfacet
  facet normal 0.951057 -0.309017 0
    outer loop
      vertex -10.5058 4.67747 0
      vertex -11.2487 2.39098 0.7
      vertex -11.2487 2.39098 0
    endloop
  endfacet
  facet normal 0.406737 -0.913545 0
    outer loop
      vertex -5.75 9.95929 0
      vertex -3.55369 10.9371 0.7
      vertex -5.75 9.95929 0.7
    endloop
  endfacet
  facet normal 0.406737 -0.913545 0
    outer loop
      vertex -3.55369 10.9371 0.7
      vertex -5.75 9.95929 0
      vertex -3.55369 10.9371 0
    endloop
  endfacet
  facet normal -0.994522 0.104529 0
    outer loop
      vertex 11.2487 -2.39098 0
      vertex 11.5 0 0.7
      vertex 11.5 0 0
    endloop
  endfacet
  facet normal -0.994522 0.104529 0
    outer loop
      vertex 11.5 0 0.7
      vertex 11.2487 -2.39098 0
      vertex 11.2487 -2.39098 0.7
    endloop
  endfacet
  facet normal 0.207912 0.978148 -0
    outer loop
      vertex -1.20208 -11.437 0
      vertex -3.55369 -10.9371 0.7
      vertex -1.20208 -11.437 0.7
    endloop
  endfacet
  facet normal 0.207912 0.978148 0
    outer loop
      vertex -3.55369 -10.9371 0.7
      vertex -1.20208 -11.437 0
      vertex -3.55369 -10.9371 0
    endloop
  endfacet
  facet normal -0.587785 0.809017 0
    outer loop
      vertex 7.695 -8.54617 0
      vertex 5.75 -9.95929 0.7
      vertex 7.695 -8.54617 0.7
    endloop
  endfacet
  facet normal -0.587785 0.809017 0
    outer loop
      vertex 5.75 -9.95929 0.7
      vertex 7.695 -8.54617 0
      vertex 5.75 -9.95929 0
    endloop
  endfacet
  facet normal -0.743145 0.66913 0
    outer loop
      vertex 7.695 -8.54617 0
      vertex 9.30369 -6.75953 0.7
      vertex 9.30369 -6.75953 0
    endloop
  endfacet
  facet normal -0.743145 0.66913 0
    outer loop
      vertex 9.30369 -6.75953 0.7
      vertex 7.695 -8.54617 0
      vertex 7.695 -8.54617 0.7
    endloop
  endfacet
  facet normal -0.951057 0.309017 0
    outer loop
      vertex 10.5058 -4.67747 0
      vertex 11.2487 -2.39098 0.7
      vertex 11.2487 -2.39098 0
    endloop
  endfacet
  facet normal -0.951057 0.309017 0
    outer loop
      vertex 11.2487 -2.39098 0.7
      vertex 10.5058 -4.67747 0
      vertex 10.5058 -4.67747 0.7
    endloop
  endfacet
  facet normal 0.866025 0.5 0
    outer loop
      vertex -9.30369 -6.75953 0.7
      vertex -10.5058 -4.67747 0
      vertex -10.5058 -4.67747 0.7
    endloop
  endfacet
  facet normal 0.866025 0.5 0
    outer loop
      vertex -10.5058 -4.67747 0
      vertex -9.30369 -6.75953 0.7
      vertex -9.30369 -6.75953 0
    endloop
  endfacet
  facet normal 0.994522 0.104529 0
    outer loop
      vertex -11.2487 -2.39098 0.7
      vertex -11.5 0 0
      vertex -11.5 0 0.7
    endloop
  endfacet
  facet normal 0.994522 0.104529 0
    outer loop
      vertex -11.5 0 0
      vertex -11.2487 -2.39098 0.7
      vertex -11.2487 -2.39098 0
    endloop
  endfacet
  facet normal 0.951057 0.309017 0
    outer loop
      vertex -10.5058 -4.67747 0.7
      vertex -11.2487 -2.39098 0
      vertex -11.2487 -2.39098 0.7
    endloop
  endfacet
  facet normal 0.951057 0.309017 0
    outer loop
      vertex -11.2487 -2.39098 0
      vertex -10.5058 -4.67747 0.7
      vertex -10.5058 -4.67747 0
    endloop
  endfacet
  facet normal -0.207912 0.978148 0
    outer loop
      vertex 3.55369 -10.9371 0
      vertex 1.20208 -11.437 0.7
      vertex 3.55369 -10.9371 0.7
    endloop
  endfacet
  facet normal -0.207912 0.978148 0
    outer loop
      vertex 1.20208 -11.437 0.7
      vertex 3.55369 -10.9371 0
      vertex 1.20208 -11.437 0
    endloop
  endfacet
  facet normal 0 1 -0
    outer loop
      vertex 1.20208 -11.437 0
      vertex -1.20208 -11.437 0.7
      vertex 1.20208 -11.437 0.7
    endloop
  endfacet
  facet normal 0 1 0
    outer loop
      vertex -1.20208 -11.437 0.7
      vertex 1.20208 -11.437 0
      vertex -1.20208 -11.437 0
    endloop
  endfacet
  facet normal 0.587785 0.809017 -0
    outer loop
      vertex -5.75 -9.95929 0
      vertex -7.695 -8.54617 0.7
      vertex -5.75 -9.95929 0.7
    endloop
  endfacet
  facet normal 0.587785 0.809017 0
    outer loop
      vertex -7.695 -8.54617 0.7
      vertex -5.75 -9.95929 0
      vertex -7.695 -8.54617 0
    endloop
  endfacet
  facet normal 0.406736 0.913546 -0
    outer loop
      vertex -3.55369 -10.9371 0
      vertex -5.75 -9.95929 0.7
      vertex -3.55369 -10.9371 0.7
    endloop
  endfacet
  facet normal 0.406736 0.913546 0
    outer loop
      vertex -5.75 -9.95929 0.7
      vertex -3.55369 -10.9371 0
      vertex -5.75 -9.95929 0
    endloop
  endfacet
  facet normal 0.743145 0.66913 0
    outer loop
      vertex -7.695 -8.54617 0.7
      vertex -9.30369 -6.75953 0
      vertex -9.30369 -6.75953 0.7
    endloop
  endfacet
  facet normal 0.743145 0.66913 0
    outer loop
      vertex -9.30369 -6.75953 0
      vertex -7.695 -8.54617 0.7
      vertex -7.695 -8.54617 0
    endloop
  endfacet
  facet normal -0.406736 0.913546 0
    outer loop
      vertex 5.75 -9.95929 0
      vertex 3.55369 -10.9371 0.7
      vertex 5.75 -9.95929 0.7
    endloop
  endfacet
  facet normal -0.406736 0.913546 0
    outer loop
      vertex 3.55369 -10.9371 0.7
      vertex 5.75 -9.95929 0
      vertex 3.55369 -10.9371 0
    endloop
  endfacet
endsolid OpenSCAD_Model
