solid OpenSCAD_Model
  facet normal 0.980785 0.19509 0
    outer loop
      vertex 3.44145 1.4255 13.4417
      vertex 3.57582 0.75 3.75
      vertex 3.44145 1.4255 0
    endloop
  endfacet
  facet normal 0.980785 0.19509 -0
    outer loop
      vertex 3.725 0 4.5
      vertex 3.44145 1.4255 13.4417
      vertex 3.725 0 13.4417
    endloop
  endfacet
  facet normal 0.980785 0.19509 -1.5813e-008
    outer loop
      vertex 3.44145 1.4255 13.4417
      vertex 3.725 0 4.5
      vertex 3.57582 0.75 3.75
    endloop
  endfacet
  facet normal 0.980785 0.19509 -0
    outer loop
      vertex 3.57582 0.75 0.75
      vertex 3.44145 1.4255 0
      vertex 3.57582 0.75 3.75
    endloop
  endfacet
  facet normal 0.980785 0.19509 -0
    outer loop
      vertex 3.725 0 0
      vertex 3.57582 0.75 0.75
      vertex 3.725 0 0.75
    endloop
  endfacet
  facet normal 0.980785 0.19509 1.15003e-007
    outer loop
      vertex 3.57582 0.75 0.75
      vertex 3.725 0 0
      vertex 3.44145 1.4255 0
    endloop
  endfacet
  facet normal -0.980785 0.19509 0
    outer loop
      vertex -3.57582 0.75 3.75
      vertex -3.44145 1.4255 0
      vertex -3.57582 0.75 0.75
    endloop
  endfacet
  facet normal -0.980785 0.19509 1.15003e-007
    outer loop
      vertex -3.725 0 0
      vertex -3.57582 0.75 0.75
      vertex -3.44145 1.4255 0
    endloop
  endfacet
  facet normal -0.980785 0.19509 0
    outer loop
      vertex -3.57582 0.75 0.75
      vertex -3.725 0 0
      vertex -3.725 0 0.75
    endloop
  endfacet
  facet normal -0.980785 0.19509 0
    outer loop
      vertex -3.44145 1.4255 0
      vertex -3.57582 0.75 3.75
      vertex -3.44145 1.4255 13.4417
    endloop
  endfacet
  facet normal -0.980785 0.19509 -1.5813e-008
    outer loop
      vertex -3.725 0 4.5
      vertex -3.44145 1.4255 13.4417
      vertex -3.57582 0.75 3.75
    endloop
  endfacet
  facet normal -0.980785 0.19509 0
    outer loop
      vertex -3.44145 1.4255 13.4417
      vertex -3.725 0 4.5
      vertex -3.725 0 13.4417
    endloop
  endfacet
  facet normal -0.19509 0.980785 0
    outer loop
      vertex 0 3.725 0
      vertex -1.4255 3.44145 13.4417
      vertex 0 3.725 13.4417
    endloop
  endfacet
  facet normal -0.19509 0.980785 0
    outer loop
      vertex -1.4255 3.44145 13.4417
      vertex 0 3.725 0
      vertex -1.4255 3.44145 0
    endloop
  endfacet
  facet normal -0.55557 0.831469 0
    outer loop
      vertex -1.4255 3.44145 0
      vertex -2.63397 2.63397 13.4417
      vertex -1.4255 3.44145 13.4417
    endloop
  endfacet
  facet normal -0.55557 0.831469 0
    outer loop
      vertex -2.63397 2.63397 13.4417
      vertex -1.4255 3.44145 0
      vertex -2.63397 2.63397 0
    endloop
  endfacet
  facet normal 0.831469 0.55557 0
    outer loop
      vertex 3.44145 1.4255 13.4417
      vertex 2.63397 2.63397 0
      vertex 2.63397 2.63397 13.4417
    endloop
  endfacet
  facet normal 0.831469 0.55557 0
    outer loop
      vertex 2.63397 2.63397 0
      vertex 3.44145 1.4255 13.4417
      vertex 3.44145 1.4255 0
    endloop
  endfacet
  facet normal -0.55557 -0.831469 0
    outer loop
      vertex -2.63397 -2.63397 13.4417
      vertex -1.4255 -3.44145 7.94145
      vertex -1.4255 -3.44145 13.4417
    endloop
  endfacet
  facet normal -0.55557 -0.831469 0
    outer loop
      vertex -1.4255 -3.44145 7.94145
      vertex -2.63397 -2.63397 13.4417
      vertex -2.63397 -2.63397 7.13397
    endloop
  endfacet
  facet normal -0.55557 -0.831469 0
    outer loop
      vertex -1.4255 -3.44145 0
      vertex -2.63397 -2.63397 2.63397
      vertex -2.63397 -2.63397 0
    endloop
  endfacet
  facet normal -0.55557 -0.831469 0
    outer loop
      vertex -2.63397 -2.63397 2.63397
      vertex -1.4255 -3.44145 0
      vertex -1.4255 -3.44145 3.44145
    endloop
  endfacet
  facet normal -0.831469 -0.55557 0
    outer loop
      vertex -2.63397 -2.63397 7.13397
      vertex -3.44145 -1.4255 13.4417
      vertex -3.44145 -1.4255 5.9255
    endloop
  endfacet
  facet normal -0.831469 -0.55557 0
    outer loop
      vertex -3.44145 -1.4255 13.4417
      vertex -2.63397 -2.63397 7.13397
      vertex -2.63397 -2.63397 13.4417
    endloop
  endfacet
  facet normal -0.831469 -0.55557 0
    outer loop
      vertex -2.63397 -2.63397 0
      vertex -3.44145 -1.4255 1.4255
      vertex -3.44145 -1.4255 0
    endloop
  endfacet
  facet normal -0.831469 -0.55557 0
    outer loop
      vertex -3.44145 -1.4255 1.4255
      vertex -2.63397 -2.63397 0
      vertex -2.63397 -2.63397 2.63397
    endloop
  endfacet
  facet normal 0.980785 -0.19509 0
    outer loop
      vertex 3.44145 -1.4255 5.9255
      vertex 3.725 0 13.4417
      vertex 3.44145 -1.4255 13.4417
    endloop
  endfacet
  facet normal 0.980785 -0.19509 0
    outer loop
      vertex 3.725 0 13.4417
      vertex 3.44145 -1.4255 5.9255
      vertex 3.725 0 4.5
    endloop
  endfacet
  facet normal 0.980785 -0.19509 0
    outer loop
      vertex 3.57582 -0.75 0.75
      vertex 3.725 0 0
      vertex 3.725 0 0.75
    endloop
  endfacet
  facet normal 0.980785 -0.19509 0
    outer loop
      vertex 3.44145 -1.4255 0
      vertex 3.57582 -0.75 0.75
      vertex 3.44145 -1.4255 1.4255
    endloop
  endfacet
  facet normal 0.980785 -0.19509 1.15003e-007
    outer loop
      vertex 3.57582 -0.75 0.75
      vertex 3.44145 -1.4255 0
      vertex 3.725 0 0
    endloop
  endfacet
  facet normal 0.19509 0.980785 -0
    outer loop
      vertex 1.4255 3.44145 0
      vertex 0 3.725 13.4417
      vertex 1.4255 3.44145 13.4417
    endloop
  endfacet
  facet normal 0.19509 0.980785 0
    outer loop
      vertex 0 3.725 13.4417
      vertex 1.4255 3.44145 0
      vertex 0 3.725 0
    endloop
  endfacet
  facet normal -0.980785 -0.19509 0
    outer loop
      vertex -3.44145 -1.4255 5.9255
      vertex -3.725 0 13.4417
      vertex -3.725 0 4.5
    endloop
  endfacet
  facet normal -0.980785 -0.19509 0
    outer loop
      vertex -3.725 0 13.4417
      vertex -3.44145 -1.4255 5.9255
      vertex -3.44145 -1.4255 13.4417
    endloop
  endfacet
  facet normal -0.980785 -0.19509 0
    outer loop
      vertex -3.725 0 0
      vertex -3.57582 -0.75 0.75
      vertex -3.725 0 0.75
    endloop
  endfacet
  facet normal -0.980785 -0.19509 1.15003e-007
    outer loop
      vertex -3.44145 -1.4255 0
      vertex -3.57582 -0.75 0.75
      vertex -3.725 0 0
    endloop
  endfacet
  facet normal -0.980785 -0.19509 0
    outer loop
      vertex -3.57582 -0.75 0.75
      vertex -3.44145 -1.4255 0
      vertex -3.44145 -1.4255 1.4255
    endloop
  endfacet
  facet normal 0.55557 -0.831469 0
    outer loop
      vertex 1.4255 -3.44145 7.94145
      vertex 2.63397 -2.63397 13.4417
      vertex 1.4255 -3.44145 13.4417
    endloop
  endfacet
  facet normal 0.55557 -0.831469 0
    outer loop
      vertex 2.63397 -2.63397 13.4417
      vertex 1.4255 -3.44145 7.94145
      vertex 2.63397 -2.63397 7.13397
    endloop
  endfacet
  facet normal 0.55557 -0.831469 0
    outer loop
      vertex 1.4255 -3.44145 0
      vertex 2.63397 -2.63397 2.63397
      vertex 1.4255 -3.44145 3.44145
    endloop
  endfacet
  facet normal 0.55557 -0.831469 0
    outer loop
      vertex 2.63397 -2.63397 2.63397
      vertex 1.4255 -3.44145 0
      vertex 2.63397 -2.63397 0
    endloop
  endfacet
  facet normal 0.831469 -0.55557 0
    outer loop
      vertex 2.63397 -2.63397 7.13397
      vertex 3.44145 -1.4255 13.4417
      vertex 2.63397 -2.63397 13.4417
    endloop
  endfacet
  facet normal 0.831469 -0.55557 0
    outer loop
      vertex 3.44145 -1.4255 13.4417
      vertex 2.63397 -2.63397 7.13397
      vertex 3.44145 -1.4255 5.9255
    endloop
  endfacet
  facet normal 0.831469 -0.55557 0
    outer loop
      vertex 2.63397 -2.63397 0
      vertex 3.44145 -1.4255 1.4255
      vertex 2.63397 -2.63397 2.63397
    endloop
  endfacet
  facet normal 0.831469 -0.55557 0
    outer loop
      vertex 3.44145 -1.4255 1.4255
      vertex 2.63397 -2.63397 0
      vertex 3.44145 -1.4255 0
    endloop
  endfacet
  facet normal 0.19509 -0.980785 0
    outer loop
      vertex 0 -3.725 8.225
      vertex 1.4255 -3.44145 13.4417
      vertex 0 -3.725 13.4417
    endloop
  endfacet
  facet normal 0.19509 -0.980785 0
    outer loop
      vertex 1.4255 -3.44145 13.4417
      vertex 0 -3.725 8.225
      vertex 1.4255 -3.44145 7.94145
    endloop
  endfacet
  facet normal 0.19509 -0.980785 0
    outer loop
      vertex 0 -3.725 0
      vertex 1.4255 -3.44145 3.44145
      vertex 0 -3.725 3.725
    endloop
  endfacet
  facet normal 0.19509 -0.980785 0
    outer loop
      vertex 1.4255 -3.44145 3.44145
      vertex 0 -3.725 0
      vertex 1.4255 -3.44145 0
    endloop
  endfacet
  facet normal 0.55557 0.831469 -0
    outer loop
      vertex 2.63397 2.63397 0
      vertex 1.4255 3.44145 13.4417
      vertex 2.63397 2.63397 13.4417
    endloop
  endfacet
  facet normal 0.55557 0.831469 0
    outer loop
      vertex 1.4255 3.44145 13.4417
      vertex 2.63397 2.63397 0
      vertex 1.4255 3.44145 0
    endloop
  endfacet
  facet normal -0.831469 0.55557 0
    outer loop
      vertex -3.44145 1.4255 0
      vertex -2.63397 2.63397 13.4417
      vertex -2.63397 2.63397 0
    endloop
  endfacet
  facet normal -0.831469 0.55557 0
    outer loop
      vertex -2.63397 2.63397 13.4417
      vertex -3.44145 1.4255 0
      vertex -3.44145 1.4255 13.4417
    endloop
  endfacet
  facet normal -0.19509 -0.980785 0
    outer loop
      vertex -1.4255 -3.44145 13.4417
      vertex 0 -3.725 8.225
      vertex 0 -3.725 13.4417
    endloop
  endfacet
  facet normal -0.19509 -0.980785 0
    outer loop
      vertex 0 -3.725 8.225
      vertex -1.4255 -3.44145 13.4417
      vertex -1.4255 -3.44145 7.94145
    endloop
  endfacet
  facet normal -0.19509 -0.980785 0
    outer loop
      vertex 0 -3.725 0
      vertex -1.4255 -3.44145 3.44145
      vertex -1.4255 -3.44145 0
    endloop
  endfacet
  facet normal -0.19509 -0.980785 0
    outer loop
      vertex -1.4255 -3.44145 3.44145
      vertex 0 -3.725 0
      vertex 0 -3.725 3.725
    endloop
  endfacet
  facet normal 1 -0 0
    outer loop
      vertex 4.01147 -4.4 18.5
      vertex 4.01147 4.4 17.9
      vertex 4.01147 4.4 18.5
    endloop
  endfacet
  facet normal 1 0 0
    outer loop
      vertex 4.01147 4.4 17.9
      vertex 4.01147 -4.4 18.5
      vertex 4.01147 -4.4 17.9
    endloop
  endfacet
  facet normal 0 -1 0
    outer loop
      vertex -4.01147 -4.4 18.5
      vertex 4.01147 -4.4 25
      vertex -4.01147 -4.4 25
    endloop
  endfacet
  facet normal 0 -1 0
    outer loop
      vertex -4.01147 -4.4 18.5
      vertex 4.01147 -4.4 18.5
      vertex 4.01147 -4.4 25
    endloop
  endfacet
  facet normal 0 -1 0
    outer loop
      vertex -4.01147 -4.4 17.9
      vertex 4.01147 -4.4 18.5
      vertex -4.01147 -4.4 18.5
    endloop
  endfacet
  facet normal 0 -1 -0
    outer loop
      vertex 4.01147 -4.4 18.5
      vertex -4.01147 -4.4 17.9
      vertex 4.01147 -4.4 17.9
    endloop
  endfacet
  facet normal -0.750472 0.50145 -0.430511
    outer loop
      vertex -3.44145 1.4255 13.4417
      vertex -4.01147 4.4 17.9
      vertex -2.63397 2.63397 13.4417
    endloop
  endfacet
  facet normal 0.750472 -0.50145 -0.430511
    outer loop
      vertex 4.01147 -4.4 17.9
      vertex 2.63397 -2.63397 13.4417
      vertex 3.44145 -1.4255 13.4417
    endloop
  endfacet
  facet normal -0.18559 -0.933026 -0.308252
    outer loop
      vertex 0 -3.725 13.4417
      vertex -4.01147 -4.4 17.9
      vertex -1.4255 -3.44145 13.4417
    endloop
  endfacet
  facet normal 0 0 1
    outer loop
      vertex 1.59369 0.660129 25
      vertex 5.51147 3.15714 25
      vertex 4.01147 4.4 25
    endloop
  endfacet
  facet normal 0 0 1
    outer loop
      vertex 5.51147 3.15714 25
      vertex 1.725 0 25
      vertex 5.51147 -3.15714 25
    endloop
  endfacet
  facet normal -0 0 1
    outer loop
      vertex 1.59369 -0.660129 25
      vertex 5.51147 -3.15714 25
      vertex 1.725 0 25
    endloop
  endfacet
  facet normal 0 0 1
    outer loop
      vertex 5.51147 3.15714 25
      vertex 1.59369 0.660129 25
      vertex 1.725 0 25
    endloop
  endfacet
  facet normal 0 0 1
    outer loop
      vertex 4.01147 4.4 25
      vertex 1.21976 1.21976 25
      vertex 1.59369 0.660129 25
    endloop
  endfacet
  facet normal 0 0 1
    outer loop
      vertex 4.01147 4.4 25
      vertex 0.660129 1.59369 25
      vertex 1.21976 1.21976 25
    endloop
  endfacet
  facet normal 0 0 1
    outer loop
      vertex 4.01147 4.4 25
      vertex 0 1.725 25
      vertex 0.660129 1.59369 25
    endloop
  endfacet
  facet normal -0 0 1
    outer loop
      vertex -4.01147 4.4 25
      vertex 0 1.725 25
      vertex 4.01147 4.4 25
    endloop
  endfacet
  facet normal -0 0 1
    outer loop
      vertex -5.51147 3.15714 25
      vertex -1.59369 0.660129 25
      vertex -4.01147 4.4 25
    endloop
  endfacet
  facet normal 0 0 1
    outer loop
      vertex -1.21976 1.21976 25
      vertex -4.01147 4.4 25
      vertex -1.59369 0.660129 25
    endloop
  endfacet
  facet normal 0 0 1
    outer loop
      vertex -0.660129 1.59369 25
      vertex -4.01147 4.4 25
      vertex -1.21976 1.21976 25
    endloop
  endfacet
  facet normal 0 0 1
    outer loop
      vertex 0 1.725 25
      vertex -4.01147 4.4 25
      vertex -0.660129 1.59369 25
    endloop
  endfacet
  facet normal 0 0 1
    outer loop
      vertex 5.51147 -3.15714 25
      vertex 1.59369 -0.660129 25
      vertex 4.01147 -4.4 25
    endloop
  endfacet
  facet normal -0 0 1
    outer loop
      vertex 1.21976 -1.21976 25
      vertex 4.01147 -4.4 25
      vertex 1.59369 -0.660129 25
    endloop
  endfacet
  facet normal -0 0 1
    outer loop
      vertex 0.660129 -1.59369 25
      vertex 4.01147 -4.4 25
      vertex 1.21976 -1.21976 25
    endloop
  endfacet
  facet normal -0 0 1
    outer loop
      vertex 0 -1.725 25
      vertex 4.01147 -4.4 25
      vertex 0.660129 -1.59369 25
    endloop
  endfacet
  facet normal 0 0 1
    outer loop
      vertex -4.01147 -4.4 25
      vertex 0 -1.725 25
      vertex -0.660129 -1.59369 25
    endloop
  endfacet
  facet normal 0 0 1
    outer loop
      vertex -1.59369 0.660129 25
      vertex -5.51147 3.15714 25
      vertex -1.725 0 25
    endloop
  endfacet
  facet normal 0 0 1
    outer loop
      vertex 0 -1.725 25
      vertex -4.01147 -4.4 25
      vertex 4.01147 -4.4 25
    endloop
  endfacet
  facet normal 0 0 1
    outer loop
      vertex -1.21976 -1.21976 25
      vertex -4.01147 -4.4 25
      vertex -0.660129 -1.59369 25
    endloop
  endfacet
  facet normal 0 0 1
    outer loop
      vertex -1.59369 -0.660129 25
      vertex -4.01147 -4.4 25
      vertex -1.21976 -1.21976 25
    endloop
  endfacet
  facet normal 0 0 1
    outer loop
      vertex -5.51147 -3.15714 25
      vertex -1.725 0 25
      vertex -5.51147 3.15714 25
    endloop
  endfacet
  facet normal 0 0 1
    outer loop
      vertex -1.725 0 25
      vertex -5.51147 -3.15714 25
      vertex -1.59369 -0.660129 25
    endloop
  endfacet
  facet normal 0 0 1
    outer loop
      vertex -1.59369 -0.660129 25
      vertex -5.51147 -3.15714 25
      vertex -4.01147 -4.4 25
    endloop
  endfacet
  facet normal -0.997942 0 -0.0641241
    outer loop
      vertex -3.725 0 13.4417
      vertex -4.01147 -4.4 17.9
      vertex -4.01147 4.4 17.9
    endloop
  endfacet
  facet normal -0 -0.988732 -0.149697
    outer loop
      vertex 4.01147 -4.4 17.9
      vertex -4.01147 -4.4 17.9
      vertex 0 -3.725 13.4417
    endloop
  endfacet
  facet normal 0.950245 0.189015 -0.247603
    outer loop
      vertex 3.725 0 13.4417
      vertex 3.44145 1.4255 13.4417
      vertex 4.01147 4.4 17.9
    endloop
  endfacet
  facet normal 0.997942 0 -0.0641241
    outer loop
      vertex 4.01147 -4.4 17.9
      vertex 3.725 0 13.4417
      vertex 4.01147 4.4 17.9
    endloop
  endfacet
  facet normal 0 1 0
    outer loop
      vertex 4.01147 4.4 25
      vertex 2.51147 4.4 20.5
      vertex -4.01147 4.4 25
    endloop
  endfacet
  facet normal 0 1 -0
    outer loop
      vertex 4.01147 4.4 18.5
      vertex 2.51147 4.4 20.5
      vertex 4.01147 4.4 25
    endloop
  endfacet
  facet normal 0 1 0
    outer loop
      vertex 2.51147 4.4 17.9
      vertex 4.01147 4.4 18.5
      vertex 4.01147 4.4 17.9
    endloop
  endfacet
  facet normal 0 1 0
    outer loop
      vertex 4.01147 4.4 18.5
      vertex 2.51147 4.4 17.9
      vertex 2.51147 4.4 20.5
    endloop
  endfacet
  facet normal 0 1 -0
    outer loop
      vertex -2.51147 4.4 20.5
      vertex -4.01147 4.4 25
      vertex 2.51147 4.4 20.5
    endloop
  endfacet
  facet normal 0 1 0
    outer loop
      vertex -2.51147 4.4 20.5
      vertex -4.01147 4.4 18.5
      vertex -4.01147 4.4 25
    endloop
  endfacet
  facet normal 0 1 -0
    outer loop
      vertex -2.51147 4.4 17.9
      vertex -4.01147 4.4 18.5
      vertex -2.51147 4.4 20.5
    endloop
  endfacet
  facet normal 0 1 0
    outer loop
      vertex -4.01147 4.4 18.5
      vertex -2.51147 4.4 17.9
      vertex -4.01147 4.4 17.9
    endloop
  endfacet
  facet normal 0 0 0
    outer loop
      vertex 2.51147 4.4 17.9
      vertex 4.01147 4.4 17.9
      vertex -4.01147 4.4 17.9
    endloop
  endfacet
  facet normal 0 0 0
    outer loop
      vertex -4.01147 4.4 17.9
      vertex -2.51147 4.4 17.9
      vertex 2.51147 4.4 17.9
    endloop
  endfacet
  facet normal -1 0 0
    outer loop
      vertex -4.01147 -4.4 17.9
      vertex -4.01147 4.4 18.5
      vertex -4.01147 4.4 17.9
    endloop
  endfacet
  facet normal -1 -0 0
    outer loop
      vertex -4.01147 4.4 18.5
      vertex -4.01147 -4.4 17.9
      vertex -4.01147 -4.4 18.5
    endloop
  endfacet
  facet normal 0.950245 -0.189015 -0.247603
    outer loop
      vertex 4.01147 -4.4 17.9
      vertex 3.44145 -1.4255 13.4417
      vertex 3.725 0 13.4417
    endloop
  endfacet
  facet normal 0 0.988732 -0.149697
    outer loop
      vertex 0 3.725 13.4417
      vertex -4.01147 4.4 17.9
      vertex 4.01147 4.4 17.9
    endloop
  endfacet
  facet normal 0.18559 0.933026 -0.308252
    outer loop
      vertex 1.4255 3.44145 13.4417
      vertex 0 3.725 13.4417
      vertex 4.01147 4.4 17.9
    endloop
  endfacet
  facet normal 0.496715 0.743386 -0.447943
    outer loop
      vertex 2.63397 2.63397 13.4417
      vertex 1.4255 3.44145 13.4417
      vertex 4.01147 4.4 17.9
    endloop
  endfacet
  facet normal 0.750472 0.50145 -0.430511
    outer loop
      vertex 3.44145 1.4255 13.4417
      vertex 2.63397 2.63397 13.4417
      vertex 4.01147 4.4 17.9
    endloop
  endfacet
  facet normal -0.950245 -0.189015 -0.247603
    outer loop
      vertex -3.44145 -1.4255 13.4417
      vertex -4.01147 -4.4 17.9
      vertex -3.725 0 13.4417
    endloop
  endfacet
  facet normal 0.496715 -0.743386 -0.447943
    outer loop
      vertex 4.01147 -4.4 17.9
      vertex 1.4255 -3.44145 13.4417
      vertex 2.63397 -2.63397 13.4417
    endloop
  endfacet
  facet normal 0.18559 -0.933026 -0.308252
    outer loop
      vertex 4.01147 -4.4 17.9
      vertex 0 -3.725 13.4417
      vertex 1.4255 -3.44145 13.4417
    endloop
  endfacet
  facet normal -0.950245 0.189015 -0.247603
    outer loop
      vertex -3.725 0 13.4417
      vertex -4.01147 4.4 17.9
      vertex -3.44145 1.4255 13.4417
    endloop
  endfacet
  facet normal -0.18559 0.933026 -0.308252
    outer loop
      vertex -1.4255 3.44145 13.4417
      vertex -4.01147 4.4 17.9
      vertex 0 3.725 13.4417
    endloop
  endfacet
  facet normal -0.496715 -0.743386 -0.447943
    outer loop
      vertex -1.4255 -3.44145 13.4417
      vertex -4.01147 -4.4 17.9
      vertex -2.63397 -2.63397 13.4417
    endloop
  endfacet
  facet normal -0.750472 -0.50145 -0.430511
    outer loop
      vertex -2.63397 -2.63397 13.4417
      vertex -4.01147 -4.4 17.9
      vertex -3.44145 -1.4255 13.4417
    endloop
  endfacet
  facet normal -0.496715 0.743386 -0.447943
    outer loop
      vertex -2.63397 2.63397 13.4417
      vertex -4.01147 4.4 17.9
      vertex -1.4255 3.44145 13.4417
    endloop
  endfacet
  facet normal -0 0 1
    outer loop
      vertex 8.51147 1.5 25
      vertex 10.0115 -1.5 25
      vertex 10.0115 1.5 25
    endloop
  endfacet
  facet normal 0 0 1
    outer loop
      vertex 10.0115 -1.5 25
      vertex 8.51147 1.5 25
      vertex 8.51147 -1.5 25
    endloop
  endfacet
  facet normal 0.638018 -0.770022 0
    outer loop
      vertex 4.01147 -4.4 25
      vertex 5.51147 -3.15714 24.975
      vertex 5.51147 -3.15714 25
    endloop
  endfacet
  facet normal 0.638018 -0.770022 0
    outer loop
      vertex 4.01147 -4.4 25
      vertex 6.51147 -2.32857 24
      vertex 5.51147 -3.15714 24.975
    endloop
  endfacet
  facet normal 0.638018 -0.770022 0
    outer loop
      vertex 6.51147 -2.32857 24
      vertex 7.51147 -1.5 21
      vertex 7.51147 -1.5 24
    endloop
  endfacet
  facet normal 0.638018 -0.770022 0
    outer loop
      vertex 4.01147 -4.4 18.5
      vertex 6.51147 -2.32857 24
      vertex 4.01147 -4.4 25
    endloop
  endfacet
  facet normal 0.638018 -0.770022 0
    outer loop
      vertex 6.51147 -2.32857 24
      vertex 4.01147 -4.4 18.5
      vertex 7.51147 -1.5 21
    endloop
  endfacet
  facet normal 0.638018 0.770022 0
    outer loop
      vertex 7.51147 1.5 24
      vertex 7.51147 1.5 21
      vertex 6.51147 2.32857 24
    endloop
  endfacet
  facet normal 0.638018 0.770022 -0
    outer loop
      vertex 5.51147 3.15714 24.975
      vertex 4.01147 4.4 25
      vertex 5.51147 3.15714 25
    endloop
  endfacet
  facet normal 0.638018 0.770022 0
    outer loop
      vertex 6.51147 2.32857 24
      vertex 4.01147 4.4 25
      vertex 5.51147 3.15714 24.975
    endloop
  endfacet
  facet normal 0.638018 0.770022 0
    outer loop
      vertex 4.01147 4.4 18.5
      vertex 6.51147 2.32857 24
      vertex 7.51147 1.5 21
    endloop
  endfacet
  facet normal 0.638018 0.770022 0
    outer loop
      vertex 6.51147 2.32857 24
      vertex 4.01147 4.4 18.5
      vertex 4.01147 4.4 25
    endloop
  endfacet
  facet normal 0.581238 0 -0.813733
    outer loop
      vertex 4.01147 -4.4 18.5
      vertex 7.51147 1.5 21
      vertex 7.51147 -1.5 21
    endloop
  endfacet
  facet normal 0.581238 0 -0.813733
    outer loop
      vertex 7.51147 1.5 21
      vertex 4.01147 -4.4 18.5
      vertex 4.01147 4.4 18.5
    endloop
  endfacet
  facet normal 0 -1 0
    outer loop
      vertex 8.51147 -1.5 24.975
      vertex 10.0115 -1.5 25
      vertex 8.51147 -1.5 25
    endloop
  endfacet
  facet normal 0 -1 0
    outer loop
      vertex 8.51147 -1.5 24.975
      vertex 10.0115 -1.5 24.5
      vertex 10.0115 -1.5 25
    endloop
  endfacet
  facet normal 0 -1 0
    outer loop
      vertex 7.51147 -1.5 24
      vertex 10.0115 -1.5 24.5
      vertex 8.51147 -1.5 24.975
    endloop
  endfacet
  facet normal 0 -1 0
    outer loop
      vertex 10.0115 -1.5 24.5
      vertex 7.51147 -1.5 24
      vertex 7.51147 -1.5 21
    endloop
  endfacet
  facet normal 0 1 0
    outer loop
      vertex 10.0115 1.5 25
      vertex 8.51147 1.5 24.975
      vertex 8.51147 1.5 25
    endloop
  endfacet
  facet normal 0 1 -0
    outer loop
      vertex 10.0115 1.5 24.5
      vertex 8.51147 1.5 24.975
      vertex 10.0115 1.5 25
    endloop
  endfacet
  facet normal 0 1 0
    outer loop
      vertex 10.0115 1.5 24.5
      vertex 7.51147 1.5 24
      vertex 8.51147 1.5 24.975
    endloop
  endfacet
  facet normal -0 1 0
    outer loop
      vertex 7.51147 1.5 24
      vertex 10.0115 1.5 24.5
      vertex 7.51147 1.5 21
    endloop
  endfacet
  facet normal 0.813733 0 -0.581238
    outer loop
      vertex 10.0115 -1.5 24.5
      vertex 7.51147 1.5 21
      vertex 10.0115 1.5 24.5
    endloop
  endfacet
  facet normal 0.813733 0 -0.581238
    outer loop
      vertex 7.51147 1.5 21
      vertex 10.0115 -1.5 24.5
      vertex 7.51147 -1.5 21
    endloop
  endfacet
  facet normal 1 -0 0
    outer loop
      vertex 10.0115 -1.5 25
      vertex 10.0115 1.5 24.5
      vertex 10.0115 1.5 25
    endloop
  endfacet
  facet normal 1 0 0
    outer loop
      vertex 10.0115 1.5 24.5
      vertex 10.0115 -1.5 25
      vertex 10.0115 -1.5 24.5
    endloop
  endfacet
  facet normal 1 -0 0
    outer loop
      vertex 5.51147 -3.15714 25
      vertex 5.51147 3.15714 24.975
      vertex 5.51147 3.15714 25
    endloop
  endfacet
  facet normal 1 0 0
    outer loop
      vertex 5.51147 3.15714 24.975
      vertex 5.51147 -3.15714 25
      vertex 5.51147 -3.15714 24.975
    endloop
  endfacet
  facet normal 0.6981 0 0.716
    outer loop
      vertex 5.51147 3.15714 24.975
      vertex 6.51147 -2.32857 24
      vertex 6.51147 2.32857 24
    endloop
  endfacet
  facet normal 0.6981 0 0.716
    outer loop
      vertex 6.51147 -2.32857 24
      vertex 5.51147 3.15714 24.975
      vertex 5.51147 -3.15714 24.975
    endloop
  endfacet
  facet normal 0 0 1
    outer loop
      vertex 6.51147 2.32857 24
      vertex 7.51147 -1.5 24
      vertex 7.51147 1.5 24
    endloop
  endfacet
  facet normal 0 0 1
    outer loop
      vertex 7.51147 -1.5 24
      vertex 6.51147 2.32857 24
      vertex 6.51147 -2.32857 24
    endloop
  endfacet
  facet normal -0.6981 0 0.716
    outer loop
      vertex 7.51147 1.5 24
      vertex 8.51147 -1.5 24.975
      vertex 8.51147 1.5 24.975
    endloop
  endfacet
  facet normal -0.6981 0 0.716
    outer loop
      vertex 8.51147 -1.5 24.975
      vertex 7.51147 1.5 24
      vertex 7.51147 -1.5 24
    endloop
  endfacet
  facet normal -1 0 0
    outer loop
      vertex 8.51147 -1.5 24.975
      vertex 8.51147 1.5 25
      vertex 8.51147 1.5 24.975
    endloop
  endfacet
  facet normal -1 -0 0
    outer loop
      vertex 8.51147 1.5 25
      vertex 8.51147 -1.5 24.975
      vertex 8.51147 -1.5 25
    endloop
  endfacet
  facet normal -0 0 1
    outer loop
      vertex -10.0115 1.5 25
      vertex -8.51147 -1.5 25
      vertex -8.51147 1.5 25
    endloop
  endfacet
  facet normal 0 0 1
    outer loop
      vertex -8.51147 -1.5 25
      vertex -10.0115 1.5 25
      vertex -10.0115 -1.5 25
    endloop
  endfacet
  facet normal -0.638018 -0.770022 -0
    outer loop
      vertex -7.51147 -1.5 24
      vertex -7.51147 -1.5 21
      vertex -6.51147 -2.32857 24
    endloop
  endfacet
  facet normal -0.638018 -0.770022 0
    outer loop
      vertex -5.51147 -3.15714 24.975
      vertex -4.01147 -4.4 25
      vertex -5.51147 -3.15714 25
    endloop
  endfacet
  facet normal -0.638018 -0.770022 0
    outer loop
      vertex -6.51147 -2.32857 24
      vertex -4.01147 -4.4 25
      vertex -5.51147 -3.15714 24.975
    endloop
  endfacet
  facet normal -0.638018 -0.770022 0
    outer loop
      vertex -4.01147 -4.4 18.5
      vertex -6.51147 -2.32857 24
      vertex -7.51147 -1.5 21
    endloop
  endfacet
  facet normal -0.638018 -0.770022 0
    outer loop
      vertex -6.51147 -2.32857 24
      vertex -4.01147 -4.4 18.5
      vertex -4.01147 -4.4 25
    endloop
  endfacet
  facet normal -0.638018 0.770022 0
    outer loop
      vertex -4.01147 4.4 25
      vertex -5.51147 3.15714 24.975
      vertex -5.51147 3.15714 25
    endloop
  endfacet
  facet normal -0.638018 0.770022 0
    outer loop
      vertex -4.01147 4.4 25
      vertex -6.51147 2.32857 24
      vertex -5.51147 3.15714 24.975
    endloop
  endfacet
  facet normal -0.638018 0.770022 0
    outer loop
      vertex -6.51147 2.32857 24
      vertex -7.51147 1.5 21
      vertex -7.51147 1.5 24
    endloop
  endfacet
  facet normal -0.638018 0.770022 0
    outer loop
      vertex -4.01147 4.4 18.5
      vertex -6.51147 2.32857 24
      vertex -4.01147 4.4 25
    endloop
  endfacet
  facet normal -0.638018 0.770022 0
    outer loop
      vertex -6.51147 2.32857 24
      vertex -4.01147 4.4 18.5
      vertex -7.51147 1.5 21
    endloop
  endfacet
  facet normal -0.581238 0 -0.813733
    outer loop
      vertex -7.51147 -1.5 21
      vertex -4.01147 4.4 18.5
      vertex -4.01147 -4.4 18.5
    endloop
  endfacet
  facet normal -0.581238 0 -0.813733
    outer loop
      vertex -4.01147 4.4 18.5
      vertex -7.51147 -1.5 21
      vertex -7.51147 1.5 21
    endloop
  endfacet
  facet normal 0 -1 0
    outer loop
      vertex -10.0115 -1.5 25
      vertex -8.51147 -1.5 24.975
      vertex -8.51147 -1.5 25
    endloop
  endfacet
  facet normal 0 -1 0
    outer loop
      vertex -10.0115 -1.5 24.5
      vertex -8.51147 -1.5 24.975
      vertex -10.0115 -1.5 25
    endloop
  endfacet
  facet normal 0 -1 0
    outer loop
      vertex -10.0115 -1.5 24.5
      vertex -7.51147 -1.5 24
      vertex -8.51147 -1.5 24.975
    endloop
  endfacet
  facet normal -0 -1 -0
    outer loop
      vertex -7.51147 -1.5 24
      vertex -10.0115 -1.5 24.5
      vertex -7.51147 -1.5 21
    endloop
  endfacet
  facet normal 0 1 -0
    outer loop
      vertex -8.51147 1.5 24.975
      vertex -10.0115 1.5 25
      vertex -8.51147 1.5 25
    endloop
  endfacet
  facet normal 0 1 0
    outer loop
      vertex -8.51147 1.5 24.975
      vertex -10.0115 1.5 24.5
      vertex -10.0115 1.5 25
    endloop
  endfacet
  facet normal 0 1 0
    outer loop
      vertex -7.51147 1.5 24
      vertex -10.0115 1.5 24.5
      vertex -8.51147 1.5 24.975
    endloop
  endfacet
  facet normal 0 1 0
    outer loop
      vertex -10.0115 1.5 24.5
      vertex -7.51147 1.5 24
      vertex -7.51147 1.5 21
    endloop
  endfacet
  facet normal -0.813733 0 -0.581238
    outer loop
      vertex -7.51147 -1.5 21
      vertex -10.0115 1.5 24.5
      vertex -7.51147 1.5 21
    endloop
  endfacet
  facet normal -0.813733 -0 -0.581238
    outer loop
      vertex -10.0115 1.5 24.5
      vertex -7.51147 -1.5 21
      vertex -10.0115 -1.5 24.5
    endloop
  endfacet
  facet normal -1 0 0
    outer loop
      vertex -10.0115 -1.5 24.5
      vertex -10.0115 1.5 25
      vertex -10.0115 1.5 24.5
    endloop
  endfacet
  facet normal -1 -0 0
    outer loop
      vertex -10.0115 1.5 25
      vertex -10.0115 -1.5 24.5
      vertex -10.0115 -1.5 25
    endloop
  endfacet
  facet normal -1 0 0
    outer loop
      vertex -5.51147 -3.15714 24.975
      vertex -5.51147 3.15714 25
      vertex -5.51147 3.15714 24.975
    endloop
  endfacet
  facet normal -1 -0 0
    outer loop
      vertex -5.51147 3.15714 25
      vertex -5.51147 -3.15714 24.975
      vertex -5.51147 -3.15714 25
    endloop
  endfacet
  facet normal -0.6981 0 0.716
    outer loop
      vertex -6.51147 2.32857 24
      vertex -5.51147 -3.15714 24.975
      vertex -5.51147 3.15714 24.975
    endloop
  endfacet
  facet normal -0.6981 0 0.716
    outer loop
      vertex -5.51147 -3.15714 24.975
      vertex -6.51147 2.32857 24
      vertex -6.51147 -2.32857 24
    endloop
  endfacet
  facet normal -0 0 1
    outer loop
      vertex -7.51147 1.5 24
      vertex -6.51147 -2.32857 24
      vertex -6.51147 2.32857 24
    endloop
  endfacet
  facet normal 0 0 1
    outer loop
      vertex -6.51147 -2.32857 24
      vertex -7.51147 1.5 24
      vertex -7.51147 -1.5 24
    endloop
  endfacet
  facet normal 0.6981 0 0.716
    outer loop
      vertex -8.51147 1.5 24.975
      vertex -7.51147 -1.5 24
      vertex -7.51147 1.5 24
    endloop
  endfacet
  facet normal 0.6981 0 0.716
    outer loop
      vertex -7.51147 -1.5 24
      vertex -8.51147 1.5 24.975
      vertex -8.51147 -1.5 24.975
    endloop
  endfacet
  facet normal 1 -0 0
    outer loop
      vertex -8.51147 -1.5 25
      vertex -8.51147 1.5 24.975
      vertex -8.51147 1.5 25
    endloop
  endfacet
  facet normal 1 0 0
    outer loop
      vertex -8.51147 1.5 24.975
      vertex -8.51147 -1.5 25
      vertex -8.51147 -1.5 24.975
    endloop
  endfacet
  facet normal 1 -0 0
    outer loop
      vertex -2.51147 1.45 20.5
      vertex -2.51147 4.4 17.9
      vertex -2.51147 4.4 20.5
    endloop
  endfacet
  facet normal 1 0 0
    outer loop
      vertex -2.51147 -1.45 17.9
      vertex -2.51147 1.45 20.5
      vertex -2.51147 -1.45 20.5
    endloop
  endfacet
  facet normal 1 0 0
    outer loop
      vertex -2.51147 1.45 20.5
      vertex -2.51147 -1.45 17.9
      vertex -2.51147 4.4 17.9
    endloop
  endfacet
  facet normal -0 0 1
    outer loop
      vertex 1.59369 0.660129 17.9
      vertex 2.51147 -1.45 17.9
      vertex 2.51147 4.4 17.9
    endloop
  endfacet
  facet normal 0 0 1
    outer loop
      vertex 2.51147 -1.45 17.9
      vertex 1.59369 0.660129 17.9
      vertex 1.725 0 17.9
    endloop
  endfacet
  facet normal 0 0 1
    outer loop
      vertex 2.51147 4.4 17.9
      vertex 1.21976 1.21976 17.9
      vertex 1.59369 0.660129 17.9
    endloop
  endfacet
  facet normal 0 0 1
    outer loop
      vertex 2.51147 4.4 17.9
      vertex 0.660129 1.59369 17.9
      vertex 1.21976 1.21976 17.9
    endloop
  endfacet
  facet normal 0 0 1
    outer loop
      vertex 2.51147 4.4 17.9
      vertex 0 1.725 17.9
      vertex 0.660129 1.59369 17.9
    endloop
  endfacet
  facet normal -0 0 1
    outer loop
      vertex -2.51147 4.4 17.9
      vertex 0 1.725 17.9
      vertex 2.51147 4.4 17.9
    endloop
  endfacet
  facet normal 0 0 1
    outer loop
      vertex 0 1.725 17.9
      vertex -2.51147 4.4 17.9
      vertex -0.660129 1.59369 17.9
    endloop
  endfacet
  facet normal 0 0 1
    outer loop
      vertex -2.51147 -1.45 17.9
      vertex -1.59369 0.660129 17.9
      vertex -2.51147 4.4 17.9
    endloop
  endfacet
  facet normal 0 0 1
    outer loop
      vertex -1.21976 1.21976 17.9
      vertex -2.51147 4.4 17.9
      vertex -1.59369 0.660129 17.9
    endloop
  endfacet
  facet normal 0 0 1
    outer loop
      vertex -0.660129 1.59369 17.9
      vertex -2.51147 4.4 17.9
      vertex -1.21976 1.21976 17.9
    endloop
  endfacet
  facet normal -0 0 1
    outer loop
      vertex 1.59369 -0.660129 17.9
      vertex 2.51147 -1.45 17.9
      vertex 1.725 0 17.9
    endloop
  endfacet
  facet normal -0 0 1
    outer loop
      vertex 1.21976 -1.21976 17.9
      vertex 2.51147 -1.45 17.9
      vertex 1.59369 -0.660129 17.9
    endloop
  endfacet
  facet normal 0 0 1
    outer loop
      vertex 0.660129 -1.59369 17.9
      vertex 2.51147 -1.45 17.9
      vertex 1.21976 -1.21976 17.9
    endloop
  endfacet
  facet normal 0 0 1
    outer loop
      vertex 0 -2.9 17.9
      vertex 0.660129 -1.59369 17.9
      vertex 0 -1.725 17.9
    endloop
  endfacet
  facet normal -0 0 1
    outer loop
      vertex 0.660129 -1.59369 17.9
      vertex 0 -2.9 17.9
      vertex 2.51147 -1.45 17.9
    endloop
  endfacet
  facet normal 0 0 1
    outer loop
      vertex -0.660129 -1.59369 17.9
      vertex 0 -2.9 17.9
      vertex 0 -1.725 17.9
    endloop
  endfacet
  facet normal -0 0 1
    outer loop
      vertex -2.51147 -1.45 17.9
      vertex -0.660129 -1.59369 17.9
      vertex -1.21976 -1.21976 17.9
    endloop
  endfacet
  facet normal 0 0 1
    outer loop
      vertex -0.660129 -1.59369 17.9
      vertex -2.51147 -1.45 17.9
      vertex 0 -2.9 17.9
    endloop
  endfacet
  facet normal 0 0 1
    outer loop
      vertex -1.59369 -0.660129 17.9
      vertex -2.51147 -1.45 17.9
      vertex -1.21976 -1.21976 17.9
    endloop
  endfacet
  facet normal 0 0 1
    outer loop
      vertex -1.725 0 17.9
      vertex -2.51147 -1.45 17.9
      vertex -1.59369 -0.660129 17.9
    endloop
  endfacet
  facet normal 0 0 1
    outer loop
      vertex -1.59369 0.660129 17.9
      vertex -2.51147 -1.45 17.9
      vertex -1.725 0 17.9
    endloop
  endfacet
  facet normal -0.5 0.866025 0
    outer loop
      vertex 2.51147 -1.45 17.9
      vertex 0 -2.9 20.5
      vertex 2.51147 -1.45 20.5
    endloop
  endfacet
  facet normal -0.5 0.866025 0
    outer loop
      vertex 0 -2.9 20.5
      vertex 2.51147 -1.45 17.9
      vertex 0 -2.9 17.9
    endloop
  endfacet
  facet normal -1 0 0
    outer loop
      vertex 2.51147 4.4 17.9
      vertex 2.51147 1.45 20.5
      vertex 2.51147 4.4 20.5
    endloop
  endfacet
  facet normal -1 0 0
    outer loop
      vertex 2.51147 -1.45 17.9
      vertex 2.51147 1.45 20.5
      vertex 2.51147 4.4 17.9
    endloop
  endfacet
  facet normal -1 -0 0
    outer loop
      vertex 2.51147 1.45 20.5
      vertex 2.51147 -1.45 17.9
      vertex 2.51147 -1.45 20.5
    endloop
  endfacet
  facet normal 0.5 0.866025 -0
    outer loop
      vertex 0 -2.9 17.9
      vertex -2.51147 -1.45 20.5
      vertex 0 -2.9 20.5
    endloop
  endfacet
  facet normal 0.5 0.866025 0
    outer loop
      vertex -2.51147 -1.45 20.5
      vertex 0 -2.9 17.9
      vertex -2.51147 -1.45 17.9
    endloop
  endfacet
  facet normal 0 0 -1
    outer loop
      vertex 0 2.9 20.5
      vertex 2.51147 4.4 20.5
      vertex 2.51147 1.45 20.5
    endloop
  endfacet
  facet normal 0 0 -1
    outer loop
      vertex -2.51147 4.4 20.5
      vertex 0 2.9 20.5
      vertex -2.51147 1.45 20.5
    endloop
  endfacet
  facet normal 0 0 -1
    outer loop
      vertex 0 2.9 20.5
      vertex -2.51147 4.4 20.5
      vertex 2.51147 4.4 20.5
    endloop
  endfacet
  facet normal -0.499169 0.864586 -0.0576396
    outer loop
      vertex 2.45374 -1.41667 21.5
      vertex 2.51147 -1.45 20.5
      vertex 0 -2.83333 21.5
    endloop
  endfacet
  facet normal -0.499169 0.864586 -0.057639
    outer loop
      vertex 0 -2.83333 21.5
      vertex 2.51147 -1.45 20.5
      vertex 0 -2.9 20.5
    endloop
  endfacet
  facet normal 0.499169 -0.864586 -0.057639
    outer loop
      vertex 0 2.9 20.5
      vertex 0 2.83333 21.5
      vertex -2.51147 1.45 20.5
    endloop
  endfacet
  facet normal 0.499169 -0.864586 -0.0576396
    outer loop
      vertex 0 2.83333 21.5
      vertex -2.45374 1.41667 21.5
      vertex -2.51147 1.45 20.5
    endloop
  endfacet
  facet normal 0.499169 0.864586 -0.0576396
    outer loop
      vertex -2.45374 -1.41667 21.5
      vertex 0 -2.83333 21.5
      vertex -2.51147 -1.45 20.5
    endloop
  endfacet
  facet normal 0.998337 0 -0.0576395
    outer loop
      vertex -2.45374 -1.41667 21.5
      vertex -2.51147 1.45 20.5
      vertex -2.45374 1.41667 21.5
    endloop
  endfacet
  facet normal 0.998337 0 -0.0576395
    outer loop
      vertex -2.51147 1.45 20.5
      vertex -2.45374 -1.41667 21.5
      vertex -2.51147 -1.45 20.5
    endloop
  endfacet
  facet normal -0.499169 -0.864586 -0.0576396
    outer loop
      vertex 2.51147 1.45 20.5
      vertex 2.45374 1.41667 21.5
      vertex 0 2.83333 21.5
    endloop
  endfacet
  facet normal -0.499169 -0.864586 -0.057639
    outer loop
      vertex 0 2.9 20.5
      vertex 2.51147 1.45 20.5
      vertex 0 2.83333 21.5
    endloop
  endfacet
  facet normal -0.998337 0 -0.0576395
    outer loop
      vertex 2.51147 1.45 20.5
      vertex 2.45374 -1.41667 21.5
      vertex 2.45374 1.41667 21.5
    endloop
  endfacet
  facet normal -0.998337 0 -0.0576395
    outer loop
      vertex 2.45374 -1.41667 21.5
      vertex 2.51147 1.45 20.5
      vertex 2.51147 -1.45 20.5
    endloop
  endfacet
  facet normal 0.499169 0.864586 -0.057639
    outer loop
      vertex 0 -2.83333 21.5
      vertex 0 -2.9 20.5
      vertex -2.51147 -1.45 20.5
    endloop
  endfacet
  facet normal -0.499169 0.864586 -0.057639
    outer loop
      vertex 2.45374 -1.41667 21.5
      vertex 1.68875 -1.725 23.5
      vertex 2.33827 -1.35 23.5
    endloop
  endfacet
  facet normal -0.499169 0.864586 -0.057639
    outer loop
      vertex 1.68875 -1.725 23.5
      vertex 2.45374 -1.41667 21.5
      vertex 0 -2.7 23.5
    endloop
  endfacet
  facet normal -0 0 -1
    outer loop
      vertex 1.68875 -1.725 23.5
      vertex 0 -2.7 23.5
      vertex -1.68875 -1.725 23.5
    endloop
  endfacet
  facet normal 0 -0 -1
    outer loop
      vertex 0 2.7 23.5
      vertex 1.68875 1.725 23.5
      vertex -1.68875 1.725 23.5
    endloop
  endfacet
  facet normal -0.499169 0.864586 -0.057639
    outer loop
      vertex 0 -2.7 23.5
      vertex 2.45374 -1.41667 21.5
      vertex 0 -2.83333 21.5
    endloop
  endfacet
  facet normal 0.499169 -0.864586 -0.057639
    outer loop
      vertex 0 2.83333 21.5
      vertex 0 2.7 23.5
      vertex -2.45374 1.41667 21.5
    endloop
  endfacet
  facet normal 0.998337 0 -0.057639
    outer loop
      vertex -2.33827 -1.35 23.5
      vertex -2.45374 1.41667 21.5
      vertex -2.33827 1.35 23.5
    endloop
  endfacet
  facet normal 0.998337 0 -0.057639
    outer loop
      vertex -2.45374 1.41667 21.5
      vertex -2.33827 -1.35 23.5
      vertex -2.45374 -1.41667 21.5
    endloop
  endfacet
  facet normal 0.499169 -0.864586 -0.057639
    outer loop
      vertex -2.45374 1.41667 21.5
      vertex -1.68875 1.725 23.5
      vertex -2.33827 1.35 23.5
    endloop
  endfacet
  facet normal 0.499169 -0.864586 -0.057639
    outer loop
      vertex -1.68875 1.725 23.5
      vertex -2.45374 1.41667 21.5
      vertex 0 2.7 23.5
    endloop
  endfacet
  facet normal -0.499169 -0.864586 -0.057639
    outer loop
      vertex 2.45374 1.41667 21.5
      vertex 1.68875 1.725 23.5
      vertex 0 2.7 23.5
    endloop
  endfacet
  facet normal -0.499169 -0.864586 -0.057639
    outer loop
      vertex 1.68875 1.725 23.5
      vertex 2.45374 1.41667 21.5
      vertex 2.33827 1.35 23.5
    endloop
  endfacet
  facet normal -0.499169 -0.864586 -0.057639
    outer loop
      vertex 0 2.83333 21.5
      vertex 2.45374 1.41667 21.5
      vertex 0 2.7 23.5
    endloop
  endfacet
  facet normal -0.998337 0 -0.057639
    outer loop
      vertex 2.45374 1.41667 21.5
      vertex 2.33827 -1.35 23.5
      vertex 2.33827 1.35 23.5
    endloop
  endfacet
  facet normal -0.998337 0 -0.057639
    outer loop
      vertex 2.33827 -1.35 23.5
      vertex 2.45374 1.41667 21.5
      vertex 2.45374 -1.41667 21.5
    endloop
  endfacet
  facet normal 0.499169 0.864586 -0.057639
    outer loop
      vertex 0 -2.7 23.5
      vertex 0 -2.83333 21.5
      vertex -2.45374 -1.41667 21.5
    endloop
  endfacet
  facet normal 0.499169 0.864586 -0.057639
    outer loop
      vertex -2.45374 -1.41667 21.5
      vertex -1.68875 -1.725 23.5
      vertex 0 -2.7 23.5
    endloop
  endfacet
  facet normal 0.499169 0.864586 -0.057639
    outer loop
      vertex -1.68875 -1.725 23.5
      vertex -2.45374 -1.41667 21.5
      vertex -2.33827 -1.35 23.5
    endloop
  endfacet
  facet normal 0 0 -1
    outer loop
      vertex -1.68875 -1.725 24
      vertex -0.660129 -1.59369 24
      vertex 0 -1.725 24
    endloop
  endfacet
  facet normal 0 0 -1
    outer loop
      vertex -1.68875 -1.725 24
      vertex -1.21976 -1.21976 24
      vertex -0.660129 -1.59369 24
    endloop
  endfacet
  facet normal 0 0 -1
    outer loop
      vertex -1.68875 -1.725 24
      vertex -1.59369 -0.660129 24
      vertex -1.21976 -1.21976 24
    endloop
  endfacet
  facet normal 0 0 -1
    outer loop
      vertex -2.33827 -1.35 24
      vertex -1.59369 -0.660129 24
      vertex -1.68875 -1.725 24
    endloop
  endfacet
  facet normal -0 0 -1
    outer loop
      vertex -1.59369 -0.660129 24
      vertex -2.33827 -1.35 24
      vertex -1.725 0 24
    endloop
  endfacet
  facet normal 0 0 -1
    outer loop
      vertex -0.660129 1.59369 24
      vertex -1.68875 1.725 24
      vertex 0 1.725 24
    endloop
  endfacet
  facet normal 0 0 -1
    outer loop
      vertex -1.21976 1.21976 24
      vertex -1.68875 1.725 24
      vertex -0.660129 1.59369 24
    endloop
  endfacet
  facet normal 0 0 -1
    outer loop
      vertex -1.59369 0.660129 24
      vertex -1.68875 1.725 24
      vertex -1.21976 1.21976 24
    endloop
  endfacet
  facet normal 0 0 -1
    outer loop
      vertex -2.33827 1.35 24
      vertex -1.59369 0.660129 24
      vertex -1.725 0 24
    endloop
  endfacet
  facet normal 0 0 -1
    outer loop
      vertex -2.33827 1.35 24
      vertex -1.725 0 24
      vertex -2.33827 -1.35 24
    endloop
  endfacet
  facet normal 0 0 -1
    outer loop
      vertex -1.59369 0.660129 24
      vertex -2.33827 1.35 24
      vertex -1.68875 1.725 24
    endloop
  endfacet
  facet normal 0 0 -1
    outer loop
      vertex 2.33827 -1.35 24
      vertex 1.725 0 24
      vertex 2.33827 1.35 24
    endloop
  endfacet
  facet normal 0 0 -1
    outer loop
      vertex 1.59369 -0.660129 24
      vertex 2.33827 -1.35 24
      vertex 1.68875 -1.725 24
    endloop
  endfacet
  facet normal 0 0 -1
    outer loop
      vertex 2.33827 -1.35 24
      vertex 1.59369 -0.660129 24
      vertex 1.725 0 24
    endloop
  endfacet
  facet normal 0 0 -1
    outer loop
      vertex 1.68875 -1.725 24
      vertex 1.21976 -1.21976 24
      vertex 1.59369 -0.660129 24
    endloop
  endfacet
  facet normal 0 0 -1
    outer loop
      vertex 1.68875 -1.725 24
      vertex 0.660129 -1.59369 24
      vertex 1.21976 -1.21976 24
    endloop
  endfacet
  facet normal 0 -0 -1
    outer loop
      vertex 0.660129 -1.59369 24
      vertex 1.68875 -1.725 24
      vertex 0 -1.725 24
    endloop
  endfacet
  facet normal 0 0 -1
    outer loop
      vertex 1.59369 0.660129 24
      vertex 2.33827 1.35 24
      vertex 1.725 0 24
    endloop
  endfacet
  facet normal -0 0 -1
    outer loop
      vertex 2.33827 1.35 24
      vertex 1.59369 0.660129 24
      vertex 1.68875 1.725 24
    endloop
  endfacet
  facet normal 0 0 -1
    outer loop
      vertex 1.21976 1.21976 24
      vertex 1.68875 1.725 24
      vertex 1.59369 0.660129 24
    endloop
  endfacet
  facet normal 0 0 -1
    outer loop
      vertex 0.660129 1.59369 24
      vertex 1.68875 1.725 24
      vertex 1.21976 1.21976 24
    endloop
  endfacet
  facet normal -0 0 -1
    outer loop
      vertex 1.68875 1.725 24
      vertex 0.660129 1.59369 24
      vertex 0 1.725 24
    endloop
  endfacet
  facet normal 0 1 -0
    outer loop
      vertex 1.68875 -1.725 23.5
      vertex 0 -1.725 24
      vertex 1.68875 -1.725 24
    endloop
  endfacet
  facet normal 0 1 0
    outer loop
      vertex -1.68875 -1.725 23.5
      vertex 0 -1.725 24
      vertex 1.68875 -1.725 23.5
    endloop
  endfacet
  facet normal 0 1 0
    outer loop
      vertex 0 -1.725 24
      vertex -1.68875 -1.725 23.5
      vertex -1.68875 -1.725 24
    endloop
  endfacet
  facet normal 0 -1 0
    outer loop
      vertex -1.68875 1.725 23.5
      vertex 0 1.725 24
      vertex -1.68875 1.725 24
    endloop
  endfacet
  facet normal 0 -1 0
    outer loop
      vertex 1.68875 1.725 23.5
      vertex 0 1.725 24
      vertex -1.68875 1.725 23.5
    endloop
  endfacet
  facet normal 0 -1 0
    outer loop
      vertex 0 1.725 24
      vertex 1.68875 1.725 23.5
      vertex 1.68875 1.725 24
    endloop
  endfacet
  facet normal -0.5 -0.866025 0
    outer loop
      vertex 1.68875 1.725 23.5
      vertex 2.33827 1.35 24
      vertex 1.68875 1.725 24
    endloop
  endfacet
  facet normal -0.5 -0.866025 -0
    outer loop
      vertex 2.33827 1.35 24
      vertex 1.68875 1.725 23.5
      vertex 2.33827 1.35 23.5
    endloop
  endfacet
  facet normal 1 -0 0
    outer loop
      vertex -2.33827 -1.35 24
      vertex -2.33827 1.35 23.5
      vertex -2.33827 1.35 24
    endloop
  endfacet
  facet normal 1 0 0
    outer loop
      vertex -2.33827 1.35 23.5
      vertex -2.33827 -1.35 24
      vertex -2.33827 -1.35 23.5
    endloop
  endfacet
  facet normal 0.5 -0.866025 0
    outer loop
      vertex -2.33827 1.35 23.5
      vertex -1.68875 1.725 24
      vertex -2.33827 1.35 24
    endloop
  endfacet
  facet normal 0.5 -0.866025 0
    outer loop
      vertex -1.68875 1.725 24
      vertex -2.33827 1.35 23.5
      vertex -1.68875 1.725 23.5
    endloop
  endfacet
  facet normal 0.5 0.866025 -0
    outer loop
      vertex -1.68875 -1.725 23.5
      vertex -2.33827 -1.35 24
      vertex -1.68875 -1.725 24
    endloop
  endfacet
  facet normal 0.5 0.866025 0
    outer loop
      vertex -2.33827 -1.35 24
      vertex -1.68875 -1.725 23.5
      vertex -2.33827 -1.35 23.5
    endloop
  endfacet
  facet normal -0.5 0.866025 0
    outer loop
      vertex 2.33827 -1.35 23.5
      vertex 1.68875 -1.725 24
      vertex 2.33827 -1.35 24
    endloop
  endfacet
  facet normal -0.5 0.866025 0
    outer loop
      vertex 1.68875 -1.725 24
      vertex 2.33827 -1.35 23.5
      vertex 1.68875 -1.725 23.5
    endloop
  endfacet
  facet normal -1 0 0
    outer loop
      vertex 2.33827 -1.35 23.5
      vertex 2.33827 1.35 24
      vertex 2.33827 1.35 23.5
    endloop
  endfacet
  facet normal -1 -0 0
    outer loop
      vertex 2.33827 1.35 24
      vertex 2.33827 -1.35 23.5
      vertex 2.33827 -1.35 24
    endloop
  endfacet
  facet normal -0.980785 -0.19509 0
    outer loop
      vertex 1.725 0 4.5
      vertex 1.59369 0.660129 17.9
      vertex 1.59369 0.660129 3.83987
    endloop
  endfacet
  facet normal -0.980785 -0.19509 0
    outer loop
      vertex 1.59369 0.660129 17.9
      vertex 1.725 0 4.5
      vertex 1.725 0 17.9
    endloop
  endfacet
  facet normal -0.980785 -0.19509 0
    outer loop
      vertex 1.725 0 24
      vertex 1.59369 0.660129 25
      vertex 1.59369 0.660129 24
    endloop
  endfacet
  facet normal -0.980785 -0.19509 0
    outer loop
      vertex 1.59369 0.660129 25
      vertex 1.725 0 24
      vertex 1.725 0 25
    endloop
  endfacet
  facet normal 0.980785 -0.19509 0
    outer loop
      vertex -1.725 0 4.5
      vertex -1.59369 0.660129 17.9
      vertex -1.725 0 17.9
    endloop
  endfacet
  facet normal 0.980785 -0.19509 0
    outer loop
      vertex -1.59369 0.660129 17.9
      vertex -1.725 0 4.5
      vertex -1.59369 0.660129 3.83987
    endloop
  endfacet
  facet normal 0.980785 -0.19509 0
    outer loop
      vertex -1.725 0 25
      vertex -1.59369 0.660129 24
      vertex -1.59369 0.660129 25
    endloop
  endfacet
  facet normal 0.980785 -0.19509 0
    outer loop
      vertex -1.59369 0.660129 24
      vertex -1.725 0 25
      vertex -1.725 0 24
    endloop
  endfacet
  facet normal 0.980785 0.19509 -0
    outer loop
      vertex -1.59369 -0.660129 5.16013
      vertex -1.725 0 17.9
      vertex -1.59369 -0.660129 17.9
    endloop
  endfacet
  facet normal 0.980785 0.19509 0
    outer loop
      vertex -1.725 0 17.9
      vertex -1.59369 -0.660129 5.16013
      vertex -1.725 0 4.5
    endloop
  endfacet
  facet normal 0.980785 0.19509 0
    outer loop
      vertex -1.59369 -0.660129 25
      vertex -1.725 0 24
      vertex -1.725 0 25
    endloop
  endfacet
  facet normal 0.980785 0.19509 0
    outer loop
      vertex -1.725 0 24
      vertex -1.59369 -0.660129 25
      vertex -1.59369 -0.660129 24
    endloop
  endfacet
  facet normal 0.19509 -0.980785 0
    outer loop
      vertex -0.660129 1.59369 3
      vertex 0 1.725 17.9
      vertex -0.660129 1.59369 17.9
    endloop
  endfacet
  facet normal 0.19509 -0.980785 0
    outer loop
      vertex 0 1.725 17.9
      vertex -0.660129 1.59369 3
      vertex 0 1.725 3
    endloop
  endfacet
  facet normal 0.19509 -0.980785 0
    outer loop
      vertex -0.660129 1.59369 24
      vertex 0 1.725 25
      vertex -0.660129 1.59369 25
    endloop
  endfacet
  facet normal 0.19509 -0.980785 0
    outer loop
      vertex 0 1.725 25
      vertex -0.660129 1.59369 24
      vertex 0 1.725 24
    endloop
  endfacet
  facet normal 0.55557 -0.83147 0
    outer loop
      vertex -1.21976 1.21976 3
      vertex -0.660129 1.59369 17.9
      vertex -1.21976 1.21976 17.9
    endloop
  endfacet
  facet normal 0.55557 -0.83147 0
    outer loop
      vertex -0.660129 1.59369 17.9
      vertex -1.21976 1.21976 3
      vertex -0.660129 1.59369 3
    endloop
  endfacet
  facet normal 0.55557 -0.83147 0
    outer loop
      vertex -1.21976 1.21976 24
      vertex -0.660129 1.59369 25
      vertex -1.21976 1.21976 25
    endloop
  endfacet
  facet normal 0.55557 -0.83147 0
    outer loop
      vertex -0.660129 1.59369 25
      vertex -1.21976 1.21976 24
      vertex -0.660129 1.59369 24
    endloop
  endfacet
  facet normal 0 0 1
    outer loop
      vertex 0.660129 1.59369 3
      vertex 1.53364 0.75 3
      vertex 1.21976 1.21976 3
    endloop
  endfacet
  facet normal 0 0 1
    outer loop
      vertex 0 1.725 3
      vertex 1.53364 0.75 3
      vertex 0.660129 1.59369 3
    endloop
  endfacet
  facet normal -0 0 1
    outer loop
      vertex -0.660129 1.59369 3
      vertex 1.53364 0.75 3
      vertex 0 1.725 3
    endloop
  endfacet
  facet normal 0 0 1
    outer loop
      vertex -1.53364 0.75 3
      vertex -0.660129 1.59369 3
      vertex -1.21976 1.21976 3
    endloop
  endfacet
  facet normal 0 0 1
    outer loop
      vertex -0.660129 1.59369 3
      vertex -1.53364 0.75 3
      vertex 1.53364 0.75 3
    endloop
  endfacet
  facet normal -0.55557 -0.83147 0
    outer loop
      vertex 0.660129 1.59369 3
      vertex 1.21976 1.21976 17.9
      vertex 0.660129 1.59369 17.9
    endloop
  endfacet
  facet normal -0.55557 -0.83147 -0
    outer loop
      vertex 1.21976 1.21976 17.9
      vertex 0.660129 1.59369 3
      vertex 1.21976 1.21976 3
    endloop
  endfacet
  facet normal -0.55557 -0.83147 0
    outer loop
      vertex 0.660129 1.59369 24
      vertex 1.21976 1.21976 25
      vertex 0.660129 1.59369 25
    endloop
  endfacet
  facet normal -0.55557 -0.83147 -0
    outer loop
      vertex 1.21976 1.21976 25
      vertex 0.660129 1.59369 24
      vertex 1.21976 1.21976 24
    endloop
  endfacet
  facet normal -0.83147 -0.55557 -0
    outer loop
      vertex 1.53364 0.75 3.75
      vertex 1.21976 1.21976 3
      vertex 1.53364 0.75 3
    endloop
  endfacet
  facet normal -0.83147 -0.55557 0
    outer loop
      vertex 1.21976 1.21976 3
      vertex 1.53364 0.75 3.75
      vertex 1.21976 1.21976 17.9
    endloop
  endfacet
  facet normal -0.83147 -0.55557 4.87371e-009
    outer loop
      vertex 1.59369 0.660129 3.83987
      vertex 1.21976 1.21976 17.9
      vertex 1.53364 0.75 3.75
    endloop
  endfacet
  facet normal -0.83147 -0.55557 0
    outer loop
      vertex 1.21976 1.21976 17.9
      vertex 1.59369 0.660129 3.83987
      vertex 1.59369 0.660129 17.9
    endloop
  endfacet
  facet normal -0.83147 -0.55557 0
    outer loop
      vertex 1.59369 0.660129 24
      vertex 1.21976 1.21976 25
      vertex 1.21976 1.21976 24
    endloop
  endfacet
  facet normal -0.83147 -0.55557 0
    outer loop
      vertex 1.21976 1.21976 25
      vertex 1.59369 0.660129 24
      vertex 1.59369 0.660129 25
    endloop
  endfacet
  facet normal -0.19509 -0.980785 0
    outer loop
      vertex 0 1.725 3
      vertex 0.660129 1.59369 17.9
      vertex 0 1.725 17.9
    endloop
  endfacet
  facet normal -0.19509 -0.980785 -0
    outer loop
      vertex 0.660129 1.59369 17.9
      vertex 0 1.725 3
      vertex 0.660129 1.59369 3
    endloop
  endfacet
  facet normal -0.19509 -0.980785 0
    outer loop
      vertex 0 1.725 24
      vertex 0.660129 1.59369 25
      vertex 0 1.725 25
    endloop
  endfacet
  facet normal -0.19509 -0.980785 -0
    outer loop
      vertex 0.660129 1.59369 25
      vertex 0 1.725 24
      vertex 0.660129 1.59369 24
    endloop
  endfacet
  facet normal 0.83147 -0.55557 0
    outer loop
      vertex -1.21976 1.21976 17.9
      vertex -1.53364 0.75 3.75
      vertex -1.21976 1.21976 3
    endloop
  endfacet
  facet normal 0.83147 -0.55557 0
    outer loop
      vertex -1.59369 0.660129 3.83987
      vertex -1.21976 1.21976 17.9
      vertex -1.59369 0.660129 17.9
    endloop
  endfacet
  facet normal 0.83147 -0.55557 4.87371e-009
    outer loop
      vertex -1.21976 1.21976 17.9
      vertex -1.59369 0.660129 3.83987
      vertex -1.53364 0.75 3.75
    endloop
  endfacet
  facet normal 0.83147 -0.55557 0
    outer loop
      vertex -1.21976 1.21976 3
      vertex -1.53364 0.75 3.75
      vertex -1.53364 0.75 3
    endloop
  endfacet
  facet normal 0.83147 -0.55557 0
    outer loop
      vertex -1.59369 0.660129 25
      vertex -1.21976 1.21976 24
      vertex -1.21976 1.21976 25
    endloop
  endfacet
  facet normal 0.83147 -0.55557 0
    outer loop
      vertex -1.21976 1.21976 24
      vertex -1.59369 0.660129 25
      vertex -1.59369 0.660129 24
    endloop
  endfacet
  facet normal -0.55557 0.83147 0
    outer loop
      vertex 1.21976 -1.21976 17.9
      vertex 0.660129 -1.59369 6.09369
      vertex 0.660129 -1.59369 17.9
    endloop
  endfacet
  facet normal -0.55557 0.83147 0
    outer loop
      vertex 0.660129 -1.59369 6.09369
      vertex 1.21976 -1.21976 17.9
      vertex 1.21976 -1.21976 5.71976
    endloop
  endfacet
  facet normal -0.55557 0.83147 0
    outer loop
      vertex 1.21976 -1.21976 24
      vertex 0.660129 -1.59369 25
      vertex 1.21976 -1.21976 25
    endloop
  endfacet
  facet normal -0.55557 0.83147 0
    outer loop
      vertex 0.660129 -1.59369 25
      vertex 1.21976 -1.21976 24
      vertex 0.660129 -1.59369 24
    endloop
  endfacet
  facet normal -0.83147 0.55557 0
    outer loop
      vertex 1.21976 -1.21976 5.71976
      vertex 1.59369 -0.660129 17.9
      vertex 1.59369 -0.660129 5.16013
    endloop
  endfacet
  facet normal -0.83147 0.55557 0
    outer loop
      vertex 1.59369 -0.660129 17.9
      vertex 1.21976 -1.21976 5.71976
      vertex 1.21976 -1.21976 17.9
    endloop
  endfacet
  facet normal -0.83147 0.55557 0
    outer loop
      vertex 1.21976 -1.21976 24
      vertex 1.59369 -0.660129 25
      vertex 1.59369 -0.660129 24
    endloop
  endfacet
  facet normal -0.83147 0.55557 0
    outer loop
      vertex 1.59369 -0.660129 25
      vertex 1.21976 -1.21976 24
      vertex 1.21976 -1.21976 25
    endloop
  endfacet
  facet normal -0.980785 0.19509 0
    outer loop
      vertex 1.59369 -0.660129 5.16013
      vertex 1.725 0 17.9
      vertex 1.725 0 4.5
    endloop
  endfacet
  facet normal -0.980785 0.19509 0
    outer loop
      vertex 1.725 0 17.9
      vertex 1.59369 -0.660129 5.16013
      vertex 1.59369 -0.660129 17.9
    endloop
  endfacet
  facet normal -0.980785 0.19509 0
    outer loop
      vertex 1.59369 -0.660129 24
      vertex 1.725 0 25
      vertex 1.725 0 24
    endloop
  endfacet
  facet normal -0.980785 0.19509 0
    outer loop
      vertex 1.725 0 25
      vertex 1.59369 -0.660129 24
      vertex 1.59369 -0.660129 25
    endloop
  endfacet
  facet normal 0.55557 0.83147 -0
    outer loop
      vertex -0.660129 -1.59369 6.09369
      vertex -1.21976 -1.21976 17.9
      vertex -0.660129 -1.59369 17.9
    endloop
  endfacet
  facet normal 0.55557 0.83147 0
    outer loop
      vertex -1.21976 -1.21976 17.9
      vertex -0.660129 -1.59369 6.09369
      vertex -1.21976 -1.21976 5.71976
    endloop
  endfacet
  facet normal 0.55557 0.83147 -0
    outer loop
      vertex -0.660129 -1.59369 24
      vertex -1.21976 -1.21976 25
      vertex -0.660129 -1.59369 25
    endloop
  endfacet
  facet normal 0.55557 0.83147 0
    outer loop
      vertex -1.21976 -1.21976 25
      vertex -0.660129 -1.59369 24
      vertex -1.21976 -1.21976 24
    endloop
  endfacet
  facet normal 0.83147 0.55557 -0
    outer loop
      vertex -1.21976 -1.21976 5.71976
      vertex -1.59369 -0.660129 17.9
      vertex -1.21976 -1.21976 17.9
    endloop
  endfacet
  facet normal 0.83147 0.55557 0
    outer loop
      vertex -1.59369 -0.660129 17.9
      vertex -1.21976 -1.21976 5.71976
      vertex -1.59369 -0.660129 5.16013
    endloop
  endfacet
  facet normal 0.83147 0.55557 0
    outer loop
      vertex -1.21976 -1.21976 25
      vertex -1.59369 -0.660129 24
      vertex -1.59369 -0.660129 25
    endloop
  endfacet
  facet normal 0.83147 0.55557 0
    outer loop
      vertex -1.59369 -0.660129 24
      vertex -1.21976 -1.21976 25
      vertex -1.21976 -1.21976 24
    endloop
  endfacet
  facet normal -0.19509 0.980785 0
    outer loop
      vertex 0.660129 -1.59369 24
      vertex 0 -1.725 25
      vertex 0.660129 -1.59369 25
    endloop
  endfacet
  facet normal -0.19509 0.980785 0
    outer loop
      vertex 0 -1.725 25
      vertex 0.660129 -1.59369 24
      vertex 0 -1.725 24
    endloop
  endfacet
  facet normal -0.19509 0.980785 0
    outer loop
      vertex 0.660129 -1.59369 17.9
      vertex 0 -1.725 6.225
      vertex 0 -1.725 17.9
    endloop
  endfacet
  facet normal -0.19509 0.980785 0
    outer loop
      vertex 0 -1.725 6.225
      vertex 0.660129 -1.59369 17.9
      vertex 0.660129 -1.59369 6.09369
    endloop
  endfacet
  facet normal 0.19509 0.980785 -0
    outer loop
      vertex 0 -1.725 24
      vertex -0.660129 -1.59369 25
      vertex 0 -1.725 25
    endloop
  endfacet
  facet normal 0.19509 0.980785 0
    outer loop
      vertex -0.660129 -1.59369 25
      vertex 0 -1.725 24
      vertex -0.660129 -1.59369 24
    endloop
  endfacet
  facet normal 0.19509 0.980785 -0
    outer loop
      vertex 0 -1.725 6.225
      vertex -0.660129 -1.59369 17.9
      vertex 0 -1.725 17.9
    endloop
  endfacet
  facet normal 0.19509 0.980785 0
    outer loop
      vertex -0.660129 -1.59369 17.9
      vertex 0 -1.725 6.225
      vertex -0.660129 -1.59369 6.09369
    endloop
  endfacet
  facet normal 0 0 1
    outer loop
      vertex 3.57582 0.75 0.75
      vertex 3.57582 -0.75 0.75
      vertex 3.725 0 0.75
    endloop
  endfacet
  facet normal -0 0 1
    outer loop
      vertex -3.57582 0.75 0.75
      vertex 3.57582 -0.75 0.75
      vertex 3.57582 0.75 0.75
    endloop
  endfacet
  facet normal 0 0 1
    outer loop
      vertex -3.57582 0.75 0.75
      vertex -3.57582 -0.75 0.75
      vertex 3.57582 -0.75 0.75
    endloop
  endfacet
  facet normal 0 -0 1
    outer loop
      vertex -3.57582 -0.75 0.75
      vertex -3.57582 0.75 0.75
      vertex -3.725 0 0.75
    endloop
  endfacet
  facet normal 0 -1 0
    outer loop
      vertex -3.57582 0.75 3.75
      vertex -1.53364 0.75 3
      vertex -1.53364 0.75 3.75
    endloop
  endfacet
  facet normal 0 -1 -0
    outer loop
      vertex -1.53364 0.75 3
      vertex -3.57582 0.75 0.75
      vertex 1.53364 0.75 3
    endloop
  endfacet
  facet normal 0 -1 0
    outer loop
      vertex -3.57582 0.75 0.75
      vertex -1.53364 0.75 3
      vertex -3.57582 0.75 3.75
    endloop
  endfacet
  facet normal 0 -1 0
    outer loop
      vertex 1.53364 0.75 3
      vertex 3.57582 0.75 3.75
      vertex 1.53364 0.75 3.75
    endloop
  endfacet
  facet normal 0 -1 0
    outer loop
      vertex 3.57582 0.75 0.75
      vertex 1.53364 0.75 3
      vertex -3.57582 0.75 0.75
    endloop
  endfacet
  facet normal 0 -1 0
    outer loop
      vertex 1.53364 0.75 3
      vertex 3.57582 0.75 0.75
      vertex 3.57582 0.75 3.75
    endloop
  endfacet
  facet normal 0 0.707107 0.707107
    outer loop
      vertex 3.57582 -0.75 0.75
      vertex 0 -3.725 3.725
      vertex 1.4255 -3.44145 3.44145
    endloop
  endfacet
  facet normal 0 0.707107 0.707107
    outer loop
      vertex 3.57582 -0.75 0.75
      vertex 1.4255 -3.44145 3.44145
      vertex 2.63397 -2.63397 2.63397
    endloop
  endfacet
  facet normal 0 0.707107 0.707107
    outer loop
      vertex 0 -3.725 3.725
      vertex 3.57582 -0.75 0.75
      vertex -1.4255 -3.44145 3.44145
    endloop
  endfacet
  facet normal 0 0.707107 0.707107
    outer loop
      vertex 3.57582 -0.75 0.75
      vertex 2.63397 -2.63397 2.63397
      vertex 3.44145 -1.4255 1.4255
    endloop
  endfacet
  facet normal -0 0.707107 0.707107
    outer loop
      vertex -3.57582 -0.75 0.75
      vertex -1.4255 -3.44145 3.44145
      vertex 3.57582 -0.75 0.75
    endloop
  endfacet
  facet normal 0 0.707107 0.707107
    outer loop
      vertex -1.4255 -3.44145 3.44145
      vertex -3.57582 -0.75 0.75
      vertex -2.63397 -2.63397 2.63397
    endloop
  endfacet
  facet normal 0 0.707107 0.707107
    outer loop
      vertex -2.63397 -2.63397 2.63397
      vertex -3.57582 -0.75 0.75
      vertex -3.44145 -1.4255 1.4255
    endloop
  endfacet
  facet normal 0 -0.707107 -0.707107
    outer loop
      vertex 0 -1.725 6.225
      vertex 0 -3.725 8.225
      vertex -1.4255 -3.44145 7.94145
    endloop
  endfacet
  facet normal 0 -0.707107 -0.707107
    outer loop
      vertex -0.660129 -1.59369 6.09369
      vertex -1.4255 -3.44145 7.94145
      vertex -2.63397 -2.63397 7.13397
    endloop
  endfacet
  facet normal 0 -0.707107 -0.707107
    outer loop
      vertex 0 -3.725 8.225
      vertex 0 -1.725 6.225
      vertex 1.4255 -3.44145 7.94145
    endloop
  endfacet
  facet normal 0 -0.707107 -0.707107
    outer loop
      vertex 0.660129 -1.59369 6.09369
      vertex 1.4255 -3.44145 7.94145
      vertex 0 -1.725 6.225
    endloop
  endfacet
  facet normal 0 -0.707107 -0.707107
    outer loop
      vertex -1.4255 -3.44145 7.94145
      vertex -0.660129 -1.59369 6.09369
      vertex 0 -1.725 6.225
    endloop
  endfacet
  facet normal 0 -0.707107 -0.707107
    outer loop
      vertex -1.21976 -1.21976 5.71976
      vertex -2.63397 -2.63397 7.13397
      vertex -3.44145 -1.4255 5.9255
    endloop
  endfacet
  facet normal 0 -0.707107 -0.707107
    outer loop
      vertex -2.63397 -2.63397 7.13397
      vertex -1.21976 -1.21976 5.71976
      vertex -0.660129 -1.59369 6.09369
    endloop
  endfacet
  facet normal 0 -0.707107 -0.707107
    outer loop
      vertex -3.44145 -1.4255 5.9255
      vertex -1.59369 -0.660129 5.16013
      vertex -1.21976 -1.21976 5.71976
    endloop
  endfacet
  facet normal 0 -0.707107 -0.707107
    outer loop
      vertex -3.725 0 4.5
      vertex -1.59369 -0.660129 5.16013
      vertex -3.44145 -1.4255 5.9255
    endloop
  endfacet
  facet normal 0 -0.707107 -0.707107
    outer loop
      vertex -3.725 0 4.5
      vertex -1.725 0 4.5
      vertex -1.59369 -0.660129 5.16013
    endloop
  endfacet
  facet normal 0 -0.707107 -0.707107
    outer loop
      vertex -3.57582 0.75 3.75
      vertex -1.725 0 4.5
      vertex -3.725 0 4.5
    endloop
  endfacet
  facet normal 0 -0.707107 -0.707107
    outer loop
      vertex -1.725 0 4.5
      vertex -3.57582 0.75 3.75
      vertex -1.59369 0.660129 3.83987
    endloop
  endfacet
  facet normal 0 -0.707107 -0.707107
    outer loop
      vertex -1.59369 0.660129 3.83987
      vertex -3.57582 0.75 3.75
      vertex -1.53364 0.75 3.75
    endloop
  endfacet
  facet normal 0 -0.707107 -0.707107
    outer loop
      vertex 1.4255 -3.44145 7.94145
      vertex 0.660129 -1.59369 6.09369
      vertex 2.63397 -2.63397 7.13397
    endloop
  endfacet
  facet normal 0 -0.707107 -0.707107
    outer loop
      vertex 1.21976 -1.21976 5.71976
      vertex 2.63397 -2.63397 7.13397
      vertex 0.660129 -1.59369 6.09369
    endloop
  endfacet
  facet normal 0 -0.707107 -0.707107
    outer loop
      vertex 2.63397 -2.63397 7.13397
      vertex 1.21976 -1.21976 5.71976
      vertex 3.44145 -1.4255 5.9255
    endloop
  endfacet
  facet normal 0 -0.707107 -0.707107
    outer loop
      vertex 1.59369 -0.660129 5.16013
      vertex 3.44145 -1.4255 5.9255
      vertex 1.21976 -1.21976 5.71976
    endloop
  endfacet
  facet normal 0 -0.707107 -0.707107
    outer loop
      vertex 1.725 0 4.5
      vertex 3.44145 -1.4255 5.9255
      vertex 1.59369 -0.660129 5.16013
    endloop
  endfacet
  facet normal 0 -0.707107 -0.707107
    outer loop
      vertex 1.725 0 4.5
      vertex 3.725 0 4.5
      vertex 3.44145 -1.4255 5.9255
    endloop
  endfacet
  facet normal 0 -0.707107 -0.707107
    outer loop
      vertex 3.57582 0.75 3.75
      vertex 1.725 0 4.5
      vertex 1.59369 0.660129 3.83987
    endloop
  endfacet
  facet normal -0 -0.707107 -0.707107
    outer loop
      vertex 3.57582 0.75 3.75
      vertex 1.59369 0.660129 3.83987
      vertex 1.53364 0.75 3.75
    endloop
  endfacet
  facet normal 0 -0.707107 -0.707107
    outer loop
      vertex 1.725 0 4.5
      vertex 3.57582 0.75 3.75
      vertex 3.725 0 4.5
    endloop
  endfacet
  facet normal 0 0 -1
    outer loop
      vertex 3.44145 -1.4255 0
      vertex 3.44145 1.4255 0
      vertex 3.725 0 0
    endloop
  endfacet
  facet normal 0 0 -1
    outer loop
      vertex 2.63397 -2.63397 0
      vertex 3.44145 1.4255 0
      vertex 3.44145 -1.4255 0
    endloop
  endfacet
  facet normal 0 0 -1
    outer loop
      vertex 2.63397 -2.63397 0
      vertex 2.63397 2.63397 0
      vertex 3.44145 1.4255 0
    endloop
  endfacet
  facet normal 0 0 -1
    outer loop
      vertex 1.4255 -3.44145 0
      vertex 2.63397 2.63397 0
      vertex 2.63397 -2.63397 0
    endloop
  endfacet
  facet normal 0 0 -1
    outer loop
      vertex 1.4255 -3.44145 0
      vertex 1.4255 3.44145 0
      vertex 2.63397 2.63397 0
    endloop
  endfacet
  facet normal 0 0 -1
    outer loop
      vertex 0 -3.725 0
      vertex 1.4255 3.44145 0
      vertex 1.4255 -3.44145 0
    endloop
  endfacet
  facet normal 0 0 -1
    outer loop
      vertex 0 -3.725 0
      vertex 0 3.725 0
      vertex 1.4255 3.44145 0
    endloop
  endfacet
  facet normal 0 0 -1
    outer loop
      vertex -1.4255 -3.44145 0
      vertex 0 3.725 0
      vertex 0 -3.725 0
    endloop
  endfacet
  facet normal 0 0 -1
    outer loop
      vertex -1.4255 -3.44145 0
      vertex -1.4255 3.44145 0
      vertex 0 3.725 0
    endloop
  endfacet
  facet normal 0 0 -1
    outer loop
      vertex -2.63397 -2.63397 0
      vertex -1.4255 3.44145 0
      vertex -1.4255 -3.44145 0
    endloop
  endfacet
  facet normal 0 0 -1
    outer loop
      vertex -2.63397 -2.63397 0
      vertex -2.63397 2.63397 0
      vertex -1.4255 3.44145 0
    endloop
  endfacet
  facet normal 0 0 -1
    outer loop
      vertex -3.44145 -1.4255 0
      vertex -2.63397 2.63397 0
      vertex -2.63397 -2.63397 0
    endloop
  endfacet
  facet normal 0 0 -1
    outer loop
      vertex -3.44145 -1.4255 0
      vertex -3.44145 1.4255 0
      vertex -2.63397 2.63397 0
    endloop
  endfacet
  facet normal 0 -0 -1
    outer loop
      vertex -3.44145 1.4255 0
      vertex -3.44145 -1.4255 0
      vertex -3.725 0 0
    endloop
  endfacet
endsolid OpenSCAD_Model
