solid OpenSCAD_Model
  facet normal 0 0 -1
    outer loop
      vertex 3.59904 45.5513 0
      vertex 3.51074 46.4804 0
      vertex 3.6708 45.5513 0
    endloop
  endfacet
  facet normal 0 0 -1
    outer loop
      vertex 3.2909 46.7013 0
      vertex 3.51074 46.4804 0
      vertex 3.59904 45.5513 0
    endloop
  endfacet
  facet normal 0 0 -1
    outer loop
      vertex 3.2909 46.7013 0
      vertex 2.68701 47.904 0
      vertex 3.51074 46.4804 0
    endloop
  endfacet
  facet normal 0 0 -1
    outer loop
      vertex 1.9 48.0922 0
      vertex 2.68701 47.904 0
      vertex 3.2909 46.7013 0
    endloop
  endfacet
  facet normal 0 0 -1
    outer loop
      vertex 1.9 48.0922 0
      vertex 1.4542 48.8551 0
      vertex 2.68701 47.904 0
    endloop
  endfacet
  facet normal 0 0 -1
    outer loop
      vertex 0 48.6013 0
      vertex 1.4542 48.8551 0
      vertex 1.9 48.0922 0
    endloop
  endfacet
  facet normal 0 0 -1
    outer loop
      vertex 0 48.6013 0
      vertex 0 49.1891 0
      vertex 1.4542 48.8551 0
    endloop
  endfacet
  facet normal 0 0 -1
    outer loop
      vertex 0 48.6013 0
      vertex -1.4542 48.8551 0
      vertex 0 49.1891 0
    endloop
  endfacet
  facet normal 0 0 -1
    outer loop
      vertex -1.9 48.0922 0
      vertex -1.4542 48.8551 0
      vertex 0 48.6013 0
    endloop
  endfacet
  facet normal -0 0 -1
    outer loop
      vertex -1.9 48.0922 0
      vertex -2.68701 47.904 0
      vertex -1.4542 48.8551 0
    endloop
  endfacet
  facet normal 0 0 -1
    outer loop
      vertex -3.2909 46.7013 0
      vertex -2.68701 47.904 0
      vertex -1.9 48.0922 0
    endloop
  endfacet
  facet normal -0 0 -1
    outer loop
      vertex -3.2909 46.7013 0
      vertex -3.51074 46.4804 0
      vertex -2.68701 47.904 0
    endloop
  endfacet
  facet normal 0 0 -1
    outer loop
      vertex -3.59904 45.5513 0
      vertex -3.51074 46.4804 0
      vertex -3.2909 46.7013 0
    endloop
  endfacet
  facet normal 0 0 -1
    outer loop
      vertex -3.51074 46.4804 0
      vertex -3.59904 45.5513 0
      vertex -3.6708 45.5513 0
    endloop
  endfacet
  facet normal 0 0 -1
    outer loop
      vertex -3.8 44.8013 0
      vertex 3.8 44.8013 0
      vertex 4.92015 35 0
    endloop
  endfacet
  facet normal 0 0 -1
    outer loop
      vertex 3.8 44.8013 0
      vertex -3.8 44.8013 0
      vertex 3.59904 45.5513 0
    endloop
  endfacet
  facet normal 0 -0 -1
    outer loop
      vertex -3.59904 45.5513 0
      vertex 3.59904 45.5513 0
      vertex -3.8 44.8013 0
    endloop
  endfacet
  facet normal 0 -0 -1
    outer loop
      vertex 0 48.6013 0
      vertex 3.59904 45.5513 0
      vertex -3.59904 45.5513 0
    endloop
  endfacet
  facet normal 0 0 -1
    outer loop
      vertex 3.59904 45.5513 0
      vertex 1.9 48.0922 0
      vertex 3.2909 46.7013 0
    endloop
  endfacet
  facet normal 0 0 -1
    outer loop
      vertex 3.59904 45.5513 0
      vertex 0 48.6013 0
      vertex 1.9 48.0922 0
    endloop
  endfacet
  facet normal 0 0 -1
    outer loop
      vertex -1.9 48.0922 0
      vertex -3.59904 45.5513 0
      vertex -3.2909 46.7013 0
    endloop
  endfacet
  facet normal 0 0 -1
    outer loop
      vertex 0 48.6013 0
      vertex -3.59904 45.5513 0
      vertex -1.9 48.0922 0
    endloop
  endfacet
  facet normal 0 -0 -1
    outer loop
      vertex -3.8 44.8013 0
      vertex 4.92015 35 0
      vertex -4.92015 35 0
    endloop
  endfacet
  facet normal -0.993533 0.113547 0
    outer loop
      vertex -3.8 44.8013 0
      vertex -3.88571 44.0513 0.75
      vertex -3.8 44.8013 0.75
    endloop
  endfacet
  facet normal -0.993533 0.113547 0
    outer loop
      vertex -3.88571 44.0513 0.75
      vertex -4.11428 42.0513 5
      vertex -3.88571 44.0513 3
    endloop
  endfacet
  facet normal -0.993533 0.113547 -3.77624e-010
    outer loop
      vertex -4.92015 35 0
      vertex -3.88571 44.0513 0.75
      vertex -3.8 44.8013 0
    endloop
  endfacet
  facet normal -0.993533 0.113547 3.55774e-008
    outer loop
      vertex -4.92015 35 0
      vertex -4.11428 42.0513 5
      vertex -3.88571 44.0513 0.75
    endloop
  endfacet
  facet normal -0.993533 0.113547 0
    outer loop
      vertex -4.11428 42.0513 5
      vertex -4.92015 35 0
      vertex -4.92015 35 5
    endloop
  endfacet
  facet normal -0 0 1
    outer loop
      vertex -4.11428 42.0513 5
      vertex 4.92015 35 5
      vertex 4.11428 42.0513 5
    endloop
  endfacet
  facet normal 0 0 1
    outer loop
      vertex 4.92015 35 5
      vertex -4.11428 42.0513 5
      vertex -4.92015 35 5
    endloop
  endfacet
  facet normal -0.965926 0.258819 0
    outer loop
      vertex -3.8 44.8013 0
      vertex -3.59904 45.5513 0.75
      vertex -3.59904 45.5513 0
    endloop
  endfacet
  facet normal -0.965926 0.258819 0
    outer loop
      vertex -3.59904 45.5513 0.75
      vertex -3.8 44.8013 0
      vertex -3.8 44.8013 0.75
    endloop
  endfacet
  facet normal 0.965926 0.258819 0
    outer loop
      vertex 3.8 44.8013 0.75
      vertex 3.59904 45.5513 0
      vertex 3.59904 45.5513 0.75
    endloop
  endfacet
  facet normal 0.965926 0.258819 0
    outer loop
      vertex 3.59904 45.5513 0
      vertex 3.8 44.8013 0.75
      vertex 3.8 44.8013 0
    endloop
  endfacet
  facet normal 0.993533 0.113547 0
    outer loop
      vertex 3.88571 44.0513 3
      vertex 4.11428 42.0513 5
      vertex 3.88571 44.0513 0.75
    endloop
  endfacet
  facet normal 0.993533 0.113547 0
    outer loop
      vertex 3.88571 44.0513 0.75
      vertex 3.8 44.8013 0
      vertex 3.8 44.8013 0.75
    endloop
  endfacet
  facet normal 0.993533 0.113547 -0
    outer loop
      vertex 4.92015 35 0
      vertex 4.11428 42.0513 5
      vertex 4.92015 35 5
    endloop
  endfacet
  facet normal 0.993533 0.113547 3.55774e-008
    outer loop
      vertex 4.11428 42.0513 5
      vertex 4.92015 35 0
      vertex 3.88571 44.0513 0.75
    endloop
  endfacet
  facet normal 0.993533 0.113547 -3.77624e-010
    outer loop
      vertex 3.88571 44.0513 0.75
      vertex 4.92015 35 0
      vertex 3.8 44.8013 0
    endloop
  endfacet
  facet normal 0 0 1
    outer loop
      vertex -3.8 44.8013 0.75
      vertex 3.8 44.8013 0.75
      vertex 3.59904 45.5513 0.75
    endloop
  endfacet
  facet normal 0 0 1
    outer loop
      vertex -3.8 44.8013 0.75
      vertex 3.59904 45.5513 0.75
      vertex -3.59904 45.5513 0.75
    endloop
  endfacet
  facet normal 0 0 1
    outer loop
      vertex 3.8 44.8013 0.75
      vertex -3.8 44.8013 0.75
      vertex 3.88571 44.0513 0.75
    endloop
  endfacet
  facet normal 0 0 1
    outer loop
      vertex 3.88571 44.0513 0.75
      vertex -3.8 44.8013 0.75
      vertex -3.88571 44.0513 0.75
    endloop
  endfacet
  facet normal 0 1 -0
    outer loop
      vertex 3.88571 44.0513 0.75
      vertex -3.88571 44.0513 3
      vertex 3.88571 44.0513 3
    endloop
  endfacet
  facet normal 0 1 0
    outer loop
      vertex -3.88571 44.0513 3
      vertex 3.88571 44.0513 0.75
      vertex -3.88571 44.0513 0.75
    endloop
  endfacet
  facet normal 0 0.707107 0.707107
    outer loop
      vertex 3.88571 44.0513 3
      vertex -4.11428 42.0513 5
      vertex 4.11428 42.0513 5
    endloop
  endfacet
  facet normal 0 0.707107 0.707107
    outer loop
      vertex -4.11428 42.0513 5
      vertex 3.88571 44.0513 3
      vertex -3.88571 44.0513 3
    endloop
  endfacet
  facet normal 0 -1 0
    outer loop
      vertex -3.59904 45.5513 0.75
      vertex -3.63083 45.5513 3
      vertex -3.8 45.5513 1.29904
    endloop
  endfacet
  facet normal 0 -1 0
    outer loop
      vertex -3.63083 45.5513 3
      vertex -3.59904 45.5513 0.75
      vertex 3.63083 45.5513 3
    endloop
  endfacet
  facet normal 0 -1 0
    outer loop
      vertex 3.59904 45.5513 0.75
      vertex 3.63083 45.5513 3
      vertex -3.59904 45.5513 0.75
    endloop
  endfacet
  facet normal 0 -1 0
    outer loop
      vertex -3.6708 45.5513 0
      vertex -3.59904 45.5513 0.75
      vertex -3.8 45.5513 1.29904
    endloop
  endfacet
  facet normal 0 -1 -0
    outer loop
      vertex -3.59904 45.5513 0.75
      vertex -3.6708 45.5513 0
      vertex -3.59904 45.5513 0
    endloop
  endfacet
  facet normal 0 -1 -0
    outer loop
      vertex 3.63083 45.5513 3
      vertex 3.59904 45.5513 0.75
      vertex 3.8 45.5513 1.29904
    endloop
  endfacet
  facet normal 0 -1 0
    outer loop
      vertex 3.6708 45.5513 0
      vertex 3.59904 45.5513 0.75
      vertex 3.59904 45.5513 0
    endloop
  endfacet
  facet normal 0 -1 0
    outer loop
      vertex 3.59904 45.5513 0.75
      vertex 3.6708 45.5513 0
      vertex 3.8 45.5513 1.29904
    endloop
  endfacet
  facet normal 4.63533e-007 -0.707107 -0.707107
    outer loop
      vertex -3.63083 45.5513 3
      vertex 0 43.3921 5.1592
      vertex -1.4542 43.6038 4.94745
    endloop
  endfacet
  facet normal 1.24961e-006 -0.707106 -0.707107
    outer loop
      vertex -3.63083 45.5513 3
      vertex -1.4542 43.6038 4.94745
      vertex -2.68701 44.2068 4.34443
    endloop
  endfacet
  facet normal -0 -0.707107 -0.707106
    outer loop
      vertex 3.63083 45.5513 3
      vertex 0 43.3921 5.1592
      vertex -3.63083 45.5513 3
    endloop
  endfacet
  facet normal 3.54595e-006 -0.707106 -0.707108
    outer loop
      vertex -3.63083 45.5513 3
      vertex -2.68701 44.2068 4.34443
      vertex -3.51074 45.1093 3.44195
    endloop
  endfacet
  facet normal -4.63533e-007 -0.707107 -0.707107
    outer loop
      vertex 0 43.3921 5.1592
      vertex 3.63083 45.5513 3
      vertex 1.4542 43.6038 4.94745
    endloop
  endfacet
  facet normal -1.24961e-006 -0.707106 -0.707107
    outer loop
      vertex 1.4542 43.6038 4.94745
      vertex 3.63083 45.5513 3
      vertex 2.68701 44.2068 4.34443
    endloop
  endfacet
  facet normal -3.54595e-006 -0.707106 -0.707108
    outer loop
      vertex 2.68701 44.2068 4.34443
      vertex 3.63083 45.5513 3
      vertex 3.51074 45.1093 3.44195
    endloop
  endfacet
  facet normal 0.980785 0.168953 -0.0975451
    outer loop
      vertex 3.8 45.5513 1.29904
      vertex 3.51074 50.8373 7.54633
      vertex 3.8 49.5779 8.27343
    endloop
  endfacet
  facet normal 0.980785 0.168953 -0.097545
    outer loop
      vertex 3.51074 50.8373 7.54633
      vertex 3.8 45.5513 1.29904
      vertex 3.51074 46.4804 0
    endloop
  endfacet
  facet normal 0.980785 0.168953 -0.097545
    outer loop
      vertex 3.51074 46.4804 0
      vertex 3.8 45.5513 1.29904
      vertex 3.6708 45.5513 0
    endloop
  endfacet
  facet normal 0.555571 -0.720073 0.415734
    outer loop
      vertex 1.4542 43.6038 4.94745
      vertex 2.68701 47.2509 9.61693
      vertex 1.4542 46.5375 10.0288
    endloop
  endfacet
  facet normal 0.55557 -0.720074 0.415735
    outer loop
      vertex 2.68701 47.2509 9.61693
      vertex 1.4542 43.6038 4.94745
      vertex 2.68701 44.2068 4.34443
    endloop
  endfacet
  facet normal 0.19509 -0.849385 0.490393
    outer loop
      vertex 0 43.3921 5.1592
      vertex 1.4542 46.5375 10.0288
      vertex 0 46.287 10.1734
    endloop
  endfacet
  facet normal 0.195089 -0.849385 0.490393
    outer loop
      vertex 1.4542 46.5375 10.0288
      vertex 0 43.3921 5.1592
      vertex 1.4542 43.6038 4.94745
    endloop
  endfacet
  facet normal -0.831469 -0.481138 0.277786
    outer loop
      vertex -2.68701 44.2068 4.34443
      vertex -3.51074 48.3186 9.00053
      vertex -3.51074 45.1093 3.44195
    endloop
  endfacet
  facet normal -0.831469 -0.481138 0.277786
    outer loop
      vertex -3.51074 48.3186 9.00053
      vertex -2.68701 44.2068 4.34443
      vertex -2.68701 47.2509 9.61693
    endloop
  endfacet
  facet normal 0.19509 0.849385 -0.490393
    outer loop
      vertex 1.4542 48.8551 0
      vertex 0 52.8688 6.37343
      vertex 1.4542 52.6183 6.51806
    endloop
  endfacet
  facet normal 0.195091 0.849385 -0.490392
    outer loop
      vertex 0 52.8688 6.37343
      vertex 1.4542 48.8551 0
      vertex 0 49.1891 0
    endloop
  endfacet
  facet normal -0.980785 0.168953 -0.097545
    outer loop
      vertex -3.8 45.5513 1.29904
      vertex -3.51074 50.8373 7.54633
      vertex -3.51074 46.4804 0
    endloop
  endfacet
  facet normal -0.980785 0.168953 -0.097545
    outer loop
      vertex -3.8 45.5513 1.29904
      vertex -3.51074 46.4804 0
      vertex -3.6708 45.5513 0
    endloop
  endfacet
  facet normal -0.980785 0.168953 -0.0975451
    outer loop
      vertex -3.51074 50.8373 7.54633
      vertex -3.8 45.5513 1.29904
      vertex -3.8 49.5779 8.27343
    endloop
  endfacet
  facet normal -0.980785 -0.168953 0.097545
    outer loop
      vertex -3.63083 45.5513 3
      vertex -3.8 49.5779 8.27343
      vertex -3.8 45.5513 1.29904
    endloop
  endfacet
  facet normal -0.980785 -0.168952 0.0975447
    outer loop
      vertex -3.51074 45.1093 3.44195
      vertex -3.8 49.5779 8.27343
      vertex -3.63083 45.5513 3
    endloop
  endfacet
  facet normal -0.980785 -0.168953 0.0975449
    outer loop
      vertex -3.8 49.5779 8.27343
      vertex -3.51074 45.1093 3.44195
      vertex -3.51074 48.3186 9.00053
    endloop
  endfacet
  facet normal 0.831469 -0.481138 0.277786
    outer loop
      vertex 2.68701 44.2068 4.34443
      vertex 3.51074 48.3186 9.00053
      vertex 2.68701 47.2509 9.61693
    endloop
  endfacet
  facet normal 0.831469 -0.481138 0.277786
    outer loop
      vertex 3.51074 48.3186 9.00053
      vertex 2.68701 44.2068 4.34443
      vertex 3.51074 45.1093 3.44195
    endloop
  endfacet
  facet normal -0.555571 -0.720073 0.415734
    outer loop
      vertex -2.68701 47.2509 9.61693
      vertex -1.4542 43.6038 4.94745
      vertex -1.4542 46.5375 10.0288
    endloop
  endfacet
  facet normal -0.55557 -0.720074 0.415735
    outer loop
      vertex -1.4542 43.6038 4.94745
      vertex -2.68701 47.2509 9.61693
      vertex -2.68701 44.2068 4.34443
    endloop
  endfacet
  facet normal -0.19509 -0.849385 0.490393
    outer loop
      vertex -1.4542 46.5375 10.0288
      vertex 0 43.3921 5.1592
      vertex 0 46.287 10.1734
    endloop
  endfacet
  facet normal -0.195089 -0.849385 0.490393
    outer loop
      vertex 0 43.3921 5.1592
      vertex -1.4542 46.5375 10.0288
      vertex -1.4542 43.6038 4.94745
    endloop
  endfacet
  facet normal 0.83147 0.481138 -0.277785
    outer loop
      vertex 3.51074 50.8373 7.54633
      vertex 2.68701 47.904 0
      vertex 2.68701 51.905 6.92993
    endloop
  endfacet
  facet normal 0.83147 0.481138 -0.277785
    outer loop
      vertex 2.68701 47.904 0
      vertex 3.51074 50.8373 7.54633
      vertex 3.51074 46.4804 0
    endloop
  endfacet
  facet normal 0.55557 0.720074 -0.415735
    outer loop
      vertex 2.68701 47.904 0
      vertex 1.4542 52.6183 6.51806
      vertex 2.68701 51.905 6.92993
    endloop
  endfacet
  facet normal 0.55557 0.720074 -0.415735
    outer loop
      vertex 1.4542 52.6183 6.51806
      vertex 2.68701 47.904 0
      vertex 1.4542 48.8551 0
    endloop
  endfacet
  facet normal -0.83147 0.481138 -0.277785
    outer loop
      vertex -2.68701 47.904 0
      vertex -3.51074 50.8373 7.54633
      vertex -2.68701 51.905 6.92993
    endloop
  endfacet
  facet normal -0.83147 0.481138 -0.277785
    outer loop
      vertex -3.51074 50.8373 7.54633
      vertex -2.68701 47.904 0
      vertex -3.51074 46.4804 0
    endloop
  endfacet
  facet normal -0.55557 0.720074 -0.415735
    outer loop
      vertex -2.68701 47.904 0
      vertex -1.4542 52.6183 6.51806
      vertex -1.4542 48.8551 0
    endloop
  endfacet
  facet normal -0.55557 0.720074 -0.415735
    outer loop
      vertex -1.4542 52.6183 6.51806
      vertex -2.68701 47.904 0
      vertex -2.68701 51.905 6.92993
    endloop
  endfacet
  facet normal -0.195091 0.849385 -0.490392
    outer loop
      vertex -1.4542 48.8551 0
      vertex 0 52.8688 6.37343
      vertex 0 49.1891 0
    endloop
  endfacet
  facet normal -0.19509 0.849385 -0.490393
    outer loop
      vertex 0 52.8688 6.37343
      vertex -1.4542 48.8551 0
      vertex -1.4542 52.6183 6.51806
    endloop
  endfacet
  facet normal 0.980785 -0.168952 0.0975447
    outer loop
      vertex 3.8 49.5779 8.27343
      vertex 3.51074 45.1093 3.44195
      vertex 3.63083 45.5513 3
    endloop
  endfacet
  facet normal 0.980785 -0.168953 0.0975449
    outer loop
      vertex 3.51074 45.1093 3.44195
      vertex 3.8 49.5779 8.27343
      vertex 3.51074 48.3186 9.00053
    endloop
  endfacet
  facet normal 0.980785 -0.168953 0.097545
    outer loop
      vertex 3.8 49.5779 8.27343
      vertex 3.63083 45.5513 3
      vertex 3.8 45.5513 1.29904
    endloop
  endfacet
  facet normal 1 0 0
    outer loop
      vertex 4.41673 52.5929 18.5955
      vertex 4.41673 55.468 8.27532
      vertex 4.41673 59.218 14.7705
    endloop
  endfacet
  facet normal 1 0 0
    outer loop
      vertex 4.41673 55.468 8.27532
      vertex 4.41673 52.5929 18.5955
      vertex 4.41673 48.8429 12.1003
    endloop
  endfacet
  facet normal -0.5 -0.75 0.433013
    outer loop
      vertex -4.41673 52.5929 18.5955
      vertex 0 46.6345 13.3753
      vertex 0 50.3845 19.8705
    endloop
  endfacet
  facet normal -0.5 -0.75 0.433013
    outer loop
      vertex 0 46.6345 13.3753
      vertex -4.41673 52.5929 18.5955
      vertex -4.41673 48.8429 12.1003
    endloop
  endfacet
  facet normal 0.86194 -0.090091 -0.498942
    outer loop
      vertex 3.8 49.5779 8.27343
      vertex 3.51074 50.8373 7.54633
      vertex 4.41673 55.468 8.27532
    endloop
  endfacet
  facet normal 0.488289 -0.840017 0.236528
    outer loop
      vertex 4.41673 48.8429 12.1003
      vertex 0 46.6345 13.3753
      vertex 1.4542 46.5375 10.0288
    endloop
  endfacet
  facet normal 4.41455e-008 0.5 0.866025
    outer loop
      vertex 1.66298 55.3978 16.9761
      vertex 4.41673 52.5929 18.5955
      vertex 4.41673 59.218 14.7705
    endloop
  endfacet
  facet normal -1.01681e-006 0.499999 0.866026
    outer loop
      vertex 4.41673 52.5929 18.5955
      vertex 1.66298 55.3978 16.9761
      vertex 1.8 54.8013 17.3205
    endloop
  endfacet
  facet normal 3.31062e-007 0.5 0.866025
    outer loop
      vertex 4.41673 59.218 14.7705
      vertex 1.27873 55.8958 16.6886
      vertex 1.66298 55.3978 16.9761
    endloop
  endfacet
  facet normal 4.04585e-006 0.499997 0.866027
    outer loop
      vertex 4.41673 59.218 14.7705
      vertex 1.27279 55.9035 16.6841
      vertex 1.27873 55.8958 16.6886
    endloop
  endfacet
  facet normal -5.55339e-005 0.50004 0.866002
    outer loop
      vertex 4.41673 59.218 14.7705
      vertex 1.26391 55.9087 16.6811
      vertex 1.27279 55.9035 16.6841
    endloop
  endfacet
  facet normal 3.00242e-007 0.5 0.866025
    outer loop
      vertex 4.41673 59.218 14.7705
      vertex 0.688829 56.2415 16.489
      vertex 1.26391 55.9087 16.6811
    endloop
  endfacet
  facet normal -1.72215e-006 0.500002 0.866024
    outer loop
      vertex 4.41673 59.218 14.7705
      vertex 0 56.3601 16.4205
      vertex 0.688829 56.2415 16.489
    endloop
  endfacet
  facet normal -0 0.5 0.866026
    outer loop
      vertex -4.41673 59.218 14.7705
      vertex 0 56.3601 16.4205
      vertex 4.41673 59.218 14.7705
    endloop
  endfacet
  facet normal 1.72215e-006 0.500002 0.866024
    outer loop
      vertex 0 56.3601 16.4205
      vertex -4.41673 59.218 14.7705
      vertex -0.688829 56.2415 16.489
    endloop
  endfacet
  facet normal -3.00242e-007 0.5 0.866025
    outer loop
      vertex -0.688829 56.2415 16.489
      vertex -4.41673 59.218 14.7705
      vertex -1.26391 55.9087 16.6811
    endloop
  endfacet
  facet normal -4.41455e-008 0.5 0.866025
    outer loop
      vertex -4.41673 52.5929 18.5955
      vertex -1.66298 55.3978 16.9761
      vertex -4.41673 59.218 14.7705
    endloop
  endfacet
  facet normal -3.31062e-007 0.5 0.866025
    outer loop
      vertex -1.27873 55.8958 16.6886
      vertex -4.41673 59.218 14.7705
      vertex -1.66298 55.3978 16.9761
    endloop
  endfacet
  facet normal -4.04585e-006 0.499997 0.866027
    outer loop
      vertex -1.27279 55.9035 16.6841
      vertex -4.41673 59.218 14.7705
      vertex -1.27873 55.8958 16.6886
    endloop
  endfacet
  facet normal 5.55339e-005 0.50004 0.866002
    outer loop
      vertex -1.26391 55.9087 16.6811
      vertex -4.41673 59.218 14.7705
      vertex -1.27279 55.9035 16.6841
    endloop
  endfacet
  facet normal -4.43844e-006 0.499996 0.866028
    outer loop
      vertex 1.79791 54.7922 17.3257
      vertex 4.41673 52.5929 18.5955
      vertex 1.8 54.8013 17.3205
    endloop
  endfacet
  facet normal -3.38093e-007 0.5 0.866025
    outer loop
      vertex 1.66298 54.2047 17.6649
      vertex 4.41673 52.5929 18.5955
      vertex 1.79791 54.7922 17.3257
    endloop
  endfacet
  facet normal -3.33235e-007 0.5 0.866025
    outer loop
      vertex 1.27873 53.7067 17.9525
      vertex 4.41673 52.5929 18.5955
      vertex 1.66298 54.2047 17.6649
    endloop
  endfacet
  facet normal -2.10955e-006 0.499996 0.866028
    outer loop
      vertex 1.27279 53.699 17.9569
      vertex 4.41673 52.5929 18.5955
      vertex 1.27873 53.7067 17.9525
    endloop
  endfacet
  facet normal 3.23758e-005 0.50007 0.865985
    outer loop
      vertex 1.26391 53.6939 17.9599
      vertex 4.41673 52.5929 18.5955
      vertex 1.27279 53.699 17.9569
    endloop
  endfacet
  facet normal -9.2557e-007 0.5 0.866025
    outer loop
      vertex 0 50.3845 19.8705
      vertex 1.26391 53.6939 17.9599
      vertex 0.688829 53.3611 18.152
    endloop
  endfacet
  facet normal -2.67155e-007 0.5 0.866025
    outer loop
      vertex 0 50.3845 19.8705
      vertex 0.688829 53.3611 18.152
      vertex 0 53.2424 18.2205
    endloop
  endfacet
  facet normal -1.63601e-007 0.5 0.866025
    outer loop
      vertex 1.26391 53.6939 17.9599
      vertex 0 50.3845 19.8705
      vertex 4.41673 52.5929 18.5955
    endloop
  endfacet
  facet normal 2.67155e-007 0.5 0.866025
    outer loop
      vertex -0.688829 53.3611 18.152
      vertex 0 50.3845 19.8705
      vertex 0 53.2424 18.2205
    endloop
  endfacet
  facet normal 9.2557e-007 0.5 0.866025
    outer loop
      vertex -1.26391 53.6939 17.9599
      vertex 0 50.3845 19.8705
      vertex -0.688829 53.3611 18.152
    endloop
  endfacet
  facet normal -3.23758e-005 0.50007 0.865985
    outer loop
      vertex -4.41673 52.5929 18.5955
      vertex -1.26391 53.6939 17.9599
      vertex -1.27279 53.699 17.9569
    endloop
  endfacet
  facet normal 2.10955e-006 0.499996 0.866028
    outer loop
      vertex -4.41673 52.5929 18.5955
      vertex -1.27279 53.699 17.9569
      vertex -1.27873 53.7067 17.9525
    endloop
  endfacet
  facet normal 3.33235e-007 0.5 0.866025
    outer loop
      vertex -4.41673 52.5929 18.5955
      vertex -1.27873 53.7067 17.9525
      vertex -1.66298 54.2047 17.6649
    endloop
  endfacet
  facet normal 4.43844e-006 0.499996 0.866028
    outer loop
      vertex -4.41673 52.5929 18.5955
      vertex -1.79791 54.7922 17.3257
      vertex -1.8 54.8013 17.3205
    endloop
  endfacet
  facet normal 1.01681e-006 0.499999 0.866026
    outer loop
      vertex -1.66298 55.3978 16.9761
      vertex -4.41673 52.5929 18.5955
      vertex -1.8 54.8013 17.3205
    endloop
  endfacet
  facet normal 3.38093e-007 0.5 0.866025
    outer loop
      vertex -1.79791 54.7922 17.3257
      vertex -4.41673 52.5929 18.5955
      vertex -1.66298 54.2047 17.6649
    endloop
  endfacet
  facet normal 1.63601e-007 0.5 0.866025
    outer loop
      vertex -1.26391 53.6939 17.9599
      vertex -4.41673 52.5929 18.5955
      vertex 0 50.3845 19.8705
    endloop
  endfacet
  facet normal -1 0 0
    outer loop
      vertex -4.41673 55.468 8.27532
      vertex -4.41673 52.5929 18.5955
      vertex -4.41673 59.218 14.7705
    endloop
  endfacet
  facet normal -1 0 -0
    outer loop
      vertex -4.41673 52.5929 18.5955
      vertex -4.41673 55.468 8.27532
      vertex -4.41673 48.8429 12.1003
    endloop
  endfacet
  facet normal -0.157938 0.394118 -0.905388
    outer loop
      vertex -1.4542 52.6183 6.51806
      vertex -4.41673 55.468 8.27532
      vertex 0 52.8688 6.37343
    endloop
  endfacet
  facet normal 0 0.866025 -0.5
    outer loop
      vertex 4.41673 59.218 14.7705
      vertex 3.11769 56.968 10.8734
      vertex -4.41673 59.218 14.7705
    endloop
  endfacet
  facet normal 1.46828e-007 0.866025 -0.5
    outer loop
      vertex 4.41673 55.468 8.27532
      vertex 3.11769 56.968 10.8734
      vertex 4.41673 59.218 14.7705
    endloop
  endfacet
  facet normal 0 0.866025 -0.5
    outer loop
      vertex 3.11769 56.968 10.8734
      vertex 4.41673 55.468 8.27532
      vertex 3.11769 55.468 8.27532
    endloop
  endfacet
  facet normal 0 0.866025 -0.5
    outer loop
      vertex -3.11769 56.968 10.8734
      vertex -4.41673 59.218 14.7705
      vertex 3.11769 56.968 10.8734
    endloop
  endfacet
  facet normal 0 0.866025 -0.5
    outer loop
      vertex -4.41673 55.468 8.27532
      vertex -3.11769 56.968 10.8734
      vertex -3.11769 55.468 8.27532
    endloop
  endfacet
  facet normal -1.46828e-007 0.866025 -0.5
    outer loop
      vertex -3.11769 56.968 10.8734
      vertex -4.41673 55.468 8.27532
      vertex -4.41673 59.218 14.7705
    endloop
  endfacet
  facet normal 0 0.590522 -0.807022
    outer loop
      vertex 0 52.8688 6.37343
      vertex 3.11769 55.468 8.27532
      vertex 4.41673 55.468 8.27532
    endloop
  endfacet
  facet normal 0 0.590522 -0.807022
    outer loop
      vertex 0 52.8688 6.37343
      vertex -3.11769 55.468 8.27532
      vertex 3.11769 55.468 8.27532
    endloop
  endfacet
  facet normal 0 0.590522 -0.807022
    outer loop
      vertex -3.11769 55.468 8.27532
      vertex 0 52.8688 6.37343
      vertex -4.41673 55.468 8.27532
    endloop
  endfacet
  facet normal 0.5 -0.75 0.433013
    outer loop
      vertex 0 46.6345 13.3753
      vertex 4.41673 52.5929 18.5955
      vertex 0 50.3845 19.8705
    endloop
  endfacet
  facet normal 0.5 -0.75 0.433013
    outer loop
      vertex 4.41673 52.5929 18.5955
      vertex 0 46.6345 13.3753
      vertex 4.41673 48.8429 12.1003
    endloop
  endfacet
  facet normal 0.978792 -0.102429 -0.177413
    outer loop
      vertex 4.41673 48.8429 12.1003
      vertex 3.8 49.5779 8.27343
      vertex 4.41673 55.468 8.27532
    endloop
  endfacet
  facet normal -0.533947 -0.830185 0.160289
    outer loop
      vertex -1.4542 46.5375 10.0288
      vertex -4.41673 48.8429 12.1003
      vertex -2.68701 47.2509 9.61693
    endloop
  endfacet
  facet normal -0.918609 -0.333435 -0.212083
    outer loop
      vertex -3.51074 48.3186 9.00053
      vertex -4.41673 48.8429 12.1003
      vertex -3.8 49.5779 8.27343
    endloop
  endfacet
  facet normal 0.157938 0.394118 -0.905388
    outer loop
      vertex 1.4542 52.6183 6.51806
      vertex 0 52.8688 6.37343
      vertex 4.41673 55.468 8.27532
    endloop
  endfacet
  facet normal 0.391474 0.152603 -0.907447
    outer loop
      vertex 2.68701 51.905 6.92993
      vertex 1.4542 52.6183 6.51806
      vertex 4.41673 55.468 8.27532
    endloop
  endfacet
  facet normal 0.604915 0.00700051 -0.796259
    outer loop
      vertex 3.51074 50.8373 7.54633
      vertex 2.68701 51.905 6.92993
      vertex 4.41673 55.468 8.27532
    endloop
  endfacet
  facet normal -0.604915 0.00700051 -0.796259
    outer loop
      vertex -3.51074 50.8373 7.54633
      vertex -4.41673 55.468 8.27532
      vertex -2.68701 51.905 6.92993
    endloop
  endfacet
  facet normal -0.391474 0.152603 -0.907447
    outer loop
      vertex -2.68701 51.905 6.92993
      vertex -4.41673 55.468 8.27532
      vertex -1.4542 52.6183 6.51806
    endloop
  endfacet
  facet normal 0.179047 -0.978097 0.106153
    outer loop
      vertex 0 46.6345 13.3753
      vertex 0 46.287 10.1734
      vertex 1.4542 46.5375 10.0288
    endloop
  endfacet
  facet normal -0.488289 -0.840017 0.236528
    outer loop
      vertex 0 46.6345 13.3753
      vertex -4.41673 48.8429 12.1003
      vertex -1.4542 46.5375 10.0288
    endloop
  endfacet
  facet normal -0.754736 -0.646531 -0.111226
    outer loop
      vertex -2.68701 47.2509 9.61693
      vertex -4.41673 48.8429 12.1003
      vertex -3.51074 48.3186 9.00053
    endloop
  endfacet
  facet normal 0.918609 -0.333435 -0.212083
    outer loop
      vertex 4.41673 48.8429 12.1003
      vertex 3.51074 48.3186 9.00053
      vertex 3.8 49.5779 8.27343
    endloop
  endfacet
  facet normal -0.179047 -0.978097 0.106153
    outer loop
      vertex 0 46.6345 13.3753
      vertex -1.4542 46.5375 10.0288
      vertex 0 46.287 10.1734
    endloop
  endfacet
  facet normal -0.978792 -0.102429 -0.177413
    outer loop
      vertex -3.8 49.5779 8.27343
      vertex -4.41673 48.8429 12.1003
      vertex -4.41673 55.468 8.27532
    endloop
  endfacet
  facet normal -0.86194 -0.090091 -0.498942
    outer loop
      vertex -3.8 49.5779 8.27343
      vertex -4.41673 55.468 8.27532
      vertex -3.51074 50.8373 7.54633
    endloop
  endfacet
  facet normal 0.754736 -0.646531 -0.111226
    outer loop
      vertex 4.41673 48.8429 12.1003
      vertex 2.68701 47.2509 9.61693
      vertex 3.51074 48.3186 9.00053
    endloop
  endfacet
  facet normal 0.533947 -0.830185 0.160289
    outer loop
      vertex 4.41673 48.8429 12.1003
      vertex 1.4542 46.5375 10.0288
      vertex 2.68701 47.2509 9.61693
    endloop
  endfacet
  facet normal 1 0 0
    outer loop
      vertex -3.11769 55.669 11.6234
      vertex -3.11769 55.468 8.27532
      vertex -3.11769 56.968 10.8734
    endloop
  endfacet
  facet normal 1 -0 0
    outer loop
      vertex -3.11769 49.4924 11.7253
      vertex -3.11769 55.669 11.6234
      vertex -3.11769 50.9924 14.3234
    endloop
  endfacet
  facet normal 1 0 0
    outer loop
      vertex -3.11769 55.669 11.6234
      vertex -3.11769 49.4924 11.7253
      vertex -3.11769 55.468 8.27532
    endloop
  endfacet
  facet normal 8.31666e-007 0.5 0.866025
    outer loop
      vertex 1.66298 51.6478 10.4809
      vertex 3.11769 49.4924 11.7253
      vertex 3.11769 55.468 8.27532
    endloop
  endfacet
  facet normal -3.02396e-006 0.499998 0.866027
    outer loop
      vertex 3.11769 49.4924 11.7253
      vertex 1.66298 51.6478 10.4809
      vertex 1.8 51.0513 10.8253
    endloop
  endfacet
  facet normal -1.2097e-006 0.500001 0.866025
    outer loop
      vertex 3.11769 55.468 8.27532
      vertex 1.2758 52.1496 10.1912
      vertex 1.66298 51.6478 10.4809
    endloop
  endfacet
  facet normal 0.000192921 0.49992 0.866072
    outer loop
      vertex 3.11769 55.468 8.27532
      vertex 1.27279 52.1535 10.1889
      vertex 1.2758 52.1496 10.1912
    endloop
  endfacet
  facet normal -0.0002759 0.500115 0.865959
    outer loop
      vertex 3.11769 55.468 8.27532
      vertex 1.26829 52.1561 10.1874
      vertex 1.27279 52.1535 10.1889
    endloop
  endfacet
  facet normal 2.99685e-007 0.5 0.866026
    outer loop
      vertex 3.11769 55.468 8.27532
      vertex 0.688829 52.4915 9.99383
      vertex 1.26829 52.1561 10.1874
    endloop
  endfacet
  facet normal 2.24893e-007 0.5 0.866026
    outer loop
      vertex 3.11769 55.468 8.27532
      vertex 0 52.6101 9.92532
      vertex 0.688829 52.4915 9.99383
    endloop
  endfacet
  facet normal -0 0.5 0.866025
    outer loop
      vertex -3.11769 55.468 8.27532
      vertex 0 52.6101 9.92532
      vertex 3.11769 55.468 8.27532
    endloop
  endfacet
  facet normal -2.24893e-007 0.5 0.866026
    outer loop
      vertex 0 52.6101 9.92532
      vertex -3.11769 55.468 8.27532
      vertex -0.688829 52.4915 9.99383
    endloop
  endfacet
  facet normal -2.99685e-007 0.5 0.866026
    outer loop
      vertex -0.688829 52.4915 9.99383
      vertex -3.11769 55.468 8.27532
      vertex -1.26829 52.1561 10.1874
    endloop
  endfacet
  facet normal -0.000192921 0.49992 0.866072
    outer loop
      vertex -3.11769 55.468 8.27532
      vertex -1.2758 52.1496 10.1912
      vertex -1.27279 52.1535 10.1889
    endloop
  endfacet
  facet normal -8.31666e-007 0.5 0.866025
    outer loop
      vertex -3.11769 49.4924 11.7253
      vertex -1.66298 51.6478 10.4809
      vertex -3.11769 55.468 8.27532
    endloop
  endfacet
  facet normal 1.2097e-006 0.500001 0.866025
    outer loop
      vertex -1.2758 52.1496 10.1912
      vertex -3.11769 55.468 8.27532
      vertex -1.66298 51.6478 10.4809
    endloop
  endfacet
  facet normal 0.0002759 0.500115 0.865959
    outer loop
      vertex -1.26829 52.1561 10.1874
      vertex -3.11769 55.468 8.27532
      vertex -1.27279 52.1535 10.1889
    endloop
  endfacet
  facet normal 0.000195947 0.500124 0.865954
    outer loop
      vertex 1.79894 51.0467 10.828
      vertex 3.11769 49.4924 11.7253
      vertex 1.8 51.0513 10.8253
    endloop
  endfacet
  facet normal 3.09064e-007 0.5 0.866026
    outer loop
      vertex 1.66298 50.4547 11.1697
      vertex 3.11769 49.4924 11.7253
      vertex 1.79894 51.0467 10.828
    endloop
  endfacet
  facet normal -5.32579e-007 0.499999 0.866026
    outer loop
      vertex 1.2758 49.9529 11.4595
      vertex 3.11769 49.4924 11.7253
      vertex 1.66298 50.4547 11.1697
    endloop
  endfacet
  facet normal 9.32894e-005 0.50028 0.865864
    outer loop
      vertex 1.27279 49.949 11.4617
      vertex 3.11769 49.4924 11.7253
      vertex 1.2758 49.9529 11.4595
    endloop
  endfacet
  facet normal -1.704e-005 0.499946 0.866057
    outer loop
      vertex 1.26829 49.9464 11.4632
      vertex 3.11769 49.4924 11.7253
      vertex 1.27279 49.949 11.4617
    endloop
  endfacet
  facet normal -7.82309e-008 0.499998 0.866027
    outer loop
      vertex 0.688829 49.6111 11.6568
      vertex 3.11769 49.4924 11.7253
      vertex 1.26829 49.9464 11.4632
    endloop
  endfacet
  facet normal -3.41829e-007 0.5 0.866025
    outer loop
      vertex 0 47.9336 12.6253
      vertex 0.688829 49.6111 11.6568
      vertex 0 49.4924 11.7253
    endloop
  endfacet
  facet normal 8.83144e-008 0.5 0.866025
    outer loop
      vertex 0.688829 49.6111 11.6568
      vertex 0 47.9336 12.6253
      vertex 3.11769 49.4924 11.7253
    endloop
  endfacet
  facet normal 3.41829e-007 0.5 0.866025
    outer loop
      vertex -0.688829 49.6111 11.6568
      vertex 0 47.9336 12.6253
      vertex 0 49.4924 11.7253
    endloop
  endfacet
  facet normal 7.82309e-008 0.499998 0.866027
    outer loop
      vertex -3.11769 49.4924 11.7253
      vertex -0.688829 49.6111 11.6568
      vertex -1.26829 49.9464 11.4632
    endloop
  endfacet
  facet normal 1.704e-005 0.499946 0.866057
    outer loop
      vertex -3.11769 49.4924 11.7253
      vertex -1.26829 49.9464 11.4632
      vertex -1.27279 49.949 11.4617
    endloop
  endfacet
  facet normal -9.32894e-005 0.50028 0.865864
    outer loop
      vertex -3.11769 49.4924 11.7253
      vertex -1.27279 49.949 11.4617
      vertex -1.2758 49.9529 11.4595
    endloop
  endfacet
  facet normal 5.32579e-007 0.499999 0.866026
    outer loop
      vertex -3.11769 49.4924 11.7253
      vertex -1.2758 49.9529 11.4595
      vertex -1.66298 50.4547 11.1697
    endloop
  endfacet
  facet normal -0.000195947 0.500124 0.865954
    outer loop
      vertex -3.11769 49.4924 11.7253
      vertex -1.79894 51.0467 10.828
      vertex -1.8 51.0513 10.8253
    endloop
  endfacet
  facet normal 3.02396e-006 0.499998 0.866027
    outer loop
      vertex -1.66298 51.6478 10.4809
      vertex -3.11769 49.4924 11.7253
      vertex -1.8 51.0513 10.8253
    endloop
  endfacet
  facet normal -8.83144e-008 0.5 0.866025
    outer loop
      vertex -0.688829 49.6111 11.6568
      vertex -3.11769 49.4924 11.7253
      vertex 0 47.9336 12.6253
    endloop
  endfacet
  facet normal -3.09064e-007 0.5 0.866026
    outer loop
      vertex -1.79894 51.0467 10.828
      vertex -3.11769 49.4924 11.7253
      vertex -1.66298 50.4547 11.1697
    endloop
  endfacet
  facet normal -0.5 0.75 -0.433013
    outer loop
      vertex 3.11769 50.9924 14.3234
      vertex 0 47.9336 12.6253
      vertex 0 49.4336 15.2234
    endloop
  endfacet
  facet normal -0.5 0.75 -0.433013
    outer loop
      vertex 0 47.9336 12.6253
      vertex 3.11769 50.9924 14.3234
      vertex 3.11769 49.4924 11.7253
    endloop
  endfacet
  facet normal 0.5 0.75 -0.433013
    outer loop
      vertex 0 47.9336 12.6253
      vertex -3.11769 50.9924 14.3234
      vertex 0 49.4336 15.2234
    endloop
  endfacet
  facet normal 0.5 0.75 -0.433013
    outer loop
      vertex -3.11769 50.9924 14.3234
      vertex 0 47.9336 12.6253
      vertex -3.11769 49.4924 11.7253
    endloop
  endfacet
  facet normal 0 -0.5 -0.866025
    outer loop
      vertex -3.11769 55.669 11.6234
      vertex 3.11769 56.968 10.8734
      vertex 3.11769 55.669 11.6234
    endloop
  endfacet
  facet normal -0 -0.5 -0.866025
    outer loop
      vertex 3.11769 56.968 10.8734
      vertex -3.11769 55.669 11.6234
      vertex -3.11769 56.968 10.8734
    endloop
  endfacet
  facet normal -1 0 0
    outer loop
      vertex 3.11769 55.468 8.27532
      vertex 3.11769 55.669 11.6234
      vertex 3.11769 56.968 10.8734
    endloop
  endfacet
  facet normal -1 0 0
    outer loop
      vertex 3.11769 49.4924 11.7253
      vertex 3.11769 55.669 11.6234
      vertex 3.11769 55.468 8.27532
    endloop
  endfacet
  facet normal -1 0 0
    outer loop
      vertex 3.11769 55.669 11.6234
      vertex 3.11769 49.4924 11.7253
      vertex 3.11769 50.9924 14.3234
    endloop
  endfacet
  facet normal -0.354273 -0.884243 -0.304311
    outer loop
      vertex 3.11769 55.669 11.6234
      vertex 2.88386 54.8932 14.1497
      vertex 0 56.3351 13.3172
    endloop
  endfacet
  facet normal -0.495834 0.67934 -0.540968
    outer loop
      vertex 2.88386 52.0093 15.8147
      vertex 3.11769 50.9924 14.3234
      vertex 0 49.4336 15.2234
    endloop
  endfacet
  facet normal 0.991668 -0.0644106 -0.111563
    outer loop
      vertex -3.11769 50.9924 14.3234
      vertex -2.88386 54.8932 14.1497
      vertex -2.88386 52.0093 15.8147
    endloop
  endfacet
  facet normal 0.991668 -0.0644106 -0.111562
    outer loop
      vertex -2.88386 54.8932 14.1497
      vertex -3.11769 50.9924 14.3234
      vertex -3.11769 55.669 11.6234
    endloop
  endfacet
  facet normal 0 -0.930614 0.366001
    outer loop
      vertex 3.11769 55.669 11.6234
      vertex 0 56.3351 13.3172
      vertex -3.11769 55.669 11.6234
    endloop
  endfacet
  facet normal -0.991668 -0.0644106 -0.111562
    outer loop
      vertex 3.11769 50.9924 14.3234
      vertex 2.88386 54.8932 14.1497
      vertex 3.11769 55.669 11.6234
    endloop
  endfacet
  facet normal -0.991668 -0.0644106 -0.111563
    outer loop
      vertex 2.88386 54.8932 14.1497
      vertex 3.11769 50.9924 14.3234
      vertex 2.88386 52.0093 15.8147
    endloop
  endfacet
  facet normal 0.495834 0.67934 -0.540967
    outer loop
      vertex 0 50.5674 16.6472
      vertex 0 49.4336 15.2234
      vertex -2.88386 52.0093 15.8147
    endloop
  endfacet
  facet normal -0.495834 0.67934 -0.540967
    outer loop
      vertex 0 50.5674 16.6472
      vertex 2.88386 52.0093 15.8147
      vertex 0 49.4336 15.2234
    endloop
  endfacet
  facet normal 0.354273 -0.884243 -0.304311
    outer loop
      vertex 0 56.3351 13.3172
      vertex -2.88386 54.8932 14.1497
      vertex -3.11769 55.669 11.6234
    endloop
  endfacet
  facet normal 0.495834 0.67934 -0.540968
    outer loop
      vertex -2.88386 52.0093 15.8147
      vertex 0 49.4336 15.2234
      vertex -3.11769 50.9924 14.3234
    endloop
  endfacet
  facet normal -0.495833 0.67934 -0.540968
    outer loop
      vertex 0 51.3233 17.5965
      vertex 2.72798 52.6873 16.809
      vertex 0 50.5674 16.6472
    endloop
  endfacet
  facet normal 0 -0.499999 -0.866026
    outer loop
      vertex 2.72798 52.6873 16.809
      vertex 1.52188 53.2718 16.4715
      vertex 2.72798 53.2718 16.4715
    endloop
  endfacet
  facet normal -1.62503e-006 -0.500002 -0.866025
    outer loop
      vertex 2.72798 52.6873 16.809
      vertex 1.27814 52.9559 16.6539
      vertex 1.52188 53.2718 16.4715
    endloop
  endfacet
  facet normal 8.39182e-006 -0.499961 -0.866048
    outer loop
      vertex 2.72798 52.6873 16.809
      vertex 1.27279 52.949 16.6579
      vertex 1.27814 52.9559 16.6539
    endloop
  endfacet
  facet normal -2.63506e-006 -0.500007 -0.866021
    outer loop
      vertex 2.72798 52.6873 16.809
      vertex 1.26478 52.9444 16.6605
      vertex 1.27279 52.949 16.6579
    endloop
  endfacet
  facet normal -1.83466e-007 -0.499997 -0.866027
    outer loop
      vertex 2.72798 52.6873 16.809
      vertex 0.688829 52.6111 16.853
      vertex 1.26478 52.9444 16.6605
    endloop
  endfacet
  facet normal 4.47922e-008 -0.500001 -0.866025
    outer loop
      vertex 0 51.3233 17.5965
      vertex 0.688829 52.6111 16.853
      vertex 2.72798 52.6873 16.809
    endloop
  endfacet
  facet normal -2.06777e-006 -0.5 -0.866025
    outer loop
      vertex 0 51.3233 17.5965
      vertex 0 52.4924 16.9215
      vertex 0.688829 52.6111 16.853
    endloop
  endfacet
  facet normal 2.06777e-006 -0.5 -0.866025
    outer loop
      vertex 0 51.3233 17.5965
      vertex -0.688829 52.6111 16.853
      vertex 0 52.4924 16.9215
    endloop
  endfacet
  facet normal -4.47922e-008 -0.500001 -0.866025
    outer loop
      vertex -2.72798 52.6873 16.809
      vertex -0.688829 52.6111 16.853
      vertex 0 51.3233 17.5965
    endloop
  endfacet
  facet normal 1.83466e-007 -0.499997 -0.866027
    outer loop
      vertex -0.688829 52.6111 16.853
      vertex -2.72798 52.6873 16.809
      vertex -1.26478 52.9444 16.6605
    endloop
  endfacet
  facet normal 2.63506e-006 -0.500007 -0.866021
    outer loop
      vertex -1.26478 52.9444 16.6605
      vertex -2.72798 52.6873 16.809
      vertex -1.27279 52.949 16.6579
    endloop
  endfacet
  facet normal -8.39182e-006 -0.499961 -0.866048
    outer loop
      vertex -2.72798 52.6873 16.809
      vertex -1.27814 52.9559 16.6539
      vertex -1.27279 52.949 16.6579
    endloop
  endfacet
  facet normal 1.62503e-006 -0.500002 -0.866025
    outer loop
      vertex -2.72798 52.6873 16.809
      vertex -1.52188 53.2718 16.4715
      vertex -1.27814 52.9559 16.6539
    endloop
  endfacet
  facet normal -0 -0.499999 -0.866026
    outer loop
      vertex -1.52188 53.2718 16.4715
      vertex -2.72798 52.6873 16.809
      vertex -2.72798 53.2718 16.4715
    endloop
  endfacet
  facet normal 0 -0.5 -0.866025
    outer loop
      vertex 1.52188 54.8307 15.5715
      vertex 2.72798 55.4153 15.234
      vertex 2.72798 54.8307 15.5715
    endloop
  endfacet
  facet normal -1.0032e-006 -0.499999 -0.866026
    outer loop
      vertex 1.27814 55.1466 15.3891
      vertex 2.72798 55.4153 15.234
      vertex 1.52188 54.8307 15.5715
    endloop
  endfacet
  facet normal 9.26589e-006 -0.50004 -0.866002
    outer loop
      vertex 1.27279 55.1535 15.3851
      vertex 2.72798 55.4153 15.234
      vertex 1.27814 55.1466 15.3891
    endloop
  endfacet
  facet normal -2.28169e-005 -0.499906 -0.866079
    outer loop
      vertex 1.26478 55.1582 15.3824
      vertex 2.72798 55.4153 15.234
      vertex 1.27279 55.1535 15.3851
    endloop
  endfacet
  facet normal -1.44128e-007 -0.500003 -0.866024
    outer loop
      vertex 0.688829 55.4915 15.19
      vertex 2.72798 55.4153 15.234
      vertex 1.26478 55.1582 15.3824
    endloop
  endfacet
  facet normal -1.7089e-007 -0.5 -0.866026
    outer loop
      vertex 0 56.7793 14.4465
      vertex 0.688829 55.4915 15.19
      vertex 0 55.6101 15.1215
    endloop
  endfacet
  facet normal 3.61319e-008 -0.499999 -0.866026
    outer loop
      vertex 0.688829 55.4915 15.19
      vertex 0 56.7793 14.4465
      vertex 2.72798 55.4153 15.234
    endloop
  endfacet
  facet normal 1.7089e-007 -0.5 -0.866026
    outer loop
      vertex -0.688829 55.4915 15.19
      vertex 0 56.7793 14.4465
      vertex 0 55.6101 15.1215
    endloop
  endfacet
  facet normal 1.44128e-007 -0.500003 -0.866024
    outer loop
      vertex -2.72798 55.4153 15.234
      vertex -0.688829 55.4915 15.19
      vertex -1.26478 55.1582 15.3824
    endloop
  endfacet
  facet normal 2.28169e-005 -0.499906 -0.866079
    outer loop
      vertex -2.72798 55.4153 15.234
      vertex -1.26478 55.1582 15.3824
      vertex -1.27279 55.1535 15.3851
    endloop
  endfacet
  facet normal 0 -0.5 -0.866025
    outer loop
      vertex -2.72798 55.4153 15.234
      vertex -1.52188 54.8307 15.5715
      vertex -2.72798 54.8307 15.5715
    endloop
  endfacet
  facet normal 1.0032e-006 -0.499999 -0.866026
    outer loop
      vertex -1.52188 54.8307 15.5715
      vertex -2.72798 55.4153 15.234
      vertex -1.27814 55.1466 15.3891
    endloop
  endfacet
  facet normal -9.26589e-006 -0.50004 -0.866002
    outer loop
      vertex -1.27814 55.1466 15.3891
      vertex -2.72798 55.4153 15.234
      vertex -1.27279 55.1535 15.3851
    endloop
  endfacet
  facet normal -3.61319e-008 -0.499999 -0.866026
    outer loop
      vertex -0.688829 55.4915 15.19
      vertex -2.72798 55.4153 15.234
      vertex 0 56.7793 14.4465
    endloop
  endfacet
  facet normal -0.495834 0.679341 -0.540967
    outer loop
      vertex 2.72798 52.6873 16.809
      vertex 2.88386 52.0093 15.8147
      vertex 0 50.5674 16.6472
    endloop
  endfacet
  facet normal 0.495834 -0.808161 0.317844
    outer loop
      vertex 0 56.3351 13.3172
      vertex 0 56.7793 14.4465
      vertex -2.72798 55.4153 15.234
    endloop
  endfacet
  facet normal 0.991668 -0.0644108 -0.111563
    outer loop
      vertex -2.72798 54.8307 15.5715
      vertex -2.88386 54.8932 14.1497
      vertex -2.72798 55.4153 15.234
    endloop
  endfacet
  facet normal 0.991668 -0.0644108 -0.111563
    outer loop
      vertex -2.72798 53.2718 16.4715
      vertex -2.88386 54.8932 14.1497
      vertex -2.72798 54.8307 15.5715
    endloop
  endfacet
  facet normal 0.991668 -0.0644107 -0.111563
    outer loop
      vertex -2.88386 52.0093 15.8147
      vertex -2.72798 53.2718 16.4715
      vertex -2.72798 52.6873 16.809
    endloop
  endfacet
  facet normal 0.991668 -0.0644108 -0.111563
    outer loop
      vertex -2.72798 53.2718 16.4715
      vertex -2.88386 52.0093 15.8147
      vertex -2.88386 54.8932 14.1497
    endloop
  endfacet
  facet normal 0.495833 -0.808162 0.317842
    outer loop
      vertex 0 56.3351 13.3172
      vertex -2.72798 55.4153 15.234
      vertex -2.88386 54.8932 14.1497
    endloop
  endfacet
  facet normal -0.495833 -0.808162 0.317842
    outer loop
      vertex 2.88386 54.8932 14.1497
      vertex 2.72798 55.4153 15.234
      vertex 0 56.3351 13.3172
    endloop
  endfacet
  facet normal -0.495834 -0.808161 0.317844
    outer loop
      vertex 2.72798 55.4153 15.234
      vertex 0 56.7793 14.4465
      vertex 0 56.3351 13.3172
    endloop
  endfacet
  facet normal -0.991668 -0.0644108 -0.111563
    outer loop
      vertex 2.88386 54.8932 14.1497
      vertex 2.72798 54.8307 15.5715
      vertex 2.72798 55.4153 15.234
    endloop
  endfacet
  facet normal -0.991668 -0.0644108 -0.111563
    outer loop
      vertex 2.88386 54.8932 14.1497
      vertex 2.72798 53.2718 16.4715
      vertex 2.72798 54.8307 15.5715
    endloop
  endfacet
  facet normal -0.991668 -0.0644108 -0.111563
    outer loop
      vertex 2.88386 52.0093 15.8147
      vertex 2.72798 53.2718 16.4715
      vertex 2.88386 54.8932 14.1497
    endloop
  endfacet
  facet normal -0.991668 -0.0644107 -0.111563
    outer loop
      vertex 2.72798 53.2718 16.4715
      vertex 2.88386 52.0093 15.8147
      vertex 2.72798 52.6873 16.809
    endloop
  endfacet
  facet normal 0.495834 0.679341 -0.540967
    outer loop
      vertex -2.72798 52.6873 16.809
      vertex 0 50.5674 16.6472
      vertex -2.88386 52.0093 15.8147
    endloop
  endfacet
  facet normal 0.495833 0.67934 -0.540968
    outer loop
      vertex 0 51.3233 17.5965
      vertex 0 50.5674 16.6472
      vertex -2.72798 52.6873 16.809
    endloop
  endfacet
  facet normal 1.46599e-005 -0.500012 -0.866018
    outer loop
      vertex -1.79805 54.2928 16.4594
      vertex -2.72798 53.5218 16.9045
      vertex -1.8 54.3013 16.4545
    endloop
  endfacet
  facet normal 6.6455e-007 -0.5 -0.866026
    outer loop
      vertex -1.66298 53.7047 16.7989
      vertex -2.72798 53.5218 16.9045
      vertex -1.79805 54.2928 16.4594
    endloop
  endfacet
  facet normal 0 -0.499997 -0.866027
    outer loop
      vertex -2.72798 53.5218 16.9045
      vertex -1.66298 53.7047 16.7989
      vertex -1.52188 53.5218 16.9045
    endloop
  endfacet
  facet normal 8.90004e-007 -0.5 -0.866025
    outer loop
      vertex -2.72798 55.0807 16.0045
      vertex -1.8 54.3013 16.4545
      vertex -2.72798 53.5218 16.9045
    endloop
  endfacet
  facet normal 1.08201e-006 -0.5 -0.866026
    outer loop
      vertex -1.8 54.3013 16.4545
      vertex -2.72798 55.0807 16.0045
      vertex -1.66298 54.8978 16.1101
    endloop
  endfacet
  facet normal 0 -0.500004 -0.866023
    outer loop
      vertex -1.66298 54.8978 16.1101
      vertex -2.72798 55.0807 16.0045
      vertex -1.52188 55.0807 16.0045
    endloop
  endfacet
  facet normal -8.90004e-007 -0.5 -0.866025
    outer loop
      vertex 2.72798 53.5218 16.9045
      vertex 1.8 54.3013 16.4545
      vertex 2.72798 55.0807 16.0045
    endloop
  endfacet
  facet normal -1.46599e-005 -0.500012 -0.866018
    outer loop
      vertex 2.72798 53.5218 16.9045
      vertex 1.79805 54.2928 16.4594
      vertex 1.8 54.3013 16.4545
    endloop
  endfacet
  facet normal -6.6455e-007 -0.5 -0.866026
    outer loop
      vertex 2.72798 53.5218 16.9045
      vertex 1.66298 53.7047 16.7989
      vertex 1.79805 54.2928 16.4594
    endloop
  endfacet
  facet normal 0 -0.499997 -0.866027
    outer loop
      vertex 1.66298 53.7047 16.7989
      vertex 2.72798 53.5218 16.9045
      vertex 1.52188 53.5218 16.9045
    endloop
  endfacet
  facet normal -1.08201e-006 -0.5 -0.866026
    outer loop
      vertex 1.66298 54.8978 16.1101
      vertex 2.72798 55.0807 16.0045
      vertex 1.8 54.3013 16.4545
    endloop
  endfacet
  facet normal -0 -0.500004 -0.866023
    outer loop
      vertex 2.72798 55.0807 16.0045
      vertex 1.66298 54.8978 16.1101
      vertex 1.52188 55.0807 16.0045
    endloop
  endfacet
  facet normal 0 0.866025 -0.500001
    outer loop
      vertex -1.52188 53.2718 16.4715
      vertex -2.72798 53.5218 16.9045
      vertex -1.52188 53.5218 16.9045
    endloop
  endfacet
  facet normal 0 0.866025 -0.500001
    outer loop
      vertex -2.72798 53.5218 16.9045
      vertex -1.52188 53.2718 16.4715
      vertex -2.72798 53.2718 16.4715
    endloop
  endfacet
  facet normal 0 0.866025 -0.500001
    outer loop
      vertex 2.72798 53.2718 16.4715
      vertex 1.52188 53.5218 16.9045
      vertex 2.72798 53.5218 16.9045
    endloop
  endfacet
  facet normal 0 0.866025 -0.500001
    outer loop
      vertex 1.52188 53.5218 16.9045
      vertex 2.72798 53.2718 16.4715
      vertex 1.52188 53.2718 16.4715
    endloop
  endfacet
  facet normal 0 -0.866025 0.500001
    outer loop
      vertex -2.72798 54.8307 15.5715
      vertex -1.52188 55.0807 16.0045
      vertex -2.72798 55.0807 16.0045
    endloop
  endfacet
  facet normal 0 -0.866025 0.500001
    outer loop
      vertex -1.52188 55.0807 16.0045
      vertex -2.72798 54.8307 15.5715
      vertex -1.52188 54.8307 15.5715
    endloop
  endfacet
  facet normal 0 -0.866025 0.500001
    outer loop
      vertex 1.52188 54.8307 15.5715
      vertex 2.72798 55.0807 16.0045
      vertex 1.52188 55.0807 16.0045
    endloop
  endfacet
  facet normal 0 -0.866025 0.500001
    outer loop
      vertex 2.72798 55.0807 16.0045
      vertex 1.52188 54.8307 15.5715
      vertex 2.72798 54.8307 15.5715
    endloop
  endfacet
  facet normal 1 0 0
    outer loop
      vertex -2.72798 53.5218 16.9045
      vertex -2.72798 54.8307 15.5715
      vertex -2.72798 55.0807 16.0045
    endloop
  endfacet
  facet normal 1 0 0
    outer loop
      vertex -2.72798 54.8307 15.5715
      vertex -2.72798 53.5218 16.9045
      vertex -2.72798 53.2718 16.4715
    endloop
  endfacet
  facet normal -1 0 0
    outer loop
      vertex 2.72798 54.8307 15.5715
      vertex 2.72798 53.5218 16.9045
      vertex 2.72798 55.0807 16.0045
    endloop
  endfacet
  facet normal -1 0 -0
    outer loop
      vertex 2.72798 53.5218 16.9045
      vertex 2.72798 54.8307 15.5715
      vertex 2.72798 53.2718 16.4715
    endloop
  endfacet
  facet normal -0.980786 -0.168952 0.0975446
    outer loop
      vertex 1.66298 47.7978 3.81251
      vertex 1.8 51.0513 10.8253
      vertex 1.66298 51.6478 10.4809
    endloop
  endfacet
  facet normal -0.980785 -0.168953 0.097545
    outer loop
      vertex 1.8 51.0513 10.8253
      vertex 1.66298 47.7978 3.81251
      vertex 1.8 47.2013 4.15692
    endloop
  endfacet
  facet normal -0.980786 -0.168952 0.0975445
    outer loop
      vertex 1.66298 54.8978 16.1101
      vertex 1.8 54.8013 17.3205
      vertex 1.66298 55.3978 16.9761
    endloop
  endfacet
  facet normal -0.980786 -0.168952 0.0975445
    outer loop
      vertex 1.8 54.8013 17.3205
      vertex 1.66298 54.8978 16.1101
      vertex 1.8 54.3013 16.4545
    endloop
  endfacet
  facet normal 0.555571 0.720074 -0.415735
    outer loop
      vertex -0.688829 45.7611 4.98841
      vertex -1.26829 49.9464 11.4632
      vertex -0.688829 49.6111 11.6568
    endloop
  endfacet
  facet normal 0.555568 0.720075 -0.415736
    outer loop
      vertex -1.26829 49.9464 11.4632
      vertex -0.688829 45.7611 4.98841
      vertex -1.27279 46.099 4.79332
    endloop
  endfacet
  facet normal 0.555571 0.720073 -0.415734
    outer loop
      vertex -0.688829 52.6111 16.853
      vertex -1.26391 53.6939 17.9599
      vertex -0.688829 53.3611 18.152
    endloop
  endfacet
  facet normal 0.555571 0.720074 -0.415735
    outer loop
      vertex -1.26391 53.6939 17.9599
      vertex -0.688829 52.6111 16.853
      vertex -1.26478 52.9444 16.6605
    endloop
  endfacet
  facet normal -1.2749e-007 0.500001 0.866025
    outer loop
      vertex 1.8 47.2013 4.15692
      vertex 1.66298 47.7978 3.81251
      vertex 1.27279 48.3035 3.52052
    endloop
  endfacet
  facet normal 4.70166e-007 0.5 0.866025
    outer loop
      vertex 1.66298 46.6047 4.50134
      vertex 1.27279 48.3035 3.52052
      vertex 0 45.6424 5.05692
    endloop
  endfacet
  facet normal 0.980779 0.16898 -0.0975604
    outer loop
      vertex -1.8 51.0513 10.8253
      vertex -1.79894 51.0467 10.828
      vertex -1.8 47.2013 4.15692
    endloop
  endfacet
  facet normal 0.98078 0.168978 -0.0975593
    outer loop
      vertex -1.79791 54.7922 17.3257
      vertex -1.8 54.3013 16.4545
      vertex -1.8 54.8013 17.3205
    endloop
  endfacet
  facet normal 0.98079 0.168933 -0.0975342
    outer loop
      vertex -1.8 54.3013 16.4545
      vertex -1.79791 54.7922 17.3257
      vertex -1.79805 54.2928 16.4594
    endloop
  endfacet
  facet normal -0.980785 0.168953 -0.0975449
    outer loop
      vertex 1.8 47.2013 4.15692
      vertex 1.66298 50.4547 11.1697
      vertex 1.79894 51.0467 10.828
    endloop
  endfacet
  facet normal -0.980786 0.168952 -0.0975446
    outer loop
      vertex 1.66298 50.4547 11.1697
      vertex 1.8 47.2013 4.15692
      vertex 1.66298 46.6047 4.50134
    endloop
  endfacet
  facet normal -0.980785 0.168952 -0.0975453
    outer loop
      vertex 1.79805 54.2928 16.4594
      vertex 1.66298 54.2047 17.6649
      vertex 1.79791 54.7922 17.3257
    endloop
  endfacet
  facet normal -0.980785 0.168953 -0.0975452
    outer loop
      vertex 1.66298 54.2047 17.6649
      vertex 1.79805 54.2928 16.4594
      vertex 1.66298 53.7047 16.7989
    endloop
  endfacet
  facet normal -0.555261 -0.720252 0.415838
    outer loop
      vertex 1.27279 48.3035 3.52052
      vertex 1.27279 52.1535 10.1889
      vertex 1.26829 52.1561 10.1874
    endloop
  endfacet
  facet normal -0.555654 -0.720026 0.415707
    outer loop
      vertex 1.26391 55.9087 16.6811
      vertex 1.27279 55.1535 15.3851
      vertex 1.27279 55.9035 16.6841
    endloop
  endfacet
  facet normal -0.555606 -0.720053 0.415723
    outer loop
      vertex 1.27279 55.1535 15.3851
      vertex 1.26391 55.9087 16.6811
      vertex 1.26478 55.1582 15.3824
    endloop
  endfacet
  facet normal 0.980786 -0.168952 0.0975446
    outer loop
      vertex -1.8 51.0513 10.8253
      vertex -1.66298 47.7978 3.81251
      vertex -1.66298 51.6478 10.4809
    endloop
  endfacet
  facet normal 0.980785 -0.168953 0.097545
    outer loop
      vertex -1.66298 47.7978 3.81251
      vertex -1.8 51.0513 10.8253
      vertex -1.8 47.2013 4.15692
    endloop
  endfacet
  facet normal 0.980786 -0.168952 0.0975445
    outer loop
      vertex -1.8 54.8013 17.3205
      vertex -1.66298 54.8978 16.1101
      vertex -1.66298 55.3978 16.9761
    endloop
  endfacet
  facet normal 0.980786 -0.168952 0.0975445
    outer loop
      vertex -1.66298 54.8978 16.1101
      vertex -1.8 54.8013 17.3205
      vertex -1.8 54.3013 16.4545
    endloop
  endfacet
  facet normal 0.19509 -0.849385 0.490392
    outer loop
      vertex -0.688829 48.6415 3.32543
      vertex 0 52.6101 9.92532
      vertex -0.688829 52.4915 9.99383
    endloop
  endfacet
  facet normal 0.19509 -0.849385 0.490392
    outer loop
      vertex 0 52.6101 9.92532
      vertex -0.688829 48.6415 3.32543
      vertex 0 48.7601 3.25692
    endloop
  endfacet
  facet normal 0.195092 -0.849385 0.490392
    outer loop
      vertex -0.688829 55.4915 15.19
      vertex 0 56.3601 16.4205
      vertex -0.688829 56.2415 16.489
    endloop
  endfacet
  facet normal 0.19509 -0.849385 0.490393
    outer loop
      vertex 0 56.3601 16.4205
      vertex -0.688829 55.4915 15.19
      vertex 0 55.6101 15.1215
    endloop
  endfacet
  facet normal 0.555571 -0.720073 0.415734
    outer loop
      vertex -1.27279 48.3035 3.52052
      vertex -0.688829 52.4915 9.99383
      vertex -1.26829 52.1561 10.1874
    endloop
  endfacet
  facet normal 0.555572 -0.720073 0.415734
    outer loop
      vertex -0.688829 52.4915 9.99383
      vertex -1.27279 48.3035 3.52052
      vertex -0.688829 48.6415 3.32543
    endloop
  endfacet
  facet normal 0.555567 -0.720076 0.415736
    outer loop
      vertex -1.26478 55.1582 15.3824
      vertex -0.688829 56.2415 16.489
      vertex -1.26391 55.9087 16.6811
    endloop
  endfacet
  facet normal 0.555568 -0.720075 0.415735
    outer loop
      vertex -0.688829 56.2415 16.489
      vertex -1.26478 55.1582 15.3824
      vertex -0.688829 55.4915 15.19
    endloop
  endfacet
  facet normal -0.19509 -0.849385 0.490392
    outer loop
      vertex 0 52.6101 9.92532
      vertex 0.688829 48.6415 3.32543
      vertex 0.688829 52.4915 9.99383
    endloop
  endfacet
  facet normal -0.19509 -0.849385 0.490392
    outer loop
      vertex 0.688829 48.6415 3.32543
      vertex 0 52.6101 9.92532
      vertex 0 48.7601 3.25692
    endloop
  endfacet
  facet normal -0.195092 -0.849385 0.490392
    outer loop
      vertex 0 56.3601 16.4205
      vertex 0.688829 55.4915 15.19
      vertex 0.688829 56.2415 16.489
    endloop
  endfacet
  facet normal -0.19509 -0.849385 0.490393
    outer loop
      vertex 0.688829 55.4915 15.19
      vertex 0 56.3601 16.4205
      vertex 0 55.6101 15.1215
    endloop
  endfacet
  facet normal -4.56092e-006 0.499999 0.866026
    outer loop
      vertex 1.66298 46.6047 4.50134
      vertex 1.8 47.2013 4.15692
      vertex 1.27279 48.3035 3.52052
    endloop
  endfacet
  facet normal -0.980779 0.16898 -0.0975604
    outer loop
      vertex 1.8 51.0513 10.8253
      vertex 1.8 47.2013 4.15692
      vertex 1.79894 51.0467 10.828
    endloop
  endfacet
  facet normal -0.98078 0.168978 -0.0975593
    outer loop
      vertex 1.8 54.3013 16.4545
      vertex 1.79791 54.7922 17.3257
      vertex 1.8 54.8013 17.3205
    endloop
  endfacet
  facet normal -0.98079 0.168933 -0.0975342
    outer loop
      vertex 1.79791 54.7922 17.3257
      vertex 1.8 54.3013 16.4545
      vertex 1.79805 54.2928 16.4594
    endloop
  endfacet
  facet normal 0.831313 0.481341 -0.277903
    outer loop
      vertex -1.27279 49.949 11.4617
      vertex -1.27279 46.099 4.79332
      vertex -1.2758 49.9529 11.4595
    endloop
  endfacet
  facet normal 0.831452 0.481161 -0.277799
    outer loop
      vertex -1.27279 53.699 17.9569
      vertex -1.27814 52.9559 16.6539
      vertex -1.27873 53.7067 17.9525
    endloop
  endfacet
  facet normal 0.831453 0.481159 -0.277797
    outer loop
      vertex -1.27814 52.9559 16.6539
      vertex -1.27279 53.699 17.9569
      vertex -1.27279 52.949 16.6579
    endloop
  endfacet
  facet normal 0.831469 -0.481138 0.277785
    outer loop
      vertex -1.66298 51.6478 10.4809
      vertex -1.27279 48.3035 3.52052
      vertex -1.2758 52.1496 10.1912
    endloop
  endfacet
  facet normal 0.83147 -0.481138 0.277785
    outer loop
      vertex -1.27279 48.3035 3.52052
      vertex -1.66298 51.6478 10.4809
      vertex -1.66298 47.7978 3.81251
    endloop
  endfacet
  facet normal 0.83147 -0.481137 0.277786
    outer loop
      vertex -1.52188 55.0807 16.0045
      vertex -1.27873 55.8958 16.6886
      vertex -1.66298 55.3978 16.9761
    endloop
  endfacet
  facet normal 0.83147 -0.481137 0.277785
    outer loop
      vertex -1.27873 55.8958 16.6886
      vertex -1.52188 55.0807 16.0045
      vertex -1.27814 55.1466 15.3891
    endloop
  endfacet
  facet normal 0.831468 -0.48114 0.277786
    outer loop
      vertex -1.52188 55.0807 16.0045
      vertex -1.66298 55.3978 16.9761
      vertex -1.66298 54.8978 16.1101
    endloop
  endfacet
  facet normal 0.831471 -0.481136 0.277785
    outer loop
      vertex -1.27814 55.1466 15.3891
      vertex -1.52188 55.0807 16.0045
      vertex -1.52188 54.8307 15.5715
    endloop
  endfacet
  facet normal -4.70166e-007 0.5 0.866025
    outer loop
      vertex 0 45.6424 5.05692
      vertex -1.27279 48.3035 3.52052
      vertex -1.66298 46.6047 4.50134
    endloop
  endfacet
  facet normal 4.56092e-006 0.499999 0.866026
    outer loop
      vertex -1.66298 46.6047 4.50134
      vertex -1.27279 48.3035 3.52052
      vertex -1.8 47.2013 4.15692
    endloop
  endfacet
  facet normal 1.2749e-007 0.500001 0.866025
    outer loop
      vertex -1.27279 48.3035 3.52052
      vertex -1.66298 47.7978 3.81251
      vertex -1.8 47.2013 4.15692
    endloop
  endfacet
  facet normal -0.555571 -0.720073 0.415734
    outer loop
      vertex 0.688829 52.4915 9.99383
      vertex 1.27279 48.3035 3.52052
      vertex 1.26829 52.1561 10.1874
    endloop
  endfacet
  facet normal -0.555572 -0.720073 0.415734
    outer loop
      vertex 1.27279 48.3035 3.52052
      vertex 0.688829 52.4915 9.99383
      vertex 0.688829 48.6415 3.32543
    endloop
  endfacet
  facet normal -0.555567 -0.720076 0.415736
    outer loop
      vertex 0.688829 56.2415 16.489
      vertex 1.26478 55.1582 15.3824
      vertex 1.26391 55.9087 16.6811
    endloop
  endfacet
  facet normal -0.555568 -0.720075 0.415735
    outer loop
      vertex 1.26478 55.1582 15.3824
      vertex 0.688829 56.2415 16.489
      vertex 0.688829 55.4915 15.19
    endloop
  endfacet
  facet normal -0.831471 0.481136 -0.277784
    outer loop
      vertex 1.66298 46.6047 4.50134
      vertex 1.2758 49.9529 11.4595
      vertex 1.66298 50.4547 11.1697
    endloop
  endfacet
  facet normal -0.83147 0.481138 -0.277785
    outer loop
      vertex 1.2758 49.9529 11.4595
      vertex 1.66298 46.6047 4.50134
      vertex 1.27279 46.099 4.79332
    endloop
  endfacet
  facet normal -0.831472 0.481135 -0.277783
    outer loop
      vertex 1.52188 53.5218 16.9045
      vertex 1.66298 54.2047 17.6649
      vertex 1.66298 53.7047 16.7989
    endloop
  endfacet
  facet normal -0.83147 0.481137 -0.277786
    outer loop
      vertex 1.66298 54.2047 17.6649
      vertex 1.52188 53.5218 16.9045
      vertex 1.27873 53.7067 17.9525
    endloop
  endfacet
  facet normal -0.831468 0.481139 -0.277786
    outer loop
      vertex 1.27814 52.9559 16.6539
      vertex 1.52188 53.5218 16.9045
      vertex 1.52188 53.2718 16.4715
    endloop
  endfacet
  facet normal -0.831469 0.481139 -0.277786
    outer loop
      vertex 1.52188 53.5218 16.9045
      vertex 1.27814 52.9559 16.6539
      vertex 1.27873 53.7067 17.9525
    endloop
  endfacet
  facet normal -0.19509 0.849385 -0.490392
    outer loop
      vertex 0.688829 49.6111 11.6568
      vertex 0 45.6424 5.05692
      vertex 0 49.4924 11.7253
    endloop
  endfacet
  facet normal -0.19509 0.849385 -0.490392
    outer loop
      vertex 0 45.6424 5.05692
      vertex 0.688829 49.6111 11.6568
      vertex 0.688829 45.7611 4.98841
    endloop
  endfacet
  facet normal -0.19509 0.849385 -0.490393
    outer loop
      vertex 0.688829 53.3611 18.152
      vertex 0 52.4924 16.9215
      vertex 0 53.2424 18.2205
    endloop
  endfacet
  facet normal -0.195092 0.849385 -0.490392
    outer loop
      vertex 0 52.4924 16.9215
      vertex 0.688829 53.3611 18.152
      vertex 0.688829 52.6111 16.853
    endloop
  endfacet
  facet normal 0.831471 0.481136 -0.277784
    outer loop
      vertex -1.2758 49.9529 11.4595
      vertex -1.66298 46.6047 4.50134
      vertex -1.66298 50.4547 11.1697
    endloop
  endfacet
  facet normal 0.83147 0.481138 -0.277785
    outer loop
      vertex -1.66298 46.6047 4.50134
      vertex -1.2758 49.9529 11.4595
      vertex -1.27279 46.099 4.79332
    endloop
  endfacet
  facet normal 0.83147 0.481137 -0.277786
    outer loop
      vertex -1.52188 53.5218 16.9045
      vertex -1.66298 54.2047 17.6649
      vertex -1.27873 53.7067 17.9525
    endloop
  endfacet
  facet normal 0.831472 0.481135 -0.277783
    outer loop
      vertex -1.66298 54.2047 17.6649
      vertex -1.52188 53.5218 16.9045
      vertex -1.66298 53.7047 16.7989
    endloop
  endfacet
  facet normal 0.831469 0.481139 -0.277786
    outer loop
      vertex -1.27814 52.9559 16.6539
      vertex -1.52188 53.5218 16.9045
      vertex -1.27873 53.7067 17.9525
    endloop
  endfacet
  facet normal 0.831468 0.481139 -0.277786
    outer loop
      vertex -1.52188 53.5218 16.9045
      vertex -1.27814 52.9559 16.6539
      vertex -1.52188 53.2718 16.4715
    endloop
  endfacet
  facet normal -0.831313 0.481341 -0.277903
    outer loop
      vertex 1.27279 49.949 11.4617
      vertex 1.2758 49.9529 11.4595
      vertex 1.27279 46.099 4.79332
    endloop
  endfacet
  facet normal -0.831452 0.481161 -0.277799
    outer loop
      vertex 1.27814 52.9559 16.6539
      vertex 1.27279 53.699 17.9569
      vertex 1.27873 53.7067 17.9525
    endloop
  endfacet
  facet normal -0.831453 0.481159 -0.277797
    outer loop
      vertex 1.27279 53.699 17.9569
      vertex 1.27814 52.9559 16.6539
      vertex 1.27279 52.949 16.6579
    endloop
  endfacet
  facet normal -0.555683 0.720008 -0.415697
    outer loop
      vertex 1.27279 49.949 11.4617
      vertex 1.27279 46.099 4.79332
      vertex 1.26829 49.9464 11.4632
    endloop
  endfacet
  facet normal -0.555654 0.720025 -0.415707
    outer loop
      vertex 1.27279 53.699 17.9569
      vertex 1.26478 52.9444 16.6605
      vertex 1.26391 53.6939 17.9599
    endloop
  endfacet
  facet normal -0.55564 0.720033 -0.415712
    outer loop
      vertex 1.26478 52.9444 16.6605
      vertex 1.27279 53.699 17.9569
      vertex 1.27279 52.949 16.6579
    endloop
  endfacet
  facet normal -3.03082e-007 0.500001 0.866025
    outer loop
      vertex -1.27279 46.099 4.79332
      vertex -0.688829 45.7611 4.98841
      vertex -1.66298 46.6047 4.50134
    endloop
  endfacet
  facet normal -0 0.499997 0.866027
    outer loop
      vertex -0.688829 48.6415 3.32543
      vertex 1.27279 48.3035 3.52052
      vertex 0.688829 48.6415 3.32543
    endloop
  endfacet
  facet normal 0 0.499997 0.866027
    outer loop
      vertex 1.27279 48.3035 3.52052
      vertex -0.688829 48.6415 3.32543
      vertex -1.27279 48.3035 3.52052
    endloop
  endfacet
  facet normal 0.555683 0.720008 -0.415697
    outer loop
      vertex -1.27279 49.949 11.4617
      vertex -1.26829 49.9464 11.4632
      vertex -1.27279 46.099 4.79332
    endloop
  endfacet
  facet normal 0.555654 0.720025 -0.415707
    outer loop
      vertex -1.26478 52.9444 16.6605
      vertex -1.27279 53.699 17.9569
      vertex -1.26391 53.6939 17.9599
    endloop
  endfacet
  facet normal 0.55564 0.720033 -0.415712
    outer loop
      vertex -1.27279 53.699 17.9569
      vertex -1.26478 52.9444 16.6605
      vertex -1.27279 52.949 16.6579
    endloop
  endfacet
  facet normal -0.831474 -0.481132 0.277782
    outer loop
      vertex 1.2758 52.1496 10.1912
      vertex 1.27279 52.1535 10.1889
      vertex 1.27279 48.3035 3.52052
    endloop
  endfacet
  facet normal -0.831452 -0.481161 0.277798
    outer loop
      vertex 1.27279 55.1535 15.3851
      vertex 1.27873 55.8958 16.6886
      vertex 1.27279 55.9035 16.6841
    endloop
  endfacet
  facet normal -0.831469 -0.481139 0.277786
    outer loop
      vertex 1.27873 55.8958 16.6886
      vertex 1.27279 55.1535 15.3851
      vertex 1.27814 55.1466 15.3891
    endloop
  endfacet
  facet normal -0.831469 -0.481138 0.277785
    outer loop
      vertex 1.27279 48.3035 3.52052
      vertex 1.66298 51.6478 10.4809
      vertex 1.2758 52.1496 10.1912
    endloop
  endfacet
  facet normal -0.83147 -0.481138 0.277785
    outer loop
      vertex 1.66298 51.6478 10.4809
      vertex 1.27279 48.3035 3.52052
      vertex 1.66298 47.7978 3.81251
    endloop
  endfacet
  facet normal -0.831471 -0.481136 0.277785
    outer loop
      vertex 1.27814 55.1466 15.3891
      vertex 1.52188 54.8307 15.5715
      vertex 1.52188 55.0807 16.0045
    endloop
  endfacet
  facet normal -0.83147 -0.481137 0.277785
    outer loop
      vertex 1.52188 55.0807 16.0045
      vertex 1.27873 55.8958 16.6886
      vertex 1.27814 55.1466 15.3891
    endloop
  endfacet
  facet normal -0.83147 -0.481137 0.277786
    outer loop
      vertex 1.27873 55.8958 16.6886
      vertex 1.52188 55.0807 16.0045
      vertex 1.66298 55.3978 16.9761
    endloop
  endfacet
  facet normal -0.831468 -0.48114 0.277786
    outer loop
      vertex 1.66298 55.3978 16.9761
      vertex 1.52188 55.0807 16.0045
      vertex 1.66298 54.8978 16.1101
    endloop
  endfacet
  facet normal 0 0.5 0.866025
    outer loop
      vertex 0 45.6424 5.05692
      vertex 1.27279 48.3035 3.52052
      vertex -1.27279 48.3035 3.52052
    endloop
  endfacet
  facet normal 0.980785 0.168953 -0.0975449
    outer loop
      vertex -1.66298 50.4547 11.1697
      vertex -1.8 47.2013 4.15692
      vertex -1.79894 51.0467 10.828
    endloop
  endfacet
  facet normal 0.980786 0.168952 -0.0975446
    outer loop
      vertex -1.8 47.2013 4.15692
      vertex -1.66298 50.4547 11.1697
      vertex -1.66298 46.6047 4.50134
    endloop
  endfacet
  facet normal 0.980785 0.168952 -0.0975453
    outer loop
      vertex -1.66298 54.2047 17.6649
      vertex -1.79805 54.2928 16.4594
      vertex -1.79791 54.7922 17.3257
    endloop
  endfacet
  facet normal 0.980785 0.168953 -0.0975452
    outer loop
      vertex -1.79805 54.2928 16.4594
      vertex -1.66298 54.2047 17.6649
      vertex -1.66298 53.7047 16.7989
    endloop
  endfacet
  facet normal -6.39833e-007 0.500002 0.866024
    outer loop
      vertex 0.688829 45.7611 4.98841
      vertex 1.66298 46.6047 4.50134
      vertex 0 45.6424 5.05692
    endloop
  endfacet
  facet normal 0.831474 -0.481132 0.277782
    outer loop
      vertex -1.27279 48.3035 3.52052
      vertex -1.27279 52.1535 10.1889
      vertex -1.2758 52.1496 10.1912
    endloop
  endfacet
  facet normal 0.831452 -0.481161 0.277798
    outer loop
      vertex -1.27873 55.8958 16.6886
      vertex -1.27279 55.1535 15.3851
      vertex -1.27279 55.9035 16.6841
    endloop
  endfacet
  facet normal 0.831469 -0.481139 0.277786
    outer loop
      vertex -1.27279 55.1535 15.3851
      vertex -1.27873 55.8958 16.6886
      vertex -1.27814 55.1466 15.3891
    endloop
  endfacet
  facet normal 0.555261 -0.720252 0.415838
    outer loop
      vertex -1.26829 52.1561 10.1874
      vertex -1.27279 52.1535 10.1889
      vertex -1.27279 48.3035 3.52052
    endloop
  endfacet
  facet normal 0.555654 -0.720026 0.415707
    outer loop
      vertex -1.27279 55.1535 15.3851
      vertex -1.26391 55.9087 16.6811
      vertex -1.27279 55.9035 16.6841
    endloop
  endfacet
  facet normal 0.555606 -0.720053 0.415723
    outer loop
      vertex -1.26391 55.9087 16.6811
      vertex -1.27279 55.1535 15.3851
      vertex -1.26478 55.1582 15.3824
    endloop
  endfacet
  facet normal 0 0.499999 0.866026
    outer loop
      vertex 0.688829 48.6415 3.32543
      vertex 0 48.7601 3.25692
      vertex -0.688829 48.6415 3.32543
    endloop
  endfacet
  facet normal 6.39833e-007 0.500002 0.866024
    outer loop
      vertex -0.688829 45.7611 4.98841
      vertex 0 45.6424 5.05692
      vertex -1.66298 46.6047 4.50134
    endloop
  endfacet
  facet normal 0.19509 0.849385 -0.490392
    outer loop
      vertex 0 45.6424 5.05692
      vertex -0.688829 49.6111 11.6568
      vertex 0 49.4924 11.7253
    endloop
  endfacet
  facet normal 0.19509 0.849385 -0.490392
    outer loop
      vertex -0.688829 49.6111 11.6568
      vertex 0 45.6424 5.05692
      vertex -0.688829 45.7611 4.98841
    endloop
  endfacet
  facet normal 0.19509 0.849385 -0.490393
    outer loop
      vertex 0 52.4924 16.9215
      vertex -0.688829 53.3611 18.152
      vertex 0 53.2424 18.2205
    endloop
  endfacet
  facet normal 0.195092 0.849385 -0.490392
    outer loop
      vertex -0.688829 53.3611 18.152
      vertex 0 52.4924 16.9215
      vertex -0.688829 52.6111 16.853
    endloop
  endfacet
  facet normal 3.03082e-007 0.500001 0.866025
    outer loop
      vertex 1.27279 46.099 4.79332
      vertex 1.66298 46.6047 4.50134
      vertex 0.688829 45.7611 4.98841
    endloop
  endfacet
  facet normal -0.555571 0.720074 -0.415735
    outer loop
      vertex 1.26829 49.9464 11.4632
      vertex 0.688829 45.7611 4.98841
      vertex 0.688829 49.6111 11.6568
    endloop
  endfacet
  facet normal -0.555568 0.720075 -0.415736
    outer loop
      vertex 0.688829 45.7611 4.98841
      vertex 1.26829 49.9464 11.4632
      vertex 1.27279 46.099 4.79332
    endloop
  endfacet
  facet normal -0.555571 0.720073 -0.415734
    outer loop
      vertex 1.26391 53.6939 17.9599
      vertex 0.688829 52.6111 16.853
      vertex 0.688829 53.3611 18.152
    endloop
  endfacet
  facet normal -0.555571 0.720074 -0.415735
    outer loop
      vertex 0.688829 52.6111 16.853
      vertex 1.26391 53.6939 17.9599
      vertex 1.26478 52.9444 16.6605
    endloop
  endfacet
  facet normal 0 -1 0
    outer loop
      vertex -4.92015 35 0
      vertex 4.92015 35 5
      vertex -4.92015 35 5
    endloop
  endfacet
  facet normal 0 -1 -0
    outer loop
      vertex 4.92015 35 5
      vertex -4.92015 35 0
      vertex 4.92015 35 0
    endloop
  endfacet
endsolid OpenSCAD_Model
