solid OpenSCAD_Model
  facet normal 1 0 0
    outer loop
      vertex 3.8 50.75 3
      vertex 3.8 48.75 5
      vertex 3.8 50.75 0.75
    endloop
  endfacet
  facet normal 1 -0 0
    outer loop
      vertex 3.8 50.75 0.75
      vertex 3.8 51.5 0
      vertex 3.8 51.5 0.75
    endloop
  endfacet
  facet normal 1 0 0
    outer loop
      vertex 3.8 42.5 0
      vertex 3.8 48.75 5
      vertex 3.8 42.5 5
    endloop
  endfacet
  facet normal 1 0 0
    outer loop
      vertex 3.8 48.75 5
      vertex 3.8 42.5 0
      vertex 3.8 50.75 0.75
    endloop
  endfacet
  facet normal 1 0 0
    outer loop
      vertex 3.8 50.75 0.75
      vertex 3.8 42.5 0
      vertex 3.8 51.5 0
    endloop
  endfacet
  facet normal 0 0 -1
    outer loop
      vertex -3.59904 52.25 0
      vertex -3.51074 52.9542 0
      vertex -3.34314 53.205 0
    endloop
  endfacet
  facet normal 0 0 -1
    outer loop
      vertex -3.51074 52.9542 0
      vertex -3.59904 52.25 0
      vertex -3.65082 52.25 0
    endloop
  endfacet
  facet normal 0 0 -1
    outer loop
      vertex -2.13516 54.5557 0
      vertex -3.05574 53.6352 0
      vertex -2.68701 54.187 0
    endloop
  endfacet
  facet normal 0 0 -1
    outer loop
      vertex 0 55.3 0
      vertex -1.70504 54.8431 0
      vertex -1.4542 55.0107 0
    endloop
  endfacet
  facet normal 0 0 -1
    outer loop
      vertex 1.70504 54.8431 0
      vertex 0 55.3 0
      vertex 1.4542 55.0107 0
    endloop
  endfacet
  facet normal 0 0 -1
    outer loop
      vertex -3.8 51.5 0
      vertex 3.8 51.5 0
      vertex 3.8 42.5 0
    endloop
  endfacet
  facet normal 0 0 -1
    outer loop
      vertex 3.8 51.5 0
      vertex -3.8 51.5 0
      vertex 3.59904 52.25 0
    endloop
  endfacet
  facet normal 0 -0 -1
    outer loop
      vertex -3.59904 52.25 0
      vertex 3.59904 52.25 0
      vertex -3.8 51.5 0
    endloop
  endfacet
  facet normal 0 -0 -1
    outer loop
      vertex 2.13516 54.5557 0
      vertex 3.59904 52.25 0
      vertex -3.59904 52.25 0
    endloop
  endfacet
  facet normal 0 0 -1
    outer loop
      vertex 3.34314 53.205 0
      vertex 3.05574 53.6352 0
      vertex 3.2909 53.4 0
    endloop
  endfacet
  facet normal 0 0 -1
    outer loop
      vertex 3.59904 52.25 0
      vertex 3.05574 53.6352 0
      vertex 3.34314 53.205 0
    endloop
  endfacet
  facet normal 0 0 -1
    outer loop
      vertex 3.59904 52.25 0
      vertex 2.13516 54.5557 0
      vertex 3.05574 53.6352 0
    endloop
  endfacet
  facet normal 0 0 -1
    outer loop
      vertex 2.13516 54.5557 0
      vertex 1.70504 54.8431 0
      vertex 1.9 54.7909 0
    endloop
  endfacet
  facet normal 0 -0 -1
    outer loop
      vertex -2.13516 54.5557 0
      vertex 2.13516 54.5557 0
      vertex -3.59904 52.25 0
    endloop
  endfacet
  facet normal 0 0 -1
    outer loop
      vertex 2.13516 54.5557 0
      vertex -2.13516 54.5557 0
      vertex 1.70504 54.8431 0
    endloop
  endfacet
  facet normal -0 0 -1
    outer loop
      vertex 1.70504 54.8431 0
      vertex -2.13516 54.5557 0
      vertex 0 55.3 0
    endloop
  endfacet
  facet normal 0 0 -1
    outer loop
      vertex -1.70504 54.8431 0
      vertex -2.13516 54.5557 0
      vertex -1.9 54.7909 0
    endloop
  endfacet
  facet normal 0 0 -1
    outer loop
      vertex -2.13516 54.5557 0
      vertex -3.59904 52.25 0
      vertex -3.05574 53.6352 0
    endloop
  endfacet
  facet normal 0 0 -1
    outer loop
      vertex -3.05574 53.6352 0
      vertex -3.34314 53.205 0
      vertex -3.2909 53.4 0
    endloop
  endfacet
  facet normal 0 0 -1
    outer loop
      vertex -3.05574 53.6352 0
      vertex -3.59904 52.25 0
      vertex -3.34314 53.205 0
    endloop
  endfacet
  facet normal 0 0 -1
    outer loop
      vertex -3.8 51.5 0
      vertex 3.8 42.5 0
      vertex -3.8 42.5 0
    endloop
  endfacet
  facet normal 0 0 -1
    outer loop
      vertex 0 55.3 0
      vertex -2.13516 54.5557 0
      vertex -1.70504 54.8431 0
    endloop
  endfacet
  facet normal 0 0 -1
    outer loop
      vertex 3.05574 53.6352 0
      vertex 2.13516 54.5557 0
      vertex 2.68701 54.187 0
    endloop
  endfacet
  facet normal 0 0 -1
    outer loop
      vertex 3.59904 52.25 0
      vertex 3.51074 52.9542 0
      vertex 3.65082 52.25 0
    endloop
  endfacet
  facet normal -0 -0 -1
    outer loop
      vertex 3.51074 52.9542 0
      vertex 3.59904 52.25 0
      vertex 3.34314 53.205 0
    endloop
  endfacet
  facet normal -1 0 0
    outer loop
      vertex -3.8 51.5 0
      vertex -3.8 50.75 0.75
      vertex -3.8 51.5 0.75
    endloop
  endfacet
  facet normal -1 0 0
    outer loop
      vertex -3.8 50.75 0.75
      vertex -3.8 48.75 5
      vertex -3.8 50.75 3
    endloop
  endfacet
  facet normal -1 0 0
    outer loop
      vertex -3.8 42.5 0
      vertex -3.8 50.75 0.75
      vertex -3.8 51.5 0
    endloop
  endfacet
  facet normal -1 0 0
    outer loop
      vertex -3.8 42.5 0
      vertex -3.8 48.75 5
      vertex -3.8 50.75 0.75
    endloop
  endfacet
  facet normal -1 -0 0
    outer loop
      vertex -3.8 48.75 5
      vertex -3.8 42.5 0
      vertex -3.8 42.5 5
    endloop
  endfacet
  facet normal -0 0 1
    outer loop
      vertex -3.8 48.75 5
      vertex 3.8 42.5 5
      vertex 3.8 48.75 5
    endloop
  endfacet
  facet normal 0 0 1
    outer loop
      vertex 3.8 42.5 5
      vertex -3.8 48.75 5
      vertex -3.8 42.5 5
    endloop
  endfacet
  facet normal 0.25881 0.965928 -0
    outer loop
      vertex 1.9 54.7909 0
      vertex 1.70504 54.8431 0.75
      vertex 1.9 54.7909 0.75
    endloop
  endfacet
  facet normal 0.25881 0.965928 0
    outer loop
      vertex 1.70504 54.8431 0.75
      vertex 1.9 54.7909 0
      vertex 1.70504 54.8431 0
    endloop
  endfacet
  facet normal -0.965926 0.258819 0
    outer loop
      vertex -3.8 51.5 0
      vertex -3.59904 52.25 0.75
      vertex -3.59904 52.25 0
    endloop
  endfacet
  facet normal -0.965926 0.258819 0
    outer loop
      vertex -3.59904 52.25 0.75
      vertex -3.8 51.5 0
      vertex -3.8 51.5 0.75
    endloop
  endfacet
  facet normal -0.965926 0.258817 0
    outer loop
      vertex -3.34314 53.205 0
      vertex -3.2909 53.4 0.75
      vertex -3.2909 53.4 0
    endloop
  endfacet
  facet normal -0.965926 0.258817 0
    outer loop
      vertex -3.2909 53.4 0.75
      vertex -3.34314 53.205 0
      vertex -3.34314 53.205 0.75
    endloop
  endfacet
  facet normal -0.70711 0.707104 0
    outer loop
      vertex -2.13516 54.5557 0
      vertex -1.9 54.7909 0.75
      vertex -1.9 54.7909 0
    endloop
  endfacet
  facet normal -0.70711 0.707104 0
    outer loop
      vertex -1.9 54.7909 0.75
      vertex -2.13516 54.5557 0
      vertex -2.13516 54.5557 0.75
    endloop
  endfacet
  facet normal -0.707104 0.707109 0
    outer loop
      vertex -3.05574 53.6352 0
      vertex -3.2909 53.4 0.75
      vertex -3.05574 53.6352 0.75
    endloop
  endfacet
  facet normal -0.707104 0.707109 0
    outer loop
      vertex -3.2909 53.4 0.75
      vertex -3.05574 53.6352 0
      vertex -3.2909 53.4 0
    endloop
  endfacet
  facet normal -0.25881 0.965928 0
    outer loop
      vertex -1.70504 54.8431 0
      vertex -1.9 54.7909 0.75
      vertex -1.70504 54.8431 0.75
    endloop
  endfacet
  facet normal -0.25881 0.965928 0
    outer loop
      vertex -1.9 54.7909 0.75
      vertex -1.70504 54.8431 0
      vertex -1.9 54.7909 0
    endloop
  endfacet
  facet normal 0.707104 0.707109 -0
    outer loop
      vertex 3.2909 53.4 0
      vertex 3.05574 53.6352 0.75
      vertex 3.2909 53.4 0.75
    endloop
  endfacet
  facet normal 0.707104 0.707109 0
    outer loop
      vertex 3.05574 53.6352 0.75
      vertex 3.2909 53.4 0
      vertex 3.05574 53.6352 0
    endloop
  endfacet
  facet normal 0.70711 0.707104 0
    outer loop
      vertex 2.13516 54.5557 0.75
      vertex 1.9 54.7909 0
      vertex 1.9 54.7909 0.75
    endloop
  endfacet
  facet normal 0.70711 0.707104 0
    outer loop
      vertex 1.9 54.7909 0
      vertex 2.13516 54.5557 0.75
      vertex 2.13516 54.5557 0
    endloop
  endfacet
  facet normal 0.965926 0.258817 0
    outer loop
      vertex 3.34314 53.205 0.75
      vertex 3.2909 53.4 0
      vertex 3.2909 53.4 0.75
    endloop
  endfacet
  facet normal 0.965926 0.258817 0
    outer loop
      vertex 3.2909 53.4 0
      vertex 3.34314 53.205 0.75
      vertex 3.34314 53.205 0
    endloop
  endfacet
  facet normal 0.965926 0.258819 0
    outer loop
      vertex 3.8 51.5 0.75
      vertex 3.59904 52.25 0
      vertex 3.59904 52.25 0.75
    endloop
  endfacet
  facet normal 0.965926 0.258819 0
    outer loop
      vertex 3.59904 52.25 0
      vertex 3.8 51.5 0.75
      vertex 3.8 51.5 0
    endloop
  endfacet
  facet normal 0 0 1
    outer loop
      vertex 3.59904 52.25 0.75
      vertex 3.8 50.75 0.75
      vertex 3.8 51.5 0.75
    endloop
  endfacet
  facet normal -0 0 1
    outer loop
      vertex -3.59904 52.25 0.75
      vertex 3.8 50.75 0.75
      vertex 3.59904 52.25 0.75
    endloop
  endfacet
  facet normal 0 0 1
    outer loop
      vertex -3.8 50.75 0.75
      vertex -3.59904 52.25 0.75
      vertex -3.8 51.5 0.75
    endloop
  endfacet
  facet normal 0 0 1
    outer loop
      vertex -3.59904 52.25 0.75
      vertex -3.8 50.75 0.75
      vertex 3.8 50.75 0.75
    endloop
  endfacet
  facet normal 0 0 1
    outer loop
      vertex -3.05574 53.6352 0.75
      vertex -3.2909 53.4 0.75
      vertex -3.34314 53.205 0.75
    endloop
  endfacet
  facet normal 0 0 1
    outer loop
      vertex -1.70504 54.8431 0.75
      vertex -1.9 54.7909 0.75
      vertex -2.13516 54.5557 0.75
    endloop
  endfacet
  facet normal 0 0 1
    outer loop
      vertex 2.13516 54.5557 0.75
      vertex 1.9 54.7909 0.75
      vertex 1.70504 54.8431 0.75
    endloop
  endfacet
  facet normal 0 0 1
    outer loop
      vertex 3.34314 53.205 0.75
      vertex 3.2909 53.4 0.75
      vertex 3.05574 53.6352 0.75
    endloop
  endfacet
  facet normal 0 1 -0
    outer loop
      vertex 3.8 50.75 0.75
      vertex -3.8 50.75 3
      vertex 3.8 50.75 3
    endloop
  endfacet
  facet normal 0 1 0
    outer loop
      vertex -3.8 50.75 3
      vertex 3.8 50.75 0.75
      vertex -3.8 50.75 0.75
    endloop
  endfacet
  facet normal 0 0.707107 0.707107
    outer loop
      vertex 3.8 50.75 3
      vertex -3.8 48.75 5
      vertex 3.8 48.75 5
    endloop
  endfacet
  facet normal 0 0.707107 0.707107
    outer loop
      vertex -3.8 48.75 5
      vertex 3.8 50.75 3
      vertex -3.8 50.75 3
    endloop
  endfacet
  facet normal 0.980785 0.19509 0
    outer loop
      vertex 3.51074 52.9542 9.55333
      vertex 3.65082 52.25 3
      vertex 3.51074 52.9542 0
    endloop
  endfacet
  facet normal 0.980785 0.19509 -0
    outer loop
      vertex 3.8 51.5 3.75
      vertex 3.51074 52.9542 9.55333
      vertex 3.8 51.5 9.55333
    endloop
  endfacet
  facet normal 0.980785 0.19509 -2.00016e-008
    outer loop
      vertex 3.51074 52.9542 9.55333
      vertex 3.8 51.5 3.75
      vertex 3.65082 52.25 3
    endloop
  endfacet
  facet normal 0.980785 0.19509 0
    outer loop
      vertex 3.51074 52.9542 0
      vertex 3.65082 52.25 3
      vertex 3.65082 52.25 0
    endloop
  endfacet
  facet normal 0.555571 -0.831469 0
    outer loop
      vertex 1.4542 47.9893 7.26074
      vertex 2.68701 48.813 9.55333
      vertex 1.4542 47.9893 9.55333
    endloop
  endfacet
  facet normal 0.555571 -0.831469 0
    outer loop
      vertex 2.68701 48.813 9.55333
      vertex 1.4542 47.9893 7.26074
      vertex 2.68701 48.813 6.43701
    endloop
  endfacet
  facet normal 0.19509 -0.980785 0
    outer loop
      vertex 0 47.7 7.55
      vertex 1.4542 47.9893 9.55333
      vertex 0 47.7 9.55333
    endloop
  endfacet
  facet normal 0.19509 -0.980785 0
    outer loop
      vertex 1.4542 47.9893 9.55333
      vertex 0 47.7 7.55
      vertex 1.4542 47.9893 7.26074
    endloop
  endfacet
  facet normal -0.831469 -0.555571 0
    outer loop
      vertex -2.68701 48.813 6.43701
      vertex -3.51074 50.0458 9.55333
      vertex -3.51074 50.0458 5.2042
    endloop
  endfacet
  facet normal -0.831469 -0.555571 0
    outer loop
      vertex -3.51074 50.0458 9.55333
      vertex -2.68701 48.813 6.43701
      vertex -2.68701 48.813 9.55333
    endloop
  endfacet
  facet normal 0.19509 0.980785 -0
    outer loop
      vertex 1.4542 55.0107 0
      vertex 0 55.3 9.55333
      vertex 1.4542 55.0107 9.55333
    endloop
  endfacet
  facet normal 0.19509 0.980785 0
    outer loop
      vertex 0 55.3 9.55333
      vertex 1.4542 55.0107 0
      vertex 0 55.3 0
    endloop
  endfacet
  facet normal -0.980785 0.19509 0
    outer loop
      vertex -3.65082 52.25 3
      vertex -3.51074 52.9542 0
      vertex -3.65082 52.25 0
    endloop
  endfacet
  facet normal -0.980785 0.19509 0
    outer loop
      vertex -3.51074 52.9542 0
      vertex -3.65082 52.25 3
      vertex -3.51074 52.9542 9.55333
    endloop
  endfacet
  facet normal -0.980785 0.19509 -2.00016e-008
    outer loop
      vertex -3.8 51.5 3.75
      vertex -3.51074 52.9542 9.55333
      vertex -3.65082 52.25 3
    endloop
  endfacet
  facet normal -0.980785 0.19509 0
    outer loop
      vertex -3.51074 52.9542 9.55333
      vertex -3.8 51.5 3.75
      vertex -3.8 51.5 9.55333
    endloop
  endfacet
  facet normal -0.980785 -0.19509 0
    outer loop
      vertex -3.51074 50.0458 5.2042
      vertex -3.8 51.5 9.55333
      vertex -3.8 51.5 3.75
    endloop
  endfacet
  facet normal -0.980785 -0.19509 0
    outer loop
      vertex -3.8 51.5 9.55333
      vertex -3.51074 50.0458 5.2042
      vertex -3.51074 50.0458 9.55333
    endloop
  endfacet
  facet normal 0.831469 -0.555571 0
    outer loop
      vertex 2.68701 48.813 6.43701
      vertex 3.51074 50.0458 9.55333
      vertex 2.68701 48.813 9.55333
    endloop
  endfacet
  facet normal 0.831469 -0.555571 0
    outer loop
      vertex 3.51074 50.0458 9.55333
      vertex 2.68701 48.813 6.43701
      vertex 3.51074 50.0458 5.2042
    endloop
  endfacet
  facet normal -0.555571 -0.831469 0
    outer loop
      vertex -2.68701 48.813 9.55333
      vertex -1.4542 47.9893 7.26074
      vertex -1.4542 47.9893 9.55333
    endloop
  endfacet
  facet normal -0.555571 -0.831469 0
    outer loop
      vertex -1.4542 47.9893 7.26074
      vertex -2.68701 48.813 9.55333
      vertex -2.68701 48.813 6.43701
    endloop
  endfacet
  facet normal -0.19509 -0.980785 0
    outer loop
      vertex -1.4542 47.9893 9.55333
      vertex 0 47.7 7.55
      vertex 0 47.7 9.55333
    endloop
  endfacet
  facet normal -0.19509 -0.980785 0
    outer loop
      vertex 0 47.7 7.55
      vertex -1.4542 47.9893 9.55333
      vertex -1.4542 47.9893 7.26074
    endloop
  endfacet
  facet normal 0.831469 0.555572 0
    outer loop
      vertex 2.68701 54.187 9.55333
      vertex 3.05574 53.6352 0.75
      vertex 2.68701 54.187 0
    endloop
  endfacet
  facet normal 0.831469 0.555571 4.77421e-008
    outer loop
      vertex 3.51074 52.9542 9.55333
      vertex 3.05574 53.6352 0.75
      vertex 2.68701 54.187 9.55333
    endloop
  endfacet
  facet normal 0.831469 0.555571 2.75469e-008
    outer loop
      vertex 3.05574 53.6352 0.75
      vertex 3.51074 52.9542 9.55333
      vertex 3.34314 53.205 0.75
    endloop
  endfacet
  facet normal 0.83147 0.55557 -0
    outer loop
      vertex 3.51074 52.9542 0
      vertex 3.34314 53.205 0.75
      vertex 3.51074 52.9542 9.55333
    endloop
  endfacet
  facet normal 0.83147 0.55557 0
    outer loop
      vertex 3.34314 53.205 0.75
      vertex 3.51074 52.9542 0
      vertex 3.34314 53.205 0
    endloop
  endfacet
  facet normal 0.831469 0.555572 0
    outer loop
      vertex 2.68701 54.187 0
      vertex 3.05574 53.6352 0.75
      vertex 3.05574 53.6352 0
    endloop
  endfacet
  facet normal 0.555571 0.831469 -6.33874e-008
    outer loop
      vertex 2.68701 54.187 9.55333
      vertex 2.13516 54.5557 0.75
      vertex 1.4542 55.0107 9.55333
    endloop
  endfacet
  facet normal 0.55557 0.831469 -0
    outer loop
      vertex 2.68701 54.187 0
      vertex 2.13516 54.5557 0.75
      vertex 2.68701 54.187 9.55333
    endloop
  endfacet
  facet normal 0.55557 0.831469 0
    outer loop
      vertex 2.13516 54.5557 0.75
      vertex 2.68701 54.187 0
      vertex 2.13516 54.5557 0
    endloop
  endfacet
  facet normal 0.555571 0.831469 -6.44411e-008
    outer loop
      vertex 1.70504 54.8431 0.75
      vertex 1.4542 55.0107 9.55333
      vertex 2.13516 54.5557 0.75
    endloop
  endfacet
  facet normal 0.555573 0.831468 0
    outer loop
      vertex 1.4542 55.0107 0
      vertex 1.70504 54.8431 0.75
      vertex 1.70504 54.8431 0
    endloop
  endfacet
  facet normal 0.555573 0.831468 0
    outer loop
      vertex 1.70504 54.8431 0.75
      vertex 1.4542 55.0107 0
      vertex 1.4542 55.0107 9.55333
    endloop
  endfacet
  facet normal -0.83147 0.55557 0
    outer loop
      vertex -3.34314 53.205 0
      vertex -3.51074 52.9542 0
      vertex -3.34314 53.205 0.75
    endloop
  endfacet
  facet normal -0.831469 0.555572 0
    outer loop
      vertex -3.05574 53.6352 0.75
      vertex -2.68701 54.187 0
      vertex -3.05574 53.6352 0
    endloop
  endfacet
  facet normal -0.831469 0.555572 0
    outer loop
      vertex -2.68701 54.187 0
      vertex -3.05574 53.6352 0.75
      vertex -2.68701 54.187 9.55333
    endloop
  endfacet
  facet normal -0.831469 0.555571 2.75469e-008
    outer loop
      vertex -3.51074 52.9542 9.55333
      vertex -3.05574 53.6352 0.75
      vertex -3.34314 53.205 0.75
    endloop
  endfacet
  facet normal -0.83147 0.55557 0
    outer loop
      vertex -3.51074 52.9542 9.55333
      vertex -3.34314 53.205 0.75
      vertex -3.51074 52.9542 0
    endloop
  endfacet
  facet normal -0.831469 0.555571 4.77421e-008
    outer loop
      vertex -3.05574 53.6352 0.75
      vertex -3.51074 52.9542 9.55333
      vertex -2.68701 54.187 9.55333
    endloop
  endfacet
  facet normal -0.555571 0.831469 -6.44411e-008
    outer loop
      vertex -2.13516 54.5557 0.75
      vertex -1.4542 55.0107 9.55333
      vertex -1.70504 54.8431 0.75
    endloop
  endfacet
  facet normal -0.555573 0.831468 0
    outer loop
      vertex -1.4542 55.0107 0
      vertex -1.70504 54.8431 0.75
      vertex -1.4542 55.0107 9.55333
    endloop
  endfacet
  facet normal -0.555573 0.831468 0
    outer loop
      vertex -1.70504 54.8431 0.75
      vertex -1.4542 55.0107 0
      vertex -1.70504 54.8431 0
    endloop
  endfacet
  facet normal -0.555571 0.831469 -6.33874e-008
    outer loop
      vertex -1.4542 55.0107 9.55333
      vertex -2.13516 54.5557 0.75
      vertex -2.68701 54.187 9.55333
    endloop
  endfacet
  facet normal -0.55557 0.831469 0
    outer loop
      vertex -2.68701 54.187 0
      vertex -2.13516 54.5557 0.75
      vertex -2.13516 54.5557 0
    endloop
  endfacet
  facet normal -0.55557 0.831469 0
    outer loop
      vertex -2.13516 54.5557 0.75
      vertex -2.68701 54.187 0
      vertex -2.68701 54.187 9.55333
    endloop
  endfacet
  facet normal -0.19509 0.980785 0
    outer loop
      vertex 0 55.3 0
      vertex -1.4542 55.0107 9.55333
      vertex 0 55.3 9.55333
    endloop
  endfacet
  facet normal -0.19509 0.980785 0
    outer loop
      vertex -1.4542 55.0107 9.55333
      vertex 0 55.3 0
      vertex -1.4542 55.0107 0
    endloop
  endfacet
  facet normal 0.980785 -0.19509 0
    outer loop
      vertex 3.51074 50.0458 5.2042
      vertex 3.8 51.5 9.55333
      vertex 3.51074 50.0458 9.55333
    endloop
  endfacet
  facet normal 0.980785 -0.19509 0
    outer loop
      vertex 3.8 51.5 9.55333
      vertex 3.51074 50.0458 5.2042
      vertex 3.8 51.5 3.75
    endloop
  endfacet
  facet normal 1 -0 0
    outer loop
      vertex 4.41673 48.95 20
      vertex 4.41673 56.6 12.5
      vertex 4.41673 56.6 20
    endloop
  endfacet
  facet normal 1 0 0
    outer loop
      vertex 4.41673 56.6 12.5
      vertex 4.41673 48.95 20
      vertex 4.41673 48.95 12.5
    endloop
  endfacet
  facet normal -0.5 -0.866025 0
    outer loop
      vertex -4.41673 48.95 12.5
      vertex 0 46.4 20
      vertex -4.41673 48.95 20
    endloop
  endfacet
  facet normal -0.5 -0.866025 -0
    outer loop
      vertex 0 46.4 20
      vertex -4.41673 48.95 12.5
      vertex 0 46.4 12.5
    endloop
  endfacet
  facet normal 0.86194 0.17145 -0.477142
    outer loop
      vertex 3.8 51.5 9.55333
      vertex 3.51074 52.9542 9.55333
      vertex 4.41673 56.6 12.5
    endloop
  endfacet
  facet normal 0.488288 -0.84574 -0.215169
    outer loop
      vertex 4.41673 48.95 12.5
      vertex 0 46.4 12.5
      vertex 1.4542 47.9893 9.55333
    endloop
  endfacet
  facet normal -0 0 1
    outer loop
      vertex 1.66298 52.1888 20
      vertex 4.41673 48.95 20
      vertex 4.41673 56.6 20
    endloop
  endfacet
  facet normal 0 0 1
    outer loop
      vertex 4.41673 48.95 20
      vertex 1.66298 52.1888 20
      vertex 1.8 51.5 20
    endloop
  endfacet
  facet normal 0 0 1
    outer loop
      vertex 4.41673 56.6 20
      vertex 1.27279 52.7728 20
      vertex 1.66298 52.1888 20
    endloop
  endfacet
  facet normal 0 0 1
    outer loop
      vertex 4.41673 56.6 20
      vertex 0.688829 53.163 20
      vertex 1.27279 52.7728 20
    endloop
  endfacet
  facet normal 0 0 1
    outer loop
      vertex 4.41673 56.6 20
      vertex 0 53.3 20
      vertex 0.688829 53.163 20
    endloop
  endfacet
  facet normal -0 0 1
    outer loop
      vertex -4.41673 56.6 20
      vertex 0 53.3 20
      vertex 4.41673 56.6 20
    endloop
  endfacet
  facet normal 0 0 1
    outer loop
      vertex 0 53.3 20
      vertex -4.41673 56.6 20
      vertex -0.688829 53.163 20
    endloop
  endfacet
  facet normal 0 0 1
    outer loop
      vertex -4.41673 48.95 20
      vertex -1.66298 52.1888 20
      vertex -4.41673 56.6 20
    endloop
  endfacet
  facet normal 0 0 1
    outer loop
      vertex -1.27279 52.7728 20
      vertex -4.41673 56.6 20
      vertex -1.66298 52.1888 20
    endloop
  endfacet
  facet normal 0 0 1
    outer loop
      vertex -0.688829 53.163 20
      vertex -4.41673 56.6 20
      vertex -1.27279 52.7728 20
    endloop
  endfacet
  facet normal -0 0 1
    outer loop
      vertex 1.66298 50.8112 20
      vertex 4.41673 48.95 20
      vertex 1.8 51.5 20
    endloop
  endfacet
  facet normal -0 0 1
    outer loop
      vertex 1.27279 50.2272 20
      vertex 4.41673 48.95 20
      vertex 1.66298 50.8112 20
    endloop
  endfacet
  facet normal -0 0 1
    outer loop
      vertex 0.688829 49.837 20
      vertex 4.41673 48.95 20
      vertex 1.27279 50.2272 20
    endloop
  endfacet
  facet normal 0 0 1
    outer loop
      vertex 0 46.4 20
      vertex 0.688829 49.837 20
      vertex 0 49.7 20
    endloop
  endfacet
  facet normal 0 0 1
    outer loop
      vertex 0.688829 49.837 20
      vertex 0 46.4 20
      vertex 4.41673 48.95 20
    endloop
  endfacet
  facet normal 0 0 1
    outer loop
      vertex -0.688829 49.837 20
      vertex 0 46.4 20
      vertex 0 49.7 20
    endloop
  endfacet
  facet normal 0 0 1
    outer loop
      vertex -4.41673 48.95 20
      vertex -0.688829 49.837 20
      vertex -1.27279 50.2272 20
    endloop
  endfacet
  facet normal 0 0 1
    outer loop
      vertex -4.41673 48.95 20
      vertex -1.27279 50.2272 20
      vertex -1.66298 50.8112 20
    endloop
  endfacet
  facet normal 0 0 1
    outer loop
      vertex -1.66298 52.1888 20
      vertex -4.41673 48.95 20
      vertex -1.8 51.5 20
    endloop
  endfacet
  facet normal 0 0 1
    outer loop
      vertex -1.8 51.5 20
      vertex -4.41673 48.95 20
      vertex -1.66298 50.8112 20
    endloop
  endfacet
  facet normal 0 0 1
    outer loop
      vertex -0.688829 49.837 20
      vertex -4.41673 48.95 20
      vertex 0 46.4 20
    endloop
  endfacet
  facet normal -1 0 0
    outer loop
      vertex -4.41673 48.95 12.5
      vertex -4.41673 56.6 20
      vertex -4.41673 56.6 12.5
    endloop
  endfacet
  facet normal -1 -0 0
    outer loop
      vertex -4.41673 56.6 20
      vertex -4.41673 48.95 12.5
      vertex -4.41673 48.95 20
    endloop
  endfacet
  facet normal -0.157938 0.79401 -0.58703
    outer loop
      vertex -1.4542 55.0107 9.55333
      vertex -4.41673 56.6 12.5
      vertex 0 55.3 9.55333
    endloop
  endfacet
  facet normal 0 1 0
    outer loop
      vertex 4.41673 56.6 20
      vertex 3.11769 56.6 15.5
      vertex -4.41673 56.6 20
    endloop
  endfacet
  facet normal 0 1 -0
    outer loop
      vertex 4.41673 56.6 12.5
      vertex 3.11769 56.6 15.5
      vertex 4.41673 56.6 20
    endloop
  endfacet
  facet normal 0 1 0
    outer loop
      vertex 3.11769 56.6 15.5
      vertex 4.41673 56.6 12.5
      vertex 3.11769 56.6 12.5
    endloop
  endfacet
  facet normal 0 1 -0
    outer loop
      vertex -3.11769 56.6 15.5
      vertex -4.41673 56.6 20
      vertex 3.11769 56.6 15.5
    endloop
  endfacet
  facet normal 0 1 0
    outer loop
      vertex -4.41673 56.6 12.5
      vertex -3.11769 56.6 15.5
      vertex -3.11769 56.6 12.5
    endloop
  endfacet
  facet normal 0 1 0
    outer loop
      vertex -3.11769 56.6 15.5
      vertex -4.41673 56.6 12.5
      vertex -4.41673 56.6 20
    endloop
  endfacet
  facet normal 0 0.914918 -0.40364
    outer loop
      vertex 0 55.3 9.55333
      vertex 3.11769 56.6 12.5
      vertex 4.41673 56.6 12.5
    endloop
  endfacet
  facet normal 0 0.914918 -0.40364
    outer loop
      vertex 3.11769 56.6 12.5
      vertex 0 55.3 9.55333
      vertex -3.11769 56.6 12.5
    endloop
  endfacet
  facet normal 0 0.914918 -0.40364
    outer loop
      vertex -3.11769 56.6 12.5
      vertex 0 55.3 9.55333
      vertex -4.41673 56.6 12.5
    endloop
  endfacet
  facet normal 0.5 -0.866025 0
    outer loop
      vertex 0 46.4 12.5
      vertex 4.41673 48.95 20
      vertex 0 46.4 20
    endloop
  endfacet
  facet normal 0.5 -0.866025 0
    outer loop
      vertex 4.41673 48.95 20
      vertex 0 46.4 12.5
      vertex 4.41673 48.95 12.5
    endloop
  endfacet
  facet normal 0.978792 0 -0.204859
    outer loop
      vertex 4.41673 48.95 12.5
      vertex 3.8 51.5 9.55333
      vertex 4.41673 56.6 12.5
    endloop
  endfacet
  facet normal -0.533947 -0.799106 -0.276278
    outer loop
      vertex -1.4542 47.9893 9.55333
      vertex -4.41673 48.95 12.5
      vertex -2.68701 48.813 9.55333
    endloop
  endfacet
  facet normal -0.918608 -0.182722 -0.350387
    outer loop
      vertex -3.51074 50.0458 9.55333
      vertex -4.41673 48.95 12.5
      vertex -3.8 51.5 9.55333
    endloop
  endfacet
  facet normal 0.157938 0.79401 -0.58703
    outer loop
      vertex 1.4542 55.0107 9.55333
      vertex 0 55.3 9.55333
      vertex 4.41673 56.6 12.5
    endloop
  endfacet
  facet normal 0.391474 0.585881 -0.709571
    outer loop
      vertex 2.68701 54.187 9.55333
      vertex 1.4542 55.0107 9.55333
      vertex 4.41673 56.6 12.5
    endloop
  endfacet
  facet normal 0.604915 0.404192 -0.68608
    outer loop
      vertex 3.51074 52.9542 9.55333
      vertex 2.68701 54.187 9.55333
      vertex 4.41673 56.6 12.5
    endloop
  endfacet
  facet normal -0.604915 0.404192 -0.68608
    outer loop
      vertex -3.51074 52.9542 9.55333
      vertex -4.41673 56.6 12.5
      vertex -2.68701 54.187 9.55333
    endloop
  endfacet
  facet normal -0.391474 0.585881 -0.709571
    outer loop
      vertex -2.68701 54.187 9.55333
      vertex -4.41673 56.6 12.5
      vertex -1.4542 55.0107 9.55333
    endloop
  endfacet
  facet normal 0.179047 -0.900133 -0.397117
    outer loop
      vertex 1.4542 47.9893 9.55333
      vertex 0 46.4 12.5
      vertex 0 47.7 9.55333
    endloop
  endfacet
  facet normal -0.488288 -0.84574 -0.215169
    outer loop
      vertex 0 46.4 12.5
      vertex -4.41673 48.95 12.5
      vertex -1.4542 47.9893 9.55333
    endloop
  endfacet
  facet normal -0.754736 -0.504299 -0.41959
    outer loop
      vertex -2.68701 48.813 9.55333
      vertex -4.41673 48.95 12.5
      vertex -3.51074 50.0458 9.55333
    endloop
  endfacet
  facet normal 0.918608 -0.182722 -0.350387
    outer loop
      vertex 4.41673 48.95 12.5
      vertex 3.51074 50.0458 9.55333
      vertex 3.8 51.5 9.55333
    endloop
  endfacet
  facet normal -0.179047 -0.900133 -0.397117
    outer loop
      vertex 0 46.4 12.5
      vertex -1.4542 47.9893 9.55333
      vertex 0 47.7 9.55333
    endloop
  endfacet
  facet normal -0.978792 0 -0.204859
    outer loop
      vertex -3.8 51.5 9.55333
      vertex -4.41673 48.95 12.5
      vertex -4.41673 56.6 12.5
    endloop
  endfacet
  facet normal -0.86194 0.17145 -0.477142
    outer loop
      vertex -3.8 51.5 9.55333
      vertex -4.41673 56.6 12.5
      vertex -3.51074 52.9542 9.55333
    endloop
  endfacet
  facet normal 0.754736 -0.504299 -0.41959
    outer loop
      vertex 4.41673 48.95 12.5
      vertex 2.68701 48.813 9.55333
      vertex 3.51074 50.0458 9.55333
    endloop
  endfacet
  facet normal 0.533947 -0.799106 -0.276278
    outer loop
      vertex 4.41673 48.95 12.5
      vertex 1.4542 47.9893 9.55333
      vertex 2.68701 48.813 9.55333
    endloop
  endfacet
  facet normal 1 -0 0
    outer loop
      vertex -3.11769 55.1 15.5
      vertex -3.11769 56.6 12.5
      vertex -3.11769 56.6 15.5
    endloop
  endfacet
  facet normal 1 0 0
    outer loop
      vertex -3.11769 49.7 12.5
      vertex -3.11769 55.1 15.5
      vertex -3.11769 49.7 15.5
    endloop
  endfacet
  facet normal 1 0 0
    outer loop
      vertex -3.11769 55.1 15.5
      vertex -3.11769 49.7 12.5
      vertex -3.11769 56.6 12.5
    endloop
  endfacet
  facet normal -0 0 1
    outer loop
      vertex 1.66298 52.1888 12.5
      vertex 3.11769 49.7 12.5
      vertex 3.11769 56.6 12.5
    endloop
  endfacet
  facet normal 0 0 1
    outer loop
      vertex 3.11769 49.7 12.5
      vertex 1.66298 52.1888 12.5
      vertex 1.8 51.5 12.5
    endloop
  endfacet
  facet normal 0 0 1
    outer loop
      vertex 3.11769 56.6 12.5
      vertex 1.27279 52.7728 12.5
      vertex 1.66298 52.1888 12.5
    endloop
  endfacet
  facet normal 0 0 1
    outer loop
      vertex 3.11769 56.6 12.5
      vertex 0.688829 53.163 12.5
      vertex 1.27279 52.7728 12.5
    endloop
  endfacet
  facet normal 0 0 1
    outer loop
      vertex 3.11769 56.6 12.5
      vertex 0 53.3 12.5
      vertex 0.688829 53.163 12.5
    endloop
  endfacet
  facet normal -0 0 1
    outer loop
      vertex -3.11769 56.6 12.5
      vertex 0 53.3 12.5
      vertex 3.11769 56.6 12.5
    endloop
  endfacet
  facet normal 0 0 1
    outer loop
      vertex 0 53.3 12.5
      vertex -3.11769 56.6 12.5
      vertex -0.688829 53.163 12.5
    endloop
  endfacet
  facet normal 0 0 1
    outer loop
      vertex -3.11769 49.7 12.5
      vertex -1.66298 52.1888 12.5
      vertex -3.11769 56.6 12.5
    endloop
  endfacet
  facet normal 0 0 1
    outer loop
      vertex -1.27279 52.7728 12.5
      vertex -3.11769 56.6 12.5
      vertex -1.66298 52.1888 12.5
    endloop
  endfacet
  facet normal 0 0 1
    outer loop
      vertex -0.688829 53.163 12.5
      vertex -3.11769 56.6 12.5
      vertex -1.27279 52.7728 12.5
    endloop
  endfacet
  facet normal -0 0 1
    outer loop
      vertex 1.66298 50.8112 12.5
      vertex 3.11769 49.7 12.5
      vertex 1.8 51.5 12.5
    endloop
  endfacet
  facet normal -0 0 1
    outer loop
      vertex 1.27279 50.2272 12.5
      vertex 3.11769 49.7 12.5
      vertex 1.66298 50.8112 12.5
    endloop
  endfacet
  facet normal -0 0 1
    outer loop
      vertex 0.688829 49.837 12.5
      vertex 3.11769 49.7 12.5
      vertex 1.27279 50.2272 12.5
    endloop
  endfacet
  facet normal 0 0 1
    outer loop
      vertex 0 47.9 12.5
      vertex 0.688829 49.837 12.5
      vertex 0 49.7 12.5
    endloop
  endfacet
  facet normal 0 0 1
    outer loop
      vertex 0.688829 49.837 12.5
      vertex 0 47.9 12.5
      vertex 3.11769 49.7 12.5
    endloop
  endfacet
  facet normal 0 0 1
    outer loop
      vertex -0.688829 49.837 12.5
      vertex 0 47.9 12.5
      vertex 0 49.7 12.5
    endloop
  endfacet
  facet normal 0 0 1
    outer loop
      vertex -3.11769 49.7 12.5
      vertex -0.688829 49.837 12.5
      vertex -1.27279 50.2272 12.5
    endloop
  endfacet
  facet normal 0 0 1
    outer loop
      vertex -3.11769 49.7 12.5
      vertex -1.27279 50.2272 12.5
      vertex -1.66298 50.8112 12.5
    endloop
  endfacet
  facet normal 0 0 1
    outer loop
      vertex -1.66298 52.1888 12.5
      vertex -3.11769 49.7 12.5
      vertex -1.8 51.5 12.5
    endloop
  endfacet
  facet normal 0 0 1
    outer loop
      vertex -0.688829 49.837 12.5
      vertex -3.11769 49.7 12.5
      vertex 0 47.9 12.5
    endloop
  endfacet
  facet normal 0 0 1
    outer loop
      vertex -1.8 51.5 12.5
      vertex -3.11769 49.7 12.5
      vertex -1.66298 50.8112 12.5
    endloop
  endfacet
  facet normal -0.5 0.866025 0
    outer loop
      vertex 3.11769 49.7 12.5
      vertex 0 47.9 15.5
      vertex 3.11769 49.7 15.5
    endloop
  endfacet
  facet normal -0.5 0.866025 0
    outer loop
      vertex 0 47.9 15.5
      vertex 3.11769 49.7 12.5
      vertex 0 47.9 12.5
    endloop
  endfacet
  facet normal 0.5 0.866025 -0
    outer loop
      vertex 0 47.9 12.5
      vertex -3.11769 49.7 15.5
      vertex 0 47.9 15.5
    endloop
  endfacet
  facet normal 0.5 0.866025 0
    outer loop
      vertex -3.11769 49.7 15.5
      vertex 0 47.9 12.5
      vertex -3.11769 49.7 12.5
    endloop
  endfacet
  facet normal 0 0 -1
    outer loop
      vertex -3.11769 55.1 15.5
      vertex 3.11769 56.6 15.5
      vertex 3.11769 55.1 15.5
    endloop
  endfacet
  facet normal -0 0 -1
    outer loop
      vertex 3.11769 56.6 15.5
      vertex -3.11769 55.1 15.5
      vertex -3.11769 56.6 15.5
    endloop
  endfacet
  facet normal -1 0 0
    outer loop
      vertex 3.11769 56.6 12.5
      vertex 3.11769 55.1 15.5
      vertex 3.11769 56.6 15.5
    endloop
  endfacet
  facet normal -1 0 0
    outer loop
      vertex 3.11769 49.7 12.5
      vertex 3.11769 55.1 15.5
      vertex 3.11769 56.6 12.5
    endloop
  endfacet
  facet normal -1 -0 0
    outer loop
      vertex 3.11769 55.1 15.5
      vertex 3.11769 49.7 12.5
      vertex 3.11769 49.7 15.5
    endloop
  endfacet
  facet normal -0.354274 -0.61362 -0.705663
    outer loop
      vertex 3.11769 55.1 15.5
      vertex 2.88386 53.165 17.3
      vertex 0 54.83 17.3
    endloop
  endfacet
  facet normal -0.495834 0.85881 -0.128821
    outer loop
      vertex 2.88386 49.835 17.3
      vertex 3.11769 49.7 15.5
      vertex 0 47.9 15.5
    endloop
  endfacet
  facet normal 0.991668 0 -0.128821
    outer loop
      vertex -3.11769 49.7 15.5
      vertex -2.88386 53.165 17.3
      vertex -2.88386 49.835 17.3
    endloop
  endfacet
  facet normal 0.991668 0 -0.128821
    outer loop
      vertex -2.88386 53.165 17.3
      vertex -3.11769 49.7 15.5
      vertex -3.11769 55.1 15.5
    endloop
  endfacet
  facet normal -0 -0.988937 -0.148339
    outer loop
      vertex 3.11769 55.1 15.5
      vertex 0 54.83 17.3
      vertex -3.11769 55.1 15.5
    endloop
  endfacet
  facet normal -0.991668 0 -0.128821
    outer loop
      vertex 3.11769 49.7 15.5
      vertex 2.88386 53.165 17.3
      vertex 3.11769 55.1 15.5
    endloop
  endfacet
  facet normal -0.991668 -0 -0.128821
    outer loop
      vertex 2.88386 53.165 17.3
      vertex 3.11769 49.7 15.5
      vertex 2.88386 49.835 17.3
    endloop
  endfacet
  facet normal 0.495834 0.85881 -0.12882
    outer loop
      vertex 0 48.17 17.3
      vertex 0 47.9 15.5
      vertex -2.88386 49.835 17.3
    endloop
  endfacet
  facet normal -0.495834 0.85881 -0.12882
    outer loop
      vertex 0 48.17 17.3
      vertex 2.88386 49.835 17.3
      vertex 0 47.9 15.5
    endloop
  endfacet
  facet normal 0.354274 -0.61362 -0.705663
    outer loop
      vertex 0 54.83 17.3
      vertex -2.88386 53.165 17.3
      vertex -3.11769 55.1 15.5
    endloop
  endfacet
  facet normal 0.495834 0.85881 -0.128821
    outer loop
      vertex -2.88386 49.835 17.3
      vertex 0 47.9 15.5
      vertex -3.11769 49.7 15.5
    endloop
  endfacet
  facet normal -0.495834 0.858809 -0.128822
    outer loop
      vertex 0 48.35 18.5
      vertex 2.72798 49.925 18.5
      vertex 0 48.17 17.3
    endloop
  endfacet
  facet normal 0 0 -1
    outer loop
      vertex 2.72798 49.925 18.5
      vertex 1.52188 50.6 18.5
      vertex 2.72798 50.6 18.5
    endloop
  endfacet
  facet normal 0 0 -1
    outer loop
      vertex 2.72798 49.925 18.5
      vertex 1.27279 50.2272 18.5
      vertex 1.52188 50.6 18.5
    endloop
  endfacet
  facet normal -0 0 -1
    outer loop
      vertex 2.72798 49.925 18.5
      vertex 0.688829 49.837 18.5
      vertex 1.27279 50.2272 18.5
    endloop
  endfacet
  facet normal 0 0 -1
    outer loop
      vertex 0 48.35 18.5
      vertex 0.688829 49.837 18.5
      vertex 2.72798 49.925 18.5
    endloop
  endfacet
  facet normal 0 0 -1
    outer loop
      vertex 0 48.35 18.5
      vertex 0 49.7 18.5
      vertex 0.688829 49.837 18.5
    endloop
  endfacet
  facet normal 0 0 -1
    outer loop
      vertex 0 48.35 18.5
      vertex -0.688829 49.837 18.5
      vertex 0 49.7 18.5
    endloop
  endfacet
  facet normal 0 0 -1
    outer loop
      vertex -2.72798 49.925 18.5
      vertex -0.688829 49.837 18.5
      vertex 0 48.35 18.5
    endloop
  endfacet
  facet normal 0 0 -1
    outer loop
      vertex -0.688829 49.837 18.5
      vertex -2.72798 49.925 18.5
      vertex -1.27279 50.2272 18.5
    endloop
  endfacet
  facet normal 0 0 -1
    outer loop
      vertex -2.72798 49.925 18.5
      vertex -1.52188 50.6 18.5
      vertex -1.27279 50.2272 18.5
    endloop
  endfacet
  facet normal -0 0 -1
    outer loop
      vertex -1.52188 50.6 18.5
      vertex -2.72798 49.925 18.5
      vertex -2.72798 50.6 18.5
    endloop
  endfacet
  facet normal 0 0 -1
    outer loop
      vertex 1.52188 52.4 18.5
      vertex 2.72798 53.075 18.5
      vertex 2.72798 52.4 18.5
    endloop
  endfacet
  facet normal 0 0 -1
    outer loop
      vertex 1.27279 52.7728 18.5
      vertex 2.72798 53.075 18.5
      vertex 1.52188 52.4 18.5
    endloop
  endfacet
  facet normal 0 0 -1
    outer loop
      vertex 0.688829 53.163 18.5
      vertex 2.72798 53.075 18.5
      vertex 1.27279 52.7728 18.5
    endloop
  endfacet
  facet normal 0 0 -1
    outer loop
      vertex 0 54.65 18.5
      vertex 0.688829 53.163 18.5
      vertex 0 53.3 18.5
    endloop
  endfacet
  facet normal 0 0 -1
    outer loop
      vertex 0.688829 53.163 18.5
      vertex 0 54.65 18.5
      vertex 2.72798 53.075 18.5
    endloop
  endfacet
  facet normal 0 0 -1
    outer loop
      vertex -0.688829 53.163 18.5
      vertex 0 54.65 18.5
      vertex 0 53.3 18.5
    endloop
  endfacet
  facet normal 0 0 -1
    outer loop
      vertex -2.72798 53.075 18.5
      vertex -0.688829 53.163 18.5
      vertex -1.27279 52.7728 18.5
    endloop
  endfacet
  facet normal 0 0 -1
    outer loop
      vertex -2.72798 53.075 18.5
      vertex -1.52188 52.4 18.5
      vertex -2.72798 52.4 18.5
    endloop
  endfacet
  facet normal 0 0 -1
    outer loop
      vertex -1.52188 52.4 18.5
      vertex -2.72798 53.075 18.5
      vertex -1.27279 52.7728 18.5
    endloop
  endfacet
  facet normal -0 0 -1
    outer loop
      vertex -0.688829 53.163 18.5
      vertex -2.72798 53.075 18.5
      vertex 0 54.65 18.5
    endloop
  endfacet
  facet normal -0.495834 0.858809 -0.128822
    outer loop
      vertex 2.72798 49.925 18.5
      vertex 2.88386 49.835 17.3
      vertex 0 48.17 17.3
    endloop
  endfacet
  facet normal 0.495834 -0.858809 -0.128822
    outer loop
      vertex 0 54.83 17.3
      vertex 0 54.65 18.5
      vertex -2.72798 53.075 18.5
    endloop
  endfacet
  facet normal 0.991668 0 -0.128821
    outer loop
      vertex -2.72798 52.4 18.5
      vertex -2.88386 53.165 17.3
      vertex -2.72798 53.075 18.5
    endloop
  endfacet
  facet normal 0.991668 0 -0.128821
    outer loop
      vertex -2.72798 50.6 18.5
      vertex -2.88386 53.165 17.3
      vertex -2.72798 52.4 18.5
    endloop
  endfacet
  facet normal 0.991668 0 -0.128821
    outer loop
      vertex -2.88386 49.835 17.3
      vertex -2.72798 50.6 18.5
      vertex -2.72798 49.925 18.5
    endloop
  endfacet
  facet normal 0.991668 0 -0.128821
    outer loop
      vertex -2.72798 50.6 18.5
      vertex -2.88386 49.835 17.3
      vertex -2.88386 53.165 17.3
    endloop
  endfacet
  facet normal 0.495834 -0.858809 -0.128822
    outer loop
      vertex 0 54.83 17.3
      vertex -2.72798 53.075 18.5
      vertex -2.88386 53.165 17.3
    endloop
  endfacet
  facet normal -0.495834 -0.858809 -0.128822
    outer loop
      vertex 2.88386 53.165 17.3
      vertex 2.72798 53.075 18.5
      vertex 0 54.83 17.3
    endloop
  endfacet
  facet normal -0.495834 -0.858809 -0.128822
    outer loop
      vertex 0 54.83 17.3
      vertex 2.72798 53.075 18.5
      vertex 0 54.65 18.5
    endloop
  endfacet
  facet normal -0.991668 0 -0.128821
    outer loop
      vertex 2.88386 53.165 17.3
      vertex 2.72798 52.4 18.5
      vertex 2.72798 53.075 18.5
    endloop
  endfacet
  facet normal -0.991668 0 -0.128821
    outer loop
      vertex 2.88386 53.165 17.3
      vertex 2.72798 50.6 18.5
      vertex 2.72798 52.4 18.5
    endloop
  endfacet
  facet normal -0.991668 0 -0.128821
    outer loop
      vertex 2.88386 49.835 17.3
      vertex 2.72798 50.6 18.5
      vertex 2.88386 53.165 17.3
    endloop
  endfacet
  facet normal -0.991668 -0 -0.128821
    outer loop
      vertex 2.72798 50.6 18.5
      vertex 2.88386 49.835 17.3
      vertex 2.72798 49.925 18.5
    endloop
  endfacet
  facet normal 0.495834 0.858809 -0.128822
    outer loop
      vertex -2.72798 49.925 18.5
      vertex 0 48.17 17.3
      vertex -2.88386 49.835 17.3
    endloop
  endfacet
  facet normal 0.495834 0.858809 -0.128822
    outer loop
      vertex 0 48.35 18.5
      vertex 0 48.17 17.3
      vertex -2.72798 49.925 18.5
    endloop
  endfacet
  facet normal -0 0 -1
    outer loop
      vertex -1.66298 50.8112 19
      vertex -2.72798 50.6 19
      vertex -1.8 51.5 19
    endloop
  endfacet
  facet normal 0 0 -1
    outer loop
      vertex -2.72798 50.6 19
      vertex -1.66298 50.8112 19
      vertex -1.52188 50.6 19
    endloop
  endfacet
  facet normal 0 0 -1
    outer loop
      vertex -2.72798 52.4 19
      vertex -1.8 51.5 19
      vertex -2.72798 50.6 19
    endloop
  endfacet
  facet normal 0 0 -1
    outer loop
      vertex -1.8 51.5 19
      vertex -2.72798 52.4 19
      vertex -1.66298 52.1888 19
    endloop
  endfacet
  facet normal 0 0 -1
    outer loop
      vertex -1.66298 52.1888 19
      vertex -2.72798 52.4 19
      vertex -1.52188 52.4 19
    endloop
  endfacet
  facet normal 0 0 -1
    outer loop
      vertex 2.72798 50.6 19
      vertex 1.8 51.5 19
      vertex 2.72798 52.4 19
    endloop
  endfacet
  facet normal 0 0 -1
    outer loop
      vertex 2.72798 50.6 19
      vertex 1.66298 50.8112 19
      vertex 1.8 51.5 19
    endloop
  endfacet
  facet normal 0 -0 -1
    outer loop
      vertex 1.66298 50.8112 19
      vertex 2.72798 50.6 19
      vertex 1.52188 50.6 19
    endloop
  endfacet
  facet normal 0 0 -1
    outer loop
      vertex 1.66298 52.1888 19
      vertex 2.72798 52.4 19
      vertex 1.8 51.5 19
    endloop
  endfacet
  facet normal -0 0 -1
    outer loop
      vertex 2.72798 52.4 19
      vertex 1.66298 52.1888 19
      vertex 1.52188 52.4 19
    endloop
  endfacet
  facet normal 0 1 -0
    outer loop
      vertex -1.52188 50.6 18.5
      vertex -2.72798 50.6 19
      vertex -1.52188 50.6 19
    endloop
  endfacet
  facet normal 0 1 0
    outer loop
      vertex -2.72798 50.6 19
      vertex -1.52188 50.6 18.5
      vertex -2.72798 50.6 18.5
    endloop
  endfacet
  facet normal 0 1 -0
    outer loop
      vertex 2.72798 50.6 18.5
      vertex 1.52188 50.6 19
      vertex 2.72798 50.6 19
    endloop
  endfacet
  facet normal 0 1 0
    outer loop
      vertex 1.52188 50.6 19
      vertex 2.72798 50.6 18.5
      vertex 1.52188 50.6 18.5
    endloop
  endfacet
  facet normal 0 -1 0
    outer loop
      vertex -2.72798 52.4 18.5
      vertex -1.52188 52.4 19
      vertex -2.72798 52.4 19
    endloop
  endfacet
  facet normal 0 -1 -0
    outer loop
      vertex -1.52188 52.4 19
      vertex -2.72798 52.4 18.5
      vertex -1.52188 52.4 18.5
    endloop
  endfacet
  facet normal 0 -1 0
    outer loop
      vertex 1.52188 52.4 18.5
      vertex 2.72798 52.4 19
      vertex 1.52188 52.4 19
    endloop
  endfacet
  facet normal 0 -1 -0
    outer loop
      vertex 2.72798 52.4 19
      vertex 1.52188 52.4 18.5
      vertex 2.72798 52.4 18.5
    endloop
  endfacet
  facet normal 1 -0 0
    outer loop
      vertex -2.72798 50.6 19
      vertex -2.72798 52.4 18.5
      vertex -2.72798 52.4 19
    endloop
  endfacet
  facet normal 1 0 0
    outer loop
      vertex -2.72798 52.4 18.5
      vertex -2.72798 50.6 19
      vertex -2.72798 50.6 18.5
    endloop
  endfacet
  facet normal -1 0 0
    outer loop
      vertex 2.72798 50.6 18.5
      vertex 2.72798 52.4 19
      vertex 2.72798 52.4 18.5
    endloop
  endfacet
  facet normal -1 -0 0
    outer loop
      vertex 2.72798 52.4 19
      vertex 2.72798 50.6 18.5
      vertex 2.72798 50.6 19
    endloop
  endfacet
  facet normal 0 -1 0
    outer loop
      vertex -3.65082 52.25 3
      vertex -3.59904 52.25 0.75
      vertex 3.65082 52.25 3
    endloop
  endfacet
  facet normal 0 -1 0
    outer loop
      vertex -3.65082 52.25 0
      vertex -3.59904 52.25 0.75
      vertex -3.65082 52.25 3
    endloop
  endfacet
  facet normal 0 -1 -0
    outer loop
      vertex -3.59904 52.25 0.75
      vertex -3.65082 52.25 0
      vertex -3.59904 52.25 0
    endloop
  endfacet
  facet normal 0 -1 0
    outer loop
      vertex 3.59904 52.25 0.75
      vertex 3.65082 52.25 3
      vertex -3.59904 52.25 0.75
    endloop
  endfacet
  facet normal 0 -1 0
    outer loop
      vertex 3.65082 52.25 0
      vertex 3.59904 52.25 0.75
      vertex 3.59904 52.25 0
    endloop
  endfacet
  facet normal 0 -1 0
    outer loop
      vertex 3.59904 52.25 0.75
      vertex 3.65082 52.25 0
      vertex 3.65082 52.25 3
    endloop
  endfacet
  facet normal 0 -0.707107 -0.707107
    outer loop
      vertex 0 49.7 5.55
      vertex 0 47.7 7.55
      vertex -1.4542 47.9893 7.26074
    endloop
  endfacet
  facet normal -4.28427e-007 -0.707107 -0.707107
    outer loop
      vertex -0.688829 49.837 5.41298
      vertex -1.4542 47.9893 7.26074
      vertex -2.68701 48.813 6.43701
    endloop
  endfacet
  facet normal 0 -0.707107 -0.707107
    outer loop
      vertex 0 47.7 7.55
      vertex 0 49.7 5.55
      vertex 1.4542 47.9893 7.26074
    endloop
  endfacet
  facet normal 0 -0.707107 -0.707107
    outer loop
      vertex 0.688829 49.837 5.41298
      vertex 1.4542 47.9893 7.26074
      vertex 0 49.7 5.55
    endloop
  endfacet
  facet normal 0 -0.707107 -0.707107
    outer loop
      vertex -1.4542 47.9893 7.26074
      vertex -0.688829 49.837 5.41298
      vertex 0 49.7 5.55
    endloop
  endfacet
  facet normal 9.37186e-008 -0.707107 -0.707107
    outer loop
      vertex -1.42166 50.45 4.8
      vertex -2.68701 48.813 6.43701
      vertex -3.51074 50.0458 5.2042
    endloop
  endfacet
  facet normal 3.10253e-007 -0.707107 -0.707106
    outer loop
      vertex -2.68701 48.813 6.43701
      vertex -1.27279 50.2272 5.02279
      vertex -0.688829 49.837 5.41298
    endloop
  endfacet
  facet normal -2.38612e-006 -0.707106 -0.707107
    outer loop
      vertex -2.68701 48.813 6.43701
      vertex -1.42166 50.45 4.8
      vertex -1.27279 50.2272 5.02279
    endloop
  endfacet
  facet normal 0 -0.707107 -0.707107
    outer loop
      vertex -3.65082 52.25 3
      vertex -1.42166 50.45 4.8
      vertex -3.8 51.5 3.75
    endloop
  endfacet
  facet normal 0 -0.707107 -0.707107
    outer loop
      vertex -3.8 51.5 3.75
      vertex -1.42166 50.45 4.8
      vertex -3.51074 50.0458 5.2042
    endloop
  endfacet
  facet normal 4.28427e-007 -0.707107 -0.707107
    outer loop
      vertex 1.4542 47.9893 7.26074
      vertex 0.688829 49.837 5.41298
      vertex 2.68701 48.813 6.43701
    endloop
  endfacet
  facet normal -3.10253e-007 -0.707107 -0.707106
    outer loop
      vertex 1.27279 50.2272 5.02279
      vertex 2.68701 48.813 6.43701
      vertex 0.688829 49.837 5.41298
    endloop
  endfacet
  facet normal 2.38612e-006 -0.707106 -0.707107
    outer loop
      vertex 1.42166 50.45 4.8
      vertex 2.68701 48.813 6.43701
      vertex 1.27279 50.2272 5.02279
    endloop
  endfacet
  facet normal -9.37186e-008 -0.707107 -0.707107
    outer loop
      vertex 2.68701 48.813 6.43701
      vertex 1.42166 50.45 4.8
      vertex 3.51074 50.0458 5.2042
    endloop
  endfacet
  facet normal 0 -0.707107 -0.707107
    outer loop
      vertex -1.42166 50.45 4.8
      vertex -3.65082 52.25 3
      vertex 1.42166 50.45 4.8
    endloop
  endfacet
  facet normal -0 -0.707107 -0.707107
    outer loop
      vertex 3.65082 52.25 3
      vertex 1.42166 50.45 4.8
      vertex -3.65082 52.25 3
    endloop
  endfacet
  facet normal 0 -0.707107 -0.707107
    outer loop
      vertex 3.8 51.5 3.75
      vertex 1.42166 50.45 4.8
      vertex 3.65082 52.25 3
    endloop
  endfacet
  facet normal 0 -0.707107 -0.707107
    outer loop
      vertex 1.42166 50.45 4.8
      vertex 3.8 51.5 3.75
      vertex 3.51074 50.0458 5.2042
    endloop
  endfacet
  facet normal -0.980785 -0.19509 0
    outer loop
      vertex 1.8 51.5 4.8
      vertex 1.66298 52.1888 12.5
      vertex 1.66298 52.1888 4.8
    endloop
  endfacet
  facet normal -0.980785 -0.19509 0
    outer loop
      vertex 1.66298 52.1888 12.5
      vertex 1.8 51.5 4.8
      vertex 1.8 51.5 12.5
    endloop
  endfacet
  facet normal -0.980785 -0.19509 0
    outer loop
      vertex 1.8 51.5 19
      vertex 1.66298 52.1888 20
      vertex 1.66298 52.1888 19
    endloop
  endfacet
  facet normal -0.980785 -0.19509 0
    outer loop
      vertex 1.66298 52.1888 20
      vertex 1.8 51.5 19
      vertex 1.8 51.5 20
    endloop
  endfacet
  facet normal 0.980785 -0.19509 0
    outer loop
      vertex -1.8 51.5 12.5
      vertex -1.66298 52.1888 4.8
      vertex -1.66298 52.1888 12.5
    endloop
  endfacet
  facet normal 0.980785 -0.19509 0
    outer loop
      vertex -1.66298 52.1888 4.8
      vertex -1.8 51.5 12.5
      vertex -1.8 51.5 4.8
    endloop
  endfacet
  facet normal 0.980785 -0.19509 0
    outer loop
      vertex -1.8 51.5 20
      vertex -1.66298 52.1888 19
      vertex -1.66298 52.1888 20
    endloop
  endfacet
  facet normal 0.980785 -0.19509 0
    outer loop
      vertex -1.66298 52.1888 19
      vertex -1.8 51.5 20
      vertex -1.8 51.5 19
    endloop
  endfacet
  facet normal 0.19509 -0.980785 0
    outer loop
      vertex -0.688829 53.163 4.8
      vertex 0 53.3 12.5
      vertex -0.688829 53.163 12.5
    endloop
  endfacet
  facet normal 0.19509 -0.980785 0
    outer loop
      vertex 0 53.3 12.5
      vertex -0.688829 53.163 4.8
      vertex 0 53.3 4.8
    endloop
  endfacet
  facet normal 0.19509 -0.980785 0
    outer loop
      vertex -0.688829 53.163 18.5
      vertex 0 53.3 20
      vertex -0.688829 53.163 20
    endloop
  endfacet
  facet normal 0.19509 -0.980785 0
    outer loop
      vertex 0 53.3 20
      vertex -0.688829 53.163 18.5
      vertex 0 53.3 18.5
    endloop
  endfacet
  facet normal 0.555569 -0.83147 0
    outer loop
      vertex -1.27279 52.7728 4.8
      vertex -0.688829 53.163 12.5
      vertex -1.27279 52.7728 12.5
    endloop
  endfacet
  facet normal 0.555569 -0.83147 0
    outer loop
      vertex -0.688829 53.163 12.5
      vertex -1.27279 52.7728 4.8
      vertex -0.688829 53.163 4.8
    endloop
  endfacet
  facet normal 0.555569 -0.83147 0
    outer loop
      vertex -1.27279 52.7728 18.5
      vertex -0.688829 53.163 20
      vertex -1.27279 52.7728 20
    endloop
  endfacet
  facet normal 0.555569 -0.83147 0
    outer loop
      vertex -0.688829 53.163 20
      vertex -1.27279 52.7728 18.5
      vertex -0.688829 53.163 18.5
    endloop
  endfacet
  facet normal -0.19509 0.980785 0
    outer loop
      vertex 0.688829 49.837 12.5
      vertex 0 49.7 5.55
      vertex 0 49.7 12.5
    endloop
  endfacet
  facet normal -0.19509 0.980785 0
    outer loop
      vertex 0 49.7 5.55
      vertex 0.688829 49.837 12.5
      vertex 0.688829 49.837 5.41298
    endloop
  endfacet
  facet normal -0.19509 0.980785 0
    outer loop
      vertex 0.688829 49.837 18.5
      vertex 0 49.7 20
      vertex 0.688829 49.837 20
    endloop
  endfacet
  facet normal -0.19509 0.980785 0
    outer loop
      vertex 0 49.7 20
      vertex 0.688829 49.837 18.5
      vertex 0 49.7 18.5
    endloop
  endfacet
  facet normal -0.555569 0.83147 0
    outer loop
      vertex 1.27279 50.2272 12.5
      vertex 0.688829 49.837 5.41298
      vertex 0.688829 49.837 12.5
    endloop
  endfacet
  facet normal -0.555569 0.83147 0
    outer loop
      vertex 0.688829 49.837 5.41298
      vertex 1.27279 50.2272 12.5
      vertex 1.27279 50.2272 5.02279
    endloop
  endfacet
  facet normal -0.555569 0.83147 0
    outer loop
      vertex 1.27279 50.2272 18.5
      vertex 0.688829 49.837 20
      vertex 1.27279 50.2272 20
    endloop
  endfacet
  facet normal -0.555569 0.83147 0
    outer loop
      vertex 0.688829 49.837 20
      vertex 1.27279 50.2272 18.5
      vertex 0.688829 49.837 18.5
    endloop
  endfacet
  facet normal -0.555569 -0.83147 0
    outer loop
      vertex 0.688829 53.163 4.8
      vertex 1.27279 52.7728 12.5
      vertex 0.688829 53.163 12.5
    endloop
  endfacet
  facet normal -0.555569 -0.83147 -0
    outer loop
      vertex 1.27279 52.7728 12.5
      vertex 0.688829 53.163 4.8
      vertex 1.27279 52.7728 4.8
    endloop
  endfacet
  facet normal -0.555569 -0.83147 0
    outer loop
      vertex 0.688829 53.163 18.5
      vertex 1.27279 52.7728 20
      vertex 0.688829 53.163 20
    endloop
  endfacet
  facet normal -0.555569 -0.83147 -0
    outer loop
      vertex 1.27279 52.7728 20
      vertex 0.688829 53.163 18.5
      vertex 1.27279 52.7728 18.5
    endloop
  endfacet
  facet normal -0.831471 -0.555568 0
    outer loop
      vertex 1.66298 52.1888 4.8
      vertex 1.27279 52.7728 12.5
      vertex 1.27279 52.7728 4.8
    endloop
  endfacet
  facet normal -0.831471 -0.555568 0
    outer loop
      vertex 1.27279 52.7728 12.5
      vertex 1.66298 52.1888 4.8
      vertex 1.66298 52.1888 12.5
    endloop
  endfacet
  facet normal -0.831469 -0.555571 -0
    outer loop
      vertex 1.52188 52.4 19
      vertex 1.27279 52.7728 18.5
      vertex 1.52188 52.4 18.5
    endloop
  endfacet
  facet normal -0.831469 -0.555571 0
    outer loop
      vertex 1.27279 52.7728 18.5
      vertex 1.52188 52.4 19
      vertex 1.27279 52.7728 20
    endloop
  endfacet
  facet normal -0.831474 -0.555563 -0
    outer loop
      vertex 1.66298 52.1888 20
      vertex 1.52188 52.4 19
      vertex 1.66298 52.1888 19
    endloop
  endfacet
  facet normal -0.831471 -0.555568 -1.56642e-006
    outer loop
      vertex 1.52188 52.4 19
      vertex 1.66298 52.1888 20
      vertex 1.27279 52.7728 20
    endloop
  endfacet
  facet normal -0.19509 -0.980785 0
    outer loop
      vertex 0 53.3 4.8
      vertex 0.688829 53.163 12.5
      vertex 0 53.3 12.5
    endloop
  endfacet
  facet normal -0.19509 -0.980785 -0
    outer loop
      vertex 0.688829 53.163 12.5
      vertex 0 53.3 4.8
      vertex 0.688829 53.163 4.8
    endloop
  endfacet
  facet normal -0.19509 -0.980785 0
    outer loop
      vertex 0 53.3 18.5
      vertex 0.688829 53.163 20
      vertex 0 53.3 20
    endloop
  endfacet
  facet normal -0.19509 -0.980785 -0
    outer loop
      vertex 0.688829 53.163 20
      vertex 0 53.3 18.5
      vertex 0.688829 53.163 18.5
    endloop
  endfacet
  facet normal 0.831471 -0.555568 0
    outer loop
      vertex -1.66298 52.1888 12.5
      vertex -1.27279 52.7728 4.8
      vertex -1.27279 52.7728 12.5
    endloop
  endfacet
  facet normal 0.831471 -0.555568 0
    outer loop
      vertex -1.27279 52.7728 4.8
      vertex -1.66298 52.1888 12.5
      vertex -1.66298 52.1888 4.8
    endloop
  endfacet
  facet normal 0.831469 -0.555571 0
    outer loop
      vertex -1.27279 52.7728 20
      vertex -1.52188 52.4 19
      vertex -1.27279 52.7728 18.5
    endloop
  endfacet
  facet normal 0.831471 -0.555568 -1.56642e-006
    outer loop
      vertex -1.66298 52.1888 20
      vertex -1.52188 52.4 19
      vertex -1.27279 52.7728 20
    endloop
  endfacet
  facet normal 0.831474 -0.555563 0
    outer loop
      vertex -1.52188 52.4 19
      vertex -1.66298 52.1888 20
      vertex -1.66298 52.1888 19
    endloop
  endfacet
  facet normal 0.831469 -0.555571 0
    outer loop
      vertex -1.27279 52.7728 18.5
      vertex -1.52188 52.4 19
      vertex -1.52188 52.4 18.5
    endloop
  endfacet
  facet normal 0 0 1
    outer loop
      vertex 1.42166 50.45 4.8
      vertex 1.8 51.5 4.8
      vertex 1.66298 52.1888 4.8
    endloop
  endfacet
  facet normal 0 0 1
    outer loop
      vertex 1.8 51.5 4.8
      vertex 1.42166 50.45 4.8
      vertex 1.66298 50.8112 4.8
    endloop
  endfacet
  facet normal 0 0 1
    outer loop
      vertex 1.27279 52.7728 4.8
      vertex 1.42166 50.45 4.8
      vertex 1.66298 52.1888 4.8
    endloop
  endfacet
  facet normal 0 0 1
    outer loop
      vertex 0.688829 53.163 4.8
      vertex 1.42166 50.45 4.8
      vertex 1.27279 52.7728 4.8
    endloop
  endfacet
  facet normal 0 0 1
    outer loop
      vertex 0 53.3 4.8
      vertex 1.42166 50.45 4.8
      vertex 0.688829 53.163 4.8
    endloop
  endfacet
  facet normal -0 0 1
    outer loop
      vertex -0.688829 53.163 4.8
      vertex 1.42166 50.45 4.8
      vertex 0 53.3 4.8
    endloop
  endfacet
  facet normal -0 0 1
    outer loop
      vertex -1.27279 52.7728 4.8
      vertex 1.42166 50.45 4.8
      vertex -0.688829 53.163 4.8
    endloop
  endfacet
  facet normal 0 0 1
    outer loop
      vertex -1.27279 52.7728 4.8
      vertex -1.42166 50.45 4.8
      vertex 1.42166 50.45 4.8
    endloop
  endfacet
  facet normal -0 0 1
    outer loop
      vertex -1.66298 52.1888 4.8
      vertex -1.42166 50.45 4.8
      vertex -1.27279 52.7728 4.8
    endloop
  endfacet
  facet normal -0 0 1
    outer loop
      vertex -1.8 51.5 4.8
      vertex -1.42166 50.45 4.8
      vertex -1.66298 52.1888 4.8
    endloop
  endfacet
  facet normal 0 0 1
    outer loop
      vertex -1.42166 50.45 4.8
      vertex -1.8 51.5 4.8
      vertex -1.66298 50.8112 4.8
    endloop
  endfacet
  facet normal -0.831471 0.555568 -5.98818e-007
    outer loop
      vertex 1.27279 50.2272 5.02279
      vertex 1.66298 50.8112 4.8
      vertex 1.42166 50.45 4.8
    endloop
  endfacet
  facet normal -0.831471 0.555568 0
    outer loop
      vertex 1.66298 50.8112 4.8
      vertex 1.27279 50.2272 5.02279
      vertex 1.66298 50.8112 12.5
    endloop
  endfacet
  facet normal -0.831471 0.555568 0
    outer loop
      vertex 1.66298 50.8112 12.5
      vertex 1.27279 50.2272 5.02279
      vertex 1.27279 50.2272 12.5
    endloop
  endfacet
  facet normal -0.831469 0.555571 0
    outer loop
      vertex 1.52188 50.6 18.5
      vertex 1.27279 50.2272 18.5
      vertex 1.52188 50.6 19
    endloop
  endfacet
  facet normal -0.831474 0.555563 0
    outer loop
      vertex 1.52188 50.6 19
      vertex 1.66298 50.8112 20
      vertex 1.66298 50.8112 19
    endloop
  endfacet
  facet normal -0.831469 0.555571 0
    outer loop
      vertex 1.27279 50.2272 20
      vertex 1.52188 50.6 19
      vertex 1.27279 50.2272 18.5
    endloop
  endfacet
  facet normal -0.831471 0.555568 -1.56642e-006
    outer loop
      vertex 1.52188 50.6 19
      vertex 1.27279 50.2272 20
      vertex 1.66298 50.8112 20
    endloop
  endfacet
  facet normal -0.980785 0.19509 0
    outer loop
      vertex 1.66298 50.8112 4.8
      vertex 1.8 51.5 12.5
      vertex 1.8 51.5 4.8
    endloop
  endfacet
  facet normal -0.980785 0.19509 0
    outer loop
      vertex 1.8 51.5 12.5
      vertex 1.66298 50.8112 4.8
      vertex 1.66298 50.8112 12.5
    endloop
  endfacet
  facet normal -0.980785 0.19509 0
    outer loop
      vertex 1.66298 50.8112 19
      vertex 1.8 51.5 20
      vertex 1.8 51.5 19
    endloop
  endfacet
  facet normal -0.980785 0.19509 0
    outer loop
      vertex 1.8 51.5 20
      vertex 1.66298 50.8112 19
      vertex 1.66298 50.8112 20
    endloop
  endfacet
  facet normal 0.980785 0.19509 0
    outer loop
      vertex -1.66298 50.8112 12.5
      vertex -1.8 51.5 4.8
      vertex -1.8 51.5 12.5
    endloop
  endfacet
  facet normal 0.980785 0.19509 0
    outer loop
      vertex -1.8 51.5 4.8
      vertex -1.66298 50.8112 12.5
      vertex -1.66298 50.8112 4.8
    endloop
  endfacet
  facet normal 0.980785 0.19509 0
    outer loop
      vertex -1.66298 50.8112 20
      vertex -1.8 51.5 19
      vertex -1.8 51.5 20
    endloop
  endfacet
  facet normal 0.980785 0.19509 0
    outer loop
      vertex -1.8 51.5 19
      vertex -1.66298 50.8112 20
      vertex -1.66298 50.8112 19
    endloop
  endfacet
  facet normal 0.555569 0.83147 -0
    outer loop
      vertex -0.688829 49.837 5.41298
      vertex -1.27279 50.2272 12.5
      vertex -0.688829 49.837 12.5
    endloop
  endfacet
  facet normal 0.555569 0.83147 0
    outer loop
      vertex -1.27279 50.2272 12.5
      vertex -0.688829 49.837 5.41298
      vertex -1.27279 50.2272 5.02279
    endloop
  endfacet
  facet normal 0.555569 0.83147 -0
    outer loop
      vertex -0.688829 49.837 18.5
      vertex -1.27279 50.2272 20
      vertex -0.688829 49.837 20
    endloop
  endfacet
  facet normal 0.555569 0.83147 0
    outer loop
      vertex -1.27279 50.2272 20
      vertex -0.688829 49.837 18.5
      vertex -1.27279 50.2272 18.5
    endloop
  endfacet
  facet normal 0.831471 0.555568 0
    outer loop
      vertex -1.27279 50.2272 5.02279
      vertex -1.66298 50.8112 4.8
      vertex -1.66298 50.8112 12.5
    endloop
  endfacet
  facet normal 0.831471 0.555568 -0
    outer loop
      vertex -1.27279 50.2272 5.02279
      vertex -1.66298 50.8112 12.5
      vertex -1.27279 50.2272 12.5
    endloop
  endfacet
  facet normal 0.831471 0.555568 -5.98818e-007
    outer loop
      vertex -1.66298 50.8112 4.8
      vertex -1.27279 50.2272 5.02279
      vertex -1.42166 50.45 4.8
    endloop
  endfacet
  facet normal 0.831474 0.555563 0
    outer loop
      vertex -1.66298 50.8112 20
      vertex -1.52188 50.6 19
      vertex -1.66298 50.8112 19
    endloop
  endfacet
  facet normal 0.831471 0.555568 -1.56642e-006
    outer loop
      vertex -1.27279 50.2272 20
      vertex -1.52188 50.6 19
      vertex -1.66298 50.8112 20
    endloop
  endfacet
  facet normal 0.831469 0.555571 -0
    outer loop
      vertex -1.27279 50.2272 18.5
      vertex -1.52188 50.6 19
      vertex -1.27279 50.2272 20
    endloop
  endfacet
  facet normal 0.831469 0.555571 0
    outer loop
      vertex -1.52188 50.6 19
      vertex -1.27279 50.2272 18.5
      vertex -1.52188 50.6 18.5
    endloop
  endfacet
  facet normal 0.19509 0.980785 -0
    outer loop
      vertex 0 49.7 5.55
      vertex -0.688829 49.837 12.5
      vertex 0 49.7 12.5
    endloop
  endfacet
  facet normal 0.19509 0.980785 0
    outer loop
      vertex -0.688829 49.837 12.5
      vertex 0 49.7 5.55
      vertex -0.688829 49.837 5.41298
    endloop
  endfacet
  facet normal 0.19509 0.980785 -0
    outer loop
      vertex 0 49.7 18.5
      vertex -0.688829 49.837 20
      vertex 0 49.7 20
    endloop
  endfacet
  facet normal 0.19509 0.980785 0
    outer loop
      vertex -0.688829 49.837 20
      vertex 0 49.7 18.5
      vertex -0.688829 49.837 18.5
    endloop
  endfacet
  facet normal 0 -1 0
    outer loop
      vertex -3.8 42.5 0
      vertex 3.8 42.5 5
      vertex -3.8 42.5 5
    endloop
  endfacet
  facet normal 0 -1 -0
    outer loop
      vertex 3.8 42.5 5
      vertex -3.8 42.5 0
      vertex 3.8 42.5 0
    endloop
  endfacet
endsolid OpenSCAD_Model
