solid OpenSCAD_Model
  facet normal 0.634393 0.773011 -0
    outer loop
      vertex 4.41942 4.41942 0
      vertex 3.47231 5.19668 6
      vertex 4.41942 4.41942 6
    endloop
  endfacet
  facet normal 0.634393 0.773011 0
    outer loop
      vertex 3.47231 5.19668 6
      vertex 4.41942 4.41942 0
      vertex 3.47231 5.19668 0
    endloop
  endfacet
  facet normal 0.995185 -0.0980175 0
    outer loop
      vertex 6.12991 -1.21931 6
      vertex 6.25 0 0
      vertex 6.25 0 6
    endloop
  endfacet
  facet normal 0.995185 -0.0980175 0
    outer loop
      vertex 6.25 0 0
      vertex 6.12991 -1.21931 6
      vertex 6.12991 -1.21931 0
    endloop
  endfacet
  facet normal -0.290285 -0.95694 0
    outer loop
      vertex -2.39177 -5.77425 0
      vertex -1.21931 -6.12991 6
      vertex -2.39177 -5.77425 6
    endloop
  endfacet
  facet normal -0.290285 -0.95694 -0
    outer loop
      vertex -1.21931 -6.12991 6
      vertex -2.39177 -5.77425 0
      vertex -1.21931 -6.12991 0
    endloop
  endfacet
  facet normal 0.773011 0.634393 0
    outer loop
      vertex 5.19668 3.47231 6
      vertex 4.41942 4.41942 0
      vertex 4.41942 4.41942 6
    endloop
  endfacet
  facet normal 0.773011 0.634393 0
    outer loop
      vertex 4.41942 4.41942 0
      vertex 5.19668 3.47231 6
      vertex 5.19668 3.47231 0
    endloop
  endfacet
  facet normal -0.290285 0.95694 0
    outer loop
      vertex -1.21931 6.12991 0
      vertex -2.39177 5.77425 6
      vertex -1.21931 6.12991 6
    endloop
  endfacet
  facet normal -0.290285 0.95694 0
    outer loop
      vertex -2.39177 5.77425 6
      vertex -1.21931 6.12991 0
      vertex -2.39177 5.77425 0
    endloop
  endfacet
  facet normal -0.881921 0.471396 0
    outer loop
      vertex -5.77425 2.39177 0
      vertex -5.19668 3.47231 6
      vertex -5.19668 3.47231 0
    endloop
  endfacet
  facet normal -0.881921 0.471396 0
    outer loop
      vertex -5.19668 3.47231 6
      vertex -5.77425 2.39177 0
      vertex -5.77425 2.39177 6
    endloop
  endfacet
  facet normal 0.634393 -0.773011 0
    outer loop
      vertex 3.47231 -5.19668 0
      vertex 4.41942 -4.41942 6
      vertex 3.47231 -5.19668 6
    endloop
  endfacet
  facet normal 0.634393 -0.773011 0
    outer loop
      vertex 4.41942 -4.41942 6
      vertex 3.47231 -5.19668 0
      vertex 4.41942 -4.41942 0
    endloop
  endfacet
  facet normal -0.881921 -0.471396 0
    outer loop
      vertex -5.19668 -3.47231 0
      vertex -5.77425 -2.39177 6
      vertex -5.77425 -2.39177 0
    endloop
  endfacet
  facet normal -0.881921 -0.471396 0
    outer loop
      vertex -5.77425 -2.39177 6
      vertex -5.19668 -3.47231 0
      vertex -5.19668 -3.47231 6
    endloop
  endfacet
  facet normal 0.95694 0.290285 0
    outer loop
      vertex 6.12991 1.21931 6
      vertex 5.77425 2.39177 0
      vertex 5.77425 2.39177 6
    endloop
  endfacet
  facet normal 0.95694 0.290285 0
    outer loop
      vertex 5.77425 2.39177 0
      vertex 6.12991 1.21931 6
      vertex 6.12991 1.21931 0
    endloop
  endfacet
  facet normal 0.881921 0.471396 0
    outer loop
      vertex 5.77425 2.39177 6
      vertex 5.19668 3.47231 0
      vertex 5.19668 3.47231 6
    endloop
  endfacet
  facet normal 0.881921 0.471396 0
    outer loop
      vertex 5.19668 3.47231 0
      vertex 5.77425 2.39177 6
      vertex 5.77425 2.39177 0
    endloop
  endfacet
  facet normal 0.471396 0.881921 -0
    outer loop
      vertex 3.47231 5.19668 0
      vertex 2.39177 5.77425 6
      vertex 3.47231 5.19668 6
    endloop
  endfacet
  facet normal 0.471396 0.881921 0
    outer loop
      vertex 2.39177 5.77425 6
      vertex 3.47231 5.19668 0
      vertex 2.39177 5.77425 0
    endloop
  endfacet
  facet normal 0.0980175 0.995185 -0
    outer loop
      vertex 1.21931 6.12991 0
      vertex 0 6.25 6
      vertex 1.21931 6.12991 6
    endloop
  endfacet
  facet normal 0.0980175 0.995185 0
    outer loop
      vertex 0 6.25 6
      vertex 1.21931 6.12991 0
      vertex 0 6.25 0
    endloop
  endfacet
  facet normal -0.995185 0.0980175 0
    outer loop
      vertex -6.25 0 0
      vertex -6.12991 1.21931 6
      vertex -6.12991 1.21931 0
    endloop
  endfacet
  facet normal -0.995185 0.0980175 0
    outer loop
      vertex -6.12991 1.21931 6
      vertex -6.25 0 0
      vertex -6.25 0 6
    endloop
  endfacet
  facet normal -0.773011 0.634393 0
    outer loop
      vertex -5.19668 3.47231 0
      vertex -4.41942 4.41942 6
      vertex -4.41942 4.41942 0
    endloop
  endfacet
  facet normal -0.773011 0.634393 0
    outer loop
      vertex -4.41942 4.41942 6
      vertex -5.19668 3.47231 0
      vertex -5.19668 3.47231 6
    endloop
  endfacet
  facet normal -0.471396 0.881921 0
    outer loop
      vertex -2.39177 5.77425 0
      vertex -3.47231 5.19668 6
      vertex -2.39177 5.77425 6
    endloop
  endfacet
  facet normal -0.471396 0.881921 0
    outer loop
      vertex -3.47231 5.19668 6
      vertex -2.39177 5.77425 0
      vertex -3.47231 5.19668 0
    endloop
  endfacet
  facet normal -0.0980175 0.995185 0
    outer loop
      vertex 0 6.25 0
      vertex -1.21931 6.12991 6
      vertex 0 6.25 6
    endloop
  endfacet
  facet normal -0.0980175 0.995185 0
    outer loop
      vertex -1.21931 6.12991 6
      vertex 0 6.25 0
      vertex -1.21931 6.12991 0
    endloop
  endfacet
  facet normal -0.634393 0.773011 0
    outer loop
      vertex -3.47231 5.19668 0
      vertex -4.41942 4.41942 6
      vertex -3.47231 5.19668 6
    endloop
  endfacet
  facet normal -0.634393 0.773011 0
    outer loop
      vertex -4.41942 4.41942 6
      vertex -3.47231 5.19668 0
      vertex -4.41942 4.41942 0
    endloop
  endfacet
  facet normal 0.995185 0.0980175 0
    outer loop
      vertex 6.25 0 6
      vertex 6.12991 1.21931 0
      vertex 6.12991 1.21931 6
    endloop
  endfacet
  facet normal 0.995185 0.0980175 0
    outer loop
      vertex 6.12991 1.21931 0
      vertex 6.25 0 6
      vertex 6.25 0 0
    endloop
  endfacet
  facet normal 0.0980175 -0.995185 0
    outer loop
      vertex 0 -6.25 0
      vertex 1.21931 -6.12991 6
      vertex 0 -6.25 6
    endloop
  endfacet
  facet normal 0.0980175 -0.995185 0
    outer loop
      vertex 1.21931 -6.12991 6
      vertex 0 -6.25 0
      vertex 1.21931 -6.12991 0
    endloop
  endfacet
  facet normal 0.290285 -0.95694 0
    outer loop
      vertex 1.21931 -6.12991 0
      vertex 2.39177 -5.77425 6
      vertex 1.21931 -6.12991 6
    endloop
  endfacet
  facet normal 0.290285 -0.95694 0
    outer loop
      vertex 2.39177 -5.77425 6
      vertex 1.21931 -6.12991 0
      vertex 2.39177 -5.77425 0
    endloop
  endfacet
  facet normal 0.471396 -0.881921 0
    outer loop
      vertex 2.39177 -5.77425 0
      vertex 3.47231 -5.19668 6
      vertex 2.39177 -5.77425 6
    endloop
  endfacet
  facet normal 0.471396 -0.881921 0
    outer loop
      vertex 3.47231 -5.19668 6
      vertex 2.39177 -5.77425 0
      vertex 3.47231 -5.19668 0
    endloop
  endfacet
  facet normal -0.0980175 -0.995185 0
    outer loop
      vertex -1.21931 -6.12991 0
      vertex 0 -6.25 6
      vertex -1.21931 -6.12991 6
    endloop
  endfacet
  facet normal -0.0980175 -0.995185 -0
    outer loop
      vertex 0 -6.25 6
      vertex -1.21931 -6.12991 0
      vertex 0 -6.25 0
    endloop
  endfacet
  facet normal -0.634393 -0.773011 0
    outer loop
      vertex -4.41942 -4.41942 0
      vertex -3.47231 -5.19668 6
      vertex -4.41942 -4.41942 6
    endloop
  endfacet
  facet normal -0.634393 -0.773011 -0
    outer loop
      vertex -3.47231 -5.19668 6
      vertex -4.41942 -4.41942 0
      vertex -3.47231 -5.19668 0
    endloop
  endfacet
  facet normal -0.995185 -0.0980175 0
    outer loop
      vertex -6.12991 -1.21931 0
      vertex -6.25 0 6
      vertex -6.25 0 0
    endloop
  endfacet
  facet normal -0.995185 -0.0980175 0
    outer loop
      vertex -6.25 0 6
      vertex -6.12991 -1.21931 0
      vertex -6.12991 -1.21931 6
    endloop
  endfacet
  facet normal 0 0 -1
    outer loop
      vertex 5.25 0 0
      vertex 6.25 0 0
      vertex 6.12991 -1.21931 0
    endloop
  endfacet
  facet normal 0 0 -1
    outer loop
      vertex 5.14912 -1.02422 0
      vertex 6.12991 -1.21931 0
      vertex 5.77425 -2.39177 0
    endloop
  endfacet
  facet normal 0 0 -1
    outer loop
      vertex 6.25 0 0
      vertex 5.25 0 0
      vertex 6.12991 1.21931 0
    endloop
  endfacet
  facet normal 0 0 -1
    outer loop
      vertex 5.14912 1.02422 0
      vertex 6.12991 1.21931 0
      vertex 5.25 0 0
    endloop
  endfacet
  facet normal 0 0 -1
    outer loop
      vertex 4.85037 -2.00909 0
      vertex 5.77425 -2.39177 0
      vertex 5.19668 -3.47231 0
    endloop
  endfacet
  facet normal 0 0 -1
    outer loop
      vertex 6.12991 -1.21931 0
      vertex 5.14912 -1.02422 0
      vertex 5.25 0 0
    endloop
  endfacet
  facet normal 0 0 -1
    outer loop
      vertex 5.77425 -2.39177 0
      vertex 4.85037 -2.00909 0
      vertex 5.14912 -1.02422 0
    endloop
  endfacet
  facet normal 0 0 -1
    outer loop
      vertex 4.36522 -2.91674 0
      vertex 5.19668 -3.47231 0
      vertex 4.41942 -4.41942 0
    endloop
  endfacet
  facet normal 0 0 -1
    outer loop
      vertex 5.19668 -3.47231 0
      vertex 4.36522 -2.91674 0
      vertex 4.85037 -2.00909 0
    endloop
  endfacet
  facet normal 0 0 -1
    outer loop
      vertex 4.41942 -4.41942 0
      vertex 3.71231 -3.71231 0
      vertex 4.36522 -2.91674 0
    endloop
  endfacet
  facet normal 0 0 -1
    outer loop
      vertex 3.47231 -5.19668 0
      vertex 3.71231 -3.71231 0
      vertex 4.41942 -4.41942 0
    endloop
  endfacet
  facet normal 0 0 -1
    outer loop
      vertex 3.47231 -5.19668 0
      vertex 2.91674 -4.36522 0
      vertex 3.71231 -3.71231 0
    endloop
  endfacet
  facet normal 0 0 -1
    outer loop
      vertex 2.39177 -5.77425 0
      vertex 2.91674 -4.36522 0
      vertex 3.47231 -5.19668 0
    endloop
  endfacet
  facet normal 0 0 -1
    outer loop
      vertex 2.39177 -5.77425 0
      vertex 2.00909 -4.85037 0
      vertex 2.91674 -4.36522 0
    endloop
  endfacet
  facet normal 0 0 -1
    outer loop
      vertex 1.21931 -6.12991 0
      vertex 2.00909 -4.85037 0
      vertex 2.39177 -5.77425 0
    endloop
  endfacet
  facet normal 0 0 -1
    outer loop
      vertex 1.21931 -6.12991 0
      vertex 1.02422 -5.14912 0
      vertex 2.00909 -4.85037 0
    endloop
  endfacet
  facet normal 0 0 -1
    outer loop
      vertex 0 -6.25 0
      vertex 1.02422 -5.14912 0
      vertex 1.21931 -6.12991 0
    endloop
  endfacet
  facet normal 0 0 -1
    outer loop
      vertex 0 -6.25 0
      vertex 0 -5.25 0
      vertex 1.02422 -5.14912 0
    endloop
  endfacet
  facet normal 0 0 -1
    outer loop
      vertex 0 -6.25 0
      vertex -1.02422 -5.14912 0
      vertex 0 -5.25 0
    endloop
  endfacet
  facet normal 0 0 -1
    outer loop
      vertex -1.21931 -6.12991 0
      vertex -1.02422 -5.14912 0
      vertex 0 -6.25 0
    endloop
  endfacet
  facet normal 0 0 -1
    outer loop
      vertex -1.21931 -6.12991 0
      vertex -2.00909 -4.85037 0
      vertex -1.02422 -5.14912 0
    endloop
  endfacet
  facet normal 0 0 -1
    outer loop
      vertex -2.39177 -5.77425 0
      vertex -2.00909 -4.85037 0
      vertex -1.21931 -6.12991 0
    endloop
  endfacet
  facet normal 0 0 -1
    outer loop
      vertex -2.39177 -5.77425 0
      vertex -2.91674 -4.36522 0
      vertex -2.00909 -4.85037 0
    endloop
  endfacet
  facet normal 0 0 -1
    outer loop
      vertex -3.47231 -5.19668 0
      vertex -2.91674 -4.36522 0
      vertex -2.39177 -5.77425 0
    endloop
  endfacet
  facet normal 0 0 -1
    outer loop
      vertex -3.47231 -5.19668 0
      vertex -3.71231 -3.71231 0
      vertex -2.91674 -4.36522 0
    endloop
  endfacet
  facet normal 0 0 -1
    outer loop
      vertex -4.41942 -4.41942 0
      vertex -3.71231 -3.71231 0
      vertex -3.47231 -5.19668 0
    endloop
  endfacet
  facet normal -0 0 -1
    outer loop
      vertex -3.71231 -3.71231 0
      vertex -4.41942 -4.41942 0
      vertex -4.36522 -2.91674 0
    endloop
  endfacet
  facet normal 0 0 -1
    outer loop
      vertex -5.19668 -3.47231 0
      vertex -4.36522 -2.91674 0
      vertex -4.41942 -4.41942 0
    endloop
  endfacet
  facet normal -0 0 -1
    outer loop
      vertex -4.36522 -2.91674 0
      vertex -5.19668 -3.47231 0
      vertex -4.85037 -2.00909 0
    endloop
  endfacet
  facet normal 0 0 -1
    outer loop
      vertex -5.77425 -2.39177 0
      vertex -4.85037 -2.00909 0
      vertex -5.19668 -3.47231 0
    endloop
  endfacet
  facet normal -0 0 -1
    outer loop
      vertex -4.85037 -2.00909 0
      vertex -5.77425 -2.39177 0
      vertex -5.14912 -1.02422 0
    endloop
  endfacet
  facet normal 0 0 -1
    outer loop
      vertex -6.12991 -1.21931 0
      vertex -5.14912 -1.02422 0
      vertex -5.77425 -2.39177 0
    endloop
  endfacet
  facet normal -0 0 -1
    outer loop
      vertex 6.12991 1.21931 0
      vertex 5.14912 1.02422 0
      vertex 5.77425 2.39177 0
    endloop
  endfacet
  facet normal 0 0 -1
    outer loop
      vertex 4.85037 2.00909 0
      vertex 5.77425 2.39177 0
      vertex 5.14912 1.02422 0
    endloop
  endfacet
  facet normal -0 0 -1
    outer loop
      vertex 5.77425 2.39177 0
      vertex 4.85037 2.00909 0
      vertex 5.19668 3.47231 0
    endloop
  endfacet
  facet normal 0 0 -1
    outer loop
      vertex 4.36522 2.91674 0
      vertex 5.19668 3.47231 0
      vertex 4.85037 2.00909 0
    endloop
  endfacet
  facet normal -0 0 -1
    outer loop
      vertex 5.19668 3.47231 0
      vertex 4.36522 2.91674 0
      vertex 4.41942 4.41942 0
    endloop
  endfacet
  facet normal 0 0 -1
    outer loop
      vertex 3.71231 3.71231 0
      vertex 4.41942 4.41942 0
      vertex 4.36522 2.91674 0
    endloop
  endfacet
  facet normal 0 0 -1
    outer loop
      vertex 3.71231 3.71231 0
      vertex 3.47231 5.19668 0
      vertex 4.41942 4.41942 0
    endloop
  endfacet
  facet normal 0 0 -1
    outer loop
      vertex 2.91674 4.36522 0
      vertex 3.47231 5.19668 0
      vertex 3.71231 3.71231 0
    endloop
  endfacet
  facet normal 0 0 -1
    outer loop
      vertex 2.91674 4.36522 0
      vertex 2.39177 5.77425 0
      vertex 3.47231 5.19668 0
    endloop
  endfacet
  facet normal 0 0 -1
    outer loop
      vertex 2.00909 4.85037 0
      vertex 2.39177 5.77425 0
      vertex 2.91674 4.36522 0
    endloop
  endfacet
  facet normal 0 0 -1
    outer loop
      vertex 2.00909 4.85037 0
      vertex 1.21931 6.12991 0
      vertex 2.39177 5.77425 0
    endloop
  endfacet
  facet normal 0 0 -1
    outer loop
      vertex 1.02422 5.14912 0
      vertex 1.21931 6.12991 0
      vertex 2.00909 4.85037 0
    endloop
  endfacet
  facet normal 0 0 -1
    outer loop
      vertex 0 5.25 0
      vertex 1.21931 6.12991 0
      vertex 1.02422 5.14912 0
    endloop
  endfacet
  facet normal 0 0 -1
    outer loop
      vertex 0 5.25 0
      vertex 0 6.25 0
      vertex 1.21931 6.12991 0
    endloop
  endfacet
  facet normal 0 0 -1
    outer loop
      vertex -1.02422 5.14912 0
      vertex 0 6.25 0
      vertex 0 5.25 0
    endloop
  endfacet
  facet normal 0 0 -1
    outer loop
      vertex -1.02422 5.14912 0
      vertex -1.21931 6.12991 0
      vertex 0 6.25 0
    endloop
  endfacet
  facet normal 0 0 -1
    outer loop
      vertex -2.00909 4.85037 0
      vertex -1.21931 6.12991 0
      vertex -1.02422 5.14912 0
    endloop
  endfacet
  facet normal 0 0 -1
    outer loop
      vertex -2.00909 4.85037 0
      vertex -2.39177 5.77425 0
      vertex -1.21931 6.12991 0
    endloop
  endfacet
  facet normal 0 0 -1
    outer loop
      vertex -2.91674 4.36522 0
      vertex -2.39177 5.77425 0
      vertex -2.00909 4.85037 0
    endloop
  endfacet
  facet normal 0 0 -1
    outer loop
      vertex -2.91674 4.36522 0
      vertex -3.47231 5.19668 0
      vertex -2.39177 5.77425 0
    endloop
  endfacet
  facet normal 0 0 -1
    outer loop
      vertex -3.71231 3.71231 0
      vertex -3.47231 5.19668 0
      vertex -2.91674 4.36522 0
    endloop
  endfacet
  facet normal 0 0 -1
    outer loop
      vertex -4.41942 4.41942 0
      vertex -3.71231 3.71231 0
      vertex -4.36522 2.91674 0
    endloop
  endfacet
  facet normal 0 0 -1
    outer loop
      vertex -3.71231 3.71231 0
      vertex -4.41942 4.41942 0
      vertex -3.47231 5.19668 0
    endloop
  endfacet
  facet normal 0 0 -1
    outer loop
      vertex -5.19668 3.47231 0
      vertex -4.36522 2.91674 0
      vertex -4.85037 2.00909 0
    endloop
  endfacet
  facet normal 0 0 -1
    outer loop
      vertex -5.77425 2.39177 0
      vertex -4.85037 2.00909 0
      vertex -5.14912 1.02422 0
    endloop
  endfacet
  facet normal 0 0 -1
    outer loop
      vertex -4.36522 2.91674 0
      vertex -5.19668 3.47231 0
      vertex -4.41942 4.41942 0
    endloop
  endfacet
  facet normal 0 0 -1
    outer loop
      vertex -6.12991 1.21931 0
      vertex -5.14912 1.02422 0
      vertex -5.25 0 0
    endloop
  endfacet
  facet normal -0 0 -1
    outer loop
      vertex -5.14912 -1.02422 0
      vertex -6.12991 -1.21931 0
      vertex -5.25 0 0
    endloop
  endfacet
  facet normal 0 0 -1
    outer loop
      vertex -4.85037 2.00909 0
      vertex -5.77425 2.39177 0
      vertex -5.19668 3.47231 0
    endloop
  endfacet
  facet normal 0 0 -1
    outer loop
      vertex -6.25 0 0
      vertex -5.25 0 0
      vertex -6.12991 -1.21931 0
    endloop
  endfacet
  facet normal 0 0 -1
    outer loop
      vertex -5.14912 1.02422 0
      vertex -6.12991 1.21931 0
      vertex -5.77425 2.39177 0
    endloop
  endfacet
  facet normal 0 0 -1
    outer loop
      vertex -5.25 0 0
      vertex -6.25 0 0
      vertex -6.12991 1.21931 0
    endloop
  endfacet
  facet normal 0.290285 0.95694 -0
    outer loop
      vertex 2.39177 5.77425 0
      vertex 1.21931 6.12991 6
      vertex 2.39177 5.77425 6
    endloop
  endfacet
  facet normal 0.290285 0.95694 0
    outer loop
      vertex 1.21931 6.12991 6
      vertex 2.39177 5.77425 0
      vertex 1.21931 6.12991 0
    endloop
  endfacet
  facet normal 0 0 1
    outer loop
      vertex 5.25 0 6
      vertex 6.25 0 6
      vertex 6.12991 1.21931 6
    endloop
  endfacet
  facet normal 0 0 1
    outer loop
      vertex 5.14912 1.02422 6
      vertex 6.12991 1.21931 6
      vertex 5.77425 2.39177 6
    endloop
  endfacet
  facet normal 0 0 1
    outer loop
      vertex 6.25 0 6
      vertex 5.25 0 6
      vertex 6.12991 -1.21931 6
    endloop
  endfacet
  facet normal -0 0 1
    outer loop
      vertex 5.14912 -1.02422 6
      vertex 6.12991 -1.21931 6
      vertex 5.25 0 6
    endloop
  endfacet
  facet normal 0 0 1
    outer loop
      vertex 4.85037 2.00909 6
      vertex 5.77425 2.39177 6
      vertex 5.19668 3.47231 6
    endloop
  endfacet
  facet normal 0 0 1
    outer loop
      vertex 6.12991 1.21931 6
      vertex 5.14912 1.02422 6
      vertex 5.25 0 6
    endloop
  endfacet
  facet normal 0 0 1
    outer loop
      vertex 5.77425 2.39177 6
      vertex 4.85037 2.00909 6
      vertex 5.14912 1.02422 6
    endloop
  endfacet
  facet normal 0 0 1
    outer loop
      vertex 4.36522 2.91674 6
      vertex 5.19668 3.47231 6
      vertex 4.41942 4.41942 6
    endloop
  endfacet
  facet normal 0 0 1
    outer loop
      vertex 5.19668 3.47231 6
      vertex 4.36522 2.91674 6
      vertex 4.85037 2.00909 6
    endloop
  endfacet
  facet normal 0 0 1
    outer loop
      vertex 4.41942 4.41942 6
      vertex 3.71231 3.71231 6
      vertex 4.36522 2.91674 6
    endloop
  endfacet
  facet normal 0 0 1
    outer loop
      vertex 3.47231 5.19668 6
      vertex 3.71231 3.71231 6
      vertex 4.41942 4.41942 6
    endloop
  endfacet
  facet normal 0 0 1
    outer loop
      vertex 3.47231 5.19668 6
      vertex 2.91674 4.36522 6
      vertex 3.71231 3.71231 6
    endloop
  endfacet
  facet normal 0 0 1
    outer loop
      vertex 2.39177 5.77425 6
      vertex 2.91674 4.36522 6
      vertex 3.47231 5.19668 6
    endloop
  endfacet
  facet normal 0 0 1
    outer loop
      vertex 2.39177 5.77425 6
      vertex 2.00909 4.85037 6
      vertex 2.91674 4.36522 6
    endloop
  endfacet
  facet normal 0 0 1
    outer loop
      vertex 1.21931 6.12991 6
      vertex 2.00909 4.85037 6
      vertex 2.39177 5.77425 6
    endloop
  endfacet
  facet normal 0 0 1
    outer loop
      vertex 1.21931 6.12991 6
      vertex 1.02422 5.14912 6
      vertex 2.00909 4.85037 6
    endloop
  endfacet
  facet normal 0 0 1
    outer loop
      vertex 0 6.25 6
      vertex 1.02422 5.14912 6
      vertex 1.21931 6.12991 6
    endloop
  endfacet
  facet normal 0 0 1
    outer loop
      vertex 0 6.25 6
      vertex 0 5.25 6
      vertex 1.02422 5.14912 6
    endloop
  endfacet
  facet normal 0 0 1
    outer loop
      vertex 0 6.25 6
      vertex -1.02422 5.14912 6
      vertex 0 5.25 6
    endloop
  endfacet
  facet normal -0 0 1
    outer loop
      vertex -1.21931 6.12991 6
      vertex -1.02422 5.14912 6
      vertex 0 6.25 6
    endloop
  endfacet
  facet normal 0 0 1
    outer loop
      vertex -1.21931 6.12991 6
      vertex -2.00909 4.85037 6
      vertex -1.02422 5.14912 6
    endloop
  endfacet
  facet normal -0 0 1
    outer loop
      vertex -2.39177 5.77425 6
      vertex -2.00909 4.85037 6
      vertex -1.21931 6.12991 6
    endloop
  endfacet
  facet normal 0 0 1
    outer loop
      vertex -2.39177 5.77425 6
      vertex -2.91674 4.36522 6
      vertex -2.00909 4.85037 6
    endloop
  endfacet
  facet normal -0 0 1
    outer loop
      vertex -3.47231 5.19668 6
      vertex -2.91674 4.36522 6
      vertex -2.39177 5.77425 6
    endloop
  endfacet
  facet normal 0 0 1
    outer loop
      vertex -3.47231 5.19668 6
      vertex -3.71231 3.71231 6
      vertex -2.91674 4.36522 6
    endloop
  endfacet
  facet normal -0 0 1
    outer loop
      vertex -4.41942 4.41942 6
      vertex -3.71231 3.71231 6
      vertex -3.47231 5.19668 6
    endloop
  endfacet
  facet normal 0 0 1
    outer loop
      vertex -3.71231 3.71231 6
      vertex -4.41942 4.41942 6
      vertex -4.36522 2.91674 6
    endloop
  endfacet
  facet normal -0 0 1
    outer loop
      vertex -5.19668 3.47231 6
      vertex -4.36522 2.91674 6
      vertex -4.41942 4.41942 6
    endloop
  endfacet
  facet normal 0 0 1
    outer loop
      vertex -4.36522 2.91674 6
      vertex -5.19668 3.47231 6
      vertex -4.85037 2.00909 6
    endloop
  endfacet
  facet normal -0 0 1
    outer loop
      vertex -5.77425 2.39177 6
      vertex -4.85037 2.00909 6
      vertex -5.19668 3.47231 6
    endloop
  endfacet
  facet normal 0 0 1
    outer loop
      vertex -4.85037 2.00909 6
      vertex -5.77425 2.39177 6
      vertex -5.14912 1.02422 6
    endloop
  endfacet
  facet normal -0 0 1
    outer loop
      vertex -6.12991 1.21931 6
      vertex -5.14912 1.02422 6
      vertex -5.77425 2.39177 6
    endloop
  endfacet
  facet normal 0 0 1
    outer loop
      vertex 6.12991 -1.21931 6
      vertex 5.14912 -1.02422 6
      vertex 5.77425 -2.39177 6
    endloop
  endfacet
  facet normal -0 0 1
    outer loop
      vertex 4.85037 -2.00909 6
      vertex 5.77425 -2.39177 6
      vertex 5.14912 -1.02422 6
    endloop
  endfacet
  facet normal 0 0 1
    outer loop
      vertex 5.77425 -2.39177 6
      vertex 4.85037 -2.00909 6
      vertex 5.19668 -3.47231 6
    endloop
  endfacet
  facet normal -0 0 1
    outer loop
      vertex 4.36522 -2.91674 6
      vertex 5.19668 -3.47231 6
      vertex 4.85037 -2.00909 6
    endloop
  endfacet
  facet normal 0 0 1
    outer loop
      vertex 5.19668 -3.47231 6
      vertex 4.36522 -2.91674 6
      vertex 4.41942 -4.41942 6
    endloop
  endfacet
  facet normal -0 0 1
    outer loop
      vertex 3.71231 -3.71231 6
      vertex 4.41942 -4.41942 6
      vertex 4.36522 -2.91674 6
    endloop
  endfacet
  facet normal 0 0 1
    outer loop
      vertex 3.71231 -3.71231 6
      vertex 3.47231 -5.19668 6
      vertex 4.41942 -4.41942 6
    endloop
  endfacet
  facet normal -0 0 1
    outer loop
      vertex 2.91674 -4.36522 6
      vertex 3.47231 -5.19668 6
      vertex 3.71231 -3.71231 6
    endloop
  endfacet
  facet normal 0 0 1
    outer loop
      vertex 2.91674 -4.36522 6
      vertex 2.39177 -5.77425 6
      vertex 3.47231 -5.19668 6
    endloop
  endfacet
  facet normal -0 0 1
    outer loop
      vertex 2.00909 -4.85037 6
      vertex 2.39177 -5.77425 6
      vertex 2.91674 -4.36522 6
    endloop
  endfacet
  facet normal 0 0 1
    outer loop
      vertex 2.00909 -4.85037 6
      vertex 1.21931 -6.12991 6
      vertex 2.39177 -5.77425 6
    endloop
  endfacet
  facet normal -0 0 1
    outer loop
      vertex 1.02422 -5.14912 6
      vertex 1.21931 -6.12991 6
      vertex 2.00909 -4.85037 6
    endloop
  endfacet
  facet normal -0 0 1
    outer loop
      vertex 0 -5.25 6
      vertex 1.21931 -6.12991 6
      vertex 1.02422 -5.14912 6
    endloop
  endfacet
  facet normal 0 0 1
    outer loop
      vertex 0 -5.25 6
      vertex 0 -6.25 6
      vertex 1.21931 -6.12991 6
    endloop
  endfacet
  facet normal 0 0 1
    outer loop
      vertex -1.02422 -5.14912 6
      vertex 0 -6.25 6
      vertex 0 -5.25 6
    endloop
  endfacet
  facet normal 0 0 1
    outer loop
      vertex -1.02422 -5.14912 6
      vertex -1.21931 -6.12991 6
      vertex 0 -6.25 6
    endloop
  endfacet
  facet normal 0 0 1
    outer loop
      vertex -2.00909 -4.85037 6
      vertex -1.21931 -6.12991 6
      vertex -1.02422 -5.14912 6
    endloop
  endfacet
  facet normal 0 0 1
    outer loop
      vertex -2.00909 -4.85037 6
      vertex -2.39177 -5.77425 6
      vertex -1.21931 -6.12991 6
    endloop
  endfacet
  facet normal 0 0 1
    outer loop
      vertex -2.91674 -4.36522 6
      vertex -2.39177 -5.77425 6
      vertex -2.00909 -4.85037 6
    endloop
  endfacet
  facet normal 0 0 1
    outer loop
      vertex -2.91674 -4.36522 6
      vertex -3.47231 -5.19668 6
      vertex -2.39177 -5.77425 6
    endloop
  endfacet
  facet normal 0 0 1
    outer loop
      vertex -3.71231 -3.71231 6
      vertex -3.47231 -5.19668 6
      vertex -2.91674 -4.36522 6
    endloop
  endfacet
  facet normal 0 0 1
    outer loop
      vertex -4.41942 -4.41942 6
      vertex -3.71231 -3.71231 6
      vertex -4.36522 -2.91674 6
    endloop
  endfacet
  facet normal 0 0 1
    outer loop
      vertex -3.71231 -3.71231 6
      vertex -4.41942 -4.41942 6
      vertex -3.47231 -5.19668 6
    endloop
  endfacet
  facet normal 0 0 1
    outer loop
      vertex -5.19668 -3.47231 6
      vertex -4.36522 -2.91674 6
      vertex -4.85037 -2.00909 6
    endloop
  endfacet
  facet normal 0 0 1
    outer loop
      vertex -5.77425 -2.39177 6
      vertex -4.85037 -2.00909 6
      vertex -5.14912 -1.02422 6
    endloop
  endfacet
  facet normal 0 0 1
    outer loop
      vertex -4.36522 -2.91674 6
      vertex -5.19668 -3.47231 6
      vertex -4.41942 -4.41942 6
    endloop
  endfacet
  facet normal 0 0 1
    outer loop
      vertex -6.12991 -1.21931 6
      vertex -5.14912 -1.02422 6
      vertex -5.25 0 6
    endloop
  endfacet
  facet normal 0 0 1
    outer loop
      vertex -5.14912 1.02422 6
      vertex -6.12991 1.21931 6
      vertex -5.25 0 6
    endloop
  endfacet
  facet normal 0 0 1
    outer loop
      vertex -4.85037 -2.00909 6
      vertex -5.77425 -2.39177 6
      vertex -5.19668 -3.47231 6
    endloop
  endfacet
  facet normal 0 0 1
    outer loop
      vertex -6.25 0 6
      vertex -5.25 0 6
      vertex -6.12991 1.21931 6
    endloop
  endfacet
  facet normal 0 0 1
    outer loop
      vertex -5.14912 -1.02422 6
      vertex -6.12991 -1.21931 6
      vertex -5.77425 -2.39177 6
    endloop
  endfacet
  facet normal 0 0 1
    outer loop
      vertex -5.25 0 6
      vertex -6.25 0 6
      vertex -6.12991 -1.21931 6
    endloop
  endfacet
  facet normal -0.95694 0.290285 0
    outer loop
      vertex -6.12991 1.21931 0
      vertex -5.77425 2.39177 6
      vertex -5.77425 2.39177 0
    endloop
  endfacet
  facet normal -0.95694 0.290285 0
    outer loop
      vertex -5.77425 2.39177 6
      vertex -6.12991 1.21931 0
      vertex -6.12991 1.21931 6
    endloop
  endfacet
  facet normal 0.773011 -0.634393 0
    outer loop
      vertex 4.41942 -4.41942 6
      vertex 5.19668 -3.47231 0
      vertex 5.19668 -3.47231 6
    endloop
  endfacet
  facet normal 0.773011 -0.634393 0
    outer loop
      vertex 5.19668 -3.47231 0
      vertex 4.41942 -4.41942 6
      vertex 4.41942 -4.41942 0
    endloop
  endfacet
  facet normal -0.471396 -0.881921 0
    outer loop
      vertex -3.47231 -5.19668 0
      vertex -2.39177 -5.77425 6
      vertex -3.47231 -5.19668 6
    endloop
  endfacet
  facet normal -0.471396 -0.881921 -0
    outer loop
      vertex -2.39177 -5.77425 6
      vertex -3.47231 -5.19668 0
      vertex -2.39177 -5.77425 0
    endloop
  endfacet
  facet normal -0.95694 -0.290285 0
    outer loop
      vertex -5.77425 -2.39177 0
      vertex -6.12991 -1.21931 6
      vertex -6.12991 -1.21931 0
    endloop
  endfacet
  facet normal -0.95694 -0.290285 0
    outer loop
      vertex -6.12991 -1.21931 6
      vertex -5.77425 -2.39177 0
      vertex -5.77425 -2.39177 6
    endloop
  endfacet
  facet normal -0.773011 -0.634393 0
    outer loop
      vertex -4.41942 -4.41942 0
      vertex -5.19668 -3.47231 6
      vertex -5.19668 -3.47231 0
    endloop
  endfacet
  facet normal -0.773011 -0.634393 0
    outer loop
      vertex -5.19668 -3.47231 6
      vertex -4.41942 -4.41942 0
      vertex -4.41942 -4.41942 6
    endloop
  endfacet
  facet normal 0.881921 -0.471396 0
    outer loop
      vertex 5.19668 -3.47231 6
      vertex 5.77425 -2.39177 0
      vertex 5.77425 -2.39177 6
    endloop
  endfacet
  facet normal 0.881921 -0.471396 0
    outer loop
      vertex 5.77425 -2.39177 0
      vertex 5.19668 -3.47231 6
      vertex 5.19668 -3.47231 0
    endloop
  endfacet
  facet normal 0.95694 -0.290285 0
    outer loop
      vertex 5.77425 -2.39177 6
      vertex 6.12991 -1.21931 0
      vertex 6.12991 -1.21931 6
    endloop
  endfacet
  facet normal 0.95694 -0.290285 0
    outer loop
      vertex 6.12991 -1.21931 0
      vertex 5.77425 -2.39177 6
      vertex 5.77425 -2.39177 0
    endloop
  endfacet
  facet normal -0.471396 -0.881922 0
    outer loop
      vertex 2.00909 4.85037 0
      vertex 2.91674 4.36522 6
      vertex 2.00909 4.85037 6
    endloop
  endfacet
  facet normal -0.471396 -0.881922 -0
    outer loop
      vertex 2.91674 4.36522 6
      vertex 2.00909 4.85037 0
      vertex 2.91674 4.36522 0
    endloop
  endfacet
  facet normal 0.95694 -0.290285 0
    outer loop
      vertex -5.14912 1.02422 6
      vertex -4.85037 2.00909 0
      vertex -4.85037 2.00909 6
    endloop
  endfacet
  facet normal 0.95694 -0.290285 0
    outer loop
      vertex -4.85037 2.00909 0
      vertex -5.14912 1.02422 6
      vertex -5.14912 1.02422 0
    endloop
  endfacet
  facet normal -0.995185 0.0980177 0
    outer loop
      vertex 5.14912 -1.02422 0
      vertex 5.25 0 6
      vertex 5.25 0 0
    endloop
  endfacet
  facet normal -0.995185 0.0980177 0
    outer loop
      vertex 5.25 0 6
      vertex 5.14912 -1.02422 0
      vertex 5.14912 -1.02422 6
    endloop
  endfacet
  facet normal 0.290285 0.95694 -0
    outer loop
      vertex -1.02422 -5.14912 0
      vertex -2.00909 -4.85037 6
      vertex -1.02422 -5.14912 6
    endloop
  endfacet
  facet normal 0.290285 0.95694 0
    outer loop
      vertex -2.00909 -4.85037 6
      vertex -1.02422 -5.14912 0
      vertex -2.00909 -4.85037 0
    endloop
  endfacet
  facet normal -0.0980177 -0.995185 0
    outer loop
      vertex 0 5.25 0
      vertex 1.02422 5.14912 6
      vertex 0 5.25 6
    endloop
  endfacet
  facet normal -0.0980177 -0.995185 -0
    outer loop
      vertex 1.02422 5.14912 6
      vertex 0 5.25 0
      vertex 1.02422 5.14912 0
    endloop
  endfacet
  facet normal 0.290285 -0.95694 0
    outer loop
      vertex -2.00909 4.85037 0
      vertex -1.02422 5.14912 6
      vertex -2.00909 4.85037 6
    endloop
  endfacet
  facet normal 0.290285 -0.95694 0
    outer loop
      vertex -1.02422 5.14912 6
      vertex -2.00909 4.85037 0
      vertex -1.02422 5.14912 0
    endloop
  endfacet
  facet normal 0.881922 -0.471396 0
    outer loop
      vertex -4.85037 2.00909 6
      vertex -4.36522 2.91674 0
      vertex -4.36522 2.91674 6
    endloop
  endfacet
  facet normal 0.881922 -0.471396 0
    outer loop
      vertex -4.36522 2.91674 0
      vertex -4.85037 2.00909 6
      vertex -4.85037 2.00909 0
    endloop
  endfacet
  facet normal 0.881922 0.471396 0
    outer loop
      vertex -4.36522 -2.91674 6
      vertex -4.85037 -2.00909 0
      vertex -4.85037 -2.00909 6
    endloop
  endfacet
  facet normal 0.881922 0.471396 0
    outer loop
      vertex -4.85037 -2.00909 0
      vertex -4.36522 -2.91674 6
      vertex -4.36522 -2.91674 0
    endloop
  endfacet
  facet normal -0.95694 -0.290285 0
    outer loop
      vertex 5.14912 1.02422 0
      vertex 4.85037 2.00909 6
      vertex 4.85037 2.00909 0
    endloop
  endfacet
  facet normal -0.95694 -0.290285 0
    outer loop
      vertex 4.85037 2.00909 6
      vertex 5.14912 1.02422 0
      vertex 5.14912 1.02422 6
    endloop
  endfacet
  facet normal -0.881922 -0.471396 0
    outer loop
      vertex 4.85037 2.00909 0
      vertex 4.36522 2.91674 6
      vertex 4.36522 2.91674 0
    endloop
  endfacet
  facet normal -0.881922 -0.471396 0
    outer loop
      vertex 4.36522 2.91674 6
      vertex 4.85037 2.00909 0
      vertex 4.85037 2.00909 6
    endloop
  endfacet
  facet normal -0.77301 -0.634394 0
    outer loop
      vertex 4.36522 2.91674 0
      vertex 3.71231 3.71231 6
      vertex 3.71231 3.71231 0
    endloop
  endfacet
  facet normal -0.77301 -0.634394 0
    outer loop
      vertex 3.71231 3.71231 6
      vertex 4.36522 2.91674 0
      vertex 4.36522 2.91674 6
    endloop
  endfacet
  facet normal -0.634394 -0.77301 0
    outer loop
      vertex 2.91674 4.36522 0
      vertex 3.71231 3.71231 6
      vertex 2.91674 4.36522 6
    endloop
  endfacet
  facet normal -0.634394 -0.77301 -0
    outer loop
      vertex 3.71231 3.71231 6
      vertex 2.91674 4.36522 0
      vertex 3.71231 3.71231 0
    endloop
  endfacet
  facet normal -0.290285 -0.95694 0
    outer loop
      vertex 1.02422 5.14912 0
      vertex 2.00909 4.85037 6
      vertex 1.02422 5.14912 6
    endloop
  endfacet
  facet normal -0.290285 -0.95694 -0
    outer loop
      vertex 2.00909 4.85037 6
      vertex 1.02422 5.14912 0
      vertex 2.00909 4.85037 0
    endloop
  endfacet
  facet normal 0.995185 -0.0980177 0
    outer loop
      vertex -5.25 0 6
      vertex -5.14912 1.02422 0
      vertex -5.14912 1.02422 6
    endloop
  endfacet
  facet normal 0.995185 -0.0980177 0
    outer loop
      vertex -5.14912 1.02422 0
      vertex -5.25 0 6
      vertex -5.25 0 0
    endloop
  endfacet
  facet normal 0.77301 -0.634394 0
    outer loop
      vertex -4.36522 2.91674 6
      vertex -3.71231 3.71231 0
      vertex -3.71231 3.71231 6
    endloop
  endfacet
  facet normal 0.77301 -0.634394 0
    outer loop
      vertex -3.71231 3.71231 0
      vertex -4.36522 2.91674 6
      vertex -4.36522 2.91674 0
    endloop
  endfacet
  facet normal 0.471396 -0.881922 0
    outer loop
      vertex -2.91674 4.36522 0
      vertex -2.00909 4.85037 6
      vertex -2.91674 4.36522 6
    endloop
  endfacet
  facet normal 0.471396 -0.881922 0
    outer loop
      vertex -2.00909 4.85037 6
      vertex -2.91674 4.36522 0
      vertex -2.00909 4.85037 0
    endloop
  endfacet
  facet normal 0.0980177 -0.995185 0
    outer loop
      vertex -1.02422 5.14912 0
      vertex 0 5.25 6
      vertex -1.02422 5.14912 6
    endloop
  endfacet
  facet normal 0.0980177 -0.995185 0
    outer loop
      vertex 0 5.25 6
      vertex -1.02422 5.14912 0
      vertex 0 5.25 0
    endloop
  endfacet
  facet normal 0.634394 -0.77301 0
    outer loop
      vertex -3.71231 3.71231 0
      vertex -2.91674 4.36522 6
      vertex -3.71231 3.71231 6
    endloop
  endfacet
  facet normal 0.634394 -0.77301 0
    outer loop
      vertex -2.91674 4.36522 6
      vertex -3.71231 3.71231 0
      vertex -2.91674 4.36522 0
    endloop
  endfacet
  facet normal -0.995185 -0.0980177 0
    outer loop
      vertex 5.25 0 0
      vertex 5.14912 1.02422 6
      vertex 5.14912 1.02422 0
    endloop
  endfacet
  facet normal -0.995185 -0.0980177 0
    outer loop
      vertex 5.14912 1.02422 6
      vertex 5.25 0 0
      vertex 5.25 0 6
    endloop
  endfacet
  facet normal -0.0980177 0.995185 0
    outer loop
      vertex 1.02422 -5.14912 0
      vertex 0 -5.25 6
      vertex 1.02422 -5.14912 6
    endloop
  endfacet
  facet normal -0.0980177 0.995185 0
    outer loop
      vertex 0 -5.25 6
      vertex 1.02422 -5.14912 0
      vertex 0 -5.25 0
    endloop
  endfacet
  facet normal -0.290285 0.95694 0
    outer loop
      vertex 2.00909 -4.85037 0
      vertex 1.02422 -5.14912 6
      vertex 2.00909 -4.85037 6
    endloop
  endfacet
  facet normal -0.290285 0.95694 0
    outer loop
      vertex 1.02422 -5.14912 6
      vertex 2.00909 -4.85037 0
      vertex 1.02422 -5.14912 0
    endloop
  endfacet
  facet normal -0.634394 0.77301 0
    outer loop
      vertex 3.71231 -3.71231 0
      vertex 2.91674 -4.36522 6
      vertex 3.71231 -3.71231 6
    endloop
  endfacet
  facet normal -0.634394 0.77301 0
    outer loop
      vertex 2.91674 -4.36522 6
      vertex 3.71231 -3.71231 0
      vertex 2.91674 -4.36522 0
    endloop
  endfacet
  facet normal -0.881922 0.471396 0
    outer loop
      vertex 4.36522 -2.91674 0
      vertex 4.85037 -2.00909 6
      vertex 4.85037 -2.00909 0
    endloop
  endfacet
  facet normal -0.881922 0.471396 0
    outer loop
      vertex 4.85037 -2.00909 6
      vertex 4.36522 -2.91674 0
      vertex 4.36522 -2.91674 6
    endloop
  endfacet
  facet normal 0.0980177 0.995185 -0
    outer loop
      vertex 0 -5.25 0
      vertex -1.02422 -5.14912 6
      vertex 0 -5.25 6
    endloop
  endfacet
  facet normal 0.0980177 0.995185 0
    outer loop
      vertex -1.02422 -5.14912 6
      vertex 0 -5.25 0
      vertex -1.02422 -5.14912 0
    endloop
  endfacet
  facet normal 0.471396 0.881922 -0
    outer loop
      vertex -2.00909 -4.85037 0
      vertex -2.91674 -4.36522 6
      vertex -2.00909 -4.85037 6
    endloop
  endfacet
  facet normal 0.471396 0.881922 0
    outer loop
      vertex -2.91674 -4.36522 6
      vertex -2.00909 -4.85037 0
      vertex -2.91674 -4.36522 0
    endloop
  endfacet
  facet normal 0.634394 0.77301 -0
    outer loop
      vertex -2.91674 -4.36522 0
      vertex -3.71231 -3.71231 6
      vertex -2.91674 -4.36522 6
    endloop
  endfacet
  facet normal 0.634394 0.77301 0
    outer loop
      vertex -3.71231 -3.71231 6
      vertex -2.91674 -4.36522 0
      vertex -3.71231 -3.71231 0
    endloop
  endfacet
  facet normal 0.995185 0.0980177 0
    outer loop
      vertex -5.14912 -1.02422 6
      vertex -5.25 0 0
      vertex -5.25 0 6
    endloop
  endfacet
  facet normal 0.995185 0.0980177 0
    outer loop
      vertex -5.25 0 0
      vertex -5.14912 -1.02422 6
      vertex -5.14912 -1.02422 0
    endloop
  endfacet
  facet normal -0.77301 0.634394 0
    outer loop
      vertex 3.71231 -3.71231 0
      vertex 4.36522 -2.91674 6
      vertex 4.36522 -2.91674 0
    endloop
  endfacet
  facet normal -0.77301 0.634394 0
    outer loop
      vertex 4.36522 -2.91674 6
      vertex 3.71231 -3.71231 0
      vertex 3.71231 -3.71231 6
    endloop
  endfacet
  facet normal -0.95694 0.290285 0
    outer loop
      vertex 4.85037 -2.00909 0
      vertex 5.14912 -1.02422 6
      vertex 5.14912 -1.02422 0
    endloop
  endfacet
  facet normal -0.95694 0.290285 0
    outer loop
      vertex 5.14912 -1.02422 6
      vertex 4.85037 -2.00909 0
      vertex 4.85037 -2.00909 6
    endloop
  endfacet
  facet normal 0.95694 0.290285 0
    outer loop
      vertex -4.85037 -2.00909 6
      vertex -5.14912 -1.02422 0
      vertex -5.14912 -1.02422 6
    endloop
  endfacet
  facet normal 0.95694 0.290285 0
    outer loop
      vertex -5.14912 -1.02422 0
      vertex -4.85037 -2.00909 6
      vertex -4.85037 -2.00909 0
    endloop
  endfacet
  facet normal 0.77301 0.634394 0
    outer loop
      vertex -3.71231 -3.71231 6
      vertex -4.36522 -2.91674 0
      vertex -4.36522 -2.91674 6
    endloop
  endfacet
  facet normal 0.77301 0.634394 0
    outer loop
      vertex -4.36522 -2.91674 0
      vertex -3.71231 -3.71231 6
      vertex -3.71231 -3.71231 0
    endloop
  endfacet
  facet normal -0.471396 0.881922 0
    outer loop
      vertex 2.91674 -4.36522 0
      vertex 2.00909 -4.85037 6
      vertex 2.91674 -4.36522 6
    endloop
  endfacet
  facet normal -0.471396 0.881922 0
    outer loop
      vertex 2.00909 -4.85037 6
      vertex 2.91674 -4.36522 0
      vertex 2.00909 -4.85037 0
    endloop
  endfacet
endsolid OpenSCAD_Model
