solid OpenSCAD_Model
  facet normal -0.866025 -0.5 0
    outer loop
      vertex 5.65 4 0
      vertex 4.825 5.42894 2
      vertex 4.825 5.42894 0
    endloop
  endfacet
  facet normal -0.866025 -0.5 0
    outer loop
      vertex 4.825 5.42894 2
      vertex 5.65 4 0
      vertex 5.65 4 2
    endloop
  endfacet
  facet normal 0.866025 -0.5 0
    outer loop
      vertex 2.35 4 2
      vertex 3.175 5.42894 0
      vertex 3.175 5.42894 2
    endloop
  endfacet
  facet normal 0.866025 -0.5 0
    outer loop
      vertex 3.175 5.42894 0
      vertex 2.35 4 2
      vertex 2.35 4 0
    endloop
  endfacet
  facet normal 0 -1 0
    outer loop
      vertex 3.175 5.42894 0
      vertex 4.825 5.42894 2
      vertex 3.175 5.42894 2
    endloop
  endfacet
  facet normal 0 -1 -0
    outer loop
      vertex 4.825 5.42894 2
      vertex 3.175 5.42894 0
      vertex 4.825 5.42894 0
    endloop
  endfacet
  facet normal 0 1 -0
    outer loop
      vertex 4.825 2.57106 0
      vertex 3.175 2.57106 2
      vertex 4.825 2.57106 2
    endloop
  endfacet
  facet normal 0 1 0
    outer loop
      vertex 3.175 2.57106 2
      vertex 4.825 2.57106 0
      vertex 3.175 2.57106 0
    endloop
  endfacet
  facet normal 0.866025 0.5 0
    outer loop
      vertex 3.175 2.57106 2
      vertex 2.35 4 0
      vertex 2.35 4 2
    endloop
  endfacet
  facet normal 0.866025 0.5 0
    outer loop
      vertex 2.35 4 0
      vertex 3.175 2.57106 2
      vertex 3.175 2.57106 0
    endloop
  endfacet
  facet normal -0.866025 0.5 0
    outer loop
      vertex 4.825 2.57106 0
      vertex 5.65 4 2
      vertex 5.65 4 0
    endloop
  endfacet
  facet normal -0.866025 0.5 0
    outer loop
      vertex 5.65 4 2
      vertex 4.825 2.57106 0
      vertex 4.825 2.57106 2
    endloop
  endfacet
  facet normal -0.951056 -0.309017 0
    outer loop
      vertex 7 4 2
      vertex 6.42705 5.76336 17
      vertex 6.42705 5.76336 2
    endloop
  endfacet
  facet normal -0.951056 -0.309017 0
    outer loop
      vertex 6.42705 5.76336 17
      vertex 7 4 2
      vertex 7 4 17
    endloop
  endfacet
  facet normal 0.951056 -0.309017 0
    outer loop
      vertex 1 4 17
      vertex 1.57295 5.76336 2
      vertex 1.57295 5.76336 17
    endloop
  endfacet
  facet normal 0.951056 -0.309017 0
    outer loop
      vertex 1.57295 5.76336 2
      vertex 1 4 17
      vertex 1 4 2
    endloop
  endfacet
  facet normal 0 -1 0
    outer loop
      vertex 3.07295 6.85317 2
      vertex 4.92705 6.85317 17
      vertex 3.07295 6.85317 17
    endloop
  endfacet
  facet normal 0 -1 -0
    outer loop
      vertex 4.92705 6.85317 17
      vertex 3.07295 6.85317 2
      vertex 4.92705 6.85317 2
    endloop
  endfacet
  facet normal -0.587785 -0.809017 0
    outer loop
      vertex 4.92705 6.85317 2
      vertex 6.42705 5.76336 17
      vertex 4.92705 6.85317 17
    endloop
  endfacet
  facet normal -0.587785 -0.809017 -0
    outer loop
      vertex 6.42705 5.76336 17
      vertex 4.92705 6.85317 2
      vertex 6.42705 5.76336 2
    endloop
  endfacet
  facet normal 0.587785 -0.809017 0
    outer loop
      vertex 1.57295 5.76336 2
      vertex 3.07295 6.85317 17
      vertex 1.57295 5.76336 17
    endloop
  endfacet
  facet normal 0.587785 -0.809017 0
    outer loop
      vertex 3.07295 6.85317 17
      vertex 1.57295 5.76336 2
      vertex 3.07295 6.85317 2
    endloop
  endfacet
  facet normal -0.951056 0.309017 0
    outer loop
      vertex 6.42705 2.23664 2
      vertex 7 4 17
      vertex 7 4 2
    endloop
  endfacet
  facet normal -0.951056 0.309017 0
    outer loop
      vertex 7 4 17
      vertex 6.42705 2.23664 2
      vertex 6.42705 2.23664 17
    endloop
  endfacet
  facet normal 0.951056 0.309017 0
    outer loop
      vertex 1.57295 2.23664 17
      vertex 1 4 2
      vertex 1 4 17
    endloop
  endfacet
  facet normal 0.951056 0.309017 0
    outer loop
      vertex 1 4 2
      vertex 1.57295 2.23664 17
      vertex 1.57295 2.23664 2
    endloop
  endfacet
  facet normal 0 1 -0
    outer loop
      vertex 4.92705 1.14683 2
      vertex 3.07295 1.14683 17
      vertex 4.92705 1.14683 17
    endloop
  endfacet
  facet normal 0 1 0
    outer loop
      vertex 3.07295 1.14683 17
      vertex 4.92705 1.14683 2
      vertex 3.07295 1.14683 2
    endloop
  endfacet
  facet normal -0.587785 0.809017 0
    outer loop
      vertex 6.42705 2.23664 2
      vertex 4.92705 1.14683 17
      vertex 6.42705 2.23664 17
    endloop
  endfacet
  facet normal -0.587785 0.809017 0
    outer loop
      vertex 4.92705 1.14683 17
      vertex 6.42705 2.23664 2
      vertex 4.92705 1.14683 2
    endloop
  endfacet
  facet normal 0 0 1
    outer loop
      vertex 5.65 4 2
      vertex 7 4 2
      vertex 6.42705 5.76336 2
    endloop
  endfacet
  facet normal 0 0 1
    outer loop
      vertex 7 4 2
      vertex 5.65 4 2
      vertex 6.42705 2.23664 2
    endloop
  endfacet
  facet normal 0 0 1
    outer loop
      vertex 4.825 5.42894 2
      vertex 6.42705 5.76336 2
      vertex 4.92705 6.85317 2
    endloop
  endfacet
  facet normal 0 0 1
    outer loop
      vertex 6.42705 5.76336 2
      vertex 4.825 5.42894 2
      vertex 5.65 4 2
    endloop
  endfacet
  facet normal 0 0 1
    outer loop
      vertex 4.92705 6.85317 2
      vertex 3.175 5.42894 2
      vertex 4.825 5.42894 2
    endloop
  endfacet
  facet normal -0 0 1
    outer loop
      vertex 3.07295 6.85317 2
      vertex 3.175 5.42894 2
      vertex 4.92705 6.85317 2
    endloop
  endfacet
  facet normal -0 0 1
    outer loop
      vertex 1.57295 5.76336 2
      vertex 3.175 5.42894 2
      vertex 3.07295 6.85317 2
    endloop
  endfacet
  facet normal 0 0 1
    outer loop
      vertex 3.175 5.42894 2
      vertex 1.57295 5.76336 2
      vertex 2.35 4 2
    endloop
  endfacet
  facet normal -0 0 1
    outer loop
      vertex 4.825 2.57106 2
      vertex 6.42705 2.23664 2
      vertex 5.65 4 2
    endloop
  endfacet
  facet normal 0 0 1
    outer loop
      vertex 6.42705 2.23664 2
      vertex 4.825 2.57106 2
      vertex 4.92705 1.14683 2
    endloop
  endfacet
  facet normal -0 0 1
    outer loop
      vertex 3.175 2.57106 2
      vertex 4.92705 1.14683 2
      vertex 4.825 2.57106 2
    endloop
  endfacet
  facet normal 0 0 1
    outer loop
      vertex 3.175 2.57106 2
      vertex 3.07295 1.14683 2
      vertex 4.92705 1.14683 2
    endloop
  endfacet
  facet normal 0 0 1
    outer loop
      vertex 1.57295 2.23664 2
      vertex 3.175 2.57106 2
      vertex 2.35 4 2
    endloop
  endfacet
  facet normal 0 0 1
    outer loop
      vertex 1 4 2
      vertex 2.35 4 2
      vertex 1.57295 5.76336 2
    endloop
  endfacet
  facet normal 0 0 1
    outer loop
      vertex 3.175 2.57106 2
      vertex 1.57295 2.23664 2
      vertex 3.07295 1.14683 2
    endloop
  endfacet
  facet normal 0 0 1
    outer loop
      vertex 2.35 4 2
      vertex 1 4 2
      vertex 1.57295 2.23664 2
    endloop
  endfacet
  facet normal 0.587785 0.809017 -0
    outer loop
      vertex 3.07295 1.14683 2
      vertex 1.57295 2.23664 17
      vertex 3.07295 1.14683 17
    endloop
  endfacet
  facet normal 0.587785 0.809017 0
    outer loop
      vertex 1.57295 2.23664 17
      vertex 3.07295 1.14683 2
      vertex 1.57295 2.23664 2
    endloop
  endfacet
  facet normal -0.866026 -0.5 0
    outer loop
      vertex 19.7921 4 0
      vertex 18.9671 5.42894 2
      vertex 18.9671 5.42894 0
    endloop
  endfacet
  facet normal -0.866026 -0.5 0
    outer loop
      vertex 18.9671 5.42894 2
      vertex 19.7921 4 0
      vertex 19.7921 4 2
    endloop
  endfacet
  facet normal 0.866025 -0.5 0
    outer loop
      vertex 16.4921 4 2
      vertex 17.3171 5.42894 0
      vertex 17.3171 5.42894 2
    endloop
  endfacet
  facet normal 0.866025 -0.5 0
    outer loop
      vertex 17.3171 5.42894 0
      vertex 16.4921 4 2
      vertex 16.4921 4 0
    endloop
  endfacet
  facet normal 0 -1 0
    outer loop
      vertex 17.3171 5.42894 0
      vertex 18.9671 5.42894 2
      vertex 17.3171 5.42894 2
    endloop
  endfacet
  facet normal 0 -1 -0
    outer loop
      vertex 18.9671 5.42894 2
      vertex 17.3171 5.42894 0
      vertex 18.9671 5.42894 0
    endloop
  endfacet
  facet normal 0 1 -0
    outer loop
      vertex 18.9671 2.57106 0
      vertex 17.3171 2.57106 2
      vertex 18.9671 2.57106 2
    endloop
  endfacet
  facet normal 0 1 0
    outer loop
      vertex 17.3171 2.57106 2
      vertex 18.9671 2.57106 0
      vertex 17.3171 2.57106 0
    endloop
  endfacet
  facet normal 0.866025 0.5 0
    outer loop
      vertex 17.3171 2.57106 2
      vertex 16.4921 4 0
      vertex 16.4921 4 2
    endloop
  endfacet
  facet normal 0.866025 0.5 0
    outer loop
      vertex 16.4921 4 0
      vertex 17.3171 2.57106 2
      vertex 17.3171 2.57106 0
    endloop
  endfacet
  facet normal -0.866026 0.5 0
    outer loop
      vertex 18.9671 2.57106 0
      vertex 19.7921 4 2
      vertex 19.7921 4 0
    endloop
  endfacet
  facet normal -0.866026 0.5 0
    outer loop
      vertex 19.7921 4 2
      vertex 18.9671 2.57106 0
      vertex 18.9671 2.57106 2
    endloop
  endfacet
  facet normal -0.951057 -0.309017 0
    outer loop
      vertex 21.1421 4 2
      vertex 20.5692 5.76336 17
      vertex 20.5692 5.76336 2
    endloop
  endfacet
  facet normal -0.951057 -0.309017 0
    outer loop
      vertex 20.5692 5.76336 17
      vertex 21.1421 4 2
      vertex 21.1421 4 17
    endloop
  endfacet
  facet normal 0.951056 -0.309017 0
    outer loop
      vertex 15.1421 4 17
      vertex 15.7151 5.76336 2
      vertex 15.7151 5.76336 17
    endloop
  endfacet
  facet normal 0.951056 -0.309017 0
    outer loop
      vertex 15.7151 5.76336 2
      vertex 15.1421 4 17
      vertex 15.1421 4 2
    endloop
  endfacet
  facet normal 0 -1 0
    outer loop
      vertex 17.2151 6.85317 2
      vertex 19.0692 6.85317 17
      vertex 17.2151 6.85317 17
    endloop
  endfacet
  facet normal 0 -1 -0
    outer loop
      vertex 19.0692 6.85317 17
      vertex 17.2151 6.85317 2
      vertex 19.0692 6.85317 2
    endloop
  endfacet
  facet normal -0.587785 -0.809017 0
    outer loop
      vertex 19.0692 6.85317 2
      vertex 20.5692 5.76336 17
      vertex 19.0692 6.85317 17
    endloop
  endfacet
  facet normal -0.587785 -0.809017 -0
    outer loop
      vertex 20.5692 5.76336 17
      vertex 19.0692 6.85317 2
      vertex 20.5692 5.76336 2
    endloop
  endfacet
  facet normal 0.587785 -0.809017 0
    outer loop
      vertex 15.7151 5.76336 2
      vertex 17.2151 6.85317 17
      vertex 15.7151 5.76336 17
    endloop
  endfacet
  facet normal 0.587785 -0.809017 0
    outer loop
      vertex 17.2151 6.85317 17
      vertex 15.7151 5.76336 2
      vertex 17.2151 6.85317 2
    endloop
  endfacet
  facet normal -0.951057 0.309017 0
    outer loop
      vertex 20.5692 2.23664 2
      vertex 21.1421 4 17
      vertex 21.1421 4 2
    endloop
  endfacet
  facet normal -0.951057 0.309017 0
    outer loop
      vertex 21.1421 4 17
      vertex 20.5692 2.23664 2
      vertex 20.5692 2.23664 17
    endloop
  endfacet
  facet normal 0.951056 0.309017 0
    outer loop
      vertex 15.7151 2.23664 17
      vertex 15.1421 4 2
      vertex 15.1421 4 17
    endloop
  endfacet
  facet normal 0.951056 0.309017 0
    outer loop
      vertex 15.1421 4 2
      vertex 15.7151 2.23664 17
      vertex 15.7151 2.23664 2
    endloop
  endfacet
  facet normal 0 1 -0
    outer loop
      vertex 19.0692 1.14683 2
      vertex 17.2151 1.14683 17
      vertex 19.0692 1.14683 17
    endloop
  endfacet
  facet normal 0 1 0
    outer loop
      vertex 17.2151 1.14683 17
      vertex 19.0692 1.14683 2
      vertex 17.2151 1.14683 2
    endloop
  endfacet
  facet normal -0.587785 0.809017 0
    outer loop
      vertex 20.5692 2.23664 2
      vertex 19.0692 1.14683 17
      vertex 20.5692 2.23664 17
    endloop
  endfacet
  facet normal -0.587785 0.809017 0
    outer loop
      vertex 19.0692 1.14683 17
      vertex 20.5692 2.23664 2
      vertex 19.0692 1.14683 2
    endloop
  endfacet
  facet normal 0 0 1
    outer loop
      vertex 19.7921 4 2
      vertex 21.1421 4 2
      vertex 20.5692 5.76336 2
    endloop
  endfacet
  facet normal 0 0 1
    outer loop
      vertex 21.1421 4 2
      vertex 19.7921 4 2
      vertex 20.5692 2.23664 2
    endloop
  endfacet
  facet normal 0 0 1
    outer loop
      vertex 18.9671 5.42894 2
      vertex 20.5692 5.76336 2
      vertex 19.0692 6.85317 2
    endloop
  endfacet
  facet normal 0 0 1
    outer loop
      vertex 20.5692 5.76336 2
      vertex 18.9671 5.42894 2
      vertex 19.7921 4 2
    endloop
  endfacet
  facet normal 0 0 1
    outer loop
      vertex 19.0692 6.85317 2
      vertex 17.3171 5.42894 2
      vertex 18.9671 5.42894 2
    endloop
  endfacet
  facet normal -0 0 1
    outer loop
      vertex 17.2151 6.85317 2
      vertex 17.3171 5.42894 2
      vertex 19.0692 6.85317 2
    endloop
  endfacet
  facet normal -0 0 1
    outer loop
      vertex 15.7151 5.76336 2
      vertex 17.3171 5.42894 2
      vertex 17.2151 6.85317 2
    endloop
  endfacet
  facet normal 0 0 1
    outer loop
      vertex 17.3171 5.42894 2
      vertex 15.7151 5.76336 2
      vertex 16.4921 4 2
    endloop
  endfacet
  facet normal -0 0 1
    outer loop
      vertex 18.9671 2.57106 2
      vertex 20.5692 2.23664 2
      vertex 19.7921 4 2
    endloop
  endfacet
  facet normal 0 0 1
    outer loop
      vertex 20.5692 2.23664 2
      vertex 18.9671 2.57106 2
      vertex 19.0692 1.14683 2
    endloop
  endfacet
  facet normal -0 0 1
    outer loop
      vertex 17.3171 2.57106 2
      vertex 19.0692 1.14683 2
      vertex 18.9671 2.57106 2
    endloop
  endfacet
  facet normal 0 0 1
    outer loop
      vertex 17.3171 2.57106 2
      vertex 17.2151 1.14683 2
      vertex 19.0692 1.14683 2
    endloop
  endfacet
  facet normal 0 0 1
    outer loop
      vertex 15.7151 2.23664 2
      vertex 17.3171 2.57106 2
      vertex 16.4921 4 2
    endloop
  endfacet
  facet normal 0 0 1
    outer loop
      vertex 15.1421 4 2
      vertex 16.4921 4 2
      vertex 15.7151 5.76336 2
    endloop
  endfacet
  facet normal 0 0 1
    outer loop
      vertex 17.3171 2.57106 2
      vertex 15.7151 2.23664 2
      vertex 17.2151 1.14683 2
    endloop
  endfacet
  facet normal 0 0 1
    outer loop
      vertex 16.4921 4 2
      vertex 15.1421 4 2
      vertex 15.7151 2.23664 2
    endloop
  endfacet
  facet normal 0.587785 0.809017 -0
    outer loop
      vertex 17.2151 1.14683 2
      vertex 15.7151 2.23664 17
      vertex 17.2151 1.14683 17
    endloop
  endfacet
  facet normal 0.587785 0.809017 0
    outer loop
      vertex 15.7151 2.23664 17
      vertex 17.2151 1.14683 2
      vertex 15.7151 2.23664 2
    endloop
  endfacet
  facet normal -1 0 0
    outer loop
      vertex 0 0 0
      vertex 0 8 17
      vertex 0 8 0
    endloop
  endfacet
  facet normal -1 -0 0
    outer loop
      vertex 0 8 17
      vertex 0 0 0
      vertex 0 0 17
    endloop
  endfacet
  facet normal 0 0 1
    outer loop
      vertex 22.1421 8 17
      vertex 21.1421 4 17
      vertex 22.1421 0 17
    endloop
  endfacet
  facet normal 0 0 1
    outer loop
      vertex 22.1421 8 17
      vertex 20.5692 5.76336 17
      vertex 21.1421 4 17
    endloop
  endfacet
  facet normal 0 0 1
    outer loop
      vertex 22.1421 8 17
      vertex 19.0692 6.85317 17
      vertex 20.5692 5.76336 17
    endloop
  endfacet
  facet normal 0 0 1
    outer loop
      vertex 22.1421 8 17
      vertex 17.2151 6.85317 17
      vertex 19.0692 6.85317 17
    endloop
  endfacet
  facet normal 0 0 1
    outer loop
      vertex 15.7151 5.76336 17
      vertex 7 4 17
      vertex 15.1421 4 17
    endloop
  endfacet
  facet normal 0 0 1
    outer loop
      vertex 6.42705 5.76336 17
      vertex 15.7151 5.76336 17
      vertex 17.2151 6.85317 17
    endloop
  endfacet
  facet normal 0 0 1
    outer loop
      vertex 15.7151 5.76336 17
      vertex 6.42705 5.76336 17
      vertex 7 4 17
    endloop
  endfacet
  facet normal 0 0 1
    outer loop
      vertex 4.92705 6.85317 17
      vertex 17.2151 6.85317 17
      vertex 22.1421 8 17
    endloop
  endfacet
  facet normal 0 0 1
    outer loop
      vertex 17.2151 6.85317 17
      vertex 4.92705 6.85317 17
      vertex 6.42705 5.76336 17
    endloop
  endfacet
  facet normal -0 0 1
    outer loop
      vertex 0 8 17
      vertex 4.92705 6.85317 17
      vertex 22.1421 8 17
    endloop
  endfacet
  facet normal 0 0 1
    outer loop
      vertex 1.57295 5.76336 17
      vertex 0 8 17
      vertex 1 4 17
    endloop
  endfacet
  facet normal 0 0 1
    outer loop
      vertex 3.07295 6.85317 17
      vertex 0 8 17
      vertex 1.57295 5.76336 17
    endloop
  endfacet
  facet normal 0 0 1
    outer loop
      vertex 4.92705 6.85317 17
      vertex 0 8 17
      vertex 3.07295 6.85317 17
    endloop
  endfacet
  facet normal -0 0 1
    outer loop
      vertex 20.5692 2.23664 17
      vertex 22.1421 0 17
      vertex 21.1421 4 17
    endloop
  endfacet
  facet normal -0 0 1
    outer loop
      vertex 19.0692 1.14683 17
      vertex 22.1421 0 17
      vertex 20.5692 2.23664 17
    endloop
  endfacet
  facet normal -0 0 1
    outer loop
      vertex 17.2151 1.14683 17
      vertex 22.1421 0 17
      vertex 19.0692 1.14683 17
    endloop
  endfacet
  facet normal -0 0 1
    outer loop
      vertex 7 4 17
      vertex 15.7151 2.23664 17
      vertex 15.1421 4 17
    endloop
  endfacet
  facet normal 0 0 1
    outer loop
      vertex 6.42705 2.23664 17
      vertex 15.7151 2.23664 17
      vertex 7 4 17
    endloop
  endfacet
  facet normal 0 0 1
    outer loop
      vertex 15.7151 2.23664 17
      vertex 6.42705 2.23664 17
      vertex 17.2151 1.14683 17
    endloop
  endfacet
  facet normal 0 0 1
    outer loop
      vertex 4.92705 1.14683 17
      vertex 17.2151 1.14683 17
      vertex 6.42705 2.23664 17
    endloop
  endfacet
  facet normal 0 0 1
    outer loop
      vertex 17.2151 1.14683 17
      vertex 4.92705 1.14683 17
      vertex 22.1421 0 17
    endloop
  endfacet
  facet normal 0 0 1
    outer loop
      vertex 0 0 17
      vertex 4.92705 1.14683 17
      vertex 3.07295 1.14683 17
    endloop
  endfacet
  facet normal 0 0 1
    outer loop
      vertex 4.92705 1.14683 17
      vertex 0 0 17
      vertex 22.1421 0 17
    endloop
  endfacet
  facet normal 0 0 1
    outer loop
      vertex 1.57295 2.23664 17
      vertex 0 0 17
      vertex 3.07295 1.14683 17
    endloop
  endfacet
  facet normal 0 0 1
    outer loop
      vertex 1 4 17
      vertex 0 0 17
      vertex 1.57295 2.23664 17
    endloop
  endfacet
  facet normal 0 0 1
    outer loop
      vertex 0 0 17
      vertex 1 4 17
      vertex 0 8 17
    endloop
  endfacet
  facet normal 0 -1 0
    outer loop
      vertex 0 0 0
      vertex 22.1421 0 17
      vertex 0 0 17
    endloop
  endfacet
  facet normal 0 -1 -0
    outer loop
      vertex 22.1421 0 17
      vertex 0 0 0
      vertex 22.1421 0 0
    endloop
  endfacet
  facet normal 0 1 -0
    outer loop
      vertex 22.1421 8 0
      vertex 0 8 17
      vertex 22.1421 8 17
    endloop
  endfacet
  facet normal 0 1 0
    outer loop
      vertex 0 8 17
      vertex 22.1421 8 0
      vertex 0 8 0
    endloop
  endfacet
  facet normal 0 0 -1
    outer loop
      vertex 22.1421 0 0
      vertex 19.7921 4 0
      vertex 22.1421 8 0
    endloop
  endfacet
  facet normal 0 0 -1
    outer loop
      vertex 22.1421 0 0
      vertex 18.9671 2.57106 0
      vertex 19.7921 4 0
    endloop
  endfacet
  facet normal 0 0 -1
    outer loop
      vertex 22.1421 0 0
      vertex 17.3171 2.57106 0
      vertex 18.9671 2.57106 0
    endloop
  endfacet
  facet normal 0 0 -1
    outer loop
      vertex 17.3171 2.57106 0
      vertex 5.65 4 0
      vertex 16.4921 4 0
    endloop
  endfacet
  facet normal 0 0 -1
    outer loop
      vertex 4.825 2.57106 0
      vertex 17.3171 2.57106 0
      vertex 22.1421 0 0
    endloop
  endfacet
  facet normal 0 0 -1
    outer loop
      vertex 17.3171 2.57106 0
      vertex 4.825 2.57106 0
      vertex 5.65 4 0
    endloop
  endfacet
  facet normal 0 0 -1
    outer loop
      vertex 0 0 0
      vertex 4.825 2.57106 0
      vertex 22.1421 0 0
    endloop
  endfacet
  facet normal -0 0 -1
    outer loop
      vertex 3.175 2.57106 0
      vertex 0 0 0
      vertex 2.35 4 0
    endloop
  endfacet
  facet normal -0 0 -1
    outer loop
      vertex 4.825 2.57106 0
      vertex 0 0 0
      vertex 3.175 2.57106 0
    endloop
  endfacet
  facet normal 0 0 -1
    outer loop
      vertex 18.9671 5.42894 0
      vertex 22.1421 8 0
      vertex 19.7921 4 0
    endloop
  endfacet
  facet normal 0 0 -1
    outer loop
      vertex 17.3171 5.42894 0
      vertex 22.1421 8 0
      vertex 18.9671 5.42894 0
    endloop
  endfacet
  facet normal 0 0 -1
    outer loop
      vertex 5.65 4 0
      vertex 17.3171 5.42894 0
      vertex 16.4921 4 0
    endloop
  endfacet
  facet normal 0 0 -1
    outer loop
      vertex 4.825 5.42894 0
      vertex 17.3171 5.42894 0
      vertex 5.65 4 0
    endloop
  endfacet
  facet normal 0 0 -1
    outer loop
      vertex 17.3171 5.42894 0
      vertex 4.825 5.42894 0
      vertex 22.1421 8 0
    endloop
  endfacet
  facet normal 0 0 -1
    outer loop
      vertex 0 8 0
      vertex 4.825 5.42894 0
      vertex 3.175 5.42894 0
    endloop
  endfacet
  facet normal 0 0 -1
    outer loop
      vertex 0 8 0
      vertex 2.35 4 0
      vertex 0 0 0
    endloop
  endfacet
  facet normal 0 0 -1
    outer loop
      vertex 4.825 5.42894 0
      vertex 0 8 0
      vertex 22.1421 8 0
    endloop
  endfacet
  facet normal 0 0 -1
    outer loop
      vertex 2.35 4 0
      vertex 0 8 0
      vertex 3.175 5.42894 0
    endloop
  endfacet
  facet normal 1 -0 0
    outer loop
      vertex 22.1421 0 17
      vertex 22.1421 8 0
      vertex 22.1421 8 17
    endloop
  endfacet
  facet normal 1 0 0
    outer loop
      vertex 22.1421 8 0
      vertex 22.1421 0 17
      vertex 22.1421 0 0
    endloop
  endfacet
endsolid OpenSCAD_Model
