solid OpenSCAD_Model
  facet normal 0.699853 0 0.714287
    outer loop
      vertex 4.08485 3.04296e-15 13.7043
      vertex 5.82426 -12 12
      vertex 5.82426 2.66454e-15 12
    endloop
  endfacet
  facet normal 0.699853 0 0.714287
    outer loop
      vertex 5.82426 -12 12
      vertex 4.08485 3.04296e-15 13.7043
      vertex 4.08485 -12 13.7043
    endloop
  endfacet
  facet normal 0.923879 -0 0.382684
    outer loop
      vertex 5.82426 -12 12
      vertex 6 2.57033e-15 11.5757
      vertex 5.82426 2.66454e-15 12
    endloop
  endfacet
  facet normal 0.923879 0 0.382684
    outer loop
      vertex 6 2.57033e-15 11.5757
      vertex 5.82426 -12 12
      vertex 6 -12 11.5757
    endloop
  endfacet
  facet normal -0.923879 0 0.382684
    outer loop
      vertex 3.06059 -12 13.28
      vertex 3.23632 3.04296e-15 13.7043
      vertex 3.06059 2.94875e-15 13.28
    endloop
  endfacet
  facet normal -0.923879 0 0.382684
    outer loop
      vertex 3.23632 3.04296e-15 13.7043
      vertex 3.06059 -12 13.28
      vertex 3.23632 -12 13.7043
    endloop
  endfacet
  facet normal -0.923879 0 -0.382684
    outer loop
      vertex 3.23632 -12 12.8557
      vertex 3.06059 2.94875e-15 13.28
      vertex 3.23632 2.85455e-15 12.8557
    endloop
  endfacet
  facet normal -0.923879 -0 -0.382684
    outer loop
      vertex 3.06059 2.94875e-15 13.28
      vertex 3.23632 -12 12.8557
      vertex 3.06059 -12 13.28
    endloop
  endfacet
  facet normal -0.382683 0 0.92388
    outer loop
      vertex 3.23632 3.04296e-15 13.7043
      vertex 3.66059 -12 13.88
      vertex 3.66059 3.08198e-15 13.88
    endloop
  endfacet
  facet normal -0.382683 0 0.92388
    outer loop
      vertex 3.66059 -12 13.88
      vertex 3.23632 3.04296e-15 13.7043
      vertex 3.23632 -12 13.7043
    endloop
  endfacet
  facet normal 0 1 -2.22045e-16
    outer loop
      vertex 4.08485 3.04296e-15 13.7043
      vertex 3.23632 3.04296e-15 13.7043
      vertex 3.66059 3.08198e-15 13.88
    endloop
  endfacet
  facet normal 0 1 -2.22045e-16
    outer loop
      vertex 4.08485 3.04296e-15 13.7043
      vertex 3.06059 2.94875e-15 13.28
      vertex 3.23632 3.04296e-15 13.7043
    endloop
  endfacet
  facet normal 0 1 -2.22045e-16
    outer loop
      vertex 4.08485 3.04296e-15 13.7043
      vertex 3.23632 2.85455e-15 12.8557
      vertex 3.06059 2.94875e-15 13.28
    endloop
  endfacet
  facet normal 0 1 -2.22045e-16
    outer loop
      vertex 4.8 2.51436e-15 11.3237
      vertex 4.08485 3.04296e-15 13.7043
      vertex 5.82426 2.66454e-15 12
    endloop
  endfacet
  facet normal 0 1 -2.22045e-16
    outer loop
      vertex 4.8 2.51436e-15 11.3237
      vertex 5.82426 2.66454e-15 12
      vertex 6 2.57033e-15 11.5757
    endloop
  endfacet
  facet normal 0 1 -2.22045e-16
    outer loop
      vertex 4.08485 3.04296e-15 13.7043
      vertex 4.8 2.51436e-15 11.3237
      vertex 3.23632 2.85455e-15 12.8557
    endloop
  endfacet
  facet normal 0 1 -2.22045e-16
    outer loop
      vertex 6 5.9952e-16 2.7
      vertex 4.8 2.51436e-15 11.3237
      vertex 6 2.57033e-15 11.5757
    endloop
  endfacet
  facet normal 0 1 -2.22045e-16
    outer loop
      vertex 6 5.9952e-16 2.7
      vertex 4.8 5.9952e-16 2.7
      vertex 4.8 2.51436e-15 11.3237
    endloop
  endfacet
  facet normal 0 1 -2.22045e-16
    outer loop
      vertex 5.93867 4.61594e-16 2.07883
      vertex 4.8 5.9952e-16 2.7
      vertex 6 5.9952e-16 2.7
    endloop
  endfacet
  facet normal 0 1 -2.22045e-16
    outer loop
      vertex 4.8 5.9952e-16 2.7
      vertex 5.93867 4.61594e-16 2.07883
      vertex 4.62426 5.05315e-16 2.27574
    endloop
  endfacet
  facet normal 0 1 -2.22045e-16
    outer loop
      vertex 4.62426 5.05315e-16 2.27574
      vertex 5.47279 2.22698e-16 1.00294
      vertex 4.2 4.66294e-16 2.1
    endloop
  endfacet
  facet normal 0 1 -2.22045e-16
    outer loop
      vertex 5.47279 2.22698e-16 1.00294
      vertex 4.62426 5.05315e-16 2.27574
      vertex 5.75885 3.33067e-16 1.5
    endloop
  endfacet
  facet normal 0 1 -2.22045e-16
    outer loop
      vertex 5.75885 3.33067e-16 1.5
      vertex 4.62426 5.05315e-16 2.27574
      vertex 5.93867 4.61594e-16 2.07883
    endloop
  endfacet
  facet normal 0 1 -2.22045e-16
    outer loop
      vertex -3.23632 3.04296e-15 13.7043
      vertex -4.08485 3.04296e-15 13.7043
      vertex -3.66059 3.08198e-15 13.88
    endloop
  endfacet
  facet normal 0 1 -2.22045e-16
    outer loop
      vertex -3.06059 2.94875e-15 13.28
      vertex -4.08485 3.04296e-15 13.7043
      vertex -3.23632 3.04296e-15 13.7043
    endloop
  endfacet
  facet normal 0 1 -2.22045e-16
    outer loop
      vertex -3.23632 2.85455e-15 12.8557
      vertex -4.08485 3.04296e-15 13.7043
      vertex -3.06059 2.94875e-15 13.28
    endloop
  endfacet
  facet normal 0 1 -2.22045e-16
    outer loop
      vertex -4.8 2.51436e-15 11.3237
      vertex -4.08485 3.04296e-15 13.7043
      vertex -3.23632 2.85455e-15 12.8557
    endloop
  endfacet
  facet normal 0 1 -2.22045e-16
    outer loop
      vertex -4.08485 3.04296e-15 13.7043
      vertex -4.8 2.51436e-15 11.3237
      vertex -5.82426 2.66454e-15 12
    endloop
  endfacet
  facet normal 0 1 -2.22045e-16
    outer loop
      vertex -5.82426 2.66454e-15 12
      vertex -4.8 2.51436e-15 11.3237
      vertex -6 2.57033e-15 11.5757
    endloop
  endfacet
  facet normal 0 1 -2.22045e-16
    outer loop
      vertex -6 5.9952e-16 2.7
      vertex -4.8 2.51436e-15 11.3237
      vertex -4.8 5.9952e-16 2.7
    endloop
  endfacet
  facet normal 0 1 -2.22045e-16
    outer loop
      vertex -4.8 2.51436e-15 11.3237
      vertex -6 5.9952e-16 2.7
      vertex -6 2.57033e-15 11.5757
    endloop
  endfacet
  facet normal 0 1 -2.22045e-16
    outer loop
      vertex -5.93867 4.61594e-16 2.07883
      vertex -4.8 5.9952e-16 2.7
      vertex -4.62426 5.05315e-16 2.27574
    endloop
  endfacet
  facet normal 0 1 -2.22045e-16
    outer loop
      vertex -5.47279 2.22698e-16 1.00294
      vertex -4.62426 5.05315e-16 2.27574
      vertex -4.2 4.66294e-16 2.1
    endloop
  endfacet
  facet normal 0 1 -2.22045e-16
    outer loop
      vertex 4.25 6.66132e-17 0.299999
      vertex 2.45924 4.66294e-16 2.1
      vertex 4.25 6.85623e-17 0.308777
    endloop
  endfacet
  facet normal 0 1 -2.22045e-16
    outer loop
      vertex -4.8 5.9952e-16 2.7
      vertex -5.93867 4.61594e-16 2.07883
      vertex -6 5.9952e-16 2.7
    endloop
  endfacet
  facet normal 0 1 -2.22045e-16
    outer loop
      vertex 2.45924 4.66294e-16 2.1
      vertex 4.25 6.66132e-17 0.299999
      vertex -2.45924 4.66294e-16 2.1
    endloop
  endfacet
  facet normal 0 1 -2.22045e-16
    outer loop
      vertex 5.1 1.38009e-16 0.621539
      vertex 4.2 4.66294e-16 2.1
      vertex 5.47279 2.22698e-16 1.00294
    endloop
  endfacet
  facet normal 0 1 -2.22045e-16
    outer loop
      vertex -2.45924 4.66294e-16 2.1
      vertex -4.25 6.85623e-17 0.308777
      vertex -4.2 4.66294e-16 2.1
    endloop
  endfacet
  facet normal 0 1 -2.22045e-16
    outer loop
      vertex 4.2 4.66294e-16 2.1
      vertex 4.25 6.85623e-17 0.308777
      vertex 2.45924 4.66294e-16 2.1
    endloop
  endfacet
  facet normal 0 1 -2.22045e-16
    outer loop
      vertex -4.66587 8.47719e-17 0.381779
      vertex -4.2 4.66294e-16 2.1
      vertex -4.25 6.85623e-17 0.308777
    endloop
  endfacet
  facet normal 0 1 -2.22045e-16
    outer loop
      vertex 4.66587 8.47719e-17 0.381779
      vertex 4.2 4.66294e-16 2.1
      vertex 5.1 1.38009e-16 0.621539
    endloop
  endfacet
  facet normal 0 1 -2.22045e-16
    outer loop
      vertex -4.62426 5.05315e-16 2.27574
      vertex -5.75885 3.33067e-16 1.5
      vertex -5.93867 4.61594e-16 2.07883
    endloop
  endfacet
  facet normal 0 1 -2.22045e-16
    outer loop
      vertex 4.2 4.66294e-16 2.1
      vertex 4.66587 8.47719e-17 0.381779
      vertex 4.25 6.85623e-17 0.308777
    endloop
  endfacet
  facet normal 0 1 -2.22045e-16
    outer loop
      vertex -4.62426 5.05315e-16 2.27574
      vertex -5.47279 2.22698e-16 1.00294
      vertex -5.75885 3.33067e-16 1.5
    endloop
  endfacet
  facet normal 0 1 -2.22045e-16
    outer loop
      vertex -4.2 4.66294e-16 2.1
      vertex -5.1 1.38009e-16 0.621539
      vertex -5.47279 2.22698e-16 1.00294
    endloop
  endfacet
  facet normal 0 1 -2.22045e-16
    outer loop
      vertex -4.2 4.66294e-16 2.1
      vertex -4.66587 8.47719e-17 0.381779
      vertex -5.1 1.38009e-16 0.621539
    endloop
  endfacet
  facet normal 0 1 -2.22045e-16
    outer loop
      vertex -4.25 6.66132e-17 0.299999
      vertex -2.45924 4.66294e-16 2.1
      vertex 4.25 6.66132e-17 0.299999
    endloop
  endfacet
  facet normal 0 1 -2.22045e-16
    outer loop
      vertex -2.45924 4.66294e-16 2.1
      vertex -4.25 6.66132e-17 0.299999
      vertex -4.25 6.85623e-17 0.308777
    endloop
  endfacet
  facet normal 0 -1 0
    outer loop
      vertex -4.08485 -12 13.7043
      vertex -3.23632 -12 13.7043
      vertex -3.66059 -12 13.88
    endloop
  endfacet
  facet normal 0 -1 0
    outer loop
      vertex -4.08485 -12 13.7043
      vertex -3.06059 -12 13.28
      vertex -3.23632 -12 13.7043
    endloop
  endfacet
  facet normal 0 -1 0
    outer loop
      vertex -4.08485 -12 13.7043
      vertex -3.23632 -12 12.8557
      vertex -3.06059 -12 13.28
    endloop
  endfacet
  facet normal 0 -1 0
    outer loop
      vertex -4.8 -12 11.3237
      vertex -4.08485 -12 13.7043
      vertex -5.82426 -12 12
    endloop
  endfacet
  facet normal 0 -1 0
    outer loop
      vertex -4.8 -12 11.3237
      vertex -5.82426 -12 12
      vertex -6 -12 11.5757
    endloop
  endfacet
  facet normal 0 -1 -0
    outer loop
      vertex -4.08485 -12 13.7043
      vertex -4.8 -12 11.3237
      vertex -3.23632 -12 12.8557
    endloop
  endfacet
  facet normal 0 -1 0
    outer loop
      vertex -6 -12 2.7
      vertex -4.8 -12 11.3237
      vertex -6 -12 11.5757
    endloop
  endfacet
  facet normal 0 -1 0
    outer loop
      vertex -6 -12 2.7
      vertex -4.8 -12 2.7
      vertex -4.8 -12 11.3237
    endloop
  endfacet
  facet normal 0 -1 0
    outer loop
      vertex -5.93867 -12 2.07883
      vertex -4.8 -12 2.7
      vertex -6 -12 2.7
    endloop
  endfacet
  facet normal 0 -1 -0
    outer loop
      vertex -4.8 -12 2.7
      vertex -5.93867 -12 2.07883
      vertex -4.62426 -12 2.27574
    endloop
  endfacet
  facet normal 0 -1 -0
    outer loop
      vertex -4.62426 -12 2.27574
      vertex -5.47279 -12 1.00294
      vertex -4.2 -12 2.1
    endloop
  endfacet
  facet normal 0 -1 0
    outer loop
      vertex -5.47279 -12 1.00294
      vertex -4.62426 -12 2.27574
      vertex -5.75885 -12 1.5
    endloop
  endfacet
  facet normal 0 -1 0
    outer loop
      vertex -5.75885 -12 1.5
      vertex -4.62426 -12 2.27574
      vertex -5.93867 -12 2.07883
    endloop
  endfacet
  facet normal 0 -1 0
    outer loop
      vertex 3.23632 -12 13.7043
      vertex 4.08485 -12 13.7043
      vertex 3.66059 -12 13.88
    endloop
  endfacet
  facet normal 0 -1 0
    outer loop
      vertex 3.06059 -12 13.28
      vertex 4.08485 -12 13.7043
      vertex 3.23632 -12 13.7043
    endloop
  endfacet
  facet normal 0 -1 0
    outer loop
      vertex 3.23632 -12 12.8557
      vertex 4.08485 -12 13.7043
      vertex 3.06059 -12 13.28
    endloop
  endfacet
  facet normal 0 -1 0
    outer loop
      vertex 4.8 -12 11.3237
      vertex 4.08485 -12 13.7043
      vertex 3.23632 -12 12.8557
    endloop
  endfacet
  facet normal 0 -1 0
    outer loop
      vertex 4.08485 -12 13.7043
      vertex 4.8 -12 11.3237
      vertex 5.82426 -12 12
    endloop
  endfacet
  facet normal 0 -1 -0
    outer loop
      vertex 5.82426 -12 12
      vertex 4.8 -12 11.3237
      vertex 6 -12 11.5757
    endloop
  endfacet
  facet normal 0 -1 0
    outer loop
      vertex 6 -12 2.7
      vertex 4.8 -12 11.3237
      vertex 4.8 -12 2.7
    endloop
  endfacet
  facet normal 0 -1 0
    outer loop
      vertex 4.8 -12 11.3237
      vertex 6 -12 2.7
      vertex 6 -12 11.5757
    endloop
  endfacet
  facet normal 0 -1 0
    outer loop
      vertex 5.93867 -12 2.07883
      vertex 4.8 -12 2.7
      vertex 4.62426 -12 2.27574
    endloop
  endfacet
  facet normal 0 -1 0
    outer loop
      vertex 5.47279 -12 1.00294
      vertex 4.62426 -12 2.27574
      vertex 4.2 -12 2.1
    endloop
  endfacet
  facet normal 0 -1 0
    outer loop
      vertex -4.25 -12 0.299999
      vertex -2.45924 -12 2.1
      vertex -4.25 -12 0.308777
    endloop
  endfacet
  facet normal 0 -1 0
    outer loop
      vertex 4.8 -12 2.7
      vertex 5.93867 -12 2.07883
      vertex 6 -12 2.7
    endloop
  endfacet
  facet normal 0 -1 -0
    outer loop
      vertex -2.45924 -12 2.1
      vertex -4.25 -12 0.299999
      vertex 2.45924 -12 2.1
    endloop
  endfacet
  facet normal 0 -1 0
    outer loop
      vertex -5.1 -12 0.621539
      vertex -4.2 -12 2.1
      vertex -5.47279 -12 1.00294
    endloop
  endfacet
  facet normal 0 -1 0
    outer loop
      vertex 2.45924 -12 2.1
      vertex 4.25 -12 0.308777
      vertex 4.2 -12 2.1
    endloop
  endfacet
  facet normal 0 -1 -0
    outer loop
      vertex -4.2 -12 2.1
      vertex -4.25 -12 0.308777
      vertex -2.45924 -12 2.1
    endloop
  endfacet
  facet normal -0 -1 0
    outer loop
      vertex 4.66587 -12 0.381779
      vertex 4.2 -12 2.1
      vertex 4.25 -12 0.308777
    endloop
  endfacet
  facet normal 0 -1 0
    outer loop
      vertex -4.66587 -12 0.381779
      vertex -4.2 -12 2.1
      vertex -5.1 -12 0.621539
    endloop
  endfacet
  facet normal 0 -1 0
    outer loop
      vertex 4.62426 -12 2.27574
      vertex 5.75885 -12 1.5
      vertex 5.93867 -12 2.07883
    endloop
  endfacet
  facet normal 0 -1 0
    outer loop
      vertex -4.2 -12 2.1
      vertex -4.66587 -12 0.381779
      vertex -4.25 -12 0.308777
    endloop
  endfacet
  facet normal 0 -1 0
    outer loop
      vertex 4.62426 -12 2.27574
      vertex 5.47279 -12 1.00294
      vertex 5.75885 -12 1.5
    endloop
  endfacet
  facet normal 0 -1 0
    outer loop
      vertex 4.2 -12 2.1
      vertex 5.1 -12 0.621539
      vertex 5.47279 -12 1.00294
    endloop
  endfacet
  facet normal 0 -1 0
    outer loop
      vertex 4.2 -12 2.1
      vertex 4.66587 -12 0.381779
      vertex 5.1 -12 0.621539
    endloop
  endfacet
  facet normal 0 -1 0
    outer loop
      vertex 4.25 -12 0.299999
      vertex 2.45924 -12 2.1
      vertex -4.25 -12 0.299999
    endloop
  endfacet
  facet normal 0 -1 0
    outer loop
      vertex 2.45924 -12 2.1
      vertex 4.25 -12 0.299999
      vertex 4.25 -12 0.308777
    endloop
  endfacet
  facet normal 0.382683 0 0.92388
    outer loop
      vertex 3.66059 3.08198e-15 13.88
      vertex 4.08485 -12 13.7043
      vertex 4.08485 3.04296e-15 13.7043
    endloop
  endfacet
  facet normal 0.382683 0 0.92388
    outer loop
      vertex 4.08485 -12 13.7043
      vertex 3.66059 3.08198e-15 13.88
      vertex 3.66059 -12 13.88
    endloop
  endfacet
  facet normal -0.699853 0 -0.714287
    outer loop
      vertex 3.23632 -12 12.8557
      vertex 4.8 2.51436e-15 11.3237
      vertex 4.8 -12 11.3237
    endloop
  endfacet
  facet normal -0.699853 0 -0.714287
    outer loop
      vertex 4.8 2.51436e-15 11.3237
      vertex 3.23632 -12 12.8557
      vertex 3.23632 2.85455e-15 12.8557
    endloop
  endfacet
  facet normal -1 0 0
    outer loop
      vertex 4.8 -12 2.7
      vertex 4.8 2.51436e-15 11.3237
      vertex 4.8 5.9952e-16 2.7
    endloop
  endfacet
  facet normal -1 -0 0
    outer loop
      vertex 4.8 2.51436e-15 11.3237
      vertex 4.8 -12 2.7
      vertex 4.8 -12 11.3237
    endloop
  endfacet
  facet normal 1 -0 0
    outer loop
      vertex 6 -12 11.5757
      vertex 6 5.9952e-16 2.7
      vertex 6 2.57033e-15 11.5757
    endloop
  endfacet
  facet normal 1 0 0
    outer loop
      vertex 6 5.9952e-16 2.7
      vertex 6 -12 11.5757
      vertex 6 -12 2.7
    endloop
  endfacet
  facet normal 0.715135 0 -0.698986
    outer loop
      vertex 5.47279 -12 1.00294
      vertex 5.1 1.38009e-16 0.621539
      vertex 5.47279 2.22698e-16 1.00294
    endloop
  endfacet
  facet normal 0.715135 0 -0.698986
    outer loop
      vertex 5.1 1.38009e-16 0.621539
      vertex 5.47279 -12 1.00294
      vertex 5.1 -12 0.621539
    endloop
  endfacet
  facet normal 0.954979 0 -0.296673
    outer loop
      vertex 5.93867 -12 2.07883
      vertex 5.75885 3.33067e-16 1.5
      vertex 5.93867 4.61594e-16 2.07883
    endloop
  endfacet
  facet normal 0.954979 0 -0.296673
    outer loop
      vertex 5.75885 3.33067e-16 1.5
      vertex 5.93867 -12 2.07883
      vertex 5.75885 -12 1.5
    endloop
  endfacet
  facet normal 0.17291 0 -0.984938
    outer loop
      vertex 4.66587 -12 0.381779
      vertex 4.66379 -0.82961 0.381412
      vertex 4.66587 8.47719e-17 0.381779
    endloop
  endfacet
  facet normal 0.172894 -2.91165e-09 -0.98494
    outer loop
      vertex 4.66587 -12 0.381779
      vertex 4.52989 -0.953772 0.357908
      vertex 4.66379 -0.82961 0.381412
    endloop
  endfacet
  facet normal 0.172894 -1.03711e-08 -0.98494
    outer loop
      vertex 4.66587 -12 0.381779
      vertex 4.4552 -1.02303 0.344798
      vertex 4.52989 -0.953772 0.357908
    endloop
  endfacet
  facet normal 0.172894 2.11546e-09 -0.98494
    outer loop
      vertex 4.66587 -12 0.381779
      vertex 4.31935 -1.05545 0.320952
      vertex 4.4552 -1.02303 0.344798
    endloop
  endfacet
  facet normal 0.172894 0 -0.98494
    outer loop
      vertex 4.25 -1.072 0.308777
      vertex 4.66587 -12 0.381779
      vertex 4.25 -12 0.308777
    endloop
  endfacet
  facet normal 0.172895 1.77492e-08 -0.98494
    outer loop
      vertex 4.66587 -12 0.381779
      vertex 4.25 -1.072 0.308777
      vertex 4.31935 -1.05545 0.320952
    endloop
  endfacet
  facet normal 0.17291 0 -0.984938
    outer loop
      vertex 4.66379 -0.37039 0.381412
      vertex 4.66587 8.47719e-17 0.381779
      vertex 4.66379 -0.82961 0.381412
    endloop
  endfacet
  facet normal 0.172895 8.73693e-08 -0.98494
    outer loop
      vertex 4.52989 -0.246227 0.357908
      vertex 4.66587 8.47719e-17 0.381779
      vertex 4.66379 -0.37039 0.381412
    endloop
  endfacet
  facet normal 0.172894 3.11204e-07 -0.98494
    outer loop
      vertex 4.4552 -0.176972 0.344798
      vertex 4.66587 8.47719e-17 0.381779
      vertex 4.52989 -0.246227 0.357908
    endloop
  endfacet
  facet normal 0.172894 -2.69576e-07 -0.98494
    outer loop
      vertex 4.25 6.85623e-17 0.308777
      vertex 4.4552 -0.176972 0.344798
      vertex 4.31935 -0.144548 0.320952
    endloop
  endfacet
  facet normal 0.172895 0 -0.98494
    outer loop
      vertex 4.25 6.85623e-17 0.308777
      vertex 4.31935 -0.144548 0.320952
      vertex 4.25 -0.127995 0.308777
    endloop
  endfacet
  facet normal 0.172894 -1.63809e-07 -0.98494
    outer loop
      vertex 4.4552 -0.176972 0.344798
      vertex 4.25 6.85623e-17 0.308777
      vertex 4.66587 8.47719e-17 0.381779
    endloop
  endfacet
  facet normal 0.866721 0 -0.498794
    outer loop
      vertex 5.75885 -12 1.5
      vertex 5.47279 2.22698e-16 1.00294
      vertex 5.75885 3.33067e-16 1.5
    endloop
  endfacet
  facet normal 0.866721 0 -0.498794
    outer loop
      vertex 5.47279 2.22698e-16 1.00294
      vertex 5.75885 -12 1.5
      vertex 5.47279 -12 1.00294
    endloop
  endfacet
  facet normal 0.483452 0 -0.875371
    outer loop
      vertex 4.66587 -12 0.381779
      vertex 5.1 1.38009e-16 0.621539
      vertex 5.1 -12 0.621539
    endloop
  endfacet
  facet normal 0.483452 0 -0.875371
    outer loop
      vertex 5.1 1.38009e-16 0.621539
      vertex 4.66587 -12 0.381779
      vertex 4.66587 8.47719e-17 0.381779
    endloop
  endfacet
  facet normal 0.995161 0 -0.0982622
    outer loop
      vertex 6 -12 2.7
      vertex 5.93867 4.61594e-16 2.07883
      vertex 6 5.9952e-16 2.7
    endloop
  endfacet
  facet normal 0.995161 0 -0.0982622
    outer loop
      vertex 5.93867 4.61594e-16 2.07883
      vertex 6 -12 2.7
      vertex 5.93867 -12 2.07883
    endloop
  endfacet
  facet normal -0.92388 0 0.382683
    outer loop
      vertex 4.62426 -12 2.27574
      vertex 4.8 5.9952e-16 2.7
      vertex 4.62426 5.05315e-16 2.27574
    endloop
  endfacet
  facet normal -0.92388 0 0.382683
    outer loop
      vertex 4.8 5.9952e-16 2.7
      vertex 4.62426 -12 2.27574
      vertex 4.8 -12 2.7
    endloop
  endfacet
  facet normal -0.382683 0 0.92388
    outer loop
      vertex 4.2 4.66294e-16 2.1
      vertex 4.62426 -12 2.27574
      vertex 4.62426 5.05315e-16 2.27574
    endloop
  endfacet
  facet normal -0.382683 0 0.92388
    outer loop
      vertex 4.62426 -12 2.27574
      vertex 4.2 4.66294e-16 2.1
      vertex 4.2 -12 2.1
    endloop
  endfacet
  facet normal -0 0 1
    outer loop
      vertex 2.45924 4.66294e-16 2.1
      vertex 4.2 -12 2.1
      vertex 4.2 4.66294e-16 2.1
    endloop
  endfacet
  facet normal 0 0 1
    outer loop
      vertex 4.2 -12 2.1
      vertex 2.45924 4.66294e-16 2.1
      vertex 2.45924 -12 2.1
    endloop
  endfacet
  facet normal -0.699853 0 0.714287
    outer loop
      vertex -5.82426 2.66454e-15 12
      vertex -4.08485 -12 13.7043
      vertex -4.08485 3.04296e-15 13.7043
    endloop
  endfacet
  facet normal -0.699853 0 0.714287
    outer loop
      vertex -4.08485 -12 13.7043
      vertex -5.82426 2.66454e-15 12
      vertex -5.82426 -12 12
    endloop
  endfacet
  facet normal -0.923879 0 0.382684
    outer loop
      vertex -6 -12 11.5757
      vertex -5.82426 2.66454e-15 12
      vertex -6 2.57033e-15 11.5757
    endloop
  endfacet
  facet normal -0.923879 0 0.382684
    outer loop
      vertex -5.82426 2.66454e-15 12
      vertex -6 -12 11.5757
      vertex -5.82426 -12 12
    endloop
  endfacet
  facet normal 0.923879 -0 0.382684
    outer loop
      vertex -3.23632 -12 13.7043
      vertex -3.06059 2.94875e-15 13.28
      vertex -3.23632 3.04296e-15 13.7043
    endloop
  endfacet
  facet normal 0.923879 0 0.382684
    outer loop
      vertex -3.06059 2.94875e-15 13.28
      vertex -3.23632 -12 13.7043
      vertex -3.06059 -12 13.28
    endloop
  endfacet
  facet normal 0.923879 0 -0.382684
    outer loop
      vertex -3.06059 -12 13.28
      vertex -3.23632 2.85455e-15 12.8557
      vertex -3.06059 2.94875e-15 13.28
    endloop
  endfacet
  facet normal 0.923879 0 -0.382684
    outer loop
      vertex -3.23632 2.85455e-15 12.8557
      vertex -3.06059 -12 13.28
      vertex -3.23632 -12 12.8557
    endloop
  endfacet
  facet normal 0.382683 0 0.92388
    outer loop
      vertex -3.66059 3.08198e-15 13.88
      vertex -3.23632 -12 13.7043
      vertex -3.23632 3.04296e-15 13.7043
    endloop
  endfacet
  facet normal 0.382683 0 0.92388
    outer loop
      vertex -3.23632 -12 13.7043
      vertex -3.66059 3.08198e-15 13.88
      vertex -3.66059 -12 13.88
    endloop
  endfacet
  facet normal -0.382683 0 0.92388
    outer loop
      vertex -4.08485 3.04296e-15 13.7043
      vertex -3.66059 -12 13.88
      vertex -3.66059 3.08198e-15 13.88
    endloop
  endfacet
  facet normal -0.382683 0 0.92388
    outer loop
      vertex -3.66059 -12 13.88
      vertex -4.08485 3.04296e-15 13.7043
      vertex -4.08485 -12 13.7043
    endloop
  endfacet
  facet normal 0.699853 0 -0.714287
    outer loop
      vertex -4.8 -12 11.3237
      vertex -3.23632 2.85455e-15 12.8557
      vertex -3.23632 -12 12.8557
    endloop
  endfacet
  facet normal 0.699853 0 -0.714287
    outer loop
      vertex -3.23632 2.85455e-15 12.8557
      vertex -4.8 -12 11.3237
      vertex -4.8 2.51436e-15 11.3237
    endloop
  endfacet
  facet normal 1 -0 0
    outer loop
      vertex -4.8 -12 11.3237
      vertex -4.8 5.9952e-16 2.7
      vertex -4.8 2.51436e-15 11.3237
    endloop
  endfacet
  facet normal 1 0 0
    outer loop
      vertex -4.8 5.9952e-16 2.7
      vertex -4.8 -12 11.3237
      vertex -4.8 -12 2.7
    endloop
  endfacet
  facet normal -1 0 0
    outer loop
      vertex -6 -12 2.7
      vertex -6 2.57033e-15 11.5757
      vertex -6 5.9952e-16 2.7
    endloop
  endfacet
  facet normal -1 -0 0
    outer loop
      vertex -6 2.57033e-15 11.5757
      vertex -6 -12 2.7
      vertex -6 -12 11.5757
    endloop
  endfacet
  facet normal -0.715135 0 -0.698986
    outer loop
      vertex -5.1 -12 0.621539
      vertex -5.47279 2.22698e-16 1.00294
      vertex -5.1 1.38009e-16 0.621539
    endloop
  endfacet
  facet normal -0.715135 -0 -0.698986
    outer loop
      vertex -5.47279 2.22698e-16 1.00294
      vertex -5.1 -12 0.621539
      vertex -5.47279 -12 1.00294
    endloop
  endfacet
  facet normal -0.954979 0 -0.296673
    outer loop
      vertex -5.75885 -12 1.5
      vertex -5.93867 4.61594e-16 2.07883
      vertex -5.75885 3.33067e-16 1.5
    endloop
  endfacet
  facet normal -0.954979 -0 -0.296673
    outer loop
      vertex -5.93867 4.61594e-16 2.07883
      vertex -5.75885 -12 1.5
      vertex -5.93867 -12 2.07883
    endloop
  endfacet
  facet normal -0.172894 0 -0.98494
    outer loop
      vertex -4.66587 -12 0.381779
      vertex -4.25 -1.072 0.308777
      vertex -4.25 -12 0.308777
    endloop
  endfacet
  facet normal -0.172895 1.77492e-08 -0.98494
    outer loop
      vertex -4.25 -1.072 0.308777
      vertex -4.66587 -12 0.381779
      vertex -4.31935 -1.05545 0.320952
    endloop
  endfacet
  facet normal -0.172894 2.11546e-09 -0.98494
    outer loop
      vertex -4.31935 -1.05545 0.320952
      vertex -4.66587 -12 0.381779
      vertex -4.4552 -1.02303 0.344798
    endloop
  endfacet
  facet normal -0.172894 -1.03711e-08 -0.98494
    outer loop
      vertex -4.4552 -1.02303 0.344798
      vertex -4.66587 -12 0.381779
      vertex -4.52989 -0.953772 0.357908
    endloop
  endfacet
  facet normal -0.17291 0 -0.984938
    outer loop
      vertex -4.66379 -0.82961 0.381412
      vertex -4.66587 -12 0.381779
      vertex -4.66379 -0.37039 0.381412
    endloop
  endfacet
  facet normal -0.172894 -2.91165e-09 -0.98494
    outer loop
      vertex -4.52989 -0.953772 0.357908
      vertex -4.66587 -12 0.381779
      vertex -4.66379 -0.82961 0.381412
    endloop
  endfacet
  facet normal -0.172895 0 -0.98494
    outer loop
      vertex -4.31935 -0.144548 0.320952
      vertex -4.25 6.85623e-17 0.308777
      vertex -4.25 -0.127995 0.308777
    endloop
  endfacet
  facet normal -0.172894 -2.69576e-07 -0.98494
    outer loop
      vertex -4.4552 -0.176972 0.344798
      vertex -4.25 6.85623e-17 0.308777
      vertex -4.31935 -0.144548 0.320952
    endloop
  endfacet
  facet normal -0.172894 -1.63809e-07 -0.98494
    outer loop
      vertex -4.4552 -0.176972 0.344798
      vertex -4.66587 8.47719e-17 0.381779
      vertex -4.25 6.85623e-17 0.308777
    endloop
  endfacet
  facet normal -0.172894 3.11204e-07 -0.98494
    outer loop
      vertex -4.52989 -0.246227 0.357908
      vertex -4.66587 8.47719e-17 0.381779
      vertex -4.4552 -0.176972 0.344798
    endloop
  endfacet
  facet normal -0.172895 8.73693e-08 -0.98494
    outer loop
      vertex -4.66379 -0.37039 0.381412
      vertex -4.66587 8.47719e-17 0.381779
      vertex -4.52989 -0.246227 0.357908
    endloop
  endfacet
  facet normal -0.17291 -0 -0.984938
    outer loop
      vertex -4.66587 8.47719e-17 0.381779
      vertex -4.66379 -0.37039 0.381412
      vertex -4.66587 -12 0.381779
    endloop
  endfacet
  facet normal -0.866721 0 -0.498794
    outer loop
      vertex -5.47279 -12 1.00294
      vertex -5.75885 3.33067e-16 1.5
      vertex -5.47279 2.22698e-16 1.00294
    endloop
  endfacet
  facet normal -0.866721 -0 -0.498794
    outer loop
      vertex -5.75885 3.33067e-16 1.5
      vertex -5.47279 -12 1.00294
      vertex -5.75885 -12 1.5
    endloop
  endfacet
  facet normal -0.483452 0 -0.875371
    outer loop
      vertex -5.1 -12 0.621539
      vertex -4.66587 8.47719e-17 0.381779
      vertex -4.66587 -12 0.381779
    endloop
  endfacet
  facet normal -0.483452 0 -0.875371
    outer loop
      vertex -4.66587 8.47719e-17 0.381779
      vertex -5.1 -12 0.621539
      vertex -5.1 1.38009e-16 0.621539
    endloop
  endfacet
  facet normal -0.995161 0 -0.0982622
    outer loop
      vertex -5.93867 -12 2.07883
      vertex -6 5.9952e-16 2.7
      vertex -5.93867 4.61594e-16 2.07883
    endloop
  endfacet
  facet normal -0.995161 -0 -0.0982622
    outer loop
      vertex -6 5.9952e-16 2.7
      vertex -5.93867 -12 2.07883
      vertex -6 -12 2.7
    endloop
  endfacet
  facet normal 0.92388 -0 0.382683
    outer loop
      vertex -4.8 -12 2.7
      vertex -4.62426 5.05315e-16 2.27574
      vertex -4.8 5.9952e-16 2.7
    endloop
  endfacet
  facet normal 0.92388 0 0.382683
    outer loop
      vertex -4.62426 5.05315e-16 2.27574
      vertex -4.8 -12 2.7
      vertex -4.62426 -12 2.27574
    endloop
  endfacet
  facet normal 0.382683 0 0.92388
    outer loop
      vertex -4.62426 5.05315e-16 2.27574
      vertex -4.2 -12 2.1
      vertex -4.2 4.66294e-16 2.1
    endloop
  endfacet
  facet normal 0.382683 0 0.92388
    outer loop
      vertex -4.2 -12 2.1
      vertex -4.62426 5.05315e-16 2.27574
      vertex -4.62426 -12 2.27574
    endloop
  endfacet
  facet normal -0 0 1
    outer loop
      vertex -4.2 4.66294e-16 2.1
      vertex -2.45924 -12 2.1
      vertex -2.45924 4.66294e-16 2.1
    endloop
  endfacet
  facet normal 0 0 1
    outer loop
      vertex -2.45924 -12 2.1
      vertex -4.2 4.66294e-16 2.1
      vertex -4.2 -12 2.1
    endloop
  endfacet
  facet normal -0.281085 -0.678599 -0.678597
    outer loop
      vertex -4.4552 -1.02303 0.344798
      vertex -4.59197 -0.82961 0.208031
      vertex -4.31935 -1.05545 0.320952
    endloop
  endfacet
  facet normal -0.382684 0 -0.923879
    outer loop
      vertex -4.59197 -0.82961 0.208031
      vertex -4.2 -0.37039 0.0456715
      vertex -4.2 -0.82961 0.0456715
    endloop
  endfacet
  facet normal -0.382684 0 -0.923879
    outer loop
      vertex -4.2 -0.37039 0.0456715
      vertex -4.59197 -0.82961 0.208031
      vertex -4.59197 -0.37039 0.208031
    endloop
  endfacet
  facet normal -0.678599 0.678597 -0.281085
    outer loop
      vertex -4.59197 -0.37039 0.208031
      vertex -4.66379 -0.37039 0.381412
      vertex -4.52989 -0.246227 0.357908
    endloop
  endfacet
  facet normal 0.281084 -0.678599 -0.678598
    outer loop
      vertex -4.2 -1.08394 0.299999
      vertex -4.2 -0.82961 0.0456715
      vertex -4.09465 -1.0403 0.299999
    endloop
  endfacet
  facet normal 0.382684 0 -0.923879
    outer loop
      vertex -4.2 -0.82961 0.0456715
      vertex -3.80803 -0.37039 0.208031
      vertex -3.80803 -0.82961 0.208031
    endloop
  endfacet
  facet normal 0.382684 0 -0.923879
    outer loop
      vertex -3.80803 -0.37039 0.208031
      vertex -4.2 -0.82961 0.0456715
      vertex -4.2 -0.37039 0.0456715
    endloop
  endfacet
  facet normal 0.6786 0.678597 -0.281085
    outer loop
      vertex -3.80803 -0.37039 0.208031
      vertex -3.9 -0.240327 0.299999
      vertex -3.84613 -0.2942 0.299999
    endloop
  endfacet
  facet normal -0.678596 -0.6786 -0.281087
    outer loop
      vertex -4.52989 -0.953772 0.357908
      vertex -4.59197 -0.82961 0.208031
      vertex -4.4552 -1.02303 0.344798
    endloop
  endfacet
  facet normal -0.281086 -0.678596 -0.6786
    outer loop
      vertex -4.31935 -1.05545 0.320952
      vertex -4.25 -1.06323 0.299999
      vertex -4.25 -1.072 0.308777
    endloop
  endfacet
  facet normal -0.281085 -0.678599 -0.678597
    outer loop
      vertex -4.2 -0.82961 0.0456715
      vertex -4.31935 -1.05545 0.320952
      vertex -4.59197 -0.82961 0.208031
    endloop
  endfacet
  facet normal -0.281086 -0.678599 -0.678597
    outer loop
      vertex -4.31935 -1.05545 0.320952
      vertex -4.2 -0.82961 0.0456715
      vertex -4.25 -1.06323 0.299999
    endloop
  endfacet
  facet normal -0.281086 -0.678599 -0.678597
    outer loop
      vertex -4.25 -1.06323 0.299999
      vertex -4.2 -0.82961 0.0456715
      vertex -4.2 -1.08394 0.299999
    endloop
  endfacet
  facet normal 0.923879 0 -0.382685
    outer loop
      vertex -3.76994 -0.82961 0.299999
      vertex -3.80803 -0.37039 0.208031
      vertex -3.76994 -0.37039 0.299999
    endloop
  endfacet
  facet normal 0.923879 0 -0.382685
    outer loop
      vertex -3.80803 -0.37039 0.208031
      vertex -3.76994 -0.82961 0.299999
      vertex -3.80803 -0.82961 0.208031
    endloop
  endfacet
  facet normal 0.678598 -0.678598 -0.281086
    outer loop
      vertex -3.76994 -0.82961 0.299999
      vertex -3.84613 -0.905799 0.299999
      vertex -3.80803 -0.82961 0.208031
    endloop
  endfacet
  facet normal 0.281085 -0.678599 -0.678598
    outer loop
      vertex -4.09465 -1.0403 0.299999
      vertex -3.80803 -0.82961 0.208031
      vertex -3.9 -0.959673 0.299999
    endloop
  endfacet
  facet normal 0.281085 -0.678599 -0.678598
    outer loop
      vertex -3.80803 -0.82961 0.208031
      vertex -4.09465 -1.0403 0.299999
      vertex -4.2 -0.82961 0.0456715
    endloop
  endfacet
  facet normal 0.678599 0.678597 -0.281086
    outer loop
      vertex -3.80803 -0.37039 0.208031
      vertex -3.84613 -0.2942 0.299999
      vertex -3.76994 -0.37039 0.299999
    endloop
  endfacet
  facet normal -0.281085 0.678598 -0.678598
    outer loop
      vertex -4.2 -0.37039 0.0456715
      vertex -4.25 -0.136773 0.299999
      vertex -4.2 -0.116062 0.299999
    endloop
  endfacet
  facet normal -0.281085 0.678598 -0.678598
    outer loop
      vertex -4.25 -0.136773 0.299999
      vertex -4.2 -0.37039 0.0456715
      vertex -4.59197 -0.37039 0.208031
    endloop
  endfacet
  facet normal -0.281086 0.678598 -0.678598
    outer loop
      vertex -4.25 -0.136773 0.299999
      vertex -4.31935 -0.144548 0.320952
      vertex -4.25 -0.127995 0.308777
    endloop
  endfacet
  facet normal -0.281086 0.678599 -0.678597
    outer loop
      vertex -4.31935 -0.144548 0.320952
      vertex -4.25 -0.136773 0.299999
      vertex -4.59197 -0.37039 0.208031
    endloop
  endfacet
  facet normal -0.281085 0.678598 -0.678598
    outer loop
      vertex -4.31935 -0.144548 0.320952
      vertex -4.59197 -0.37039 0.208031
      vertex -4.4552 -0.176972 0.344798
    endloop
  endfacet
  facet normal 0.678599 -0.678598 -0.281084
    outer loop
      vertex -3.84613 -0.905799 0.299999
      vertex -3.9 -0.959673 0.299999
      vertex -3.80803 -0.82961 0.208031
    endloop
  endfacet
  facet normal -0.92388 0 -0.382683
    outer loop
      vertex -4.59197 -0.82961 0.208031
      vertex -4.66379 -0.37039 0.381412
      vertex -4.59197 -0.37039 0.208031
    endloop
  endfacet
  facet normal -0.92388 -0 -0.382683
    outer loop
      vertex -4.66379 -0.37039 0.381412
      vertex -4.59197 -0.82961 0.208031
      vertex -4.66379 -0.82961 0.381412
    endloop
  endfacet
  facet normal -0.678598 -0.678598 -0.281084
    outer loop
      vertex -4.52989 -0.953772 0.357908
      vertex -4.66379 -0.82961 0.381412
      vertex -4.59197 -0.82961 0.208031
    endloop
  endfacet
  facet normal 0.281086 0.678598 -0.678599
    outer loop
      vertex -4.2 -0.37039 0.0456715
      vertex -3.9 -0.240327 0.299999
      vertex -3.80803 -0.37039 0.208031
    endloop
  endfacet
  facet normal 0.281086 0.678598 -0.678599
    outer loop
      vertex -3.9 -0.240327 0.299999
      vertex -4.2 -0.37039 0.0456715
      vertex -4.09465 -0.159698 0.299999
    endloop
  endfacet
  facet normal 0.281084 0.678599 -0.678599
    outer loop
      vertex -4.09465 -0.159698 0.299999
      vertex -4.2 -0.37039 0.0456715
      vertex -4.2 -0.116062 0.299999
    endloop
  endfacet
  facet normal -0.678597 0.678599 -0.281087
    outer loop
      vertex -4.4552 -0.176972 0.344798
      vertex -4.59197 -0.37039 0.208031
      vertex -4.52989 -0.246227 0.357908
    endloop
  endfacet
  facet normal 0.678598 -0.678598 -0.281084
    outer loop
      vertex 4.66379 -0.82961 0.381412
      vertex 4.52989 -0.953772 0.357908
      vertex 4.59197 -0.82961 0.208031
    endloop
  endfacet
  facet normal -0.281085 -0.678599 -0.678598
    outer loop
      vertex 3.80803 -0.82961 0.208031
      vertex 4.09465 -1.0403 0.299999
      vertex 3.9 -0.959673 0.299999
    endloop
  endfacet
  facet normal -0.281085 -0.678599 -0.678598
    outer loop
      vertex 4.09465 -1.0403 0.299999
      vertex 3.80803 -0.82961 0.208031
      vertex 4.2 -0.82961 0.0456715
    endloop
  endfacet
  facet normal -0.923879 0 -0.382685
    outer loop
      vertex 3.80803 -0.82961 0.208031
      vertex 3.76994 -0.37039 0.299999
      vertex 3.80803 -0.37039 0.208031
    endloop
  endfacet
  facet normal -0.923879 -0 -0.382685
    outer loop
      vertex 3.76994 -0.37039 0.299999
      vertex 3.80803 -0.82961 0.208031
      vertex 3.76994 -0.82961 0.299999
    endloop
  endfacet
  facet normal 0.678599 0.678597 -0.281085
    outer loop
      vertex 4.59197 -0.37039 0.208031
      vertex 4.52989 -0.246227 0.357908
      vertex 4.66379 -0.37039 0.381412
    endloop
  endfacet
  facet normal 0.92388 0 -0.382683
    outer loop
      vertex 4.66379 -0.82961 0.381412
      vertex 4.59197 -0.37039 0.208031
      vertex 4.66379 -0.37039 0.381412
    endloop
  endfacet
  facet normal 0.92388 0 -0.382683
    outer loop
      vertex 4.59197 -0.37039 0.208031
      vertex 4.66379 -0.82961 0.381412
      vertex 4.59197 -0.82961 0.208031
    endloop
  endfacet
  facet normal 0.382684 0 -0.923879
    outer loop
      vertex 4.2 -0.82961 0.0456715
      vertex 4.59197 -0.37039 0.208031
      vertex 4.59197 -0.82961 0.208031
    endloop
  endfacet
  facet normal 0.382684 0 -0.923879
    outer loop
      vertex 4.59197 -0.37039 0.208031
      vertex 4.2 -0.82961 0.0456715
      vertex 4.2 -0.37039 0.0456715
    endloop
  endfacet
  facet normal -0.281084 -0.678599 -0.678598
    outer loop
      vertex 4.2 -1.08394 0.299999
      vertex 4.09465 -1.0403 0.299999
      vertex 4.2 -0.82961 0.0456715
    endloop
  endfacet
  facet normal 0.678597 0.678599 -0.281087
    outer loop
      vertex 4.59197 -0.37039 0.208031
      vertex 4.4552 -0.176972 0.344798
      vertex 4.52989 -0.246227 0.357908
    endloop
  endfacet
  facet normal -0.678598 -0.678598 -0.281086
    outer loop
      vertex 3.84613 -0.905799 0.299999
      vertex 3.76994 -0.82961 0.299999
      vertex 3.80803 -0.82961 0.208031
    endloop
  endfacet
  facet normal -0.678599 -0.678598 -0.281084
    outer loop
      vertex 3.84613 -0.905799 0.299999
      vertex 3.80803 -0.82961 0.208031
      vertex 3.9 -0.959673 0.299999
    endloop
  endfacet
  facet normal 0.281086 -0.678599 -0.678597
    outer loop
      vertex 4.2 -0.82961 0.0456715
      vertex 4.25 -1.06323 0.299999
      vertex 4.2 -1.08394 0.299999
    endloop
  endfacet
  facet normal 0.281085 -0.678599 -0.678597
    outer loop
      vertex 4.25 -1.06323 0.299999
      vertex 4.2 -0.82961 0.0456715
      vertex 4.59197 -0.82961 0.208031
    endloop
  endfacet
  facet normal 0.281086 -0.678596 -0.6786
    outer loop
      vertex 4.25 -1.06323 0.299999
      vertex 4.31935 -1.05545 0.320952
      vertex 4.25 -1.072 0.308777
    endloop
  endfacet
  facet normal 0.281086 -0.6786 -0.678596
    outer loop
      vertex 4.31935 -1.05545 0.320952
      vertex 4.25 -1.06323 0.299999
      vertex 4.59197 -0.82961 0.208031
    endloop
  endfacet
  facet normal 0.281085 -0.678599 -0.678597
    outer loop
      vertex 4.4552 -1.02303 0.344798
      vertex 4.31935 -1.05545 0.320952
      vertex 4.59197 -0.82961 0.208031
    endloop
  endfacet
  facet normal 0.678596 -0.6786 -0.281087
    outer loop
      vertex 4.52989 -0.953772 0.357908
      vertex 4.4552 -1.02303 0.344798
      vertex 4.59197 -0.82961 0.208031
    endloop
  endfacet
  facet normal 0.281085 0.678598 -0.678598
    outer loop
      vertex 4.59197 -0.37039 0.208031
      vertex 4.31935 -0.144548 0.320952
      vertex 4.4552 -0.176972 0.344798
    endloop
  endfacet
  facet normal 0.281085 0.678598 -0.678598
    outer loop
      vertex 4.2 -0.37039 0.0456715
      vertex 4.31935 -0.144548 0.320952
      vertex 4.59197 -0.37039 0.208031
    endloop
  endfacet
  facet normal 0.281086 0.678598 -0.678598
    outer loop
      vertex 4.31935 -0.144548 0.320952
      vertex 4.2 -0.37039 0.0456715
      vertex 4.25 -0.136773 0.299999
    endloop
  endfacet
  facet normal 0.281085 0.678598 -0.678598
    outer loop
      vertex 4.25 -0.136773 0.299999
      vertex 4.2 -0.37039 0.0456715
      vertex 4.2 -0.116062 0.299999
    endloop
  endfacet
  facet normal 0.281086 0.678598 -0.678598
    outer loop
      vertex 4.31935 -0.144548 0.320952
      vertex 4.25 -0.136773 0.299999
      vertex 4.25 -0.127995 0.308777
    endloop
  endfacet
  facet normal -0.6786 0.678597 -0.281085
    outer loop
      vertex 3.9 -0.240327 0.299999
      vertex 3.80803 -0.37039 0.208031
      vertex 3.84613 -0.2942 0.299999
    endloop
  endfacet
  facet normal -0.382684 0 -0.923879
    outer loop
      vertex 3.80803 -0.82961 0.208031
      vertex 4.2 -0.37039 0.0456715
      vertex 4.2 -0.82961 0.0456715
    endloop
  endfacet
  facet normal -0.382684 0 -0.923879
    outer loop
      vertex 4.2 -0.37039 0.0456715
      vertex 3.80803 -0.82961 0.208031
      vertex 3.80803 -0.37039 0.208031
    endloop
  endfacet
  facet normal -0.281086 0.678598 -0.678599
    outer loop
      vertex 4.2 -0.37039 0.0456715
      vertex 3.9 -0.240327 0.299999
      vertex 4.09465 -0.159698 0.299999
    endloop
  endfacet
  facet normal -0.281086 0.678598 -0.678599
    outer loop
      vertex 3.9 -0.240327 0.299999
      vertex 4.2 -0.37039 0.0456715
      vertex 3.80803 -0.37039 0.208031
    endloop
  endfacet
  facet normal -0.678599 0.678597 -0.281086
    outer loop
      vertex 3.80803 -0.37039 0.208031
      vertex 3.76994 -0.37039 0.299999
      vertex 3.84613 -0.2942 0.299999
    endloop
  endfacet
  facet normal -0.281084 0.678599 -0.678599
    outer loop
      vertex 4.2 -0.37039 0.0456715
      vertex 4.09465 -0.159698 0.299999
      vertex 4.2 -0.116062 0.299999
    endloop
  endfacet
  facet normal 0.678598 -0.678599 -0.281083
    outer loop
      vertex 0.430063 -11.6296 0.299999
      vertex 0.353874 -11.7058 0.299999
      vertex 0.391969 -11.6296 0.208031
    endloop
  endfacet
  facet normal -0.281087 -0.678599 -0.678597
    outer loop
      vertex -0.3 -11.7597 0.299999
      vertex -0.391969 -11.6296 0.208031
      vertex -0.169938 -11.8135 0.299999
    endloop
  endfacet
  facet normal -0.382684 0 -0.923879
    outer loop
      vertex -0.391969 -11.6296 0.208031
      vertex 0 -11.1704 0.0456715
      vertex 0 -11.6296 0.0456715
    endloop
  endfacet
  facet normal -0.382684 0 -0.923879
    outer loop
      vertex 0 -11.1704 0.0456715
      vertex -0.391969 -11.6296 0.208031
      vertex -0.391969 -11.1704 0.208031
    endloop
  endfacet
  facet normal 0.678598 0.678599 -0.281083
    outer loop
      vertex 0.391969 -11.1704 0.208031
      vertex 0.353874 -11.0942 0.299999
      vertex 0.430063 -11.1704 0.299999
    endloop
  endfacet
  facet normal 0.92388 0 -0.382682
    outer loop
      vertex 0.430063 -11.6296 0.299999
      vertex 0.391969 -11.1704 0.208031
      vertex 0.430063 -11.1704 0.299999
    endloop
  endfacet
  facet normal 0.92388 0 -0.382682
    outer loop
      vertex 0.391969 -11.1704 0.208031
      vertex 0.430063 -11.6296 0.299999
      vertex 0.391969 -11.6296 0.208031
    endloop
  endfacet
  facet normal -0.678598 -0.678599 -0.281083
    outer loop
      vertex -0.353874 -11.7058 0.299999
      vertex -0.430063 -11.6296 0.299999
      vertex -0.391969 -11.6296 0.208031
    endloop
  endfacet
  facet normal 0.382684 0 -0.923879
    outer loop
      vertex 0 -11.6296 0.0456715
      vertex 0.391969 -11.1704 0.208031
      vertex 0.391969 -11.6296 0.208031
    endloop
  endfacet
  facet normal 0.382684 0 -0.923879
    outer loop
      vertex 0.391969 -11.1704 0.208031
      vertex 0 -11.6296 0.0456715
      vertex 0 -11.1704 0.0456715
    endloop
  endfacet
  facet normal -0.281085 -0.678598 -0.678598
    outer loop
      vertex 0 -11.6296 0.0456715
      vertex -0.169938 -11.8135 0.299999
      vertex -0.391969 -11.6296 0.208031
    endloop
  endfacet
  facet normal -0.281085 -0.678598 -0.678598
    outer loop
      vertex -0.169938 -11.8135 0.299999
      vertex 0 -11.6296 0.0456715
      vertex 0 -11.8839 0.299999
    endloop
  endfacet
  facet normal -0.92388 0 -0.382682
    outer loop
      vertex -0.391969 -11.6296 0.208031
      vertex -0.430063 -11.1704 0.299999
      vertex -0.391969 -11.1704 0.208031
    endloop
  endfacet
  facet normal -0.92388 -0 -0.382682
    outer loop
      vertex -0.430063 -11.1704 0.299999
      vertex -0.391969 -11.6296 0.208031
      vertex -0.430063 -11.6296 0.299999
    endloop
  endfacet
  facet normal 0.281081 0.678598 -0.6786
    outer loop
      vertex 0.391969 -11.1704 0.208031
      vertex 0.169938 -10.9865 0.299999
      vertex 0.3 -11.0403 0.299999
    endloop
  endfacet
  facet normal -0.6786 -0.678598 -0.281081
    outer loop
      vertex -0.353874 -11.7058 0.299999
      vertex -0.391969 -11.6296 0.208031
      vertex -0.3 -11.7597 0.299999
    endloop
  endfacet
  facet normal 0.281085 -0.678598 -0.678598
    outer loop
      vertex 0 -11.6296 0.0456715
      vertex 0.169938 -11.8135 0.299999
      vertex 0 -11.8839 0.299999
    endloop
  endfacet
  facet normal 0.281085 -0.678598 -0.678598
    outer loop
      vertex 0.169938 -11.8135 0.299999
      vertex 0 -11.6296 0.0456715
      vertex 0.391969 -11.6296 0.208031
    endloop
  endfacet
  facet normal 0.281087 -0.678599 -0.678597
    outer loop
      vertex 0.3 -11.7597 0.299999
      vertex 0.169938 -11.8135 0.299999
      vertex 0.391969 -11.6296 0.208031
    endloop
  endfacet
  facet normal 0.281085 0.6786 -0.678597
    outer loop
      vertex 0 -11.1704 0.0456715
      vertex 0.169938 -10.9865 0.299999
      vertex 0.391969 -11.1704 0.208031
    endloop
  endfacet
  facet normal 0.281086 0.678599 -0.678597
    outer loop
      vertex 0.169938 -10.9865 0.299999
      vertex 0 -11.1704 0.0456715
      vertex 0 -10.9161 0.299999
    endloop
  endfacet
  facet normal -0.281086 0.678599 -0.678597
    outer loop
      vertex 0 -11.1704 0.0456715
      vertex -0.169938 -10.9865 0.299999
      vertex 0 -10.9161 0.299999
    endloop
  endfacet
  facet normal -0.281085 0.6786 -0.678597
    outer loop
      vertex -0.169938 -10.9865 0.299999
      vertex 0 -11.1704 0.0456715
      vertex -0.391969 -11.1704 0.208031
    endloop
  endfacet
  facet normal -0.678598 0.678599 -0.281083
    outer loop
      vertex -0.391969 -11.1704 0.208031
      vertex -0.430063 -11.1704 0.299999
      vertex -0.353874 -11.0942 0.299999
    endloop
  endfacet
  facet normal 0.6786 -0.678598 -0.281081
    outer loop
      vertex 0.353874 -11.7058 0.299999
      vertex 0.3 -11.7597 0.299999
      vertex 0.391969 -11.6296 0.208031
    endloop
  endfacet
  facet normal 0.6786 0.678598 -0.281081
    outer loop
      vertex 0.391969 -11.1704 0.208031
      vertex 0.3 -11.0403 0.299999
      vertex 0.353874 -11.0942 0.299999
    endloop
  endfacet
  facet normal -0.6786 0.678598 -0.281081
    outer loop
      vertex -0.3 -11.0403 0.299999
      vertex -0.391969 -11.1704 0.208031
      vertex -0.353874 -11.0942 0.299999
    endloop
  endfacet
  facet normal -0.281081 0.678598 -0.6786
    outer loop
      vertex -0.169938 -10.9865 0.299999
      vertex -0.391969 -11.1704 0.208031
      vertex -0.3 -11.0403 0.299999
    endloop
  endfacet
  facet normal -1 0 0
    outer loop
      vertex -4.25 -12 0.299999
      vertex -4.25 -1.072 0.308777
      vertex -4.25 -1.06323 0.299999
    endloop
  endfacet
  facet normal -1 -0 0
    outer loop
      vertex -4.25 -1.072 0.308777
      vertex -4.25 -12 0.299999
      vertex -4.25 -12 0.308777
    endloop
  endfacet
  facet normal -1 0 0
    outer loop
      vertex -4.25 6.66132e-17 0.299999
      vertex -4.25 -0.127995 0.308777
      vertex -4.25 6.85623e-17 0.308777
    endloop
  endfacet
  facet normal -1 0 -0
    outer loop
      vertex -4.25 -0.127995 0.308777
      vertex -4.25 6.66132e-17 0.299999
      vertex -4.25 -0.136773 0.299999
    endloop
  endfacet
  facet normal 1 0 0
    outer loop
      vertex 4.25 -12 0.299999
      vertex 4.25 -1.072 0.308777
      vertex 4.25 -12 0.308777
    endloop
  endfacet
  facet normal 1 0 0
    outer loop
      vertex 4.25 -1.072 0.308777
      vertex 4.25 -12 0.299999
      vertex 4.25 -1.06323 0.299999
    endloop
  endfacet
  facet normal 1 -0 0
    outer loop
      vertex 4.25 -0.127995 0.308777
      vertex 4.25 6.66132e-17 0.299999
      vertex 4.25 6.85623e-17 0.308777
    endloop
  endfacet
  facet normal 1 0 0
    outer loop
      vertex 4.25 6.66132e-17 0.299999
      vertex 4.25 -0.127995 0.308777
      vertex 4.25 -0.136773 0.299999
    endloop
  endfacet
  facet normal -0 0 1
    outer loop
      vertex -2.45924 4.66294e-16 2.1
      vertex 2.45924 -12 2.1
      vertex 2.45924 4.66294e-16 2.1
    endloop
  endfacet
  facet normal 0 0 1
    outer loop
      vertex 2.45924 -12 2.1
      vertex -2.45924 4.66294e-16 2.1
      vertex -2.45924 -12 2.1
    endloop
  endfacet
  facet normal 0 0 -1
    outer loop
      vertex 4.25 -12 0.299999
      vertex 4.2 -1.08394 0.299999
      vertex 4.25 -1.06323 0.299999
    endloop
  endfacet
  facet normal 0 0 -1
    outer loop
      vertex 0.3 -11.0403 0.299999
      vertex 4.2 -1.08394 0.299999
      vertex 4.25 -12 0.299999
    endloop
  endfacet
  facet normal 0 0 -1
    outer loop
      vertex 0.169938 -10.9865 0.299999
      vertex 4.2 -1.08394 0.299999
      vertex 0.3 -11.0403 0.299999
    endloop
  endfacet
  facet normal -0 0 -1
    outer loop
      vertex 4.2 -1.08394 0.299999
      vertex 0.169938 -10.9865 0.299999
      vertex 4.09465 -1.0403 0.299999
    endloop
  endfacet
  facet normal 0 0 -1
    outer loop
      vertex 0 -10.9161 0.299999
      vertex 4.09465 -1.0403 0.299999
      vertex 0.169938 -10.9865 0.299999
    endloop
  endfacet
  facet normal 0 0 -1
    outer loop
      vertex 0.353874 -11.0942 0.299999
      vertex 4.25 -12 0.299999
      vertex 0.430063 -11.1704 0.299999
    endloop
  endfacet
  facet normal 0 0 -1
    outer loop
      vertex 0.430063 -11.1704 0.299999
      vertex 4.25 -12 0.299999
      vertex 0.430063 -11.6296 0.299999
    endloop
  endfacet
  facet normal 0 0 -1
    outer loop
      vertex 4.25 -12 0.299999
      vertex 0.353874 -11.7058 0.299999
      vertex 0.430063 -11.6296 0.299999
    endloop
  endfacet
  facet normal 0 0 -1
    outer loop
      vertex 4.25 -12 0.299999
      vertex 0.3 -11.7597 0.299999
      vertex 0.353874 -11.7058 0.299999
    endloop
  endfacet
  facet normal 0 0 -1
    outer loop
      vertex 4.25 -12 0.299999
      vertex 0.169938 -11.8135 0.299999
      vertex 0.3 -11.7597 0.299999
    endloop
  endfacet
  facet normal 0 0 -1
    outer loop
      vertex 4.25 -12 0.299999
      vertex 0 -11.8839 0.299999
      vertex 0.169938 -11.8135 0.299999
    endloop
  endfacet
  facet normal 0 0 -1
    outer loop
      vertex -4.25 -12 0.299999
      vertex -0.353874 -11.7058 0.299999
      vertex -0.3 -11.7597 0.299999
    endloop
  endfacet
  facet normal 0 0 -1
    outer loop
      vertex -4.25 -12 0.299999
      vertex -0.430063 -11.1704 0.299999
      vertex -0.430063 -11.6296 0.299999
    endloop
  endfacet
  facet normal 0 0 -1
    outer loop
      vertex -0.430063 -11.1704 0.299999
      vertex -3.84613 -0.905799 0.299999
      vertex -3.76994 -0.82961 0.299999
    endloop
  endfacet
  facet normal 0 0 -1
    outer loop
      vertex -0.430063 -11.1704 0.299999
      vertex -3.9 -0.959673 0.299999
      vertex -3.84613 -0.905799 0.299999
    endloop
  endfacet
  facet normal 0 0 -1
    outer loop
      vertex -0.430063 -11.1704 0.299999
      vertex -4.09465 -1.0403 0.299999
      vertex -3.9 -0.959673 0.299999
    endloop
  endfacet
  facet normal 0 0 -1
    outer loop
      vertex -0.430063 -11.1704 0.299999
      vertex -4.2 -1.08394 0.299999
      vertex -4.09465 -1.0403 0.299999
    endloop
  endfacet
  facet normal 0 0 -1
    outer loop
      vertex -4.25 -12 0.299999
      vertex 0 -11.8839 0.299999
      vertex 4.25 -12 0.299999
    endloop
  endfacet
  facet normal 0 0 -1
    outer loop
      vertex -4.25 -12 0.299999
      vertex -0.169938 -11.8135 0.299999
      vertex 0 -11.8839 0.299999
    endloop
  endfacet
  facet normal 0 0 -1
    outer loop
      vertex -4.25 -12 0.299999
      vertex -0.3 -11.7597 0.299999
      vertex -0.169938 -11.8135 0.299999
    endloop
  endfacet
  facet normal -0 0 -1
    outer loop
      vertex -0.353874 -11.7058 0.299999
      vertex -4.25 -12 0.299999
      vertex -0.430063 -11.6296 0.299999
    endloop
  endfacet
  facet normal -0 0 -1
    outer loop
      vertex -0.430063 -11.1704 0.299999
      vertex -4.25 -12 0.299999
      vertex -4.2 -1.08394 0.299999
    endloop
  endfacet
  facet normal -0 0 -1
    outer loop
      vertex -4.2 -1.08394 0.299999
      vertex -4.25 -12 0.299999
      vertex -4.25 -1.06323 0.299999
    endloop
  endfacet
  facet normal 0 0 -1
    outer loop
      vertex 4.2 -0.116062 0.299999
      vertex 4.25 6.66132e-17 0.299999
      vertex 4.25 -0.136773 0.299999
    endloop
  endfacet
  facet normal 0 0 -1
    outer loop
      vertex 4.09465 -0.159698 0.299999
      vertex 4.25 6.66132e-17 0.299999
      vertex 4.2 -0.116062 0.299999
    endloop
  endfacet
  facet normal 0 0 -1
    outer loop
      vertex 3.9 -0.240327 0.299999
      vertex 4.25 6.66132e-17 0.299999
      vertex 4.09465 -0.159698 0.299999
    endloop
  endfacet
  facet normal 0 0 -1
    outer loop
      vertex -3.76994 -0.37039 0.299999
      vertex 3.84613 -0.2942 0.299999
      vertex 3.76994 -0.37039 0.299999
    endloop
  endfacet
  facet normal 0 0 -1
    outer loop
      vertex 0.3 -11.0403 0.299999
      vertex 4.25 -12 0.299999
      vertex 0.353874 -11.0942 0.299999
    endloop
  endfacet
  facet normal -0 0 -1
    outer loop
      vertex 4.09465 -1.0403 0.299999
      vertex 0 -10.9161 0.299999
      vertex 3.9 -0.959673 0.299999
    endloop
  endfacet
  facet normal 0 0 -1
    outer loop
      vertex -3.76994 -0.82961 0.299999
      vertex 3.9 -0.959673 0.299999
      vertex 0 -10.9161 0.299999
    endloop
  endfacet
  facet normal 0 0 -1
    outer loop
      vertex 3.9 -0.959673 0.299999
      vertex -3.76994 -0.82961 0.299999
      vertex 3.84613 -0.905799 0.299999
    endloop
  endfacet
  facet normal 0 0 -1
    outer loop
      vertex 3.84613 -0.905799 0.299999
      vertex -3.76994 -0.82961 0.299999
      vertex 3.76994 -0.82961 0.299999
    endloop
  endfacet
  facet normal 0 0 -1
    outer loop
      vertex -3.76994 -0.82961 0.299999
      vertex 0 -10.9161 0.299999
      vertex -0.169938 -10.9865 0.299999
    endloop
  endfacet
  facet normal 0 0 -1
    outer loop
      vertex -3.76994 -0.82961 0.299999
      vertex -0.169938 -10.9865 0.299999
      vertex -0.3 -11.0403 0.299999
    endloop
  endfacet
  facet normal 0 0 -1
    outer loop
      vertex -3.76994 -0.82961 0.299999
      vertex -0.3 -11.0403 0.299999
      vertex -0.353874 -11.0942 0.299999
    endloop
  endfacet
  facet normal 0 0 -1
    outer loop
      vertex -3.76994 -0.82961 0.299999
      vertex -0.353874 -11.0942 0.299999
      vertex -0.430063 -11.1704 0.299999
    endloop
  endfacet
  facet normal 0 0 -1
    outer loop
      vertex 3.76994 -0.82961 0.299999
      vertex -3.76994 -0.82961 0.299999
      vertex 3.76994 -0.37039 0.299999
    endloop
  endfacet
  facet normal 0 0 -1
    outer loop
      vertex -3.76994 -0.37039 0.299999
      vertex 3.76994 -0.37039 0.299999
      vertex -3.76994 -0.82961 0.299999
    endloop
  endfacet
  facet normal 0 0 -1
    outer loop
      vertex -3.84613 -0.2942 0.299999
      vertex 3.84613 -0.2942 0.299999
      vertex -3.76994 -0.37039 0.299999
    endloop
  endfacet
  facet normal 0 0 -1
    outer loop
      vertex 3.84613 -0.2942 0.299999
      vertex -3.84613 -0.2942 0.299999
      vertex 3.9 -0.240327 0.299999
    endloop
  endfacet
  facet normal 0 0 -1
    outer loop
      vertex -3.9 -0.240327 0.299999
      vertex 3.9 -0.240327 0.299999
      vertex -3.84613 -0.2942 0.299999
    endloop
  endfacet
  facet normal 0 0 -1
    outer loop
      vertex 3.9 -0.240327 0.299999
      vertex -3.9 -0.240327 0.299999
      vertex 4.25 6.66132e-17 0.299999
    endloop
  endfacet
  facet normal 0 0 -1
    outer loop
      vertex -4.25 6.66132e-17 0.299999
      vertex -3.9 -0.240327 0.299999
      vertex -4.09465 -0.159698 0.299999
    endloop
  endfacet
  facet normal 0 0 -1
    outer loop
      vertex -4.25 6.66132e-17 0.299999
      vertex -4.09465 -0.159698 0.299999
      vertex -4.2 -0.116062 0.299999
    endloop
  endfacet
  facet normal 0 0 -1
    outer loop
      vertex -3.9 -0.240327 0.299999
      vertex -4.25 6.66132e-17 0.299999
      vertex 4.25 6.66132e-17 0.299999
    endloop
  endfacet
  facet normal 0 0 -1
    outer loop
      vertex -4.25 6.66132e-17 0.299999
      vertex -4.2 -0.116062 0.299999
      vertex -4.25 -0.136773 0.299999
    endloop
  endfacet
endsolid OpenSCAD_Model
