solid OpenSCAD_Model
  facet normal -1 0 0
    outer loop
      vertex 2.5 -10.5 -29.6272
      vertex 2.5 -1.5 -29.5772
      vertex 2.5 -1.5 -29.6272
    endloop
  endfacet
  facet normal -1 -0 0
    outer loop
      vertex 2.5 -1.5 -29.5772
      vertex 2.5 -10.5 -29.6272
      vertex 2.5 -10.5 -29.5772
    endloop
  endfacet
  facet normal -0.707107 0.707107 1.82076e-008
    outer loop
      vertex 2.5 -1.5 -29.6272
      vertex 3.975 -0.0249996 -29.6772
      vertex 3.99286 -0.00713965 -31.0703
    endloop
  endfacet
  facet normal -0.707107 0.707107 0
    outer loop
      vertex 2.5 -1.5 -29.6272
      vertex 3.975 -0.0249996 -29.5772
      vertex 3.975 -0.0249996 -29.6772
    endloop
  endfacet
  facet normal -0.707107 0.707107 0
    outer loop
      vertex 3.975 -0.0249996 -29.5772
      vertex 2.5 -1.5 -29.6272
      vertex 2.5 -1.5 -29.5772
    endloop
  endfacet
  facet normal -0.695022 0 -0.718988
    outer loop
      vertex 2.5 -10.5 -29.6272
      vertex 4 -0.00705117 -31.0772
      vertex 4 -12 -31.0772
    endloop
  endfacet
  facet normal -0.695022 -0 -0.718988
    outer loop
      vertex 2.5 -1.5 -29.6272
      vertex 4 -0.00705117 -31.0772
      vertex 2.5 -10.5 -29.6272
    endloop
  endfacet
  facet normal -0.694974 -9.32008e-005 -0.719035
    outer loop
      vertex 4 -0.00705117 -31.0772
      vertex 2.5 -1.5 -29.6272
      vertex 3.99286 -0.00713965 -31.0703
    endloop
  endfacet
  facet normal 1 -0 0
    outer loop
      vertex 6 -12 -29.5772
      vertex 6 -7.78778e-015 -31.5772
      vertex 6 0.0249996 -29.5772
    endloop
  endfacet
  facet normal 1 0 0
    outer loop
      vertex 6 -7.78778e-015 -31.5772
      vertex 6 -12 -29.5772
      vertex 6 -14 -31.5772
    endloop
  endfacet
  facet normal 1 0 0
    outer loop
      vertex 6 -7.78778e-015 -31.5772
      vertex 6 2 -31.5272
      vertex 6 0.0249996 -29.5772
    endloop
  endfacet
  facet normal 1 0 0
    outer loop
      vertex 6 2 -31.5272
      vertex 6 -7.78778e-015 -31.5772
      vertex 6 2 -31.6272
    endloop
  endfacet
  facet normal 1 0 0
    outer loop
      vertex 6 2 -31.6272
      vertex 6 -7.78778e-015 -31.5772
      vertex 6 -7.79992e-015 -31.6272
    endloop
  endfacet
  facet normal -0 0 1
    outer loop
      vertex 2.5 -10.5 -29.5772
      vertex 6 -12 -29.5772
      vertex 6 0.0249996 -29.5772
    endloop
  endfacet
  facet normal 0 0 1
    outer loop
      vertex 2.5 -1.5 -29.5772
      vertex 6 0.0249996 -29.5772
      vertex 3.975 -0.0249996 -29.5772
    endloop
  endfacet
  facet normal -0 0 1
    outer loop
      vertex 1.5 0.0249996 -29.5772
      vertex 3.975 -0.0249996 -29.5772
      vertex 6 0.0249996 -29.5772
    endloop
  endfacet
  facet normal 0 0 1
    outer loop
      vertex 3.975 -0.0249996 -29.5772
      vertex 1.5 0.0249996 -29.5772
      vertex 1.5 -0.0249996 -29.5772
    endloop
  endfacet
  facet normal 0 0 1
    outer loop
      vertex 2.5 -10.5 -29.5772
      vertex 6 0.0249996 -29.5772
      vertex 2.5 -1.5 -29.5772
    endloop
  endfacet
  facet normal 0 0 1
    outer loop
      vertex 6 -12 -29.5772
      vertex 2.5 -10.5 -29.5772
      vertex 4 -12 -29.5772
    endloop
  endfacet
  facet normal 0 0 1
    outer loop
      vertex -1.5 0.0249996 -29.5772
      vertex -3.975 -0.0249996 -29.5772
      vertex -1.5 -0.0249996 -29.5772
    endloop
  endfacet
  facet normal -0 0 1
    outer loop
      vertex -6 0.0249996 -29.5772
      vertex -3.975 -0.0249996 -29.5772
      vertex -1.5 0.0249996 -29.5772
    endloop
  endfacet
  facet normal 0 0 1
    outer loop
      vertex -6 -12 -29.5772
      vertex -2.5 -10.5 -29.5772
      vertex -6 0.0249996 -29.5772
    endloop
  endfacet
  facet normal 0 0 1
    outer loop
      vertex -2.5 -10.5 -29.5772
      vertex -6 -12 -29.5772
      vertex -4 -12 -29.5772
    endloop
  endfacet
  facet normal 0 0 1
    outer loop
      vertex -6 0.0249996 -29.5772
      vertex -2.5 -1.5 -29.5772
      vertex -3.975 -0.0249996 -29.5772
    endloop
  endfacet
  facet normal 0 0 1
    outer loop
      vertex -2.5 -1.5 -29.5772
      vertex -6 0.0249996 -29.5772
      vertex -2.5 -10.5 -29.5772
    endloop
  endfacet
  facet normal -0.707107 -0.707107 -0
    outer loop
      vertex 4 -12 -29.5772
      vertex 2.5 -10.5 -29.6272
      vertex 4 -12 -31.0772
    endloop
  endfacet
  facet normal -0.707107 -0.707107 0
    outer loop
      vertex 2.5 -10.5 -29.6272
      vertex 4 -12 -29.5772
      vertex 2.5 -10.5 -29.5772
    endloop
  endfacet
  facet normal -1 0 0
    outer loop
      vertex 4 -0.00128202 -31.5272
      vertex 4 -12 -31.0772
      vertex 4 -0.00705117 -31.0772
    endloop
  endfacet
  facet normal -1 -0 0
    outer loop
      vertex 4 -12 -31.0772
      vertex 4 -13.95 -31.5272
      vertex 4 -12 -29.5772
    endloop
  endfacet
  facet normal -1 0 0
    outer loop
      vertex 4 -13.95 -31.5272
      vertex 4 -12 -31.0772
      vertex 4 -0.00128202 -31.5272
    endloop
  endfacet
  facet normal -1 0 0
    outer loop
      vertex 4 0.75 -31.5772
      vertex 4 1.25 -31.1022
      vertex 4 1.25 -31.5772
    endloop
  endfacet
  facet normal -1 -0 0
    outer loop
      vertex 4 1.25 -31.1022
      vertex 4 0.75 -31.5772
      vertex 4 0.75 -31.1022
    endloop
  endfacet
  facet normal 0 1 -0
    outer loop
      vertex 6 2 -31.5772
      vertex 4 2 -31.5272
      vertex 6 2 -31.5272
    endloop
  endfacet
  facet normal 0 1 0
    outer loop
      vertex 4 2 -31.5272
      vertex 6 2 -31.5772
      vertex 4 2 -31.5772
    endloop
  endfacet
  facet normal 0 0 0
    outer loop
      vertex 6 2 -31.5772
      vertex 6 2 -31.5272
      vertex 6 2 -31.6272
    endloop
  endfacet
  facet normal 0 1 -0
    outer loop
      vertex -4 2 -31.5772
      vertex -6 2 -31.5272
      vertex -4 2 -31.5272
    endloop
  endfacet
  facet normal 0 1 0
    outer loop
      vertex -6 2 -31.5272
      vertex -4 2 -31.5772
      vertex -6 2 -31.5772
    endloop
  endfacet
  facet normal 0 -0.707107 0.707107
    outer loop
      vertex 4 -13.95 -31.5272
      vertex 6 -12 -29.5772
      vertex 4 -12 -29.5772
    endloop
  endfacet
  facet normal 0 -0.707107 0.707107
    outer loop
      vertex 6 -14 -31.5772
      vertex 4 -13.95 -31.5272
      vertex 4 -14 -31.5772
    endloop
  endfacet
  facet normal 0 -0.707107 0.707107
    outer loop
      vertex 4 -13.95 -31.5272
      vertex 6 -14 -31.5772
      vertex 6 -12 -29.5772
    endloop
  endfacet
  facet normal 1 -0 0
    outer loop
      vertex -2.5 -10.5 -29.5772
      vertex -2.5 -1.5 -29.6272
      vertex -2.5 -1.5 -29.5772
    endloop
  endfacet
  facet normal 1 0 0
    outer loop
      vertex -2.5 -1.5 -29.6272
      vertex -2.5 -10.5 -29.5772
      vertex -2.5 -10.5 -29.6272
    endloop
  endfacet
  facet normal 0.707107 0.707107 -0
    outer loop
      vertex -2.5 -1.5 -29.6272
      vertex -3.975 -0.0249996 -29.5772
      vertex -2.5 -1.5 -29.5772
    endloop
  endfacet
  facet normal 0.707107 0.707107 0
    outer loop
      vertex -3.975 -0.0249996 -29.5772
      vertex -2.5 -1.5 -29.6272
      vertex -3.975 -0.0249996 -29.6772
    endloop
  endfacet
  facet normal 0.707107 0.707107 1.82076e-008
    outer loop
      vertex -3.975 -0.0249996 -29.6772
      vertex -2.5 -1.5 -29.6272
      vertex -3.99286 -0.00713965 -31.0703
    endloop
  endfacet
  facet normal 0.695022 0 -0.718988
    outer loop
      vertex -4 -0.00705117 -31.0772
      vertex -2.5 -1.5 -29.6272
      vertex -2.5 -10.5 -29.6272
    endloop
  endfacet
  facet normal 0.695022 0 -0.718988
    outer loop
      vertex -4 -0.00705117 -31.0772
      vertex -2.5 -10.5 -29.6272
      vertex -4 -12 -31.0772
    endloop
  endfacet
  facet normal 0.694974 -9.32008e-005 -0.719035
    outer loop
      vertex -2.5 -1.5 -29.6272
      vertex -4 -0.00705117 -31.0772
      vertex -3.99286 -0.00713965 -31.0703
    endloop
  endfacet
  facet normal -1 0 0
    outer loop
      vertex -6 -6.31825e-015 -31.5772
      vertex -6 2 -31.5272
      vertex -6 2 -31.5772
    endloop
  endfacet
  facet normal -1 -0 0
    outer loop
      vertex -6 2 -31.5272
      vertex -6 -6.31825e-015 -31.5772
      vertex -6 0.0249996 -29.5772
    endloop
  endfacet
  facet normal -1 0 0
    outer loop
      vertex -6 -6.31825e-015 -31.5772
      vertex -6 -12 -29.5772
      vertex -6 0.0249996 -29.5772
    endloop
  endfacet
  facet normal -1 0 0
    outer loop
      vertex -6 -6.33039e-015 -31.6272
      vertex -6 -12 -29.5772
      vertex -6 -6.31825e-015 -31.5772
    endloop
  endfacet
  facet normal -1 0 0
    outer loop
      vertex -6 -14 -31.6272
      vertex -6 -12 -29.5772
      vertex -6 -6.33039e-015 -31.6272
    endloop
  endfacet
  facet normal -1 0 0
    outer loop
      vertex -6 -12 -29.5772
      vertex -6 -14 -31.6272
      vertex -6 -14 -31.5772
    endloop
  endfacet
  facet normal 0.707107 -0.707107 0
    outer loop
      vertex -4 -12 -29.5772
      vertex -2.5 -10.5 -29.6272
      vertex -2.5 -10.5 -29.5772
    endloop
  endfacet
  facet normal 0.707107 -0.707107 0
    outer loop
      vertex -2.5 -10.5 -29.6272
      vertex -4 -12 -29.5772
      vertex -4 -12 -31.0772
    endloop
  endfacet
  facet normal 1 0 0
    outer loop
      vertex -4 -12 -29.5772
      vertex -4 -14 -31.5772
      vertex -4 -12 -31.0772
    endloop
  endfacet
  facet normal 1 -0 0
    outer loop
      vertex -4 -12 -31.0772
      vertex -4 -0.000641016 -31.5772
      vertex -4 -0.00705117 -31.0772
    endloop
  endfacet
  facet normal 1 0 0
    outer loop
      vertex -4 -0.000641016 -31.5772
      vertex -4 -12 -31.0772
      vertex -4 -14 -31.5772
    endloop
  endfacet
  facet normal 1 -0 0
    outer loop
      vertex -4 0.75 -31.1022
      vertex -4 1.25 -31.5272
      vertex -4 1.25 -31.1022
    endloop
  endfacet
  facet normal 1 0 0
    outer loop
      vertex -4 1.25 -31.5272
      vertex -4 0.75 -31.1022
      vertex -4 0.75 -31.5272
    endloop
  endfacet
  facet normal 0 -0.707107 0.707107
    outer loop
      vertex -6 -14 -31.5772
      vertex -4 -12 -29.5772
      vertex -6 -12 -29.5772
    endloop
  endfacet
  facet normal 0 -0.707107 0.707107
    outer loop
      vertex -4 -12 -29.5772
      vertex -6 -14 -31.5772
      vertex -4 -14 -31.5772
    endloop
  endfacet
  facet normal 0 0.702593 0.711592
    outer loop
      vertex -4 2 -31.5272
      vertex -6 2 -31.5272
      vertex -4 1.95 -31.4778
    endloop
  endfacet
  facet normal 0 0.702589 0.711596
    outer loop
      vertex 4 1.95 -31.4778
      vertex -1.5 1.59487 -31.1272
      vertex 1.5 1.59487 -31.1272
    endloop
  endfacet
  facet normal -0 0.702589 0.711596
    outer loop
      vertex -4 1.95 -31.4778
      vertex -1.5 1.59487 -31.1272
      vertex 4 1.95 -31.4778
    endloop
  endfacet
  facet normal -7.03203e-008 0.702589 0.711596
    outer loop
      vertex -4 1.95 -31.4778
      vertex -1.5 0.0249996 -29.5772
      vertex -1.5 1.59487 -31.1272
    endloop
  endfacet
  facet normal -2.19867e-007 0.702589 0.711596
    outer loop
      vertex -6 0.0249996 -29.5772
      vertex -4 1.95 -31.4778
      vertex -6 2 -31.5272
    endloop
  endfacet
  facet normal 0 0.702589 0.711596
    outer loop
      vertex -4 1.95 -31.4778
      vertex -6 0.0249996 -29.5772
      vertex -1.5 0.0249996 -29.5772
    endloop
  endfacet
  facet normal 0 0.702593 0.711592
    outer loop
      vertex 4 1.95 -31.4778
      vertex 6 2 -31.5272
      vertex 4 2 -31.5272
    endloop
  endfacet
  facet normal 2.19867e-007 0.702589 0.711596
    outer loop
      vertex 6 2 -31.5272
      vertex 4 1.95 -31.4778
      vertex 6 0.0249996 -29.5772
    endloop
  endfacet
  facet normal 7.03203e-008 0.702589 0.711596
    outer loop
      vertex 1.5 0.0249996 -29.5772
      vertex 4 1.95 -31.4778
      vertex 1.5 1.59487 -31.1272
    endloop
  endfacet
  facet normal 0 0.702589 0.711596
    outer loop
      vertex 4 1.95 -31.4778
      vertex 1.5 0.0249996 -29.5772
      vertex 6 0.0249996 -29.5772
    endloop
  endfacet
  facet normal 0 -0.999918 -0.0128193
    outer loop
      vertex -3.99286 -0.00713965 -31.0703
      vertex -1.5 -0.0249996 -29.6772
      vertex -3.975 -0.0249996 -29.6772
    endloop
  endfacet
  facet normal -1.61894e-006 -0.999918 -0.0128192
    outer loop
      vertex -4 -0.00128202 -31.5272
      vertex -3.99286 -0.00713965 -31.0703
      vertex -4 -0.00705117 -31.0772
    endloop
  endfacet
  facet normal 4.34348e-009 -0.999918 -0.0128193
    outer loop
      vertex -3.99286 -0.00713965 -31.0703
      vertex -1.5 -0.00641016 -31.1272
      vertex -1.5 -0.0249996 -29.6772
    endloop
  endfacet
  facet normal 0 -0.999918 -0.0128192
    outer loop
      vertex -1.5 -0.00641016 -31.1272
      vertex -4 -0.00128202 -31.5272
      vertex 1.5 -0.00641016 -31.1272
    endloop
  endfacet
  facet normal 4.46338e-009 -0.999918 -0.0128193
    outer loop
      vertex -3.99286 -0.00713965 -31.0703
      vertex -4 -0.00128202 -31.5272
      vertex -1.5 -0.00641016 -31.1272
    endloop
  endfacet
  facet normal 0 -0.999918 -0.0128193
    outer loop
      vertex 1.5 -0.0249996 -29.6772
      vertex 3.99286 -0.00713965 -31.0703
      vertex 3.975 -0.0249996 -29.6772
    endloop
  endfacet
  facet normal -4.34348e-009 -0.999918 -0.0128193
    outer loop
      vertex 1.5 -0.00641016 -31.1272
      vertex 3.99286 -0.00713965 -31.0703
      vertex 1.5 -0.0249996 -29.6772
    endloop
  endfacet
  facet normal -4.46338e-009 -0.999918 -0.0128193
    outer loop
      vertex 4 -0.00128202 -31.5272
      vertex 3.99286 -0.00713965 -31.0703
      vertex 1.5 -0.00641016 -31.1272
    endloop
  endfacet
  facet normal -0 -0.999918 -0.0128192
    outer loop
      vertex 4 -0.00128202 -31.5272
      vertex 1.5 -0.00641016 -31.1272
      vertex -4 -0.00128202 -31.5272
    endloop
  endfacet
  facet normal 1.61894e-006 -0.999918 -0.0128192
    outer loop
      vertex 3.99286 -0.00713965 -31.0703
      vertex 4 -0.00128202 -31.5272
      vertex 4 -0.00705117 -31.0772
    endloop
  endfacet
  facet normal -1 0 0
    outer loop
      vertex -4 -0.00128202 -31.5272
      vertex -4 -0.00705117 -31.0772
      vertex -4 -0.000641016 -31.5772
    endloop
  endfacet
  facet normal 0 -1 0
    outer loop
      vertex 1.5 -0.0249996 -29.6772
      vertex 3.975 -0.0249996 -29.5772
      vertex 1.5 -0.0249996 -29.5772
    endloop
  endfacet
  facet normal 0 -1 -0
    outer loop
      vertex 3.975 -0.0249996 -29.5772
      vertex 1.5 -0.0249996 -29.6772
      vertex 3.975 -0.0249996 -29.6772
    endloop
  endfacet
  facet normal 0 -1 0
    outer loop
      vertex -3.975 -0.0249996 -29.6772
      vertex -1.5 -0.0249996 -29.5772
      vertex -3.975 -0.0249996 -29.5772
    endloop
  endfacet
  facet normal 0 -1 -0
    outer loop
      vertex -1.5 -0.0249996 -29.5772
      vertex -3.975 -0.0249996 -29.6772
      vertex -1.5 -0.0249996 -29.6772
    endloop
  endfacet
  facet normal -1 0 0
    outer loop
      vertex 1.5 -0.00641016 -31.1272
      vertex 1.5 0.75 -31.1022
      vertex 1.5 0.75 -31.1272
    endloop
  endfacet
  facet normal -1 -0 0
    outer loop
      vertex 1.5 0.75 -31.1022
      vertex 1.5 -0.00641016 -31.1272
      vertex 1.5 -0.0249996 -29.6772
    endloop
  endfacet
  facet normal -1 0 0
    outer loop
      vertex 1.5 0.75 -31.1022
      vertex 1.5 -0.0249996 -29.6772
      vertex 1.5 0.0249996 -29.5772
    endloop
  endfacet
  facet normal -1 -0 0
    outer loop
      vertex 1.5 0.0249996 -29.5772
      vertex 1.5 -0.0249996 -29.6772
      vertex 1.5 -0.0249996 -29.5772
    endloop
  endfacet
  facet normal -1 0 0
    outer loop
      vertex 1.5 1.25 -31.1022
      vertex 1.5 1.59487 -31.1272
      vertex 1.5 1.25 -31.1272
    endloop
  endfacet
  facet normal -1 0 0
    outer loop
      vertex 1.5 1.25 -31.1022
      vertex 1.5 0.0249996 -29.5772
      vertex 1.5 1.59487 -31.1272
    endloop
  endfacet
  facet normal -1 0 0
    outer loop
      vertex 1.5 0.0249996 -29.5772
      vertex 1.5 1.25 -31.1022
      vertex 1.5 0.75 -31.1022
    endloop
  endfacet
  facet normal 1 0 0
    outer loop
      vertex -1.5 0.0249996 -29.5772
      vertex -1.5 1.25 -31.1022
      vertex -1.5 1.59487 -31.1272
    endloop
  endfacet
  facet normal 1 0 0
    outer loop
      vertex -1.5 0.0249996 -29.5772
      vertex -1.5 0.75 -31.1022
      vertex -1.5 1.25 -31.1022
    endloop
  endfacet
  facet normal 1 -0 0
    outer loop
      vertex -1.5 -0.0249996 -29.6772
      vertex -1.5 0.75 -31.1022
      vertex -1.5 0.0249996 -29.5772
    endloop
  endfacet
  facet normal 1 0 -0
    outer loop
      vertex -1.5 -0.00641016 -31.1272
      vertex -1.5 0.75 -31.1022
      vertex -1.5 -0.0249996 -29.6772
    endloop
  endfacet
  facet normal 1 0 0
    outer loop
      vertex -1.5 -0.0249996 -29.6772
      vertex -1.5 0.0249996 -29.5772
      vertex -1.5 -0.0249996 -29.5772
    endloop
  endfacet
  facet normal 1 0 0
    outer loop
      vertex -1.5 0.75 -31.1022
      vertex -1.5 -0.00641016 -31.1272
      vertex -1.5 0.75 -31.1272
    endloop
  endfacet
  facet normal 1 0 0
    outer loop
      vertex -1.5 1.59487 -31.1272
      vertex -1.5 1.25 -31.1022
      vertex -1.5 1.25 -31.1272
    endloop
  endfacet
  facet normal -0 0 1
    outer loop
      vertex -1.5 1.59487 -31.1272
      vertex 1.5 1.25 -31.1272
      vertex 1.5 1.59487 -31.1272
    endloop
  endfacet
  facet normal 0 0 1
    outer loop
      vertex 1.5 1.25 -31.1272
      vertex -1.5 1.59487 -31.1272
      vertex -1.5 1.25 -31.1272
    endloop
  endfacet
  facet normal -0 0 1
    outer loop
      vertex -1.5 0.75 -31.1272
      vertex 1.5 -0.00641016 -31.1272
      vertex 1.5 0.75 -31.1272
    endloop
  endfacet
  facet normal 0 0 1
    outer loop
      vertex 1.5 -0.00641016 -31.1272
      vertex -1.5 0.75 -31.1272
      vertex -1.5 -0.00641016 -31.1272
    endloop
  endfacet
  facet normal 0 0 -1
    outer loop
      vertex 1.5 0.75 -31.1022
      vertex 4 1.25 -31.1022
      vertex 4 0.75 -31.1022
    endloop
  endfacet
  facet normal -0 0 -1
    outer loop
      vertex 4 1.25 -31.1022
      vertex 1.5 0.75 -31.1022
      vertex 1.5 1.25 -31.1022
    endloop
  endfacet
  facet normal 0 0 -1
    outer loop
      vertex -4 0.75 -31.1022
      vertex -1.5 1.25 -31.1022
      vertex -1.5 0.75 -31.1022
    endloop
  endfacet
  facet normal -0 0 -1
    outer loop
      vertex -1.5 1.25 -31.1022
      vertex -4 0.75 -31.1022
      vertex -4 1.25 -31.1022
    endloop
  endfacet
  facet normal 0 -1 0
    outer loop
      vertex -4 1.25 -31.1022
      vertex -1.5 1.25 -31.1272
      vertex -1.5 1.25 -31.1022
    endloop
  endfacet
  facet normal 0 -1 -0
    outer loop
      vertex -1.5 1.25 -31.1272
      vertex -4 1.25 -31.5272
      vertex 1.5 1.25 -31.1272
    endloop
  endfacet
  facet normal 0 -1 0
    outer loop
      vertex -4 1.25 -31.5272
      vertex -1.5 1.25 -31.1272
      vertex -4 1.25 -31.1022
    endloop
  endfacet
  facet normal 0 -1 0
    outer loop
      vertex 1.5 1.25 -31.1272
      vertex 4 1.25 -31.1022
      vertex 1.5 1.25 -31.1022
    endloop
  endfacet
  facet normal 0 -1 0
    outer loop
      vertex 4 1.25 -31.5272
      vertex 1.5 1.25 -31.1272
      vertex -4 1.25 -31.5272
    endloop
  endfacet
  facet normal 0 -1 0
    outer loop
      vertex 1.5 1.25 -31.1272
      vertex 4 1.25 -31.5272
      vertex 4 1.25 -31.1022
    endloop
  endfacet
  facet normal 0 0 0
    outer loop
      vertex 4 1.25 -31.1022
      vertex 4 1.25 -31.5272
      vertex 4 1.25 -31.5772
    endloop
  endfacet
  facet normal 0 1 0
    outer loop
      vertex 4 0.75 -31.1022
      vertex 1.5 0.75 -31.1272
      vertex 1.5 0.75 -31.1022
    endloop
  endfacet
  facet normal 0 1 0
    outer loop
      vertex 1.5 0.75 -31.1272
      vertex 4 0.75 -31.5272
      vertex -1.5 0.75 -31.1272
    endloop
  endfacet
  facet normal 0 1 -0
    outer loop
      vertex 4 0.75 -31.5272
      vertex 1.5 0.75 -31.1272
      vertex 4 0.75 -31.1022
    endloop
  endfacet
  facet normal 0 1 -0
    outer loop
      vertex -1.5 0.75 -31.1272
      vertex -4 0.75 -31.1022
      vertex -1.5 0.75 -31.1022
    endloop
  endfacet
  facet normal 0 1 0
    outer loop
      vertex -4 0.75 -31.5272
      vertex -1.5 0.75 -31.1272
      vertex 4 0.75 -31.5272
    endloop
  endfacet
  facet normal 0 1 0
    outer loop
      vertex -1.5 0.75 -31.1272
      vertex -4 0.75 -31.5272
      vertex -4 0.75 -31.1022
    endloop
  endfacet
  facet normal 0 0 0
    outer loop
      vertex 4 0.75 -31.5272
      vertex 4 0.75 -31.1022
      vertex 4 0.75 -31.5772
    endloop
  endfacet
  facet normal 1 0 0
    outer loop
      vertex -4 1.95 -31.5272
      vertex -4 2 -31.5272
      vertex -4 1.95 -31.4778
    endloop
  endfacet
  facet normal 1 -0 0
    outer loop
      vertex -4 -0.000641016 -31.5772
      vertex -4 2.05 -31.6156
      vertex -4 2 -31.5772
    endloop
  endfacet
  facet normal 1 0 0
    outer loop
      vertex -4 2 -31.5272
      vertex -4 1.95 -31.5272
      vertex -4 2 -31.5772
    endloop
  endfacet
  facet normal 1 0 0
    outer loop
      vertex -4 -0.000641016 -31.5772
      vertex -4 2 -31.5772
      vertex -4 1.95 -31.5272
    endloop
  endfacet
  facet normal 1 0 0
    outer loop
      vertex -4 2.05 -31.6156
      vertex -4 1.95 -42.5772
      vertex -4 2.05 -43.5772
    endloop
  endfacet
  facet normal 1 0 0
    outer loop
      vertex -4 2.05 -43.5772
      vertex -4 1.95 -42.5772
      vertex -4 1.95 -43.5772
    endloop
  endfacet
  facet normal 1 -0 0
    outer loop
      vertex -4 -20.05 -35.5772
      vertex -4 -20 -36.5772
      vertex -4 -14.05 -31.5772
    endloop
  endfacet
  facet normal 1 0 0
    outer loop
      vertex -4 -20.05 -35.5772
      vertex -4 -20.05 -36.5772
      vertex -4 -20 -36.5772
    endloop
  endfacet
  facet normal 1 0 0
    outer loop
      vertex -4 2.05 -31.6156
      vertex -4 -0.000641016 -31.5772
      vertex -4 1.95 -42.5772
    endloop
  endfacet
  facet normal 1 0 -0
    outer loop
      vertex -4 -0.000641016 -31.5772
      vertex -4 1.95 -31.5272
      vertex -4 -0.00128202 -31.5272
    endloop
  endfacet
  facet normal 1 -0 0
    outer loop
      vertex -4 -14.05 -31.5772
      vertex -4 1.95 -42.5772
      vertex -4 -0.000641016 -31.5772
    endloop
  endfacet
  facet normal 1 0 0
    outer loop
      vertex -4 -20 -42.5772
      vertex -4 -14.05 -31.5772
      vertex -4 -20 -36.5772
    endloop
  endfacet
  facet normal 1 0 0
    outer loop
      vertex -4 -14.05 -31.5772
      vertex -4 -20 -42.5772
      vertex -4 1.95 -42.5772
    endloop
  endfacet
  facet normal 0 0 1
    outer loop
      vertex 4 1.95 -42.5772
      vertex -4 1.95 -42.5772
      vertex 4 -20 -42.5772
    endloop
  endfacet
  facet normal 0 0 1
    outer loop
      vertex -4 -20 -42.5772
      vertex 4 -20 -42.5772
      vertex -4 1.95 -42.5772
    endloop
  endfacet
  facet normal -0 0 1
    outer loop
      vertex -4 -20 -42.5772
      vertex 5 -21 -42.5772
      vertex 4 -20 -42.5772
    endloop
  endfacet
  facet normal 0 0 1
    outer loop
      vertex 5 -21 -42.5772
      vertex -4 -20 -42.5772
      vertex -5 -21 -42.5772
    endloop
  endfacet
  facet normal 0 0 -1
    outer loop
      vertex -4 1.25 -31.5272
      vertex 4 1.95 -31.5272
      vertex 4 1.25 -31.5272
    endloop
  endfacet
  facet normal -0 0 -1
    outer loop
      vertex 4 1.95 -31.5272
      vertex -4 1.25 -31.5272
      vertex -4 1.95 -31.5272
    endloop
  endfacet
  facet normal 0 0 -1
    outer loop
      vertex -4 -0.00128202 -31.5272
      vertex 4 0.75 -31.5272
      vertex 4 -0.00128202 -31.5272
    endloop
  endfacet
  facet normal -0 0 -1
    outer loop
      vertex 4 0.75 -31.5272
      vertex -4 -0.00128202 -31.5272
      vertex -4 0.75 -31.5272
    endloop
  endfacet
  facet normal 0 0 0
    outer loop
      vertex 4 0.75 -31.5272
      vertex 4 -13.95 -31.5272
      vertex 4 -0.00128202 -31.5272
    endloop
  endfacet
  facet normal 0 0 0
    outer loop
      vertex -4 1.95 -31.5272
      vertex -4 1.25 -31.5272
      vertex -4 0.75 -31.5272
    endloop
  endfacet
  facet normal 0 0 0
    outer loop
      vertex -4 1.95 -31.5272
      vertex -4 0.75 -31.5272
      vertex -4 -0.00128202 -31.5272
    endloop
  endfacet
  facet normal -1 0 0
    outer loop
      vertex 4 2 -31.5772
      vertex 4 1.25 -31.5772
      vertex 4 1.95 -31.5272
    endloop
  endfacet
  facet normal -1 0 0
    outer loop
      vertex 4 1.95 -42.5772
      vertex 4 0.75 -31.5772
      vertex 4 1.25 -31.5772
    endloop
  endfacet
  facet normal -1 0 0
    outer loop
      vertex 4 0.75 -31.5772
      vertex 4 -13.95 -31.5272
      vertex 4 0.75 -31.5272
    endloop
  endfacet
  facet normal -1 0 0
    outer loop
      vertex 4 1.95 -42.5772
      vertex 4 -13.95 -31.5272
      vertex 4 0.75 -31.5772
    endloop
  endfacet
  facet normal -1 0 0
    outer loop
      vertex 4 1.95 -42.5772
      vertex 4 -14 -31.5772
      vertex 4 -13.95 -31.5272
    endloop
  endfacet
  facet normal -1 0 0
    outer loop
      vertex 4 -20 -42.5772
      vertex 4 -14 -31.5772
      vertex 4 1.95 -42.5772
    endloop
  endfacet
  facet normal -1 0 0
    outer loop
      vertex 4 -20 -36.5772
      vertex 4 -14 -31.5772
      vertex 4 -20 -42.5772
    endloop
  endfacet
  facet normal -1 -0 0
    outer loop
      vertex 4 -14 -31.5772
      vertex 4 -20 -36.5772
      vertex 4 -14.05 -31.5772
    endloop
  endfacet
  facet normal -1 0 0
    outer loop
      vertex 4 -20 -36.5772
      vertex 4 -20.05 -35.5772
      vertex 4 -14.05 -31.5772
    endloop
  endfacet
  facet normal -1 0 0
    outer loop
      vertex 4 -20.05 -36.5772
      vertex 4 -20.05 -35.5772
      vertex 4 -20 -36.5772
    endloop
  endfacet
  facet normal -1 0 0
    outer loop
      vertex 4 1.95 -42.5772
      vertex 4 2.05 -31.6156
      vertex 4 2.05 -43.5772
    endloop
  endfacet
  facet normal -1 0 0
    outer loop
      vertex 4 1.95 -42.5772
      vertex 4 2.05 -43.5772
      vertex 4 1.95 -43.5772
    endloop
  endfacet
  facet normal -1 0 0
    outer loop
      vertex 4 1.25 -31.5772
      vertex 4 2.05 -31.6156
      vertex 4 1.95 -42.5772
    endloop
  endfacet
  facet normal -1 0 0
    outer loop
      vertex 4 2.05 -31.6156
      vertex 4 1.25 -31.5772
      vertex 4 2 -31.5772
    endloop
  endfacet
  facet normal -1 0 0
    outer loop
      vertex 4 2 -31.5772
      vertex 4 1.95 -31.5272
      vertex 4 2 -31.5272
    endloop
  endfacet
  facet normal -1 0 0
    outer loop
      vertex 4 2 -31.5272
      vertex 4 1.95 -31.5272
      vertex 4 1.95 -31.4778
    endloop
  endfacet
  facet normal -1 -0 0
    outer loop
      vertex 4 1.95 -31.5272
      vertex 4 1.25 -31.5772
      vertex 4 1.25 -31.5272
    endloop
  endfacet
  facet normal 0 1 -0
    outer loop
      vertex 4 -20.05 -36.5772
      vertex -4 -20.05 -35.5772
      vertex 4 -20.05 -35.5772
    endloop
  endfacet
  facet normal 0 1 0
    outer loop
      vertex -4 -20.05 -35.5772
      vertex 4 -20.05 -36.5772
      vertex -4 -20.05 -36.5772
    endloop
  endfacet
  facet normal 1 -0 0
    outer loop
      vertex -5 -21.05 -36.5772
      vertex -5 -21 -42.5772
      vertex -5 -21 -36.5772
    endloop
  endfacet
  facet normal 1 0 0
    outer loop
      vertex -5 -21 -42.5772
      vertex -5 -21.05 -36.5772
      vertex -5 -21.05 -42.5772
    endloop
  endfacet
  facet normal 0 0 -1
    outer loop
      vertex 5 -21 -36.5772
      vertex -4 -20.05 -36.5772
      vertex 4 -20.05 -36.5772
    endloop
  endfacet
  facet normal -0 0 -1
    outer loop
      vertex -4 -20.05 -36.5772
      vertex -5 -21 -36.5772
      vertex -4 -20 -36.5772
    endloop
  endfacet
  facet normal 0 0 -1
    outer loop
      vertex -5 -21 -36.5772
      vertex -4 -20.05 -36.5772
      vertex 5 -21 -36.5772
    endloop
  endfacet
  facet normal 0 0 -1
    outer loop
      vertex 5 -21 -36.5772
      vertex 4 -20.05 -36.5772
      vertex 4 -20 -36.5772
    endloop
  endfacet
  facet normal 0.707107 -0.707107 0
    outer loop
      vertex -5 -21 -36.5772
      vertex -4 -20 -42.5772
      vertex -4 -20 -36.5772
    endloop
  endfacet
  facet normal 0.707107 -0.707107 0
    outer loop
      vertex -4 -20 -42.5772
      vertex -5 -21 -36.5772
      vertex -5 -21 -42.5772
    endloop
  endfacet
  facet normal -0.707107 -0.707107 0
    outer loop
      vertex 5 -21 -42.5772
      vertex 4 -20 -36.5772
      vertex 4 -20 -42.5772
    endloop
  endfacet
  facet normal -0.707107 -0.707107 0
    outer loop
      vertex 4 -20 -36.5772
      vertex 5 -21 -42.5772
      vertex 5 -21 -36.5772
    endloop
  endfacet
  facet normal -1 0 0
    outer loop
      vertex 5 -21.05 -42.5772
      vertex 5 -21 -36.5772
      vertex 5 -21 -42.5772
    endloop
  endfacet
  facet normal -1 -0 0
    outer loop
      vertex 5 -21 -36.5772
      vertex 5 -21.05 -42.5772
      vertex 5 -21.05 -36.5772
    endloop
  endfacet
  facet normal 0.0176743 -0 0.999844
    outer loop
      vertex -5 -21.05 -42.5772
      vertex -3.00105 -88 -42.6125
      vertex -5 -21 -42.5772
    endloop
  endfacet
  facet normal 0 -0.00052779 1
    outer loop
      vertex -3.00105 -88 -42.6125
      vertex -5 -21.05 -42.5772
      vertex -3.00106 -88 -42.6125
    endloop
  endfacet
  facet normal 0 -0.000527396 1
    outer loop
      vertex 5 -21 -42.5772
      vertex -3.00105 -88 -42.6125
      vertex 3.00105 -88 -42.6125
    endloop
  endfacet
  facet normal 0 -0.000527396 1
    outer loop
      vertex -3.00105 -88 -42.6125
      vertex 5 -21 -42.5772
      vertex -5 -21 -42.5772
    endloop
  endfacet
  facet normal -0.0176745 -0 -0.999844
    outer loop
      vertex 5 -21 -36.5772
      vertex 5 -21.05 -36.5772
      vertex 3 -93.9646 -36.5418
    endloop
  endfacet
  facet normal -2.43944e-006 -0.000484611 -1
    outer loop
      vertex -3 -93.9646 -36.5418
      vertex -5 -21 -36.5772
      vertex -3 -89.344 -36.544
    endloop
  endfacet
  facet normal 2.43944e-006 -0.000484611 -1
    outer loop
      vertex 3 -89.344 -36.544
      vertex 5 -21 -36.5772
      vertex 3 -93.9646 -36.5418
    endloop
  endfacet
  facet normal 0 -0.000489436 -1
    outer loop
      vertex 2.89238 -89.2505 -36.5441
      vertex 3 -89.344 -36.544
      vertex 2.90159 -89.344 -36.544
    endloop
  endfacet
  facet normal 3.99749e-005 -0.000443438 -1
    outer loop
      vertex 2.86444 -89.1583 -36.5441
      vertex 3 -89.344 -36.544
      vertex 2.89238 -89.2505 -36.5441
    endloop
  endfacet
  facet normal -0.000110883 -0.000553598 -1
    outer loop
      vertex 2.81908 -89.0735 -36.5442
      vertex 3 -89.344 -36.544
      vertex 2.86444 -89.1583 -36.5441
    endloop
  endfacet
  facet normal -7.3052e-006 -0.000484326 -1
    outer loop
      vertex 3 -89.344 -36.544
      vertex 2.81908 -89.0735 -36.5442
      vertex 5 -21 -36.5772
    endloop
  endfacet
  facet normal 3.30219e-005 -0.000485618 -1
    outer loop
      vertex 2.75802 -88.9991 -36.5442
      vertex 5 -21 -36.5772
      vertex 2.81908 -89.0735 -36.5442
    endloop
  endfacet
  facet normal -3.77136e-005 -0.000483286 -1
    outer loop
      vertex 2.68363 -88.938 -36.5442
      vertex 5 -21 -36.5772
      vertex 2.75802 -88.9991 -36.5442
    endloop
  endfacet
  facet normal 1.04822e-005 -0.000484929 -1
    outer loop
      vertex 2.59876 -88.8926 -36.5443
      vertex 5 -21 -36.5772
      vertex 2.68363 -88.938 -36.5442
    endloop
  endfacet
  facet normal 1.84868e-005 -0.000485212 -1
    outer loop
      vertex 2.50666 -88.8647 -36.5443
      vertex 5 -21 -36.5772
      vertex 2.59876 -88.8926 -36.5443
    endloop
  endfacet
  facet normal -7.88704e-006 -0.000484243 -1
    outer loop
      vertex 2.41089 -88.8553 -36.5443
      vertex 5 -21 -36.5772
      vertex 2.50666 -88.8647 -36.5443
    endloop
  endfacet
  facet normal 0 -0.000484544 -1
    outer loop
      vertex -2.41089 -88.8553 -36.5443
      vertex 5 -21 -36.5772
      vertex 2.41089 -88.8553 -36.5443
    endloop
  endfacet
  facet normal 7.88704e-006 -0.000484243 -1
    outer loop
      vertex -5 -21 -36.5772
      vertex -2.41089 -88.8553 -36.5443
      vertex -2.50666 -88.8647 -36.5443
    endloop
  endfacet
  facet normal -1.84868e-005 -0.000485212 -1
    outer loop
      vertex -5 -21 -36.5772
      vertex -2.50666 -88.8647 -36.5443
      vertex -2.59876 -88.8926 -36.5443
    endloop
  endfacet
  facet normal -1.04822e-005 -0.000484929 -1
    outer loop
      vertex -5 -21 -36.5772
      vertex -2.59876 -88.8926 -36.5443
      vertex -2.68363 -88.938 -36.5442
    endloop
  endfacet
  facet normal 3.77136e-005 -0.000483286 -1
    outer loop
      vertex -5 -21 -36.5772
      vertex -2.68363 -88.938 -36.5442
      vertex -2.75802 -88.9991 -36.5442
    endloop
  endfacet
  facet normal -3.30219e-005 -0.000485618 -1
    outer loop
      vertex -5 -21 -36.5772
      vertex -2.75802 -88.9991 -36.5442
      vertex -2.81908 -89.0735 -36.5442
    endloop
  endfacet
  facet normal 0.000110883 -0.000553598 -1
    outer loop
      vertex -3 -89.344 -36.544
      vertex -2.81908 -89.0735 -36.5442
      vertex -2.86444 -89.1583 -36.5441
    endloop
  endfacet
  facet normal -3.99749e-005 -0.000443438 -1
    outer loop
      vertex -3 -89.344 -36.544
      vertex -2.86444 -89.1583 -36.5441
      vertex -2.89238 -89.2505 -36.5441
    endloop
  endfacet
  facet normal 0 -0.000489436 -1
    outer loop
      vertex -3 -89.344 -36.544
      vertex -2.89238 -89.2505 -36.5441
      vertex -2.90159 -89.344 -36.544
    endloop
  endfacet
  facet normal 7.3052e-006 -0.000484326 -1
    outer loop
      vertex -2.81908 -89.0735 -36.5442
      vertex -3 -89.344 -36.544
      vertex -5 -21 -36.5772
    endloop
  endfacet
  facet normal 0 -0.000484544 -1
    outer loop
      vertex -2.41089 -88.8553 -36.5443
      vertex -5 -21 -36.5772
      vertex 5 -21 -36.5772
    endloop
  endfacet
  facet normal 0.999625 0.0273925 0
    outer loop
      vertex -5 -21.05 -36.5772
      vertex -3.00106 -93.9969 -36.6157
      vertex -5 -21.05 -42.5772
    endloop
  endfacet
  facet normal 0.999625 0.0273925 2.38949e-006
    outer loop
      vertex -3.00106 -93.9969 -36.6157
      vertex -5 -21.05 -36.5772
      vertex -3.00097 -94 -36.6125
    endloop
  endfacet
  facet normal -0.999249 0.0273955 -0.0273956
    outer loop
      vertex 3.00097 -94 -36.6125
      vertex 3 -93.9646 -36.5418
      vertex 5 -21.05 -36.5772
    endloop
  endfacet
  facet normal -0.999249 0.0273957 -0.0273957
    outer loop
      vertex 3 -93.9646 -36.5418
      vertex 3.00097 -94 -36.6125
      vertex 3 -94.0177 -36.5948
    endloop
  endfacet
  facet normal -0.999625 0.0273925 0
    outer loop
      vertex 3.00106 -93.9969 -36.6157
      vertex 5 -21.05 -36.5772
      vertex 5 -21.05 -42.5772
    endloop
  endfacet
  facet normal -0.999625 0.0273925 2.38949e-006
    outer loop
      vertex 5 -21.05 -36.5772
      vertex 3.00106 -93.9969 -36.6157
      vertex 3.00097 -94 -36.6125
    endloop
  endfacet
  facet normal 0.999111 0.029815 0.029815
    outer loop
      vertex -3.00106 -93.9969 -36.6157
      vertex -3.00106 -88 -42.6125
      vertex -5 -21.05 -42.5772
    endloop
  endfacet
  facet normal -0.999111 0.029815 0.029815
    outer loop
      vertex 3.00106 -93.9969 -36.6157
      vertex 5 -21.05 -42.5772
      vertex 3.00106 -88 -42.6125
    endloop
  endfacet
  facet normal -0.0176743 0 0.999844
    outer loop
      vertex 3.00105 -88 -42.6125
      vertex 5 -21.05 -42.5772
      vertex 5 -21 -42.5772
    endloop
  endfacet
  facet normal 0 -0.00052779 1
    outer loop
      vertex 5 -21.05 -42.5772
      vertex 3.00105 -88 -42.6125
      vertex 3.00106 -88 -42.6125
    endloop
  endfacet
  facet normal 0.999249 0.0273955 -0.0273956
    outer loop
      vertex -3 -93.9646 -36.5418
      vertex -3.00097 -94 -36.6125
      vertex -5 -21.05 -36.5772
    endloop
  endfacet
  facet normal 0.999249 0.0273957 -0.0273957
    outer loop
      vertex -3.00097 -94 -36.6125
      vertex -3 -93.9646 -36.5418
      vertex -3 -94.0177 -36.5948
    endloop
  endfacet
  facet normal 0.0176745 0 -0.999844
    outer loop
      vertex -3 -93.9646 -36.5418
      vertex -5 -21.05 -36.5772
      vertex -5 -21 -36.5772
    endloop
  endfacet
  facet normal 0 0.987273 0.159032
    outer loop
      vertex 3 -94.0421 -36.5704
      vertex -3 -97.0416 -17.95
      vertex 3 -97.0416 -17.95
    endloop
  endfacet
  facet normal 0 0.987273 0.159032
    outer loop
      vertex -3 -97.0416 -17.95
      vertex 3 -94.0421 -36.5704
      vertex -3 -94.0421 -36.5704
    endloop
  endfacet
  facet normal 1 0 0
    outer loop
      vertex -3 -93.6201 -17.95
      vertex -3 -93.9646 -36.5418
      vertex -3 -89.344 -36.544
    endloop
  endfacet
  facet normal 1 -0 0
    outer loop
      vertex -3 -97.0416 -17.95
      vertex -3 -93.9646 -36.5418
      vertex -3 -93.6201 -17.95
    endloop
  endfacet
  facet normal 1 0 0
    outer loop
      vertex -3 -93.9646 -36.5418
      vertex -3 -94.0421 -36.5704
      vertex -3 -94.0177 -36.5948
    endloop
  endfacet
  facet normal 1 0 0
    outer loop
      vertex -3 -93.9646 -36.5418
      vertex -3 -97.0416 -17.95
      vertex -3 -94.0421 -36.5704
    endloop
  endfacet
  facet normal -0 -0.97456 -0.224125
    outer loop
      vertex -2.90159 -89.344 -36.544
      vertex -3 -93.6201 -17.95
      vertex -3 -89.344 -36.544
    endloop
  endfacet
  facet normal 0 -0.97456 -0.224125
    outer loop
      vertex -3 -93.6201 -17.95
      vertex -2.90159 -89.344 -36.544
      vertex -2.5965 -93.6201 -17.95
    endloop
  endfacet
  facet normal 0 -0.97456 -0.224125
    outer loop
      vertex 2.90159 -89.344 -36.544
      vertex 3 -93.6201 -17.95
      vertex 2.5965 -93.6201 -17.95
    endloop
  endfacet
  facet normal 0 -0.97456 -0.224125
    outer loop
      vertex 3 -93.6201 -17.95
      vertex 2.90159 -89.344 -36.544
      vertex 3 -89.344 -36.544
    endloop
  endfacet
  facet normal -1 0 0
    outer loop
      vertex 3 -93.9646 -36.5418
      vertex 3 -93.6201 -17.95
      vertex 3 -89.344 -36.544
    endloop
  endfacet
  facet normal -1 0 0
    outer loop
      vertex 3 -94.0421 -36.5704
      vertex 3 -93.9646 -36.5418
      vertex 3 -94.0177 -36.5948
    endloop
  endfacet
  facet normal -1 0 0
    outer loop
      vertex 3 -97.0416 -17.95
      vertex 3 -93.9646 -36.5418
      vertex 3 -94.0421 -36.5704
    endloop
  endfacet
  facet normal -1 0 0
    outer loop
      vertex 3 -93.9646 -36.5418
      vertex 3 -97.0416 -17.95
      vertex 3 -93.6201 -17.95
    endloop
  endfacet
  facet normal 0.0968653 -0.983076 -0.155497
    outer loop
      vertex -2.41089 -88.8553 -36.5443
      vertex -0.977154 -91.6551 -17.95
      vertex -2.50666 -88.8647 -36.5443
    endloop
  endfacet
  facet normal 0.0968124 -0.983081 -0.155494
    outer loop
      vertex -0.977154 -91.6551 -17.95
      vertex -2.41089 -88.8553 -36.5443
      vertex -0.584445 -91.6164 -17.95
    endloop
  endfacet
  facet normal 0 -0.989153 -0.146886
    outer loop
      vertex -2.41089 -88.8553 -36.5443
      vertex 0.584445 -91.6164 -17.95
      vertex -0.584445 -91.6164 -17.95
    endloop
  endfacet
  facet normal 0 -0.989153 -0.146886
    outer loop
      vertex 0.584445 -91.6164 -17.95
      vertex -2.41089 -88.8553 -36.5443
      vertex 2.41089 -88.8553 -36.5443
    endloop
  endfacet
  facet normal -0.994433 -0.0979469 -0.038842
    outer loop
      vertex 2.90159 -89.344 -36.544
      vertex 2.55873 -93.2367 -17.95
      vertex 2.89238 -89.2505 -36.5441
    endloop
  endfacet
  facet normal -0.994434 -0.097944 -0.0388414
    outer loop
      vertex 2.55873 -93.2367 -17.95
      vertex 2.90159 -89.344 -36.544
      vertex 2.5965 -93.6201 -17.95
    endloop
  endfacet
  facet normal -0.765483 -0.628212 -0.139233
    outer loop
      vertex 2.81908 -89.0735 -36.5442
      vertex 2.00782 -92.206 -17.95
      vertex 2.75802 -88.9991 -36.5442
    endloop
  endfacet
  facet normal -0.765483 -0.628212 -0.139233
    outer loop
      vertex 2.00782 -92.206 -17.95
      vertex 2.81908 -89.0735 -36.5442
      vertex 2.25816 -92.5111 -17.95
    endloop
  endfacet
  facet normal 0.626532 -0.76343 -0.156948
    outer loop
      vertex -2.68363 -88.938 -36.5442
      vertex -2.00782 -92.206 -17.95
      vertex -2.75802 -88.9991 -36.5442
    endloop
  endfacet
  facet normal 0.626528 -0.763433 -0.156948
    outer loop
      vertex -2.00782 -92.206 -17.95
      vertex -2.68363 -88.938 -36.5442
      vertex -1.70279 -91.9557 -17.95
    endloop
  endfacet
  facet normal -0.286311 -0.94379 -0.165185
    outer loop
      vertex 2.50666 -88.8647 -36.5443
      vertex 1.35477 -91.7697 -17.95
      vertex 0.977154 -91.6551 -17.95
    endloop
  endfacet
  facet normal -0.286296 -0.943795 -0.165185
    outer loop
      vertex 1.35477 -91.7697 -17.95
      vertex 2.50666 -88.8647 -36.5443
      vertex 2.59876 -88.8926 -36.5443
    endloop
  endfacet
  facet normal 0.286296 -0.943795 -0.165185
    outer loop
      vertex -2.50666 -88.8647 -36.5443
      vertex -1.35477 -91.7697 -17.95
      vertex -2.59876 -88.8926 -36.5443
    endloop
  endfacet
  facet normal 0.286311 -0.94379 -0.165185
    outer loop
      vertex -1.35477 -91.7697 -17.95
      vertex -2.50666 -88.8647 -36.5443
      vertex -0.977154 -91.6551 -17.95
    endloop
  endfacet
  facet normal 0.464833 -0.86976 -0.165675
    outer loop
      vertex -2.59876 -88.8926 -36.5443
      vertex -1.70279 -91.9557 -17.95
      vertex -2.68363 -88.938 -36.5442
    endloop
  endfacet
  facet normal 0.464871 -0.86974 -0.165673
    outer loop
      vertex -1.70279 -91.9557 -17.95
      vertex -2.59876 -88.8926 -36.5443
      vertex -1.35477 -91.7697 -17.95
    endloop
  endfacet
  facet normal -0.953942 -0.289362 -0.0791518
    outer loop
      vertex 2.89238 -89.2505 -36.5441
      vertex 2.44418 -92.8591 -17.95
      vertex 2.86444 -89.1583 -36.5441
    endloop
  endfacet
  facet normal -0.953938 -0.289375 -0.0791541
    outer loop
      vertex 2.44418 -92.8591 -17.95
      vertex 2.89238 -89.2505 -36.5441
      vertex 2.55873 -93.2367 -17.95
    endloop
  endfacet
  facet normal -0.87627 -0.468375 -0.113025
    outer loop
      vertex 2.86444 -89.1583 -36.5441
      vertex 2.25816 -92.5111 -17.95
      vertex 2.81908 -89.0735 -36.5442
    endloop
  endfacet
  facet normal -0.87627 -0.468376 -0.113025
    outer loop
      vertex 2.25816 -92.5111 -17.95
      vertex 2.86444 -89.1583 -36.5441
      vertex 2.44418 -92.8591 -17.95
    endloop
  endfacet
  facet normal -0.626528 -0.763433 -0.156948
    outer loop
      vertex 2.68363 -88.938 -36.5442
      vertex 2.00782 -92.206 -17.95
      vertex 1.70279 -91.9557 -17.95
    endloop
  endfacet
  facet normal -0.626532 -0.76343 -0.156948
    outer loop
      vertex 2.00782 -92.206 -17.95
      vertex 2.68363 -88.938 -36.5442
      vertex 2.75802 -88.9991 -36.5442
    endloop
  endfacet
  facet normal -0.464871 -0.86974 -0.165673
    outer loop
      vertex 2.59876 -88.8926 -36.5443
      vertex 1.70279 -91.9557 -17.95
      vertex 1.35477 -91.7697 -17.95
    endloop
  endfacet
  facet normal -0.464833 -0.86976 -0.165675
    outer loop
      vertex 1.70279 -91.9557 -17.95
      vertex 2.59876 -88.8926 -36.5443
      vertex 2.68363 -88.938 -36.5442
    endloop
  endfacet
  facet normal -0.0968124 -0.983081 -0.155494
    outer loop
      vertex 2.41089 -88.8553 -36.5443
      vertex 0.977154 -91.6551 -17.95
      vertex 0.584445 -91.6164 -17.95
    endloop
  endfacet
  facet normal -0.0968653 -0.983076 -0.155497
    outer loop
      vertex 0.977154 -91.6551 -17.95
      vertex 2.41089 -88.8553 -36.5443
      vertex 2.50666 -88.8647 -36.5443
    endloop
  endfacet
  facet normal 0.765483 -0.628212 -0.139233
    outer loop
      vertex -2.00782 -92.206 -17.95
      vertex -2.81908 -89.0735 -36.5442
      vertex -2.75802 -88.9991 -36.5442
    endloop
  endfacet
  facet normal 0.765483 -0.628212 -0.139233
    outer loop
      vertex -2.81908 -89.0735 -36.5442
      vertex -2.00782 -92.206 -17.95
      vertex -2.25816 -92.5111 -17.95
    endloop
  endfacet
  facet normal 0.87627 -0.468375 -0.113025
    outer loop
      vertex -2.25816 -92.5111 -17.95
      vertex -2.86444 -89.1583 -36.5441
      vertex -2.81908 -89.0735 -36.5442
    endloop
  endfacet
  facet normal 0.87627 -0.468376 -0.113025
    outer loop
      vertex -2.86444 -89.1583 -36.5441
      vertex -2.25816 -92.5111 -17.95
      vertex -2.44418 -92.8591 -17.95
    endloop
  endfacet
  facet normal 0.953942 -0.289362 -0.0791518
    outer loop
      vertex -2.44418 -92.8591 -17.95
      vertex -2.89238 -89.2505 -36.5441
      vertex -2.86444 -89.1583 -36.5441
    endloop
  endfacet
  facet normal 0.953938 -0.289375 -0.0791541
    outer loop
      vertex -2.89238 -89.2505 -36.5441
      vertex -2.44418 -92.8591 -17.95
      vertex -2.55873 -93.2367 -17.95
    endloop
  endfacet
  facet normal 0.994433 -0.0979469 -0.038842
    outer loop
      vertex -2.55873 -93.2367 -17.95
      vertex -2.90159 -89.344 -36.544
      vertex -2.89238 -89.2505 -36.5441
    endloop
  endfacet
  facet normal 0.994434 -0.097944 -0.0388414
    outer loop
      vertex -2.90159 -89.344 -36.544
      vertex -2.55873 -93.2367 -17.95
      vertex -2.5965 -93.6201 -17.95
    endloop
  endfacet
  facet normal 0 1 -0
    outer loop
      vertex 4 1.95 -43.5772
      vertex -4 1.95 -42.5772
      vertex 4 1.95 -42.5772
    endloop
  endfacet
  facet normal 0 1 0
    outer loop
      vertex -4 1.95 -42.5772
      vertex 4 1.95 -43.5772
      vertex -4 1.95 -43.5772
    endloop
  endfacet
  facet normal 0 1 -0
    outer loop
      vertex 4 1.95 -31.5272
      vertex -4 1.95 -31.4778
      vertex 4 1.95 -31.4778
    endloop
  endfacet
  facet normal 0 1 0
    outer loop
      vertex -4 1.95 -31.4778
      vertex 4 1.95 -31.5272
      vertex -4 1.95 -31.5272
    endloop
  endfacet
  facet normal -0.940753 -0.339093 0
    outer loop
      vertex 4 2.05 -43.5772
      vertex 1.13443 10 -37.731
      vertex 1.13443 10 -43.5772
    endloop
  endfacet
  facet normal -0.940753 -0.339093 0
    outer loop
      vertex 1.13443 10 -37.731
      vertex 4 2.05 -43.5772
      vertex 4 2.05 -31.6156
    endloop
  endfacet
  facet normal 0.940753 -0.339093 0
    outer loop
      vertex -4 2.05 -43.5772
      vertex -1.13443 10 -37.731
      vertex -4 2.05 -31.6156
    endloop
  endfacet
  facet normal 0.940753 -0.339093 0
    outer loop
      vertex -1.13443 10 -37.731
      vertex -4 2.05 -43.5772
      vertex -1.13443 10 -43.5772
    endloop
  endfacet
  facet normal 0 -1 0
    outer loop
      vertex -1.13443 10 -43.5772
      vertex 1.13443 10 -37.731
      vertex -1.13443 10 -37.731
    endloop
  endfacet
  facet normal 0 -1 -0
    outer loop
      vertex 1.13443 10 -37.731
      vertex -1.13443 10 -43.5772
      vertex 1.13443 10 -43.5772
    endloop
  endfacet
  facet normal 0.866672 0.463244 0.185161
    outer loop
      vertex 1.84776 13.7654 -41.5772
      vertex 1.66294 14.1111 -41.5772
      vertex 6 2 -31.5772
    endloop
  endfacet
  facet normal 1 0 0
    outer loop
      vertex 6 -7.78778e-015 -31.5772
      vertex 6 -14.05 -31.5772
      vertex 6 -7.79992e-015 -31.6272
    endloop
  endfacet
  facet normal 1 -0 0
    outer loop
      vertex 6 -7.79992e-015 -31.6272
      vertex 6 2 -43.5772
      vertex 6 2 -31.6272
    endloop
  endfacet
  facet normal 1 0 0
    outer loop
      vertex 6 -14.05 -31.5772
      vertex 6 2 -43.5772
      vertex 6 -7.79992e-015 -31.6272
    endloop
  endfacet
  facet normal 1 0 0
    outer loop
      vertex 6 -14.05 -31.5772
      vertex 6 -20 -43.5772
      vertex 6 2 -43.5772
    endloop
  endfacet
  facet normal 1 -0 0
    outer loop
      vertex 6 -20.05 -35.5772
      vertex 6 -20 -43.5772
      vertex 6 -14.05 -31.5772
    endloop
  endfacet
  facet normal 1 0 0
    outer loop
      vertex 6 -20 -43.5772
      vertex 6 -20.05 -35.5772
      vertex 6 -20.05 -43.5772
    endloop
  endfacet
  facet normal 0 0 0
    outer loop
      vertex 6 2 -31.5772
      vertex 6 2 -31.6272
      vertex 6 2 -43.5772
    endloop
  endfacet
  facet normal -0 0 1
    outer loop
      vertex -6 -14 -31.5772
      vertex -4 -14.05 -31.5772
      vertex -4 -14 -31.5772
    endloop
  endfacet
  facet normal 0 0 1
    outer loop
      vertex -4 -14.05 -31.5772
      vertex -6 -14 -31.5772
      vertex -6 -14.05 -31.5772
    endloop
  endfacet
  facet normal 0 0 0
    outer loop
      vertex -4 -14 -31.5772
      vertex -4 -14.05 -31.5772
      vertex -4 -0.000641016 -31.5772
    endloop
  endfacet
  facet normal -0 0 1
    outer loop
      vertex 4 -14 -31.5772
      vertex 6 -14.05 -31.5772
      vertex 6 -14 -31.5772
    endloop
  endfacet
  facet normal 0 0 1
    outer loop
      vertex 6 -14.05 -31.5772
      vertex 4 -14 -31.5772
      vertex 4 -14.05 -31.5772
    endloop
  endfacet
  facet normal 0 0 0
    outer loop
      vertex 6 -14 -31.5772
      vertex 6 -14.05 -31.5772
      vertex 6 -7.78778e-015 -31.5772
    endloop
  endfacet
  facet normal -1 0 0
    outer loop
      vertex -6 -6.33039e-015 -31.6272
      vertex -6 2 -31.5772
      vertex -6 2 -43.5772
    endloop
  endfacet
  facet normal -1 -0 0
    outer loop
      vertex -6 2 -31.5772
      vertex -6 -6.33039e-015 -31.6272
      vertex -6 -6.31825e-015 -31.5772
    endloop
  endfacet
  facet normal -1 0 0
    outer loop
      vertex -6 2 -43.5772
      vertex -6 -14 -31.6272
      vertex -6 -6.33039e-015 -31.6272
    endloop
  endfacet
  facet normal -1 0 0
    outer loop
      vertex -6 -14 -31.6272
      vertex -6 -14.05 -31.5772
      vertex -6 -14 -31.5772
    endloop
  endfacet
  facet normal -1 0 0
    outer loop
      vertex -6 -20 -43.5772
      vertex -6 -14 -31.6272
      vertex -6 2 -43.5772
    endloop
  endfacet
  facet normal -1 0 0
    outer loop
      vertex -6 -20.05 -35.5772
      vertex -6 -14 -31.6272
      vertex -6 -20 -43.5772
    endloop
  endfacet
  facet normal -1 0 0
    outer loop
      vertex -6 -20.05 -35.5772
      vertex -6 -20 -43.5772
      vertex -6 -20.05 -43.5772
    endloop
  endfacet
  facet normal -1 -0 0
    outer loop
      vertex -6 -14 -31.6272
      vertex -6 -20.05 -35.5772
      vertex -6 -14.05 -31.5772
    endloop
  endfacet
  facet normal 0.881922 0.471395 0
    outer loop
      vertex 1.84776 13.7654 -41.5772
      vertex 1.66294 14.1111 -43.5772
      vertex 1.66294 14.1111 -41.5772
    endloop
  endfacet
  facet normal 0.881922 0.471395 0
    outer loop
      vertex 1.66294 14.1111 -43.5772
      vertex 1.84776 13.7654 -41.5772
      vertex 1.84776 13.7654 -43.5772
    endloop
  endfacet
  facet normal -0.352776 0.66 0.663287
    outer loop
      vertex -1.11114 14.6629 -41.5772
      vertex -6 2 -31.5772
      vertex -0.765367 14.8478 -41.5772
    endloop
  endfacet
  facet normal 0.0980191 0.995185 -0
    outer loop
      vertex 0.390181 14.9616 -43.5772
      vertex 0 15 -41.5772
      vertex 0.390181 14.9616 -41.5772
    endloop
  endfacet
  facet normal 0.0980191 0.995185 0
    outer loop
      vertex 0 15 -41.5772
      vertex 0.390181 14.9616 -43.5772
      vertex 0 15 -43.5772
    endloop
  endfacet
  facet normal 0.942996 0.332803 -0
    outer loop
      vertex 6 2 -43.5772
      vertex 1.84776 13.7654 -41.5772
      vertex 6 2 -31.5772
    endloop
  endfacet
  facet normal 0.942996 0.332803 0
    outer loop
      vertex 1.84776 13.7654 -41.5772
      vertex 6 2 -43.5772
      vertex 1.84776 13.7654 -43.5772
    endloop
  endfacet
  facet normal -0.942996 0.332803 0
    outer loop
      vertex -6 2 -43.5772
      vertex -1.84776 13.7654 -41.5772
      vertex -1.84776 13.7654 -43.5772
    endloop
  endfacet
  facet normal -0.942996 0.332803 0
    outer loop
      vertex -1.84776 13.7654 -41.5772
      vertex -6 2 -43.5772
      vertex -6 2 -31.5772
    endloop
  endfacet
  facet normal 0 0 -1
    outer loop
      vertex 6 -20 -43.5772
      vertex 4 1.95 -43.5772
      vertex 6 2 -43.5772
    endloop
  endfacet
  facet normal 0 0 -1
    outer loop
      vertex 6 -20 -43.5772
      vertex -4 1.95 -43.5772
      vertex 4 1.95 -43.5772
    endloop
  endfacet
  facet normal 0 0 -1
    outer loop
      vertex -6 2 -43.5772
      vertex -4 1.95 -43.5772
      vertex -6 -20 -43.5772
    endloop
  endfacet
  facet normal 0 0 -1
    outer loop
      vertex -6 -20 -43.5772
      vertex -4 1.95 -43.5772
      vertex 6 -20 -43.5772
    endloop
  endfacet
  facet normal 0 0 -1
    outer loop
      vertex 4 2.05 -43.5772
      vertex 6 2 -43.5772
      vertex 4 1.95 -43.5772
    endloop
  endfacet
  facet normal 0 0 -1
    outer loop
      vertex 1.13443 10 -43.5772
      vertex 6 2 -43.5772
      vertex 4 2.05 -43.5772
    endloop
  endfacet
  facet normal 0 0 -1
    outer loop
      vertex 6 2 -43.5772
      vertex 1.13443 10 -43.5772
      vertex 1.84776 13.7654 -43.5772
    endloop
  endfacet
  facet normal 0 0 -1
    outer loop
      vertex -1.84776 13.7654 -43.5772
      vertex 1.84776 13.7654 -43.5772
      vertex 1.13443 10 -43.5772
    endloop
  endfacet
  facet normal 0 0 -1
    outer loop
      vertex 1.84776 13.7654 -43.5772
      vertex -1.84776 13.7654 -43.5772
      vertex 1.66294 14.1111 -43.5772
    endloop
  endfacet
  facet normal -0 0 -1
    outer loop
      vertex 1.66294 14.1111 -43.5772
      vertex -1.84776 13.7654 -43.5772
      vertex 1.41421 14.4142 -43.5772
    endloop
  endfacet
  facet normal -0 0 -1
    outer loop
      vertex 1.41421 14.4142 -43.5772
      vertex -1.84776 13.7654 -43.5772
      vertex 1.11114 14.6629 -43.5772
    endloop
  endfacet
  facet normal -0 0 -1
    outer loop
      vertex 1.11114 14.6629 -43.5772
      vertex -1.84776 13.7654 -43.5772
      vertex 0.765367 14.8478 -43.5772
    endloop
  endfacet
  facet normal -0 0 -1
    outer loop
      vertex 0.765367 14.8478 -43.5772
      vertex -1.84776 13.7654 -43.5772
      vertex 0.390181 14.9616 -43.5772
    endloop
  endfacet
  facet normal -0 0 -1
    outer loop
      vertex 0.390181 14.9616 -43.5772
      vertex -1.84776 13.7654 -43.5772
      vertex 0 15 -43.5772
    endloop
  endfacet
  facet normal 0 0 -1
    outer loop
      vertex 0 15 -43.5772
      vertex -1.84776 13.7654 -43.5772
      vertex -0.390181 14.9616 -43.5772
    endloop
  endfacet
  facet normal 0 0 -1
    outer loop
      vertex -0.390181 14.9616 -43.5772
      vertex -1.84776 13.7654 -43.5772
      vertex -0.765367 14.8478 -43.5772
    endloop
  endfacet
  facet normal 0 0 -1
    outer loop
      vertex -1.84776 13.7654 -43.5772
      vertex 1.13443 10 -43.5772
      vertex -1.13443 10 -43.5772
    endloop
  endfacet
  facet normal 0 0 -1
    outer loop
      vertex -0.765367 14.8478 -43.5772
      vertex -1.84776 13.7654 -43.5772
      vertex -1.11114 14.6629 -43.5772
    endloop
  endfacet
  facet normal 0 0 -1
    outer loop
      vertex -1.11114 14.6629 -43.5772
      vertex -1.84776 13.7654 -43.5772
      vertex -1.41421 14.4142 -43.5772
    endloop
  endfacet
  facet normal 0 0 -1
    outer loop
      vertex -1.41421 14.4142 -43.5772
      vertex -1.84776 13.7654 -43.5772
      vertex -1.66294 14.1111 -43.5772
    endloop
  endfacet
  facet normal 0 0 -1
    outer loop
      vertex -6 2 -43.5772
      vertex -1.13443 10 -43.5772
      vertex -4 2.05 -43.5772
    endloop
  endfacet
  facet normal -0 0 -1
    outer loop
      vertex -1.13443 10 -43.5772
      vertex -6 2 -43.5772
      vertex -1.84776 13.7654 -43.5772
    endloop
  endfacet
  facet normal 0 0 -1
    outer loop
      vertex -4 1.95 -43.5772
      vertex -6 2 -43.5772
      vertex -4 2.05 -43.5772
    endloop
  endfacet
  facet normal -0.881922 0.471395 0
    outer loop
      vertex -1.84776 13.7654 -43.5772
      vertex -1.66294 14.1111 -41.5772
      vertex -1.66294 14.1111 -43.5772
    endloop
  endfacet
  facet normal -0.881922 0.471395 0
    outer loop
      vertex -1.66294 14.1111 -41.5772
      vertex -1.84776 13.7654 -43.5772
      vertex -1.84776 13.7654 -41.5772
    endloop
  endfacet
  facet normal -0.77301 0.634394 0
    outer loop
      vertex -1.66294 14.1111 -43.5772
      vertex -1.41421 14.4142 -41.5772
      vertex -1.41421 14.4142 -43.5772
    endloop
  endfacet
  facet normal -0.77301 0.634394 0
    outer loop
      vertex -1.41421 14.4142 -41.5772
      vertex -1.66294 14.1111 -43.5772
      vertex -1.66294 14.1111 -41.5772
    endloop
  endfacet
  facet normal -0.709349 0.582149 0.397399
    outer loop
      vertex -1.66294 14.1111 -41.5772
      vertex -6 2 -31.5772
      vertex -1.41421 14.4142 -41.5772
    endloop
  endfacet
  facet normal 0.290285 0.95694 -0
    outer loop
      vertex 0.765367 14.8478 -43.5772
      vertex 0.390181 14.9616 -41.5772
      vertex 0.765367 14.8478 -41.5772
    endloop
  endfacet
  facet normal 0.290285 0.95694 0
    outer loop
      vertex 0.390181 14.9616 -41.5772
      vertex 0.765367 14.8478 -43.5772
      vertex 0.390181 14.9616 -43.5772
    endloop
  endfacet
  facet normal 0.0616845 0.62628 0.777154
    outer loop
      vertex 0.390181 14.9616 -41.5772
      vertex 0 15 -41.5772
      vertex 6 2 -31.5772
    endloop
  endfacet
  facet normal -0.0980191 0.995185 0
    outer loop
      vertex 0 15 -43.5772
      vertex -0.390181 14.9616 -41.5772
      vertex 0 15 -41.5772
    endloop
  endfacet
  facet normal -0.0980191 0.995185 0
    outer loop
      vertex -0.390181 14.9616 -41.5772
      vertex 0 15 -43.5772
      vertex -0.390181 14.9616 -43.5772
    endloop
  endfacet
  facet normal 0.352776 0.66 0.663287
    outer loop
      vertex 1.11114 14.6629 -41.5772
      vertex 0.765367 14.8478 -41.5772
      vertex 6 2 -31.5772
    endloop
  endfacet
  facet normal -0.527349 0.642576 0.555876
    outer loop
      vertex -1.41421 14.4142 -41.5772
      vertex -6 2 -31.5772
      vertex -1.11114 14.6629 -41.5772
    endloop
  endfacet
  facet normal -0.866672 0.463244 0.185161
    outer loop
      vertex -1.84776 13.7654 -41.5772
      vertex -6 2 -31.5772
      vertex -1.66294 14.1111 -41.5772
    endloop
  endfacet
  facet normal 0.77301 0.634394 0
    outer loop
      vertex 1.66294 14.1111 -41.5772
      vertex 1.41421 14.4142 -43.5772
      vertex 1.41421 14.4142 -41.5772
    endloop
  endfacet
  facet normal 0.77301 0.634394 0
    outer loop
      vertex 1.41421 14.4142 -43.5772
      vertex 1.66294 14.1111 -41.5772
      vertex 1.66294 14.1111 -43.5772
    endloop
  endfacet
  facet normal -0.0616845 0.62628 0.777154
    outer loop
      vertex -0.390181 14.9616 -41.5772
      vertex -6 2 -31.5772
      vertex 0 15 -41.5772
    endloop
  endfacet
  facet normal 0.471395 0.881922 -0
    outer loop
      vertex 1.11114 14.6629 -43.5772
      vertex 0.765367 14.8478 -41.5772
      vertex 1.11114 14.6629 -41.5772
    endloop
  endfacet
  facet normal 0.471395 0.881922 0
    outer loop
      vertex 0.765367 14.8478 -41.5772
      vertex 1.11114 14.6629 -43.5772
      vertex 0.765367 14.8478 -43.5772
    endloop
  endfacet
  facet normal -0.471395 0.881922 0
    outer loop
      vertex -0.765367 14.8478 -43.5772
      vertex -1.11114 14.6629 -41.5772
      vertex -0.765367 14.8478 -41.5772
    endloop
  endfacet
  facet normal -0.471395 0.881922 0
    outer loop
      vertex -1.11114 14.6629 -41.5772
      vertex -0.765367 14.8478 -43.5772
      vertex -1.11114 14.6629 -43.5772
    endloop
  endfacet
  facet normal 0.634394 0.77301 -0
    outer loop
      vertex 1.41421 14.4142 -43.5772
      vertex 1.11114 14.6629 -41.5772
      vertex 1.41421 14.4142 -41.5772
    endloop
  endfacet
  facet normal 0.634394 0.77301 0
    outer loop
      vertex 1.11114 14.6629 -41.5772
      vertex 1.41421 14.4142 -43.5772
      vertex 1.11114 14.6629 -43.5772
    endloop
  endfacet
  facet normal -2.93745e-007 0.609711 0.792624
    outer loop
      vertex 6 2 -31.5772
      vertex 1.13443 10 -37.731
      vertex 4 2.05 -31.6156
    endloop
  endfacet
  facet normal -3.96479e-007 0.609711 0.792624
    outer loop
      vertex 0 15 -41.5772
      vertex 1.13443 10 -37.731
      vertex 6 2 -31.5772
    endloop
  endfacet
  facet normal 0 0.609711 0.792624
    outer loop
      vertex 0 15 -41.5772
      vertex -1.13443 10 -37.731
      vertex 1.13443 10 -37.731
    endloop
  endfacet
  facet normal 3.96479e-007 0.609711 0.792624
    outer loop
      vertex -6 2 -31.5772
      vertex -1.13443 10 -37.731
      vertex 0 15 -41.5772
    endloop
  endfacet
  facet normal 0 0.609718 0.792618
    outer loop
      vertex -4 2.05 -31.6156
      vertex -6 2 -31.5772
      vertex -4 2 -31.5772
    endloop
  endfacet
  facet normal 2.93745e-007 0.609711 0.792624
    outer loop
      vertex -1.13443 10 -37.731
      vertex -6 2 -31.5772
      vertex -4 2.05 -31.6156
    endloop
  endfacet
  facet normal 0 0.609718 0.792618
    outer loop
      vertex 6 2 -31.5772
      vertex 4 2.05 -31.6156
      vertex 4 2 -31.5772
    endloop
  endfacet
  facet normal -0.290285 0.95694 0
    outer loop
      vertex -0.390181 14.9616 -43.5772
      vertex -0.765367 14.8478 -41.5772
      vertex -0.390181 14.9616 -41.5772
    endloop
  endfacet
  facet normal -0.290285 0.95694 0
    outer loop
      vertex -0.765367 14.8478 -41.5772
      vertex -0.390181 14.9616 -43.5772
      vertex -0.765367 14.8478 -43.5772
    endloop
  endfacet
  facet normal 0.197468 0.650964 0.732975
    outer loop
      vertex 0.765367 14.8478 -41.5772
      vertex 0.390181 14.9616 -41.5772
      vertex 6 2 -31.5772
    endloop
  endfacet
  facet normal -0.634394 0.77301 0
    outer loop
      vertex -1.11114 14.6629 -43.5772
      vertex -1.41421 14.4142 -41.5772
      vertex -1.11114 14.6629 -41.5772
    endloop
  endfacet
  facet normal -0.634394 0.77301 0
    outer loop
      vertex -1.41421 14.4142 -41.5772
      vertex -1.11114 14.6629 -43.5772
      vertex -1.41421 14.4142 -43.5772
    endloop
  endfacet
  facet normal 0.527349 0.642576 0.555876
    outer loop
      vertex 1.41421 14.4142 -41.5772
      vertex 1.11114 14.6629 -41.5772
      vertex 6 2 -31.5772
    endloop
  endfacet
  facet normal 0.709349 0.582149 0.397399
    outer loop
      vertex 1.66294 14.1111 -41.5772
      vertex 1.41421 14.4142 -41.5772
      vertex 6 2 -31.5772
    endloop
  endfacet
  facet normal -0.197468 0.650964 0.732975
    outer loop
      vertex -0.765367 14.8478 -41.5772
      vertex -6 2 -31.5772
      vertex -0.390181 14.9616 -41.5772
    endloop
  endfacet
  facet normal 0 -0.5547 0.83205
    outer loop
      vertex 6 -14.05 -31.5772
      vertex 5.99867 -20.05 -35.5772
      vertex 6 -20.05 -35.5772
    endloop
  endfacet
  facet normal 0 -0.5547 0.83205
    outer loop
      vertex 4 -14.05 -31.5772
      vertex 5.99867 -20.05 -35.5772
      vertex 6 -14.05 -31.5772
    endloop
  endfacet
  facet normal 0 -0.5547 0.83205
    outer loop
      vertex 5.99867 -20.05 -35.5772
      vertex 4 -14.05 -31.5772
      vertex 4 -20.05 -35.5772
    endloop
  endfacet
  facet normal 0 -0.5547 0.83205
    outer loop
      vertex -4 -14.05 -31.5772
      vertex -5.99867 -20.05 -35.5772
      vertex -4 -20.05 -35.5772
    endloop
  endfacet
  facet normal 0 -0.5547 0.83205
    outer loop
      vertex -6 -14.05 -31.5772
      vertex -5.99867 -20.05 -35.5772
      vertex -4 -14.05 -31.5772
    endloop
  endfacet
  facet normal 0 -0.5547 0.83205
    outer loop
      vertex -5.99867 -20.05 -35.5772
      vertex -6 -14.05 -31.5772
      vertex -6 -20.05 -35.5772
    endloop
  endfacet
  facet normal -0.00883831 0 -0.999961
    outer loop
      vertex -6 -20.05 -43.5772
      vertex -6 -20 -43.5772
      vertex -4 -87.0177 -43.5948
    endloop
  endfacet
  facet normal 0 0.000263771 -1
    outer loop
      vertex -4 -87.0177 -43.5948
      vertex 6 -20 -43.5772
      vertex 4 -87.0177 -43.5948
    endloop
  endfacet
  facet normal 0 0.000263771 -1
    outer loop
      vertex 6 -20 -43.5772
      vertex -4 -87.0177 -43.5948
      vertex -6 -20 -43.5772
    endloop
  endfacet
  facet normal 0.00858346 6.81034e-006 0.999963
    outer loop
      vertex 5.99867 -20.05 -35.5772
      vertex 4.18003 -88.2371 -35.5611
      vertex 6 -20.05 -35.5772
    endloop
  endfacet
  facet normal 0 0.00023575 1
    outer loop
      vertex 4.18003 -88.2371 -35.5611
      vertex 5.99867 -20.05 -35.5772
      vertex 4.17991 -88.2371 -35.5611
    endloop
  endfacet
  facet normal 0 -0.707108 -0.707105
    outer loop
      vertex -4 -95.0177 -35.5948
      vertex -3 -94.0421 -36.5704
      vertex 4 -95.0177 -35.5948
    endloop
  endfacet
  facet normal -6.37309e-005 -0.707075 -0.707138
    outer loop
      vertex -3.00097 -94 -36.6125
      vertex -3 -94.0421 -36.5704
      vertex -4 -95.0177 -35.5948
    endloop
  endfacet
  facet normal 0.00201071 -0.70705 -0.70716
    outer loop
      vertex -3 -94.0421 -36.5704
      vertex -3.00097 -94 -36.6125
      vertex -3 -94.0177 -36.5948
    endloop
  endfacet
  facet normal 0.000845801 -0.707522 -0.706691
    outer loop
      vertex -4 -95.0177 -35.5948
      vertex -3.00106 -93.9969 -36.6157
      vertex -3.00097 -94 -36.6125
    endloop
  endfacet
  facet normal -2.70025e-006 -0.707107 -0.707107
    outer loop
      vertex -4 -87.0177 -43.5948
      vertex -3.00106 -93.9969 -36.6157
      vertex -4 -95.0177 -35.5948
    endloop
  endfacet
  facet normal 0 -0.707108 -0.707105
    outer loop
      vertex -4 -87.0177 -43.5948
      vertex -3.00105 -88 -42.6125
      vertex -3.00106 -88 -42.6125
    endloop
  endfacet
  facet normal 0 -0.707108 -0.707105
    outer loop
      vertex -3.00105 -88 -42.6125
      vertex -4 -87.0177 -43.5948
      vertex 3.00105 -88 -42.6125
    endloop
  endfacet
  facet normal -0 -0.707108 -0.707105
    outer loop
      vertex 4 -87.0177 -43.5948
      vertex 3.00105 -88 -42.6125
      vertex -4 -87.0177 -43.5948
    endloop
  endfacet
  facet normal 3.5849e-006 -0.707106 -0.707107
    outer loop
      vertex -3.00106 -93.9969 -36.6157
      vertex -4 -87.0177 -43.5948
      vertex -3.00106 -88 -42.6125
    endloop
  endfacet
  facet normal -0 -0.707108 -0.707105
    outer loop
      vertex 3 -94.0421 -36.5704
      vertex 4 -95.0177 -35.5948
      vertex -3 -94.0421 -36.5704
    endloop
  endfacet
  facet normal -0.00201071 -0.70705 -0.70716
    outer loop
      vertex 3.00097 -94 -36.6125
      vertex 3 -94.0421 -36.5704
      vertex 3 -94.0177 -36.5948
    endloop
  endfacet
  facet normal 6.37309e-005 -0.707075 -0.707138
    outer loop
      vertex 3 -94.0421 -36.5704
      vertex 3.00097 -94 -36.6125
      vertex 4 -95.0177 -35.5948
    endloop
  endfacet
  facet normal -0.000845801 -0.707522 -0.706691
    outer loop
      vertex 3.00106 -93.9969 -36.6157
      vertex 4 -95.0177 -35.5948
      vertex 3.00097 -94 -36.6125
    endloop
  endfacet
  facet normal -3.5849e-006 -0.707106 -0.707107
    outer loop
      vertex 4 -87.0177 -43.5948
      vertex 3.00106 -93.9969 -36.6157
      vertex 3.00106 -88 -42.6125
    endloop
  endfacet
  facet normal 2.70025e-006 -0.707107 -0.707107
    outer loop
      vertex 3.00106 -93.9969 -36.6157
      vertex 4 -87.0177 -43.5948
      vertex 4 -95.0177 -35.5948
    endloop
  endfacet
  facet normal 0 -0.707108 -0.707105
    outer loop
      vertex 3.00105 -88 -42.6125
      vertex 4 -87.0177 -43.5948
      vertex 3.00106 -88 -42.6125
    endloop
  endfacet
  facet normal 2.02481e-009 0.00023575 1
    outer loop
      vertex -4 -20.05 -35.5772
      vertex -5.99867 -20.05 -35.5772
      vertex -4.17991 -88.2371 -35.5611
    endloop
  endfacet
  facet normal -2.02481e-009 0.00023575 1
    outer loop
      vertex 5.99867 -20.05 -35.5772
      vertex 4 -20.05 -35.5772
      vertex 4.17991 -88.2371 -35.5611
    endloop
  endfacet
  facet normal -0 0.00023575 1
    outer loop
      vertex -4 -20.05 -35.5772
      vertex 4.17991 -88.2371 -35.5611
      vertex 4 -20.05 -35.5772
    endloop
  endfacet
  facet normal 0 0.00023575 1
    outer loop
      vertex 4.17991 -88.2371 -35.5611
      vertex -4 -20.05 -35.5772
      vertex -4.17991 -88.2371 -35.5611
    endloop
  endfacet
  facet normal -0.999644 -0.0266687 0
    outer loop
      vertex -4.18411 -88.1166 -36.3297
      vertex -6 -20.05 -35.5772
      vertex -6 -20.05 -43.5772
    endloop
  endfacet
  facet normal -0.999644 -0.0266687 1.29716e-007
    outer loop
      vertex -6 -20.05 -35.5772
      vertex -4.18411 -88.1166 -36.3297
      vertex -4.18103 -88.2321 -35.5932
    endloop
  endfacet
  facet normal 0.999289 -0.0266655 0.0266619
    outer loop
      vertex 6 -20.05 -35.5772
      vertex 4.18003 -88.2371 -35.5611
      vertex 4.18103 -88.2321 -35.5932
    endloop
  endfacet
  facet normal 0.999644 -0.0266687 0
    outer loop
      vertex 6 -20.05 -35.5772
      vertex 4.18411 -88.1166 -36.3297
      vertex 6 -20.05 -43.5772
    endloop
  endfacet
  facet normal 0.999644 -0.0266687 1.29716e-007
    outer loop
      vertex 4.18411 -88.1166 -36.3297
      vertex 6 -20.05 -35.5772
      vertex 4.18103 -88.2321 -35.5932
    endloop
  endfacet
  facet normal -0.99911 -0.0298307 -0.0298338
    outer loop
      vertex -6 -20.05 -43.5772
      vertex -4 -87.0177 -43.5948
      vertex -4.00269 -86.9859 -43.5366
    endloop
  endfacet
  facet normal -0.999281 -0.0298319 -0.0234206
    outer loop
      vertex -4.00269 -86.9859 -43.5365
      vertex -6 -20.05 -43.5772
      vertex -4.00269 -86.9859 -43.5366
    endloop
  endfacet
  facet normal -0.99911 -0.0298307 -0.0298307
    outer loop
      vertex -6 -20.05 -43.5772
      vertex -4.00269 -86.9859 -43.5365
      vertex -4.18411 -88.1166 -36.3297
    endloop
  endfacet
  facet normal 0.99911 -0.0298307 -0.0298307
    outer loop
      vertex 6 -20.05 -43.5772
      vertex 4.18411 -88.1166 -36.3297
      vertex 4.00269 -86.9859 -43.5365
    endloop
  endfacet
  facet normal 0.999281 -0.0298319 -0.0234206
    outer loop
      vertex 4.00269 -86.9859 -43.5366
      vertex 6 -20.05 -43.5772
      vertex 4.00269 -86.9859 -43.5365
    endloop
  endfacet
  facet normal 0.99911 -0.0298307 -0.0298338
    outer loop
      vertex 6 -20.05 -43.5772
      vertex 4.00269 -86.9859 -43.5366
      vertex 4 -87.0177 -43.5948
    endloop
  endfacet
  facet normal 0.00883831 0 -0.999961
    outer loop
      vertex 6 -20.05 -43.5772
      vertex 4 -87.0177 -43.5948
      vertex 6 -20 -43.5772
    endloop
  endfacet
  facet normal -0.999289 -0.0266655 0.0266619
    outer loop
      vertex -4.18003 -88.2371 -35.5611
      vertex -6 -20.05 -35.5772
      vertex -4.18103 -88.2321 -35.5932
    endloop
  endfacet
  facet normal 0 0.00023575 1
    outer loop
      vertex -5.99867 -20.05 -35.5772
      vertex -4.18003 -88.2371 -35.5611
      vertex -4.17991 -88.2371 -35.5611
    endloop
  endfacet
  facet normal -0.00858346 6.81034e-006 0.999963
    outer loop
      vertex -4.18003 -88.2371 -35.5611
      vertex -5.99867 -20.05 -35.5772
      vertex -6 -20.05 -35.5772
    endloop
  endfacet
  facet normal 0.989868 0.100405 -0.100401
    outer loop
      vertex 7 -91 -18
      vertex 4 -87.0177 -43.5948
      vertex 4.00269 -86.9859 -43.5366
    endloop
  endfacet
  facet normal 0.993201 1.76107e-005 -0.116411
    outer loop
      vertex 6.99414 -91 -18.05
      vertex 4 -87.0177 -43.5948
      vertex 7 -91 -18
    endloop
  endfacet
  facet normal 0.993201 0 -0.116414
    outer loop
      vertex 4 -87.0177 -43.5948
      vertex 6.99414 -91 -18.05
      vertex 6.99414 -98.9766 -18.05
    endloop
  endfacet
  facet normal -0.993201 0 -0.116414
    outer loop
      vertex -4 -87.0177 -43.5948
      vertex -6.99414 -98.9766 -18.05
      vertex -6.99414 -91 -18.05
    endloop
  endfacet
  facet normal -0.993201 1.76107e-005 -0.116411
    outer loop
      vertex -4 -87.0177 -43.5948
      vertex -6.99414 -91 -18.05
      vertex -7 -91 -18
    endloop
  endfacet
  facet normal -0 0.987917 0.154987
    outer loop
      vertex 4.17991 -88.2371 -35.5611
      vertex 7 -91 -17.95
      vertex 4.18003 -88.2371 -35.5611
    endloop
  endfacet
  facet normal 0.000511396 0.987929 0.154907
    outer loop
      vertex 7 -91 -17.95
      vertex 4.18103 -88.2321 -35.5932
      vertex 4.18003 -88.2371 -35.5611
    endloop
  endfacet
  facet normal -2.00935e-005 0.987916 0.15499
    outer loop
      vertex 7 -91 -17.95
      vertex 4.18411 -88.1166 -36.3297
      vertex 4.18103 -88.2321 -35.5932
    endloop
  endfacet
  facet normal 2.82778e-006 0.987917 0.154986
    outer loop
      vertex 4.18411 -88.1166 -36.3297
      vertex 7 -91 -17.95
      vertex 4.00269 -86.9859 -43.5365
    endloop
  endfacet
  facet normal 0 0.987917 0.154987
    outer loop
      vertex 7 -91 -17.95
      vertex 4.17991 -88.2371 -35.5611
      vertex -7 -91 -17.95
    endloop
  endfacet
  facet normal -0 0.987917 0.154987
    outer loop
      vertex -4.17991 -88.2371 -35.5611
      vertex -7 -91 -17.95
      vertex 4.17991 -88.2371 -35.5611
    endloop
  endfacet
  facet normal -0 0.987917 0.154987
    outer loop
      vertex -4.18003 -88.2371 -35.5611
      vertex -7 -91 -17.95
      vertex -4.17991 -88.2371 -35.5611
    endloop
  endfacet
  facet normal -0.000511396 0.987929 0.154907
    outer loop
      vertex -4.18103 -88.2321 -35.5932
      vertex -7 -91 -17.95
      vertex -4.18003 -88.2371 -35.5611
    endloop
  endfacet
  facet normal 2.00935e-005 0.987916 0.15499
    outer loop
      vertex -4.18411 -88.1166 -36.3297
      vertex -7 -91 -17.95
      vertex -4.18103 -88.2321 -35.5932
    endloop
  endfacet
  facet normal -2.82778e-006 0.987917 0.154986
    outer loop
      vertex -7 -91 -17.95
      vertex -4.18411 -88.1166 -36.3297
      vertex -4.00269 -86.9859 -43.5365
    endloop
  endfacet
  facet normal 0.801267 0.598306 -0
    outer loop
      vertex 7 -91 -18
      vertex 4.00269 -86.9859 -43.5365
      vertex 7 -91 -17.95
    endloop
  endfacet
  facet normal 0.858228 0.512874 -0.0201147
    outer loop
      vertex 4.00269 -86.9859 -43.5365
      vertex 7 -91 -18
      vertex 4.00269 -86.9859 -43.5366
    endloop
  endfacet
  facet normal -0.954705 -0.210403 -0.210403
    outer loop
      vertex -4 -95.0177 -35.5948
      vertex -6.99414 -98.9766 -18.05
      vertex -4 -87.0177 -43.5948
    endloop
  endfacet
  facet normal -0.954714 -0.210368 -0.210397
    outer loop
      vertex -6.99414 -98.9766 -18.05
      vertex -4 -95.0177 -35.5948
      vertex -6.99148 -98.9887 -18.05
    endloop
  endfacet
  facet normal -0.858228 0.512874 -0.0201147
    outer loop
      vertex -7 -91 -18
      vertex -4.00269 -86.9859 -43.5365
      vertex -4.00269 -86.9859 -43.5366
    endloop
  endfacet
  facet normal -0.801267 0.598306 0
    outer loop
      vertex -4.00269 -86.9859 -43.5365
      vertex -7 -91 -18
      vertex -7 -91 -17.95
    endloop
  endfacet
  facet normal -0.989868 0.100405 -0.100401
    outer loop
      vertex -4 -87.0177 -43.5948
      vertex -7 -91 -18
      vertex -4.00269 -86.9859 -43.5366
    endloop
  endfacet
  facet normal 1 -0 0
    outer loop
      vertex 7 -99 -17.95
      vertex 7 -91 -18
      vertex 7 -91 -17.95
    endloop
  endfacet
  facet normal 1 0 0
    outer loop
      vertex 7 -91 -18
      vertex 7 -99 -17.95
      vertex 7 -99 -18
    endloop
  endfacet
  facet normal 0 -0.97533 -0.220751
    outer loop
      vertex -4 -95.0177 -35.5948
      vertex -5 -98.9887 -18.05
      vertex -6.99148 -98.9887 -18.05
    endloop
  endfacet
  facet normal 0 -0.97533 -0.220751
    outer loop
      vertex -5 -98.9887 -18.05
      vertex -4 -95.0177 -35.5948
      vertex 5 -98.9887 -18.05
    endloop
  endfacet
  facet normal -0 -0.97533 -0.220751
    outer loop
      vertex 4 -95.0177 -35.5948
      vertex 5 -98.9887 -18.05
      vertex -4 -95.0177 -35.5948
    endloop
  endfacet
  facet normal 0 -0.97533 -0.220751
    outer loop
      vertex 5 -98.9887 -18.05
      vertex 4 -95.0177 -35.5948
      vertex 6.99148 -98.9887 -18.05
    endloop
  endfacet
  facet normal 0 -0.975339 -0.220711
    outer loop
      vertex -5 -98.9887 -18.05
      vertex 5 -99 -18
      vertex -5 -99 -18
    endloop
  endfacet
  facet normal 0 -0.975339 -0.220711
    outer loop
      vertex 5 -99 -18
      vertex -5 -98.9887 -18.05
      vertex 5 -98.9887 -18.05
    endloop
  endfacet
  facet normal 0.954705 -0.210403 -0.210403
    outer loop
      vertex 6.99414 -98.9766 -18.05
      vertex 4 -95.0177 -35.5948
      vertex 4 -87.0177 -43.5948
    endloop
  endfacet
  facet normal 0.954714 -0.210368 -0.210397
    outer loop
      vertex 4 -95.0177 -35.5948
      vertex 6.99414 -98.9766 -18.05
      vertex 6.99148 -98.9887 -18.05
    endloop
  endfacet
  facet normal 0 -1 0
    outer loop
      vertex -5 -99 -18
      vertex 5 -99 -17.95
      vertex -5 -99 -17.95
    endloop
  endfacet
  facet normal 0 -1 -0
    outer loop
      vertex 5 -99 -17.95
      vertex -5 -99 -18
      vertex 5 -99 -18
    endloop
  endfacet
  facet normal 0 0 1
    outer loop
      vertex 5 -91 -17.95
      vertex 3 -93.6201 -17.95
      vertex 5 -99 -17.95
    endloop
  endfacet
  facet normal -0 0 1
    outer loop
      vertex 2.44418 -92.8591 -17.95
      vertex 3 -93.6201 -17.95
      vertex 5 -91 -17.95
    endloop
  endfacet
  facet normal 0 0 1
    outer loop
      vertex 3 -93.6201 -17.95
      vertex 2.55873 -93.2367 -17.95
      vertex 2.5965 -93.6201 -17.95
    endloop
  endfacet
  facet normal 0 0 1
    outer loop
      vertex 3 -93.6201 -17.95
      vertex 2.44418 -92.8591 -17.95
      vertex 2.55873 -93.2367 -17.95
    endloop
  endfacet
  facet normal 0 0 1
    outer loop
      vertex 5 -91 -17.95
      vertex 2.25816 -92.5111 -17.95
      vertex 2.44418 -92.8591 -17.95
    endloop
  endfacet
  facet normal 0 0 1
    outer loop
      vertex 5 -91 -17.95
      vertex 2.00782 -92.206 -17.95
      vertex 2.25816 -92.5111 -17.95
    endloop
  endfacet
  facet normal 0 0 1
    outer loop
      vertex 5 -91 -17.95
      vertex 1.70279 -91.9557 -17.95
      vertex 2.00782 -92.206 -17.95
    endloop
  endfacet
  facet normal 0 0 1
    outer loop
      vertex 5 -91 -17.95
      vertex 1.35477 -91.7697 -17.95
      vertex 1.70279 -91.9557 -17.95
    endloop
  endfacet
  facet normal 0 0 1
    outer loop
      vertex 5 -91 -17.95
      vertex 0.977154 -91.6551 -17.95
      vertex 1.35477 -91.7697 -17.95
    endloop
  endfacet
  facet normal 0 0 1
    outer loop
      vertex 5 -91 -17.95
      vertex 0.584445 -91.6164 -17.95
      vertex 0.977154 -91.6551 -17.95
    endloop
  endfacet
  facet normal 0 0 1
    outer loop
      vertex 5 -91 -17.95
      vertex -0.584445 -91.6164 -17.95
      vertex 0.584445 -91.6164 -17.95
    endloop
  endfacet
  facet normal -0 0 1
    outer loop
      vertex -5 -91 -17.95
      vertex -0.584445 -91.6164 -17.95
      vertex 5 -91 -17.95
    endloop
  endfacet
  facet normal 0 0 1
    outer loop
      vertex -2.55873 -93.2367 -17.95
      vertex -3 -93.6201 -17.95
      vertex -2.5965 -93.6201 -17.95
    endloop
  endfacet
  facet normal 0 0 1
    outer loop
      vertex -2.44418 -92.8591 -17.95
      vertex -3 -93.6201 -17.95
      vertex -2.55873 -93.2367 -17.95
    endloop
  endfacet
  facet normal 0 0 1
    outer loop
      vertex -5 -91 -17.95
      vertex -2.44418 -92.8591 -17.95
      vertex -2.25816 -92.5111 -17.95
    endloop
  endfacet
  facet normal 0 0 1
    outer loop
      vertex -5 -99 -17.95
      vertex -3 -93.6201 -17.95
      vertex -5 -91 -17.95
    endloop
  endfacet
  facet normal 0 0 1
    outer loop
      vertex -2.44418 -92.8591 -17.95
      vertex -5 -91 -17.95
      vertex -3 -93.6201 -17.95
    endloop
  endfacet
  facet normal 0 0 1
    outer loop
      vertex -2.00782 -92.206 -17.95
      vertex -5 -91 -17.95
      vertex -2.25816 -92.5111 -17.95
    endloop
  endfacet
  facet normal 0 0 1
    outer loop
      vertex -1.70279 -91.9557 -17.95
      vertex -5 -91 -17.95
      vertex -2.00782 -92.206 -17.95
    endloop
  endfacet
  facet normal 0 0 1
    outer loop
      vertex -1.35477 -91.7697 -17.95
      vertex -5 -91 -17.95
      vertex -1.70279 -91.9557 -17.95
    endloop
  endfacet
  facet normal 0 0 1
    outer loop
      vertex -0.977154 -91.6551 -17.95
      vertex -5 -91 -17.95
      vertex -1.35477 -91.7697 -17.95
    endloop
  endfacet
  facet normal 0 0 1
    outer loop
      vertex -0.584445 -91.6164 -17.95
      vertex -5 -91 -17.95
      vertex -0.977154 -91.6551 -17.95
    endloop
  endfacet
  facet normal -0 0 1
    outer loop
      vertex 3 -97.0416 -17.95
      vertex 5 -99 -17.95
      vertex 3 -93.6201 -17.95
    endloop
  endfacet
  facet normal -0 0 1
    outer loop
      vertex -3 -97.0416 -17.95
      vertex 5 -99 -17.95
      vertex 3 -97.0416 -17.95
    endloop
  endfacet
  facet normal 0 0 1
    outer loop
      vertex -3 -97.0416 -17.95
      vertex -5 -99 -17.95
      vertex 5 -99 -17.95
    endloop
  endfacet
  facet normal 0 0 1
    outer loop
      vertex -3 -93.6201 -17.95
      vertex -5 -99 -17.95
      vertex -3 -97.0416 -17.95
    endloop
  endfacet
  facet normal 0 0 0
    outer loop
      vertex 5 -91 -17.95
      vertex 7 -91 -17.95
      vertex -7 -91 -17.95
    endloop
  endfacet
  facet normal 0 0 0
    outer loop
      vertex 5 -91 -17.95
      vertex -7 -91 -17.95
      vertex -5 -91 -17.95
    endloop
  endfacet
  facet normal -1 0 0
    outer loop
      vertex 3.5 -97.5 -10.05
      vertex 3.5 -92.5 -10
      vertex 3.5 -92.5 -10.05
    endloop
  endfacet
  facet normal -1 -0 0
    outer loop
      vertex 3.5 -92.5 -10
      vertex 3.5 -97.5 -10.05
      vertex 3.5 -97.5 -10
    endloop
  endfacet
  facet normal -0.707107 0.707107 0
    outer loop
      vertex 3.5 -92.5 -10.05
      vertex 5 -91 -10
      vertex 5 -91 -11.5
    endloop
  endfacet
  facet normal -0.707107 0.707107 0
    outer loop
      vertex 5 -91 -10
      vertex 3.5 -92.5 -10.05
      vertex 3.5 -92.5 -10
    endloop
  endfacet
  facet normal -0.695022 0 -0.718988
    outer loop
      vertex 3.5 -97.5 -10.05
      vertex 5 -91 -11.5
      vertex 5 -99 -11.5
    endloop
  endfacet
  facet normal -0.695022 0 -0.718988
    outer loop
      vertex 5 -91 -11.5
      vertex 3.5 -97.5 -10.05
      vertex 3.5 -92.5 -10.05
    endloop
  endfacet
  facet normal 0 1 0
    outer loop
      vertex 7 -91 -18
      vertex 7 -91 -18.05
      vertex 6.99414 -91 -18.05
    endloop
  endfacet
  facet normal 0 1 0
    outer loop
      vertex 7 -91 -10
      vertex 5 -91 -11.5
      vertex 5 -91 -10
    endloop
  endfacet
  facet normal 0 1 -0
    outer loop
      vertex 7 -91 -17.95
      vertex 5 -91 -11.5
      vertex 7 -91 -10
    endloop
  endfacet
  facet normal 0 1 0
    outer loop
      vertex 5 -91 -11.5
      vertex 7 -91 -17.95
      vertex 5 -91 -17.95
    endloop
  endfacet
  facet normal 0 -1 0
    outer loop
      vertex 5 -99 -11.5
      vertex 7 -99 -10
      vertex 5 -99 -10
    endloop
  endfacet
  facet normal 0 -1 0
    outer loop
      vertex 7 -99 -18.05
      vertex 5 -99 -11.5
      vertex 5 -99 -18.05
    endloop
  endfacet
  facet normal 0 -1 0
    outer loop
      vertex 5 -99 -11.5
      vertex 7 -99 -18.05
      vertex 7 -99 -10
    endloop
  endfacet
  facet normal 1 -0 0
    outer loop
      vertex 7 -99 -18
      vertex 7 -91 -18.05
      vertex 7 -91 -18
    endloop
  endfacet
  facet normal 1 0 0
    outer loop
      vertex 7 -91 -18.05
      vertex 7 -99 -18
      vertex 7 -99 -18.05
    endloop
  endfacet
  facet normal 1 -0 0
    outer loop
      vertex 7 -99 -10
      vertex 7 -91 -17.95
      vertex 7 -91 -10
    endloop
  endfacet
  facet normal 1 0 0
    outer loop
      vertex 7 -91 -17.95
      vertex 7 -99 -10
      vertex 7 -99 -17.95
    endloop
  endfacet
  facet normal 0 0 0
    outer loop
      vertex 7 -99 -18.05
      vertex 7 -99 -18
      vertex 7 -99 -17.95
    endloop
  endfacet
  facet normal 0 0 0
    outer loop
      vertex 7 -99 -17.95
      vertex 7 -99 -10
      vertex 7 -99 -18.05
    endloop
  endfacet
  facet normal 0 0 1
    outer loop
      vertex 3.5 -92.5 -10
      vertex 7 -91 -10
      vertex 5 -91 -10
    endloop
  endfacet
  facet normal 0 0 1
    outer loop
      vertex 7 -91 -10
      vertex 3.5 -92.5 -10
      vertex 7 -99 -10
    endloop
  endfacet
  facet normal -0 0 1
    outer loop
      vertex 3.5 -97.5 -10
      vertex 7 -99 -10
      vertex 3.5 -92.5 -10
    endloop
  endfacet
  facet normal 0 0 1
    outer loop
      vertex 7 -99 -10
      vertex 3.5 -97.5 -10
      vertex 5 -99 -10
    endloop
  endfacet
  facet normal -0.707107 -0.707107 -0
    outer loop
      vertex 5 -99 -10
      vertex 3.5 -97.5 -10.05
      vertex 5 -99 -11.5
    endloop
  endfacet
  facet normal -0.707107 -0.707107 0
    outer loop
      vertex 3.5 -97.5 -10.05
      vertex 5 -99 -10
      vertex 3.5 -97.5 -10
    endloop
  endfacet
  facet normal 0 0 -1
    outer loop
      vertex 7 -99 -18.05
      vertex 6.99414 -98.9766 -18.05
      vertex 7 -91 -18.05
    endloop
  endfacet
  facet normal 0 0 -1
    outer loop
      vertex 7 -99 -18.05
      vertex 6.99148 -98.9887 -18.05
      vertex 6.99414 -98.9766 -18.05
    endloop
  endfacet
  facet normal 0 0 -1
    outer loop
      vertex 5 -99 -18.05
      vertex 6.99148 -98.9887 -18.05
      vertex 7 -99 -18.05
    endloop
  endfacet
  facet normal -0 0 -1
    outer loop
      vertex 6.99148 -98.9887 -18.05
      vertex 5 -99 -18.05
      vertex 5 -98.9887 -18.05
    endloop
  endfacet
  facet normal -0 0 -1
    outer loop
      vertex 7 -91 -18.05
      vertex 6.99414 -98.9766 -18.05
      vertex 6.99414 -91 -18.05
    endloop
  endfacet
  facet normal -1 0 0
    outer loop
      vertex 5 -99 -17.95
      vertex 5 -91 -11.5
      vertex 5 -91 -17.95
    endloop
  endfacet
  facet normal -1 -0 0
    outer loop
      vertex 5 -91 -11.5
      vertex 5 -99 -17.95
      vertex 5 -99 -11.5
    endloop
  endfacet
  facet normal -1 0 0
    outer loop
      vertex 5 -98.9887 -18.05
      vertex 5 -99 -18.05
      vertex 5 -99 -18
    endloop
  endfacet
  facet normal 0 0 0
    outer loop
      vertex 5 -99 -11.5
      vertex 5 -99 -17.95
      vertex 5 -99 -18
    endloop
  endfacet
  facet normal 0 0 0
    outer loop
      vertex 5 -99 -11.5
      vertex 5 -99 -18
      vertex 5 -99 -18.05
    endloop
  endfacet
  facet normal 1 -0 0
    outer loop
      vertex -3.5 -97.5 -10
      vertex -3.5 -92.5 -10.05
      vertex -3.5 -92.5 -10
    endloop
  endfacet
  facet normal 1 0 0
    outer loop
      vertex -3.5 -92.5 -10.05
      vertex -3.5 -97.5 -10
      vertex -3.5 -97.5 -10.05
    endloop
  endfacet
  facet normal 0.707107 0.707107 -0
    outer loop
      vertex -3.5 -92.5 -10.05
      vertex -5 -91 -10
      vertex -3.5 -92.5 -10
    endloop
  endfacet
  facet normal 0.707107 0.707107 0
    outer loop
      vertex -5 -91 -10
      vertex -3.5 -92.5 -10.05
      vertex -5 -91 -11.5
    endloop
  endfacet
  facet normal 0.695022 0 -0.718988
    outer loop
      vertex -5 -99 -11.5
      vertex -3.5 -92.5 -10.05
      vertex -3.5 -97.5 -10.05
    endloop
  endfacet
  facet normal 0.695022 0 -0.718988
    outer loop
      vertex -3.5 -92.5 -10.05
      vertex -5 -99 -11.5
      vertex -5 -91 -11.5
    endloop
  endfacet
  facet normal 0 1 -0
    outer loop
      vertex -5 -91 -11.5
      vertex -7 -91 -10
      vertex -5 -91 -10
    endloop
  endfacet
  facet normal 0 1 0
    outer loop
      vertex -7 -91 -17.95
      vertex -5 -91 -11.5
      vertex -5 -91 -17.95
    endloop
  endfacet
  facet normal 0 1 0
    outer loop
      vertex -5 -91 -11.5
      vertex -7 -91 -17.95
      vertex -7 -91 -10
    endloop
  endfacet
  facet normal 0 1 0
    outer loop
      vertex -7 -91 -18
      vertex -6.99414 -91 -18.05
      vertex -7 -91 -18.05
    endloop
  endfacet
  facet normal 0 0 0
    outer loop
      vertex -7 -91 -18
      vertex -7 -91 -18.05
      vertex -7 -91 -10
    endloop
  endfacet
  facet normal 0 0 0
    outer loop
      vertex -7 -91 -10
      vertex -7 -91 -17.95
      vertex -7 -91 -18
    endloop
  endfacet
  facet normal 0 -1 0
    outer loop
      vertex -7 -99 -10
      vertex -5 -99 -11.5
      vertex -5 -99 -10
    endloop
  endfacet
  facet normal 0 -1 0
    outer loop
      vertex -7 -99 -18.05
      vertex -5 -99 -11.5
      vertex -7 -99 -10
    endloop
  endfacet
  facet normal 0 -1 -0
    outer loop
      vertex -5 -99 -11.5
      vertex -7 -99 -18.05
      vertex -5 -99 -18.05
    endloop
  endfacet
  facet normal -1 0 0
    outer loop
      vertex -7 -99 -18.05
      vertex -7 -91 -10
      vertex -7 -91 -18.05
    endloop
  endfacet
  facet normal -1 -0 0
    outer loop
      vertex -7 -91 -10
      vertex -7 -99 -18.05
      vertex -7 -99 -10
    endloop
  endfacet
  facet normal -0 0 1
    outer loop
      vertex -7 -91 -10
      vertex -3.5 -92.5 -10
      vertex -5 -91 -10
    endloop
  endfacet
  facet normal 0 0 1
    outer loop
      vertex -3.5 -92.5 -10
      vertex -7 -91 -10
      vertex -3.5 -97.5 -10
    endloop
  endfacet
  facet normal 0 0 1
    outer loop
      vertex -7 -99 -10
      vertex -3.5 -97.5 -10
      vertex -7 -91 -10
    endloop
  endfacet
  facet normal 0 0 1
    outer loop
      vertex -3.5 -97.5 -10
      vertex -7 -99 -10
      vertex -5 -99 -10
    endloop
  endfacet
  facet normal 0.707107 -0.707107 0
    outer loop
      vertex -5 -99 -10
      vertex -3.5 -97.5 -10.05
      vertex -3.5 -97.5 -10
    endloop
  endfacet
  facet normal 0.707107 -0.707107 0
    outer loop
      vertex -3.5 -97.5 -10.05
      vertex -5 -99 -10
      vertex -5 -99 -11.5
    endloop
  endfacet
  facet normal 0 0 -1
    outer loop
      vertex -5 -99 -18.05
      vertex -6.99148 -98.9887 -18.05
      vertex -5 -98.9887 -18.05
    endloop
  endfacet
  facet normal 0 0 -1
    outer loop
      vertex -7 -99 -18.05
      vertex -6.99148 -98.9887 -18.05
      vertex -5 -99 -18.05
    endloop
  endfacet
  facet normal 0 0 -1
    outer loop
      vertex -7 -99 -18.05
      vertex -6.99414 -98.9766 -18.05
      vertex -6.99148 -98.9887 -18.05
    endloop
  endfacet
  facet normal 0 0 -1
    outer loop
      vertex -7 -91 -18.05
      vertex -6.99414 -98.9766 -18.05
      vertex -7 -99 -18.05
    endloop
  endfacet
  facet normal 0 0 -1
    outer loop
      vertex -6.99414 -98.9766 -18.05
      vertex -7 -91 -18.05
      vertex -6.99414 -91 -18.05
    endloop
  endfacet
  facet normal 1 0 0
    outer loop
      vertex -5 -98.9887 -18.05
      vertex -5 -99 -18
      vertex -5 -99 -18.05
    endloop
  endfacet
  facet normal 1 -0 0
    outer loop
      vertex -5 -99 -11.5
      vertex -5 -91 -17.95
      vertex -5 -91 -11.5
    endloop
  endfacet
  facet normal 1 0 0
    outer loop
      vertex -5 -91 -17.95
      vertex -5 -99 -11.5
      vertex -5 -99 -17.95
    endloop
  endfacet
  facet normal 0 0 0
    outer loop
      vertex -5 -99 -17.95
      vertex -5 -99 -11.5
      vertex -5 -99 -18.05
    endloop
  endfacet
  facet normal 0 0 0
    outer loop
      vertex -5 -99 -18
      vertex -5 -99 -17.95
      vertex -5 -99 -18.05
    endloop
  endfacet
endsolid OpenSCAD_Model
