solid OpenSCAD_Model
  facet normal -1.06848e-016 0.488603 0.872506
    outer loop
      vertex -6 20.6784 12.6895
      vertex -6 19.3696 13.4224
      vertex 6 19.3696 13.4224
    endloop
  endfacet
  facet normal -1.06848e-016 0.488603 0.872506
    outer loop
      vertex 2.5 20.6784 12.6895
      vertex -2.5 20.6784 12.6895
      vertex 6 19.3696 13.4224
    endloop
  endfacet
  facet normal -1.06848e-016 0.488603 0.872506
    outer loop
      vertex 6 20.6784 12.6895
      vertex 2.5 20.6784 12.6895
      vertex 6 19.3696 13.4224
    endloop
  endfacet
  facet normal -1.06848e-016 0.488603 0.872506
    outer loop
      vertex 2.90974 20.8795 12.5768
      vertex 2.85355 20.8062 12.6179
      vertex 2.91852 20.8642 12.5854
    endloop
  endfacet
  facet normal -1.06848e-016 0.488603 0.872506
    outer loop
      vertex 3.36603 21.1146 12.4452
      vertex 3.17468 21.0814 12.4638
      vertex 5.5 21.1146 12.4452
    endloop
  endfacet
  facet normal -1.06848e-016 0.488603 0.872506
    outer loop
      vertex 2.6713 21.5212 12.2175
      vertex 2.75882 21.5212 12.2175
      vertex 2.5 21.5509 12.2009
    endloop
  endfacet
  facet normal -1.06848e-016 0.488603 0.872506
    outer loop
      vertex 5.69134 21.0814 12.4638
      vertex 3.01247 20.9869 12.5167
      vertex 5.85355 20.9869 12.5167
    endloop
  endfacet
  facet normal -1.06848e-016 0.488603 0.872506
    outer loop
      vertex 5.85355 20.9869 12.5167
      vertex 2.91852 20.8642 12.5854
      vertex 5.96194 20.8453 12.596
    endloop
  endfacet
  facet normal -1.06848e-016 0.488603 0.872506
    outer loop
      vertex 2.91852 20.8642 12.5854
      vertex 2.85355 20.8062 12.6179
      vertex 5.96194 20.8453 12.596
    endloop
  endfacet
  facet normal -1.06848e-016 0.488603 0.872506
    outer loop
      vertex 5.96194 20.8453 12.596
      vertex 2.69134 20.7116 12.6709
      vertex 6 20.6784 12.6895
    endloop
  endfacet
  facet normal -1.06848e-016 0.488603 0.872506
    outer loop
      vertex 2.69134 20.7116 12.6709
      vertex 2.5 20.6784 12.6895
      vertex 6 20.6784 12.6895
    endloop
  endfacet
  facet normal -1.06848e-016 0.488603 0.872506
    outer loop
      vertex -2.5 20.6784 12.6895
      vertex -6 20.6784 12.6895
      vertex 6 19.3696 13.4224
    endloop
  endfacet
  facet normal -1.06848e-016 0.488603 0.872506
    outer loop
      vertex -2.5 20.6784 12.6895
      vertex -2.69134 20.7116 12.6709
      vertex -6 20.6784 12.6895
    endloop
  endfacet
  facet normal -1.06848e-016 0.488603 0.872506
    outer loop
      vertex -2.91852 20.8642 12.5854
      vertex -3.01247 20.9869 12.5167
      vertex -6 20.6784 12.6895
    endloop
  endfacet
  facet normal -1.06848e-016 0.488603 0.872506
    outer loop
      vertex 2.14645 20.8062 12.6179
      vertex 2.03806 20.9477 12.5387
      vertex -2.14645 20.8062 12.6179
    endloop
  endfacet
  facet normal -1.06848e-016 0.488603 0.872506
    outer loop
      vertex 2.85355 20.8062 12.6179
      vertex 2.69134 20.7116 12.6709
      vertex 5.96194 20.8453 12.596
    endloop
  endfacet
  facet normal -1.06848e-016 0.488603 0.872506
    outer loop
      vertex -2.14645 21.4231 12.2724
      vertex -2.03806 21.2816 12.3517
      vertex 3.81948 22.2659 11.8005
    endloop
  endfacet
  facet normal -1.06848e-016 0.488603 0.872506
    outer loop
      vertex -2.85355 20.8062 12.6179
      vertex -2.91852 20.8642 12.5854
      vertex -6 20.6784 12.6895
    endloop
  endfacet
  facet normal -1.06848e-016 0.488603 0.872506
    outer loop
      vertex -3.92787 22.7413 11.5342
      vertex -3.96592 22.5744 11.6277
      vertex -3.65727 22.9774 11.402
    endloop
  endfacet
  facet normal -1.06848e-016 0.488603 0.872506
    outer loop
      vertex 2.95016 21.5544 12.1989
      vertex 2.5 21.5509 12.2009
      vertex 2.75882 21.5212 12.2175
    endloop
  endfacet
  facet normal -1.06848e-016 0.488603 0.872506
    outer loop
      vertex 3.11237 21.6489 12.146
      vertex 2.5 21.5509 12.2009
      vertex 2.95016 21.5544 12.1989
    endloop
  endfacet
  facet normal -1.06848e-016 0.488603 0.872506
    outer loop
      vertex -3.17468 21.0814 12.4638
      vertex -3.36602 21.1146 12.4452
      vertex -6 20.6784 12.6895
    endloop
  endfacet
  facet normal -1.06848e-016 0.488603 0.872506
    outer loop
      vertex -2 21.1146 12.4452
      vertex 2.30866 21.5177 12.2195
      vertex 2.5 21.5509 12.2009
    endloop
  endfacet
  facet normal -1.06848e-016 0.488603 0.872506
    outer loop
      vertex -2 21.1146 12.4452
      vertex 2.14645 21.4231 12.2724
      vertex 2.30866 21.5177 12.2195
    endloop
  endfacet
  facet normal -1.06848e-016 0.488603 0.872506
    outer loop
      vertex -2.30866 21.5177 12.2195
      vertex 3.92787 22.7413 11.5342
      vertex 3.81948 22.8829 11.455
    endloop
  endfacet
  facet normal -1.06848e-016 0.488603 0.872506
    outer loop
      vertex -2.30866 21.5177 12.2195
      vertex -2.14645 21.4231 12.2724
      vertex 3.92787 22.7413 11.5342
    endloop
  endfacet
  facet normal -1.06848e-016 0.488603 0.872506
    outer loop
      vertex -2.5 21.5509 12.2009
      vertex -2.30866 21.5177 12.2195
      vertex 3.65727 22.9774 11.402
    endloop
  endfacet
  facet normal -1.06848e-016 0.488603 0.872506
    outer loop
      vertex -3.81948 22.8829 11.455
      vertex -3.92787 22.7413 11.5342
      vertex -3.65727 22.9774 11.402
    endloop
  endfacet
  facet normal -1.06848e-016 0.488603 0.872506
    outer loop
      vertex -3.65727 22.9774 11.402
      vertex -3.96592 22.5744 11.6277
      vertex -3.46593 23.0106 11.3834
    endloop
  endfacet
  facet normal -1.06848e-016 0.488603 0.872506
    outer loop
      vertex -3.46593 23.0106 11.3834
      vertex -3.92787 22.4074 11.7212
      vertex 3.46593 23.0106 11.3834
    endloop
  endfacet
  facet normal -1.06848e-016 0.488603 0.872506
    outer loop
      vertex -3.92787 22.4074 11.7212
      vertex -3.81948 22.2659 11.8005
      vertex 3.46593 23.0106 11.3834
    endloop
  endfacet
  facet normal -1.06848e-016 0.488603 0.872506
    outer loop
      vertex -3.81948 22.2659 11.8005
      vertex -3.48961 21.9781 11.9617
      vertex 3.46593 23.0106 11.3834
    endloop
  endfacet
  facet normal -1.06848e-016 0.488603 0.872506
    outer loop
      vertex -3.48961 21.9781 11.9617
      vertex -3.11237 21.6489 12.146
      vertex 3.46593 23.0106 11.3834
    endloop
  endfacet
  facet normal -1.06848e-016 0.488603 0.872506
    outer loop
      vertex -5.5 21.1146 12.4452
      vertex -5.69134 21.0814 12.4638
      vertex -6 20.6784 12.6895
    endloop
  endfacet
  facet normal -1.06848e-016 0.488603 0.872506
    outer loop
      vertex -3.11237 21.6489 12.146
      vertex -2.95016 21.5544 12.1989
      vertex 3.46593 23.0106 11.3834
    endloop
  endfacet
  facet normal -1.06848e-016 0.488603 0.872506
    outer loop
      vertex -2.95016 21.5544 12.1989
      vertex -2.75882 21.5212 12.2175
      vertex 3.46593 23.0106 11.3834
    endloop
  endfacet
  facet normal -1.06848e-016 0.488603 0.872506
    outer loop
      vertex -2.75882 21.5212 12.2175
      vertex -2.6713 21.5212 12.2175
      vertex 3.46593 23.0106 11.3834
    endloop
  endfacet
  facet normal -1.06848e-016 0.488603 0.872506
    outer loop
      vertex -2.6713 21.5212 12.2175
      vertex -2.5 21.5509 12.2009
      vertex 3.46593 23.0106 11.3834
    endloop
  endfacet
  facet normal -1.06848e-016 0.488603 0.872506
    outer loop
      vertex 3.65727 22.9774 11.402
      vertex -2.30866 21.5177 12.2195
      vertex 3.81948 22.8829 11.455
    endloop
  endfacet
  facet normal -1.06848e-016 0.488603 0.872506
    outer loop
      vertex 3.92787 22.7413 11.5342
      vertex -2.14645 21.4231 12.2724
      vertex 3.96593 22.5744 11.6277
    endloop
  endfacet
  facet normal -1.06848e-016 0.488603 0.872506
    outer loop
      vertex 3.81948 22.2659 11.8005
      vertex -2.03806 21.2816 12.3517
      vertex 3.48961 21.9781 11.9617
    endloop
  endfacet
  facet normal -1.06848e-016 0.488603 0.872506
    outer loop
      vertex 3.48961 21.9781 11.9617
      vertex -2 21.1146 12.4452
      vertex 3.11237 21.6489 12.146
    endloop
  endfacet
  facet normal -1.06848e-016 0.488603 0.872506
    outer loop
      vertex 2.03806 21.2816 12.3517
      vertex -2.03806 20.9477 12.5387
      vertex 2 21.1146 12.4452
    endloop
  endfacet
  facet normal -1.06848e-016 0.488603 0.872506
    outer loop
      vertex -2.85355 20.8062 12.6179
      vertex -2.90974 20.8795 12.5768
      vertex -2.91852 20.8642 12.5854
    endloop
  endfacet
  facet normal -1.06848e-016 0.488603 0.872506
    outer loop
      vertex -2.69134 20.7116 12.6709
      vertex -2.85355 20.8062 12.6179
      vertex -6 20.6784 12.6895
    endloop
  endfacet
  facet normal -1.06848e-016 0.488603 0.872506
    outer loop
      vertex -2.30866 20.7116 12.6709
      vertex -2.5 20.6784 12.6895
      vertex 2.30866 20.7116 12.6709
    endloop
  endfacet
  facet normal -1.06848e-016 0.488603 0.872506
    outer loop
      vertex 2.5 20.6784 12.6895
      vertex 2.30866 20.7116 12.6709
      vertex -2.5 20.6784 12.6895
    endloop
  endfacet
  facet normal -1.06848e-016 0.488603 0.872506
    outer loop
      vertex 2.30866 20.7116 12.6709
      vertex 2.14645 20.8062 12.6179
      vertex -2.30866 20.7116 12.6709
    endloop
  endfacet
  facet normal -1.06848e-016 0.488603 0.872506
    outer loop
      vertex -3.96592 22.5744 11.6277
      vertex -3.92787 22.4074 11.7212
      vertex -3.46593 23.0106 11.3834
    endloop
  endfacet
  facet normal -1.06848e-016 0.488603 0.872506
    outer loop
      vertex -3.01247 20.9869 12.5167
      vertex -3.17468 21.0814 12.4638
      vertex -6 20.6784 12.6895
    endloop
  endfacet
  facet normal -1.06848e-016 0.488603 0.872506
    outer loop
      vertex -2.03806 20.9477 12.5387
      vertex 2.03806 20.9477 12.5387
      vertex 2 21.1146 12.4452
    endloop
  endfacet
  facet normal -1.06848e-016 0.488603 0.872506
    outer loop
      vertex -2.03806 20.9477 12.5387
      vertex -2.14645 20.8062 12.6179
      vertex 2.03806 20.9477 12.5387
    endloop
  endfacet
  facet normal -1.06848e-016 0.488603 0.872506
    outer loop
      vertex -2.03806 21.2816 12.3517
      vertex -2 21.1146 12.4452
      vertex 3.48961 21.9781 11.9617
    endloop
  endfacet
  facet normal -1.06848e-016 0.488603 0.872506
    outer loop
      vertex -2 21.1146 12.4452
      vertex 2.5 21.5509 12.2009
      vertex 3.11237 21.6489 12.146
    endloop
  endfacet
  facet normal -1.06848e-016 0.488603 0.872506
    outer loop
      vertex -2.5 21.5509 12.2009
      vertex 3.65727 22.9774 11.402
      vertex 3.46593 23.0106 11.3834
    endloop
  endfacet
  facet normal -1.06848e-016 0.488603 0.872506
    outer loop
      vertex -5.85355 20.9869 12.5167
      vertex -6 20.6784 12.6895
      vertex -5.69134 21.0814 12.4638
    endloop
  endfacet
  facet normal -1.06848e-016 0.488603 0.872506
    outer loop
      vertex -5.96194 20.8453 12.596
      vertex -6 20.6784 12.6895
      vertex -5.85355 20.9869 12.5167
    endloop
  endfacet
  facet normal -1.06848e-016 0.488603 0.872506
    outer loop
      vertex -2.14645 21.4231 12.2724
      vertex 3.81948 22.2659 11.8005
      vertex 3.92787 22.4074 11.7212
    endloop
  endfacet
  facet normal -1.06848e-016 0.488603 0.872506
    outer loop
      vertex -2.14645 21.4231 12.2724
      vertex 3.92787 22.4074 11.7212
      vertex 3.96593 22.5744 11.6277
    endloop
  endfacet
  facet normal -1.06848e-016 0.488603 0.872506
    outer loop
      vertex 3.17468 21.0814 12.4638
      vertex 5.69134 21.0814 12.4638
      vertex 5.5 21.1146 12.4452
    endloop
  endfacet
  facet normal -1.06848e-016 0.488603 0.872506
    outer loop
      vertex 3.17468 21.0814 12.4638
      vertex 3.01247 20.9869 12.5167
      vertex 5.69134 21.0814 12.4638
    endloop
  endfacet
  facet normal -1.06848e-016 0.488603 0.872506
    outer loop
      vertex 3.01247 20.9869 12.5167
      vertex 2.91852 20.8642 12.5854
      vertex 5.85355 20.9869 12.5167
    endloop
  endfacet
  facet normal -1.06848e-016 0.488603 0.872506
    outer loop
      vertex -2.14645 20.8062 12.6179
      vertex -2.30866 20.7116 12.6709
      vertex 2.14645 20.8062 12.6179
    endloop
  endfacet
  facet normal -1.06848e-016 0.488603 0.872506
    outer loop
      vertex -2 21.1146 12.4452
      vertex 2.03806 21.2816 12.3517
      vertex 2.14645 21.4231 12.2724
    endloop
  endfacet
  facet normal -1.06848e-016 0.488603 0.872506
    outer loop
      vertex -2 21.1146 12.4452
      vertex -2.03806 20.9477 12.5387
      vertex 2.03806 21.2816 12.3517
    endloop
  endfacet
  facet normal -1.06848e-016 0.488603 0.872506
    outer loop
      vertex -3.36602 21.1146 12.4452
      vertex -5.5 21.1146 12.4452
      vertex -6 20.6784 12.6895
    endloop
  endfacet
  facet normal -5.98347e-017 -0.872506 0.488603
    outer loop
      vertex -5.99601 19.3453 13.3788
      vertex -6 19.3696 13.4224
      vertex -6 11.8531 0
    endloop
  endfacet
  facet normal -5.98347e-017 -0.872506 0.488603
    outer loop
      vertex -5.99567 19.3467 13.3814
      vertex -6 19.3696 13.4224
      vertex -5.99601 19.3453 13.3788
    endloop
  endfacet
  facet normal -5.98347e-017 -0.872506 0.488603
    outer loop
      vertex -5.99431 19.3477 13.3833
      vertex -6 19.3696 13.4224
      vertex -5.99567 19.3467 13.3814
    endloop
  endfacet
  facet normal -5.98347e-017 -0.872506 0.488603
    outer loop
      vertex -5.99223 19.3484 13.3844
      vertex -6 19.3696 13.4224
      vertex -5.99431 19.3477 13.3833
    endloop
  endfacet
  facet normal -5.98347e-017 -0.872506 0.488603
    outer loop
      vertex -5.98967 19.3486 13.3848
      vertex -6 19.3696 13.4224
      vertex -5.99223 19.3484 13.3844
    endloop
  endfacet
  facet normal -5.98347e-017 -0.872506 0.488603
    outer loop
      vertex 6 19.3696 13.4224
      vertex -6 19.3696 13.4224
      vertex -5.98967 19.3486 13.3848
    endloop
  endfacet
  facet normal -5.98347e-017 -0.872506 0.488603
    outer loop
      vertex 5.99223 19.3484 13.3844
      vertex 6 19.3696 13.4224
      vertex 5.98967 19.3486 13.3848
    endloop
  endfacet
  facet normal -5.98347e-017 -0.872506 0.488603
    outer loop
      vertex 5.99431 19.3477 13.3833
      vertex 6 19.3696 13.4224
      vertex 5.99223 19.3484 13.3844
    endloop
  endfacet
  facet normal -5.98347e-017 -0.872506 0.488603
    outer loop
      vertex 5.99567 19.3467 13.3814
      vertex 6 19.3696 13.4224
      vertex 5.99431 19.3477 13.3833
    endloop
  endfacet
  facet normal -5.98347e-017 -0.872506 0.488603
    outer loop
      vertex 5.99601 19.3453 13.3788
      vertex 6 19.3696 13.4224
      vertex 5.99567 19.3467 13.3814
    endloop
  endfacet
  facet normal -5.98347e-017 -0.872506 0.488603
    outer loop
      vertex 5.99601 11.8531 0
      vertex 6 19.3696 13.4224
      vertex 5.99601 19.3453 13.3788
    endloop
  endfacet
  facet normal -5.98347e-017 -0.872506 0.488603
    outer loop
      vertex 6 11.8531 0
      vertex 6 19.3696 13.4224
      vertex 5.99601 11.8531 0
    endloop
  endfacet
  facet normal -5.98347e-017 -0.872506 0.488603
    outer loop
      vertex -5.99601 11.8531 0
      vertex -5.99601 19.3453 13.3788
      vertex -6 11.8531 0
    endloop
  endfacet
  facet normal -5.98347e-017 -0.872506 0.488603
    outer loop
      vertex -5.98967 19.3486 13.3848
      vertex 5.98967 19.3486 13.3848
      vertex 6 19.3696 13.4224
    endloop
  endfacet
  facet normal -1 1.4235e-033 -1.22461e-016
    outer loop
      vertex -6 19.3696 13.4224
      vertex -6 20.6784 12.6895
      vertex -6 11.8531 0
    endloop
  endfacet
  facet normal -1 1.4235e-033 -1.22461e-016
    outer loop
      vertex -6 11.8531 0
      vertex -6 20.6784 12.6895
      vertex -6 13.5723 0
    endloop
  endfacet
  facet normal -0.980786 0.170216 -0.0953211
    outer loop
      vertex -6 20.6784 12.6895
      vertex -5.96194 20.8453 12.596
      vertex -6 13.5723 0
    endloop
  endfacet
  facet normal -0.980786 0.170216 -0.0953211
    outer loop
      vertex -6 13.5723 0
      vertex -5.96194 20.8453 12.596
      vertex -5.96194 13.7916 0
    endloop
  endfacet
  facet normal -0.831467 0.484742 -0.271455
    outer loop
      vertex -5.96194 20.8453 12.596
      vertex -5.85355 20.9869 12.5167
      vertex -5.96194 13.7916 0
    endloop
  endfacet
  facet normal -0.831467 0.484742 -0.271455
    outer loop
      vertex -5.96194 13.7916 0
      vertex -5.85355 20.9869 12.5167
      vertex -5.85355 13.9775 0
    endloop
  endfacet
  facet normal -0.555574 0.72546 -0.406258
    outer loop
      vertex -5.85355 20.9869 12.5167
      vertex -5.69134 21.0814 12.4638
      vertex -5.85355 13.9775 0
    endloop
  endfacet
  facet normal -0.555574 0.72546 -0.406258
    outer loop
      vertex -5.85355 13.9775 0
      vertex -5.69134 21.0814 12.4638
      vertex -5.69134 14.1017 0
    endloop
  endfacet
  facet normal -0.195089 0.855741 -0.479215
    outer loop
      vertex -5.69134 21.0814 12.4638
      vertex -5.5 21.1146 12.4452
      vertex -5.69134 14.1017 0
    endloop
  endfacet
  facet normal -0.195089 0.855741 -0.479215
    outer loop
      vertex -5.69134 14.1017 0
      vertex -5.5 21.1146 12.4452
      vertex -5.5 14.1453 0
    endloop
  endfacet
  facet normal 5.98347e-017 0.872506 -0.488603
    outer loop
      vertex -5.5 21.1146 12.4452
      vertex -3.36602 21.1146 12.4452
      vertex -5.5 14.1453 0
    endloop
  endfacet
  facet normal 5.98347e-017 0.872506 -0.488603
    outer loop
      vertex -5.5 14.1453 0
      vertex -3.36602 21.1146 12.4452
      vertex -3.36602 14.1453 0
    endloop
  endfacet
  facet normal 0.195089 0.855741 -0.479215
    outer loop
      vertex -3.36602 21.1146 12.4452
      vertex -3.17468 21.0814 12.4638
      vertex -3.36602 14.1453 0
    endloop
  endfacet
  facet normal 0.195089 0.855741 -0.479215
    outer loop
      vertex -3.36602 14.1453 0
      vertex -3.17468 21.0814 12.4638
      vertex -3.17468 14.1017 0
    endloop
  endfacet
  facet normal 0.555574 0.72546 -0.406258
    outer loop
      vertex -3.17468 21.0814 12.4638
      vertex -3.01247 20.9869 12.5167
      vertex -3.17468 14.1017 0
    endloop
  endfacet
  facet normal 0.555574 0.72546 -0.406258
    outer loop
      vertex -3.17468 14.1017 0
      vertex -3.01247 20.9869 12.5167
      vertex -3.01247 13.9775 0
    endloop
  endfacet
  facet normal 0.831467 0.484742 -0.271455
    outer loop
      vertex -3.01247 13.9775 0
      vertex -3.01247 20.9869 12.5167
      vertex -2.91852 20.8642 12.5854
    endloop
  endfacet
  facet normal 0.831467 0.484742 -0.271455
    outer loop
      vertex -2.91852 13.8164 0
      vertex -3.01247 13.9775 0
      vertex -2.91852 20.8642 12.5854
    endloop
  endfacet
  facet normal -0.894427 0.390197 -0.21851
    outer loop
      vertex -2.91852 20.8642 12.5854
      vertex -2.90974 20.8795 12.5768
      vertex -2.91852 13.8164 0
    endloop
  endfacet
  facet normal -0.894427 0.390197 -0.21851
    outer loop
      vertex -2.91852 13.8164 0
      vertex -2.90974 20.8795 12.5768
      vertex -2.90974 13.8365 0
    endloop
  endfacet
  facet normal 0.831467 0.484742 -0.271455
    outer loop
      vertex -2.85355 20.8062 12.6179
      vertex -2.85355 13.7401 0
      vertex -2.90974 13.8365 0
    endloop
  endfacet
  facet normal 0.831467 0.484742 -0.271455
    outer loop
      vertex -2.90974 20.8795 12.5768
      vertex -2.85355 20.8062 12.6179
      vertex -2.90974 13.8365 0
    endloop
  endfacet
  facet normal 0.555574 0.72546 -0.406258
    outer loop
      vertex -2.69134 13.6159 0
      vertex -2.85355 13.7401 0
      vertex -2.69134 20.7116 12.6709
    endloop
  endfacet
  facet normal 0.555574 0.72546 -0.406258
    outer loop
      vertex -2.69134 20.7116 12.6709
      vertex -2.85355 13.7401 0
      vertex -2.85355 20.8062 12.6179
    endloop
  endfacet
  facet normal 0.195089 0.855741 -0.479215
    outer loop
      vertex -2.5 13.5723 0
      vertex -2.69134 13.6159 0
      vertex -2.5 20.6784 12.6895
    endloop
  endfacet
  facet normal 0.195089 0.855741 -0.479215
    outer loop
      vertex -2.5 20.6784 12.6895
      vertex -2.69134 13.6159 0
      vertex -2.69134 20.7116 12.6709
    endloop
  endfacet
  facet normal -0.195089 0.855741 -0.479215
    outer loop
      vertex -2.30866 13.6159 0
      vertex -2.5 13.5723 0
      vertex -2.30866 20.7116 12.6709
    endloop
  endfacet
  facet normal -0.195089 0.855741 -0.479215
    outer loop
      vertex -2.30866 20.7116 12.6709
      vertex -2.5 13.5723 0
      vertex -2.5 20.6784 12.6895
    endloop
  endfacet
  facet normal -0.555574 0.72546 -0.406258
    outer loop
      vertex -2.14645 13.7401 0
      vertex -2.30866 13.6159 0
      vertex -2.14645 20.8062 12.6179
    endloop
  endfacet
  facet normal -0.555574 0.72546 -0.406258
    outer loop
      vertex -2.14645 20.8062 12.6179
      vertex -2.30866 13.6159 0
      vertex -2.30866 20.7116 12.6709
    endloop
  endfacet
  facet normal -0.831467 0.484742 -0.271455
    outer loop
      vertex -2.03806 13.926 0
      vertex -2.14645 13.7401 0
      vertex -2.03806 20.9477 12.5387
    endloop
  endfacet
  facet normal -0.831467 0.484742 -0.271455
    outer loop
      vertex -2.03806 20.9477 12.5387
      vertex -2.14645 13.7401 0
      vertex -2.14645 20.8062 12.6179
    endloop
  endfacet
  facet normal -0.980786 0.170216 -0.0953211
    outer loop
      vertex -2 14.1453 0
      vertex -2.03806 13.926 0
      vertex -2 21.1146 12.4452
    endloop
  endfacet
  facet normal -0.980786 0.170216 -0.0953211
    outer loop
      vertex -2 21.1146 12.4452
      vertex -2.03806 13.926 0
      vertex -2.03806 20.9477 12.5387
    endloop
  endfacet
  facet normal -0.980786 -0.170216 0.0953211
    outer loop
      vertex -2 14.1453 0
      vertex -2 21.1146 12.4452
      vertex -2.03806 14.3646 0
    endloop
  endfacet
  facet normal -0.980786 -0.170216 0.0953211
    outer loop
      vertex -2.03806 14.3646 0
      vertex -2 21.1146 12.4452
      vertex -2.03806 21.2816 12.3517
    endloop
  endfacet
  facet normal -0.831467 -0.484742 0.271455
    outer loop
      vertex -2.03806 14.3646 0
      vertex -2.03806 21.2816 12.3517
      vertex -2.14645 14.5506 0
    endloop
  endfacet
  facet normal -0.831467 -0.484742 0.271455
    outer loop
      vertex -2.14645 14.5506 0
      vertex -2.03806 21.2816 12.3517
      vertex -2.14645 21.4231 12.2724
    endloop
  endfacet
  facet normal -0.555574 -0.72546 0.406258
    outer loop
      vertex -2.30866 14.6748 0
      vertex -2.14645 14.5506 0
      vertex -2.14645 21.4231 12.2724
    endloop
  endfacet
  facet normal -0.555574 -0.72546 0.406258
    outer loop
      vertex -2.30866 21.5177 12.2195
      vertex -2.30866 14.6748 0
      vertex -2.14645 21.4231 12.2724
    endloop
  endfacet
  facet normal -0.195089 -0.855741 0.479215
    outer loop
      vertex -2.5 14.7184 0
      vertex -2.30866 14.6748 0
      vertex -2.30866 21.5177 12.2195
    endloop
  endfacet
  facet normal -0.195089 -0.855741 0.479215
    outer loop
      vertex -2.5 21.5509 12.2009
      vertex -2.5 14.7184 0
      vertex -2.30866 21.5177 12.2195
    endloop
  endfacet
  facet normal 0.195089 -0.855741 0.479215
    outer loop
      vertex -2.6713 14.6794 0
      vertex -2.5 14.7184 0
      vertex -2.5 21.5509 12.2009
    endloop
  endfacet
  facet normal 0.195089 -0.855741 0.479215
    outer loop
      vertex -2.6713 21.5212 12.2175
      vertex -2.6713 14.6794 0
      vertex -2.5 21.5509 12.2009
    endloop
  endfacet
  facet normal -5.98347e-017 -0.872506 0.488603
    outer loop
      vertex -2.6713 21.5212 12.2175
      vertex -2.75882 21.5212 12.2175
      vertex -2.75882 14.6794 0
    endloop
  endfacet
  facet normal -5.98347e-017 -0.872506 0.488603
    outer loop
      vertex -2.6713 14.6794 0
      vertex -2.6713 21.5212 12.2175
      vertex -2.75882 14.6794 0
    endloop
  endfacet
  facet normal -0.195089 -0.855741 0.479215
    outer loop
      vertex -2.75882 21.5212 12.2175
      vertex -2.95016 21.5544 12.1989
      vertex -2.95016 14.723 0
    endloop
  endfacet
  facet normal -0.195089 -0.855741 0.479215
    outer loop
      vertex -2.75882 14.6794 0
      vertex -2.75882 21.5212 12.2175
      vertex -2.95016 14.723 0
    endloop
  endfacet
  facet normal -0.55557 -0.725462 0.406259
    outer loop
      vertex -2.95016 21.5544 12.1989
      vertex -3.11237 21.6489 12.146
      vertex -3.11237 14.8472 0
    endloop
  endfacet
  facet normal -0.55557 -0.725462 0.406259
    outer loop
      vertex -2.95016 14.723 0
      vertex -2.95016 21.5544 12.1989
      vertex -3.11237 14.8472 0
    endloop
  endfacet
  facet normal -0.707107 -0.616955 0.345495
    outer loop
      vertex -3.48961 21.9781 11.9617
      vertex -3.48961 15.2796 0
      vertex -3.11237 21.6489 12.146
    endloop
  endfacet
  facet normal -0.707107 -0.616955 0.345495
    outer loop
      vertex -3.11237 21.6489 12.146
      vertex -3.48961 15.2796 0
      vertex -3.11237 14.8472 0
    endloop
  endfacet
  facet normal -0.707107 -0.616955 0.345495
    outer loop
      vertex -3.48961 15.2796 0
      vertex -3.48961 21.9781 11.9617
      vertex -3.81948 15.6576 0
    endloop
  endfacet
  facet normal -0.707107 -0.616955 0.345495
    outer loop
      vertex -3.81948 15.6576 0
      vertex -3.48961 21.9781 11.9617
      vertex -3.81948 22.2659 11.8005
    endloop
  endfacet
  facet normal -0.831469 -0.48474 0.271454
    outer loop
      vertex -3.92787 22.4074 11.7212
      vertex -3.92787 15.8435 0
      vertex -3.81948 22.2659 11.8005
    endloop
  endfacet
  facet normal -0.831469 -0.48474 0.271454
    outer loop
      vertex -3.81948 22.2659 11.8005
      vertex -3.92787 15.8435 0
      vertex -3.81948 15.6576 0
    endloop
  endfacet
  facet normal -0.980787 -0.170212 0.0953187
    outer loop
      vertex -3.96592 22.5744 11.6277
      vertex -3.96592 16.0628 0
      vertex -3.92787 22.4074 11.7212
    endloop
  endfacet
  facet normal -0.980787 -0.170212 0.0953187
    outer loop
      vertex -3.92787 22.4074 11.7212
      vertex -3.96592 16.0628 0
      vertex -3.92787 15.8435 0
    endloop
  endfacet
  facet normal -0.980786 0.170213 -0.0953192
    outer loop
      vertex -3.96592 22.5744 11.6277
      vertex -3.92787 22.7413 11.5342
      vertex -3.96592 16.0628 0
    endloop
  endfacet
  facet normal -0.980786 0.170213 -0.0953192
    outer loop
      vertex -3.96592 16.0628 0
      vertex -3.92787 22.7413 11.5342
      vertex -3.92787 16.2821 0
    endloop
  endfacet
  facet normal -0.831469 0.48474 -0.271454
    outer loop
      vertex -3.92787 22.7413 11.5342
      vertex -3.81948 22.8829 11.455
      vertex -3.92787 16.2821 0
    endloop
  endfacet
  facet normal -0.831469 0.48474 -0.271454
    outer loop
      vertex -3.92787 16.2821 0
      vertex -3.81948 22.8829 11.455
      vertex -3.81948 16.4681 0
    endloop
  endfacet
  facet normal -0.555574 0.72546 -0.406258
    outer loop
      vertex -3.81948 22.8829 11.455
      vertex -3.65727 22.9774 11.402
      vertex -3.81948 16.4681 0
    endloop
  endfacet
  facet normal -0.555574 0.72546 -0.406258
    outer loop
      vertex -3.81948 16.4681 0
      vertex -3.65727 22.9774 11.402
      vertex -3.65727 16.5923 0
    endloop
  endfacet
  facet normal -0.195084 0.855742 -0.479216
    outer loop
      vertex -3.65727 22.9774 11.402
      vertex -3.46593 23.0106 11.3834
      vertex -3.65727 16.5923 0
    endloop
  endfacet
  facet normal -0.195084 0.855742 -0.479216
    outer loop
      vertex -3.65727 16.5923 0
      vertex -3.46593 23.0106 11.3834
      vertex -3.46593 16.6359 0
    endloop
  endfacet
  facet normal 5.98347e-017 0.872506 -0.488603
    outer loop
      vertex -3.46593 23.0106 11.3834
      vertex 3.46593 23.0106 11.3834
      vertex -3.46593 16.6359 0
    endloop
  endfacet
  facet normal 5.98347e-017 0.872506 -0.488603
    outer loop
      vertex -3.46593 16.6359 0
      vertex 3.46593 23.0106 11.3834
      vertex 3.46593 16.6359 0
    endloop
  endfacet
  facet normal 0.195084 0.855742 -0.479216
    outer loop
      vertex 3.46593 23.0106 11.3834
      vertex 3.65727 22.9774 11.402
      vertex 3.46593 16.6359 0
    endloop
  endfacet
  facet normal 0.195084 0.855742 -0.479216
    outer loop
      vertex 3.46593 16.6359 0
      vertex 3.65727 22.9774 11.402
      vertex 3.65727 16.5923 0
    endloop
  endfacet
  facet normal 0.555574 0.72546 -0.406258
    outer loop
      vertex 3.65727 22.9774 11.402
      vertex 3.81948 22.8829 11.455
      vertex 3.65727 16.5923 0
    endloop
  endfacet
  facet normal 0.555574 0.72546 -0.406258
    outer loop
      vertex 3.65727 16.5923 0
      vertex 3.81948 22.8829 11.455
      vertex 3.81948 16.4681 0
    endloop
  endfacet
  facet normal 0.831469 0.48474 -0.271454
    outer loop
      vertex 3.81948 16.4681 0
      vertex 3.81948 22.8829 11.455
      vertex 3.92787 22.7413 11.5342
    endloop
  endfacet
  facet normal 0.831469 0.48474 -0.271454
    outer loop
      vertex 3.92787 16.2821 0
      vertex 3.81948 16.4681 0
      vertex 3.92787 22.7413 11.5342
    endloop
  endfacet
  facet normal 0.980786 0.170213 -0.0953192
    outer loop
      vertex 3.92787 16.2821 0
      vertex 3.92787 22.7413 11.5342
      vertex 3.96593 22.5744 11.6277
    endloop
  endfacet
  facet normal 0.980786 0.170213 -0.0953192
    outer loop
      vertex 3.96593 16.0628 0
      vertex 3.92787 16.2821 0
      vertex 3.96593 22.5744 11.6277
    endloop
  endfacet
  facet normal 0.980787 -0.170212 0.0953187
    outer loop
      vertex 3.96593 22.5744 11.6277
      vertex 3.92787 22.4074 11.7212
      vertex 3.92787 15.8435 0
    endloop
  endfacet
  facet normal 0.980787 -0.170212 0.0953187
    outer loop
      vertex 3.96593 16.0628 0
      vertex 3.96593 22.5744 11.6277
      vertex 3.92787 15.8435 0
    endloop
  endfacet
  facet normal 0.831469 -0.48474 0.271454
    outer loop
      vertex 3.92787 22.4074 11.7212
      vertex 3.81948 22.2659 11.8005
      vertex 3.81948 15.6576 0
    endloop
  endfacet
  facet normal 0.831469 -0.48474 0.271454
    outer loop
      vertex 3.92787 15.8435 0
      vertex 3.92787 22.4074 11.7212
      vertex 3.81948 15.6576 0
    endloop
  endfacet
  facet normal 0.707107 -0.616955 0.345495
    outer loop
      vertex 3.81948 22.2659 11.8005
      vertex 3.48961 21.9781 11.9617
      vertex 3.48961 15.2796 0
    endloop
  endfacet
  facet normal 0.707107 -0.616955 0.345495
    outer loop
      vertex 3.81948 15.6576 0
      vertex 3.81948 22.2659 11.8005
      vertex 3.48961 15.2796 0
    endloop
  endfacet
  facet normal 0.707107 -0.616955 0.345495
    outer loop
      vertex 3.48961 21.9781 11.9617
      vertex 3.11237 21.6489 12.146
      vertex 3.11237 14.8472 0
    endloop
  endfacet
  facet normal 0.707107 -0.616955 0.345495
    outer loop
      vertex 3.48961 15.2796 0
      vertex 3.48961 21.9781 11.9617
      vertex 3.11237 14.8472 0
    endloop
  endfacet
  facet normal 0.55557 -0.725462 0.406259
    outer loop
      vertex 3.11237 21.6489 12.146
      vertex 2.95016 21.5544 12.1989
      vertex 2.95016 14.723 0
    endloop
  endfacet
  facet normal 0.55557 -0.725462 0.406259
    outer loop
      vertex 3.11237 14.8472 0
      vertex 3.11237 21.6489 12.146
      vertex 2.95016 14.723 0
    endloop
  endfacet
  facet normal 0.195089 -0.855741 0.479215
    outer loop
      vertex 2.95016 21.5544 12.1989
      vertex 2.75882 21.5212 12.2175
      vertex 2.75882 14.6794 0
    endloop
  endfacet
  facet normal 0.195089 -0.855741 0.479215
    outer loop
      vertex 2.95016 14.723 0
      vertex 2.95016 21.5544 12.1989
      vertex 2.75882 14.6794 0
    endloop
  endfacet
  facet normal -5.98347e-017 -0.872506 0.488603
    outer loop
      vertex 2.75882 21.5212 12.2175
      vertex 2.6713 21.5212 12.2175
      vertex 2.6713 14.6794 0
    endloop
  endfacet
  facet normal -5.98347e-017 -0.872506 0.488603
    outer loop
      vertex 2.75882 14.6794 0
      vertex 2.75882 21.5212 12.2175
      vertex 2.6713 14.6794 0
    endloop
  endfacet
  facet normal -0.195089 -0.855741 0.479215
    outer loop
      vertex 2.6713 21.5212 12.2175
      vertex 2.5 21.5509 12.2009
      vertex 2.5 14.7184 0
    endloop
  endfacet
  facet normal -0.195089 -0.855741 0.479215
    outer loop
      vertex 2.6713 14.6794 0
      vertex 2.6713 21.5212 12.2175
      vertex 2.5 14.7184 0
    endloop
  endfacet
  facet normal 0.195089 -0.855741 0.479215
    outer loop
      vertex 2.5 21.5509 12.2009
      vertex 2.30866 21.5177 12.2195
      vertex 2.30866 14.6748 0
    endloop
  endfacet
  facet normal 0.195089 -0.855741 0.479215
    outer loop
      vertex 2.5 14.7184 0
      vertex 2.5 21.5509 12.2009
      vertex 2.30866 14.6748 0
    endloop
  endfacet
  facet normal 0.555574 -0.72546 0.406258
    outer loop
      vertex 2.30866 21.5177 12.2195
      vertex 2.14645 21.4231 12.2724
      vertex 2.14645 14.5506 0
    endloop
  endfacet
  facet normal 0.555574 -0.72546 0.406258
    outer loop
      vertex 2.30866 14.6748 0
      vertex 2.30866 21.5177 12.2195
      vertex 2.14645 14.5506 0
    endloop
  endfacet
  facet normal 0.831467 -0.484742 0.271455
    outer loop
      vertex 2.14645 21.4231 12.2724
      vertex 2.03806 21.2816 12.3517
      vertex 2.03806 14.3646 0
    endloop
  endfacet
  facet normal 0.831467 -0.484742 0.271455
    outer loop
      vertex 2.14645 14.5506 0
      vertex 2.14645 21.4231 12.2724
      vertex 2.03806 14.3646 0
    endloop
  endfacet
  facet normal 0.980786 -0.170216 0.0953211
    outer loop
      vertex 2.03806 21.2816 12.3517
      vertex 2 21.1146 12.4452
      vertex 2 14.1453 0
    endloop
  endfacet
  facet normal 0.980786 -0.170216 0.0953211
    outer loop
      vertex 2.03806 14.3646 0
      vertex 2.03806 21.2816 12.3517
      vertex 2 14.1453 0
    endloop
  endfacet
  facet normal 0.980786 0.170216 -0.0953211
    outer loop
      vertex 2 14.1453 0
      vertex 2 21.1146 12.4452
      vertex 2.03806 20.9477 12.5387
    endloop
  endfacet
  facet normal 0.980786 0.170216 -0.0953211
    outer loop
      vertex 2.03806 13.926 0
      vertex 2 14.1453 0
      vertex 2.03806 20.9477 12.5387
    endloop
  endfacet
  facet normal 0.831467 0.484742 -0.271455
    outer loop
      vertex 2.03806 13.926 0
      vertex 2.03806 20.9477 12.5387
      vertex 2.14645 20.8062 12.6179
    endloop
  endfacet
  facet normal 0.831467 0.484742 -0.271455
    outer loop
      vertex 2.14645 13.7401 0
      vertex 2.03806 13.926 0
      vertex 2.14645 20.8062 12.6179
    endloop
  endfacet
  facet normal 0.555574 0.72546 -0.406258
    outer loop
      vertex 2.14645 20.8062 12.6179
      vertex 2.30866 20.7116 12.6709
      vertex 2.14645 13.7401 0
    endloop
  endfacet
  facet normal 0.555574 0.72546 -0.406258
    outer loop
      vertex 2.14645 13.7401 0
      vertex 2.30866 20.7116 12.6709
      vertex 2.30866 13.6159 0
    endloop
  endfacet
  facet normal 0.195089 0.855741 -0.479215
    outer loop
      vertex 2.30866 20.7116 12.6709
      vertex 2.5 20.6784 12.6895
      vertex 2.30866 13.6159 0
    endloop
  endfacet
  facet normal 0.195089 0.855741 -0.479215
    outer loop
      vertex 2.30866 13.6159 0
      vertex 2.5 20.6784 12.6895
      vertex 2.5 13.5723 0
    endloop
  endfacet
  facet normal -0.195089 0.855741 -0.479215
    outer loop
      vertex 2.5 20.6784 12.6895
      vertex 2.69134 20.7116 12.6709
      vertex 2.5 13.5723 0
    endloop
  endfacet
  facet normal -0.195089 0.855741 -0.479215
    outer loop
      vertex 2.5 13.5723 0
      vertex 2.69134 20.7116 12.6709
      vertex 2.69134 13.6159 0
    endloop
  endfacet
  facet normal -0.555574 0.72546 -0.406258
    outer loop
      vertex 2.69134 20.7116 12.6709
      vertex 2.85355 20.8062 12.6179
      vertex 2.69134 13.6159 0
    endloop
  endfacet
  facet normal -0.555574 0.72546 -0.406258
    outer loop
      vertex 2.69134 13.6159 0
      vertex 2.85355 20.8062 12.6179
      vertex 2.85355 13.7401 0
    endloop
  endfacet
  facet normal -0.831467 0.484742 -0.271455
    outer loop
      vertex 2.85355 20.8062 12.6179
      vertex 2.90974 20.8795 12.5768
      vertex 2.85355 13.7401 0
    endloop
  endfacet
  facet normal -0.831467 0.484742 -0.271455
    outer loop
      vertex 2.85355 13.7401 0
      vertex 2.90974 20.8795 12.5768
      vertex 2.90974 13.8365 0
    endloop
  endfacet
  facet normal 0.894427 0.390197 -0.21851
    outer loop
      vertex 2.90974 13.8365 0
      vertex 2.90974 20.8795 12.5768
      vertex 2.91852 20.8642 12.5854
    endloop
  endfacet
  facet normal 0.894427 0.390197 -0.21851
    outer loop
      vertex 2.91852 13.8164 0
      vertex 2.90974 13.8365 0
      vertex 2.91852 20.8642 12.5854
    endloop
  endfacet
  facet normal -0.831467 0.484742 -0.271455
    outer loop
      vertex 3.01247 13.9775 0
      vertex 2.91852 13.8164 0
      vertex 3.01247 20.9869 12.5167
    endloop
  endfacet
  facet normal -0.831467 0.484742 -0.271455
    outer loop
      vertex 3.01247 20.9869 12.5167
      vertex 2.91852 13.8164 0
      vertex 2.91852 20.8642 12.5854
    endloop
  endfacet
  facet normal -0.555574 0.72546 -0.406258
    outer loop
      vertex 3.17468 14.1017 0
      vertex 3.01247 13.9775 0
      vertex 3.17468 21.0814 12.4638
    endloop
  endfacet
  facet normal -0.555574 0.72546 -0.406258
    outer loop
      vertex 3.17468 21.0814 12.4638
      vertex 3.01247 13.9775 0
      vertex 3.01247 20.9869 12.5167
    endloop
  endfacet
  facet normal -0.195089 0.855741 -0.479215
    outer loop
      vertex 3.36603 14.1453 0
      vertex 3.17468 14.1017 0
      vertex 3.36603 21.1146 12.4452
    endloop
  endfacet
  facet normal -0.195089 0.855741 -0.479215
    outer loop
      vertex 3.36603 21.1146 12.4452
      vertex 3.17468 14.1017 0
      vertex 3.17468 21.0814 12.4638
    endloop
  endfacet
  facet normal 5.98347e-017 0.872506 -0.488603
    outer loop
      vertex 5.5 14.1453 0
      vertex 3.36603 14.1453 0
      vertex 5.5 21.1146 12.4452
    endloop
  endfacet
  facet normal 5.98347e-017 0.872506 -0.488603
    outer loop
      vertex 5.5 21.1146 12.4452
      vertex 3.36603 14.1453 0
      vertex 3.36603 21.1146 12.4452
    endloop
  endfacet
  facet normal 0.195089 0.855741 -0.479215
    outer loop
      vertex 5.69134 14.1017 0
      vertex 5.5 14.1453 0
      vertex 5.69134 21.0814 12.4638
    endloop
  endfacet
  facet normal 0.195089 0.855741 -0.479215
    outer loop
      vertex 5.69134 21.0814 12.4638
      vertex 5.5 14.1453 0
      vertex 5.5 21.1146 12.4452
    endloop
  endfacet
  facet normal 0.555574 0.72546 -0.406258
    outer loop
      vertex 5.85355 13.9775 0
      vertex 5.69134 14.1017 0
      vertex 5.85355 20.9869 12.5167
    endloop
  endfacet
  facet normal 0.555574 0.72546 -0.406258
    outer loop
      vertex 5.85355 20.9869 12.5167
      vertex 5.69134 14.1017 0
      vertex 5.69134 21.0814 12.4638
    endloop
  endfacet
  facet normal 0.831467 0.484742 -0.271455
    outer loop
      vertex 5.96194 20.8453 12.596
      vertex 5.96194 13.7916 0
      vertex 5.85355 13.9775 0
    endloop
  endfacet
  facet normal 0.831467 0.484742 -0.271455
    outer loop
      vertex 5.85355 20.9869 12.5167
      vertex 5.96194 20.8453 12.596
      vertex 5.85355 13.9775 0
    endloop
  endfacet
  facet normal 0.980786 0.170216 -0.0953211
    outer loop
      vertex 6 20.6784 12.6895
      vertex 6 13.5723 0
      vertex 5.96194 13.7916 0
    endloop
  endfacet
  facet normal 0.980786 0.170216 -0.0953211
    outer loop
      vertex 5.96194 20.8453 12.596
      vertex 6 20.6784 12.6895
      vertex 5.96194 13.7916 0
    endloop
  endfacet
  facet normal 1 -1.4235e-033 1.22461e-016
    outer loop
      vertex 6 20.6784 12.6895
      vertex 6 19.3696 13.4224
      vertex 6 11.8531 0
    endloop
  endfacet
  facet normal 1 -1.4235e-033 1.22461e-016
    outer loop
      vertex 6 13.5723 0
      vertex 6 20.6784 12.6895
      vertex 6 11.8531 0
    endloop
  endfacet
  facet normal 0 0 -1
    outer loop
      vertex -6 11.8531 0
      vertex -6 13.5723 0
      vertex -5.99601 11.8531 0
    endloop
  endfacet
  facet normal 0 0 -1
    outer loop
      vertex -5.99601 11.8531 0
      vertex -6 13.5723 0
      vertex -5.96194 13.7916 0
    endloop
  endfacet
  facet normal 0 0 -1
    outer loop
      vertex -5.99601 11.8531 0
      vertex -5.96194 13.7916 0
      vertex -5.85355 13.9775 0
    endloop
  endfacet
  facet normal 0 0 -1
    outer loop
      vertex -5.99601 11.8531 0
      vertex -5.85355 13.9775 0
      vertex -5.69134 14.1017 0
    endloop
  endfacet
  facet normal 0 0 -1
    outer loop
      vertex -5.99601 11.8531 0
      vertex -5.69134 14.1017 0
      vertex -5.5 14.1453 0
    endloop
  endfacet
  facet normal 0 0 -1
    outer loop
      vertex -5.99601 11.8531 0
      vertex -5.5 14.1453 0
      vertex -3.36602 14.1453 0
    endloop
  endfacet
  facet normal 0 0 -1
    outer loop
      vertex -5.99601 11.8531 0
      vertex -3.36602 14.1453 0
      vertex -3.17468 14.1017 0
    endloop
  endfacet
  facet normal 0 0 -1
    outer loop
      vertex -5.99601 11.8531 0
      vertex -3.17468 14.1017 0
      vertex -3.01247 13.9775 0
    endloop
  endfacet
  facet normal 0 0 -1
    outer loop
      vertex -5.99601 11.8531 0
      vertex -3.01247 13.9775 0
      vertex -2.91852 13.8164 0
    endloop
  endfacet
  facet normal 0 0 -1
    outer loop
      vertex -2.91852 13.8164 0
      vertex -2.90974 13.8365 0
      vertex -2.85355 13.7401 0
    endloop
  endfacet
  facet normal 0 0 -1
    outer loop
      vertex -2.91852 13.8164 0
      vertex -2.85355 13.7401 0
      vertex -5.99601 11.8531 0
    endloop
  endfacet
  facet normal 0 0 -1
    outer loop
      vertex -2.85355 13.7401 0
      vertex -2.69134 13.6159 0
      vertex -5.99601 11.8531 0
    endloop
  endfacet
  facet normal 0 0 -1
    outer loop
      vertex -2.69134 13.6159 0
      vertex -2.5 13.5723 0
      vertex -5.99601 11.8531 0
    endloop
  endfacet
  facet normal 0 0 -1
    outer loop
      vertex -2.5 13.5723 0
      vertex -2.30866 13.6159 0
      vertex -5.99601 11.8531 0
    endloop
  endfacet
  facet normal 0 0 -1
    outer loop
      vertex -2.14645 13.7401 0
      vertex 3.46593 16.6359 0
      vertex -2.30866 13.6159 0
    endloop
  endfacet
  facet normal 0 0 -1
    outer loop
      vertex -2.03806 13.926 0
      vertex 3.46593 16.6359 0
      vertex -2.14645 13.7401 0
    endloop
  endfacet
  facet normal 0 0 -1
    outer loop
      vertex -2 14.1453 0
      vertex 3.46593 16.6359 0
      vertex -2.03806 13.926 0
    endloop
  endfacet
  facet normal 0 0 -1
    outer loop
      vertex -2.03806 14.3646 0
      vertex 3.46593 16.6359 0
      vertex -2 14.1453 0
    endloop
  endfacet
  facet normal 0 0 -1
    outer loop
      vertex 2.5 14.7184 0
      vertex 3.11237 14.8472 0
      vertex 2.6713 14.6794 0
    endloop
  endfacet
  facet normal 0 0 -1
    outer loop
      vertex -2.5 14.7184 0
      vertex -2.75882 14.6794 0
      vertex -2.95016 14.723 0
    endloop
  endfacet
  facet normal 0 0 -1
    outer loop
      vertex -2.5 14.7184 0
      vertex -2.95016 14.723 0
      vertex -3.11237 14.8472 0
    endloop
  endfacet
  facet normal 0 0 -1
    outer loop
      vertex -2.5 14.7184 0
      vertex -3.48961 15.2796 0
      vertex -2.30866 14.6748 0
    endloop
  endfacet
  facet normal 0 0 -1
    outer loop
      vertex -3.11237 14.8472 0
      vertex -3.48961 15.2796 0
      vertex -2.5 14.7184 0
    endloop
  endfacet
  facet normal 0 0 -1
    outer loop
      vertex -2.30866 14.6748 0
      vertex -3.48961 15.2796 0
      vertex -3.81948 15.6576 0
    endloop
  endfacet
  facet normal 0 0 -1
    outer loop
      vertex -3.81948 15.6576 0
      vertex -3.92787 15.8435 0
      vertex -2.30866 14.6748 0
    endloop
  endfacet
  facet normal 0 0 -1
    outer loop
      vertex -2.30866 14.6748 0
      vertex -3.92787 15.8435 0
      vertex -3.96592 16.0628 0
    endloop
  endfacet
  facet normal 0 0 -1
    outer loop
      vertex -2.30866 14.6748 0
      vertex -3.96592 16.0628 0
      vertex -2.14645 14.5506 0
    endloop
  endfacet
  facet normal 0 0 -1
    outer loop
      vertex -2.14645 14.5506 0
      vertex -3.96592 16.0628 0
      vertex -3.92787 16.2821 0
    endloop
  endfacet
  facet normal 0 0 -1
    outer loop
      vertex -2.14645 14.5506 0
      vertex -3.92787 16.2821 0
      vertex -3.81948 16.4681 0
    endloop
  endfacet
  facet normal 0 0 -1
    outer loop
      vertex -2.14645 14.5506 0
      vertex -3.81948 16.4681 0
      vertex -3.65727 16.5923 0
    endloop
  endfacet
  facet normal 0 0 -1
    outer loop
      vertex -2.14645 14.5506 0
      vertex -3.65727 16.5923 0
      vertex -3.46593 16.6359 0
    endloop
  endfacet
  facet normal 0 0 -1
    outer loop
      vertex -2.14645 14.5506 0
      vertex -3.46593 16.6359 0
      vertex 3.46593 16.6359 0
    endloop
  endfacet
  facet normal 0 0 -1
    outer loop
      vertex -2.14645 14.5506 0
      vertex 3.46593 16.6359 0
      vertex -2.03806 14.3646 0
    endloop
  endfacet
  facet normal 0 0 -1
    outer loop
      vertex -2.30866 13.6159 0
      vertex 3.46593 16.6359 0
      vertex 3.65727 16.5923 0
    endloop
  endfacet
  facet normal 0 0 -1
    outer loop
      vertex -2.30866 13.6159 0
      vertex 3.65727 16.5923 0
      vertex 3.81948 16.4681 0
    endloop
  endfacet
  facet normal 0 0 -1
    outer loop
      vertex -2.30866 13.6159 0
      vertex 3.81948 16.4681 0
      vertex -5.99601 11.8531 0
    endloop
  endfacet
  facet normal 0 0 -1
    outer loop
      vertex -5.99601 11.8531 0
      vertex 3.81948 16.4681 0
      vertex 3.92787 16.2821 0
    endloop
  endfacet
  facet normal 0 0 -1
    outer loop
      vertex -5.99601 11.8531 0
      vertex 3.92787 16.2821 0
      vertex 3.96593 16.0628 0
    endloop
  endfacet
  facet normal 0 0 -1
    outer loop
      vertex -5.99601 11.8531 0
      vertex 3.96593 16.0628 0
      vertex 3.92787 15.8435 0
    endloop
  endfacet
  facet normal 0 0 -1
    outer loop
      vertex -5.99601 11.8531 0
      vertex 3.92787 15.8435 0
      vertex 3.81948 15.6576 0
    endloop
  endfacet
  facet normal 0 0 -1
    outer loop
      vertex -5.99601 11.8531 0
      vertex 3.81948 15.6576 0
      vertex 3.48961 15.2796 0
    endloop
  endfacet
  facet normal 0 0 -1
    outer loop
      vertex 2.5 14.7184 0
      vertex 3.48961 15.2796 0
      vertex 3.11237 14.8472 0
    endloop
  endfacet
  facet normal 0 0 -1
    outer loop
      vertex 2.75882 14.6794 0
      vertex 3.11237 14.8472 0
      vertex 2.95016 14.723 0
    endloop
  endfacet
  facet normal 0 0 -1
    outer loop
      vertex 2.6713 14.6794 0
      vertex 3.11237 14.8472 0
      vertex 2.75882 14.6794 0
    endloop
  endfacet
  facet normal 0 0 -1
    outer loop
      vertex 2.30866 14.6748 0
      vertex 3.48961 15.2796 0
      vertex 2.5 14.7184 0
    endloop
  endfacet
  facet normal 0 0 -1
    outer loop
      vertex 2.14645 14.5506 0
      vertex -5.99601 11.8531 0
      vertex 2.30866 14.6748 0
    endloop
  endfacet
  facet normal 0 0 -1
    outer loop
      vertex -5.99601 11.8531 0
      vertex 3.48961 15.2796 0
      vertex 2.30866 14.6748 0
    endloop
  endfacet
  facet normal 0 0 -1
    outer loop
      vertex 2.03806 14.3646 0
      vertex -5.99601 11.8531 0
      vertex 2.14645 14.5506 0
    endloop
  endfacet
  facet normal 0 0 -1
    outer loop
      vertex -2.12132 -19.2313 0
      vertex -1.53073 -21.0355 0
      vertex -2.77164 -18.1158 0
    endloop
  endfacet
  facet normal 0 0 -1
    outer loop
      vertex -5.99601 11.8531 0
      vertex 2.03806 14.3646 0
      vertex 2 14.1453 0
    endloop
  endfacet
  facet normal 0 0 -1
    outer loop
      vertex 2 14.1453 0
      vertex 2.03806 13.926 0
      vertex -5.99601 11.8531 0
    endloop
  endfacet
  facet normal 0 0 -1
    outer loop
      vertex 2.03806 13.926 0
      vertex 2.14645 13.7401 0
      vertex -5.99601 11.8531 0
    endloop
  endfacet
  facet normal 0 0 -1
    outer loop
      vertex 2.14645 13.7401 0
      vertex 2.30866 13.6159 0
      vertex -5.99601 11.8531 0
    endloop
  endfacet
  facet normal 0 0 -1
    outer loop
      vertex 2.30866 13.6159 0
      vertex 2.5 13.5723 0
      vertex -5.99601 11.8531 0
    endloop
  endfacet
  facet normal 0 0 -1
    outer loop
      vertex 2.5 13.5723 0
      vertex 5.5 14.1453 0
      vertex -5.99601 11.8531 0
    endloop
  endfacet
  facet normal 0 0 -1
    outer loop
      vertex 2.69134 13.6159 0
      vertex 5.5 14.1453 0
      vertex 2.5 13.5723 0
    endloop
  endfacet
  facet normal 0 0 -1
    outer loop
      vertex 2.85355 13.7401 0
      vertex 2.90974 13.8365 0
      vertex 2.91852 13.8164 0
    endloop
  endfacet
  facet normal 0 0 -1
    outer loop
      vertex 2.91852 13.8164 0
      vertex 3.01247 13.9775 0
      vertex 3.17468 14.1017 0
    endloop
  endfacet
  facet normal 0 0 -1
    outer loop
      vertex 2.91852 13.8164 0
      vertex 3.17468 14.1017 0
      vertex 2.85355 13.7401 0
    endloop
  endfacet
  facet normal 0 0 -1
    outer loop
      vertex 2.85355 13.7401 0
      vertex 3.17468 14.1017 0
      vertex 3.36603 14.1453 0
    endloop
  endfacet
  facet normal 0 0 -1
    outer loop
      vertex 2.85355 13.7401 0
      vertex 3.36603 14.1453 0
      vertex 5.5 14.1453 0
    endloop
  endfacet
  facet normal 0 0 -1
    outer loop
      vertex 2.85355 13.7401 0
      vertex 5.5 14.1453 0
      vertex 2.69134 13.6159 0
    endloop
  endfacet
  facet normal 0 0 -1
    outer loop
      vertex 5.5 14.1453 0
      vertex 5.69134 14.1017 0
      vertex -5.99601 11.8531 0
    endloop
  endfacet
  facet normal 0 0 -1
    outer loop
      vertex -5.99601 11.8531 0
      vertex 5.69134 14.1017 0
      vertex 5.85355 13.9775 0
    endloop
  endfacet
  facet normal 0 0 -1
    outer loop
      vertex -5.99601 11.8531 0
      vertex 5.85355 13.9775 0
      vertex 5.96194 13.7916 0
    endloop
  endfacet
  facet normal 0 0 -1
    outer loop
      vertex -5.99601 11.8531 0
      vertex 5.96194 13.7916 0
      vertex 6 13.5723 0
    endloop
  endfacet
  facet normal 0 0 -1
    outer loop
      vertex 5.99601 11.8531 0
      vertex 6 13.5723 0
      vertex 6 11.8531 0
    endloop
  endfacet
  facet normal 0 0 -1
    outer loop
      vertex -5.99601 11.8531 0
      vertex 6 13.5723 0
      vertex 5.99601 11.8531 0
    endloop
  endfacet
  facet normal 0 0 -1
    outer loop
      vertex -2.75882 14.6794 0
      vertex -2.5 14.7184 0
      vertex -2.6713 14.6794 0
    endloop
  endfacet
  facet normal 0 0 -1
    outer loop
      vertex 5.99601 11.8531 0
      vertex 4 -16.8 0
      vertex -5.99601 11.8531 0
    endloop
  endfacet
  facet normal 0 0 -1
    outer loop
      vertex -2.77164 -18.1158 0
      vertex -2.82843 -20.0417 0
      vertex -3 -16.8 0
    endloop
  endfacet
  facet normal 0 0 -1
    outer loop
      vertex -1.53073 -21.0355 0
      vertex -2.82843 -20.0417 0
      vertex -2.77164 -18.1158 0
    endloop
  endfacet
  facet normal 0 0 -1
    outer loop
      vertex -1.14805 -19.9766 0
      vertex -1.53073 -21.0355 0
      vertex -2.12132 -19.2313 0
    endloop
  endfacet
  facet normal 0 0 -1
    outer loop
      vertex 3.67382e-015 -21.3845 0
      vertex -1.53073 -21.0355 0
      vertex -1.14805 -19.9766 0
    endloop
  endfacet
  facet normal 0 0 -1
    outer loop
      vertex 1.53073 -21.0355 0
      vertex 3.67382e-015 -21.3845 0
      vertex 3.67382e-015 -20.2384 0
    endloop
  endfacet
  facet normal 0 0 -1
    outer loop
      vertex 1.53073 -21.0355 0
      vertex 3.67382e-015 -20.2384 0
      vertex 1.14805 -19.9766 0
    endloop
  endfacet
  facet normal 0 0 -1
    outer loop
      vertex 2.82843 -20.0417 0
      vertex 1.53073 -21.0355 0
      vertex 2.12132 -19.2313 0
    endloop
  endfacet
  facet normal 0 0 -1
    outer loop
      vertex 3.69552 -18.5544 0
      vertex 2.82843 -20.0417 0
      vertex 2.77164 -18.1158 0
    endloop
  endfacet
  facet normal 0 0 -1
    outer loop
      vertex 3.69552 -18.5544 0
      vertex 2.77164 -18.1158 0
      vertex 3 -16.8 0
    endloop
  endfacet
  facet normal 0 0 -1
    outer loop
      vertex 4 -16.8 0
      vertex 3.69552 -18.5544 0
      vertex 2.77164 -15.4842 0
    endloop
  endfacet
  facet normal 0 0 -1
    outer loop
      vertex 3.67382e-015 -20.2384 0
      vertex 3.67382e-015 -21.3845 0
      vertex -1.14805 -19.9766 0
    endloop
  endfacet
  facet normal 0 0 -1
    outer loop
      vertex -5.99601 11.8531 0
      vertex 4 -16.8 0
      vertex 2.77164 -15.4842 0
    endloop
  endfacet
  facet normal 0 0 -1
    outer loop
      vertex 2.12132 -14.3687 0
      vertex -5.99601 11.8531 0
      vertex 2.77164 -15.4842 0
    endloop
  endfacet
  facet normal 0 0 -1
    outer loop
      vertex -1.5981 -13.968 0
      vertex -5.99601 11.8531 0
      vertex 1.5981 -13.968 0
    endloop
  endfacet
  facet normal 0 0 -1
    outer loop
      vertex -5.99601 11.8531 0
      vertex 2.12132 -14.3687 0
      vertex 1.5981 -13.968 0
    endloop
  endfacet
  facet normal 0 0 -1
    outer loop
      vertex 2.77164 -15.4842 0
      vertex 3.69552 -18.5544 0
      vertex 3 -16.8 0
    endloop
  endfacet
  facet normal 0 0 -1
    outer loop
      vertex 2.77164 -18.1158 0
      vertex 2.82843 -20.0417 0
      vertex 2.12132 -19.2313 0
    endloop
  endfacet
  facet normal 0 0 -1
    outer loop
      vertex 2.12132 -19.2313 0
      vertex 1.53073 -21.0355 0
      vertex 1.14805 -19.9766 0
    endloop
  endfacet
  facet normal 0 0 -1
    outer loop
      vertex -2.77164 -15.4842 0
      vertex -5.99601 11.8531 0
      vertex -2.12132 -14.3687 0
    endloop
  endfacet
  facet normal 0 0 -1
    outer loop
      vertex -2.12132 -14.3687 0
      vertex -5.99601 11.8531 0
      vertex -1.5981 -13.968 0
    endloop
  endfacet
  facet normal 0 0 -1
    outer loop
      vertex -5.99601 11.8531 0
      vertex -2.77164 -15.4842 0
      vertex -3 -16.8 0
    endloop
  endfacet
  facet normal 0 0 -1
    outer loop
      vertex -5.99601 11.8531 0
      vertex -3 -16.8 0
      vertex -2.82843 -20.0417 0
    endloop
  endfacet
  facet normal 0 0 -1
    outer loop
      vertex -5.99601 11.8531 0
      vertex -2.82843 -20.0417 0
      vertex -3.69552 -18.5544 0
    endloop
  endfacet
  facet normal 0 0 -1
    outer loop
      vertex -5.99601 11.8531 0
      vertex -3.69552 -18.5544 0
      vertex -4 -16.8 0
    endloop
  endfacet
  facet normal 0.996828 -0.0694402 0.0388865
    outer loop
      vertex 5.99601 19.3453 13.3788
      vertex 4 -14.6581 3.82482
      vertex 4 -16.8 0
    endloop
  endfacet
  facet normal 0.996828 -0.0694402 0.0388865
    outer loop
      vertex 5.99601 11.8531 0
      vertex 5.99601 19.3453 13.3788
      vertex 4 -16.8 0
    endloop
  endfacet
  facet normal 0.974138 -0.112276 0.196083
    outer loop
      vertex 5.99567 19.3467 13.3814
      vertex 3.69552 -15.9937 4.57274
      vertex 4 -14.6581 3.82482
    endloop
  endfacet
  facet normal 0.974138 -0.112276 0.196083
    outer loop
      vertex 5.99601 19.3453 13.3788
      vertex 5.99567 19.3467 13.3814
      vertex 4 -14.6581 3.82482
    endloop
  endfacet
  facet normal 0.739485 -0.20773 0.64032
    outer loop
      vertex 3.11406 -13.8352 5.94449
      vertex 2.82843 -17.1259 5.2068
      vertex 3.69552 -15.9937 4.57274
    endloop
  endfacet
  facet normal 0.739485 -0.20773 0.64032
    outer loop
      vertex 3.83903 -8.58637 6.81006
      vertex 3.69195 -10.8741 6.23775
      vertex 3.69552 -15.9937 4.57274
    endloop
  endfacet
  facet normal 0.739485 -0.20773 0.64032
    outer loop
      vertex 3.25526 -13.5018 5.88958
      vertex 3.11406 -13.8352 5.94449
      vertex 3.69552 -15.9937 4.57274
    endloop
  endfacet
  facet normal 0.739485 -0.20773 0.64032
    outer loop
      vertex 5.99431 19.3477 13.3833
      vertex 3.74393 -6.5785 7.57126
      vertex 5.99567 19.3467 13.3814
    endloop
  endfacet
  facet normal 0.739485 -0.20773 0.64032
    outer loop
      vertex 5.99567 19.3467 13.3814
      vertex 3.83903 -8.58637 6.81006
      vertex 3.69552 -15.9937 4.57274
    endloop
  endfacet
  facet normal 0.739485 -0.20773 0.64032
    outer loop
      vertex 5.99567 19.3467 13.3814
      vertex 3.79366 -7.62837 7.17325
      vertex 3.83903 -8.58637 6.81006
    endloop
  endfacet
  facet normal 0.739485 -0.20773 0.64032
    outer loop
      vertex 3.69195 -10.8741 6.23775
      vertex 3.63923 -11.694 6.03261
      vertex 3.69552 -15.9937 4.57274
    endloop
  endfacet
  facet normal 0.739485 -0.20773 0.64032
    outer loop
      vertex 3.63923 -11.694 6.03261
      vertex 3.40135 -12.814 5.944
      vertex 3.69552 -15.9937 4.57274
    endloop
  endfacet
  facet normal 0.739485 -0.20773 0.64032
    outer loop
      vertex 3.40135 -12.814 5.944
      vertex 3.25526 -13.5018 5.88958
      vertex 3.69552 -15.9937 4.57274
    endloop
  endfacet
  facet normal 0.739485 -0.20773 0.64032
    outer loop
      vertex 3.74393 -6.5785 7.57126
      vertex 3.79366 -7.62837 7.17325
      vertex 5.99567 19.3467 13.3814
    endloop
  endfacet
  facet normal 0.421908 -0.233038 0.876177
    outer loop
      vertex 5.99223 19.3484 13.3844
      vertex 3.29092 -3.19379 8.68964
      vertex 3.74393 -6.5785 7.57126
    endloop
  endfacet
  facet normal 0.421908 -0.233038 0.876177
    outer loop
      vertex 5.99431 19.3477 13.3833
      vertex 5.99223 19.3484 13.3844
      vertex 3.74393 -6.5785 7.57126
    endloop
  endfacet
  facet normal 0.1317 -0.217218 0.967198
    outer loop
      vertex 5.98967 19.3486 13.3848
      vertex 2.55172 -2.17375 9.01938
      vertex 2.89567 -2.57258 8.88297
    endloop
  endfacet
  facet normal 0.1317 -0.217218 0.967198
    outer loop
      vertex 3.23058 -2.96093 8.75015
      vertex 5.98967 19.3486 13.3848
      vertex 2.89567 -2.57258 8.88297
    endloop
  endfacet
  facet normal 0.1317 -0.217218 0.967198
    outer loop
      vertex 3.23058 -2.96093 8.75015
      vertex 3.29092 -3.19379 8.68964
      vertex 5.98967 19.3486 13.3848
    endloop
  endfacet
  facet normal 0.1317 -0.217218 0.967198
    outer loop
      vertex 3.29092 -3.19379 8.68964
      vertex 5.99223 19.3484 13.3844
      vertex 5.98967 19.3486 13.3848
    endloop
  endfacet
  facet normal -1.20017e-016 -0.198786 0.980043
    outer loop
      vertex 5.98967 19.3486 13.3848
      vertex -5.98967 19.3486 13.3848
      vertex -2.55172 -2.17375 9.01938
    endloop
  endfacet
  facet normal -1.20017e-016 -0.198786 0.980043
    outer loop
      vertex 2.53014e-015 -0.597044 9.33919
      vertex 5.98967 19.3486 13.3848
      vertex -0.388925 -0.837361 9.29044
    endloop
  endfacet
  facet normal -1.20017e-016 -0.198786 0.980043
    outer loop
      vertex -0.388925 -0.837361 9.29044
      vertex 5.98967 19.3486 13.3848
      vertex -2.55172 -2.17375 9.01938
    endloop
  endfacet
  facet normal -1.20017e-016 -0.198786 0.980043
    outer loop
      vertex 2.55172 -2.17375 9.01938
      vertex 5.98967 19.3486 13.3848
      vertex 2.53014e-015 -0.597044 9.33919
    endloop
  endfacet
  facet normal -0.1317 -0.217218 0.967198
    outer loop
      vertex -5.98967 19.3486 13.3848
      vertex -5.99223 19.3484 13.3844
      vertex -3.29092 -3.19379 8.68964
    endloop
  endfacet
  facet normal -0.1317 -0.217218 0.967198
    outer loop
      vertex -2.55172 -2.17375 9.01938
      vertex -5.98967 19.3486 13.3848
      vertex -3.23058 -2.96093 8.75015
    endloop
  endfacet
  facet normal -0.1317 -0.217218 0.967198
    outer loop
      vertex -3.23058 -2.96093 8.75015
      vertex -5.98967 19.3486 13.3848
      vertex -3.29092 -3.19379 8.68964
    endloop
  endfacet
  facet normal -0.421908 -0.233038 0.876177
    outer loop
      vertex -5.99223 19.3484 13.3844
      vertex -5.99431 19.3477 13.3833
      vertex -3.74393 -6.5785 7.57126
    endloop
  endfacet
  facet normal -0.421908 -0.233038 0.876177
    outer loop
      vertex -3.29092 -3.19379 8.68964
      vertex -5.99223 19.3484 13.3844
      vertex -3.39746 -3.98978 8.42663
    endloop
  endfacet
  facet normal -0.421908 -0.233038 0.876177
    outer loop
      vertex -3.39746 -3.98978 8.42663
      vertex -5.99223 19.3484 13.3844
      vertex -3.74393 -6.5785 7.57126
    endloop
  endfacet
  facet normal -0.739485 -0.20773 0.64032
    outer loop
      vertex -5.99567 19.3467 13.3814
      vertex -3.69552 -15.9937 4.57274
      vertex -5.99431 19.3477 13.3833
    endloop
  endfacet
  facet normal -0.739485 -0.20773 0.64032
    outer loop
      vertex -3.11406 -13.8352 5.94449
      vertex -3.69552 -15.9937 4.57274
      vertex -2.82843 -17.1259 5.2068
    endloop
  endfacet
  facet normal -0.739485 -0.20773 0.64032
    outer loop
      vertex -3.25526 -13.5018 5.88958
      vertex -3.69552 -15.9937 4.57274
      vertex -3.11406 -13.8352 5.94449
    endloop
  endfacet
  facet normal -0.739485 -0.20773 0.64032
    outer loop
      vertex -3.4635 -12.5214 5.96715
      vertex -3.69552 -15.9937 4.57274
      vertex -3.25526 -13.5018 5.88958
    endloop
  endfacet
  facet normal -0.739485 -0.20773 0.64032
    outer loop
      vertex -3.63923 -11.694 6.03261
      vertex -3.69552 -15.9937 4.57274
      vertex -3.4635 -12.5214 5.96715
    endloop
  endfacet
  facet normal -0.739485 -0.20773 0.64032
    outer loop
      vertex -5.99431 19.3477 13.3833
      vertex -3.69552 -15.9937 4.57274
      vertex -3.63923 -11.694 6.03261
    endloop
  endfacet
  facet normal -0.739485 -0.20773 0.64032
    outer loop
      vertex -5.99431 19.3477 13.3833
      vertex -3.63923 -11.694 6.03261
      vertex -3.76872 -9.6799 6.53649
    endloop
  endfacet
  facet normal -0.739485 -0.20773 0.64032
    outer loop
      vertex -5.99431 19.3477 13.3833
      vertex -3.76872 -9.6799 6.53649
      vertex -3.83903 -8.58637 6.81006
    endloop
  endfacet
  facet normal -0.739485 -0.20773 0.64032
    outer loop
      vertex -3.74393 -6.5785 7.57126
      vertex -5.99431 19.3477 13.3833
      vertex -3.83903 -8.58637 6.81006
    endloop
  endfacet
  facet normal -0.974138 -0.112276 0.196083
    outer loop
      vertex -5.99601 19.3453 13.3788
      vertex -4 -14.6581 3.82482
      vertex -5.99567 19.3467 13.3814
    endloop
  endfacet
  facet normal -0.974138 -0.112276 0.196083
    outer loop
      vertex -5.99567 19.3467 13.3814
      vertex -4 -14.6581 3.82482
      vertex -3.69552 -15.9937 4.57274
    endloop
  endfacet
  facet normal -0.996828 -0.0694402 0.0388865
    outer loop
      vertex -5.99601 19.3453 13.3788
      vertex -5.99601 11.8531 0
      vertex -4 -14.6581 3.82482
    endloop
  endfacet
  facet normal -0.996828 -0.0694402 0.0388865
    outer loop
      vertex -4 -14.6581 3.82482
      vertex -5.99601 11.8531 0
      vertex -4 -16.8 0
    endloop
  endfacet
  facet normal -0.980785 -0.170218 0.0953218
    outer loop
      vertex -4 -14.6581 3.82482
      vertex -4 -16.8 0
      vertex -3.69552 -15.9937 4.57274
    endloop
  endfacet
  facet normal -0.980785 -0.170218 0.0953218
    outer loop
      vertex -3.69552 -15.9937 4.57274
      vertex -4 -16.8 0
      vertex -3.69552 -18.5544 0
    endloop
  endfacet
  facet normal -0.83147 -0.484738 0.271454
    outer loop
      vertex -3.69552 -15.9937 4.57274
      vertex -3.69552 -18.5544 0
      vertex -2.82843 -17.1259 5.2068
    endloop
  endfacet
  facet normal -0.83147 -0.484738 0.271454
    outer loop
      vertex -2.82843 -17.1259 5.2068
      vertex -3.69552 -18.5544 0
      vertex -2.82843 -20.0417 0
    endloop
  endfacet
  facet normal -0.55557 -0.725462 0.406259
    outer loop
      vertex -1.53073 -17.8825 5.63046
      vertex -2.82843 -17.1259 5.2068
      vertex -2.82843 -20.0417 0
    endloop
  endfacet
  facet normal -0.55557 -0.725462 0.406259
    outer loop
      vertex -1.53073 -21.0355 0
      vertex -1.53073 -17.8825 5.63046
      vertex -2.82843 -20.0417 0
    endloop
  endfacet
  facet normal -0.19509 -0.855741 0.479215
    outer loop
      vertex 2.96609e-015 -18.1481 5.77923
      vertex -1.53073 -17.8825 5.63046
      vertex -1.53073 -21.0355 0
    endloop
  endfacet
  facet normal -0.19509 -0.855741 0.479215
    outer loop
      vertex 3.67382e-015 -21.3845 0
      vertex 2.96609e-015 -18.1481 5.77923
      vertex -1.53073 -21.0355 0
    endloop
  endfacet
  facet normal 0.19509 -0.855741 0.479215
    outer loop
      vertex 1.53073 -17.8825 5.63046
      vertex 2.96609e-015 -18.1481 5.77923
      vertex 3.67382e-015 -21.3845 0
    endloop
  endfacet
  facet normal 0.19509 -0.855741 0.479215
    outer loop
      vertex 1.53073 -21.0355 0
      vertex 1.53073 -17.8825 5.63046
      vertex 3.67382e-015 -21.3845 0
    endloop
  endfacet
  facet normal 0.55557 -0.725462 0.406259
    outer loop
      vertex 2.82843 -17.1259 5.2068
      vertex 1.53073 -17.8825 5.63046
      vertex 1.53073 -21.0355 0
    endloop
  endfacet
  facet normal 0.55557 -0.725462 0.406259
    outer loop
      vertex 2.82843 -20.0417 0
      vertex 2.82843 -17.1259 5.2068
      vertex 1.53073 -21.0355 0
    endloop
  endfacet
  facet normal 0.83147 -0.484738 0.271454
    outer loop
      vertex 3.69552 -15.9937 4.57274
      vertex 2.82843 -17.1259 5.2068
      vertex 2.82843 -20.0417 0
    endloop
  endfacet
  facet normal 0.83147 -0.484738 0.271454
    outer loop
      vertex 3.69552 -18.5544 0
      vertex 3.69552 -15.9937 4.57274
      vertex 2.82843 -20.0417 0
    endloop
  endfacet
  facet normal 0.980785 -0.170218 0.0953218
    outer loop
      vertex 4 -14.6581 3.82482
      vertex 3.69552 -15.9937 4.57274
      vertex 3.69552 -18.5544 0
    endloop
  endfacet
  facet normal 0.980785 -0.170218 0.0953218
    outer loop
      vertex 4 -16.8 0
      vertex 4 -14.6581 3.82482
      vertex 3.69552 -18.5544 0
    endloop
  endfacet
  facet normal 0.980785 0.170217 -0.0953217
    outer loop
      vertex -2.77164 -17.1256 1.76824
      vertex -2.77164 -18.1158 0
      vertex -3 -16.8 0
    endloop
  endfacet
  facet normal 0.980785 0.170217 -0.0953217
    outer loop
      vertex -3 -16.1239 1.2073
      vertex -2.77164 -17.1256 1.76824
      vertex -3 -16.8 0
    endloop
  endfacet
  facet normal 0.980785 -0.170217 0.0953217
    outer loop
      vertex -3 -16.8 0
      vertex -2.77164 -15.4842 0
      vertex -2.77164 -15.1222 0.64636
    endloop
  endfacet
  facet normal 0.980785 -0.170217 0.0953217
    outer loop
      vertex -3 -16.1239 1.2073
      vertex -3 -16.8 0
      vertex -2.77164 -15.1222 0.64636
    endloop
  endfacet
  facet normal 0.831469 -0.484739 0.271454
    outer loop
      vertex -2.77164 -15.4842 0
      vertex -2.12132 -14.3687 0
      vertex -2.12132 -14.273 0.170817
    endloop
  endfacet
  facet normal 0.831469 -0.484739 0.271454
    outer loop
      vertex -2.77164 -15.1222 0.64636
      vertex -2.77164 -15.4842 0
      vertex -2.12132 -14.273 0.170817
    endloop
  endfacet
  facet normal 0.555571 -0.725462 0.406259
    outer loop
      vertex -2.12132 -14.3687 0
      vertex -1.5981 -13.968 0
      vertex -2.12132 -14.273 0.170817
    endloop
  endfacet
  facet normal 1.06848e-016 -0.488603 -0.872506
    outer loop
      vertex -2.12132 -14.273 0.170817
      vertex -1.5981 -13.968 0
      vertex -2.77164 -15.1222 0.64636
    endloop
  endfacet
  facet normal 1.06848e-016 -0.488603 -0.872506
    outer loop
      vertex -2.77164 -15.1222 0.64636
      vertex -1.5981 -13.968 0
      vertex 1.5981 -13.968 0
    endloop
  endfacet
  facet normal 1.06848e-016 -0.488603 -0.872506
    outer loop
      vertex -2.77164 -15.1222 0.64636
      vertex 1.5981 -13.968 0
      vertex 2.12132 -14.273 0.170817
    endloop
  endfacet
  facet normal 1.06848e-016 -0.488603 -0.872506
    outer loop
      vertex 1.16673 -15.1059 0.637235
      vertex 2.12132 -14.273 0.170817
      vertex 2.77164 -15.1222 0.64636
    endloop
  endfacet
  facet normal 1.06848e-016 -0.488603 -0.872506
    outer loop
      vertex 1.5244 -15.573 0.898784
      vertex 2.77164 -15.1222 0.64636
      vertex 3 -16.1239 1.2073
    endloop
  endfacet
  facet normal 1.06848e-016 -0.488603 -0.872506
    outer loop
      vertex 1.65 -16.1239 1.2073
      vertex 3 -16.1239 1.2073
      vertex 2.77164 -17.1256 1.76824
    endloop
  endfacet
  facet normal 1.06848e-016 -0.488603 -0.872506
    outer loop
      vertex 1.16673 -17.1419 1.77737
      vertex 2.77164 -17.1256 1.76824
      vertex 2.12132 -17.9748 2.24379
    endloop
  endfacet
  facet normal 1.06848e-016 -0.488603 -0.872506
    outer loop
      vertex 0.631428 -17.454 1.95213
      vertex 2.12132 -17.9748 2.24379
      vertex 1.14805 -18.5422 2.56153
    endloop
  endfacet
  facet normal 1.06848e-016 -0.488603 -0.872506
    outer loop
      vertex -1.16673 -17.1419 1.77737
      vertex 1.14805 -18.5422 2.56153
      vertex 3.34647e-015 -18.7414 2.67311
    endloop
  endfacet
  facet normal 1.06848e-016 -0.488603 -0.872506
    outer loop
      vertex -2.77164 -15.1222 0.64636
      vertex 3.34647e-015 -18.7414 2.67311
      vertex -1.14805 -18.5422 2.56153
    endloop
  endfacet
  facet normal 1.06848e-016 -0.488603 -0.872506
    outer loop
      vertex -2.77164 -15.1222 0.64636
      vertex -1.14805 -18.5422 2.56153
      vertex -2.12132 -17.9748 2.24379
    endloop
  endfacet
  facet normal 1.06848e-016 -0.488603 -0.872506
    outer loop
      vertex -2.77164 -15.1222 0.64636
      vertex -2.12132 -17.9748 2.24379
      vertex -2.77164 -17.1256 1.76824
    endloop
  endfacet
  facet normal 1.06848e-016 -0.488603 -0.872506
    outer loop
      vertex -2.77164 -15.1222 0.64636
      vertex -2.77164 -17.1256 1.76824
      vertex -3 -16.1239 1.2073
    endloop
  endfacet
  facet normal 1.06848e-016 -0.488603 -0.872506
    outer loop
      vertex 0.631428 -17.454 1.95213
      vertex 1.14805 -18.5422 2.56153
      vertex 3.42724e-015 -17.5635 2.0135
    endloop
  endfacet
  facet normal 1.06848e-016 -0.488603 -0.872506
    outer loop
      vertex -2.77164 -15.1222 0.64636
      vertex -1.5244 -16.6748 1.51582
      vertex 3.34647e-015 -18.7414 2.67311
    endloop
  endfacet
  facet normal 1.06848e-016 -0.488603 -0.872506
    outer loop
      vertex -0.631428 -17.454 1.95213
      vertex 1.14805 -18.5422 2.56153
      vertex -1.16673 -17.1419 1.77737
    endloop
  endfacet
  facet normal 1.06848e-016 -0.488603 -0.872506
    outer loop
      vertex -1.5244 -16.6748 1.51582
      vertex -1.16673 -17.1419 1.77737
      vertex 3.34647e-015 -18.7414 2.67311
    endloop
  endfacet
  facet normal 1.06848e-016 -0.488603 -0.872506
    outer loop
      vertex 1.16673 -17.1419 1.77737
      vertex 2.12132 -17.9748 2.24379
      vertex 0.631428 -17.454 1.95213
    endloop
  endfacet
  facet normal 1.06848e-016 -0.488603 -0.872506
    outer loop
      vertex 1.5244 -16.6748 1.51582
      vertex 2.77164 -17.1256 1.76824
      vertex 1.16673 -17.1419 1.77737
    endloop
  endfacet
  facet normal 1.06848e-016 -0.488603 -0.872506
    outer loop
      vertex 1.65 -16.1239 1.2073
      vertex 2.77164 -17.1256 1.76824
      vertex 1.5244 -16.6748 1.51582
    endloop
  endfacet
  facet normal 1.06848e-016 -0.488603 -0.872506
    outer loop
      vertex 1.5244 -15.573 0.898784
      vertex 3 -16.1239 1.2073
      vertex 1.65 -16.1239 1.2073
    endloop
  endfacet
  facet normal 1.06848e-016 -0.488603 -0.872506
    outer loop
      vertex 1.16673 -15.1059 0.637235
      vertex 2.77164 -15.1222 0.64636
      vertex 1.5244 -15.573 0.898784
    endloop
  endfacet
  facet normal 1.06848e-016 -0.488603 -0.872506
    outer loop
      vertex 0.631428 -14.7939 0.462474
      vertex 2.12132 -14.273 0.170817
      vertex 1.16673 -15.1059 0.637235
    endloop
  endfacet
  facet normal 1.06848e-016 -0.488603 -0.872506
    outer loop
      vertex -1.16673 -15.1059 0.637235
      vertex -2.77164 -15.1222 0.64636
      vertex -0.631428 -14.7939 0.462474
    endloop
  endfacet
  facet normal 1.06848e-016 -0.488603 -0.872506
    outer loop
      vertex 3.6247e-015 -14.6843 0.401106
      vertex 2.12132 -14.273 0.170817
      vertex 0.631428 -14.7939 0.462474
    endloop
  endfacet
  facet normal 1.06848e-016 -0.488603 -0.872506
    outer loop
      vertex -2.77164 -15.1222 0.64636
      vertex 2.12132 -14.273 0.170817
      vertex 3.6247e-015 -14.6843 0.401106
    endloop
  endfacet
  facet normal 1.06848e-016 -0.488603 -0.872506
    outer loop
      vertex -2.77164 -15.1222 0.64636
      vertex 3.6247e-015 -14.6843 0.401106
      vertex -0.631428 -14.7939 0.462474
    endloop
  endfacet
  facet normal 1.06848e-016 -0.488603 -0.872506
    outer loop
      vertex -1.5244 -15.573 0.898784
      vertex -2.77164 -15.1222 0.64636
      vertex -1.16673 -15.1059 0.637235
    endloop
  endfacet
  facet normal 1.06848e-016 -0.488603 -0.872506
    outer loop
      vertex -1.65 -16.1239 1.2073
      vertex -2.77164 -15.1222 0.64636
      vertex -1.5244 -15.573 0.898784
    endloop
  endfacet
  facet normal 1.06848e-016 -0.488603 -0.872506
    outer loop
      vertex -2.77164 -15.1222 0.64636
      vertex -1.65 -16.1239 1.2073
      vertex -1.5244 -16.6748 1.51582
    endloop
  endfacet
  facet normal 1.06848e-016 -0.488603 -0.872506
    outer loop
      vertex 3.42724e-015 -17.5635 2.0135
      vertex 1.14805 -18.5422 2.56153
      vertex -0.631428 -17.454 1.95213
    endloop
  endfacet
  facet normal -0.555571 -0.725462 0.406259
    outer loop
      vertex 2.12132 -14.3687 0
      vertex 2.12132 -14.273 0.170817
      vertex 1.5981 -13.968 0
    endloop
  endfacet
  facet normal -0.831469 -0.484739 0.271454
    outer loop
      vertex 2.77164 -15.4842 0
      vertex 2.77164 -15.1222 0.64636
      vertex 2.12132 -14.3687 0
    endloop
  endfacet
  facet normal -0.831469 -0.484739 0.271454
    outer loop
      vertex 2.12132 -14.3687 0
      vertex 2.77164 -15.1222 0.64636
      vertex 2.12132 -14.273 0.170817
    endloop
  endfacet
  facet normal -0.980785 -0.170217 0.0953217
    outer loop
      vertex 3 -16.8 0
      vertex 3 -16.1239 1.2073
      vertex 2.77164 -15.4842 0
    endloop
  endfacet
  facet normal -0.980785 -0.170217 0.0953217
    outer loop
      vertex 2.77164 -15.4842 0
      vertex 3 -16.1239 1.2073
      vertex 2.77164 -15.1222 0.64636
    endloop
  endfacet
  facet normal -0.980785 0.170217 -0.0953217
    outer loop
      vertex 3 -16.8 0
      vertex 2.77164 -18.1158 0
      vertex 3 -16.1239 1.2073
    endloop
  endfacet
  facet normal -0.980785 0.170217 -0.0953217
    outer loop
      vertex 3 -16.1239 1.2073
      vertex 2.77164 -18.1158 0
      vertex 2.77164 -17.1256 1.76824
    endloop
  endfacet
  facet normal -0.831469 0.484739 -0.271454
    outer loop
      vertex 2.77164 -18.1158 0
      vertex 2.12132 -19.2313 0
      vertex 2.77164 -17.1256 1.76824
    endloop
  endfacet
  facet normal -0.831469 0.484739 -0.271454
    outer loop
      vertex 2.77164 -17.1256 1.76824
      vertex 2.12132 -19.2313 0
      vertex 2.12132 -17.9748 2.24379
    endloop
  endfacet
  facet normal -0.555571 0.725462 -0.406259
    outer loop
      vertex 2.12132 -19.2313 0
      vertex 1.14805 -19.9766 0
      vertex 2.12132 -17.9748 2.24379
    endloop
  endfacet
  facet normal -0.555571 0.725462 -0.406259
    outer loop
      vertex 2.12132 -17.9748 2.24379
      vertex 1.14805 -19.9766 0
      vertex 1.14805 -18.5422 2.56153
    endloop
  endfacet
  facet normal -0.19509 0.855741 -0.479215
    outer loop
      vertex 1.14805 -19.9766 0
      vertex 3.67382e-015 -20.2384 0
      vertex 1.14805 -18.5422 2.56153
    endloop
  endfacet
  facet normal -0.19509 0.855741 -0.479215
    outer loop
      vertex 1.14805 -18.5422 2.56153
      vertex 3.67382e-015 -20.2384 0
      vertex 3.34647e-015 -18.7414 2.67311
    endloop
  endfacet
  facet normal 0.19509 0.855741 -0.479215
    outer loop
      vertex 3.67382e-015 -20.2384 0
      vertex -1.14805 -19.9766 0
      vertex 3.34647e-015 -18.7414 2.67311
    endloop
  endfacet
  facet normal 0.19509 0.855741 -0.479215
    outer loop
      vertex 3.34647e-015 -18.7414 2.67311
      vertex -1.14805 -19.9766 0
      vertex -1.14805 -18.5422 2.56153
    endloop
  endfacet
  facet normal 0.555571 0.725462 -0.406259
    outer loop
      vertex -1.14805 -19.9766 0
      vertex -2.12132 -19.2313 0
      vertex -1.14805 -18.5422 2.56153
    endloop
  endfacet
  facet normal 0.555571 0.725462 -0.406259
    outer loop
      vertex -1.14805 -18.5422 2.56153
      vertex -2.12132 -19.2313 0
      vertex -2.12132 -17.9748 2.24379
    endloop
  endfacet
  facet normal 0.831469 0.484739 -0.271454
    outer loop
      vertex -2.12132 -17.9748 2.24379
      vertex -2.12132 -19.2313 0
      vertex -2.77164 -18.1158 0
    endloop
  endfacet
  facet normal 0.831469 0.484739 -0.271454
    outer loop
      vertex -2.77164 -17.1256 1.76824
      vertex -2.12132 -17.9748 2.24379
      vertex -2.77164 -18.1158 0
    endloop
  endfacet
  facet normal 0.421908 -0.233038 0.876177
    outer loop
      vertex 1.80145 -15.6233 6.10096
      vertex 1.53073 -17.8825 5.63046
      vertex 2.82843 -17.1259 5.2068
    endloop
  endfacet
  facet normal 0.421908 -0.233038 0.876177
    outer loop
      vertex 1.89308 -15.5699 6.07105
      vertex 1.80145 -15.6233 6.10096
      vertex 2.82843 -17.1259 5.2068
    endloop
  endfacet
  facet normal 0.421908 -0.233038 0.876177
    outer loop
      vertex 3.11406 -13.8352 5.94449
      vertex 2.95339 -14.1478 5.93873
      vertex 2.82843 -17.1259 5.2068
    endloop
  endfacet
  facet normal 0.421908 -0.233038 0.876177
    outer loop
      vertex 2.95339 -14.1478 5.93873
      vertex 2.64976 -14.7384 5.92786
      vertex 2.82843 -17.1259 5.2068
    endloop
  endfacet
  facet normal 0.421908 -0.233038 0.876177
    outer loop
      vertex 2.64976 -14.7384 5.92786
      vertex 2.30421 -15.1181 5.99325
      vertex 2.82843 -17.1259 5.2068
    endloop
  endfacet
  facet normal 0.421908 -0.233038 0.876177
    outer loop
      vertex 2.30421 -15.1181 5.99325
      vertex 1.89308 -15.5699 6.07105
      vertex 2.82843 -17.1259 5.2068
    endloop
  endfacet
  facet normal -0.816578 0.412362 0.403929
    outer loop
      vertex 3.11406 -13.8352 5.94449
      vertex 3.25526 -13.5018 5.88958
      vertex 2.95339 -14.1478 5.93873
    endloop
  endfacet
  facet normal -0.816578 0.412362 0.403929
    outer loop
      vertex 2.95339 -14.1478 5.93873
      vertex 3.25526 -13.5018 5.88958
      vertex 1.65 -14.6581 3.82482
    endloop
  endfacet
  facet normal -0.816578 0.128924 0.562654
    outer loop
      vertex 3.25526 -13.5018 5.88958
      vertex 3.40135 -12.814 5.944
      vertex 1.65 -14.6581 3.82482
    endloop
  endfacet
  facet normal -0.816578 0.128924 0.562654
    outer loop
      vertex 1.65 -14.6581 3.82482
      vertex 3.40135 -12.814 5.944
      vertex 1.5244 -14.1072 3.5163
    endloop
  endfacet
  facet normal -0.816578 0.128924 0.562654
    outer loop
      vertex 3.40135 -12.814 5.944
      vertex 3.63923 -11.694 6.03261
      vertex 1.5244 -14.1072 3.5163
    endloop
  endfacet
  facet normal -0.692261 -0.132938 0.709297
    outer loop
      vertex 1.5244 -14.1072 3.5163
      vertex 3.63923 -11.694 6.03261
      vertex 3.69195 -10.8741 6.23775
    endloop
  endfacet
  facet normal -0.692261 -0.132938 0.709297
    outer loop
      vertex 1.16673 -13.6401 3.25475
      vertex 1.5244 -14.1072 3.5163
      vertex 3.69195 -10.8741 6.23775
    endloop
  endfacet
  facet normal -0.692261 -0.132938 0.709297
    outer loop
      vertex 3.69195 -10.8741 6.23775
      vertex 3.83903 -8.58637 6.81006
      vertex 1.16673 -13.6401 3.25475
    endloop
  endfacet
  facet normal -0.462554 -0.333359 0.821532
    outer loop
      vertex 1.16673 -13.6401 3.25475
      vertex 3.83903 -8.58637 6.81006
      vertex 3.79366 -7.62837 7.17325
    endloop
  endfacet
  facet normal -0.462554 -0.333359 0.821532
    outer loop
      vertex 0.631428 -13.3281 3.07999
      vertex 1.16673 -13.6401 3.25475
      vertex 3.79366 -7.62837 7.17325
    endloop
  endfacet
  facet normal -0.462554 -0.333359 0.821532
    outer loop
      vertex 3.79366 -7.62837 7.17325
      vertex 3.74393 -6.5785 7.57126
      vertex 3.29092 -3.19379 8.68964
    endloop
  endfacet
  facet normal -0.462554 -0.333359 0.821532
    outer loop
      vertex 0.631428 -13.3281 3.07999
      vertex 3.79366 -7.62837 7.17325
      vertex 3.23058 -2.96093 8.75015
    endloop
  endfacet
  facet normal -0.462554 -0.333359 0.821532
    outer loop
      vertex 3.23058 -2.96093 8.75015
      vertex 3.79366 -7.62837 7.17325
      vertex 3.29092 -3.19379 8.68964
    endloop
  endfacet
  facet normal -0.162428 -0.441826 0.882274
    outer loop
      vertex 0.631428 -13.3281 3.07999
      vertex 3.23058 -2.96093 8.75015
      vertex 2.89567 -2.57258 8.88297
    endloop
  endfacet
  facet normal -0.162428 -0.441826 0.882274
    outer loop
      vertex 3.30416e-015 -13.2185 3.01862
      vertex 0.631428 -13.3281 3.07999
      vertex 2.89567 -2.57258 8.88297
    endloop
  endfacet
  facet normal -0.162427 -0.441826 0.882274
    outer loop
      vertex 3.30416e-015 -13.2185 3.01862
      vertex 2.89567 -2.57258 8.88297
      vertex 2.55172 -2.17375 9.01938
    endloop
  endfacet
  facet normal -0.162427 -0.441826 0.882274
    outer loop
      vertex 2.53014e-015 -0.597044 9.33919
      vertex 3.30416e-015 -13.2185 3.01862
      vertex 2.55172 -2.17375 9.01938
    endloop
  endfacet
  facet normal 0.162428 -0.441826 0.882274
    outer loop
      vertex 3.30416e-015 -13.2185 3.01862
      vertex 2.53014e-015 -0.597044 9.33919
      vertex -0.388925 -0.837361 9.29044
    endloop
  endfacet
  facet normal 0.162428 -0.441826 0.882274
    outer loop
      vertex -0.631428 -13.3281 3.07999
      vertex 3.30416e-015 -13.2185 3.01862
      vertex -0.388925 -0.837361 9.29044
    endloop
  endfacet
  facet normal 0.162427 -0.441826 0.882274
    outer loop
      vertex -0.631428 -13.3281 3.07999
      vertex -0.388925 -0.837361 9.29044
      vertex -2.55172 -2.17375 9.01938
    endloop
  endfacet
  facet normal 0.162427 -0.441826 0.882274
    outer loop
      vertex -3.23058 -2.96093 8.75015
      vertex -0.631428 -13.3281 3.07999
      vertex -2.55172 -2.17375 9.01938
    endloop
  endfacet
  facet normal 0.462554 -0.333359 0.821532
    outer loop
      vertex -1.16673 -13.6401 3.25475
      vertex -0.631428 -13.3281 3.07999
      vertex -3.23058 -2.96093 8.75015
    endloop
  endfacet
  facet normal 0.462554 -0.333359 0.821532
    outer loop
      vertex -3.39746 -3.98978 8.42663
      vertex -1.16673 -13.6401 3.25475
      vertex -3.29092 -3.19379 8.68964
    endloop
  endfacet
  facet normal 0.462554 -0.333359 0.821532
    outer loop
      vertex -3.29092 -3.19379 8.68964
      vertex -1.16673 -13.6401 3.25475
      vertex -3.23058 -2.96093 8.75015
    endloop
  endfacet
  facet normal 0.462554 -0.333359 0.821532
    outer loop
      vertex -1.16673 -13.6401 3.25475
      vertex -3.39746 -3.98978 8.42663
      vertex -3.74393 -6.5785 7.57126
    endloop
  endfacet
  facet normal 0.462554 -0.333359 0.821532
    outer loop
      vertex -3.83903 -8.58637 6.81006
      vertex -1.16673 -13.6401 3.25475
      vertex -3.74393 -6.5785 7.57126
    endloop
  endfacet
  facet normal 0.692261 -0.132938 0.709297
    outer loop
      vertex -3.76872 -9.6799 6.53649
      vertex -1.5244 -14.1072 3.5163
      vertex -1.16673 -13.6401 3.25475
    endloop
  endfacet
  facet normal 0.692261 -0.132938 0.709297
    outer loop
      vertex -3.83903 -8.58637 6.81006
      vertex -3.76872 -9.6799 6.53649
      vertex -1.16673 -13.6401 3.25475
    endloop
  endfacet
  facet normal 0.692261 -0.132938 0.709297
    outer loop
      vertex -3.63923 -11.694 6.03261
      vertex -1.5244 -14.1072 3.5163
      vertex -3.76872 -9.6799 6.53649
    endloop
  endfacet
  facet normal 0.816578 0.128924 0.562654
    outer loop
      vertex -3.4635 -12.5214 5.96715
      vertex -1.65 -14.6581 3.82482
      vertex -1.5244 -14.1072 3.5163
    endloop
  endfacet
  facet normal 0.816578 0.128924 0.562654
    outer loop
      vertex -3.63923 -11.694 6.03261
      vertex -3.4635 -12.5214 5.96715
      vertex -1.5244 -14.1072 3.5163
    endloop
  endfacet
  facet normal 0.816578 0.128924 0.562654
    outer loop
      vertex -3.25526 -13.5018 5.88958
      vertex -1.65 -14.6581 3.82482
      vertex -3.4635 -12.5214 5.96715
    endloop
  endfacet
  facet normal 0.816578 0.412362 0.403929
    outer loop
      vertex -3.11406 -13.8352 5.94449
      vertex -2.95352 -14.1475 5.93874
      vertex -1.5244 -15.209 4.13334
    endloop
  endfacet
  facet normal 0.816578 0.412362 0.403929
    outer loop
      vertex -3.25526 -13.5018 5.88958
      vertex -3.11406 -13.8352 5.94449
      vertex -1.65 -14.6581 3.82482
    endloop
  endfacet
  facet normal 0.816578 0.412362 0.403929
    outer loop
      vertex -1.65 -14.6581 3.82482
      vertex -3.11406 -13.8352 5.94449
      vertex -1.5244 -15.209 4.13334
    endloop
  endfacet
  facet normal -0.421908 -0.233038 0.876177
    outer loop
      vertex -2.95352 -14.1475 5.93874
      vertex -3.11406 -13.8352 5.94449
      vertex -2.82843 -17.1259 5.2068
    endloop
  endfacet
  facet normal -0.421908 -0.233038 0.876177
    outer loop
      vertex -2.64976 -14.7384 5.92786
      vertex -2.95352 -14.1475 5.93874
      vertex -1.53073 -17.8825 5.63046
    endloop
  endfacet
  facet normal -0.421908 -0.233038 0.876177
    outer loop
      vertex -1.53073 -17.8825 5.63046
      vertex -2.95352 -14.1475 5.93874
      vertex -2.82843 -17.1259 5.2068
    endloop
  endfacet
  facet normal -0.421908 -0.233038 0.876177
    outer loop
      vertex -1.80145 -15.6233 6.10096
      vertex -1.89308 -15.5699 6.07105
      vertex -1.53073 -17.8825 5.63046
    endloop
  endfacet
  facet normal -0.421908 -0.233038 0.876177
    outer loop
      vertex -1.89308 -15.5699 6.07105
      vertex -2.20878 -15.223 6.01131
      vertex -1.53073 -17.8825 5.63046
    endloop
  endfacet
  facet normal -0.421908 -0.233038 0.876177
    outer loop
      vertex -2.20878 -15.223 6.01131
      vertex -2.64976 -14.7384 5.92786
      vertex -1.53073 -17.8825 5.63046
    endloop
  endfacet
  facet normal -0.1317 -0.217218 0.967198
    outer loop
      vertex -1.32694 -15.8756 6.10892
      vertex -1.80145 -15.6233 6.10096
      vertex -1.53073 -17.8825 5.63046
    endloop
  endfacet
  facet normal -0.1317 -0.217218 0.967198
    outer loop
      vertex -0.971733 -16.0644 6.11488
      vertex -1.32694 -15.8756 6.10892
      vertex 2.96609e-015 -18.1481 5.77923
    endloop
  endfacet
  facet normal -0.1317 -0.217218 0.967198
    outer loop
      vertex 2.96609e-015 -18.1481 5.77923
      vertex -1.32694 -15.8756 6.10892
      vertex -1.53073 -17.8825 5.63046
    endloop
  endfacet
  facet normal -0.1317 -0.217218 0.967198
    outer loop
      vertex -0.314628 -16.1785 6.17874
      vertex -0.367898 -16.1692 6.17357
      vertex 2.96609e-015 -18.1481 5.77923
    endloop
  endfacet
  facet normal -0.1317 -0.217218 0.967198
    outer loop
      vertex -0.367898 -16.1692 6.17357
      vertex -0.971733 -16.0644 6.11488
      vertex 2.96609e-015 -18.1481 5.77923
    endloop
  endfacet
  facet normal -1.20017e-016 -0.198786 0.980043
    outer loop
      vertex 2.91844e-015 -16.2296 6.16838
      vertex -0.314628 -16.1785 6.17874
      vertex 2.96609e-015 -18.1481 5.77923
    endloop
  endfacet
  facet normal -1.20017e-016 -0.198786 0.980043
    outer loop
      vertex 0.314628 -16.1785 6.17874
      vertex 2.91844e-015 -16.2296 6.16838
      vertex 2.96609e-015 -18.1481 5.77923
    endloop
  endfacet
  facet normal 0.1317 -0.217218 0.967198
    outer loop
      vertex 0.314628 -16.1785 6.17874
      vertex 2.96609e-015 -18.1481 5.77923
      vertex 1.53073 -17.8825 5.63046
    endloop
  endfacet
  facet normal 0.1317 -0.217218 0.967198
    outer loop
      vertex 0.971733 -16.0644 6.11488
      vertex 0.314628 -16.1785 6.17874
      vertex 1.53073 -17.8825 5.63046
    endloop
  endfacet
  facet normal 0.1317 -0.217218 0.967198
    outer loop
      vertex 1.80145 -15.6233 6.10096
      vertex 1.51588 -15.7752 6.10575
      vertex 1.53073 -17.8825 5.63046
    endloop
  endfacet
  facet normal 0.1317 -0.217218 0.967198
    outer loop
      vertex 1.51588 -15.7752 6.10575
      vertex 0.971733 -16.0644 6.11488
      vertex 1.53073 -17.8825 5.63046
    endloop
  endfacet
  facet normal 0.1317 -0.217218 0.967198
    outer loop
      vertex 0.603836 -16.1283 6.15064
      vertex 0.314628 -16.1785 6.17874
      vertex 0.971733 -16.0644 6.11488
    endloop
  endfacet
  facet normal 0.980785 0.170218 -0.0953219
    outer loop
      vertex -1.5244 -15.209 4.13334
      vertex -1.5244 -16.6748 1.51582
      vertex -1.65 -16.1239 1.2073
    endloop
  endfacet
  facet normal 0.980785 0.170218 -0.0953219
    outer loop
      vertex -1.65 -14.6581 3.82482
      vertex -1.5244 -15.209 4.13334
      vertex -1.65 -16.1239 1.2073
    endloop
  endfacet
  facet normal 0.831469 0.484739 -0.271454
    outer loop
      vertex -1.16673 -15.6761 4.39489
      vertex -1.16673 -17.1419 1.77737
      vertex -1.5244 -16.6748 1.51582
    endloop
  endfacet
  facet normal 0.831469 0.484739 -0.271454
    outer loop
      vertex -1.5244 -15.209 4.13334
      vertex -1.16673 -15.6761 4.39489
      vertex -1.5244 -16.6748 1.51582
    endloop
  endfacet
  facet normal 0.980785 -0.170218 0.0953219
    outer loop
      vertex -1.65 -16.1239 1.2073
      vertex -1.5244 -15.573 0.898784
      vertex -1.5244 -14.1072 3.5163
    endloop
  endfacet
  facet normal 0.980785 -0.170218 0.0953219
    outer loop
      vertex -1.65 -14.6581 3.82482
      vertex -1.65 -16.1239 1.2073
      vertex -1.5244 -14.1072 3.5163
    endloop
  endfacet
  facet normal 0.831469 -0.484739 0.271454
    outer loop
      vertex -1.5244 -15.573 0.898784
      vertex -1.16673 -15.1059 0.637235
      vertex -1.16673 -13.6401 3.25475
    endloop
  endfacet
  facet normal 0.831469 -0.484739 0.271454
    outer loop
      vertex -1.5244 -14.1072 3.5163
      vertex -1.5244 -15.573 0.898784
      vertex -1.16673 -13.6401 3.25475
    endloop
  endfacet
  facet normal 0.555571 -0.725462 0.406259
    outer loop
      vertex -1.16673 -15.1059 0.637235
      vertex -0.631428 -14.7939 0.462474
      vertex -0.631428 -13.3281 3.07999
    endloop
  endfacet
  facet normal 0.555571 -0.725462 0.406259
    outer loop
      vertex -1.16673 -13.6401 3.25475
      vertex -1.16673 -15.1059 0.637235
      vertex -0.631428 -13.3281 3.07999
    endloop
  endfacet
  facet normal 0.195091 -0.855741 0.479215
    outer loop
      vertex -0.631428 -14.7939 0.462474
      vertex 3.6247e-015 -14.6843 0.401106
      vertex 3.30416e-015 -13.2185 3.01862
    endloop
  endfacet
  facet normal 0.195091 -0.855741 0.479215
    outer loop
      vertex -0.631428 -13.3281 3.07999
      vertex -0.631428 -14.7939 0.462474
      vertex 3.30416e-015 -13.2185 3.01862
    endloop
  endfacet
  facet normal -0.195091 -0.855741 0.479215
    outer loop
      vertex 3.6247e-015 -14.6843 0.401106
      vertex 0.631428 -14.7939 0.462474
      vertex 0.631428 -13.3281 3.07999
    endloop
  endfacet
  facet normal -0.195091 -0.855741 0.479215
    outer loop
      vertex 3.30416e-015 -13.2185 3.01862
      vertex 3.6247e-015 -14.6843 0.401106
      vertex 0.631428 -13.3281 3.07999
    endloop
  endfacet
  facet normal -0.555571 -0.725462 0.406259
    outer loop
      vertex 0.631428 -14.7939 0.462474
      vertex 1.16673 -15.1059 0.637235
      vertex 1.16673 -13.6401 3.25475
    endloop
  endfacet
  facet normal -0.555571 -0.725462 0.406259
    outer loop
      vertex 0.631428 -13.3281 3.07999
      vertex 0.631428 -14.7939 0.462474
      vertex 1.16673 -13.6401 3.25475
    endloop
  endfacet
  facet normal -0.831469 -0.484739 0.271454
    outer loop
      vertex 1.5244 -15.573 0.898784
      vertex 1.5244 -14.1072 3.5163
      vertex 1.16673 -15.1059 0.637235
    endloop
  endfacet
  facet normal -0.831469 -0.484739 0.271454
    outer loop
      vertex 1.16673 -15.1059 0.637235
      vertex 1.5244 -14.1072 3.5163
      vertex 1.16673 -13.6401 3.25475
    endloop
  endfacet
  facet normal -0.980785 -0.170218 0.0953219
    outer loop
      vertex 1.65 -16.1239 1.2073
      vertex 1.65 -14.6581 3.82482
      vertex 1.5244 -15.573 0.898784
    endloop
  endfacet
  facet normal -0.980785 -0.170218 0.0953219
    outer loop
      vertex 1.5244 -15.573 0.898784
      vertex 1.65 -14.6581 3.82482
      vertex 1.5244 -14.1072 3.5163
    endloop
  endfacet
  facet normal -0.980785 0.170218 -0.0953219
    outer loop
      vertex 1.65 -16.1239 1.2073
      vertex 1.5244 -16.6748 1.51582
      vertex 1.65 -14.6581 3.82482
    endloop
  endfacet
  facet normal -0.980785 0.170218 -0.0953219
    outer loop
      vertex 1.65 -14.6581 3.82482
      vertex 1.5244 -16.6748 1.51582
      vertex 1.5244 -15.209 4.13334
    endloop
  endfacet
  facet normal -0.831469 0.484739 -0.271454
    outer loop
      vertex 1.5244 -16.6748 1.51582
      vertex 1.16673 -17.1419 1.77737
      vertex 1.5244 -15.209 4.13334
    endloop
  endfacet
  facet normal -0.831469 0.484739 -0.271454
    outer loop
      vertex 1.5244 -15.209 4.13334
      vertex 1.16673 -17.1419 1.77737
      vertex 1.16673 -15.6761 4.39489
    endloop
  endfacet
  facet normal -0.555571 0.725462 -0.406259
    outer loop
      vertex 1.16673 -17.1419 1.77737
      vertex 0.631428 -17.454 1.95213
      vertex 1.16673 -15.6761 4.39489
    endloop
  endfacet
  facet normal -0.555571 0.725462 -0.406259
    outer loop
      vertex 1.16673 -15.6761 4.39489
      vertex 0.631428 -17.454 1.95213
      vertex 0.631428 -15.9882 4.56965
    endloop
  endfacet
  facet normal -0.195091 0.855741 -0.479215
    outer loop
      vertex 0.631428 -17.454 1.95213
      vertex 3.42724e-015 -17.5635 2.0135
      vertex 0.631428 -15.9882 4.56965
    endloop
  endfacet
  facet normal -0.195091 0.855741 -0.479215
    outer loop
      vertex 0.631428 -15.9882 4.56965
      vertex 3.42724e-015 -17.5635 2.0135
      vertex 3.1067e-015 -16.0977 4.63102
    endloop
  endfacet
  facet normal 0.195091 0.855741 -0.479215
    outer loop
      vertex 3.42724e-015 -17.5635 2.0135
      vertex -0.631428 -17.454 1.95213
      vertex 3.1067e-015 -16.0977 4.63102
    endloop
  endfacet
  facet normal 0.195091 0.855741 -0.479215
    outer loop
      vertex 3.1067e-015 -16.0977 4.63102
      vertex -0.631428 -17.454 1.95213
      vertex -0.631428 -15.9882 4.56965
    endloop
  endfacet
  facet normal 0.555571 0.725462 -0.406259
    outer loop
      vertex -0.631428 -17.454 1.95213
      vertex -1.16673 -17.1419 1.77737
      vertex -0.631428 -15.9882 4.56965
    endloop
  endfacet
  facet normal 0.555571 0.725462 -0.406259
    outer loop
      vertex -0.631428 -15.9882 4.56965
      vertex -1.16673 -17.1419 1.77737
      vertex -1.16673 -15.6761 4.39489
    endloop
  endfacet
  facet normal -0.462554 0.874645 0.14505
    outer loop
      vertex 1.80145 -15.6233 6.10096
      vertex 1.89308 -15.5699 6.07105
      vertex 1.51588 -15.7752 6.10575
    endloop
  endfacet
  facet normal -0.462554 0.874645 0.14505
    outer loop
      vertex 1.51588 -15.7752 6.10575
      vertex 1.89308 -15.5699 6.07105
      vertex 1.16673 -15.6761 4.39489
    endloop
  endfacet
  facet normal -0.692261 0.674225 0.257286
    outer loop
      vertex 2.30421 -15.1181 5.99325
      vertex 1.5244 -15.209 4.13334
      vertex 1.89308 -15.5699 6.07105
    endloop
  endfacet
  facet normal -0.692261 0.674225 0.257286
    outer loop
      vertex 1.89308 -15.5699 6.07105
      vertex 1.5244 -15.209 4.13334
      vertex 1.16673 -15.6761 4.39489
    endloop
  endfacet
  facet normal -0.692261 0.674224 0.257286
    outer loop
      vertex 2.30421 -15.1181 5.99325
      vertex 2.64976 -14.7384 5.92786
      vertex 1.5244 -15.209 4.13334
    endloop
  endfacet
  facet normal -0.816578 0.412362 0.403929
    outer loop
      vertex 2.95339 -14.1478 5.93873
      vertex 1.65 -14.6581 3.82482
      vertex 2.64976 -14.7384 5.92786
    endloop
  endfacet
  facet normal -0.816578 0.412362 0.403929
    outer loop
      vertex 2.64976 -14.7384 5.92786
      vertex 1.65 -14.6581 3.82482
      vertex 1.5244 -15.209 4.13334
    endloop
  endfacet
  facet normal 0.692261 0.674225 0.257286
    outer loop
      vertex -2.20878 -15.223 6.01131
      vertex -1.16673 -15.6761 4.39489
      vertex -1.5244 -15.209 4.13334
    endloop
  endfacet
  facet normal 0.692261 0.674225 0.257286
    outer loop
      vertex -2.64976 -14.7384 5.92786
      vertex -2.20878 -15.223 6.01131
      vertex -1.5244 -15.209 4.13334
    endloop
  endfacet
  facet normal 0.816578 0.412362 0.403929
    outer loop
      vertex -2.64976 -14.7384 5.92786
      vertex -1.5244 -15.209 4.13334
      vertex -2.95352 -14.1475 5.93874
    endloop
  endfacet
  facet normal 0.692261 0.674224 0.257286
    outer loop
      vertex -1.89308 -15.5699 6.07105
      vertex -1.16673 -15.6761 4.39489
      vertex -2.20878 -15.223 6.01131
    endloop
  endfacet
  facet normal 0.462554 0.874645 0.14505
    outer loop
      vertex -1.32694 -15.8756 6.10892
      vertex -0.631428 -15.9882 4.56965
      vertex -1.80145 -15.6233 6.10096
    endloop
  endfacet
  facet normal 0.462554 0.874645 0.14505
    outer loop
      vertex -1.80145 -15.6233 6.10096
      vertex -0.631428 -15.9882 4.56965
      vertex -1.16673 -15.6761 4.39489
    endloop
  endfacet
  facet normal 0.462554 0.874645 0.14505
    outer loop
      vertex -1.80145 -15.6233 6.10096
      vertex -1.16673 -15.6761 4.39489
      vertex -1.89308 -15.5699 6.07105
    endloop
  endfacet
  facet normal 0.462554 0.874645 0.14505
    outer loop
      vertex -0.971733 -16.0644 6.11488
      vertex -0.631428 -15.9882 4.56965
      vertex -1.32694 -15.8756 6.10892
    endloop
  endfacet
  facet normal 0.162428 0.983112 0.0843089
    outer loop
      vertex 3.1067e-015 -16.0977 4.63102
      vertex -0.631428 -15.9882 4.56965
      vertex -0.367898 -16.1692 6.17357
    endloop
  endfacet
  facet normal 0.162428 0.983112 0.0843089
    outer loop
      vertex -0.367898 -16.1692 6.17357
      vertex -0.631428 -15.9882 4.56965
      vertex -0.971733 -16.0644 6.11488
    endloop
  endfacet
  facet normal 0.162427 0.983112 0.0843088
    outer loop
      vertex 2.91844e-015 -16.2296 6.16838
      vertex 3.1067e-015 -16.0977 4.63102
      vertex -0.314628 -16.1785 6.17874
    endloop
  endfacet
  facet normal 0.162427 0.983112 0.0843088
    outer loop
      vertex -0.314628 -16.1785 6.17874
      vertex 3.1067e-015 -16.0977 4.63102
      vertex -0.367898 -16.1692 6.17357
    endloop
  endfacet
  facet normal -0.162428 0.983112 0.0843088
    outer loop
      vertex 0.603836 -16.1283 6.15064
      vertex 0.631428 -15.9882 4.56965
      vertex 0.314628 -16.1785 6.17874
    endloop
  endfacet
  facet normal -0.162428 0.983112 0.0843088
    outer loop
      vertex 0.314628 -16.1785 6.17874
      vertex 0.631428 -15.9882 4.56965
      vertex 3.1067e-015 -16.0977 4.63102
    endloop
  endfacet
  facet normal -0.162428 0.983112 0.0843088
    outer loop
      vertex 0.314628 -16.1785 6.17874
      vertex 3.1067e-015 -16.0977 4.63102
      vertex 2.91844e-015 -16.2296 6.16838
    endloop
  endfacet
  facet normal -0.162427 0.983112 0.0843088
    outer loop
      vertex 0.971733 -16.0644 6.11488
      vertex 0.631428 -15.9882 4.56965
      vertex 0.603836 -16.1283 6.15064
    endloop
  endfacet
  facet normal -0.462554 0.874645 0.14505
    outer loop
      vertex 1.51588 -15.7752 6.10575
      vertex 1.16673 -15.6761 4.39489
      vertex 0.971733 -16.0644 6.11488
    endloop
  endfacet
  facet normal -0.462554 0.874645 0.14505
    outer loop
      vertex 0.971733 -16.0644 6.11488
      vertex 1.16673 -15.6761 4.39489
      vertex 0.631428 -15.9882 4.56965
    endloop
  endfacet
endsolid OpenSCAD_Model
