solid OpenSCAD_Model
  facet normal 0.994522 0.104529 0
    outer loop
      vertex 11.5 0 8
      vertex 11.2487 2.39098 0
      vertex 11.2487 2.39098 8
    endloop
  endfacet
  facet normal 0.994522 0.104529 0
    outer loop
      vertex 11.2487 2.39098 0
      vertex 11.5 0 8
      vertex 11.5 0 0
    endloop
  endfacet
  facet normal -0.994522 0.104529 0
    outer loop
      vertex -11.5 0 0
      vertex -11.2487 2.39098 8
      vertex -11.2487 2.39098 0
    endloop
  endfacet
  facet normal -0.994522 0.104529 0
    outer loop
      vertex -11.2487 2.39098 8
      vertex -11.5 0 0
      vertex -11.5 0 8
    endloop
  endfacet
  facet normal 0 1 -0
    outer loop
      vertex 1.20208 11.437 0
      vertex -1.20208 11.437 8
      vertex 1.20208 11.437 8
    endloop
  endfacet
  facet normal 0 1 0
    outer loop
      vertex -1.20208 11.437 8
      vertex 1.20208 11.437 0
      vertex -1.20208 11.437 0
    endloop
  endfacet
  facet normal 0.743145 0.66913 0
    outer loop
      vertex 9.30369 6.75953 8
      vertex 7.695 8.54617 0
      vertex 7.695 8.54617 8
    endloop
  endfacet
  facet normal 0.743145 0.66913 0
    outer loop
      vertex 7.695 8.54617 0
      vertex 9.30369 6.75953 8
      vertex 9.30369 6.75953 0
    endloop
  endfacet
  facet normal 0.951057 0.309017 0
    outer loop
      vertex 11.2487 2.39098 8
      vertex 10.5058 4.67747 0
      vertex 10.5058 4.67747 8
    endloop
  endfacet
  facet normal 0.951057 0.309017 0
    outer loop
      vertex 10.5058 4.67747 0
      vertex 11.2487 2.39098 8
      vertex 11.2487 2.39098 0
    endloop
  endfacet
  facet normal -0.587785 0.809017 0
    outer loop
      vertex -5.75 9.95929 0
      vertex -7.695 8.54617 8
      vertex -5.75 9.95929 8
    endloop
  endfacet
  facet normal -0.587785 0.809017 0
    outer loop
      vertex -7.695 8.54617 8
      vertex -5.75 9.95929 0
      vertex -7.695 8.54617 0
    endloop
  endfacet
  facet normal -0.207912 0.978148 0
    outer loop
      vertex -1.20208 11.437 0
      vertex -3.55369 10.9371 8
      vertex -1.20208 11.437 8
    endloop
  endfacet
  facet normal -0.207912 0.978148 0
    outer loop
      vertex -3.55369 10.9371 8
      vertex -1.20208 11.437 0
      vertex -3.55369 10.9371 0
    endloop
  endfacet
  facet normal 0.866025 -0.5 0
    outer loop
      vertex 9.30369 -6.75953 8
      vertex 10.5058 -4.67747 0
      vertex 10.5058 -4.67747 8
    endloop
  endfacet
  facet normal 0.866025 -0.5 0
    outer loop
      vertex 10.5058 -4.67747 0
      vertex 9.30369 -6.75953 8
      vertex 9.30369 -6.75953 0
    endloop
  endfacet
  facet normal 0.866025 0.5 0
    outer loop
      vertex 10.5058 4.67747 8
      vertex 9.30369 6.75953 0
      vertex 9.30369 6.75953 8
    endloop
  endfacet
  facet normal 0.866025 0.5 0
    outer loop
      vertex 9.30369 6.75953 0
      vertex 10.5058 4.67747 8
      vertex 10.5058 4.67747 0
    endloop
  endfacet
  facet normal 0.406736 0.913546 -0
    outer loop
      vertex 5.75 9.95929 0
      vertex 3.55369 10.9371 8
      vertex 5.75 9.95929 8
    endloop
  endfacet
  facet normal 0.406736 0.913546 0
    outer loop
      vertex 3.55369 10.9371 8
      vertex 5.75 9.95929 0
      vertex 3.55369 10.9371 0
    endloop
  endfacet
  facet normal 0.207912 0.978148 -0
    outer loop
      vertex 3.55369 10.9371 0
      vertex 1.20208 11.437 8
      vertex 3.55369 10.9371 8
    endloop
  endfacet
  facet normal 0.207912 0.978148 0
    outer loop
      vertex 1.20208 11.437 8
      vertex 3.55369 10.9371 0
      vertex 1.20208 11.437 0
    endloop
  endfacet
  facet normal 0.587785 0.809017 -0
    outer loop
      vertex 7.695 8.54617 0
      vertex 5.75 9.95929 8
      vertex 7.695 8.54617 8
    endloop
  endfacet
  facet normal 0.587785 0.809017 0
    outer loop
      vertex 5.75 9.95929 8
      vertex 7.695 8.54617 0
      vertex 5.75 9.95929 0
    endloop
  endfacet
  facet normal -0.866025 0.5 0
    outer loop
      vertex -10.5058 4.67747 0
      vertex -9.30369 6.75953 8
      vertex -9.30369 6.75953 0
    endloop
  endfacet
  facet normal -0.866025 0.5 0
    outer loop
      vertex -9.30369 6.75953 8
      vertex -10.5058 4.67747 0
      vertex -10.5058 4.67747 8
    endloop
  endfacet
  facet normal -0.743145 0.66913 0
    outer loop
      vertex -9.30369 6.75953 0
      vertex -7.695 8.54617 8
      vertex -7.695 8.54617 0
    endloop
  endfacet
  facet normal -0.743145 0.66913 0
    outer loop
      vertex -7.695 8.54617 8
      vertex -9.30369 6.75953 0
      vertex -9.30369 6.75953 8
    endloop
  endfacet
  facet normal -0.951057 0.309017 0
    outer loop
      vertex -11.2487 2.39098 0
      vertex -10.5058 4.67747 8
      vertex -10.5058 4.67747 0
    endloop
  endfacet
  facet normal -0.951057 0.309017 0
    outer loop
      vertex -10.5058 4.67747 8
      vertex -11.2487 2.39098 0
      vertex -11.2487 2.39098 8
    endloop
  endfacet
  facet normal 0 0 1
    outer loop
      vertex 5 0 8
      vertex 11.5 0 8
      vertex 11.2487 2.39098 8
    endloop
  endfacet
  facet normal 0 0 1
    outer loop
      vertex 4.6194 1.91342 8
      vertex 11.2487 2.39098 8
      vertex 10.5058 4.67747 8
    endloop
  endfacet
  facet normal 0 0 1
    outer loop
      vertex 11.5 0 8
      vertex 5 0 8
      vertex 11.2487 -2.39098 8
    endloop
  endfacet
  facet normal 0 0 1
    outer loop
      vertex 4.6194 1.91342 8
      vertex 10.5058 4.67747 8
      vertex 9.30369 6.75953 8
    endloop
  endfacet
  facet normal -0 0 1
    outer loop
      vertex 4.6194 -1.91342 8
      vertex 11.2487 -2.39098 8
      vertex 5 0 8
    endloop
  endfacet
  facet normal 0 0 1
    outer loop
      vertex 3.53553 3.53553 8
      vertex 9.30369 6.75953 8
      vertex 7.695 8.54617 8
    endloop
  endfacet
  facet normal 0 0 1
    outer loop
      vertex 11.2487 -2.39098 8
      vertex 4.6194 -1.91342 8
      vertex 10.5058 -4.67747 8
    endloop
  endfacet
  facet normal 0 0 1
    outer loop
      vertex 3.53553 3.53553 8
      vertex 7.695 8.54617 8
      vertex 5.75 9.95929 8
    endloop
  endfacet
  facet normal 0 0 1
    outer loop
      vertex 10.5058 -4.67747 8
      vertex 4.6194 -1.91342 8
      vertex 9.30369 -6.75953 8
    endloop
  endfacet
  facet normal -0 0 1
    outer loop
      vertex 3.53553 -3.53553 8
      vertex 9.30369 -6.75953 8
      vertex 4.6194 -1.91342 8
    endloop
  endfacet
  facet normal 0 0 1
    outer loop
      vertex 11.2487 2.39098 8
      vertex 4.6194 1.91342 8
      vertex 5 0 8
    endloop
  endfacet
  facet normal 0 0 1
    outer loop
      vertex 1.91342 4.6194 8
      vertex 5.75 9.95929 8
      vertex 3.55369 10.9371 8
    endloop
  endfacet
  facet normal 0 0 1
    outer loop
      vertex 9.30369 6.75953 8
      vertex 3.53553 3.53553 8
      vertex 4.6194 1.91342 8
    endloop
  endfacet
  facet normal 0 0 1
    outer loop
      vertex 5.75 9.95929 8
      vertex 1.91342 4.6194 8
      vertex 3.53553 3.53553 8
    endloop
  endfacet
  facet normal 0 0 1
    outer loop
      vertex 1.20208 11.437 8
      vertex 1.91342 4.6194 8
      vertex 3.55369 10.9371 8
    endloop
  endfacet
  facet normal 0 0 1
    outer loop
      vertex 1.20208 11.437 8
      vertex 0 5 8
      vertex 1.91342 4.6194 8
    endloop
  endfacet
  facet normal -0 0 1
    outer loop
      vertex -1.20208 11.437 8
      vertex 0 5 8
      vertex 1.20208 11.437 8
    endloop
  endfacet
  facet normal 0 0 1
    outer loop
      vertex -1.20208 11.437 8
      vertex -1.91342 4.6194 8
      vertex 0 5 8
    endloop
  endfacet
  facet normal -0 0 1
    outer loop
      vertex -3.55369 10.9371 8
      vertex -1.91342 4.6194 8
      vertex -1.20208 11.437 8
    endloop
  endfacet
  facet normal -0 0 1
    outer loop
      vertex -5.75 9.95929 8
      vertex -1.91342 4.6194 8
      vertex -3.55369 10.9371 8
    endloop
  endfacet
  facet normal 0 0 1
    outer loop
      vertex -1.91342 4.6194 8
      vertex -5.75 9.95929 8
      vertex -3.53553 3.53553 8
    endloop
  endfacet
  facet normal -0 0 1
    outer loop
      vertex -7.695 8.54617 8
      vertex -3.53553 3.53553 8
      vertex -5.75 9.95929 8
    endloop
  endfacet
  facet normal -0 0 1
    outer loop
      vertex -9.30369 6.75953 8
      vertex -3.53553 3.53553 8
      vertex -7.695 8.54617 8
    endloop
  endfacet
  facet normal 0 0 1
    outer loop
      vertex 9.30369 -6.75953 8
      vertex 3.53553 -3.53553 8
      vertex 7.695 -8.54617 8
    endloop
  endfacet
  facet normal 0 0 1
    outer loop
      vertex 7.695 -8.54617 8
      vertex 3.53553 -3.53553 8
      vertex 5.75 -9.95929 8
    endloop
  endfacet
  facet normal -0 0 1
    outer loop
      vertex 1.91342 -4.6194 8
      vertex 5.75 -9.95929 8
      vertex 3.53553 -3.53553 8
    endloop
  endfacet
  facet normal 0 0 1
    outer loop
      vertex 5.75 -9.95929 8
      vertex 1.91342 -4.6194 8
      vertex 3.55369 -10.9371 8
    endloop
  endfacet
  facet normal 0 0 1
    outer loop
      vertex 1.91342 -4.6194 8
      vertex 1.20208 -11.437 8
      vertex 3.55369 -10.9371 8
    endloop
  endfacet
  facet normal -0 0 1
    outer loop
      vertex 0 -5 8
      vertex 1.20208 -11.437 8
      vertex 1.91342 -4.6194 8
    endloop
  endfacet
  facet normal 0 0 1
    outer loop
      vertex 0 -5 8
      vertex -1.20208 -11.437 8
      vertex 1.20208 -11.437 8
    endloop
  endfacet
  facet normal 0 0 1
    outer loop
      vertex -1.91342 -4.6194 8
      vertex -1.20208 -11.437 8
      vertex 0 -5 8
    endloop
  endfacet
  facet normal 0 0 1
    outer loop
      vertex -5.75 -9.95929 8
      vertex -1.91342 -4.6194 8
      vertex -3.53553 -3.53553 8
    endloop
  endfacet
  facet normal 0 0 1
    outer loop
      vertex -1.91342 -4.6194 8
      vertex -3.55369 -10.9371 8
      vertex -1.20208 -11.437 8
    endloop
  endfacet
  facet normal 0 0 1
    outer loop
      vertex -9.30369 -6.75953 8
      vertex -3.53553 -3.53553 8
      vertex -4.6194 -1.91342 8
    endloop
  endfacet
  facet normal 0 0 1
    outer loop
      vertex -11.2487 -2.39098 8
      vertex -4.6194 -1.91342 8
      vertex -5 0 8
    endloop
  endfacet
  facet normal 0 0 1
    outer loop
      vertex -1.91342 -4.6194 8
      vertex -5.75 -9.95929 8
      vertex -3.55369 -10.9371 8
    endloop
  endfacet
  facet normal 0 0 1
    outer loop
      vertex -3.53553 3.53553 8
      vertex -9.30369 6.75953 8
      vertex -4.6194 1.91342 8
    endloop
  endfacet
  facet normal -0 0 1
    outer loop
      vertex -10.5058 4.67747 8
      vertex -4.6194 1.91342 8
      vertex -9.30369 6.75953 8
    endloop
  endfacet
  facet normal 0 0 1
    outer loop
      vertex -3.53553 -3.53553 8
      vertex -7.695 -8.54617 8
      vertex -5.75 -9.95929 8
    endloop
  endfacet
  facet normal -0 0 1
    outer loop
      vertex -11.2487 2.39098 8
      vertex -4.6194 1.91342 8
      vertex -10.5058 4.67747 8
    endloop
  endfacet
  facet normal 0 0 1
    outer loop
      vertex -3.53553 -3.53553 8
      vertex -9.30369 -6.75953 8
      vertex -7.695 -8.54617 8
    endloop
  endfacet
  facet normal 0 0 1
    outer loop
      vertex -4.6194 1.91342 8
      vertex -11.2487 2.39098 8
      vertex -5 0 8
    endloop
  endfacet
  facet normal 0 0 1
    outer loop
      vertex -4.6194 -1.91342 8
      vertex -10.5058 -4.67747 8
      vertex -9.30369 -6.75953 8
    endloop
  endfacet
  facet normal 0 0 1
    outer loop
      vertex -11.5 0 8
      vertex -5 0 8
      vertex -11.2487 2.39098 8
    endloop
  endfacet
  facet normal 0 0 1
    outer loop
      vertex -4.6194 -1.91342 8
      vertex -11.2487 -2.39098 8
      vertex -10.5058 -4.67747 8
    endloop
  endfacet
  facet normal 0 0 1
    outer loop
      vertex -5 0 8
      vertex -11.5 0 8
      vertex -11.2487 -2.39098 8
    endloop
  endfacet
  facet normal -0.406737 0.913545 0
    outer loop
      vertex -3.55369 10.9371 0
      vertex -5.75 9.95929 8
      vertex -3.55369 10.9371 8
    endloop
  endfacet
  facet normal -0.406737 0.913545 0
    outer loop
      vertex -5.75 9.95929 8
      vertex -3.55369 10.9371 0
      vertex -5.75 9.95929 0
    endloop
  endfacet
  facet normal 0.994522 -0.104529 0
    outer loop
      vertex 11.2487 -2.39098 8
      vertex 11.5 0 0
      vertex 11.5 0 8
    endloop
  endfacet
  facet normal 0.994522 -0.104529 0
    outer loop
      vertex 11.5 0 0
      vertex 11.2487 -2.39098 8
      vertex 11.2487 -2.39098 0
    endloop
  endfacet
  facet normal -0.207912 -0.978148 0
    outer loop
      vertex -3.55369 -10.9371 0
      vertex -1.20208 -11.437 8
      vertex -3.55369 -10.9371 8
    endloop
  endfacet
  facet normal -0.207912 -0.978148 -0
    outer loop
      vertex -1.20208 -11.437 8
      vertex -3.55369 -10.9371 0
      vertex -1.20208 -11.437 0
    endloop
  endfacet
  facet normal 0.587785 -0.809017 0
    outer loop
      vertex 5.75 -9.95929 0
      vertex 7.695 -8.54617 8
      vertex 5.75 -9.95929 8
    endloop
  endfacet
  facet normal 0.587785 -0.809017 0
    outer loop
      vertex 7.695 -8.54617 8
      vertex 5.75 -9.95929 0
      vertex 7.695 -8.54617 0
    endloop
  endfacet
  facet normal 0.743145 -0.66913 0
    outer loop
      vertex 7.695 -8.54617 8
      vertex 9.30369 -6.75953 0
      vertex 9.30369 -6.75953 8
    endloop
  endfacet
  facet normal 0.743145 -0.66913 0
    outer loop
      vertex 9.30369 -6.75953 0
      vertex 7.695 -8.54617 8
      vertex 7.695 -8.54617 0
    endloop
  endfacet
  facet normal 0.951057 -0.309017 0
    outer loop
      vertex 10.5058 -4.67747 8
      vertex 11.2487 -2.39098 0
      vertex 11.2487 -2.39098 8
    endloop
  endfacet
  facet normal 0.951057 -0.309017 0
    outer loop
      vertex 11.2487 -2.39098 0
      vertex 10.5058 -4.67747 8
      vertex 10.5058 -4.67747 0
    endloop
  endfacet
  facet normal -0.866025 -0.5 0
    outer loop
      vertex -9.30369 -6.75953 0
      vertex -10.5058 -4.67747 8
      vertex -10.5058 -4.67747 0
    endloop
  endfacet
  facet normal -0.866025 -0.5 0
    outer loop
      vertex -10.5058 -4.67747 8
      vertex -9.30369 -6.75953 0
      vertex -9.30369 -6.75953 8
    endloop
  endfacet
  facet normal -0.994522 -0.104529 0
    outer loop
      vertex -11.2487 -2.39098 0
      vertex -11.5 0 8
      vertex -11.5 0 0
    endloop
  endfacet
  facet normal -0.994522 -0.104529 0
    outer loop
      vertex -11.5 0 8
      vertex -11.2487 -2.39098 0
      vertex -11.2487 -2.39098 8
    endloop
  endfacet
  facet normal -0.951057 -0.309017 0
    outer loop
      vertex -10.5058 -4.67747 0
      vertex -11.2487 -2.39098 8
      vertex -11.2487 -2.39098 0
    endloop
  endfacet
  facet normal -0.951057 -0.309017 0
    outer loop
      vertex -11.2487 -2.39098 8
      vertex -10.5058 -4.67747 0
      vertex -10.5058 -4.67747 8
    endloop
  endfacet
  facet normal 0.207912 -0.978148 0
    outer loop
      vertex 1.20208 -11.437 0
      vertex 3.55369 -10.9371 8
      vertex 1.20208 -11.437 8
    endloop
  endfacet
  facet normal 0.207912 -0.978148 0
    outer loop
      vertex 3.55369 -10.9371 8
      vertex 1.20208 -11.437 0
      vertex 3.55369 -10.9371 0
    endloop
  endfacet
  facet normal 0 -1 0
    outer loop
      vertex -1.20208 -11.437 0
      vertex 1.20208 -11.437 8
      vertex -1.20208 -11.437 8
    endloop
  endfacet
  facet normal 0 -1 -0
    outer loop
      vertex 1.20208 -11.437 8
      vertex -1.20208 -11.437 0
      vertex 1.20208 -11.437 0
    endloop
  endfacet
  facet normal -0.587785 -0.809017 0
    outer loop
      vertex -7.695 -8.54617 0
      vertex -5.75 -9.95929 8
      vertex -7.695 -8.54617 8
    endloop
  endfacet
  facet normal -0.587785 -0.809017 -0
    outer loop
      vertex -5.75 -9.95929 8
      vertex -7.695 -8.54617 0
      vertex -5.75 -9.95929 0
    endloop
  endfacet
  facet normal -0.406736 -0.913546 0
    outer loop
      vertex -5.75 -9.95929 0
      vertex -3.55369 -10.9371 8
      vertex -5.75 -9.95929 8
    endloop
  endfacet
  facet normal -0.406736 -0.913546 -0
    outer loop
      vertex -3.55369 -10.9371 8
      vertex -5.75 -9.95929 0
      vertex -3.55369 -10.9371 0
    endloop
  endfacet
  facet normal -0.743145 -0.66913 0
    outer loop
      vertex -7.695 -8.54617 0
      vertex -9.30369 -6.75953 8
      vertex -9.30369 -6.75953 0
    endloop
  endfacet
  facet normal -0.743145 -0.66913 0
    outer loop
      vertex -9.30369 -6.75953 8
      vertex -7.695 -8.54617 0
      vertex -7.695 -8.54617 8
    endloop
  endfacet
  facet normal 0 0 -1
    outer loop
      vertex 5 0 0
      vertex 11.5 0 0
      vertex 11.2487 -2.39098 0
    endloop
  endfacet
  facet normal 0 0 -1
    outer loop
      vertex 4.6194 -1.91342 0
      vertex 11.2487 -2.39098 0
      vertex 10.5058 -4.67747 0
    endloop
  endfacet
  facet normal 0 0 -1
    outer loop
      vertex 11.5 0 0
      vertex 5 0 0
      vertex 11.2487 2.39098 0
    endloop
  endfacet
  facet normal 0 0 -1
    outer loop
      vertex 4.6194 -1.91342 0
      vertex 10.5058 -4.67747 0
      vertex 9.30369 -6.75953 0
    endloop
  endfacet
  facet normal 0 0 -1
    outer loop
      vertex 4.6194 1.91342 0
      vertex 11.2487 2.39098 0
      vertex 5 0 0
    endloop
  endfacet
  facet normal 0 0 -1
    outer loop
      vertex 3.53553 -3.53553 0
      vertex 9.30369 -6.75953 0
      vertex 7.695 -8.54617 0
    endloop
  endfacet
  facet normal -0 0 -1
    outer loop
      vertex 11.2487 2.39098 0
      vertex 4.6194 1.91342 0
      vertex 10.5058 4.67747 0
    endloop
  endfacet
  facet normal 0 0 -1
    outer loop
      vertex 3.53553 -3.53553 0
      vertex 7.695 -8.54617 0
      vertex 5.75 -9.95929 0
    endloop
  endfacet
  facet normal -0 0 -1
    outer loop
      vertex 10.5058 4.67747 0
      vertex 4.6194 1.91342 0
      vertex 9.30369 6.75953 0
    endloop
  endfacet
  facet normal 0 0 -1
    outer loop
      vertex 3.53553 3.53553 0
      vertex 9.30369 6.75953 0
      vertex 4.6194 1.91342 0
    endloop
  endfacet
  facet normal 0 0 -1
    outer loop
      vertex 11.2487 -2.39098 0
      vertex 4.6194 -1.91342 0
      vertex 5 0 0
    endloop
  endfacet
  facet normal 0 0 -1
    outer loop
      vertex 1.91342 -4.6194 0
      vertex 5.75 -9.95929 0
      vertex 3.55369 -10.9371 0
    endloop
  endfacet
  facet normal 0 0 -1
    outer loop
      vertex 9.30369 -6.75953 0
      vertex 3.53553 -3.53553 0
      vertex 4.6194 -1.91342 0
    endloop
  endfacet
  facet normal 0 0 -1
    outer loop
      vertex 5.75 -9.95929 0
      vertex 1.91342 -4.6194 0
      vertex 3.53553 -3.53553 0
    endloop
  endfacet
  facet normal 0 0 -1
    outer loop
      vertex 1.20208 -11.437 0
      vertex 1.91342 -4.6194 0
      vertex 3.55369 -10.9371 0
    endloop
  endfacet
  facet normal 0 0 -1
    outer loop
      vertex 1.20208 -11.437 0
      vertex 0 -5 0
      vertex 1.91342 -4.6194 0
    endloop
  endfacet
  facet normal 0 0 -1
    outer loop
      vertex -1.20208 -11.437 0
      vertex 0 -5 0
      vertex 1.20208 -11.437 0
    endloop
  endfacet
  facet normal 0 0 -1
    outer loop
      vertex -1.20208 -11.437 0
      vertex -1.91342 -4.6194 0
      vertex 0 -5 0
    endloop
  endfacet
  facet normal 0 0 -1
    outer loop
      vertex -3.55369 -10.9371 0
      vertex -1.91342 -4.6194 0
      vertex -1.20208 -11.437 0
    endloop
  endfacet
  facet normal 0 0 -1
    outer loop
      vertex -5.75 -9.95929 0
      vertex -1.91342 -4.6194 0
      vertex -3.55369 -10.9371 0
    endloop
  endfacet
  facet normal -0 0 -1
    outer loop
      vertex -1.91342 -4.6194 0
      vertex -5.75 -9.95929 0
      vertex -3.53553 -3.53553 0
    endloop
  endfacet
  facet normal 0 0 -1
    outer loop
      vertex -7.695 -8.54617 0
      vertex -3.53553 -3.53553 0
      vertex -5.75 -9.95929 0
    endloop
  endfacet
  facet normal 0 0 -1
    outer loop
      vertex -9.30369 -6.75953 0
      vertex -3.53553 -3.53553 0
      vertex -7.695 -8.54617 0
    endloop
  endfacet
  facet normal -0 0 -1
    outer loop
      vertex -3.53553 -3.53553 0
      vertex -9.30369 -6.75953 0
      vertex -4.6194 -1.91342 0
    endloop
  endfacet
  facet normal 0 0 -1
    outer loop
      vertex -10.5058 -4.67747 0
      vertex -4.6194 -1.91342 0
      vertex -9.30369 -6.75953 0
    endloop
  endfacet
  facet normal 0 0 -1
    outer loop
      vertex -5 0 0
      vertex -7.695 8.54617 0
      vertex -5.75 9.95929 0
    endloop
  endfacet
  facet normal 0 0 -1
    outer loop
      vertex -11.2487 -2.39098 0
      vertex -4.6194 -1.91342 0
      vertex -10.5058 -4.67747 0
    endloop
  endfacet
  facet normal 0 0 -1
    outer loop
      vertex -5 0 0
      vertex -9.30369 6.75953 0
      vertex -7.695 8.54617 0
    endloop
  endfacet
  facet normal -0 0 -1
    outer loop
      vertex -4.6194 -1.91342 0
      vertex -11.2487 -2.39098 0
      vertex -5 0 0
    endloop
  endfacet
  facet normal 0 0 -1
    outer loop
      vertex -5 0 0
      vertex -10.5058 4.67747 0
      vertex -9.30369 6.75953 0
    endloop
  endfacet
  facet normal 0 0 -1
    outer loop
      vertex -11.5 0 0
      vertex -5 0 0
      vertex -11.2487 -2.39098 0
    endloop
  endfacet
  facet normal 0 0 -1
    outer loop
      vertex -5 0 0
      vertex -11.2487 2.39098 0
      vertex -10.5058 4.67747 0
    endloop
  endfacet
  facet normal 0 0 -1
    outer loop
      vertex -5 0 0
      vertex -11.5 0 0
      vertex -11.2487 2.39098 0
    endloop
  endfacet
  facet normal -0 0 -1
    outer loop
      vertex 9.30369 6.75953 0
      vertex 3.53553 3.53553 0
      vertex 7.695 8.54617 0
    endloop
  endfacet
  facet normal -0 0 -1
    outer loop
      vertex 7.695 8.54617 0
      vertex 3.53553 3.53553 0
      vertex 5.75 9.95929 0
    endloop
  endfacet
  facet normal 0 0 -1
    outer loop
      vertex 1.91342 4.6194 0
      vertex 5.75 9.95929 0
      vertex 3.53553 3.53553 0
    endloop
  endfacet
  facet normal -0 0 -1
    outer loop
      vertex 5.75 9.95929 0
      vertex 1.91342 4.6194 0
      vertex 3.55369 10.9371 0
    endloop
  endfacet
  facet normal 0 0 -1
    outer loop
      vertex 1.91342 4.6194 0
      vertex 1.20208 11.437 0
      vertex 3.55369 10.9371 0
    endloop
  endfacet
  facet normal 0 0 -1
    outer loop
      vertex 0 5 0
      vertex 1.20208 11.437 0
      vertex 1.91342 4.6194 0
    endloop
  endfacet
  facet normal 0 0 -1
    outer loop
      vertex 0 5 0
      vertex -1.20208 11.437 0
      vertex 1.20208 11.437 0
    endloop
  endfacet
  facet normal 0 0 -1
    outer loop
      vertex -1.91342 4.6194 0
      vertex -1.20208 11.437 0
      vertex 0 5 0
    endloop
  endfacet
  facet normal 0 0 -1
    outer loop
      vertex -5.75 9.95929 0
      vertex -1.91342 4.6194 0
      vertex -3.53553 3.53553 0
    endloop
  endfacet
  facet normal 0 0 -1
    outer loop
      vertex -1.91342 4.6194 0
      vertex -3.55369 10.9371 0
      vertex -1.20208 11.437 0
    endloop
  endfacet
  facet normal 0 0 -1
    outer loop
      vertex -5.75 9.95929 0
      vertex -3.53553 3.53553 0
      vertex -4.6194 1.91342 0
    endloop
  endfacet
  facet normal 0 0 -1
    outer loop
      vertex -5.75 9.95929 0
      vertex -4.6194 1.91342 0
      vertex -5 0 0
    endloop
  endfacet
  facet normal 0 0 -1
    outer loop
      vertex -1.91342 4.6194 0
      vertex -5.75 9.95929 0
      vertex -3.55369 10.9371 0
    endloop
  endfacet
  facet normal 0.406736 -0.913546 0
    outer loop
      vertex 3.55369 -10.9371 0
      vertex 5.75 -9.95929 8
      vertex 3.55369 -10.9371 8
    endloop
  endfacet
  facet normal 0.406736 -0.913546 0
    outer loop
      vertex 5.75 -9.95929 8
      vertex 3.55369 -10.9371 0
      vertex 5.75 -9.95929 0
    endloop
  endfacet
  facet normal -0.980785 -0.195091 0
    outer loop
      vertex 5 0 0
      vertex 4.6194 1.91342 8
      vertex 4.6194 1.91342 0
    endloop
  endfacet
  facet normal -0.980785 -0.195091 0
    outer loop
      vertex 4.6194 1.91342 8
      vertex 5 0 0
      vertex 5 0 8
    endloop
  endfacet
  facet normal 0.980785 -0.195091 0
    outer loop
      vertex -5 0 8
      vertex -4.6194 1.91342 0
      vertex -4.6194 1.91342 8
    endloop
  endfacet
  facet normal 0.980785 -0.195091 0
    outer loop
      vertex -4.6194 1.91342 0
      vertex -5 0 8
      vertex -5 0 0
    endloop
  endfacet
  facet normal -0.195091 -0.980785 0
    outer loop
      vertex 0 5 0
      vertex 1.91342 4.6194 8
      vertex 0 5 8
    endloop
  endfacet
  facet normal -0.195091 -0.980785 -0
    outer loop
      vertex 1.91342 4.6194 8
      vertex 0 5 0
      vertex 1.91342 4.6194 0
    endloop
  endfacet
  facet normal -0.83147 -0.55557 0
    outer loop
      vertex 4.6194 1.91342 0
      vertex 3.53553 3.53553 8
      vertex 3.53553 3.53553 0
    endloop
  endfacet
  facet normal -0.83147 -0.55557 0
    outer loop
      vertex 3.53553 3.53553 8
      vertex 4.6194 1.91342 0
      vertex 4.6194 1.91342 8
    endloop
  endfacet
  facet normal 0.195091 0.980785 -0
    outer loop
      vertex 0 -5 0
      vertex -1.91342 -4.6194 8
      vertex 0 -5 8
    endloop
  endfacet
  facet normal 0.195091 0.980785 0
    outer loop
      vertex -1.91342 -4.6194 8
      vertex 0 -5 0
      vertex -1.91342 -4.6194 0
    endloop
  endfacet
  facet normal -0.55557 -0.83147 0
    outer loop
      vertex 1.91342 4.6194 0
      vertex 3.53553 3.53553 8
      vertex 1.91342 4.6194 8
    endloop
  endfacet
  facet normal -0.55557 -0.83147 -0
    outer loop
      vertex 3.53553 3.53553 8
      vertex 1.91342 4.6194 0
      vertex 3.53553 3.53553 0
    endloop
  endfacet
  facet normal 0.55557 -0.83147 0
    outer loop
      vertex -3.53553 3.53553 0
      vertex -1.91342 4.6194 8
      vertex -3.53553 3.53553 8
    endloop
  endfacet
  facet normal 0.55557 -0.83147 0
    outer loop
      vertex -1.91342 4.6194 8
      vertex -3.53553 3.53553 0
      vertex -1.91342 4.6194 0
    endloop
  endfacet
  facet normal 0.83147 -0.55557 0
    outer loop
      vertex -4.6194 1.91342 8
      vertex -3.53553 3.53553 0
      vertex -3.53553 3.53553 8
    endloop
  endfacet
  facet normal 0.83147 -0.55557 0
    outer loop
      vertex -3.53553 3.53553 0
      vertex -4.6194 1.91342 8
      vertex -4.6194 1.91342 0
    endloop
  endfacet
  facet normal 0.195091 -0.980785 0
    outer loop
      vertex -1.91342 4.6194 0
      vertex 0 5 8
      vertex -1.91342 4.6194 8
    endloop
  endfacet
  facet normal 0.195091 -0.980785 0
    outer loop
      vertex 0 5 8
      vertex -1.91342 4.6194 0
      vertex 0 5 0
    endloop
  endfacet
  facet normal 0.55557 0.83147 -0
    outer loop
      vertex -1.91342 -4.6194 0
      vertex -3.53553 -3.53553 8
      vertex -1.91342 -4.6194 8
    endloop
  endfacet
  facet normal 0.55557 0.83147 0
    outer loop
      vertex -3.53553 -3.53553 8
      vertex -1.91342 -4.6194 0
      vertex -3.53553 -3.53553 0
    endloop
  endfacet
  facet normal 0.980785 0.195091 0
    outer loop
      vertex -4.6194 -1.91342 8
      vertex -5 0 0
      vertex -5 0 8
    endloop
  endfacet
  facet normal 0.980785 0.195091 0
    outer loop
      vertex -5 0 0
      vertex -4.6194 -1.91342 8
      vertex -4.6194 -1.91342 0
    endloop
  endfacet
  facet normal -0.55557 0.83147 0
    outer loop
      vertex 3.53553 -3.53553 0
      vertex 1.91342 -4.6194 8
      vertex 3.53553 -3.53553 8
    endloop
  endfacet
  facet normal -0.55557 0.83147 0
    outer loop
      vertex 1.91342 -4.6194 8
      vertex 3.53553 -3.53553 0
      vertex 1.91342 -4.6194 0
    endloop
  endfacet
  facet normal -0.195091 0.980785 0
    outer loop
      vertex 1.91342 -4.6194 0
      vertex 0 -5 8
      vertex 1.91342 -4.6194 8
    endloop
  endfacet
  facet normal -0.195091 0.980785 0
    outer loop
      vertex 0 -5 8
      vertex 1.91342 -4.6194 0
      vertex 0 -5 0
    endloop
  endfacet
  facet normal -0.83147 0.55557 0
    outer loop
      vertex 3.53553 -3.53553 0
      vertex 4.6194 -1.91342 8
      vertex 4.6194 -1.91342 0
    endloop
  endfacet
  facet normal -0.83147 0.55557 0
    outer loop
      vertex 4.6194 -1.91342 8
      vertex 3.53553 -3.53553 0
      vertex 3.53553 -3.53553 8
    endloop
  endfacet
  facet normal 0.83147 0.55557 0
    outer loop
      vertex -3.53553 -3.53553 8
      vertex -4.6194 -1.91342 0
      vertex -4.6194 -1.91342 8
    endloop
  endfacet
  facet normal 0.83147 0.55557 0
    outer loop
      vertex -4.6194 -1.91342 0
      vertex -3.53553 -3.53553 8
      vertex -3.53553 -3.53553 0
    endloop
  endfacet
  facet normal -0.980785 0.195091 0
    outer loop
      vertex 4.6194 -1.91342 0
      vertex 5 0 8
      vertex 5 0 0
    endloop
  endfacet
  facet normal -0.980785 0.195091 0
    outer loop
      vertex 5 0 8
      vertex 4.6194 -1.91342 0
      vertex 4.6194 -1.91342 8
    endloop
  endfacet
endsolid OpenSCAD_Model
