solid OpenSCAD_Model
  facet normal -1 0 0
    outer loop
      vertex -2.73779 20 0
      vertex -2.73779 5.61934 0.5
      vertex -2.73779 20 3
    endloop
  endfacet
  facet normal -1 0 0
    outer loop
      vertex -2.73779 0 0
      vertex -2.73779 5.61934 0.5
      vertex -2.73779 20 0
    endloop
  endfacet
  facet normal -1 -0 0
    outer loop
      vertex -2.73779 5.61934 0.5
      vertex -2.73779 0 0
      vertex -2.73779 1.88066 0.5
    endloop
  endfacet
  facet normal -1 0 0
    outer loop
      vertex -2.73779 0 2
      vertex -2.73779 1.88066 0.5
      vertex -2.73779 0 0
    endloop
  endfacet
  facet normal -1 0 0
    outer loop
      vertex -2.73779 1.88066 0.5
      vertex -2.73779 0 2
      vertex -2.73779 1.88066 2.50151
    endloop
  endfacet
  facet normal -1 -0 0
    outer loop
      vertex -2.73779 20 3
      vertex -2.73779 5.61934 0.5
      vertex -2.73779 5.61934 3
    endloop
  endfacet
  facet normal -0 0 1
    outer loop
      vertex -3.75 42 3
      vertex -1.75 33 3
      vertex -1.75 42 3
    endloop
  endfacet
  facet normal 0 0 1
    outer loop
      vertex -1.75 33 3
      vertex -3.75 42 3
      vertex -3.75 30 3
    endloop
  endfacet
  facet normal 0 0 1
    outer loop
      vertex -1.75 33 3
      vertex -3.75 30 3
      vertex -2.73779 20 3
    endloop
  endfacet
  facet normal -0 0 1
    outer loop
      vertex 1.75 33 3
      vertex 3.75 30 3
      vertex 3.75 42 3
    endloop
  endfacet
  facet normal 0 0 1
    outer loop
      vertex 1.75 33 3
      vertex 3.75 42 3
      vertex 1.75 42 3
    endloop
  endfacet
  facet normal -0 0 1
    outer loop
      vertex -1.75 33 3
      vertex 3.75 30 3
      vertex 1.75 33 3
    endloop
  endfacet
  facet normal 0 0 1
    outer loop
      vertex 3.75 30 3
      vertex -2.73779 20 3
      vertex 2.73779 20 3
    endloop
  endfacet
  facet normal 0 -0 1
    outer loop
      vertex 0 7.2 3
      vertex 2.73779 20 3
      vertex -2.73779 20 3
    endloop
  endfacet
  facet normal 0 0 1
    outer loop
      vertex 3.75 30 3
      vertex -1.75 33 3
      vertex -2.73779 20 3
    endloop
  endfacet
  facet normal 0 0 1
    outer loop
      vertex 2.73779 20 3
      vertex 0 7.2 3
      vertex 2.73779 5.61934 3
    endloop
  endfacet
  facet normal 0 0 1
    outer loop
      vertex 0 7.2 3
      vertex -2.73779 20 3
      vertex -2.73779 5.61934 3
    endloop
  endfacet
  facet normal 0 -1 0
    outer loop
      vertex -2.73779 0 0
      vertex 2.73779 0 2
      vertex -2.73779 0 2
    endloop
  endfacet
  facet normal 0 -1 -0
    outer loop
      vertex 2.73779 0 2
      vertex -2.73779 0 0
      vertex 2.73779 0 0
    endloop
  endfacet
  facet normal 0 0 -1
    outer loop
      vertex -2.73779 20 0
      vertex 2.73779 20 0
      vertex 2.73779 0 0
    endloop
  endfacet
  facet normal 0 0 -1
    outer loop
      vertex -2.75 30 0
      vertex 2.73779 20 0
      vertex -2.73779 20 0
    endloop
  endfacet
  facet normal 0 0 -1
    outer loop
      vertex -2.73779 20 0
      vertex 2.73779 0 0
      vertex -2.73779 0 0
    endloop
  endfacet
  facet normal 0 0 -1
    outer loop
      vertex 2.73779 20 0
      vertex -2.75 30 0
      vertex 1.75 33 0
    endloop
  endfacet
  facet normal -0 0 -1
    outer loop
      vertex 1.75 33 0
      vertex -2.75 30 0
      vertex -1.75 33 0
    endloop
  endfacet
  facet normal 0 0 -1
    outer loop
      vertex -2.75 42 0
      vertex -1.75 33 0
      vertex -2.75 30 0
    endloop
  endfacet
  facet normal 0 0 -1
    outer loop
      vertex -1.75 33 0
      vertex -2.75 42 0
      vertex -1.75 42 0
    endloop
  endfacet
  facet normal 0 0 -1
    outer loop
      vertex 1.75 33 0
      vertex 2.75 30 0
      vertex 2.73779 20 0
    endloop
  endfacet
  facet normal 0 0 -1
    outer loop
      vertex 2.75 30 0
      vertex 1.75 33 0
      vertex 2.75 42 0
    endloop
  endfacet
  facet normal -0 0 -1
    outer loop
      vertex 2.75 42 0
      vertex 1.75 33 0
      vertex 1.75 42 0
    endloop
  endfacet
  facet normal 1 0 0
    outer loop
      vertex 2.73779 1.88066 2.50151
      vertex 2.73779 0 2
      vertex 2.73779 1.88066 0.5
    endloop
  endfacet
  facet normal 1 0 0
    outer loop
      vertex 2.73779 5.61934 0.5
      vertex 2.73779 20 3
      vertex 2.73779 5.61934 3
    endloop
  endfacet
  facet normal 1 0 0
    outer loop
      vertex 2.73779 20 3
      vertex 2.73779 5.61934 0.5
      vertex 2.73779 20 0
    endloop
  endfacet
  facet normal 1 0 0
    outer loop
      vertex 2.73779 0 0
      vertex 2.73779 5.61934 0.5
      vertex 2.73779 1.88066 0.5
    endloop
  endfacet
  facet normal 1 0 0
    outer loop
      vertex 2.73779 5.61934 0.5
      vertex 2.73779 0 0
      vertex 2.73779 20 0
    endloop
  endfacet
  facet normal 1 0 0
    outer loop
      vertex 2.73779 0 0
      vertex 2.73779 1.88066 0.5
      vertex 2.73779 0 2
    endloop
  endfacet
  facet normal 0.994916 -0.100707 0
    outer loop
      vertex 2.73779 20 3
      vertex 3.75 30 2
      vertex 3.75 30 3
    endloop
  endfacet
  facet normal 0.994916 -0.100707 0
    outer loop
      vertex 3.75 30 2
      vertex 2.73779 20 3
      vertex 2.73779 20 0
    endloop
  endfacet
  facet normal 1 0 0
    outer loop
      vertex 3.75 42 3
      vertex 3.75 41.4 2
      vertex 3.75 42 2.5
    endloop
  endfacet
  facet normal 1 -0 0
    outer loop
      vertex 3.75 30 3
      vertex 3.75 41.4 2
      vertex 3.75 42 3
    endloop
  endfacet
  facet normal 1 0 0
    outer loop
      vertex 3.75 41.4 2
      vertex 3.75 30 3
      vertex 3.75 30 2
    endloop
  endfacet
  facet normal -0.994916 -0.100707 -0
    outer loop
      vertex -2.73779 20 3
      vertex -3.75 30 2
      vertex -2.73779 20 0
    endloop
  endfacet
  facet normal -0.994916 -0.100707 0
    outer loop
      vertex -3.75 30 2
      vertex -2.73779 20 3
      vertex -3.75 30 3
    endloop
  endfacet
  facet normal 0.894427 0 -0.447214
    outer loop
      vertex 3.375 40.5 1.25
      vertex 3.75 30 2
      vertex 3.125 40.5 0.75
    endloop
  endfacet
  facet normal 0.894427 0 -0.447214
    outer loop
      vertex 3.75 30 2
      vertex 3.375 40.5 1.25
      vertex 3.75 41.4 2
    endloop
  endfacet
  facet normal 0.894427 0 -0.447214
    outer loop
      vertex 3.125 40.5 0.75
      vertex 2.75 42 0
      vertex 3 42 0.5
    endloop
  endfacet
  facet normal 0.894427 0 -0.447214
    outer loop
      vertex 2.75 30 0
      vertex 3.125 40.5 0.75
      vertex 3.75 30 2
    endloop
  endfacet
  facet normal 0.894427 0 -0.447214
    outer loop
      vertex 3.125 40.5 0.75
      vertex 2.75 30 0
      vertex 2.75 42 0
    endloop
  endfacet
  facet normal 0.894427 -0.00109234 -0.447213
    outer loop
      vertex 3.75 30 2
      vertex 2.73779 20 0
      vertex 2.75 30 0
    endloop
  endfacet
  facet normal -0.894427 -0.00109234 -0.447213
    outer loop
      vertex -2.73779 20 0
      vertex -3.75 30 2
      vertex -2.75 30 0
    endloop
  endfacet
  facet normal -0.894427 0 -0.447214
    outer loop
      vertex -2.75 42 0
      vertex -3.125 40.5 0.75
      vertex -3 42 0.5
    endloop
  endfacet
  facet normal -0.894427 0 -0.447214
    outer loop
      vertex -3.125 40.5 0.75
      vertex -2.75 30 0
      vertex -3.375 40.5 1.25
    endloop
  endfacet
  facet normal -0.894427 0 -0.447214
    outer loop
      vertex -2.75 30 0
      vertex -3.125 40.5 0.75
      vertex -2.75 42 0
    endloop
  endfacet
  facet normal -0.894427 0 -0.447214
    outer loop
      vertex -3.75 30 2
      vertex -3.375 40.5 1.25
      vertex -2.75 30 0
    endloop
  endfacet
  facet normal -0.894427 0 -0.447214
    outer loop
      vertex -3.375 40.5 1.25
      vertex -3.75 30 2
      vertex -3.75 41.4 2
    endloop
  endfacet
  facet normal -1 0 0
    outer loop
      vertex -3.75 41.4 2
      vertex -3.75 42 3
      vertex -3.75 42 2.5
    endloop
  endfacet
  facet normal -1 0 0
    outer loop
      vertex -3.75 30 3
      vertex -3.75 41.4 2
      vertex -3.75 30 2
    endloop
  endfacet
  facet normal -1 0 0
    outer loop
      vertex -3.75 41.4 2
      vertex -3.75 30 3
      vertex -3.75 42 3
    endloop
  endfacet
  facet normal 0 1 -0
    outer loop
      vertex -1.75 42 2.5
      vertex -3.75 42 3
      vertex -1.75 42 3
    endloop
  endfacet
  facet normal 0 1 0
    outer loop
      vertex -3.75 42 3
      vertex -1.75 42 2.5
      vertex -3.75 42 2.5
    endloop
  endfacet
  facet normal 0 1 0
    outer loop
      vertex -2.75 42 0
      vertex -1.75 42 0.5
      vertex -1.75 42 0
    endloop
  endfacet
  facet normal 0 1 0
    outer loop
      vertex -1.75 42 0.5
      vertex -2.75 42 0
      vertex -3 42 0.5
    endloop
  endfacet
  facet normal 0 1 -0
    outer loop
      vertex 2.75 42 0
      vertex 1.75 42 0.5
      vertex 3 42 0.5
    endloop
  endfacet
  facet normal 0 1 0
    outer loop
      vertex 1.75 42 0.5
      vertex 2.75 42 0
      vertex 1.75 42 0
    endloop
  endfacet
  facet normal 0 1 -0
    outer loop
      vertex 3.75 42 2.5
      vertex 1.75 42 3
      vertex 3.75 42 3
    endloop
  endfacet
  facet normal 0 1 0
    outer loop
      vertex 1.75 42 3
      vertex 3.75 42 2.5
      vertex 1.75 42 2.5
    endloop
  endfacet
  facet normal -0.5 -0.866025 0
    outer loop
      vertex 0 7.2 0.5
      vertex 2.73779 5.61934 3
      vertex 0 7.2 3
    endloop
  endfacet
  facet normal -0.5 -0.866025 -0
    outer loop
      vertex 2.73779 5.61934 3
      vertex 0 7.2 0.5
      vertex 2.73779 5.61934 0.5
    endloop
  endfacet
  facet normal 0.5 -0.866025 0
    outer loop
      vertex -2.73779 5.61934 0.5
      vertex 0 7.2 3
      vertex -2.73779 5.61934 3
    endloop
  endfacet
  facet normal 0.5 -0.866025 0
    outer loop
      vertex 0 7.2 3
      vertex -2.73779 5.61934 0.5
      vertex 0 7.2 0.5
    endloop
  endfacet
  facet normal 0 0 1
    outer loop
      vertex -2.73779 5.61934 0.5
      vertex 2.73779 5.61934 0.5
      vertex 0 7.2 0.5
    endloop
  endfacet
  facet normal 0 0 1
    outer loop
      vertex 2.73779 5.61934 0.5
      vertex -2.73779 5.61934 0.5
      vertex 2.73779 1.88066 0.5
    endloop
  endfacet
  facet normal 0 0 1
    outer loop
      vertex -2.73779 1.88066 0.5
      vertex 2.73779 1.88066 0.5
      vertex -2.73779 5.61934 0.5
    endloop
  endfacet
  facet normal 0 0 1
    outer loop
      vertex 2.73779 1.88066 0.5
      vertex -2.73779 1.88066 0.5
      vertex 0 0.299999 0.5
    endloop
  endfacet
  facet normal -0.5 0.866025 0
    outer loop
      vertex 2.73779 1.88066 0.5
      vertex 0 0.299999 2.08
      vertex 2.73779 1.88066 2.50151
    endloop
  endfacet
  facet normal -0.5 0.866025 0
    outer loop
      vertex 0 0.299999 2.08
      vertex 2.73779 1.88066 0.5
      vertex 0 0.299999 0.5
    endloop
  endfacet
  facet normal 0.5 0.866025 0
    outer loop
      vertex -2.73779 1.88066 0.5
      vertex 0 0.299999 2.08
      vertex 0 0.299999 0.5
    endloop
  endfacet
  facet normal 0.5 0.866025 0
    outer loop
      vertex 0 0.299999 2.08
      vertex -2.73779 1.88066 0.5
      vertex -2.73779 1.88066 2.50151
    endloop
  endfacet
  facet normal -4.19517e-008 -0.257663 0.966235
    outer loop
      vertex 0 0.299999 2.08
      vertex 2.73779 0 2
      vertex 2.73779 1.88066 2.50151
    endloop
  endfacet
  facet normal 0 -0.257662 0.966235
    outer loop
      vertex 0 0.299999 2.08
      vertex -2.73779 0 2
      vertex 2.73779 0 2
    endloop
  endfacet
  facet normal 4.19517e-008 -0.257663 0.966235
    outer loop
      vertex -2.73779 0 2
      vertex 0 0.299999 2.08
      vertex -2.73779 1.88066 2.50151
    endloop
  endfacet
  facet normal 1 0 0
    outer loop
      vertex -1.75 42 3
      vertex -1.75 40.5 1.25
      vertex -1.75 42 2.5
    endloop
  endfacet
  facet normal 1 0 0
    outer loop
      vertex -1.75 33 0
      vertex -1.75 40.5 1.25
      vertex -1.75 33 3
    endloop
  endfacet
  facet normal 1 -0 0
    outer loop
      vertex -1.75 33 3
      vertex -1.75 40.5 1.25
      vertex -1.75 42 3
    endloop
  endfacet
  facet normal 1 0 0
    outer loop
      vertex -1.75 40.5 0.75
      vertex -1.75 42 0
      vertex -1.75 42 0.5
    endloop
  endfacet
  facet normal 1 0 0
    outer loop
      vertex -1.75 40.5 1.25
      vertex -1.75 33 0
      vertex -1.75 40.5 0.75
    endloop
  endfacet
  facet normal 1 0 0
    outer loop
      vertex -1.75 40.5 0.75
      vertex -1.75 33 0
      vertex -1.75 42 0
    endloop
  endfacet
  facet normal -1 0 0
    outer loop
      vertex 1.75 42 0
      vertex 1.75 40.5 0.75
      vertex 1.75 42 0.5
    endloop
  endfacet
  facet normal -1 -0 0
    outer loop
      vertex 1.75 40.5 0.75
      vertex 1.75 33 0
      vertex 1.75 40.5 1.25
    endloop
  endfacet
  facet normal -1 0 0
    outer loop
      vertex 1.75 33 0
      vertex 1.75 40.5 0.75
      vertex 1.75 42 0
    endloop
  endfacet
  facet normal -1 0 0
    outer loop
      vertex 1.75 40.5 1.25
      vertex 1.75 42 3
      vertex 1.75 42 2.5
    endloop
  endfacet
  facet normal -1 0 0
    outer loop
      vertex 1.75 33 3
      vertex 1.75 40.5 1.25
      vertex 1.75 33 0
    endloop
  endfacet
  facet normal -1 0 0
    outer loop
      vertex 1.75 40.5 1.25
      vertex 1.75 33 3
      vertex 1.75 42 3
    endloop
  endfacet
  facet normal 0 1 -0
    outer loop
      vertex 1.75 33 0
      vertex -1.75 33 3
      vertex 1.75 33 3
    endloop
  endfacet
  facet normal 0 1 0
    outer loop
      vertex -1.75 33 3
      vertex 1.75 33 0
      vertex -1.75 33 0
    endloop
  endfacet
  facet normal 0 0.640184 -0.768221
    outer loop
      vertex -3.375 40.5 1.25
      vertex -1.75 42 2.5
      vertex -1.75 40.5 1.25
    endloop
  endfacet
  facet normal 7.23588e-007 0.640184 -0.768222
    outer loop
      vertex -3.75 41.4 2
      vertex -1.75 42 2.5
      vertex -3.375 40.5 1.25
    endloop
  endfacet
  facet normal 0 0.640185 -0.76822
    outer loop
      vertex -1.75 42 2.5
      vertex -3.75 41.4 2
      vertex -3.75 42 2.5
    endloop
  endfacet
  facet normal -7.23588e-007 0.640184 -0.768222
    outer loop
      vertex 1.75 42 2.5
      vertex 3.75 41.4 2
      vertex 3.375 40.5 1.25
    endloop
  endfacet
  facet normal 0 0.640184 -0.768221
    outer loop
      vertex 1.75 42 2.5
      vertex 3.375 40.5 1.25
      vertex 1.75 40.5 1.25
    endloop
  endfacet
  facet normal 0 0.640185 -0.76822
    outer loop
      vertex 3.75 41.4 2
      vertex 1.75 42 2.5
      vertex 3.75 42 2.5
    endloop
  endfacet
  facet normal 0 1 0
    outer loop
      vertex -3.125 40.5 0.75
      vertex -1.75 40.5 1.25
      vertex -1.75 40.5 0.75
    endloop
  endfacet
  facet normal 0 1 0
    outer loop
      vertex -1.75 40.5 1.25
      vertex -3.125 40.5 0.75
      vertex -3.375 40.5 1.25
    endloop
  endfacet
  facet normal 0 1 -0
    outer loop
      vertex 3.125 40.5 0.75
      vertex 1.75 40.5 1.25
      vertex 3.375 40.5 1.25
    endloop
  endfacet
  facet normal 0 1 0
    outer loop
      vertex 1.75 40.5 1.25
      vertex 3.125 40.5 0.75
      vertex 1.75 40.5 0.75
    endloop
  endfacet
  facet normal -0 0.164399 0.986394
    outer loop
      vertex -3 42 0.5
      vertex -1.75 40.5 0.75
      vertex -1.75 42 0.5
    endloop
  endfacet
  facet normal 0 0.164399 0.986394
    outer loop
      vertex -1.75 40.5 0.75
      vertex -3 42 0.5
      vertex -3.125 40.5 0.75
    endloop
  endfacet
  facet normal 0 0.164399 0.986394
    outer loop
      vertex 1.75 40.5 0.75
      vertex 3 42 0.5
      vertex 1.75 42 0.5
    endloop
  endfacet
  facet normal 0 0.164399 0.986394
    outer loop
      vertex 3 42 0.5
      vertex 1.75 40.5 0.75
      vertex 3.125 40.5 0.75
    endloop
  endfacet
endsolid OpenSCAD_Model
