solid OpenSCAD_Model
  facet normal -1 0 0
    outer loop
      vertex -2.73779 52 0
      vertex -2.73779 50.5 0.75
      vertex -2.73779 52 0.5
    endloop
  endfacet
  facet normal -1 -0 0
    outer loop
      vertex -2.73779 50.5 0.75
      vertex -2.73779 5.61934 0.5
      vertex -2.73779 50.5 1.25
    endloop
  endfacet
  facet normal -1 0 0
    outer loop
      vertex -2.73779 52 0
      vertex -2.73779 5.61934 0.5
      vertex -2.73779 50.5 0.75
    endloop
  endfacet
  facet normal -1 0 0
    outer loop
      vertex -2.73779 0 0
      vertex -2.73779 5.61934 0.5
      vertex -2.73779 52 0
    endloop
  endfacet
  facet normal -1 -0 0
    outer loop
      vertex -2.73779 5.61934 0.5
      vertex -2.73779 0 0
      vertex -2.73779 1.88066 0.5
    endloop
  endfacet
  facet normal -1 0 0
    outer loop
      vertex -2.73779 0 2
      vertex -2.73779 1.88066 0.5
      vertex -2.73779 0 0
    endloop
  endfacet
  facet normal -1 0 0
    outer loop
      vertex -2.73779 1.88066 0.5
      vertex -2.73779 0 2
      vertex -2.73779 1.88066 2.50151
    endloop
  endfacet
  facet normal -1 0 0
    outer loop
      vertex -2.73779 50.5 1.25
      vertex -2.73779 52 3
      vertex -2.73779 52 2.5
    endloop
  endfacet
  facet normal -1 0 0
    outer loop
      vertex -2.73779 5.61934 3
      vertex -2.73779 50.5 1.25
      vertex -2.73779 5.61934 0.5
    endloop
  endfacet
  facet normal -1 0 0
    outer loop
      vertex -2.73779 50.5 1.25
      vertex -2.73779 5.61934 3
      vertex -2.73779 52 3
    endloop
  endfacet
  facet normal 0 0 1
    outer loop
      vertex -1.25 52 3
      vertex -2.73779 52 3
      vertex -1.25 45 3
    endloop
  endfacet
  facet normal 0 0 1
    outer loop
      vertex 1.25 45 3
      vertex 2.73779 52 3
      vertex 1.25 52 3
    endloop
  endfacet
  facet normal 0 0 1
    outer loop
      vertex 2.73779 52 3
      vertex 1.25 45 3
      vertex 2.73779 5.61934 3
    endloop
  endfacet
  facet normal 0 0 1
    outer loop
      vertex 1.25 45 3
      vertex 0 7.2 3
      vertex 2.73779 5.61934 3
    endloop
  endfacet
  facet normal -0 0 1
    outer loop
      vertex -1.25 45 3
      vertex 0 7.2 3
      vertex 1.25 45 3
    endloop
  endfacet
  facet normal 0 0 1
    outer loop
      vertex -2.73779 5.61934 3
      vertex -1.25 45 3
      vertex -2.73779 52 3
    endloop
  endfacet
  facet normal 0 0 1
    outer loop
      vertex -1.25 45 3
      vertex -2.73779 5.61934 3
      vertex 0 7.2 3
    endloop
  endfacet
  facet normal 1 0 0
    outer loop
      vertex 2.73779 1.88066 2.50151
      vertex 2.73779 0 2
      vertex 2.73779 1.88066 0.5
    endloop
  endfacet
  facet normal 1 0 0
    outer loop
      vertex 2.73779 52 3
      vertex 2.73779 50.5 1.25
      vertex 2.73779 52 2.5
    endloop
  endfacet
  facet normal 1 0 0
    outer loop
      vertex 2.73779 5.61934 0.5
      vertex 2.73779 50.5 1.25
      vertex 2.73779 5.61934 3
    endloop
  endfacet
  facet normal 1 -0 0
    outer loop
      vertex 2.73779 5.61934 3
      vertex 2.73779 50.5 1.25
      vertex 2.73779 52 3
    endloop
  endfacet
  facet normal 1 0 0
    outer loop
      vertex 2.73779 50.5 0.75
      vertex 2.73779 52 0
      vertex 2.73779 52 0.5
    endloop
  endfacet
  facet normal 1 0 0
    outer loop
      vertex 2.73779 50.5 1.25
      vertex 2.73779 5.61934 0.5
      vertex 2.73779 50.5 0.75
    endloop
  endfacet
  facet normal 1 0 0
    outer loop
      vertex 2.73779 50.5 0.75
      vertex 2.73779 5.61934 0.5
      vertex 2.73779 52 0
    endloop
  endfacet
  facet normal 1 0 0
    outer loop
      vertex 2.73779 0 0
      vertex 2.73779 5.61934 0.5
      vertex 2.73779 1.88066 0.5
    endloop
  endfacet
  facet normal 1 0 0
    outer loop
      vertex 2.73779 5.61934 0.5
      vertex 2.73779 0 0
      vertex 2.73779 52 0
    endloop
  endfacet
  facet normal 1 0 0
    outer loop
      vertex 2.73779 0 0
      vertex 2.73779 1.88066 0.5
      vertex 2.73779 0 2
    endloop
  endfacet
  facet normal 0 1 -0
    outer loop
      vertex 2.73779 52 2.5
      vertex 1.25 52 3
      vertex 2.73779 52 3
    endloop
  endfacet
  facet normal 0 1 0
    outer loop
      vertex 1.25 52 3
      vertex 2.73779 52 2.5
      vertex 1.25 52 2.5
    endloop
  endfacet
  facet normal 0 1 -0
    outer loop
      vertex -1.25 52 0
      vertex -2.73779 52 0.5
      vertex -1.25 52 0.5
    endloop
  endfacet
  facet normal 0 1 0
    outer loop
      vertex -2.73779 52 0.5
      vertex -1.25 52 0
      vertex -2.73779 52 0
    endloop
  endfacet
  facet normal 0 1 -0
    outer loop
      vertex 2.73779 52 0
      vertex 1.25 52 0.5
      vertex 2.73779 52 0.5
    endloop
  endfacet
  facet normal 0 1 0
    outer loop
      vertex 1.25 52 0.5
      vertex 2.73779 52 0
      vertex 1.25 52 0
    endloop
  endfacet
  facet normal 0 1 -0
    outer loop
      vertex -1.25 52 2.5
      vertex -2.73779 52 3
      vertex -1.25 52 3
    endloop
  endfacet
  facet normal 0 1 0
    outer loop
      vertex -2.73779 52 3
      vertex -1.25 52 2.5
      vertex -2.73779 52 2.5
    endloop
  endfacet
  facet normal 0 0 -1
    outer loop
      vertex -1.575 0 0
      vertex -2.73779 0 0
      vertex -1.575 3.75 0
    endloop
  endfacet
  facet normal 0 0 -1
    outer loop
      vertex 1.11369 4.86369 0
      vertex 1.25 45 0
      vertex 1.45511 4.35273 0
    endloop
  endfacet
  facet normal 0 0 -1
    outer loop
      vertex 0.602726 5.20511 0
      vertex 1.25 45 0
      vertex 1.11369 4.86369 0
    endloop
  endfacet
  facet normal 0 0 -1
    outer loop
      vertex 0 5.325 0
      vertex 1.25 45 0
      vertex 0.602726 5.20511 0
    endloop
  endfacet
  facet normal 0 0 -1
    outer loop
      vertex -1.25 45 0
      vertex 0 5.325 0
      vertex -0.602726 5.20511 0
    endloop
  endfacet
  facet normal 0 0 -1
    outer loop
      vertex -1.25 45 0
      vertex -0.602726 5.20511 0
      vertex -1.11369 4.86369 0
    endloop
  endfacet
  facet normal 0 0 -1
    outer loop
      vertex 0 5.325 0
      vertex -1.25 45 0
      vertex 1.25 45 0
    endloop
  endfacet
  facet normal 0 0 -1
    outer loop
      vertex -1.45511 4.35273 0
      vertex -1.25 45 0
      vertex -1.11369 4.86369 0
    endloop
  endfacet
  facet normal 0 0 -1
    outer loop
      vertex -2.73779 0 0
      vertex -1.25 45 0
      vertex -1.45511 4.35273 0
    endloop
  endfacet
  facet normal 0 0 -1
    outer loop
      vertex -2.73779 0 0
      vertex -1.45511 4.35273 0
      vertex -1.575 3.75 0
    endloop
  endfacet
  facet normal -0 0 -1
    outer loop
      vertex -1.25 45 0
      vertex -2.73779 0 0
      vertex -2.73779 52 0
    endloop
  endfacet
  facet normal 0 0 -1
    outer loop
      vertex -1.25 45 0
      vertex -2.73779 52 0
      vertex -1.25 52 0
    endloop
  endfacet
  facet normal 0 0 -1
    outer loop
      vertex 1.575 3.75 0
      vertex 2.73779 0 0
      vertex 1.575 0 0
    endloop
  endfacet
  facet normal 0 0 -1
    outer loop
      vertex 1.45511 4.35273 0
      vertex 2.73779 0 0
      vertex 1.575 3.75 0
    endloop
  endfacet
  facet normal 0 0 -1
    outer loop
      vertex 1.25 45 0
      vertex 2.73779 0 0
      vertex 1.45511 4.35273 0
    endloop
  endfacet
  facet normal 0 0 -1
    outer loop
      vertex 2.73779 0 0
      vertex 1.25 45 0
      vertex 2.73779 52 0
    endloop
  endfacet
  facet normal -0 0 -1
    outer loop
      vertex 2.73779 52 0
      vertex 1.25 45 0
      vertex 1.25 52 0
    endloop
  endfacet
  facet normal 0 -1 0
    outer loop
      vertex -2.73779 0 0
      vertex -1.575 0 2
      vertex -2.73779 0 2
    endloop
  endfacet
  facet normal 0 -1 -0
    outer loop
      vertex -1.575 0 2
      vertex -2.73779 0 0
      vertex -1.575 0 0
    endloop
  endfacet
  facet normal 0 -1 0
    outer loop
      vertex 1.575 0 0
      vertex 2.73779 0 2
      vertex 1.575 0 2
    endloop
  endfacet
  facet normal 0 -1 -0
    outer loop
      vertex 2.73779 0 2
      vertex 1.575 0 0
      vertex 2.73779 0 0
    endloop
  endfacet
  facet normal -0.5 -0.866025 0
    outer loop
      vertex 0 7.2 0.5
      vertex 2.73779 5.61934 3
      vertex 0 7.2 3
    endloop
  endfacet
  facet normal -0.5 -0.866025 -0
    outer loop
      vertex 2.73779 5.61934 3
      vertex 0 7.2 0.5
      vertex 2.73779 5.61934 0.5
    endloop
  endfacet
  facet normal 0.5 -0.866025 0
    outer loop
      vertex -2.73779 5.61934 0.5
      vertex 0 7.2 3
      vertex -2.73779 5.61934 3
    endloop
  endfacet
  facet normal 0.5 -0.866025 0
    outer loop
      vertex 0 7.2 3
      vertex -2.73779 5.61934 0.5
      vertex 0 7.2 0.5
    endloop
  endfacet
  facet normal 0 0 1
    outer loop
      vertex 2.73779 5.61934 0.5
      vertex 1.575 3.75 0.5
      vertex 2.73779 1.88066 0.5
    endloop
  endfacet
  facet normal 0 0 1
    outer loop
      vertex 2.73779 5.61934 0.5
      vertex 1.45511 4.35273 0.5
      vertex 1.575 3.75 0.5
    endloop
  endfacet
  facet normal 0 0 1
    outer loop
      vertex 2.73779 5.61934 0.5
      vertex 1.11369 4.86369 0.5
      vertex 1.45511 4.35273 0.5
    endloop
  endfacet
  facet normal 0 0 1
    outer loop
      vertex 2.73779 5.61934 0.5
      vertex 0.602726 5.20511 0.5
      vertex 1.11369 4.86369 0.5
    endloop
  endfacet
  facet normal 0 0 1
    outer loop
      vertex 0 7.2 0.5
      vertex 0.602726 5.20511 0.5
      vertex 2.73779 5.61934 0.5
    endloop
  endfacet
  facet normal 0 0 1
    outer loop
      vertex 0 7.2 0.5
      vertex 0 5.325 0.5
      vertex 0.602726 5.20511 0.5
    endloop
  endfacet
  facet normal 0 0 1
    outer loop
      vertex 0 7.2 0.5
      vertex -0.602726 5.20511 0.5
      vertex 0 5.325 0.5
    endloop
  endfacet
  facet normal -0 0 1
    outer loop
      vertex -2.73779 5.61934 0.5
      vertex -0.602726 5.20511 0.5
      vertex 0 7.2 0.5
    endloop
  endfacet
  facet normal 0 0 1
    outer loop
      vertex -0.602726 5.20511 0.5
      vertex -2.73779 5.61934 0.5
      vertex -1.11369 4.86369 0.5
    endloop
  endfacet
  facet normal 0 0 1
    outer loop
      vertex -1.11369 4.86369 0.5
      vertex -2.73779 5.61934 0.5
      vertex -1.45511 4.35273 0.5
    endloop
  endfacet
  facet normal 0 0 1
    outer loop
      vertex -2.73779 5.61934 0.5
      vertex -1.575 3.75 0.5
      vertex -1.45511 4.35273 0.5
    endloop
  endfacet
  facet normal 0 0 1
    outer loop
      vertex -2.73779 1.88066 0.5
      vertex -1.575 3.75 0.5
      vertex -2.73779 5.61934 0.5
    endloop
  endfacet
  facet normal 0 0 1
    outer loop
      vertex -1.575 3.75 0.5
      vertex -2.73779 1.88066 0.5
      vertex -1.575 1.20933 0.5
    endloop
  endfacet
  facet normal 0 0 1
    outer loop
      vertex 2.73779 1.88066 0.5
      vertex 1.575 3.75 0.5
      vertex 1.575 1.20933 0.5
    endloop
  endfacet
  facet normal -0.5 0.866025 0
    outer loop
      vertex 2.73779 1.88066 0.5
      vertex 1.575 1.20933 2.32249
      vertex 2.73779 1.88066 2.50151
    endloop
  endfacet
  facet normal -0.5 0.866025 0
    outer loop
      vertex 1.575 1.20933 2.32249
      vertex 2.73779 1.88066 0.5
      vertex 1.575 1.20933 0.5
    endloop
  endfacet
  facet normal 0.5 0.866025 0
    outer loop
      vertex -2.73779 1.88066 0.5
      vertex -1.575 1.20933 2.32249
      vertex -1.575 1.20933 0.5
    endloop
  endfacet
  facet normal 0.5 0.866025 0
    outer loop
      vertex -1.575 1.20933 2.32249
      vertex -2.73779 1.88066 0.5
      vertex -2.73779 1.88066 2.50151
    endloop
  endfacet
  facet normal -0.980785 -0.195091 0
    outer loop
      vertex 1.575 3.75 0
      vertex 1.45511 4.35273 0.5
      vertex 1.45511 4.35273 0
    endloop
  endfacet
  facet normal -0.980785 -0.195091 0
    outer loop
      vertex 1.45511 4.35273 0.5
      vertex 1.575 3.75 0
      vertex 1.575 3.75 0.5
    endloop
  endfacet
  facet normal -1 0 0
    outer loop
      vertex 1.575 3.75 0
      vertex 1.575 1.20933 0.5
      vertex 1.575 3.75 0.5
    endloop
  endfacet
  facet normal -1 0 0
    outer loop
      vertex 1.575 0 0
      vertex 1.575 1.20933 0.5
      vertex 1.575 3.75 0
    endloop
  endfacet
  facet normal -1 0 0
    outer loop
      vertex 1.575 0 2
      vertex 1.575 1.20933 0.5
      vertex 1.575 0 0
    endloop
  endfacet
  facet normal -1 0 0
    outer loop
      vertex 1.575 1.20933 0.5
      vertex 1.575 0 2
      vertex 1.575 1.20933 2.32249
    endloop
  endfacet
  facet normal 1 0 0
    outer loop
      vertex -1.575 1.20933 2.32249
      vertex -1.575 0 2
      vertex -1.575 1.20933 0.5
    endloop
  endfacet
  facet normal 1 -0 0
    outer loop
      vertex -1.575 1.20933 0.5
      vertex -1.575 3.75 0
      vertex -1.575 3.75 0.5
    endloop
  endfacet
  facet normal 1 0 0
    outer loop
      vertex -1.575 1.20933 0.5
      vertex -1.575 0 0
      vertex -1.575 3.75 0
    endloop
  endfacet
  facet normal 1 0 0
    outer loop
      vertex -1.575 0 0
      vertex -1.575 1.20933 0.5
      vertex -1.575 0 2
    endloop
  endfacet
  facet normal -0.555571 -0.831469 0
    outer loop
      vertex 0.602726 5.20511 0
      vertex 1.11369 4.86369 0.5
      vertex 0.602726 5.20511 0.5
    endloop
  endfacet
  facet normal -0.555571 -0.831469 -0
    outer loop
      vertex 1.11369 4.86369 0.5
      vertex 0.602726 5.20511 0
      vertex 1.11369 4.86369 0
    endloop
  endfacet
  facet normal 0.555571 -0.831469 0
    outer loop
      vertex -1.11369 4.86369 0
      vertex -0.602726 5.20511 0.5
      vertex -1.11369 4.86369 0.5
    endloop
  endfacet
  facet normal 0.555571 -0.831469 0
    outer loop
      vertex -0.602726 5.20511 0.5
      vertex -1.11369 4.86369 0
      vertex -0.602726 5.20511 0
    endloop
  endfacet
  facet normal -0.195091 -0.980785 0
    outer loop
      vertex 0 5.325 0
      vertex 0.602726 5.20511 0.5
      vertex 0 5.325 0.5
    endloop
  endfacet
  facet normal -0.195091 -0.980785 -0
    outer loop
      vertex 0.602726 5.20511 0.5
      vertex 0 5.325 0
      vertex 0.602726 5.20511 0
    endloop
  endfacet
  facet normal 0.980785 -0.195091 0
    outer loop
      vertex -1.575 3.75 0.5
      vertex -1.45511 4.35273 0
      vertex -1.45511 4.35273 0.5
    endloop
  endfacet
  facet normal 0.980785 -0.195091 0
    outer loop
      vertex -1.45511 4.35273 0
      vertex -1.575 3.75 0.5
      vertex -1.575 3.75 0
    endloop
  endfacet
  facet normal 0.195091 -0.980785 0
    outer loop
      vertex -0.602726 5.20511 0
      vertex 0 5.325 0.5
      vertex -0.602726 5.20511 0.5
    endloop
  endfacet
  facet normal 0.195091 -0.980785 0
    outer loop
      vertex 0 5.325 0.5
      vertex -0.602726 5.20511 0
      vertex 0 5.325 0
    endloop
  endfacet
  facet normal -0.831469 -0.555571 0
    outer loop
      vertex 1.45511 4.35273 0
      vertex 1.11369 4.86369 0.5
      vertex 1.11369 4.86369 0
    endloop
  endfacet
  facet normal -0.831469 -0.555571 0
    outer loop
      vertex 1.11369 4.86369 0.5
      vertex 1.45511 4.35273 0
      vertex 1.45511 4.35273 0.5
    endloop
  endfacet
  facet normal 0.831469 -0.555571 0
    outer loop
      vertex -1.45511 4.35273 0.5
      vertex -1.11369 4.86369 0
      vertex -1.11369 4.86369 0.5
    endloop
  endfacet
  facet normal 0.831469 -0.555571 0
    outer loop
      vertex -1.11369 4.86369 0
      vertex -1.45511 4.35273 0.5
      vertex -1.45511 4.35273 0
    endloop
  endfacet
  facet normal 1.04726e-007 -0.257663 0.966235
    outer loop
      vertex -2.73779 0 2
      vertex -1.575 1.20933 2.32249
      vertex -2.73779 1.88066 2.50151
    endloop
  endfacet
  facet normal 0 -0.257663 0.966235
    outer loop
      vertex -1.575 1.20933 2.32249
      vertex -2.73779 0 2
      vertex -1.575 0 2
    endloop
  endfacet
  facet normal -1.04726e-007 -0.257663 0.966235
    outer loop
      vertex 1.575 1.20933 2.32249
      vertex 2.73779 0 2
      vertex 2.73779 1.88066 2.50151
    endloop
  endfacet
  facet normal 0 -0.257663 0.966235
    outer loop
      vertex 2.73779 0 2
      vertex 1.575 1.20933 2.32249
      vertex 1.575 0 2
    endloop
  endfacet
  facet normal 1 0 0
    outer loop
      vertex -1.25 52 3
      vertex -1.25 50.5 1.25
      vertex -1.25 52 2.5
    endloop
  endfacet
  facet normal 1 0 0
    outer loop
      vertex -1.25 45 0
      vertex -1.25 50.5 1.25
      vertex -1.25 45 3
    endloop
  endfacet
  facet normal 1 -0 0
    outer loop
      vertex -1.25 45 3
      vertex -1.25 50.5 1.25
      vertex -1.25 52 3
    endloop
  endfacet
  facet normal 1 0 0
    outer loop
      vertex -1.25 50.5 0.75
      vertex -1.25 52 0
      vertex -1.25 52 0.5
    endloop
  endfacet
  facet normal 1 0 0
    outer loop
      vertex -1.25 50.5 1.25
      vertex -1.25 45 0
      vertex -1.25 50.5 0.75
    endloop
  endfacet
  facet normal 1 0 0
    outer loop
      vertex -1.25 50.5 0.75
      vertex -1.25 45 0
      vertex -1.25 52 0
    endloop
  endfacet
  facet normal -1 0 0
    outer loop
      vertex 1.25 52 0
      vertex 1.25 50.5 0.75
      vertex 1.25 52 0.5
    endloop
  endfacet
  facet normal -1 -0 0
    outer loop
      vertex 1.25 50.5 0.75
      vertex 1.25 45 0
      vertex 1.25 50.5 1.25
    endloop
  endfacet
  facet normal -1 0 0
    outer loop
      vertex 1.25 45 0
      vertex 1.25 50.5 0.75
      vertex 1.25 52 0
    endloop
  endfacet
  facet normal -1 0 0
    outer loop
      vertex 1.25 50.5 1.25
      vertex 1.25 52 3
      vertex 1.25 52 2.5
    endloop
  endfacet
  facet normal -1 0 0
    outer loop
      vertex 1.25 45 3
      vertex 1.25 50.5 1.25
      vertex 1.25 45 0
    endloop
  endfacet
  facet normal -1 0 0
    outer loop
      vertex 1.25 50.5 1.25
      vertex 1.25 45 3
      vertex 1.25 52 3
    endloop
  endfacet
  facet normal 0 1 -0
    outer loop
      vertex 1.25 45 0
      vertex -1.25 45 3
      vertex 1.25 45 3
    endloop
  endfacet
  facet normal 0 1 0
    outer loop
      vertex -1.25 45 3
      vertex 1.25 45 0
      vertex -1.25 45 0
    endloop
  endfacet
  facet normal 0 0.640184 -0.768221
    outer loop
      vertex -2.73779 50.5 1.25
      vertex -1.25 52 2.5
      vertex -1.25 50.5 1.25
    endloop
  endfacet
  facet normal 0 0.640184 -0.768221
    outer loop
      vertex -1.25 52 2.5
      vertex -2.73779 50.5 1.25
      vertex -2.73779 52 2.5
    endloop
  endfacet
  facet normal 0 0.640184 -0.768221
    outer loop
      vertex 1.25 50.5 1.25
      vertex 2.73779 52 2.5
      vertex 2.73779 50.5 1.25
    endloop
  endfacet
  facet normal 0 0.640184 -0.768221
    outer loop
      vertex 2.73779 52 2.5
      vertex 1.25 50.5 1.25
      vertex 1.25 52 2.5
    endloop
  endfacet
  facet normal 0 1 -0
    outer loop
      vertex -1.25 50.5 0.75
      vertex -2.73779 50.5 1.25
      vertex -1.25 50.5 1.25
    endloop
  endfacet
  facet normal 0 1 0
    outer loop
      vertex -2.73779 50.5 1.25
      vertex -1.25 50.5 0.75
      vertex -2.73779 50.5 0.75
    endloop
  endfacet
  facet normal 0 1 -0
    outer loop
      vertex 2.73779 50.5 0.75
      vertex 1.25 50.5 1.25
      vertex 2.73779 50.5 1.25
    endloop
  endfacet
  facet normal 0 1 0
    outer loop
      vertex 1.25 50.5 1.25
      vertex 2.73779 50.5 0.75
      vertex 1.25 50.5 0.75
    endloop
  endfacet
  facet normal -0 0.164399 0.986394
    outer loop
      vertex -2.73779 52 0.5
      vertex -1.25 50.5 0.75
      vertex -1.25 52 0.5
    endloop
  endfacet
  facet normal 0 0.164399 0.986394
    outer loop
      vertex -1.25 50.5 0.75
      vertex -2.73779 52 0.5
      vertex -2.73779 50.5 0.75
    endloop
  endfacet
  facet normal -0 0.164399 0.986394
    outer loop
      vertex 1.25 52 0.5
      vertex 2.73779 50.5 0.75
      vertex 2.73779 52 0.5
    endloop
  endfacet
  facet normal 0 0.164399 0.986394
    outer loop
      vertex 2.73779 50.5 0.75
      vertex 1.25 52 0.5
      vertex 1.25 50.5 0.75
    endloop
  endfacet
endsolid OpenSCAD_Model
