solid OpenSCAD_Model
  facet normal -0.980785 0.195091 0
    outer loop
      vertex 8.68786 -2.6697 0
      vertex 8.82107 -2 1
      vertex 8.82107 -2 0
    endloop
  endfacet
  facet normal -0.980785 0.195091 0
    outer loop
      vertex 8.82107 -2 1
      vertex 8.68786 -2.6697 0
      vertex 8.68786 -2.6697 1
    endloop
  endfacet
  facet normal -0.831469 -0.555571 0
    outer loop
      vertex 8.68786 2.6697 0
      vertex 8.3085 3.23744 1
      vertex 8.3085 3.23744 0
    endloop
  endfacet
  facet normal -0.831469 -0.555571 0
    outer loop
      vertex 8.3085 3.23744 1
      vertex 8.68786 2.6697 0
      vertex 8.68786 2.6697 1
    endloop
  endfacet
  facet normal -1 0 0
    outer loop
      vertex 8.82107 -2 0
      vertex 8.82107 2 1
      vertex 8.82107 2 0
    endloop
  endfacet
  facet normal -1 -0 0
    outer loop
      vertex 8.82107 2 1
      vertex 8.82107 -2 0
      vertex 8.82107 -2 1
    endloop
  endfacet
  facet normal -0.980785 -0.195091 0
    outer loop
      vertex 8.82107 2 0
      vertex 8.68786 2.6697 1
      vertex 8.68786 2.6697 0
    endloop
  endfacet
  facet normal -0.980785 -0.195091 0
    outer loop
      vertex 8.68786 2.6697 1
      vertex 8.82107 2 0
      vertex 8.82107 2 1
    endloop
  endfacet
  facet normal -0.831469 0.555571 0
    outer loop
      vertex 8.3085 -3.23744 0
      vertex 8.68786 -2.6697 1
      vertex 8.68786 -2.6697 0
    endloop
  endfacet
  facet normal -0.831469 0.555571 0
    outer loop
      vertex 8.68786 -2.6697 1
      vertex 8.3085 -3.23744 0
      vertex 8.3085 -3.23744 1
    endloop
  endfacet
  facet normal 0.831469 0.555571 0
    outer loop
      vertex 5.83363 -3.23744 1
      vertex 5.45428 -2.6697 0
      vertex 5.45428 -2.6697 1
    endloop
  endfacet
  facet normal 0.831469 0.555571 0
    outer loop
      vertex 5.45428 -2.6697 0
      vertex 5.83363 -3.23744 1
      vertex 5.83363 -3.23744 0
    endloop
  endfacet
  facet normal 0.195091 0.980785 -0
    outer loop
      vertex 7.07107 -3.75 0
      vertex 6.40137 -3.61679 1
      vertex 7.07107 -3.75 1
    endloop
  endfacet
  facet normal 0.195091 0.980785 0
    outer loop
      vertex 6.40137 -3.61679 1
      vertex 7.07107 -3.75 0
      vertex 6.40137 -3.61679 0
    endloop
  endfacet
  facet normal -0.195091 -0.980785 0
    outer loop
      vertex 7.07107 3.75 0
      vertex 7.74076 3.61679 1
      vertex 7.07107 3.75 1
    endloop
  endfacet
  facet normal -0.195091 -0.980785 -0
    outer loop
      vertex 7.74076 3.61679 1
      vertex 7.07107 3.75 0
      vertex 7.74076 3.61679 0
    endloop
  endfacet
  facet normal -0.555571 -0.831469 0
    outer loop
      vertex 7.74076 3.61679 0
      vertex 8.3085 3.23744 1
      vertex 7.74076 3.61679 1
    endloop
  endfacet
  facet normal -0.555571 -0.831469 -0
    outer loop
      vertex 8.3085 3.23744 1
      vertex 7.74076 3.61679 0
      vertex 8.3085 3.23744 0
    endloop
  endfacet
  facet normal 0.195091 -0.980785 0
    outer loop
      vertex 6.40137 3.61679 0
      vertex 7.07107 3.75 1
      vertex 6.40137 3.61679 1
    endloop
  endfacet
  facet normal 0.195091 -0.980785 0
    outer loop
      vertex 7.07107 3.75 1
      vertex 6.40137 3.61679 0
      vertex 7.07107 3.75 0
    endloop
  endfacet
  facet normal 0.831469 -0.555571 0
    outer loop
      vertex 5.45428 2.6697 1
      vertex 5.83363 3.23744 0
      vertex 5.83363 3.23744 1
    endloop
  endfacet
  facet normal 0.831469 -0.555571 0
    outer loop
      vertex 5.83363 3.23744 0
      vertex 5.45428 2.6697 1
      vertex 5.45428 2.6697 0
    endloop
  endfacet
  facet normal 0.980785 0.195089 0
    outer loop
      vertex 5.45428 -2.6697 1
      vertex 5.32107 -2 0
      vertex 5.32107 -2 1
    endloop
  endfacet
  facet normal 0.980785 0.195089 0
    outer loop
      vertex 5.32107 -2 0
      vertex 5.45428 -2.6697 1
      vertex 5.45428 -2.6697 0
    endloop
  endfacet
  facet normal 1 -0 0
    outer loop
      vertex 5.32107 -2 1
      vertex 5.32107 2 0
      vertex 5.32107 2 1
    endloop
  endfacet
  facet normal 1 0 0
    outer loop
      vertex 5.32107 2 0
      vertex 5.32107 -2 1
      vertex 5.32107 -2 0
    endloop
  endfacet
  facet normal 0.980785 -0.195089 0
    outer loop
      vertex 5.32107 2 1
      vertex 5.45428 2.6697 0
      vertex 5.45428 2.6697 1
    endloop
  endfacet
  facet normal 0.980785 -0.195089 0
    outer loop
      vertex 5.45428 2.6697 0
      vertex 5.32107 2 1
      vertex 5.32107 2 0
    endloop
  endfacet
  facet normal 0.555571 0.831469 -0
    outer loop
      vertex 6.40137 -3.61679 0
      vertex 5.83363 -3.23744 1
      vertex 6.40137 -3.61679 1
    endloop
  endfacet
  facet normal 0.555571 0.831469 0
    outer loop
      vertex 5.83363 -3.23744 1
      vertex 6.40137 -3.61679 0
      vertex 5.83363 -3.23744 0
    endloop
  endfacet
  facet normal -0.555571 0.831469 0
    outer loop
      vertex 8.3085 -3.23744 0
      vertex 7.74076 -3.61679 1
      vertex 8.3085 -3.23744 1
    endloop
  endfacet
  facet normal -0.555571 0.831469 0
    outer loop
      vertex 7.74076 -3.61679 1
      vertex 8.3085 -3.23744 0
      vertex 7.74076 -3.61679 0
    endloop
  endfacet
  facet normal -0.195091 0.980785 0
    outer loop
      vertex 7.74076 -3.61679 0
      vertex 7.07107 -3.75 1
      vertex 7.74076 -3.61679 1
    endloop
  endfacet
  facet normal -0.195091 0.980785 0
    outer loop
      vertex 7.07107 -3.75 1
      vertex 7.74076 -3.61679 0
      vertex 7.07107 -3.75 0
    endloop
  endfacet
  facet normal 0.555571 -0.831469 0
    outer loop
      vertex 5.83363 3.23744 0
      vertex 6.40137 3.61679 1
      vertex 5.83363 3.23744 1
    endloop
  endfacet
  facet normal 0.555571 -0.831469 0
    outer loop
      vertex 6.40137 3.61679 1
      vertex 5.83363 3.23744 0
      vertex 6.40137 3.61679 0
    endloop
  endfacet
  facet normal 0.980785 0.195091 0
    outer loop
      vertex -8.68786 -2.6697 1
      vertex -8.82107 -2 0
      vertex -8.82107 -2 1
    endloop
  endfacet
  facet normal 0.980785 0.195091 0
    outer loop
      vertex -8.82107 -2 0
      vertex -8.68786 -2.6697 1
      vertex -8.68786 -2.6697 0
    endloop
  endfacet
  facet normal 1 -0 0
    outer loop
      vertex -8.82107 -2 1
      vertex -8.82107 2 0
      vertex -8.82107 2 1
    endloop
  endfacet
  facet normal 1 0 0
    outer loop
      vertex -8.82107 2 0
      vertex -8.82107 -2 1
      vertex -8.82107 -2 0
    endloop
  endfacet
  facet normal -0.980785 -0.195089 0
    outer loop
      vertex -5.32107 2 0
      vertex -5.45428 2.6697 1
      vertex -5.45428 2.6697 0
    endloop
  endfacet
  facet normal -0.980785 -0.195089 0
    outer loop
      vertex -5.45428 2.6697 1
      vertex -5.32107 2 0
      vertex -5.32107 2 1
    endloop
  endfacet
  facet normal 0.831469 -0.555571 0
    outer loop
      vertex -8.68786 2.6697 1
      vertex -8.3085 3.23744 0
      vertex -8.3085 3.23744 1
    endloop
  endfacet
  facet normal 0.831469 -0.555571 0
    outer loop
      vertex -8.3085 3.23744 0
      vertex -8.68786 2.6697 1
      vertex -8.68786 2.6697 0
    endloop
  endfacet
  facet normal -0.831469 0.555571 0
    outer loop
      vertex -5.83363 -3.23744 0
      vertex -5.45428 -2.6697 1
      vertex -5.45428 -2.6697 0
    endloop
  endfacet
  facet normal -0.831469 0.555571 0
    outer loop
      vertex -5.45428 -2.6697 1
      vertex -5.83363 -3.23744 0
      vertex -5.83363 -3.23744 1
    endloop
  endfacet
  facet normal -0.195091 -0.980785 0
    outer loop
      vertex -7.07107 3.75 0
      vertex -6.40137 3.61679 1
      vertex -7.07107 3.75 1
    endloop
  endfacet
  facet normal -0.195091 -0.980785 -0
    outer loop
      vertex -6.40137 3.61679 1
      vertex -7.07107 3.75 0
      vertex -6.40137 3.61679 0
    endloop
  endfacet
  facet normal 0.195091 0.980785 -0
    outer loop
      vertex -7.07107 -3.75 0
      vertex -7.74076 -3.61679 1
      vertex -7.07107 -3.75 1
    endloop
  endfacet
  facet normal 0.195091 0.980785 0
    outer loop
      vertex -7.74076 -3.61679 1
      vertex -7.07107 -3.75 0
      vertex -7.74076 -3.61679 0
    endloop
  endfacet
  facet normal -0.195091 0.980785 0
    outer loop
      vertex -6.40137 -3.61679 0
      vertex -7.07107 -3.75 1
      vertex -6.40137 -3.61679 1
    endloop
  endfacet
  facet normal -0.195091 0.980785 0
    outer loop
      vertex -7.07107 -3.75 1
      vertex -6.40137 -3.61679 0
      vertex -7.07107 -3.75 0
    endloop
  endfacet
  facet normal 0.195091 -0.980785 0
    outer loop
      vertex -7.74076 3.61679 0
      vertex -7.07107 3.75 1
      vertex -7.74076 3.61679 1
    endloop
  endfacet
  facet normal 0.195091 -0.980785 0
    outer loop
      vertex -7.07107 3.75 1
      vertex -7.74076 3.61679 0
      vertex -7.07107 3.75 0
    endloop
  endfacet
  facet normal 0.980785 -0.195091 0
    outer loop
      vertex -8.82107 2 1
      vertex -8.68786 2.6697 0
      vertex -8.68786 2.6697 1
    endloop
  endfacet
  facet normal 0.980785 -0.195091 0
    outer loop
      vertex -8.68786 2.6697 0
      vertex -8.82107 2 1
      vertex -8.82107 2 0
    endloop
  endfacet
  facet normal 0.831469 0.555571 0
    outer loop
      vertex -8.3085 -3.23744 1
      vertex -8.68786 -2.6697 0
      vertex -8.68786 -2.6697 1
    endloop
  endfacet
  facet normal 0.831469 0.555571 0
    outer loop
      vertex -8.68786 -2.6697 0
      vertex -8.3085 -3.23744 1
      vertex -8.3085 -3.23744 0
    endloop
  endfacet
  facet normal -0.555571 0.831469 0
    outer loop
      vertex -5.83363 -3.23744 0
      vertex -6.40137 -3.61679 1
      vertex -5.83363 -3.23744 1
    endloop
  endfacet
  facet normal -0.555571 0.831469 0
    outer loop
      vertex -6.40137 -3.61679 1
      vertex -5.83363 -3.23744 0
      vertex -6.40137 -3.61679 0
    endloop
  endfacet
  facet normal 0.555571 -0.831469 0
    outer loop
      vertex -8.3085 3.23744 0
      vertex -7.74076 3.61679 1
      vertex -8.3085 3.23744 1
    endloop
  endfacet
  facet normal 0.555571 -0.831469 0
    outer loop
      vertex -7.74076 3.61679 1
      vertex -8.3085 3.23744 0
      vertex -7.74076 3.61679 0
    endloop
  endfacet
  facet normal 0.555571 0.831469 -0
    outer loop
      vertex -7.74076 -3.61679 0
      vertex -8.3085 -3.23744 1
      vertex -7.74076 -3.61679 1
    endloop
  endfacet
  facet normal 0.555571 0.831469 0
    outer loop
      vertex -8.3085 -3.23744 1
      vertex -7.74076 -3.61679 0
      vertex -8.3085 -3.23744 0
    endloop
  endfacet
  facet normal -1 0 0
    outer loop
      vertex -5.32107 -2 0
      vertex -5.32107 2 1
      vertex -5.32107 2 0
    endloop
  endfacet
  facet normal -1 -0 0
    outer loop
      vertex -5.32107 2 1
      vertex -5.32107 -2 0
      vertex -5.32107 -2 1
    endloop
  endfacet
  facet normal -0.980785 0.195089 0
    outer loop
      vertex -5.45428 -2.6697 0
      vertex -5.32107 -2 1
      vertex -5.32107 -2 0
    endloop
  endfacet
  facet normal -0.980785 0.195089 0
    outer loop
      vertex -5.32107 -2 1
      vertex -5.45428 -2.6697 0
      vertex -5.45428 -2.6697 1
    endloop
  endfacet
  facet normal -0.555571 -0.831469 0
    outer loop
      vertex -6.40137 3.61679 0
      vertex -5.83363 3.23744 1
      vertex -6.40137 3.61679 1
    endloop
  endfacet
  facet normal -0.555571 -0.831469 -0
    outer loop
      vertex -5.83363 3.23744 1
      vertex -6.40137 3.61679 0
      vertex -5.83363 3.23744 0
    endloop
  endfacet
  facet normal -0.831469 -0.555571 0
    outer loop
      vertex -5.45428 2.6697 0
      vertex -5.83363 3.23744 1
      vertex -5.83363 3.23744 0
    endloop
  endfacet
  facet normal -0.831469 -0.555571 0
    outer loop
      vertex -5.83363 3.23744 1
      vertex -5.45428 2.6697 0
      vertex -5.45428 2.6697 1
    endloop
  endfacet
  facet normal 0.980785 -0.19509 0
    outer loop
      vertex 3.87107 2 4
      vertex 4.11465 3.22459 1
      vertex 4.11465 3.22459 4
    endloop
  endfacet
  facet normal 0.980785 -0.19509 0
    outer loop
      vertex 4.11465 3.22459 1
      vertex 3.87107 2 4
      vertex 3.87107 2 1
    endloop
  endfacet
  facet normal -0.55557 -0.831469 0
    outer loop
      vertex 8.29565 4.95641 1
      vertex 9.33381 4.26274 4
      vertex 8.29565 4.95641 4
    endloop
  endfacet
  facet normal -0.55557 -0.831469 -0
    outer loop
      vertex 9.33381 4.26274 4
      vertex 8.29565 4.95641 1
      vertex 9.33381 4.26274 1
    endloop
  endfacet
  facet normal 0.55557 0.831469 -0
    outer loop
      vertex 5.84648 -4.95641 1
      vertex 4.80833 -4.26274 11
      vertex 5.84648 -4.95641 11
    endloop
  endfacet
  facet normal 0.55557 0.831469 0
    outer loop
      vertex 4.80833 -4.26274 11
      vertex 5.84648 -4.95641 1
      vertex 4.80833 -4.26274 1
    endloop
  endfacet
  facet normal 0.19509 0.980785 -0
    outer loop
      vertex 7.07107 -5.2 1
      vertex 5.84648 -4.95641 11
      vertex 7.07107 -5.2 11
    endloop
  endfacet
  facet normal 0.19509 0.980785 0
    outer loop
      vertex 5.84648 -4.95641 11
      vertex 7.07107 -5.2 1
      vertex 5.84648 -4.95641 1
    endloop
  endfacet
  facet normal -0.831469 -0.55557 0
    outer loop
      vertex 10 3.26572 1
      vertex 9.33381 4.26274 4
      vertex 9.33381 4.26274 1
    endloop
  endfacet
  facet normal -0.831469 -0.55557 0
    outer loop
      vertex 9.33381 4.26274 4
      vertex 10 3.26572 1
      vertex 10 3.26572 4
    endloop
  endfacet
  facet normal 0.19509 -0.980785 0
    outer loop
      vertex 5.84648 4.95641 1
      vertex 7.07107 5.2 4
      vertex 5.84648 4.95641 4
    endloop
  endfacet
  facet normal 0.19509 -0.980785 0
    outer loop
      vertex 7.07107 5.2 4
      vertex 5.84648 4.95641 1
      vertex 7.07107 5.2 1
    endloop
  endfacet
  facet normal -0.19509 -0.980785 0
    outer loop
      vertex 7.07107 5.2 1
      vertex 8.29565 4.95641 4
      vertex 7.07107 5.2 4
    endloop
  endfacet
  facet normal -0.19509 -0.980785 -0
    outer loop
      vertex 8.29565 4.95641 4
      vertex 7.07107 5.2 1
      vertex 8.29565 4.95641 1
    endloop
  endfacet
  facet normal 0 0 -1
    outer loop
      vertex 8.29565 -4.95641 11
      vertex 9.50937 -4 11
      vertex 9.33381 -4.26274 11
    endloop
  endfacet
  facet normal 0 0 -1
    outer loop
      vertex 7.07107 -5.2 11
      vertex 9.50937 -4 11
      vertex 8.29565 -4.95641 11
    endloop
  endfacet
  facet normal 0 0 -1
    outer loop
      vertex 4.63277 -4 11
      vertex 7.07107 -5.2 11
      vertex 5.84648 -4.95641 11
    endloop
  endfacet
  facet normal 0 0 -1
    outer loop
      vertex 4.63277 -4 11
      vertex 5.84648 -4.95641 11
      vertex 4.80833 -4.26274 11
    endloop
  endfacet
  facet normal 0 0 -1
    outer loop
      vertex 7.07107 -5.2 11
      vertex 4.63277 -4 11
      vertex 9.50937 -4 11
    endloop
  endfacet
  facet normal 0.55557 -0.831469 0
    outer loop
      vertex 4.80833 4.26274 1
      vertex 5.84648 4.95641 4
      vertex 4.80833 4.26274 4
    endloop
  endfacet
  facet normal 0.55557 -0.831469 0
    outer loop
      vertex 5.84648 4.95641 4
      vertex 4.80833 4.26274 1
      vertex 5.84648 4.95641 1
    endloop
  endfacet
  facet normal 0.831469 -0.55557 0
    outer loop
      vertex 4.11465 3.22459 4
      vertex 4.80833 4.26274 1
      vertex 4.80833 4.26274 4
    endloop
  endfacet
  facet normal 0.831469 -0.55557 0
    outer loop
      vertex 4.80833 4.26274 1
      vertex 4.11465 3.22459 4
      vertex 4.11465 3.22459 1
    endloop
  endfacet
  facet normal -0.831469 0.55557 0
    outer loop
      vertex 10 -3.26572 1
      vertex 9.50937 -4 4
      vertex 10 -3.26572 4
    endloop
  endfacet
  facet normal -0.831469 0.55557 -2.77361e-009
    outer loop
      vertex 9.33381 -4.26274 1
      vertex 9.50937 -4 4
      vertex 10 -3.26572 1
    endloop
  endfacet
  facet normal -0.831469 0.55557 0
    outer loop
      vertex 9.33381 -4.26274 11
      vertex 9.50937 -4 4
      vertex 9.33381 -4.26274 1
    endloop
  endfacet
  facet normal -0.831469 0.55557 0
    outer loop
      vertex 9.50937 -4 4
      vertex 9.33381 -4.26274 11
      vertex 9.50937 -4 11
    endloop
  endfacet
  facet normal 0 0 1
    outer loop
      vertex 8.3085 3.23744 1
      vertex 10 3.26572 1
      vertex 9.33381 4.26274 1
    endloop
  endfacet
  facet normal 0 0 1
    outer loop
      vertex 10 3.26572 1
      vertex 8.82107 2 1
      vertex 10 -3.26572 1
    endloop
  endfacet
  facet normal -0 0 1
    outer loop
      vertex 8.82107 -2 1
      vertex 10 -3.26572 1
      vertex 8.82107 2 1
    endloop
  endfacet
  facet normal 0 0 1
    outer loop
      vertex 10 3.26572 1
      vertex 8.68786 2.6697 1
      vertex 8.82107 2 1
    endloop
  endfacet
  facet normal 0 0 1
    outer loop
      vertex 10 3.26572 1
      vertex 8.3085 3.23744 1
      vertex 8.68786 2.6697 1
    endloop
  endfacet
  facet normal 0 0 1
    outer loop
      vertex 8.29565 4.95641 1
      vertex 8.3085 3.23744 1
      vertex 9.33381 4.26274 1
    endloop
  endfacet
  facet normal 0 0 1
    outer loop
      vertex 8.29565 4.95641 1
      vertex 7.74076 3.61679 1
      vertex 8.3085 3.23744 1
    endloop
  endfacet
  facet normal 0 0 1
    outer loop
      vertex 7.07107 5.2 1
      vertex 7.74076 3.61679 1
      vertex 8.29565 4.95641 1
    endloop
  endfacet
  facet normal 0 0 1
    outer loop
      vertex 7.07107 5.2 1
      vertex 7.07107 3.75 1
      vertex 7.74076 3.61679 1
    endloop
  endfacet
  facet normal 0 0 1
    outer loop
      vertex 7.07107 5.2 1
      vertex 6.40137 3.61679 1
      vertex 7.07107 3.75 1
    endloop
  endfacet
  facet normal -0 0 1
    outer loop
      vertex 5.84648 4.95641 1
      vertex 6.40137 3.61679 1
      vertex 7.07107 5.2 1
    endloop
  endfacet
  facet normal 0 0 1
    outer loop
      vertex 5.84648 4.95641 1
      vertex 5.83363 3.23744 1
      vertex 6.40137 3.61679 1
    endloop
  endfacet
  facet normal -0 0 1
    outer loop
      vertex 4.80833 4.26274 1
      vertex 5.83363 3.23744 1
      vertex 5.84648 4.95641 1
    endloop
  endfacet
  facet normal 0 0 1
    outer loop
      vertex 5.83363 3.23744 1
      vertex 4.80833 4.26274 1
      vertex 5.45428 2.6697 1
    endloop
  endfacet
  facet normal 0 0 1
    outer loop
      vertex 5.45428 2.6697 1
      vertex 4.11465 3.22459 1
      vertex 5.32107 2 1
    endloop
  endfacet
  facet normal -0 0 1
    outer loop
      vertex 4.11465 3.22459 1
      vertex 5.45428 2.6697 1
      vertex 4.80833 4.26274 1
    endloop
  endfacet
  facet normal -0 0 1
    outer loop
      vertex 8.68786 -2.6697 1
      vertex 10 -3.26572 1
      vertex 8.82107 -2 1
    endloop
  endfacet
  facet normal -0 0 1
    outer loop
      vertex 8.3085 -3.23744 1
      vertex 10 -3.26572 1
      vertex 8.68786 -2.6697 1
    endloop
  endfacet
  facet normal 0 0 1
    outer loop
      vertex 10 -3.26572 1
      vertex 8.3085 -3.23744 1
      vertex 9.33381 -4.26274 1
    endloop
  endfacet
  facet normal 0 0 1
    outer loop
      vertex 8.3085 -3.23744 1
      vertex 8.29565 -4.95641 1
      vertex 9.33381 -4.26274 1
    endloop
  endfacet
  facet normal -0 0 1
    outer loop
      vertex 7.74076 -3.61679 1
      vertex 8.29565 -4.95641 1
      vertex 8.3085 -3.23744 1
    endloop
  endfacet
  facet normal -0 0 1
    outer loop
      vertex 7.07107 -3.75 1
      vertex 8.29565 -4.95641 1
      vertex 7.74076 -3.61679 1
    endloop
  endfacet
  facet normal 0 0 1
    outer loop
      vertex 7.07107 -3.75 1
      vertex 7.07107 -5.2 1
      vertex 8.29565 -4.95641 1
    endloop
  endfacet
  facet normal 0 0 1
    outer loop
      vertex 6.40137 -3.61679 1
      vertex 7.07107 -5.2 1
      vertex 7.07107 -3.75 1
    endloop
  endfacet
  facet normal 0 0 1
    outer loop
      vertex 6.40137 -3.61679 1
      vertex 5.84648 -4.95641 1
      vertex 7.07107 -5.2 1
    endloop
  endfacet
  facet normal 0 0 1
    outer loop
      vertex 5.83363 -3.23744 1
      vertex 5.84648 -4.95641 1
      vertex 6.40137 -3.61679 1
    endloop
  endfacet
  facet normal 0 0 1
    outer loop
      vertex 4.80833 -4.26274 1
      vertex 5.83363 -3.23744 1
      vertex 5.45428 -2.6697 1
    endloop
  endfacet
  facet normal 0 0 1
    outer loop
      vertex 4.11465 -3.22459 1
      vertex 5.45428 -2.6697 1
      vertex 5.32107 -2 1
    endloop
  endfacet
  facet normal 0 0 1
    outer loop
      vertex 5.83363 -3.23744 1
      vertex 4.80833 -4.26274 1
      vertex 5.84648 -4.95641 1
    endloop
  endfacet
  facet normal 0 0 1
    outer loop
      vertex 5.32107 2 1
      vertex 3.87107 2 1
      vertex 5.32107 -2 1
    endloop
  endfacet
  facet normal 0 0 1
    outer loop
      vertex 5.32107 2 1
      vertex 4.11465 3.22459 1
      vertex 3.87107 2 1
    endloop
  endfacet
  facet normal 0 0 1
    outer loop
      vertex 3.87107 -2 1
      vertex 5.32107 -2 1
      vertex 3.87107 2 1
    endloop
  endfacet
  facet normal 0 -0 1
    outer loop
      vertex 4.11465 -3.22459 1
      vertex 5.32107 -2 1
      vertex 3.87107 -2 1
    endloop
  endfacet
  facet normal 0 0 1
    outer loop
      vertex 5.45428 -2.6697 1
      vertex 4.11465 -3.22459 1
      vertex 4.80833 -4.26274 1
    endloop
  endfacet
  facet normal -0.19509 0.980785 0
    outer loop
      vertex 8.29565 -4.95641 1
      vertex 7.07107 -5.2 11
      vertex 8.29565 -4.95641 11
    endloop
  endfacet
  facet normal -0.19509 0.980785 0
    outer loop
      vertex 7.07107 -5.2 11
      vertex 8.29565 -4.95641 1
      vertex 7.07107 -5.2 1
    endloop
  endfacet
  facet normal -0.55557 0.831469 0
    outer loop
      vertex 9.33381 -4.26274 1
      vertex 8.29565 -4.95641 11
      vertex 9.33381 -4.26274 11
    endloop
  endfacet
  facet normal -0.55557 0.831469 0
    outer loop
      vertex 8.29565 -4.95641 11
      vertex 9.33381 -4.26274 1
      vertex 8.29565 -4.95641 1
    endloop
  endfacet
  facet normal 0.831469 0.55557 0
    outer loop
      vertex 4.63277 -4 11
      vertex 4.80833 -4.26274 11
      vertex 4.63277 -4 4
    endloop
  endfacet
  facet normal 0.831469 0.55557 0
    outer loop
      vertex 4.63277 -4 4
      vertex 4.11465 -3.22459 1
      vertex 4.11465 -3.22459 4
    endloop
  endfacet
  facet normal 0.831469 0.55557 1.27426e-009
    outer loop
      vertex 4.63277 -4 4
      vertex 4.80833 -4.26274 1
      vertex 4.11465 -3.22459 1
    endloop
  endfacet
  facet normal 0.831469 0.55557 -0
    outer loop
      vertex 4.80833 -4.26274 1
      vertex 4.63277 -4 4
      vertex 4.80833 -4.26274 11
    endloop
  endfacet
  facet normal 0.980785 0.19509 0
    outer loop
      vertex 4.11465 -3.22459 4
      vertex 3.87107 -2 1
      vertex 3.87107 -2 4
    endloop
  endfacet
  facet normal 0.980785 0.19509 0
    outer loop
      vertex 3.87107 -2 1
      vertex 4.11465 -3.22459 4
      vertex 4.11465 -3.22459 1
    endloop
  endfacet
  facet normal 1 -0 0
    outer loop
      vertex 3.87107 -2 4
      vertex 3.87107 2 1
      vertex 3.87107 2 4
    endloop
  endfacet
  facet normal 1 0 0
    outer loop
      vertex 3.87107 2 1
      vertex 3.87107 -2 4
      vertex 3.87107 -2 1
    endloop
  endfacet
  facet normal -1 0 0
    outer loop
      vertex -3.87107 -2 1
      vertex -3.87107 2 4
      vertex -3.87107 2 1
    endloop
  endfacet
  facet normal -1 -0 0
    outer loop
      vertex -3.87107 2 4
      vertex -3.87107 -2 1
      vertex -3.87107 -2 4
    endloop
  endfacet
  facet normal 0.19509 -0.980785 0
    outer loop
      vertex -8.29565 4.95641 1
      vertex -7.07107 5.2 4
      vertex -8.29565 4.95641 4
    endloop
  endfacet
  facet normal 0.19509 -0.980785 0
    outer loop
      vertex -7.07107 5.2 4
      vertex -8.29565 4.95641 1
      vertex -7.07107 5.2 1
    endloop
  endfacet
  facet normal -0.55557 -0.831469 0
    outer loop
      vertex -5.84648 4.95641 1
      vertex -4.80833 4.26274 4
      vertex -5.84648 4.95641 4
    endloop
  endfacet
  facet normal -0.55557 -0.831469 -0
    outer loop
      vertex -4.80833 4.26274 4
      vertex -5.84648 4.95641 1
      vertex -4.80833 4.26274 1
    endloop
  endfacet
  facet normal 0 0 -1
    outer loop
      vertex -5.84648 -4.95641 11
      vertex -4.63277 -4 11
      vertex -4.80833 -4.26274 11
    endloop
  endfacet
  facet normal 0 0 -1
    outer loop
      vertex -7.07107 -5.2 11
      vertex -4.63277 -4 11
      vertex -5.84648 -4.95641 11
    endloop
  endfacet
  facet normal 0 0 -1
    outer loop
      vertex -9.50937 -4 11
      vertex -7.07107 -5.2 11
      vertex -8.29565 -4.95641 11
    endloop
  endfacet
  facet normal 0 0 -1
    outer loop
      vertex -9.50937 -4 11
      vertex -8.29565 -4.95641 11
      vertex -9.33381 -4.26274 11
    endloop
  endfacet
  facet normal 0 0 -1
    outer loop
      vertex -7.07107 -5.2 11
      vertex -9.50937 -4 11
      vertex -4.63277 -4 11
    endloop
  endfacet
  facet normal -0.19509 -0.980785 0
    outer loop
      vertex -7.07107 5.2 1
      vertex -5.84648 4.95641 4
      vertex -7.07107 5.2 4
    endloop
  endfacet
  facet normal -0.19509 -0.980785 -0
    outer loop
      vertex -5.84648 4.95641 4
      vertex -7.07107 5.2 1
      vertex -5.84648 4.95641 1
    endloop
  endfacet
  facet normal -0.980785 -0.19509 0
    outer loop
      vertex -3.87107 2 1
      vertex -4.11465 3.22459 4
      vertex -4.11465 3.22459 1
    endloop
  endfacet
  facet normal -0.980785 -0.19509 0
    outer loop
      vertex -4.11465 3.22459 4
      vertex -3.87107 2 1
      vertex -3.87107 2 4
    endloop
  endfacet
  facet normal 0.831469 -0.55557 0
    outer loop
      vertex -10 3.26572 4
      vertex -9.33381 4.26274 1
      vertex -9.33381 4.26274 4
    endloop
  endfacet
  facet normal 0.831469 -0.55557 0
    outer loop
      vertex -9.33381 4.26274 1
      vertex -10 3.26572 4
      vertex -10 3.26572 1
    endloop
  endfacet
  facet normal 0.55557 -0.831469 0
    outer loop
      vertex -9.33381 4.26274 1
      vertex -8.29565 4.95641 4
      vertex -9.33381 4.26274 4
    endloop
  endfacet
  facet normal 0.55557 -0.831469 0
    outer loop
      vertex -8.29565 4.95641 4
      vertex -9.33381 4.26274 1
      vertex -8.29565 4.95641 1
    endloop
  endfacet
  facet normal 0 0 1
    outer loop
      vertex -5.32107 2 1
      vertex -3.87107 2 1
      vertex -4.11465 3.22459 1
    endloop
  endfacet
  facet normal 0 0 1
    outer loop
      vertex -3.87107 2 1
      vertex -5.32107 2 1
      vertex -3.87107 -2 1
    endloop
  endfacet
  facet normal 0 0 1
    outer loop
      vertex -5.45428 2.6697 1
      vertex -4.11465 3.22459 1
      vertex -4.80833 4.26274 1
    endloop
  endfacet
  facet normal 0 0 1
    outer loop
      vertex -5.32107 -2 1
      vertex -3.87107 -2 1
      vertex -5.32107 2 1
    endloop
  endfacet
  facet normal 0 0 1
    outer loop
      vertex -3.87107 -2 1
      vertex -5.32107 -2 1
      vertex -4.11465 -3.22459 1
    endloop
  endfacet
  facet normal 0 0 1
    outer loop
      vertex -4.11465 3.22459 1
      vertex -5.45428 2.6697 1
      vertex -5.32107 2 1
    endloop
  endfacet
  facet normal 0 0 1
    outer loop
      vertex -4.80833 4.26274 1
      vertex -5.83363 3.23744 1
      vertex -5.45428 2.6697 1
    endloop
  endfacet
  facet normal 0 0 1
    outer loop
      vertex -5.84648 4.95641 1
      vertex -5.83363 3.23744 1
      vertex -4.80833 4.26274 1
    endloop
  endfacet
  facet normal 0 0 1
    outer loop
      vertex -5.84648 4.95641 1
      vertex -6.40137 3.61679 1
      vertex -5.83363 3.23744 1
    endloop
  endfacet
  facet normal 0 0 1
    outer loop
      vertex -7.07107 5.2 1
      vertex -6.40137 3.61679 1
      vertex -5.84648 4.95641 1
    endloop
  endfacet
  facet normal 0 0 1
    outer loop
      vertex -7.07107 5.2 1
      vertex -7.07107 3.75 1
      vertex -6.40137 3.61679 1
    endloop
  endfacet
  facet normal 0 0 1
    outer loop
      vertex -7.07107 5.2 1
      vertex -7.74076 3.61679 1
      vertex -7.07107 3.75 1
    endloop
  endfacet
  facet normal -0 0 1
    outer loop
      vertex -8.29565 4.95641 1
      vertex -7.74076 3.61679 1
      vertex -7.07107 5.2 1
    endloop
  endfacet
  facet normal 0 0 1
    outer loop
      vertex -8.29565 4.95641 1
      vertex -8.3085 3.23744 1
      vertex -7.74076 3.61679 1
    endloop
  endfacet
  facet normal -0 0 1
    outer loop
      vertex -9.33381 4.26274 1
      vertex -8.3085 3.23744 1
      vertex -8.29565 4.95641 1
    endloop
  endfacet
  facet normal -0 0 1
    outer loop
      vertex -10 3.26572 1
      vertex -8.3085 3.23744 1
      vertex -9.33381 4.26274 1
    endloop
  endfacet
  facet normal 0 0 1
    outer loop
      vertex -8.68786 2.6697 1
      vertex -10 3.26572 1
      vertex -8.82107 2 1
    endloop
  endfacet
  facet normal 0 0 1
    outer loop
      vertex -8.3085 3.23744 1
      vertex -10 3.26572 1
      vertex -8.68786 2.6697 1
    endloop
  endfacet
  facet normal -0 0 1
    outer loop
      vertex -5.45428 -2.6697 1
      vertex -4.11465 -3.22459 1
      vertex -5.32107 -2 1
    endloop
  endfacet
  facet normal 0 0 1
    outer loop
      vertex -4.11465 -3.22459 1
      vertex -5.45428 -2.6697 1
      vertex -4.80833 -4.26274 1
    endloop
  endfacet
  facet normal -0 0 1
    outer loop
      vertex -5.83363 -3.23744 1
      vertex -4.80833 -4.26274 1
      vertex -5.45428 -2.6697 1
    endloop
  endfacet
  facet normal 0 0 1
    outer loop
      vertex -5.83363 -3.23744 1
      vertex -5.84648 -4.95641 1
      vertex -4.80833 -4.26274 1
    endloop
  endfacet
  facet normal -0 0 1
    outer loop
      vertex -6.40137 -3.61679 1
      vertex -5.84648 -4.95641 1
      vertex -5.83363 -3.23744 1
    endloop
  endfacet
  facet normal -0 0 1
    outer loop
      vertex -7.07107 -3.75 1
      vertex -5.84648 -4.95641 1
      vertex -6.40137 -3.61679 1
    endloop
  endfacet
  facet normal 0 0 1
    outer loop
      vertex -7.07107 -3.75 1
      vertex -7.07107 -5.2 1
      vertex -5.84648 -4.95641 1
    endloop
  endfacet
  facet normal 0 0 1
    outer loop
      vertex -7.74076 -3.61679 1
      vertex -7.07107 -5.2 1
      vertex -7.07107 -3.75 1
    endloop
  endfacet
  facet normal 0 0 1
    outer loop
      vertex -7.74076 -3.61679 1
      vertex -8.29565 -4.95641 1
      vertex -7.07107 -5.2 1
    endloop
  endfacet
  facet normal 0 0 1
    outer loop
      vertex -8.3085 -3.23744 1
      vertex -8.29565 -4.95641 1
      vertex -7.74076 -3.61679 1
    endloop
  endfacet
  facet normal 0 0 1
    outer loop
      vertex -10 -3.26572 1
      vertex -8.3085 -3.23744 1
      vertex -8.68786 -2.6697 1
    endloop
  endfacet
  facet normal 0 0 1
    outer loop
      vertex -10 -3.26572 1
      vertex -8.68786 -2.6697 1
      vertex -8.82107 -2 1
    endloop
  endfacet
  facet normal 0 0 1
    outer loop
      vertex -8.3085 -3.23744 1
      vertex -9.33381 -4.26274 1
      vertex -8.29565 -4.95641 1
    endloop
  endfacet
  facet normal 0 0 1
    outer loop
      vertex -8.82107 2 1
      vertex -10 3.26572 1
      vertex -8.82107 -2 1
    endloop
  endfacet
  facet normal 0 0 1
    outer loop
      vertex -10 -3.26572 1
      vertex -8.82107 -2 1
      vertex -10 3.26572 1
    endloop
  endfacet
  facet normal 0 0 1
    outer loop
      vertex -8.3085 -3.23744 1
      vertex -10 -3.26572 1
      vertex -9.33381 -4.26274 1
    endloop
  endfacet
  facet normal 0.831469 0.55557 0
    outer loop
      vertex -9.50937 -4 11
      vertex -9.33381 -4.26274 11
      vertex -9.50937 -4 4
    endloop
  endfacet
  facet normal 0.831469 0.55557 0
    outer loop
      vertex -9.50937 -4 4
      vertex -10 -3.26572 1
      vertex -10 -3.26572 4
    endloop
  endfacet
  facet normal 0.831469 0.55557 -2.77361e-009
    outer loop
      vertex -9.50937 -4 4
      vertex -9.33381 -4.26274 1
      vertex -10 -3.26572 1
    endloop
  endfacet
  facet normal 0.831469 0.55557 -0
    outer loop
      vertex -9.33381 -4.26274 1
      vertex -9.50937 -4 4
      vertex -9.33381 -4.26274 11
    endloop
  endfacet
  facet normal 0.19509 0.980785 -0
    outer loop
      vertex -7.07107 -5.2 1
      vertex -8.29565 -4.95641 11
      vertex -7.07107 -5.2 11
    endloop
  endfacet
  facet normal 0.19509 0.980785 0
    outer loop
      vertex -8.29565 -4.95641 11
      vertex -7.07107 -5.2 1
      vertex -8.29565 -4.95641 1
    endloop
  endfacet
  facet normal -0.55557 0.831469 0
    outer loop
      vertex -4.80833 -4.26274 1
      vertex -5.84648 -4.95641 11
      vertex -4.80833 -4.26274 11
    endloop
  endfacet
  facet normal -0.55557 0.831469 0
    outer loop
      vertex -5.84648 -4.95641 11
      vertex -4.80833 -4.26274 1
      vertex -5.84648 -4.95641 1
    endloop
  endfacet
  facet normal -0.980785 0.19509 0
    outer loop
      vertex -4.11465 -3.22459 1
      vertex -3.87107 -2 4
      vertex -3.87107 -2 1
    endloop
  endfacet
  facet normal -0.980785 0.19509 0
    outer loop
      vertex -3.87107 -2 4
      vertex -4.11465 -3.22459 1
      vertex -4.11465 -3.22459 4
    endloop
  endfacet
  facet normal -0.831469 -0.55557 0
    outer loop
      vertex -4.11465 3.22459 1
      vertex -4.80833 4.26274 4
      vertex -4.80833 4.26274 1
    endloop
  endfacet
  facet normal -0.831469 -0.55557 0
    outer loop
      vertex -4.80833 4.26274 4
      vertex -4.11465 3.22459 1
      vertex -4.11465 3.22459 4
    endloop
  endfacet
  facet normal -0.19509 0.980785 0
    outer loop
      vertex -5.84648 -4.95641 1
      vertex -7.07107 -5.2 11
      vertex -5.84648 -4.95641 11
    endloop
  endfacet
  facet normal -0.19509 0.980785 0
    outer loop
      vertex -7.07107 -5.2 11
      vertex -5.84648 -4.95641 1
      vertex -7.07107 -5.2 1
    endloop
  endfacet
  facet normal -0.831469 0.55557 0
    outer loop
      vertex -4.11465 -3.22459 1
      vertex -4.63277 -4 4
      vertex -4.11465 -3.22459 4
    endloop
  endfacet
  facet normal -0.831469 0.55557 1.27426e-009
    outer loop
      vertex -4.80833 -4.26274 1
      vertex -4.63277 -4 4
      vertex -4.11465 -3.22459 1
    endloop
  endfacet
  facet normal -0.831469 0.55557 0
    outer loop
      vertex -4.80833 -4.26274 11
      vertex -4.63277 -4 4
      vertex -4.80833 -4.26274 1
    endloop
  endfacet
  facet normal -0.831469 0.55557 0
    outer loop
      vertex -4.63277 -4 4
      vertex -4.80833 -4.26274 11
      vertex -4.63277 -4 11
    endloop
  endfacet
  facet normal 0.55557 0.831469 -0
    outer loop
      vertex -8.29565 -4.95641 1
      vertex -9.33381 -4.26274 11
      vertex -8.29565 -4.95641 11
    endloop
  endfacet
  facet normal 0.55557 0.831469 0
    outer loop
      vertex -9.33381 -4.26274 11
      vertex -8.29565 -4.95641 1
      vertex -9.33381 -4.26274 1
    endloop
  endfacet
  facet normal -1 0 0
    outer loop
      vertex -10 6 0
      vertex -10 3.26572 1
      vertex -10 6 4
    endloop
  endfacet
  facet normal -1 0 0
    outer loop
      vertex -10 6 0
      vertex -10 -3.26572 1
      vertex -10 3.26572 1
    endloop
  endfacet
  facet normal -1 0 0
    outer loop
      vertex -10 -3.26572 1
      vertex -10 -4 4
      vertex -10 -3.26572 4
    endloop
  endfacet
  facet normal -1 0 0
    outer loop
      vertex -10 -8 0
      vertex -10 -3.26572 1
      vertex -10 6 0
    endloop
  endfacet
  facet normal -1 0 0
    outer loop
      vertex -10 -8 0
      vertex -10 -4 4
      vertex -10 -3.26572 1
    endloop
  endfacet
  facet normal -1 0 0
    outer loop
      vertex -10 -8 31
      vertex -10 -4 4
      vertex -10 -8 0
    endloop
  endfacet
  facet normal -1 0 0
    outer loop
      vertex -10 -4 4
      vertex -10 -8 31
      vertex -10 -4 31
    endloop
  endfacet
  facet normal -1 -0 0
    outer loop
      vertex -10 6 4
      vertex -10 3.26572 1
      vertex -10 3.26572 4
    endloop
  endfacet
  facet normal -0 0 1
    outer loop
      vertex -10 -4 31
      vertex 10 -8 31
      vertex 10 -4 31
    endloop
  endfacet
  facet normal 0 0 1
    outer loop
      vertex 10 -8 31
      vertex -10 -4 31
      vertex -10 -8 31
    endloop
  endfacet
  facet normal 1 0 0
    outer loop
      vertex 10 -4 31
      vertex 10 -8 31
      vertex 10 -4 4
    endloop
  endfacet
  facet normal 1 0 0
    outer loop
      vertex 10 -3.26572 4
      vertex 10 -4 4
      vertex 10 -3.26572 1
    endloop
  endfacet
  facet normal 1 0 0
    outer loop
      vertex 10 3.26572 1
      vertex 10 6 4
      vertex 10 3.26572 4
    endloop
  endfacet
  facet normal 1 0 0
    outer loop
      vertex 10 6 4
      vertex 10 3.26572 1
      vertex 10 6 0
    endloop
  endfacet
  facet normal 1 -0 0
    outer loop
      vertex 10 -3.26572 1
      vertex 10 6 0
      vertex 10 3.26572 1
    endloop
  endfacet
  facet normal 1 0 0
    outer loop
      vertex 10 -3.26572 1
      vertex 10 -8 0
      vertex 10 6 0
    endloop
  endfacet
  facet normal 1 0 0
    outer loop
      vertex 10 -4 4
      vertex 10 -8 0
      vertex 10 -3.26572 1
    endloop
  endfacet
  facet normal 1 0 0
    outer loop
      vertex 10 -8 0
      vertex 10 -4 4
      vertex 10 -8 31
    endloop
  endfacet
  facet normal 0 0 -1
    outer loop
      vertex 10 -8 0
      vertex 8.82107 -2 0
      vertex 10 6 0
    endloop
  endfacet
  facet normal 0 0 -1
    outer loop
      vertex 10 -8 0
      vertex 8.68786 -2.6697 0
      vertex 8.82107 -2 0
    endloop
  endfacet
  facet normal 0 0 -1
    outer loop
      vertex 10 -8 0
      vertex 8.3085 -3.23744 0
      vertex 8.68786 -2.6697 0
    endloop
  endfacet
  facet normal 0 0 -1
    outer loop
      vertex 10 -8 0
      vertex 7.74076 -3.61679 0
      vertex 8.3085 -3.23744 0
    endloop
  endfacet
  facet normal 0 0 -1
    outer loop
      vertex 10 -8 0
      vertex 7.07107 -3.75 0
      vertex 7.74076 -3.61679 0
    endloop
  endfacet
  facet normal 0 0 -1
    outer loop
      vertex 10 -8 0
      vertex 6.40137 -3.61679 0
      vertex 7.07107 -3.75 0
    endloop
  endfacet
  facet normal 0 0 -1
    outer loop
      vertex 10 -8 0
      vertex 5.83363 -3.23744 0
      vertex 6.40137 -3.61679 0
    endloop
  endfacet
  facet normal 0 0 -1
    outer loop
      vertex 5.32107 -2 0
      vertex -5.32107 -2 0
      vertex 5.32107 2 0
    endloop
  endfacet
  facet normal 0 0 -1
    outer loop
      vertex 5.45428 -2.6697 0
      vertex -5.32107 -2 0
      vertex 5.32107 -2 0
    endloop
  endfacet
  facet normal 0 0 -1
    outer loop
      vertex -5.45428 -2.6697 0
      vertex 5.45428 -2.6697 0
      vertex 5.83363 -3.23744 0
    endloop
  endfacet
  facet normal 0 0 -1
    outer loop
      vertex -5.83363 -3.23744 0
      vertex 5.83363 -3.23744 0
      vertex 10 -8 0
    endloop
  endfacet
  facet normal 0 0 -1
    outer loop
      vertex 5.45428 -2.6697 0
      vertex -5.45428 -2.6697 0
      vertex -5.32107 -2 0
    endloop
  endfacet
  facet normal 0 0 -1
    outer loop
      vertex 5.83363 -3.23744 0
      vertex -5.83363 -3.23744 0
      vertex -5.45428 -2.6697 0
    endloop
  endfacet
  facet normal 0 0 -1
    outer loop
      vertex 10 -8 0
      vertex -6.40137 -3.61679 0
      vertex -5.83363 -3.23744 0
    endloop
  endfacet
  facet normal 0 0 -1
    outer loop
      vertex -10 -8 0
      vertex -6.40137 -3.61679 0
      vertex 10 -8 0
    endloop
  endfacet
  facet normal 0 0 -1
    outer loop
      vertex -6.40137 -3.61679 0
      vertex -10 -8 0
      vertex -7.07107 -3.75 0
    endloop
  endfacet
  facet normal 0 0 -1
    outer loop
      vertex -10 6 0
      vertex -8.82107 -2 0
      vertex -10 -8 0
    endloop
  endfacet
  facet normal -0 0 -1
    outer loop
      vertex -8.68786 -2.6697 0
      vertex -10 -8 0
      vertex -8.82107 -2 0
    endloop
  endfacet
  facet normal -0 0 -1
    outer loop
      vertex -8.3085 -3.23744 0
      vertex -10 -8 0
      vertex -8.68786 -2.6697 0
    endloop
  endfacet
  facet normal -0 0 -1
    outer loop
      vertex -7.74076 -3.61679 0
      vertex -10 -8 0
      vertex -8.3085 -3.23744 0
    endloop
  endfacet
  facet normal -0 0 -1
    outer loop
      vertex -7.07107 -3.75 0
      vertex -10 -8 0
      vertex -7.74076 -3.61679 0
    endloop
  endfacet
  facet normal 0 0 -1
    outer loop
      vertex 8.82107 2 0
      vertex 10 6 0
      vertex 8.82107 -2 0
    endloop
  endfacet
  facet normal 0 0 -1
    outer loop
      vertex 8.68786 2.6697 0
      vertex 10 6 0
      vertex 8.82107 2 0
    endloop
  endfacet
  facet normal 0 0 -1
    outer loop
      vertex 8.3085 3.23744 0
      vertex 10 6 0
      vertex 8.68786 2.6697 0
    endloop
  endfacet
  facet normal 0 0 -1
    outer loop
      vertex 7.74076 3.61679 0
      vertex 10 6 0
      vertex 8.3085 3.23744 0
    endloop
  endfacet
  facet normal 0 0 -1
    outer loop
      vertex 7.07107 3.75 0
      vertex 10 6 0
      vertex 7.74076 3.61679 0
    endloop
  endfacet
  facet normal 0 0 -1
    outer loop
      vertex 6.40137 3.61679 0
      vertex 10 6 0
      vertex 7.07107 3.75 0
    endloop
  endfacet
  facet normal 0 0 -1
    outer loop
      vertex -5.32107 2 0
      vertex 5.32107 2 0
      vertex -5.32107 -2 0
    endloop
  endfacet
  facet normal 0 0 -1
    outer loop
      vertex 5.32107 2 0
      vertex -5.32107 2 0
      vertex 5.45428 2.6697 0
    endloop
  endfacet
  facet normal 0 0 -1
    outer loop
      vertex -5.45428 2.6697 0
      vertex 5.45428 2.6697 0
      vertex -5.32107 2 0
    endloop
  endfacet
  facet normal 0 0 -1
    outer loop
      vertex 5.45428 2.6697 0
      vertex -5.45428 2.6697 0
      vertex 5.83363 3.23744 0
    endloop
  endfacet
  facet normal 0 0 -1
    outer loop
      vertex -5.83363 3.23744 0
      vertex 5.83363 3.23744 0
      vertex -5.45428 2.6697 0
    endloop
  endfacet
  facet normal 0 0 -1
    outer loop
      vertex 5.83363 3.23744 0
      vertex -5.83363 3.23744 0
      vertex 6.40137 3.61679 0
    endloop
  endfacet
  facet normal 0 0 -1
    outer loop
      vertex -6.40137 3.61679 0
      vertex 6.40137 3.61679 0
      vertex -5.83363 3.23744 0
    endloop
  endfacet
  facet normal 0 0 -1
    outer loop
      vertex 6.40137 3.61679 0
      vertex -6.40137 3.61679 0
      vertex 10 6 0
    endloop
  endfacet
  facet normal 0 0 -1
    outer loop
      vertex -10 6 0
      vertex -6.40137 3.61679 0
      vertex -7.07107 3.75 0
    endloop
  endfacet
  facet normal 0 0 -1
    outer loop
      vertex -6.40137 3.61679 0
      vertex -10 6 0
      vertex 10 6 0
    endloop
  endfacet
  facet normal 0 0 -1
    outer loop
      vertex -7.74076 3.61679 0
      vertex -10 6 0
      vertex -7.07107 3.75 0
    endloop
  endfacet
  facet normal 0 0 -1
    outer loop
      vertex -8.3085 3.23744 0
      vertex -10 6 0
      vertex -7.74076 3.61679 0
    endloop
  endfacet
  facet normal 0 0 -1
    outer loop
      vertex -8.68786 2.6697 0
      vertex -10 6 0
      vertex -8.3085 3.23744 0
    endloop
  endfacet
  facet normal 0 0 -1
    outer loop
      vertex -8.82107 2 0
      vertex -10 6 0
      vertex -8.68786 2.6697 0
    endloop
  endfacet
  facet normal 0 0 -1
    outer loop
      vertex -8.82107 -2 0
      vertex -10 6 0
      vertex -8.82107 2 0
    endloop
  endfacet
  facet normal 0 -1 0
    outer loop
      vertex -10 -8 31
      vertex 0 -8 27.6
      vertex 10 -8 31
    endloop
  endfacet
  facet normal 0 -1 0
    outer loop
      vertex -10 -8 31
      vertex -0.612293 -8 27.4782
      vertex 0 -8 27.6
    endloop
  endfacet
  facet normal 0 -1 0
    outer loop
      vertex -10 -8 31
      vertex -1.13137 -8 27.1314
      vertex -0.612293 -8 27.4782
    endloop
  endfacet
  facet normal 0 -1 0
    outer loop
      vertex -10 -8 31
      vertex -1.47821 -8 26.6123
      vertex -1.13137 -8 27.1314
    endloop
  endfacet
  facet normal 0 -1 0
    outer loop
      vertex -10 -8 31
      vertex -1.54008 -8 26.3012
      vertex -1.47821 -8 26.6123
    endloop
  endfacet
  facet normal 0 -1 0
    outer loop
      vertex -10 -8 31
      vertex -1.6 -8 26
      vertex -1.54008 -8 26.3012
    endloop
  endfacet
  facet normal 0 -1 0
    outer loop
      vertex -10 -8 31
      vertex -1.53813 -8 25.6889
      vertex -1.6 -8 26
    endloop
  endfacet
  facet normal 0 -1 0
    outer loop
      vertex -10 -8 31
      vertex -1.47821 -8 25.3877
      vertex -1.53813 -8 25.6889
    endloop
  endfacet
  facet normal 0 -1 0
    outer loop
      vertex -10 -8 31
      vertex -1.13137 -8 24.8686
      vertex -1.47821 -8 25.3877
    endloop
  endfacet
  facet normal 0 -1 -0
    outer loop
      vertex -0.612293 -8 24.5218
      vertex -10 -8 0
      vertex 0 -8 24.4
    endloop
  endfacet
  facet normal 0 -1 -0
    outer loop
      vertex -1.13137 -8 24.8686
      vertex -10 -8 0
      vertex -0.612293 -8 24.5218
    endloop
  endfacet
  facet normal 0 -1 0
    outer loop
      vertex -10 -8 0
      vertex -1.13137 -8 24.8686
      vertex -10 -8 31
    endloop
  endfacet
  facet normal 0 -1 0
    outer loop
      vertex 0.612293 -8 27.4782
      vertex 10 -8 31
      vertex 0 -8 27.6
    endloop
  endfacet
  facet normal 0 -1 0
    outer loop
      vertex 1.13137 -8 27.1314
      vertex 10 -8 31
      vertex 0.612293 -8 27.4782
    endloop
  endfacet
  facet normal 0 -1 0
    outer loop
      vertex 1.47821 -8 26.6123
      vertex 10 -8 31
      vertex 1.13137 -8 27.1314
    endloop
  endfacet
  facet normal 0 -1 0
    outer loop
      vertex 1.54008 -8 26.3012
      vertex 10 -8 31
      vertex 1.47821 -8 26.6123
    endloop
  endfacet
  facet normal 0 -1 0
    outer loop
      vertex 1.6 -8 26
      vertex 10 -8 31
      vertex 1.54008 -8 26.3012
    endloop
  endfacet
  facet normal 0 -1 0
    outer loop
      vertex 1.53813 -8 25.6889
      vertex 10 -8 31
      vertex 1.6 -8 26
    endloop
  endfacet
  facet normal 0 -1 0
    outer loop
      vertex 1.47821 -8 25.3877
      vertex 10 -8 31
      vertex 1.53813 -8 25.6889
    endloop
  endfacet
  facet normal 0 -1 0
    outer loop
      vertex 1.13137 -8 24.8686
      vertex 10 -8 31
      vertex 1.47821 -8 25.3877
    endloop
  endfacet
  facet normal 0 -1 0
    outer loop
      vertex 10 -8 0
      vertex 0 -8 24.4
      vertex -10 -8 0
    endloop
  endfacet
  facet normal 0 -1 0
    outer loop
      vertex 0 -8 24.4
      vertex 10 -8 0
      vertex 0.612293 -8 24.5218
    endloop
  endfacet
  facet normal 0 -1 0
    outer loop
      vertex 0.612293 -8 24.5218
      vertex 10 -8 0
      vertex 1.13137 -8 24.8686
    endloop
  endfacet
  facet normal 0 -1 0
    outer loop
      vertex 1.13137 -8 24.8686
      vertex 10 -8 0
      vertex 10 -8 31
    endloop
  endfacet
  facet normal 0 1 -0
    outer loop
      vertex 4.63277 -4 4
      vertex -4.63277 -4 11
      vertex 4.63277 -4 11
    endloop
  endfacet
  facet normal 0 1 0
    outer loop
      vertex -4.63277 -4 11
      vertex 4.63277 -4 4
      vertex -4.63277 -4 4
    endloop
  endfacet
  facet normal 0 1 0
    outer loop
      vertex 10 -4 31
      vertex 0 -4 27.6
      vertex -10 -4 31
    endloop
  endfacet
  facet normal 0 1 0
    outer loop
      vertex 10 -4 31
      vertex 0.612293 -4 27.4782
      vertex 0 -4 27.6
    endloop
  endfacet
  facet normal 0 1 0
    outer loop
      vertex 10 -4 31
      vertex 1.13137 -4 27.1314
      vertex 0.612293 -4 27.4782
    endloop
  endfacet
  facet normal 0 1 0
    outer loop
      vertex 10 -4 31
      vertex 1.47821 -4 26.6123
      vertex 1.13137 -4 27.1314
    endloop
  endfacet
  facet normal 0 1 0
    outer loop
      vertex 10 -4 31
      vertex 1.53959 -4 26.3037
      vertex 1.47821 -4 26.6123
    endloop
  endfacet
  facet normal 0 1 0
    outer loop
      vertex 10 -4 31
      vertex 1.6 -4 26
      vertex 1.53959 -4 26.3037
    endloop
  endfacet
  facet normal 0 1 0
    outer loop
      vertex 10 -4 31
      vertex 1.53862 -4 25.6914
      vertex 1.6 -4 26
    endloop
  endfacet
  facet normal 0 1 0
    outer loop
      vertex 10 -4 31
      vertex 1.47821 -4 25.3877
      vertex 1.53862 -4 25.6914
    endloop
  endfacet
  facet normal 0 1 -0
    outer loop
      vertex 9.50937 -4 11
      vertex 1.47821 -4 25.3877
      vertex 10 -4 31
    endloop
  endfacet
  facet normal 0 1 0
    outer loop
      vertex 1.13137 -4 24.8686
      vertex 4.63277 -4 11
      vertex 0.612293 -4 24.5218
    endloop
  endfacet
  facet normal 0 1 -0
    outer loop
      vertex 4.63277 -4 11
      vertex 1.13137 -4 24.8686
      vertex 9.50937 -4 11
    endloop
  endfacet
  facet normal 0 1 0
    outer loop
      vertex 1.47821 -4 25.3877
      vertex 9.50937 -4 11
      vertex 1.13137 -4 24.8686
    endloop
  endfacet
  facet normal 0 1 -0
    outer loop
      vertex 10 -4 4
      vertex 9.50937 -4 11
      vertex 10 -4 31
    endloop
  endfacet
  facet normal 0 1 0
    outer loop
      vertex 9.50937 -4 11
      vertex 10 -4 4
      vertex 9.50937 -4 4
    endloop
  endfacet
  facet normal 0 1 -0
    outer loop
      vertex -0.612293 -4 27.4782
      vertex -10 -4 31
      vertex 0 -4 27.6
    endloop
  endfacet
  facet normal 0 1 -0
    outer loop
      vertex -1.13137 -4 27.1314
      vertex -10 -4 31
      vertex -0.612293 -4 27.4782
    endloop
  endfacet
  facet normal 0 1 -0
    outer loop
      vertex -1.47821 -4 26.6123
      vertex -10 -4 31
      vertex -1.13137 -4 27.1314
    endloop
  endfacet
  facet normal 0 1 -0
    outer loop
      vertex -1.53959 -4 26.3037
      vertex -10 -4 31
      vertex -1.47821 -4 26.6123
    endloop
  endfacet
  facet normal 0 1 -0
    outer loop
      vertex -1.6 -4 26
      vertex -10 -4 31
      vertex -1.53959 -4 26.3037
    endloop
  endfacet
  facet normal 0 1 0
    outer loop
      vertex -1.53862 -4 25.6914
      vertex -10 -4 31
      vertex -1.6 -4 26
    endloop
  endfacet
  facet normal 0 1 0
    outer loop
      vertex -1.47821 -4 25.3877
      vertex -10 -4 31
      vertex -1.53862 -4 25.6914
    endloop
  endfacet
  facet normal 0 1 0
    outer loop
      vertex -9.50937 -4 11
      vertex -1.47821 -4 25.3877
      vertex -1.13137 -4 24.8686
    endloop
  endfacet
  facet normal 0 1 0
    outer loop
      vertex 0.612293 -4 24.5218
      vertex 4.63277 -4 11
      vertex 0 -4 24.4
    endloop
  endfacet
  facet normal 0 1 0
    outer loop
      vertex -4.63277 -4 11
      vertex 0 -4 24.4
      vertex 4.63277 -4 11
    endloop
  endfacet
  facet normal 0 1 0
    outer loop
      vertex 0 -4 24.4
      vertex -4.63277 -4 11
      vertex -0.612293 -4 24.5218
    endloop
  endfacet
  facet normal 0 1 0
    outer loop
      vertex -0.612293 -4 24.5218
      vertex -4.63277 -4 11
      vertex -1.13137 -4 24.8686
    endloop
  endfacet
  facet normal 0 1 0
    outer loop
      vertex -9.50937 -4 11
      vertex -1.13137 -4 24.8686
      vertex -4.63277 -4 11
    endloop
  endfacet
  facet normal 0 1 0
    outer loop
      vertex -1.47821 -4 25.3877
      vertex -9.50937 -4 11
      vertex -10 -4 31
    endloop
  endfacet
  facet normal 0 1 0
    outer loop
      vertex -10 -4 4
      vertex -9.50937 -4 11
      vertex -9.50937 -4 4
    endloop
  endfacet
  facet normal 0 1 0
    outer loop
      vertex -9.50937 -4 11
      vertex -10 -4 4
      vertex -10 -4 31
    endloop
  endfacet
  facet normal 0 0 1
    outer loop
      vertex 10 6 4
      vertex 9.33381 4.26274 4
      vertex 10 3.26572 4
    endloop
  endfacet
  facet normal 0 0 1
    outer loop
      vertex 10 6 4
      vertex 8.29565 4.95641 4
      vertex 9.33381 4.26274 4
    endloop
  endfacet
  facet normal 0 0 1
    outer loop
      vertex 10 6 4
      vertex 7.07107 5.2 4
      vertex 8.29565 4.95641 4
    endloop
  endfacet
  facet normal 0 0 1
    outer loop
      vertex 10 6 4
      vertex 5.84648 4.95641 4
      vertex 7.07107 5.2 4
    endloop
  endfacet
  facet normal 0 0 1
    outer loop
      vertex 3.87107 2 4
      vertex -3.87107 2 4
      vertex 3.87107 -2 4
    endloop
  endfacet
  facet normal 0 0 1
    outer loop
      vertex 4.11465 3.22459 4
      vertex -3.87107 2 4
      vertex 3.87107 2 4
    endloop
  endfacet
  facet normal 0 0 1
    outer loop
      vertex -4.11465 3.22459 4
      vertex 4.11465 3.22459 4
      vertex 4.80833 4.26274 4
    endloop
  endfacet
  facet normal 0 0 1
    outer loop
      vertex -4.80833 4.26274 4
      vertex 4.80833 4.26274 4
      vertex 5.84648 4.95641 4
    endloop
  endfacet
  facet normal 0 0 1
    outer loop
      vertex 4.11465 3.22459 4
      vertex -4.11465 3.22459 4
      vertex -3.87107 2 4
    endloop
  endfacet
  facet normal 0 0 1
    outer loop
      vertex -5.84648 4.95641 4
      vertex 5.84648 4.95641 4
      vertex 10 6 4
    endloop
  endfacet
  facet normal 0 0 1
    outer loop
      vertex 4.80833 4.26274 4
      vertex -4.80833 4.26274 4
      vertex -4.11465 3.22459 4
    endloop
  endfacet
  facet normal 0 0 1
    outer loop
      vertex 5.84648 4.95641 4
      vertex -5.84648 4.95641 4
      vertex -4.80833 4.26274 4
    endloop
  endfacet
  facet normal 0 0 1
    outer loop
      vertex 10 6 4
      vertex -7.07107 5.2 4
      vertex -5.84648 4.95641 4
    endloop
  endfacet
  facet normal -0 0 1
    outer loop
      vertex -10 6 4
      vertex -7.07107 5.2 4
      vertex 10 6 4
    endloop
  endfacet
  facet normal 0 0 1
    outer loop
      vertex -10 6 4
      vertex -8.29565 4.95641 4
      vertex -7.07107 5.2 4
    endloop
  endfacet
  facet normal 0 0 1
    outer loop
      vertex -10 6 4
      vertex -9.33381 4.26274 4
      vertex -8.29565 4.95641 4
    endloop
  endfacet
  facet normal 0 0 1
    outer loop
      vertex -9.33381 4.26274 4
      vertex -10 6 4
      vertex -10 3.26572 4
    endloop
  endfacet
  facet normal 0 0 1
    outer loop
      vertex -3.87107 -2 4
      vertex 3.87107 -2 4
      vertex -3.87107 2 4
    endloop
  endfacet
  facet normal 0 0 1
    outer loop
      vertex 3.87107 -2 4
      vertex -3.87107 -2 4
      vertex 4.11465 -3.22459 4
    endloop
  endfacet
  facet normal 0 0 1
    outer loop
      vertex -4.11465 -3.22459 4
      vertex 4.11465 -3.22459 4
      vertex -3.87107 -2 4
    endloop
  endfacet
  facet normal 0 0 1
    outer loop
      vertex 4.11465 -3.22459 4
      vertex -4.11465 -3.22459 4
      vertex 4.63277 -4 4
    endloop
  endfacet
  facet normal 0 0 1
    outer loop
      vertex 4.63277 -4 4
      vertex -4.11465 -3.22459 4
      vertex -4.63277 -4 4
    endloop
  endfacet
  facet normal 0 0 1
    outer loop
      vertex -10 -3.26572 4
      vertex -10 -4 4
      vertex -9.50937 -4 4
    endloop
  endfacet
  facet normal 0 0 1
    outer loop
      vertex 10 -3.26572 4
      vertex 9.50937 -4 4
      vertex 10 -4 4
    endloop
  endfacet
  facet normal 0 1 -0
    outer loop
      vertex 10 6 0
      vertex -10 6 4
      vertex 10 6 4
    endloop
  endfacet
  facet normal 0 1 0
    outer loop
      vertex -10 6 4
      vertex 10 6 0
      vertex -10 6 0
    endloop
  endfacet
  facet normal -0.980785 5.36321e-008 -0.195091
    outer loop
      vertex 1.54008 -8 26.3012
      vertex 1.47821 -4 26.6123
      vertex 1.53959 -4 26.3037
    endloop
  endfacet
  facet normal -0.980785 -0 -0.19509
    outer loop
      vertex 1.47821 -4 26.6123
      vertex 1.54008 -8 26.3012
      vertex 1.47821 -8 26.6123
    endloop
  endfacet
  facet normal -0.83147 0 -0.55557
    outer loop
      vertex 1.47821 -8 26.6123
      vertex 1.13137 -4 27.1314
      vertex 1.47821 -4 26.6123
    endloop
  endfacet
  facet normal -0.83147 -0 -0.55557
    outer loop
      vertex 1.13137 -4 27.1314
      vertex 1.47821 -8 26.6123
      vertex 1.13137 -8 27.1314
    endloop
  endfacet
  facet normal -0.980785 0 -0.19509
    outer loop
      vertex 1.6 -8 26
      vertex 1.53959 -4 26.3037
      vertex 1.6 -4 26
    endloop
  endfacet
  facet normal -0.980785 5.34273e-008 -0.195091
    outer loop
      vertex 1.53959 -4 26.3037
      vertex 1.6 -8 26
      vertex 1.54008 -8 26.3012
    endloop
  endfacet
  facet normal 0.195089 0 -0.980786
    outer loop
      vertex -0.612293 -8 27.4782
      vertex 0 -4 27.6
      vertex 0 -8 27.6
    endloop
  endfacet
  facet normal 0.195089 0 -0.980786
    outer loop
      vertex 0 -4 27.6
      vertex -0.612293 -8 27.4782
      vertex -0.612293 -4 27.4782
    endloop
  endfacet
  facet normal 0.980785 -0 0.19509
    outer loop
      vertex -1.6 -8 26
      vertex -1.53862 -4 25.6914
      vertex -1.6 -4 26
    endloop
  endfacet
  facet normal 0.980785 3.98171e-008 0.19509
    outer loop
      vertex -1.53862 -4 25.6914
      vertex -1.6 -8 26
      vertex -1.53813 -8 25.6889
    endloop
  endfacet
  facet normal 0.83147 -0 0.55557
    outer loop
      vertex -1.47821 -8 25.3877
      vertex -1.13137 -4 24.8686
      vertex -1.47821 -4 25.3877
    endloop
  endfacet
  facet normal 0.83147 0 0.55557
    outer loop
      vertex -1.13137 -4 24.8686
      vertex -1.47821 -8 25.3877
      vertex -1.13137 -8 24.8686
    endloop
  endfacet
  facet normal -0.55557 0 -0.83147
    outer loop
      vertex 0.612293 -8 27.4782
      vertex 1.13137 -4 27.1314
      vertex 1.13137 -8 27.1314
    endloop
  endfacet
  facet normal -0.55557 0 -0.83147
    outer loop
      vertex 1.13137 -4 27.1314
      vertex 0.612293 -8 27.4782
      vertex 0.612293 -4 27.4782
    endloop
  endfacet
  facet normal 0.980785 5.29958e-008 -0.19509
    outer loop
      vertex -1.54008 -8 26.3012
      vertex -1.6 -4 26
      vertex -1.53959 -4 26.3037
    endloop
  endfacet
  facet normal 0.980785 0 -0.195091
    outer loop
      vertex -1.6 -4 26
      vertex -1.54008 -8 26.3012
      vertex -1.6 -8 26
    endloop
  endfacet
  facet normal -0.83147 0 0.55557
    outer loop
      vertex 1.13137 -8 24.8686
      vertex 1.47821 -4 25.3877
      vertex 1.13137 -4 24.8686
    endloop
  endfacet
  facet normal -0.83147 0 0.55557
    outer loop
      vertex 1.47821 -4 25.3877
      vertex 1.13137 -8 24.8686
      vertex 1.47821 -8 25.3877
    endloop
  endfacet
  facet normal -0.55557 0 0.83147
    outer loop
      vertex 0.612293 -4 24.5218
      vertex 1.13137 -8 24.8686
      vertex 1.13137 -4 24.8686
    endloop
  endfacet
  facet normal -0.55557 0 0.83147
    outer loop
      vertex 1.13137 -8 24.8686
      vertex 0.612293 -4 24.5218
      vertex 0.612293 -8 24.5218
    endloop
  endfacet
  facet normal 0.980785 3.92796e-008 0.195091
    outer loop
      vertex -1.53813 -8 25.6889
      vertex -1.47821 -4 25.3877
      vertex -1.53862 -4 25.6914
    endloop
  endfacet
  facet normal 0.980785 0 0.195091
    outer loop
      vertex -1.47821 -4 25.3877
      vertex -1.53813 -8 25.6889
      vertex -1.47821 -8 25.3877
    endloop
  endfacet
  facet normal -0.195089 0 -0.980786
    outer loop
      vertex 0 -8 27.6
      vertex 0.612293 -4 27.4782
      vertex 0.612293 -8 27.4782
    endloop
  endfacet
  facet normal -0.195089 0 -0.980786
    outer loop
      vertex 0.612293 -4 27.4782
      vertex 0 -8 27.6
      vertex 0 -4 27.6
    endloop
  endfacet
  facet normal 0.83147 0 -0.55557
    outer loop
      vertex -1.13137 -8 27.1314
      vertex -1.47821 -4 26.6123
      vertex -1.13137 -4 27.1314
    endloop
  endfacet
  facet normal 0.83147 0 -0.55557
    outer loop
      vertex -1.47821 -4 26.6123
      vertex -1.13137 -8 27.1314
      vertex -1.47821 -8 26.6123
    endloop
  endfacet
  facet normal 0.55557 0 -0.83147
    outer loop
      vertex -1.13137 -8 27.1314
      vertex -0.612293 -4 27.4782
      vertex -0.612293 -8 27.4782
    endloop
  endfacet
  facet normal 0.55557 0 -0.83147
    outer loop
      vertex -0.612293 -4 27.4782
      vertex -1.13137 -8 27.1314
      vertex -1.13137 -4 27.1314
    endloop
  endfacet
  facet normal 0.55557 0 0.83147
    outer loop
      vertex -1.13137 -4 24.8686
      vertex -0.612293 -8 24.5218
      vertex -0.612293 -4 24.5218
    endloop
  endfacet
  facet normal 0.55557 0 0.83147
    outer loop
      vertex -0.612293 -8 24.5218
      vertex -1.13137 -4 24.8686
      vertex -1.13137 -8 24.8686
    endloop
  endfacet
  facet normal -0.195092 0 0.980785
    outer loop
      vertex 0 -4 24.4
      vertex 0.612293 -8 24.5218
      vertex 0.612293 -4 24.5218
    endloop
  endfacet
  facet normal -0.195092 0 0.980785
    outer loop
      vertex 0.612293 -8 24.5218
      vertex 0 -4 24.4
      vertex 0 -8 24.4
    endloop
  endfacet
  facet normal -0.980785 0 0.195091
    outer loop
      vertex 1.47821 -8 25.3877
      vertex 1.53862 -4 25.6914
      vertex 1.47821 -4 25.3877
    endloop
  endfacet
  facet normal -0.980785 3.95992e-008 0.195091
    outer loop
      vertex 1.53862 -4 25.6914
      vertex 1.47821 -8 25.3877
      vertex 1.53813 -8 25.6889
    endloop
  endfacet
  facet normal -0.980785 4.01333e-008 0.19509
    outer loop
      vertex 1.53813 -8 25.6889
      vertex 1.6 -4 26
      vertex 1.53862 -4 25.6914
    endloop
  endfacet
  facet normal -0.980785 0 0.19509
    outer loop
      vertex 1.6 -4 26
      vertex 1.53813 -8 25.6889
      vertex 1.6 -8 26
    endloop
  endfacet
  facet normal 0.195092 0 0.980785
    outer loop
      vertex -0.612293 -4 24.5218
      vertex 0 -8 24.4
      vertex 0 -4 24.4
    endloop
  endfacet
  facet normal 0.195092 0 0.980785
    outer loop
      vertex 0 -8 24.4
      vertex -0.612293 -4 24.5218
      vertex -0.612293 -8 24.5218
    endloop
  endfacet
  facet normal 0.980785 0 -0.195091
    outer loop
      vertex -1.47821 -8 26.6123
      vertex -1.53959 -4 26.3037
      vertex -1.47821 -4 26.6123
    endloop
  endfacet
  facet normal 0.980785 5.32092e-008 -0.19509
    outer loop
      vertex -1.53959 -4 26.3037
      vertex -1.47821 -8 26.6123
      vertex -1.54008 -8 26.3012
    endloop
  endfacet
endsolid OpenSCAD_Model
