solid OpenSCAD_Model
  facet normal -0.707107 -0.707107 0
    outer loop
      vertex -2.05061 -15.6271 -4.525
      vertex -19.0212 1.3435 -2.975
      vertex -19.0212 1.3435 -4.525
    endloop
  endfacet
  facet normal -0.707107 -0.707107 0
    outer loop
      vertex -19.0212 1.3435 -2.975
      vertex -2.05061 -15.6271 -4.525
      vertex -2.05061 -15.6271 -2.975
    endloop
  endfacet
  facet normal -0 0 -1
    outer loop
      vertex -5.55112e-016 -7.07107 -4.525
      vertex -6.87787 -9.46514 -4.525
      vertex -5.93086 -5.93086 -4.525
    endloop
  endfacet
  facet normal 0 0 -1
    outer loop
      vertex -2.05061 -15.6271 -4.525
      vertex -7.54306 -8.79995 -4.525
      vertex -6.87787 -9.46514 -4.525
    endloop
  endfacet
  facet normal 0 0 -1
    outer loop
      vertex -2.05061 -15.6271 -4.525
      vertex -9.46514 -6.87787 -4.525
      vertex -7.54306 -8.79995 -4.525
    endloop
  endfacet
  facet normal 0 0 -1
    outer loop
      vertex -19.0212 1.3435 -4.525
      vertex -9.86414 -0.388909 -4.525
      vertex -9.46514 -6.87787 -4.525
    endloop
  endfacet
  facet normal 0 0 -1
    outer loop
      vertex -9.86414 -0.388909 -4.525
      vertex -19.0212 1.3435 -4.525
      vertex -13.6825 3.42947 -4.525
    endloop
  endfacet
  facet normal 0 0 -1
    outer loop
      vertex -19.0212 1.3435 -4.525
      vertex -9.46514 -6.87787 -4.525
      vertex -2.05061 -15.6271 -4.525
    endloop
  endfacet
  facet normal -0 0 -1
    outer loop
      vertex -6.89429 0.176777 -4.525
      vertex -7.07107 5.55112e-016 -4.525
      vertex -8.09637 1.37886 -4.525
    endloop
  endfacet
  facet normal -0 0 -1
    outer loop
      vertex 15.6271 2.05061 -4.525
      vertex 7.07107 -5.55112e-016 -4.525
      vertex 9.46514 6.87787 -4.525
    endloop
  endfacet
  facet normal 0 0 -1
    outer loop
      vertex 15.6271 2.05061 -4.525
      vertex -5.55112e-016 -7.07107 -4.525
      vertex 7.07107 -5.55112e-016 -4.525
    endloop
  endfacet
  facet normal 0 0 -1
    outer loop
      vertex -2.05061 -15.6271 -4.525
      vertex -5.55112e-016 -7.07107 -4.525
      vertex 15.6271 2.05061 -4.525
    endloop
  endfacet
  facet normal 0 0 -1
    outer loop
      vertex -6.87787 -9.46514 -4.525
      vertex -5.55112e-016 -7.07107 -4.525
      vertex -2.05061 -15.6271 -4.525
    endloop
  endfacet
  facet normal 0 0 -1
    outer loop
      vertex -5.93086 -5.93086 -4.525
      vertex -7.07107 5.55112e-016 -4.525
      vertex -5.55112e-016 -7.07107 -4.525
    endloop
  endfacet
  facet normal 0 0 -1
    outer loop
      vertex -6.83952 -6.17434 -4.525
      vertex -7.07107 5.55112e-016 -4.525
      vertex -5.93086 -5.93086 -4.525
    endloop
  endfacet
  facet normal 0 0 -1
    outer loop
      vertex -9.86414 -0.388909 -4.525
      vertex -7.07107 5.55112e-016 -4.525
      vertex -6.83952 -6.17434 -4.525
    endloop
  endfacet
  facet normal 0 0 -1
    outer loop
      vertex -9.86414 -0.388909 -4.525
      vertex -6.83952 -6.17434 -4.525
      vertex -9.46514 -6.87787 -4.525
    endloop
  endfacet
  facet normal -0 0 -1
    outer loop
      vertex -7.07107 5.55112e-016 -4.525
      vertex -9.86414 -0.388909 -4.525
      vertex -8.09637 1.37886 -4.525
    endloop
  endfacet
  facet normal 0 0 -1
    outer loop
      vertex 8.79995 7.54306 -4.525
      vertex 15.6271 2.05061 -4.525
      vertex 9.46514 6.87787 -4.525
    endloop
  endfacet
  facet normal 0 0 -1
    outer loop
      vertex 6.87787 9.46514 -4.525
      vertex 15.6271 2.05061 -4.525
      vertex 8.79995 7.54306 -4.525
    endloop
  endfacet
  facet normal 0 0 -1
    outer loop
      vertex 5.55112e-016 7.07107 -4.525
      vertex 6.17434 6.83952 -4.525
      vertex 5.93086 5.93086 -4.525
    endloop
  endfacet
  facet normal 0 0 -1
    outer loop
      vertex 6.17434 6.83952 -4.525
      vertex 5.55112e-016 7.07107 -4.525
      vertex 6.87787 9.46514 -4.525
    endloop
  endfacet
  facet normal 0 0 -1
    outer loop
      vertex 6.87787 9.46514 -4.525
      vertex -1.3435 19.0212 -4.525
      vertex 15.6271 2.05061 -4.525
    endloop
  endfacet
  facet normal 0 0 -1
    outer loop
      vertex 5.55112e-016 7.07107 -4.525
      vertex -1.3435 19.0212 -4.525
      vertex 6.87787 9.46514 -4.525
    endloop
  endfacet
  facet normal 0 0 -1
    outer loop
      vertex -5.19723 11.9147 -4.525
      vertex 5.55112e-016 7.07107 -4.525
      vertex -0.176777 6.89429 -4.525
    endloop
  endfacet
  facet normal 0 0 -1
    outer loop
      vertex 5.55112e-016 7.07107 -4.525
      vertex -5.19723 11.9147 -4.525
      vertex -1.3435 19.0212 -4.525
    endloop
  endfacet
  facet normal 0 0 -1
    outer loop
      vertex -19.0212 1.3435 -4.525
      vertex -5.19723 11.9147 -4.525
      vertex -13.6825 3.42947 -4.525
    endloop
  endfacet
  facet normal -0 0 -1
    outer loop
      vertex -5.19723 11.9147 -4.525
      vertex -19.0212 1.3435 -4.525
      vertex -1.3435 19.0212 -4.525
    endloop
  endfacet
  facet normal 0 0 -1
    outer loop
      vertex 7.07107 -5.55112e-016 -4.525
      vertex 5.93086 5.93086 -4.525
      vertex 9.46514 6.87787 -4.525
    endloop
  endfacet
  facet normal -0 -0 -1
    outer loop
      vertex 5.93086 5.93086 -4.525
      vertex 7.07107 -5.55112e-016 -4.525
      vertex 5.55112e-016 7.07107 -4.525
    endloop
  endfacet
  facet normal 0.707107 -0.707107 0
    outer loop
      vertex 13.5057 -0.0707107 0.0249996
      vertex 15.6271 2.05061 -4.525
      vertex 15.6271 2.05061 -2.975
    endloop
  endfacet
  facet normal 0.707107 -0.707107 7.06307e-008
    outer loop
      vertex 0.0707107 -13.5057 0.0249996
      vertex 15.6271 2.05061 -4.525
      vertex 13.5057 -0.0707107 0.0249996
    endloop
  endfacet
  facet normal 0.707107 -0.707107 0
    outer loop
      vertex -2.05061 -15.6271 -4.525
      vertex 0.0707107 -13.5057 0.0249996
      vertex -2.05061 -15.6271 -2.975
    endloop
  endfacet
  facet normal 0.707107 -0.707107 7.06307e-008
    outer loop
      vertex 0.0707107 -13.5057 0.0249996
      vertex -2.05061 -15.6271 -4.525
      vertex 15.6271 2.05061 -4.525
    endloop
  endfacet
  facet normal -0.707107 0.707107 0
    outer loop
      vertex -1.3435 19.0212 -4.525
      vertex -3.46482 16.8999 0.0249996
      vertex -1.3435 19.0212 -2.975
    endloop
  endfacet
  facet normal -0.707107 0.707107 -2.40839e-007
    outer loop
      vertex -1.3435 19.0212 -4.525
      vertex -16.8999 3.46482 0.0249996
      vertex -3.46482 16.8999 0.0249996
    endloop
  endfacet
  facet normal -0.707107 0.707107 -2.40839e-007
    outer loop
      vertex -19.0212 1.3435 -4.525
      vertex -16.8999 3.46482 0.0249996
      vertex -1.3435 19.0212 -4.525
    endloop
  endfacet
  facet normal -0.707107 0.707107 0
    outer loop
      vertex -16.8999 3.46482 0.0249996
      vertex -19.0212 1.3435 -4.525
      vertex -19.0212 1.3435 -2.975
    endloop
  endfacet
  facet normal 0.707107 0.707107 0
    outer loop
      vertex 15.6271 2.05061 -2.975
      vertex -1.3435 19.0212 -4.525
      vertex -1.3435 19.0212 -2.975
    endloop
  endfacet
  facet normal 0.707107 0.707107 0
    outer loop
      vertex -1.3435 19.0212 -4.525
      vertex 15.6271 2.05061 -2.975
      vertex 15.6271 2.05061 -4.525
    endloop
  endfacet
  facet normal 0 0 1
    outer loop
      vertex 1.4202 4.0587 0.0249996
      vertex 6.6468 6.6468 0.0249996
      vertex 6.67669 6.75834 0.0249996
    endloop
  endfacet
  facet normal 0 0 1
    outer loop
      vertex 6.6468 6.6468 0.0249996
      vertex 4.0587 1.4202 0.0249996
      vertex 4.27296 -0.481447 0.0249996
    endloop
  endfacet
  facet normal 0 0 1
    outer loop
      vertex 6.6468 6.6468 0.0249996
      vertex 3.04056 3.04056 0.0249996
      vertex 4.0587 1.4202 0.0249996
    endloop
  endfacet
  facet normal 0 0 1
    outer loop
      vertex 6.6468 6.6468 0.0249996
      vertex 1.4202 4.0587 0.0249996
      vertex 3.04056 3.04056 0.0249996
    endloop
  endfacet
  facet normal 0 0 1
    outer loop
      vertex 6.67669 6.75834 0.0249996
      vertex -0.481447 4.27296 0.0249996
      vertex 1.4202 4.0587 0.0249996
    endloop
  endfacet
  facet normal 0 0 1
    outer loop
      vertex -3.46482 16.8999 0.0249996
      vertex -0.481447 4.27296 0.0249996
      vertex 6.67669 6.75834 0.0249996
    endloop
  endfacet
  facet normal 0 0 1
    outer loop
      vertex -3.46482 16.8999 0.0249996
      vertex -2.28774 3.64091 0.0249996
      vertex -0.481447 4.27296 0.0249996
    endloop
  endfacet
  facet normal 0 0 1
    outer loop
      vertex -3.46482 16.8999 0.0249996
      vertex -3.64091 2.28774 0.0249996
      vertex -2.28774 3.64091 0.0249996
    endloop
  endfacet
  facet normal -0 0 1
    outer loop
      vertex -16.8999 3.46482 0.0249996
      vertex -3.64091 2.28774 0.0249996
      vertex -3.46482 16.8999 0.0249996
    endloop
  endfacet
  facet normal 0 0 1
    outer loop
      vertex -3.64091 2.28774 0.0249996
      vertex -16.8999 3.46482 0.0249996
      vertex -4.27296 0.481447 0.0249996
    endloop
  endfacet
  facet normal 0 -0 1
    outer loop
      vertex -6.75834 -6.67669 0.0249996
      vertex -4.27296 0.481447 0.0249996
      vertex -16.8999 3.46482 0.0249996
    endloop
  endfacet
  facet normal 0 0 1
    outer loop
      vertex -4.27296 0.481447 0.0249996
      vertex -6.75834 -6.67669 0.0249996
      vertex -6.6468 -6.6468 0.0249996
    endloop
  endfacet
  facet normal 0 0 1
    outer loop
      vertex 4.27296 -0.481447 0.0249996
      vertex 6.75834 6.67669 0.0249996
      vertex 6.6468 6.6468 0.0249996
    endloop
  endfacet
  facet normal 0 0 1
    outer loop
      vertex 6.75834 6.67669 0.0249996
      vertex 4.27296 -0.481447 0.0249996
      vertex 13.5057 -0.0707107 0.0249996
    endloop
  endfacet
  facet normal 0 0 1
    outer loop
      vertex 3.64091 -2.28774 0.0249996
      vertex 13.5057 -0.0707107 0.0249996
      vertex 4.27296 -0.481447 0.0249996
    endloop
  endfacet
  facet normal 0 0 1
    outer loop
      vertex 2.28774 -3.64091 0.0249996
      vertex 13.5057 -0.0707107 0.0249996
      vertex 3.64091 -2.28774 0.0249996
    endloop
  endfacet
  facet normal 0 0 1
    outer loop
      vertex 0.0707107 -13.5057 0.0249996
      vertex 2.28774 -3.64091 0.0249996
      vertex 0.481447 -4.27296 0.0249996
    endloop
  endfacet
  facet normal -0 0 1
    outer loop
      vertex 2.28774 -3.64091 0.0249996
      vertex 0.0707107 -13.5057 0.0249996
      vertex 13.5057 -0.0707107 0.0249996
    endloop
  endfacet
  facet normal 0 0 1
    outer loop
      vertex -1.4202 -4.0587 0.0249996
      vertex 0.0707107 -13.5057 0.0249996
      vertex 0.481447 -4.27296 0.0249996
    endloop
  endfacet
  facet normal 0 0 1
    outer loop
      vertex -6.6468 -6.6468 0.0249996
      vertex -1.4202 -4.0587 0.0249996
      vertex -3.04056 -3.04056 0.0249996
    endloop
  endfacet
  facet normal 0 0 1
    outer loop
      vertex -6.6468 -6.6468 0.0249996
      vertex -3.04056 -3.04056 0.0249996
      vertex -4.0587 -1.4202 0.0249996
    endloop
  endfacet
  facet normal 0 0 1
    outer loop
      vertex -6.6468 -6.6468 0.0249996
      vertex -4.0587 -1.4202 0.0249996
      vertex -4.27296 0.481447 0.0249996
    endloop
  endfacet
  facet normal 0 0 1
    outer loop
      vertex -1.4202 -4.0587 0.0249996
      vertex -6.6468 -6.6468 0.0249996
      vertex -6.67669 -6.75834 0.0249996
    endloop
  endfacet
  facet normal 0 0 1
    outer loop
      vertex -1.4202 -4.0587 0.0249996
      vertex -6.67669 -6.75834 0.0249996
      vertex 0.0707107 -13.5057 0.0249996
    endloop
  endfacet
  facet normal 0.5 0.5 0.707107
    outer loop
      vertex 15.6271 2.05061 -2.975
      vertex 8.48714 7.13992 -1.525
      vertex 13.5057 -0.0707107 0.0249996
    endloop
  endfacet
  facet normal 0.5 0.5 0.707107
    outer loop
      vertex 15.6271 2.05061 -2.975
      vertex 7.13992 8.48714 -1.525
      vertex 8.48714 7.13992 -1.525
    endloop
  endfacet
  facet normal 0.5 0.5 0.707107
    outer loop
      vertex -1.3435 19.0212 -2.975
      vertex 7.13992 8.48714 -1.525
      vertex 15.6271 2.05061 -2.975
    endloop
  endfacet
  facet normal 0.5 0.5 0.707107
    outer loop
      vertex -3.46482 16.8999 0.0249996
      vertex 7.13992 8.48714 -1.525
      vertex -1.3435 19.0212 -2.975
    endloop
  endfacet
  facet normal 0.5 0.5 0.707107
    outer loop
      vertex 7.13992 8.48714 -1.525
      vertex -3.46482 16.8999 0.0249996
      vertex 6.67669 6.75834 0.0249996
    endloop
  endfacet
  facet normal 0.5 0.5 0.707107
    outer loop
      vertex 13.5057 -0.0707107 0.0249996
      vertex 8.48714 7.13992 -1.525
      vertex 6.75834 6.67669 0.0249996
    endloop
  endfacet
  facet normal -0.5 -0.5 0.707107
    outer loop
      vertex -6.75834 -6.67669 0.0249996
      vertex -16.8999 3.46482 0.0249996
      vertex -8.48714 -7.13992 -1.525
    endloop
  endfacet
  facet normal -0.5 -0.5 0.707107
    outer loop
      vertex -7.13992 -8.48714 -1.525
      vertex 0.0707107 -13.5057 0.0249996
      vertex -6.67669 -6.75834 0.0249996
    endloop
  endfacet
  facet normal -0.5 -0.5 0.707107
    outer loop
      vertex 0.0707107 -13.5057 0.0249996
      vertex -7.13992 -8.48714 -1.525
      vertex -2.05061 -15.6271 -2.975
    endloop
  endfacet
  facet normal -0.5 -0.5 0.707107
    outer loop
      vertex -8.48714 -7.13992 -1.525
      vertex -2.05061 -15.6271 -2.975
      vertex -7.13992 -8.48714 -1.525
    endloop
  endfacet
  facet normal -0.5 -0.5 0.707107
    outer loop
      vertex -19.0212 1.3435 -2.975
      vertex -8.48714 -7.13992 -1.525
      vertex -16.8999 3.46482 0.0249996
    endloop
  endfacet
  facet normal -0.5 -0.5 0.707107
    outer loop
      vertex -8.48714 -7.13992 -1.525
      vertex -19.0212 1.3435 -2.975
      vertex -2.05061 -15.6271 -2.975
    endloop
  endfacet
  facet normal -0.643726 0.643726 -0.413803
    outer loop
      vertex 7.07107 -5.55112e-016 -4.525
      vertex -5.27356e-016 -6.71751 -3.975
      vertex 6.71751 -5.27356e-016 -3.975
    endloop
  endfacet
  facet normal -0.643726 0.643726 -0.413803
    outer loop
      vertex -5.27356e-016 -6.71751 -3.975
      vertex 7.07107 -5.55112e-016 -4.525
      vertex -5.55112e-016 -7.07107 -4.525
    endloop
  endfacet
  facet normal -0.643726 -0.643726 -0.413803
    outer loop
      vertex 7.07107 -5.55112e-016 -4.525
      vertex 5.27356e-016 6.71751 -3.975
      vertex 5.55112e-016 7.07107 -4.525
    endloop
  endfacet
  facet normal -0.643726 -0.643726 -0.413803
    outer loop
      vertex 5.27356e-016 6.71751 -3.975
      vertex 7.07107 -5.55112e-016 -4.525
      vertex 6.71751 -5.27356e-016 -3.975
    endloop
  endfacet
  facet normal 0.643726 0.643726 -0.413803
    outer loop
      vertex -5.55112e-016 -7.07107 -4.525
      vertex -6.71751 5.27356e-016 -3.975
      vertex -5.27356e-016 -6.71751 -3.975
    endloop
  endfacet
  facet normal 0.643726 0.643726 -0.413803
    outer loop
      vertex -6.71751 5.27356e-016 -3.975
      vertex -5.55112e-016 -7.07107 -4.525
      vertex -7.07107 5.55112e-016 -4.525
    endloop
  endfacet
  facet normal 0.643727 -0.643726 -0.413803
    outer loop
      vertex -0.176777 6.89429 -4.525
      vertex 5.55112e-016 7.07107 -4.525
      vertex 5.27356e-016 6.71751 -3.975
    endloop
  endfacet
  facet normal 0.643726 -0.643727 -0.413803
    outer loop
      vertex -6.89429 0.176777 -4.525
      vertex -6.71751 5.27356e-016 -3.975
      vertex -7.07107 5.55112e-016 -4.525
    endloop
  endfacet
  facet normal 0.707107 0.707107 0
    outer loop
      vertex -5.27356e-016 -6.71751 -1.6
      vertex -6.71751 5.27356e-016 -3.05
      vertex -6.71751 5.27356e-016 -1.6
    endloop
  endfacet
  facet normal 0.707107 0.707107 -0
    outer loop
      vertex -5.27356e-016 -6.71751 -3.975
      vertex -6.71751 5.27356e-016 -3.05
      vertex -5.27356e-016 -6.71751 -1.6
    endloop
  endfacet
  facet normal 0.707107 0.707107 0
    outer loop
      vertex -6.71751 5.27356e-016 -3.05
      vertex -5.27356e-016 -6.71751 -3.975
      vertex -6.71751 5.27356e-016 -3.975
    endloop
  endfacet
  facet normal 0.707107 0.707107 0
    outer loop
      vertex -6.71751 5.27356e-016 -3.975
      vertex -8.09637 1.37886 -4.525
      vertex -8.09637 1.37886 -3.05
    endloop
  endfacet
  facet normal 0.707107 0.707107 -0
    outer loop
      vertex -6.71751 5.27356e-016 -3.975
      vertex -8.09637 1.37886 -3.05
      vertex -6.71751 5.27356e-016 -3.05
    endloop
  endfacet
  facet normal 0.707107 0.707107 4.17525e-007
    outer loop
      vertex -8.09637 1.37886 -4.525
      vertex -6.71751 5.27356e-016 -3.975
      vertex -6.89429 0.176777 -4.525
    endloop
  endfacet
  facet normal -0.707107 0.707107 0
    outer loop
      vertex -5.27356e-016 -6.71751 -3.975
      vertex 6.71751 -5.27356e-016 -1.6
      vertex 6.71751 -5.27356e-016 -3.975
    endloop
  endfacet
  facet normal -0.707107 0.707107 0
    outer loop
      vertex 6.71751 -5.27356e-016 -1.6
      vertex -5.27356e-016 -6.71751 -3.975
      vertex -5.27356e-016 -6.71751 -1.6
    endloop
  endfacet
  facet normal 0.707107 -0.707107 0
    outer loop
      vertex 5.27356e-016 6.71751 -3.05
      vertex 5.27356e-016 6.71751 -1.6
      vertex -1.0253 5.69221 -1.6
    endloop
  endfacet
  facet normal 0.707107 -0.707107 0
    outer loop
      vertex -5.69221 1.0253 -1.6
      vertex -6.71751 5.27356e-016 -1.6
      vertex -6.71751 5.27356e-016 -3.05
    endloop
  endfacet
  facet normal -0.707107 -0.707107 0
    outer loop
      vertex -0.176777 6.89429 -4.525
      vertex -5.19723 11.9147 -3.05
      vertex -5.19723 11.9147 -4.525
    endloop
  endfacet
  facet normal -0.707106 -0.707107 -0
    outer loop
      vertex 5.27356e-016 6.71751 -3.05
      vertex -0.176777 6.89429 -4.525
      vertex 5.27356e-016 6.71751 -3.975
    endloop
  endfacet
  facet normal -0.707107 -0.707107 1.35727e-007
    outer loop
      vertex -0.176777 6.89429 -4.525
      vertex 5.27356e-016 6.71751 -3.05
      vertex -5.19723 11.9147 -3.05
    endloop
  endfacet
  facet normal -0.707107 -0.707107 0
    outer loop
      vertex 6.71751 -5.27356e-016 -3.975
      vertex 5.27356e-016 6.71751 -3.05
      vertex 5.27356e-016 6.71751 -3.975
    endloop
  endfacet
  facet normal -0.707107 -0.707107 -0
    outer loop
      vertex 6.71751 -5.27356e-016 -1.6
      vertex 5.27356e-016 6.71751 -3.05
      vertex 6.71751 -5.27356e-016 -3.975
    endloop
  endfacet
  facet normal -0.707107 -0.707107 0
    outer loop
      vertex 5.27356e-016 6.71751 -3.05
      vertex 6.71751 -5.27356e-016 -1.6
      vertex 5.27356e-016 6.71751 -1.6
    endloop
  endfacet
  facet normal 0.388659 0.618547 -0.682894
    outer loop
      vertex -3.04056 -3.04056 0
      vertex -1.4202 -4.0587 0
      vertex -5.27356e-016 -6.71751 -1.6
    endloop
  endfacet
  facet normal -0.667693 0.667693 -0.329199
    outer loop
      vertex 6.71751 -5.27356e-016 -1.6
      vertex 2.28774 -3.64091 0
      vertex 3.64091 -2.28774 0
    endloop
  endfacet
  facet normal -0.667693 0.667693 -0.329199
    outer loop
      vertex 2.28774 -3.64091 0
      vertex 6.71751 -5.27356e-016 -1.6
      vertex -5.27356e-016 -6.71751 -1.6
    endloop
  endfacet
  facet normal -0.680697 -0.680697 -0.270746
    outer loop
      vertex 5.27356e-016 6.71751 -1.6
      vertex 6.71751 -5.27356e-016 -1.6
      vertex 3.04056 3.04056 0
    endloop
  endfacet
  facet normal 0.667693 -0.667693 -0.329199
    outer loop
      vertex 5.27356e-016 6.71751 -1.6
      vertex -1.39377 4.92931 -0.8
      vertex -1.0253 5.69221 -1.6
    endloop
  endfacet
  facet normal 0.667693 -0.667693 -0.3292
    outer loop
      vertex -2.28774 3.64091 0
      vertex -1.39377 4.92931 -0.8
      vertex 5.27356e-016 6.71751 -1.6
    endloop
  endfacet
  facet normal 0.667693 -0.667693 -0.329199
    outer loop
      vertex -4.92931 1.39377 -0.8
      vertex -2.28774 3.64091 0
      vertex -3.64091 2.28774 0
    endloop
  endfacet
  facet normal 0.667693 -0.667693 -0.329199
    outer loop
      vertex -2.28774 3.64091 0
      vertex -4.92931 1.39377 -0.8
      vertex -1.39377 4.92931 -0.8
    endloop
  endfacet
  facet normal 0.667693 -0.667693 -0.329199
    outer loop
      vertex -4.92931 1.39377 -0.8
      vertex -6.71751 5.27356e-016 -1.6
      vertex -5.69221 1.0253 -1.6
    endloop
  endfacet
  facet normal 0.667693 -0.667693 -0.3292
    outer loop
      vertex -6.71751 5.27356e-016 -1.6
      vertex -4.92931 1.39377 -0.8
      vertex -3.64091 2.28774 0
    endloop
  endfacet
  facet normal -0.538245 -0.0606456 -0.840604
    outer loop
      vertex 4.0587 1.4202 0
      vertex 6.71751 -5.27356e-016 -1.6
      vertex 4.27296 -0.481447 0
    endloop
  endfacet
  facet normal -0.618547 -0.388659 -0.682894
    outer loop
      vertex 3.04056 3.04056 0
      vertex 6.71751 -5.27356e-016 -1.6
      vertex 4.0587 1.4202 0
    endloop
  endfacet
  facet normal -0.563785 0.197277 -0.802015
    outer loop
      vertex 4.27296 -0.481447 0
      vertex 6.71751 -5.27356e-016 -1.6
      vertex 3.64091 -2.28774 0
    endloop
  endfacet
  facet normal -0.197277 0.563785 -0.802015
    outer loop
      vertex 0.481447 -4.27296 0
      vertex 2.28774 -3.64091 0
      vertex -5.27356e-016 -6.71751 -1.6
    endloop
  endfacet
  facet normal 0.538245 0.0606456 -0.840604
    outer loop
      vertex -4.27296 0.481447 0
      vertex -4.0587 -1.4202 0
      vertex -6.71751 5.27356e-016 -1.6
    endloop
  endfacet
  facet normal 0.680697 0.680697 -0.270746
    outer loop
      vertex -6.71751 5.27356e-016 -1.6
      vertex -3.04056 -3.04056 0
      vertex -5.27356e-016 -6.71751 -1.6
    endloop
  endfacet
  facet normal 0.197277 -0.563785 -0.802015
    outer loop
      vertex 5.27356e-016 6.71751 -1.6
      vertex -0.481447 4.27296 0
      vertex -2.28774 3.64091 0
    endloop
  endfacet
  facet normal 0.0606456 0.538245 -0.840604
    outer loop
      vertex -1.4202 -4.0587 0
      vertex 0.481447 -4.27296 0
      vertex -5.27356e-016 -6.71751 -1.6
    endloop
  endfacet
  facet normal 0.618547 0.388659 -0.682894
    outer loop
      vertex -4.0587 -1.4202 0
      vertex -3.04056 -3.04056 0
      vertex -6.71751 5.27356e-016 -1.6
    endloop
  endfacet
  facet normal 0.563785 -0.197277 -0.802015
    outer loop
      vertex -3.64091 2.28774 0
      vertex -4.27296 0.481447 0
      vertex -6.71751 5.27356e-016 -1.6
    endloop
  endfacet
  facet normal -0.388659 -0.618547 -0.682894
    outer loop
      vertex 5.27356e-016 6.71751 -1.6
      vertex 3.04056 3.04056 0
      vertex 1.4202 4.0587 0
    endloop
  endfacet
  facet normal -0.0606456 -0.538245 -0.840604
    outer loop
      vertex 5.27356e-016 6.71751 -1.6
      vertex 1.4202 4.0587 0
      vertex -0.481447 4.27296 0
    endloop
  endfacet
  facet normal 0.937086 -0.251091 -0.242536
    outer loop
      vertex 6.87787 9.46514 -4.525
      vertex 7.13992 8.48714 -2.5
      vertex 6.17434 6.83952 -4.525
    endloop
  endfacet
  facet normal -0.251091 0.937086 -0.242536
    outer loop
      vertex 5.93086 5.93086 -4.525
      vertex 8.48714 7.13992 -2.5
      vertex 9.46514 6.87787 -4.525
    endloop
  endfacet
  facet normal -0.251091 0.937086 -0.242536
    outer loop
      vertex 8.48714 7.13992 -2.5
      vertex 5.93086 5.93086 -4.525
      vertex 6.6468 6.6468 -2.5
    endloop
  endfacet
  facet normal -0.685994 -0.685994 -0.242536
    outer loop
      vertex 6.87787 9.46514 -4.525
      vertex 8.79995 7.54306 -4.525
      vertex 7.13992 8.48714 -2.5
    endloop
  endfacet
  facet normal 0.937086 -0.251091 -0.242536
    outer loop
      vertex 6.6468 6.6468 -2.5
      vertex 6.17434 6.83952 -4.525
      vertex 7.13992 8.48714 -2.5
    endloop
  endfacet
  facet normal 0.937086 -0.251092 -0.242536
    outer loop
      vertex 6.17434 6.83952 -4.525
      vertex 6.6468 6.6468 -2.5
      vertex 5.93086 5.93086 -4.525
    endloop
  endfacet
  facet normal -0.685994 -0.685994 -0.242536
    outer loop
      vertex 8.79995 7.54306 -4.525
      vertex 8.48714 7.13992 -2.5
      vertex 7.13992 8.48714 -2.5
    endloop
  endfacet
  facet normal -0.685994 -0.685994 -0.242536
    outer loop
      vertex 8.48714 7.13992 -2.5
      vertex 8.79995 7.54306 -4.525
      vertex 9.46514 6.87787 -4.525
    endloop
  endfacet
  facet normal -0.258819 0.965926 6.72677e-008
    outer loop
      vertex 6.6468 6.6468 -2.5
      vertex 6.75834 6.67669 0.0249996
      vertex 8.48714 7.13992 -1.525
    endloop
  endfacet
  facet normal -0.258819 0.965926 0
    outer loop
      vertex 6.6468 6.6468 -2.5
      vertex 8.48714 7.13992 -1.525
      vertex 8.48714 7.13992 -2.5
    endloop
  endfacet
  facet normal -0.258818 0.965926 0
    outer loop
      vertex 6.75834 6.67669 0.0249996
      vertex 6.6468 6.6468 -2.5
      vertex 6.6468 6.6468 0.0249996
    endloop
  endfacet
  facet normal 0.965926 -0.258819 7.03009e-008
    outer loop
      vertex 6.6468 6.6468 -2.5
      vertex 7.13992 8.48714 -1.525
      vertex 6.67669 6.75834 0.0249996
    endloop
  endfacet
  facet normal 0.965926 -0.258818 0
    outer loop
      vertex 6.6468 6.6468 -2.5
      vertex 6.67669 6.75834 0.0249996
      vertex 6.6468 6.6468 0.0249996
    endloop
  endfacet
  facet normal 0.965926 -0.258819 0
    outer loop
      vertex 7.13992 8.48714 -1.525
      vertex 6.6468 6.6468 -2.5
      vertex 7.13992 8.48714 -2.5
    endloop
  endfacet
  facet normal -0.707107 -0.707107 0
    outer loop
      vertex 7.13992 8.48714 -2.5
      vertex 8.48714 7.13992 -1.525
      vertex 7.13992 8.48714 -1.525
    endloop
  endfacet
  facet normal -0.707107 -0.707107 -0
    outer loop
      vertex 8.48714 7.13992 -1.525
      vertex 7.13992 8.48714 -2.5
      vertex 8.48714 7.13992 -2.5
    endloop
  endfacet
  facet normal 0.251091 -0.937086 -0.242536
    outer loop
      vertex -8.48714 -7.13992 -2.5
      vertex -9.46514 -6.87787 -4.525
      vertex -6.83952 -6.17434 -4.525
    endloop
  endfacet
  facet normal -0.937086 0.251091 -0.242536
    outer loop
      vertex -5.93086 -5.93086 -4.525
      vertex -7.13992 -8.48714 -2.5
      vertex -6.6468 -6.6468 -2.5
    endloop
  endfacet
  facet normal -0.937086 0.251091 -0.242536
    outer loop
      vertex -7.13992 -8.48714 -2.5
      vertex -5.93086 -5.93086 -4.525
      vertex -6.87787 -9.46514 -4.525
    endloop
  endfacet
  facet normal 0.685994 0.685994 -0.242536
    outer loop
      vertex -8.48714 -7.13992 -2.5
      vertex -7.54306 -8.79995 -4.525
      vertex -9.46514 -6.87787 -4.525
    endloop
  endfacet
  facet normal 0.251091 -0.937086 -0.242536
    outer loop
      vertex -6.83952 -6.17434 -4.525
      vertex -6.6468 -6.6468 -2.5
      vertex -8.48714 -7.13992 -2.5
    endloop
  endfacet
  facet normal 0.251092 -0.937086 -0.242536
    outer loop
      vertex -6.6468 -6.6468 -2.5
      vertex -6.83952 -6.17434 -4.525
      vertex -5.93086 -5.93086 -4.525
    endloop
  endfacet
  facet normal 0.685994 0.685994 -0.242536
    outer loop
      vertex -7.13992 -8.48714 -2.5
      vertex -7.54306 -8.79995 -4.525
      vertex -8.48714 -7.13992 -2.5
    endloop
  endfacet
  facet normal 0.685994 0.685994 -0.242536
    outer loop
      vertex -7.54306 -8.79995 -4.525
      vertex -7.13992 -8.48714 -2.5
      vertex -6.87787 -9.46514 -4.525
    endloop
  endfacet
  facet normal -0.965926 0.258818 0
    outer loop
      vertex -6.6468 -6.6468 -2.5
      vertex -6.67669 -6.75834 0.0249996
      vertex -6.6468 -6.6468 0.0249996
    endloop
  endfacet
  facet normal -0.965926 0.258819 0
    outer loop
      vertex -7.13992 -8.48714 -1.525
      vertex -6.6468 -6.6468 -2.5
      vertex -7.13992 -8.48714 -2.5
    endloop
  endfacet
  facet normal -0.965926 0.258819 6.72677e-008
    outer loop
      vertex -6.6468 -6.6468 -2.5
      vertex -7.13992 -8.48714 -1.525
      vertex -6.67669 -6.75834 0.0249996
    endloop
  endfacet
  facet normal 0.258819 -0.965926 7.03009e-008
    outer loop
      vertex -6.6468 -6.6468 -2.5
      vertex -6.75834 -6.67669 0.0249996
      vertex -8.48714 -7.13992 -1.525
    endloop
  endfacet
  facet normal 0.258819 -0.965926 0
    outer loop
      vertex -6.6468 -6.6468 -2.5
      vertex -8.48714 -7.13992 -1.525
      vertex -8.48714 -7.13992 -2.5
    endloop
  endfacet
  facet normal 0.258818 -0.965926 0
    outer loop
      vertex -6.75834 -6.67669 0.0249996
      vertex -6.6468 -6.6468 -2.5
      vertex -6.6468 -6.6468 0.0249996
    endloop
  endfacet
  facet normal 0.707107 0.707107 0
    outer loop
      vertex -7.13992 -8.48714 -1.525
      vertex -8.48714 -7.13992 -2.5
      vertex -8.48714 -7.13992 -1.525
    endloop
  endfacet
  facet normal 0.707107 0.707107 0
    outer loop
      vertex -8.48714 -7.13992 -2.5
      vertex -7.13992 -8.48714 -1.525
      vertex -7.13992 -8.48714 -2.5
    endloop
  endfacet
  facet normal 0 0 -1
    outer loop
      vertex -6.50538 2.96985 -0.8
      vertex -1.39377 4.92931 -0.8
      vertex -4.92931 1.39377 -0.8
    endloop
  endfacet
  facet normal -0 0 -1
    outer loop
      vertex -1.39377 4.92931 -0.8
      vertex -6.50538 2.96985 -0.8
      vertex -5.19723 8.73277 -0.8
    endloop
  endfacet
  facet normal 0 0 -1
    outer loop
      vertex -10.5005 3.42947 -0.8
      vertex -6.50538 2.96985 -0.8
      vertex -8.27315 1.20208 -0.8
    endloop
  endfacet
  facet normal 0 0 -1
    outer loop
      vertex -6.50538 2.96985 -0.8
      vertex -10.5005 3.42947 -0.8
      vertex -5.19723 8.73277 -0.8
    endloop
  endfacet
  facet normal -0.5 -0.5 -0.707107
    outer loop
      vertex -5.19723 8.73277 -0.8
      vertex -1.0253 5.69221 -1.6
      vertex -1.39377 4.92931 -0.8
    endloop
  endfacet
  facet normal -0.5 -0.5 -0.707107
    outer loop
      vertex -5.19723 8.73277 -0.8
      vertex 5.27356e-016 6.71751 -3.05
      vertex -1.0253 5.69221 -1.6
    endloop
  endfacet
  facet normal -0.5 -0.5 -0.707107
    outer loop
      vertex 5.27356e-016 6.71751 -3.05
      vertex -5.19723 8.73277 -0.8
      vertex -5.19723 11.9147 -3.05
    endloop
  endfacet
  facet normal 0.5 0.5 -0.707107
    outer loop
      vertex -5.69221 1.0253 -1.6
      vertex -6.50538 2.96985 -0.8
      vertex -4.92931 1.39377 -0.8
    endloop
  endfacet
  facet normal 0.5 0.5 -0.707107
    outer loop
      vertex -8.09637 1.37886 -3.05
      vertex -5.69221 1.0253 -1.6
      vertex -6.71751 5.27356e-016 -3.05
    endloop
  endfacet
  facet normal 0.5 0.5 -0.707107
    outer loop
      vertex -5.69221 1.0253 -1.6
      vertex -8.09637 1.37886 -3.05
      vertex -6.50538 2.96985 -0.8
    endloop
  endfacet
  facet normal 0.707107 0.707107 -0
    outer loop
      vertex -9.86414 -0.388909 -4.525
      vertex -13.6825 3.42947 -3.05
      vertex -9.86414 -0.388909 -3.05
    endloop
  endfacet
  facet normal 0.707107 0.707107 0
    outer loop
      vertex -13.6825 3.42947 -3.05
      vertex -9.86414 -0.388909 -4.525
      vertex -13.6825 3.42947 -4.525
    endloop
  endfacet
  facet normal -0.707107 0.707107 -5.99422e-008
    outer loop
      vertex -8.09637 1.37886 -3.05
      vertex -8.27315 1.20208 -0.8
      vertex -6.50538 2.96985 -0.8
    endloop
  endfacet
  facet normal -0.707107 0.707107 -7.49277e-008
    outer loop
      vertex -8.09637 1.37886 -3.05
      vertex -9.86414 -0.388909 -3.05
      vertex -8.27315 1.20208 -0.8
    endloop
  endfacet
  facet normal -0.707107 0.707107 0
    outer loop
      vertex -8.09637 1.37886 -4.525
      vertex -9.86414 -0.388909 -3.05
      vertex -8.09637 1.37886 -3.05
    endloop
  endfacet
  facet normal -0.707107 0.707107 0
    outer loop
      vertex -9.86414 -0.388909 -3.05
      vertex -8.09637 1.37886 -4.525
      vertex -9.86414 -0.388909 -4.525
    endloop
  endfacet
  facet normal 0.707107 -0.707107 0
    outer loop
      vertex -13.6825 3.42947 -3.05
      vertex -5.19723 11.9147 -4.525
      vertex -5.19723 11.9147 -3.05
    endloop
  endfacet
  facet normal 0.707107 -0.707107 0
    outer loop
      vertex -5.19723 11.9147 -4.525
      vertex -13.6825 3.42947 -3.05
      vertex -13.6825 3.42947 -4.525
    endloop
  endfacet
  facet normal 0.5 0.5 -0.707107
    outer loop
      vertex -9.86414 -0.388909 -3.05
      vertex -10.5005 3.42947 -0.8
      vertex -8.27315 1.20208 -0.8
    endloop
  endfacet
  facet normal 0.5 0.5 -0.707107
    outer loop
      vertex -10.5005 3.42947 -0.8
      vertex -9.86414 -0.388909 -3.05
      vertex -13.6825 3.42947 -3.05
    endloop
  endfacet
  facet normal 0.5 -0.5 -0.707107
    outer loop
      vertex -10.5005 3.42947 -0.8
      vertex -5.19723 11.9147 -3.05
      vertex -5.19723 8.73277 -0.8
    endloop
  endfacet
  facet normal 0.5 -0.5 -0.707107
    outer loop
      vertex -5.19723 11.9147 -3.05
      vertex -10.5005 3.42947 -0.8
      vertex -13.6825 3.42947 -3.05
    endloop
  endfacet
  facet normal -0.532032 -0.846724 0
    outer loop
      vertex 1.4202 4.0587 0
      vertex 3.04056 3.04056 0.0249996
      vertex 1.4202 4.0587 0.0249996
    endloop
  endfacet
  facet normal -0.532032 -0.846724 -0
    outer loop
      vertex 3.04056 3.04056 0.0249996
      vertex 1.4202 4.0587 0
      vertex 3.04056 3.04056 0
    endloop
  endfacet
  facet normal 0.846724 0.532032 0
    outer loop
      vertex -3.04056 -3.04056 0.0249996
      vertex -4.0587 -1.4202 0
      vertex -4.0587 -1.4202 0.0249996
    endloop
  endfacet
  facet normal 0.846724 0.532032 0
    outer loop
      vertex -4.0587 -1.4202 0
      vertex -3.04056 -3.04056 0.0249996
      vertex -3.04056 -3.04056 0
    endloop
  endfacet
  facet normal 0.707107 -0.707107 0
    outer loop
      vertex -3.64091 2.28774 0.0249996
      vertex -2.28774 3.64091 0
      vertex -2.28774 3.64091 0.0249996
    endloop
  endfacet
  facet normal 0.707107 -0.707107 0
    outer loop
      vertex -2.28774 3.64091 0
      vertex -3.64091 2.28774 0.0249996
      vertex -3.64091 2.28774 0
    endloop
  endfacet
  facet normal 0.330279 -0.943883 0
    outer loop
      vertex -2.28774 3.64091 0
      vertex -0.481447 4.27296 0.0249996
      vertex -2.28774 3.64091 0.0249996
    endloop
  endfacet
  facet normal 0.330279 -0.943883 0
    outer loop
      vertex -0.481447 4.27296 0.0249996
      vertex -2.28774 3.64091 0
      vertex -0.481447 4.27296 0
    endloop
  endfacet
  facet normal -0.111964 -0.993712 0
    outer loop
      vertex -0.481447 4.27296 0
      vertex 1.4202 4.0587 0.0249996
      vertex -0.481447 4.27296 0.0249996
    endloop
  endfacet
  facet normal -0.111964 -0.993712 -0
    outer loop
      vertex 1.4202 4.0587 0.0249996
      vertex -0.481447 4.27296 0
      vertex 1.4202 4.0587 0
    endloop
  endfacet
  facet normal 0.943883 -0.330279 0
    outer loop
      vertex -4.27296 0.481447 0.0249996
      vertex -3.64091 2.28774 0
      vertex -3.64091 2.28774 0.0249996
    endloop
  endfacet
  facet normal 0.943883 -0.330279 0
    outer loop
      vertex -3.64091 2.28774 0
      vertex -4.27296 0.481447 0.0249996
      vertex -4.27296 0.481447 0
    endloop
  endfacet
  facet normal 0.993712 0.111964 0
    outer loop
      vertex -4.0587 -1.4202 0.0249996
      vertex -4.27296 0.481447 0
      vertex -4.27296 0.481447 0.0249996
    endloop
  endfacet
  facet normal 0.993712 0.111964 0
    outer loop
      vertex -4.27296 0.481447 0
      vertex -4.0587 -1.4202 0.0249996
      vertex -4.0587 -1.4202 0
    endloop
  endfacet
  facet normal 0.532032 0.846724 -0
    outer loop
      vertex -1.4202 -4.0587 0
      vertex -3.04056 -3.04056 0.0249996
      vertex -1.4202 -4.0587 0.0249996
    endloop
  endfacet
  facet normal 0.532032 0.846724 0
    outer loop
      vertex -3.04056 -3.04056 0.0249996
      vertex -1.4202 -4.0587 0
      vertex -3.04056 -3.04056 0
    endloop
  endfacet
  facet normal -0.943883 0.330279 0
    outer loop
      vertex 3.64091 -2.28774 0
      vertex 4.27296 -0.481447 0.0249996
      vertex 4.27296 -0.481447 0
    endloop
  endfacet
  facet normal -0.943883 0.330279 0
    outer loop
      vertex 4.27296 -0.481447 0.0249996
      vertex 3.64091 -2.28774 0
      vertex 3.64091 -2.28774 0.0249996
    endloop
  endfacet
  facet normal -0.993712 -0.111964 0
    outer loop
      vertex 4.27296 -0.481447 0
      vertex 4.0587 1.4202 0.0249996
      vertex 4.0587 1.4202 0
    endloop
  endfacet
  facet normal -0.993712 -0.111964 0
    outer loop
      vertex 4.0587 1.4202 0.0249996
      vertex 4.27296 -0.481447 0
      vertex 4.27296 -0.481447 0.0249996
    endloop
  endfacet
  facet normal -0.846724 -0.532032 0
    outer loop
      vertex 4.0587 1.4202 0
      vertex 3.04056 3.04056 0.0249996
      vertex 3.04056 3.04056 0
    endloop
  endfacet
  facet normal -0.846724 -0.532032 0
    outer loop
      vertex 3.04056 3.04056 0.0249996
      vertex 4.0587 1.4202 0
      vertex 4.0587 1.4202 0.0249996
    endloop
  endfacet
  facet normal 0.111964 0.993712 -0
    outer loop
      vertex 0.481447 -4.27296 0
      vertex -1.4202 -4.0587 0.0249996
      vertex 0.481447 -4.27296 0.0249996
    endloop
  endfacet
  facet normal 0.111964 0.993712 0
    outer loop
      vertex -1.4202 -4.0587 0.0249996
      vertex 0.481447 -4.27296 0
      vertex -1.4202 -4.0587 0
    endloop
  endfacet
  facet normal -0.707107 0.707107 0
    outer loop
      vertex 2.28774 -3.64091 0
      vertex 3.64091 -2.28774 0.0249996
      vertex 3.64091 -2.28774 0
    endloop
  endfacet
  facet normal -0.707107 0.707107 0
    outer loop
      vertex 3.64091 -2.28774 0.0249996
      vertex 2.28774 -3.64091 0
      vertex 2.28774 -3.64091 0.0249996
    endloop
  endfacet
  facet normal -0.330279 0.943883 0
    outer loop
      vertex 2.28774 -3.64091 0
      vertex 0.481447 -4.27296 0.0249996
      vertex 2.28774 -3.64091 0.0249996
    endloop
  endfacet
  facet normal -0.330279 0.943883 0
    outer loop
      vertex 0.481447 -4.27296 0.0249996
      vertex 2.28774 -3.64091 0
      vertex 0.481447 -4.27296 0
    endloop
  endfacet
endsolid OpenSCAD_Model
