solid OpenSCAD_Model
  facet normal 0 0 -1
    outer loop
      vertex 26 -27.9 -12
      vertex 34 -24.9 -12
      vertex 34 -27.9 -12
    endloop
  endfacet
  facet normal 0 0 -1
    outer loop
      vertex 21.65 -21.9 -12
      vertex 34 -24.9 -12
      vertex 26 -27.9 -12
    endloop
  endfacet
  facet normal 0 0 -1
    outer loop
      vertex 34 -24.9 -12
      vertex 21.65 -21.9 -12
      vertex 21.8785 -18.7176 -12
    endloop
  endfacet
  facet normal 0 0 -1
    outer loop
      vertex 21.5938 -21.4729 -12
      vertex 21.8785 -18.7176 -12
      vertex 21.65 -21.9 -12
    endloop
  endfacet
  facet normal 0 0 -1
    outer loop
      vertex 21.4289 -21.075 -12
      vertex 21.8785 -18.7176 -12
      vertex 21.5938 -21.4729 -12
    endloop
  endfacet
  facet normal 0 0 -1
    outer loop
      vertex 26 -27.9 -12
      vertex 21.5938 -22.3271 -12
      vertex 21.65 -21.9 -12
    endloop
  endfacet
  facet normal 0 0 -1
    outer loop
      vertex 26 -27.9 -12
      vertex 21.4289 -22.725 -12
      vertex 21.5938 -22.3271 -12
    endloop
  endfacet
  facet normal 0 0 -1
    outer loop
      vertex 26 -27.9 -12
      vertex 21.1667 -23.0667 -12
      vertex 21.4289 -22.725 -12
    endloop
  endfacet
  facet normal 0 0 -1
    outer loop
      vertex 26 -27.9 -12
      vertex 20.825 -23.3289 -12
      vertex 21.1667 -23.0667 -12
    endloop
  endfacet
  facet normal 0 0 -1
    outer loop
      vertex 26 -27.9 -12
      vertex 20.4271 -23.4938 -12
      vertex 20.825 -23.3289 -12
    endloop
  endfacet
  facet normal 0 0 -1
    outer loop
      vertex 18.5841 -25.3184 -12
      vertex 20.4271 -23.4938 -12
      vertex 26 -27.9 -12
    endloop
  endfacet
  facet normal 0 0 -1
    outer loop
      vertex 20.4271 -23.4938 -12
      vertex 18.5841 -25.3184 -12
      vertex 20 -23.55 -12
    endloop
  endfacet
  facet normal -0 0 -1
    outer loop
      vertex 20 -23.55 -12
      vertex 18.5841 -25.3184 -12
      vertex 19.5729 -23.4938 -12
    endloop
  endfacet
  facet normal -0 0 -1
    outer loop
      vertex 19.5729 -23.4938 -12
      vertex 18.5841 -25.3184 -12
      vertex 19.175 -23.3289 -12
    endloop
  endfacet
  facet normal 0 0 -1
    outer loop
      vertex 18.158 -25.1076 -12
      vertex 19.175 -23.3289 -12
      vertex 18.5841 -25.3184 -12
    endloop
  endfacet
  facet normal 0 0 -1
    outer loop
      vertex 18.1477 -25.1025 -12
      vertex 19.175 -23.3289 -12
      vertex 18.158 -25.1076 -12
    endloop
  endfacet
  facet normal -0 0 -1
    outer loop
      vertex 19.175 -23.3289 -12
      vertex 18.1477 -25.1025 -12
      vertex 18.8333 -23.0667 -12
    endloop
  endfacet
  facet normal -0 0 -1
    outer loop
      vertex 18.8333 -23.0667 -12
      vertex 18.1477 -25.1025 -12
      vertex 18.5711 -22.725 -12
    endloop
  endfacet
  facet normal -0 0 -1
    outer loop
      vertex 18.5711 -22.725 -12
      vertex 18.1477 -25.1025 -12
      vertex 18.4062 -22.3271 -12
    endloop
  endfacet
  facet normal 0 0 -1
    outer loop
      vertex 21.1667 -20.7333 -12
      vertex 21.8785 -18.7176 -12
      vertex 21.4289 -21.075 -12
    endloop
  endfacet
  facet normal 0 0 -1
    outer loop
      vertex 20.825 -20.4711 -12
      vertex 21.8785 -18.7176 -12
      vertex 21.1667 -20.7333 -12
    endloop
  endfacet
  facet normal 0 -0 -1
    outer loop
      vertex 21.7735 -18.664 -12
      vertex 21.8785 -18.7176 -12
      vertex 20.825 -20.4711 -12
    endloop
  endfacet
  facet normal 0 0 -1
    outer loop
      vertex 21.8785 -18.7176 -12
      vertex 21.7735 -18.664 -12
      vertex 21.85 -18.6957 -12
    endloop
  endfacet
  facet normal -0 0 -1
    outer loop
      vertex 21.7735 -18.664 -12
      vertex 20.825 -20.4711 -12
      vertex 21.4159 -18.4816 -12
    endloop
  endfacet
  facet normal 0 0 -1
    outer loop
      vertex 20.4271 -20.3062 -12
      vertex 21.4159 -18.4816 -12
      vertex 20.825 -20.4711 -12
    endloop
  endfacet
  facet normal -0 0 -1
    outer loop
      vertex 21.4159 -18.4816 -12
      vertex 20.4271 -20.3062 -12
      vertex 21.0829 -18.378 -12
    endloop
  endfacet
  facet normal 0 -0 -1
    outer loop
      vertex 20.8859 -18.3166 -12
      vertex 21.0829 -18.378 -12
      vertex 20.4271 -20.3062 -12
    endloop
  endfacet
  facet normal 0 0 -1
    outer loop
      vertex 21.0829 -18.378 -12
      vertex 20.8859 -18.3166 -12
      vertex 20.9576 -18.3261 -12
    endloop
  endfacet
  facet normal 0 0 -1
    outer loop
      vertex 20 -20.25 -12
      vertex 20.8859 -18.3166 -12
      vertex 20.4271 -20.3062 -12
    endloop
  endfacet
  facet normal 0 0 -1
    outer loop
      vertex 19.5729 -20.3062 -12
      vertex 20.8859 -18.3166 -12
      vertex 20 -20.25 -12
    endloop
  endfacet
  facet normal 0 0 -1
    outer loop
      vertex 19.175 -20.4711 -12
      vertex 20.8859 -18.3166 -12
      vertex 19.5729 -20.3062 -12
    endloop
  endfacet
  facet normal 0 0 -1
    outer loop
      vertex 18.8333 -20.7333 -12
      vertex 20.8859 -18.3166 -12
      vertex 19.175 -20.4711 -12
    endloop
  endfacet
  facet normal 0 0 -1
    outer loop
      vertex 18.1477 -25.1025 -12
      vertex 18.158 -25.1076 -12
      vertex 18.15 -25.1043 -12
    endloop
  endfacet
  facet normal -0 0 -1
    outer loop
      vertex 18.4062 -22.3271 -12
      vertex 18.1477 -25.1025 -12
      vertex 18.35 -21.9 -12
    endloop
  endfacet
  facet normal 0 0 -1
    outer loop
      vertex 18.8333 -20.7333 -12
      vertex 4.92733 -13.348 -12
      vertex 20.8859 -18.3166 -12
    endloop
  endfacet
  facet normal 0 0 -1
    outer loop
      vertex 18.5711 -21.075 -12
      vertex 4.92733 -13.348 -12
      vertex 18.8333 -20.7333 -12
    endloop
  endfacet
  facet normal 0 0 -1
    outer loop
      vertex 18.4062 -21.4729 -12
      vertex 4.92733 -13.348 -12
      vertex 18.5711 -21.075 -12
    endloop
  endfacet
  facet normal 0 0 -1
    outer loop
      vertex 3.18724 -17.7028 -12
      vertex 18.4062 -21.4729 -12
      vertex 18.35 -21.9 -12
    endloop
  endfacet
  facet normal 0 0 -1
    outer loop
      vertex 3.18724 -17.7028 -12
      vertex 18.35 -21.9 -12
      vertex 18.1477 -25.1025 -12
    endloop
  endfacet
  facet normal 0 0 -1
    outer loop
      vertex 4.92733 -13.348 -12
      vertex 4.33013 -11.4 -12
      vertex 4.82963 -12.6059 -12
    endloop
  endfacet
  facet normal 0 0 -1
    outer loop
      vertex 4.92733 -13.348 -12
      vertex 3.53553 -10.3645 -12
      vertex 4.33013 -11.4 -12
    endloop
  endfacet
  facet normal 0 0 -1
    outer loop
      vertex 18.4062 -21.4729 -12
      vertex 3.18724 -17.7028 -12
      vertex 4.92733 -13.348 -12
    endloop
  endfacet
  facet normal 0 0 -1
    outer loop
      vertex 1.2941 -9.07037 -12
      vertex 4.92733 -13.348 -12
      vertex 3.18724 -17.7028 -12
    endloop
  endfacet
  facet normal 0 0 -1
    outer loop
      vertex 1.2941 -18.7296 -12
      vertex 3.18724 -17.7028 -12
      vertex 2.5 -18.2301 -12
    endloop
  endfacet
  facet normal 0 0 -1
    outer loop
      vertex 4.92733 -13.348 -12
      vertex 2.5 -9.56987 -12
      vertex 3.53553 -10.3645 -12
    endloop
  endfacet
  facet normal 0 0 -1
    outer loop
      vertex 0 -18.9 -12
      vertex 3.18724 -17.7028 -12
      vertex 1.2941 -18.7296 -12
    endloop
  endfacet
  facet normal 0 0 -1
    outer loop
      vertex 4.92733 -13.348 -12
      vertex 1.2941 -9.07037 -12
      vertex 2.5 -9.56987 -12
    endloop
  endfacet
  facet normal 0 0 -1
    outer loop
      vertex -1.2941 -18.7296 -12
      vertex 3.18724 -17.7028 -12
      vertex 0 -18.9 -12
    endloop
  endfacet
  facet normal 0 0 -1
    outer loop
      vertex 3.18724 -17.7028 -12
      vertex 0 -8.9 -12
      vertex 1.2941 -9.07037 -12
    endloop
  endfacet
  facet normal -0 0 -1
    outer loop
      vertex 3.18724 -17.7028 -12
      vertex -1.2941 -18.7296 -12
      vertex 0 -8.9 -12
    endloop
  endfacet
  facet normal 0 0 -1
    outer loop
      vertex -1.2941 -18.7296 -12
      vertex -1.2941 -9.07037 -12
      vertex 0 -8.9 -12
    endloop
  endfacet
  facet normal 0 0 -1
    outer loop
      vertex -2.5 -18.2301 -12
      vertex -1.2941 -9.07037 -12
      vertex -1.2941 -18.7296 -12
    endloop
  endfacet
  facet normal 0 0 -1
    outer loop
      vertex -2.5 -18.2301 -12
      vertex -2.5 -9.56987 -12
      vertex -1.2941 -9.07037 -12
    endloop
  endfacet
  facet normal 0 0 -1
    outer loop
      vertex -3.53553 -17.4355 -12
      vertex -2.5 -9.56987 -12
      vertex -2.5 -18.2301 -12
    endloop
  endfacet
  facet normal 0 0 -1
    outer loop
      vertex -3.53553 -17.4355 -12
      vertex -3.53553 -10.3645 -12
      vertex -2.5 -9.56987 -12
    endloop
  endfacet
  facet normal 0 0 -1
    outer loop
      vertex -4.33013 -16.4 -12
      vertex -3.53553 -10.3645 -12
      vertex -3.53553 -17.4355 -12
    endloop
  endfacet
  facet normal 0 0 -1
    outer loop
      vertex -4.33013 -16.4 -12
      vertex -4.33013 -11.4 -12
      vertex -3.53553 -10.3645 -12
    endloop
  endfacet
  facet normal 0 0 -1
    outer loop
      vertex -4.82963 -15.1941 -12
      vertex -4.33013 -11.4 -12
      vertex -4.33013 -16.4 -12
    endloop
  endfacet
  facet normal 0 0 -1
    outer loop
      vertex -4.82963 -15.1941 -12
      vertex -4.82963 -12.6059 -12
      vertex -4.33013 -11.4 -12
    endloop
  endfacet
  facet normal 0 -0 -1
    outer loop
      vertex -4.82963 -12.6059 -12
      vertex -4.82963 -15.1941 -12
      vertex -5 -13.9 -12
    endloop
  endfacet
  facet normal 0 0 1
    outer loop
      vertex 21.4159 -18.4816 -10
      vertex 21.0829 -18.378 -10
      vertex 21.7735 -18.664 -10
    endloop
  endfacet
  facet normal -0 0 1
    outer loop
      vertex 23.5739 -22.8576 -10
      vertex 26 -24.9 -10
      vertex 23.7 -21.9 -10
    endloop
  endfacet
  facet normal 0 0 1
    outer loop
      vertex 23.5739 -20.9424 -10
      vertex 26 -24.9 -10
      vertex 34 -24.9 -10
    endloop
  endfacet
  facet normal 0 0 1
    outer loop
      vertex 26 -24.9 -10
      vertex 23.5739 -20.9424 -10
      vertex 23.7 -21.9 -10
    endloop
  endfacet
  facet normal 0 0 1
    outer loop
      vertex 34 -24.9 -10
      vertex 23.2043 -20.05 -10
      vertex 23.5739 -20.9424 -10
    endloop
  endfacet
  facet normal 0 0 1
    outer loop
      vertex 34 -24.9 -10
      vertex 22.6163 -19.2837 -10
      vertex 23.2043 -20.05 -10
    endloop
  endfacet
  facet normal -0 -0 1
    outer loop
      vertex 22.6163 -19.2837 -10
      vertex 34 -24.9 -10
      vertex 21.8785 -18.7176 -10
    endloop
  endfacet
  facet normal -0 0 1
    outer loop
      vertex 23.2043 -23.75 -10
      vertex 26 -24.9 -10
      vertex 23.5739 -22.8576 -10
    endloop
  endfacet
  facet normal -0 0 1
    outer loop
      vertex 22.6163 -24.5163 -10
      vertex 26 -24.9 -10
      vertex 23.2043 -23.75 -10
    endloop
  endfacet
  facet normal 0 0 1
    outer loop
      vertex 26 -24.9 -10
      vertex 22.6163 -24.5163 -10
      vertex 26 -27.9 -10
    endloop
  endfacet
  facet normal -0 0 1
    outer loop
      vertex 21.85 -25.1043 -10
      vertex 26 -27.9 -10
      vertex 22.6163 -24.5163 -10
    endloop
  endfacet
  facet normal -0 0 1
    outer loop
      vertex 20.9576 -25.4739 -10
      vertex 26 -27.9 -10
      vertex 21.85 -25.1043 -10
    endloop
  endfacet
  facet normal -0 0 1
    outer loop
      vertex 20 -25.6 -10
      vertex 26 -27.9 -10
      vertex 20.9576 -25.4739 -10
    endloop
  endfacet
  facet normal 0 0 1
    outer loop
      vertex 19.0424 -25.4739 -10
      vertex 26 -27.9 -10
      vertex 20 -25.6 -10
    endloop
  endfacet
  facet normal 0 0 1
    outer loop
      vertex 19.0424 -25.4739 -10
      vertex 18.5841 -25.3184 -10
      vertex 26 -27.9 -10
    endloop
  endfacet
  facet normal -0 -0 1
    outer loop
      vertex 18.5841 -25.3184 -10
      vertex 19.0424 -25.4739 -10
      vertex 18.158 -25.1076 -10
    endloop
  endfacet
  facet normal 0 0 1
    outer loop
      vertex 14.6527 -22.5378 -10
      vertex 16.4261 -20.9424 -10
      vertex 15.4292 -19.64 -10
    endloop
  endfacet
  facet normal 0 0 1
    outer loop
      vertex 16.7957 -20.05 -10
      vertex 15.4292 -19.64 -10
      vertex 16.4261 -20.9424 -10
    endloop
  endfacet
  facet normal 0 0 1
    outer loop
      vertex 17.3837 -19.2837 -10
      vertex 15.4292 -19.64 -10
      vertex 16.7957 -20.05 -10
    endloop
  endfacet
  facet normal 0 0 1
    outer loop
      vertex 18.15 -18.6957 -10
      vertex 15.4292 -19.64 -10
      vertex 17.3837 -19.2837 -10
    endloop
  endfacet
  facet normal 0 0 1
    outer loop
      vertex 12.5314 -18.8635 -10
      vertex 18.15 -18.6957 -10
      vertex 19.0424 -18.3261 -10
    endloop
  endfacet
  facet normal 0 0 1
    outer loop
      vertex 18.15 -18.6957 -10
      vertex 12.5314 -18.8635 -10
      vertex 15.4292 -19.64 -10
    endloop
  endfacet
  facet normal 0 0 1
    outer loop
      vertex 2.70405 -12.6558 -10
      vertex 19.0424 -18.3261 -10
      vertex 20 -18.2 -10
    endloop
  endfacet
  facet normal -0 0 1
    outer loop
      vertex 1.09269 -16.6668 -10
      vertex 12.5314 -18.8635 -10
      vertex 2.70405 -12.6558 -10
    endloop
  endfacet
  facet normal 0 0 1
    outer loop
      vertex 19.0424 -18.3261 -10
      vertex 2.70405 -12.6558 -10
      vertex 12.5314 -18.8635 -10
    endloop
  endfacet
  facet normal 0 0 1
    outer loop
      vertex 2.70405 -12.6558 -10
      vertex 20 -18.2 -10
      vertex 20.8859 -18.3166 -10
    endloop
  endfacet
  facet normal 0 0 1
    outer loop
      vertex 16.4261 -20.9424 -10
      vertex 14.6527 -22.5378 -10
      vertex 16.3 -21.9 -10
    endloop
  endfacet
  facet normal 0 0 1
    outer loop
      vertex 16.3 -21.9 -10
      vertex 14.6527 -22.5378 -10
      vertex 16.4261 -22.8576 -10
    endloop
  endfacet
  facet normal 0 0 1
    outer loop
      vertex 14.6527 -22.5378 -10
      vertex 16.7957 -23.75 -10
      vertex 16.4261 -22.8576 -10
    endloop
  endfacet
  facet normal 0 0 1
    outer loop
      vertex 14.6527 -22.5378 -10
      vertex 17.3837 -24.5163 -10
      vertex 16.7957 -23.75 -10
    endloop
  endfacet
  facet normal 0 0 1
    outer loop
      vertex 11.755 -21.7613 -10
      vertex 17.3837 -24.5163 -10
      vertex 14.6527 -22.5378 -10
    endloop
  endfacet
  facet normal 0 0 1
    outer loop
      vertex 17.3837 -24.5163 -10
      vertex 11.755 -21.7613 -10
      vertex 18.1477 -25.1025 -10
    endloop
  endfacet
  facet normal 0 0 1
    outer loop
      vertex 2.12132 -11.7787 -10
      vertex 2.70405 -12.6558 -10
      vertex 2.59808 -12.4 -10
    endloop
  endfacet
  facet normal 0 0 1
    outer loop
      vertex 1.5 -11.3019 -10
      vertex 2.70405 -12.6558 -10
      vertex 2.12132 -11.7787 -10
    endloop
  endfacet
  facet normal 0 0 1
    outer loop
      vertex 11.755 -21.7613 -10
      vertex 1.09269 -16.6668 -10
      vertex 18.1477 -25.1025 -10
    endloop
  endfacet
  facet normal 0 0 1
    outer loop
      vertex 12.5314 -18.8635 -10
      vertex 1.09269 -16.6668 -10
      vertex 11.755 -21.7613 -10
    endloop
  endfacet
  facet normal 0 0 1
    outer loop
      vertex 0.776457 -11.0022 -10
      vertex 2.70405 -12.6558 -10
      vertex 1.5 -11.3019 -10
    endloop
  endfacet
  facet normal 0 0 1
    outer loop
      vertex 2.70405 -12.6558 -10
      vertex 0.776457 -11.0022 -10
      vertex 1.09269 -16.6668 -10
    endloop
  endfacet
  facet normal 0 0 1
    outer loop
      vertex 0 -10.9 -10
      vertex 1.09269 -16.6668 -10
      vertex 0.776457 -11.0022 -10
    endloop
  endfacet
  facet normal -0 0 1
    outer loop
      vertex -0.776457 -11.0022 -10
      vertex 1.09269 -16.6668 -10
      vertex 0 -10.9 -10
    endloop
  endfacet
  facet normal 0 0 1
    outer loop
      vertex 1.09269 -16.6668 -10
      vertex 0 -16.9 -10
      vertex 0.776457 -16.7978 -10
    endloop
  endfacet
  facet normal -0 0 1
    outer loop
      vertex -1.5 -16.4981 -10
      vertex 1.09269 -16.6668 -10
      vertex -0.776457 -11.0022 -10
    endloop
  endfacet
  facet normal 0 0 1
    outer loop
      vertex 1.09269 -16.6668 -10
      vertex -0.776457 -16.7978 -10
      vertex 0 -16.9 -10
    endloop
  endfacet
  facet normal 0 0 1
    outer loop
      vertex 1.09269 -16.6668 -10
      vertex -1.5 -16.4981 -10
      vertex -0.776457 -16.7978 -10
    endloop
  endfacet
  facet normal -0 0 1
    outer loop
      vertex -1.5 -11.3019 -10
      vertex -1.5 -16.4981 -10
      vertex -0.776457 -11.0022 -10
    endloop
  endfacet
  facet normal -0 0 1
    outer loop
      vertex -2.12132 -11.7787 -10
      vertex -1.5 -16.4981 -10
      vertex -1.5 -11.3019 -10
    endloop
  endfacet
  facet normal 0 0 1
    outer loop
      vertex -2.12132 -11.7787 -10
      vertex -2.12132 -16.0213 -10
      vertex -1.5 -16.4981 -10
    endloop
  endfacet
  facet normal -0 0 1
    outer loop
      vertex -2.59808 -12.4 -10
      vertex -2.12132 -16.0213 -10
      vertex -2.12132 -11.7787 -10
    endloop
  endfacet
  facet normal 0 0 1
    outer loop
      vertex -2.59808 -12.4 -10
      vertex -2.59808 -15.4 -10
      vertex -2.12132 -16.0213 -10
    endloop
  endfacet
  facet normal -0 0 1
    outer loop
      vertex -2.89778 -13.1235 -10
      vertex -2.59808 -15.4 -10
      vertex -2.59808 -12.4 -10
    endloop
  endfacet
  facet normal 0 0 1
    outer loop
      vertex -2.89778 -13.1235 -10
      vertex -2.89778 -14.6765 -10
      vertex -2.59808 -15.4 -10
    endloop
  endfacet
  facet normal 0 -0 1
    outer loop
      vertex -2.89778 -14.6765 -10
      vertex -2.89778 -13.1235 -10
      vertex -3 -13.9 -10
    endloop
  endfacet
  facet normal -1 0 0
    outer loop
      vertex 26 -27.9 -10
      vertex 26 -24.9 -2
      vertex 26 -24.9 -10
    endloop
  endfacet
  facet normal -1 -0 0
    outer loop
      vertex 26 -24.9 -2
      vertex 26 -27.9 -10
      vertex 26 -27.9 -2
    endloop
  endfacet
  facet normal 1 -0 0
    outer loop
      vertex 34 -27.9 -2
      vertex 34 -24.9 -10
      vertex 34 -24.9 -2
    endloop
  endfacet
  facet normal 1 0 0
    outer loop
      vertex 34 -27.9 -12
      vertex 34 -24.9 -10
      vertex 34 -27.9 -2
    endloop
  endfacet
  facet normal 1 0 0
    outer loop
      vertex 34 -24.9 -10
      vertex 34 -27.9 -12
      vertex 34 -24.9 -12
    endloop
  endfacet
  facet normal 0 -1 0
    outer loop
      vertex 26 -27.9 -10
      vertex 34 -27.9 -2
      vertex 26 -27.9 -2
    endloop
  endfacet
  facet normal 0 -1 0
    outer loop
      vertex 34 -27.9 -12
      vertex 26 -27.9 -10
      vertex 26 -27.9 -12
    endloop
  endfacet
  facet normal 0 -1 0
    outer loop
      vertex 26 -27.9 -10
      vertex 34 -27.9 -12
      vertex 34 -27.9 -2
    endloop
  endfacet
  facet normal -0 0 1
    outer loop
      vertex 26 -24.9 -2
      vertex 34 -27.9 -2
      vertex 34 -24.9 -2
    endloop
  endfacet
  facet normal 0 0 1
    outer loop
      vertex 34 -27.9 -2
      vertex 26 -24.9 -2
      vertex 26 -27.9 -2
    endloop
  endfacet
  facet normal 0 1 0
    outer loop
      vertex 34 -24.9 -2
      vertex 30 -24.9 -3.67063
      vertex 26 -24.9 -2
    endloop
  endfacet
  facet normal 0 1 0
    outer loop
      vertex 34 -24.9 -2
      vertex 30.5823 -24.9 -3.75
      vertex 30 -24.9 -3.67063
    endloop
  endfacet
  facet normal 0 1 0
    outer loop
      vertex 34 -24.9 -2
      vertex 30.7517 -24.9 -3.82264
      vertex 30.5823 -24.9 -3.75
    endloop
  endfacet
  facet normal 0 1 0
    outer loop
      vertex 34 -24.9 -2
      vertex 31.125 -24.9 -3.9827
      vertex 30.7517 -24.9 -3.82264
    endloop
  endfacet
  facet normal 0 1 0
    outer loop
      vertex 34 -24.9 -2
      vertex 31.4294 -24.9 -4.2245
      vertex 31.125 -24.9 -3.9827
    endloop
  endfacet
  facet normal 0 1 0
    outer loop
      vertex 34 -24.9 -2
      vertex 31.591 -24.9 -4.35289
      vertex 31.4294 -24.9 -4.2245
    endloop
  endfacet
  facet normal 0 1 0
    outer loop
      vertex 34 -24.9 -2
      vertex 31.7245 -24.9 -4.53304
      vertex 31.591 -24.9 -4.35289
    endloop
  endfacet
  facet normal 0 1 0
    outer loop
      vertex 34 -24.9 -2
      vertex 31.9486 -24.9 -4.83531
      vertex 31.7245 -24.9 -4.53304
    endloop
  endfacet
  facet normal 0 1 0
    outer loop
      vertex 34 -24.9 -2
      vertex 32.0773 -24.9 -5.15707
      vertex 31.9486 -24.9 -4.83531
    endloop
  endfacet
  facet normal 0 1 0
    outer loop
      vertex 34 -24.9 -2
      vertex 32.1733 -24.9 -5.39711
      vertex 32.0773 -24.9 -5.15707
    endloop
  endfacet
  facet normal 0 1 0
    outer loop
      vertex 34 -24.9 -2
      vertex 32.25 -24.9 -6
      vertex 32.1733 -24.9 -5.39711
    endloop
  endfacet
  facet normal 0 1 -0
    outer loop
      vertex 34 -24.9 -10
      vertex 32.25 -24.9 -6
      vertex 34 -24.9 -2
    endloop
  endfacet
  facet normal 0 1 0
    outer loop
      vertex 34 -24.9 -10
      vertex 32.0773 -24.9 -6.84293
      vertex 32.1733 -24.9 -6.60289
    endloop
  endfacet
  facet normal 0 1 0
    outer loop
      vertex 34 -24.9 -10
      vertex 31.7245 -24.9 -7.46696
      vertex 31.9486 -24.9 -7.16469
    endloop
  endfacet
  facet normal 0 1 0
    outer loop
      vertex 30.5823 -24.9 -8.25
      vertex 34 -24.9 -10
      vertex 30 -24.9 -8.32937
    endloop
  endfacet
  facet normal 0 1 0
    outer loop
      vertex 30.7517 -24.9 -8.17736
      vertex 34 -24.9 -10
      vertex 30.5823 -24.9 -8.25
    endloop
  endfacet
  facet normal 0 1 0
    outer loop
      vertex 31.125 -24.9 -8.01729
      vertex 34 -24.9 -10
      vertex 30.7517 -24.9 -8.17736
    endloop
  endfacet
  facet normal 0 1 0
    outer loop
      vertex 31.4294 -24.9 -7.7755
      vertex 34 -24.9 -10
      vertex 31.125 -24.9 -8.01729
    endloop
  endfacet
  facet normal 0 1 0
    outer loop
      vertex 31.591 -24.9 -7.64711
      vertex 34 -24.9 -10
      vertex 31.4294 -24.9 -7.7755
    endloop
  endfacet
  facet normal 0 1 0
    outer loop
      vertex 31.7245 -24.9 -7.46696
      vertex 34 -24.9 -10
      vertex 31.591 -24.9 -7.64711
    endloop
  endfacet
  facet normal 0 1 0
    outer loop
      vertex 32.0773 -24.9 -6.84293
      vertex 34 -24.9 -10
      vertex 31.9486 -24.9 -7.16469
    endloop
  endfacet
  facet normal 0 1 0
    outer loop
      vertex 32.25 -24.9 -6
      vertex 34 -24.9 -10
      vertex 32.1733 -24.9 -6.60289
    endloop
  endfacet
  facet normal 0 1 -0
    outer loop
      vertex 29.4177 -24.9 -3.75
      vertex 26 -24.9 -2
      vertex 30 -24.9 -3.67063
    endloop
  endfacet
  facet normal 0 1 -0
    outer loop
      vertex 29.2483 -24.9 -3.82264
      vertex 26 -24.9 -2
      vertex 29.4177 -24.9 -3.75
    endloop
  endfacet
  facet normal 0 1 -0
    outer loop
      vertex 28.875 -24.9 -3.9827
      vertex 26 -24.9 -2
      vertex 29.2483 -24.9 -3.82264
    endloop
  endfacet
  facet normal 0 1 -0
    outer loop
      vertex 28.5706 -24.9 -4.2245
      vertex 26 -24.9 -2
      vertex 28.875 -24.9 -3.9827
    endloop
  endfacet
  facet normal 0 1 -0
    outer loop
      vertex 28.409 -24.9 -4.35289
      vertex 26 -24.9 -2
      vertex 28.5706 -24.9 -4.2245
    endloop
  endfacet
  facet normal 0 1 -0
    outer loop
      vertex 28.2755 -24.9 -4.53304
      vertex 26 -24.9 -2
      vertex 28.409 -24.9 -4.35289
    endloop
  endfacet
  facet normal 0 1 -0
    outer loop
      vertex 28.0514 -24.9 -4.83531
      vertex 26 -24.9 -2
      vertex 28.2755 -24.9 -4.53304
    endloop
  endfacet
  facet normal 0 1 -0
    outer loop
      vertex 27.9227 -24.9 -5.15707
      vertex 26 -24.9 -2
      vertex 28.0514 -24.9 -4.83531
    endloop
  endfacet
  facet normal 0 1 -0
    outer loop
      vertex 27.8267 -24.9 -5.39711
      vertex 26 -24.9 -2
      vertex 27.9227 -24.9 -5.15707
    endloop
  endfacet
  facet normal 0 1 -0
    outer loop
      vertex 27.75 -24.9 -6
      vertex 26 -24.9 -2
      vertex 27.8267 -24.9 -5.39711
    endloop
  endfacet
  facet normal 0 1 0
    outer loop
      vertex 26 -24.9 -10
      vertex 27.75 -24.9 -6
      vertex 27.8267 -24.9 -6.60289
    endloop
  endfacet
  facet normal 0 1 0
    outer loop
      vertex 26 -24.9 -10
      vertex 28.2755 -24.9 -7.46696
      vertex 28.409 -24.9 -7.64711
    endloop
  endfacet
  facet normal 0 1 0
    outer loop
      vertex 26 -24.9 -10
      vertex 28.5706 -24.9 -7.7755
      vertex 28.875 -24.9 -8.01729
    endloop
  endfacet
  facet normal 0 1 0
    outer loop
      vertex 26 -24.9 -10
      vertex 30 -24.9 -8.32937
      vertex 34 -24.9 -10
    endloop
  endfacet
  facet normal 0 1 0
    outer loop
      vertex 27.75 -24.9 -6
      vertex 26 -24.9 -10
      vertex 26 -24.9 -2
    endloop
  endfacet
  facet normal 0 1 0
    outer loop
      vertex 27.9227 -24.9 -6.84293
      vertex 26 -24.9 -10
      vertex 27.8267 -24.9 -6.60289
    endloop
  endfacet
  facet normal 0 1 0
    outer loop
      vertex 28.0514 -24.9 -7.16469
      vertex 26 -24.9 -10
      vertex 27.9227 -24.9 -6.84293
    endloop
  endfacet
  facet normal 0 1 0
    outer loop
      vertex 28.2755 -24.9 -7.46696
      vertex 26 -24.9 -10
      vertex 28.0514 -24.9 -7.16469
    endloop
  endfacet
  facet normal 0 1 0
    outer loop
      vertex 28.5706 -24.9 -7.7755
      vertex 26 -24.9 -10
      vertex 28.409 -24.9 -7.64711
    endloop
  endfacet
  facet normal 0 1 0
    outer loop
      vertex 29.2483 -24.9 -8.17736
      vertex 26 -24.9 -10
      vertex 28.875 -24.9 -8.01729
    endloop
  endfacet
  facet normal 0 1 0
    outer loop
      vertex 29.4177 -24.9 -8.25
      vertex 26 -24.9 -10
      vertex 29.2483 -24.9 -8.17736
    endloop
  endfacet
  facet normal 0 1 0
    outer loop
      vertex 30 -24.9 -8.32937
      vertex 26 -24.9 -10
      vertex 29.4177 -24.9 -8.25
    endloop
  endfacet
  facet normal 0.965926 -0.258819 0
    outer loop
      vertex 14.6527 -22.5378 -8
      vertex 15.4292 -19.64 -10
      vertex 15.4292 -19.64 -8
    endloop
  endfacet
  facet normal 0.965926 -0.258819 0
    outer loop
      vertex 15.4292 -19.64 -10
      vertex 14.6527 -22.5378 -8
      vertex 14.6527 -22.5378 -10
    endloop
  endfacet
  facet normal -0.258819 -0.965926 0
    outer loop
      vertex 11.755 -21.7613 -10
      vertex 14.6527 -22.5378 -8
      vertex 11.755 -21.7613 -8
    endloop
  endfacet
  facet normal -0.258819 -0.965926 -0
    outer loop
      vertex 14.6527 -22.5378 -8
      vertex 11.755 -21.7613 -10
      vertex 14.6527 -22.5378 -10
    endloop
  endfacet
  facet normal -0.965926 0.258819 0
    outer loop
      vertex 11.755 -21.7613 -10
      vertex 12.5314 -18.8635 -8
      vertex 12.5314 -18.8635 -10
    endloop
  endfacet
  facet normal -0.965926 0.258819 0
    outer loop
      vertex 12.5314 -18.8635 -8
      vertex 11.755 -21.7613 -10
      vertex 11.755 -21.7613 -8
    endloop
  endfacet
  facet normal 0 0 1
    outer loop
      vertex 12.5314 -18.8635 -8
      vertex 14.6527 -22.5378 -8
      vertex 15.4292 -19.64 -8
    endloop
  endfacet
  facet normal 0 0 1
    outer loop
      vertex 14.6527 -22.5378 -8
      vertex 12.5314 -18.8635 -8
      vertex 11.755 -21.7613 -8
    endloop
  endfacet
  facet normal 0.258819 0.965926 -0
    outer loop
      vertex 15.4292 -19.64 -10
      vertex 12.5314 -18.8635 -8
      vertex 15.4292 -19.64 -8
    endloop
  endfacet
  facet normal 0.258819 0.965926 0
    outer loop
      vertex 12.5314 -18.8635 -8
      vertex 15.4292 -19.64 -10
      vertex 12.5314 -18.8635 -10
    endloop
  endfacet
  facet normal 0.297268 0.954794 -0
    outer loop
      vertex 21.4159 -18.4816 -12
      vertex 21.0829 -18.378 -10
      vertex 21.4159 -18.4816 -10
    endloop
  endfacet
  facet normal 0.297268 0.954794 0
    outer loop
      vertex 21.0829 -18.378 -10
      vertex 21.4159 -18.4816 -12
      vertex 21.0829 -18.378 -12
    endloop
  endfacet
  facet normal 0.297268 0.954794 -5.6302e-008
    outer loop
      vertex 20.8859 -18.3166 -10
      vertex 3.60103 -12.9351 -10.7281
      vertex 2.70405 -12.6558 -10
    endloop
  endfacet
  facet normal 0.297268 0.954794 1.78467e-007
    outer loop
      vertex 20.8859 -18.3166 -10
      vertex 4.13094 -13.1001 -11.2362
      vertex 3.60103 -12.9351 -10.7281
    endloop
  endfacet
  facet normal 0.297268 0.954794 0
    outer loop
      vertex 4.92733 -13.348 -12
      vertex 20.8859 -18.3166 -10
      vertex 20.8859 -18.3166 -12
    endloop
  endfacet
  facet normal 0.297268 0.954794 5.04816e-008
    outer loop
      vertex 20.8859 -18.3166 -10
      vertex 4.92733 -13.348 -12
      vertex 4.13094 -13.1001 -11.2362
    endloop
  endfacet
  facet normal 0.454353 0.890822 -0
    outer loop
      vertex 34 -24.9 -12
      vertex 21.8785 -18.7176 -10
      vertex 34 -24.9 -10
    endloop
  endfacet
  facet normal 0.454353 0.890822 0
    outer loop
      vertex 21.8785 -18.7176 -10
      vertex 34 -24.9 -12
      vertex 21.8785 -18.7176 -12
    endloop
  endfacet
  facet normal 0.454354 0.890821 -0
    outer loop
      vertex 21.7735 -18.664 -12
      vertex 21.4159 -18.4816 -10
      vertex 21.7735 -18.664 -10
    endloop
  endfacet
  facet normal 0.454354 0.890821 0
    outer loop
      vertex 21.4159 -18.4816 -10
      vertex 21.7735 -18.664 -12
      vertex 21.4159 -18.4816 -12
    endloop
  endfacet
  facet normal -0.32877 -0.94441 0
    outer loop
      vertex 18.5841 -25.3184 -12
      vertex 26 -27.9 -10
      vertex 18.5841 -25.3184 -10
    endloop
  endfacet
  facet normal -0.32877 -0.94441 -0
    outer loop
      vertex 26 -27.9 -10
      vertex 18.5841 -25.3184 -12
      vertex 26 -27.9 -12
    endloop
  endfacet
  facet normal -0.44335 -0.896349 0
    outer loop
      vertex 18.158 -25.1076 -12
      vertex 18.5841 -25.3184 -10
      vertex 18.158 -25.1076 -10
    endloop
  endfacet
  facet normal -0.44335 -0.896349 -0
    outer loop
      vertex 18.5841 -25.3184 -10
      vertex 18.158 -25.1076 -12
      vertex 18.5841 -25.3184 -12
    endloop
  endfacet
  facet normal -0.443351 -0.896348 1.03404e-006
    outer loop
      vertex 1.79915 -17.0162 -10.5983
      vertex 18.1477 -25.1025 -10
      vertex 1.09269 -16.6668 -10
    endloop
  endfacet
  facet normal -0.443351 -0.896348 -5.88075e-007
    outer loop
      vertex 2.33754 -17.2825 -11.142
      vertex 18.1477 -25.1025 -10
      vertex 1.79915 -17.0162 -10.5983
    endloop
  endfacet
  facet normal -0.443351 -0.896348 5.55282e-007
    outer loop
      vertex 3.18724 -17.7028 -12
      vertex 18.1477 -25.1025 -10
      vertex 2.33754 -17.2825 -11.142
    endloop
  endfacet
  facet normal -0.443351 -0.896348 -0
    outer loop
      vertex 18.1477 -25.1025 -10
      vertex 3.18724 -17.7028 -12
      vertex 18.1477 -25.1025 -12
    endloop
  endfacet
  facet normal 0.656082 0.271758 0.704063
    outer loop
      vertex 4.33013 -11.4 -12
      vertex 2.59808 -12.4 -10
      vertex 4.82963 -12.6059 -12
    endloop
  endfacet
  facet normal -0.656082 0.271758 0.704063
    outer loop
      vertex -4.33013 -11.4 -12
      vertex -4.82963 -12.6059 -12
      vertex -2.59808 -12.4 -10
    endloop
  endfacet
  facet normal -0.656082 0.271757 0.704063
    outer loop
      vertex -2.59808 -12.4 -10
      vertex -4.82963 -12.6059 -12
      vertex -2.89778 -13.1235 -10
    endloop
  endfacet
  facet normal 0.271759 -0.65608 0.704064
    outer loop
      vertex 0.776457 -16.7978 -10
      vertex 1.79915 -17.0162 -10.5983
      vertex 1.09269 -16.6668 -10
    endloop
  endfacet
  facet normal 0.271758 -0.656082 0.704062
    outer loop
      vertex 1.79915 -17.0162 -10.5983
      vertex 0.776457 -16.7978 -10
      vertex 2.5 -18.2301 -12
    endloop
  endfacet
  facet normal 0.56339 0.432304 0.704063
    outer loop
      vertex 3.53553 -10.3645 -12
      vertex 2.59808 -12.4 -10
      vertex 4.33013 -11.4 -12
    endloop
  endfacet
  facet normal 0.271758 0.656082 0.704063
    outer loop
      vertex 2.5 -9.56987 -12
      vertex 0.776457 -11.0022 -10
      vertex 1.5 -11.3019 -10
    endloop
  endfacet
  facet normal 0.432304 0.56339 0.704063
    outer loop
      vertex 2.5 -9.56987 -12
      vertex 2.12132 -11.7787 -10
      vertex 3.53553 -10.3645 -12
    endloop
  endfacet
  facet normal -0.56339 -0.432304 0.704063
    outer loop
      vertex -2.59808 -15.4 -10
      vertex -4.33013 -16.4 -12
      vertex -3.53553 -17.4355 -12
    endloop
  endfacet
  facet normal -0.432304 -0.563391 0.704063
    outer loop
      vertex -2.12132 -16.0213 -10
      vertex -3.53553 -17.4355 -12
      vertex -2.5 -18.2301 -12
    endloop
  endfacet
  facet normal 0.432304 -0.563391 0.704063
    outer loop
      vertex 3.18724 -17.7028 -12
      vertex 2.33754 -17.2825 -11.142
      vertex 2.5 -18.2301 -12
    endloop
  endfacet
  facet normal 0.56339 0.432305 0.704063
    outer loop
      vertex 3.53553 -10.3645 -12
      vertex 2.12132 -11.7787 -10
      vertex 2.59808 -12.4 -10
    endloop
  endfacet
  facet normal 0.704062 0.0926917 0.704063
    outer loop
      vertex 4.82963 -12.6059 -12
      vertex 4.13094 -13.1001 -11.2362
      vertex 4.92733 -13.348 -12
    endloop
  endfacet
  facet normal 0.656082 0.271758 0.704063
    outer loop
      vertex 2.59808 -12.4 -10
      vertex 3.60103 -12.9351 -10.7281
      vertex 4.82963 -12.6059 -12
    endloop
  endfacet
  facet normal 0.656082 0.271757 0.704063
    outer loop
      vertex 3.60103 -12.9351 -10.7281
      vertex 2.59808 -12.4 -10
      vertex 2.70405 -12.6558 -10
    endloop
  endfacet
  facet normal 0.0926917 0.704063 0.704063
    outer loop
      vertex 1.2941 -9.07037 -12
      vertex 0 -8.9 -12
      vertex 0.776457 -11.0022 -10
    endloop
  endfacet
  facet normal 0.271758 0.656082 0.704063
    outer loop
      vertex 1.2941 -9.07037 -12
      vertex 0.776457 -11.0022 -10
      vertex 2.5 -9.56987 -12
    endloop
  endfacet
  facet normal 0.432304 0.56339 0.704063
    outer loop
      vertex 2.5 -9.56987 -12
      vertex 1.5 -11.3019 -10
      vertex 2.12132 -11.7787 -10
    endloop
  endfacet
  facet normal -0.56339 0.432304 0.704063
    outer loop
      vertex -3.53553 -10.3645 -12
      vertex -4.33013 -11.4 -12
      vertex -2.59808 -12.4 -10
    endloop
  endfacet
  facet normal -0.271758 0.656082 0.704063
    outer loop
      vertex -0.776457 -11.0022 -10
      vertex -2.5 -9.56987 -12
      vertex -1.5 -11.3019 -10
    endloop
  endfacet
  facet normal -0.0926917 0.704063 0.704063
    outer loop
      vertex 0 -8.9 -12
      vertex -1.2941 -9.07037 -12
      vertex -0.776457 -11.0022 -10
    endloop
  endfacet
  facet normal -0.656082 -0.271758 0.704063
    outer loop
      vertex -2.59808 -15.4 -10
      vertex -4.82963 -15.1941 -12
      vertex -4.33013 -16.4 -12
    endloop
  endfacet
  facet normal -0.704062 0.0926924 0.704063
    outer loop
      vertex -2.89778 -13.1235 -10
      vertex -4.82963 -12.6059 -12
      vertex -3 -13.9 -10
    endloop
  endfacet
  facet normal -0.0926912 -0.704063 0.704063
    outer loop
      vertex -0.776457 -16.7978 -10
      vertex -1.2941 -18.7296 -12
      vertex 0 -18.9 -12
    endloop
  endfacet
  facet normal 0.704063 0.0926909 0.704063
    outer loop
      vertex 4.82963 -12.6059 -12
      vertex 3.60103 -12.9351 -10.7281
      vertex 4.13094 -13.1001 -11.2362
    endloop
  endfacet
  facet normal -0.56339 0.432305 0.704063
    outer loop
      vertex -2.12132 -11.7787 -10
      vertex -3.53553 -10.3645 -12
      vertex -2.59808 -12.4 -10
    endloop
  endfacet
  facet normal 0.0926916 0.704063 0.704063
    outer loop
      vertex 0.776457 -11.0022 -10
      vertex 0 -8.9 -12
      vertex 0 -10.9 -10
    endloop
  endfacet
  facet normal -0.0926916 0.704063 0.704063
    outer loop
      vertex 0 -8.9 -12
      vertex -0.776457 -11.0022 -10
      vertex 0 -10.9 -10
    endloop
  endfacet
  facet normal -0.432304 0.56339 0.704063
    outer loop
      vertex -2.5 -9.56987 -12
      vertex -3.53553 -10.3645 -12
      vertex -2.12132 -11.7787 -10
    endloop
  endfacet
  facet normal -0.432304 0.56339 0.704063
    outer loop
      vertex -1.5 -11.3019 -10
      vertex -2.5 -9.56987 -12
      vertex -2.12132 -11.7787 -10
    endloop
  endfacet
  facet normal -0.271759 -0.656081 0.704063
    outer loop
      vertex -0.776457 -16.7978 -10
      vertex -2.5 -18.2301 -12
      vertex -1.2941 -18.7296 -12
    endloop
  endfacet
  facet normal -0.271759 -0.656082 0.704062
    outer loop
      vertex -1.5 -16.4981 -10
      vertex -2.5 -18.2301 -12
      vertex -0.776457 -16.7978 -10
    endloop
  endfacet
  facet normal -0.56339 -0.432305 0.704063
    outer loop
      vertex -2.59808 -15.4 -10
      vertex -3.53553 -17.4355 -12
      vertex -2.12132 -16.0213 -10
    endloop
  endfacet
  facet normal -0.704063 0.0926917 0.704063
    outer loop
      vertex -4.82963 -12.6059 -12
      vertex -5 -13.9 -12
      vertex -3 -13.9 -10
    endloop
  endfacet
  facet normal 0.0926916 -0.704063 0.704063
    outer loop
      vertex 0.776457 -16.7978 -10
      vertex 0 -16.9 -10
      vertex 0 -18.9 -12
    endloop
  endfacet
  facet normal -0.271758 0.656082 0.704063
    outer loop
      vertex -1.2941 -9.07037 -12
      vertex -2.5 -9.56987 -12
      vertex -0.776457 -11.0022 -10
    endloop
  endfacet
  facet normal -0.432304 -0.563391 0.704063
    outer loop
      vertex -2.12132 -16.0213 -10
      vertex -2.5 -18.2301 -12
      vertex -1.5 -16.4981 -10
    endloop
  endfacet
  facet normal 0.0926912 -0.704063 0.704063
    outer loop
      vertex 0.776457 -16.7978 -10
      vertex 0 -18.9 -12
      vertex 1.2941 -18.7296 -12
    endloop
  endfacet
  facet normal 0.271759 -0.656081 0.704063
    outer loop
      vertex 2.5 -18.2301 -12
      vertex 0.776457 -16.7978 -10
      vertex 1.2941 -18.7296 -12
    endloop
  endfacet
  facet normal -0.704063 -0.0926917 0.704063
    outer loop
      vertex -3 -13.9 -10
      vertex -5 -13.9 -12
      vertex -4.82963 -15.1941 -12
    endloop
  endfacet
  facet normal -0.0926916 -0.704063 0.704063
    outer loop
      vertex 0 -16.9 -10
      vertex -0.776457 -16.7978 -10
      vertex 0 -18.9 -12
    endloop
  endfacet
  facet normal -0.704062 -0.0926924 0.704063
    outer loop
      vertex -3 -13.9 -10
      vertex -4.82963 -15.1941 -12
      vertex -2.89778 -14.6765 -10
    endloop
  endfacet
  facet normal -0.656082 -0.271757 0.704063
    outer loop
      vertex -2.89778 -14.6765 -10
      vertex -4.82963 -15.1941 -12
      vertex -2.59808 -15.4 -10
    endloop
  endfacet
  facet normal 0.432305 -0.56339 0.704062
    outer loop
      vertex 2.33754 -17.2825 -11.142
      vertex 1.79915 -17.0162 -10.5983
      vertex 2.5 -18.2301 -12
    endloop
  endfacet
  facet normal 0.991445 -0.130528 0
    outer loop
      vertex 23.5739 -22.8576 -8
      vertex 23.7 -21.9 -10
      vertex 23.7 -21.9 -8
    endloop
  endfacet
  facet normal 0.991445 -0.130528 0
    outer loop
      vertex 23.7 -21.9 -10
      vertex 23.5739 -22.8576 -8
      vertex 23.5739 -22.8576 -10
    endloop
  endfacet
  facet normal 0.130526 -0.991445 0
    outer loop
      vertex 20 -25.6 -10
      vertex 20.9576 -25.4739 -8
      vertex 20 -25.6 -8
    endloop
  endfacet
  facet normal 0.130526 -0.991445 0
    outer loop
      vertex 20.9576 -25.4739 -8
      vertex 20 -25.6 -10
      vertex 20.9576 -25.4739 -10
    endloop
  endfacet
  facet normal 0.793354 -0.608761 0
    outer loop
      vertex 22.6163 -24.5163 -8
      vertex 23.2043 -23.75 -10
      vertex 23.2043 -23.75 -8
    endloop
  endfacet
  facet normal 0.793354 -0.608761 0
    outer loop
      vertex 23.2043 -23.75 -10
      vertex 22.6163 -24.5163 -8
      vertex 22.6163 -24.5163 -10
    endloop
  endfacet
  facet normal 0.923879 -0.382684 0
    outer loop
      vertex 23.2043 -23.75 -8
      vertex 23.5739 -22.8576 -10
      vertex 23.5739 -22.8576 -8
    endloop
  endfacet
  facet normal 0.923879 -0.382684 0
    outer loop
      vertex 23.5739 -22.8576 -10
      vertex 23.2043 -23.75 -8
      vertex 23.2043 -23.75 -10
    endloop
  endfacet
  facet normal -0.382683 -0.92388 6.82271e-008
    outer loop
      vertex 18.15 -25.1043 -8
      vertex 18.158 -25.1076 -10
      vertex 19.0424 -25.4739 -8
    endloop
  endfacet
  facet normal -0.382697 -0.923874 0
    outer loop
      vertex 18.15 -25.1043 -12
      vertex 18.158 -25.1076 -10
      vertex 18.15 -25.1043 -8
    endloop
  endfacet
  facet normal -0.382697 -0.923874 -0
    outer loop
      vertex 18.158 -25.1076 -10
      vertex 18.15 -25.1043 -12
      vertex 18.158 -25.1076 -12
    endloop
  endfacet
  facet normal -0.382682 -0.92388 -0
    outer loop
      vertex 19.0424 -25.4739 -8
      vertex 18.158 -25.1076 -10
      vertex 19.0424 -25.4739 -10
    endloop
  endfacet
  facet normal -0.608762 -0.793353 0
    outer loop
      vertex 17.3837 -24.5163 -10
      vertex 18.15 -25.1043 -8
      vertex 17.3837 -24.5163 -8
    endloop
  endfacet
  facet normal -0.608763 -0.793352 4.40922e-007
    outer loop
      vertex 18.1477 -25.1025 -10
      vertex 18.15 -25.1043 -8
      vertex 17.3837 -24.5163 -10
    endloop
  endfacet
  facet normal -0.608526 -0.793534 0
    outer loop
      vertex 18.15 -25.1043 -12
      vertex 18.1477 -25.1025 -10
      vertex 18.1477 -25.1025 -12
    endloop
  endfacet
  facet normal -0.608526 -0.793534 0
    outer loop
      vertex 18.1477 -25.1025 -10
      vertex 18.15 -25.1043 -12
      vertex 18.15 -25.1043 -8
    endloop
  endfacet
  facet normal 0.608761 -0.793354 0
    outer loop
      vertex 21.85 -25.1043 -10
      vertex 22.6163 -24.5163 -8
      vertex 21.85 -25.1043 -8
    endloop
  endfacet
  facet normal 0.608761 -0.793354 0
    outer loop
      vertex 22.6163 -24.5163 -8
      vertex 21.85 -25.1043 -10
      vertex 22.6163 -24.5163 -10
    endloop
  endfacet
  facet normal 0.382683 -0.92388 0
    outer loop
      vertex 20.9576 -25.4739 -10
      vertex 21.85 -25.1043 -8
      vertex 20.9576 -25.4739 -8
    endloop
  endfacet
  facet normal 0.382683 -0.92388 0
    outer loop
      vertex 21.85 -25.1043 -8
      vertex 20.9576 -25.4739 -10
      vertex 21.85 -25.1043 -10
    endloop
  endfacet
  facet normal -0.991445 -0.130528 0
    outer loop
      vertex 16.4261 -22.8576 -10
      vertex 16.3 -21.9 -8
      vertex 16.3 -21.9 -10
    endloop
  endfacet
  facet normal -0.991445 -0.130528 0
    outer loop
      vertex 16.3 -21.9 -8
      vertex 16.4261 -22.8576 -10
      vertex 16.4261 -22.8576 -8
    endloop
  endfacet
  facet normal -0.793353 -0.608762 0
    outer loop
      vertex 17.3837 -24.5163 -10
      vertex 16.7957 -23.75 -8
      vertex 16.7957 -23.75 -10
    endloop
  endfacet
  facet normal -0.793353 -0.608762 0
    outer loop
      vertex 16.7957 -23.75 -8
      vertex 17.3837 -24.5163 -10
      vertex 17.3837 -24.5163 -8
    endloop
  endfacet
  facet normal -0.130526 -0.991445 0
    outer loop
      vertex 19.0424 -25.4739 -10
      vertex 20 -25.6 -8
      vertex 19.0424 -25.4739 -8
    endloop
  endfacet
  facet normal -0.130526 -0.991445 -0
    outer loop
      vertex 20 -25.6 -8
      vertex 19.0424 -25.4739 -10
      vertex 20 -25.6 -10
    endloop
  endfacet
  facet normal 0.923879 0.382684 0
    outer loop
      vertex 23.5739 -20.9424 -8
      vertex 23.2043 -20.05 -10
      vertex 23.2043 -20.05 -8
    endloop
  endfacet
  facet normal 0.923879 0.382684 0
    outer loop
      vertex 23.2043 -20.05 -10
      vertex 23.5739 -20.9424 -8
      vertex 23.5739 -20.9424 -10
    endloop
  endfacet
  facet normal -0.793353 0.608762 0
    outer loop
      vertex 16.7957 -20.05 -10
      vertex 17.3837 -19.2837 -8
      vertex 17.3837 -19.2837 -10
    endloop
  endfacet
  facet normal -0.793353 0.608762 0
    outer loop
      vertex 17.3837 -19.2837 -8
      vertex 16.7957 -20.05 -10
      vertex 16.7957 -20.05 -8
    endloop
  endfacet
  facet normal 0.382684 0.923879 -9.49068e-008
    outer loop
      vertex 21.0829 -18.378 -10
      vertex 21.85 -18.6957 -8
      vertex 21.7735 -18.664 -10
    endloop
  endfacet
  facet normal 0.382682 0.92388 -0
    outer loop
      vertex 21.85 -18.6957 -12
      vertex 21.7735 -18.664 -10
      vertex 21.85 -18.6957 -8
    endloop
  endfacet
  facet normal 0.382682 0.92388 0
    outer loop
      vertex 21.7735 -18.664 -10
      vertex 21.85 -18.6957 -12
      vertex 21.7735 -18.664 -12
    endloop
  endfacet
  facet normal 0.382685 0.923879 -4.79449e-007
    outer loop
      vertex 21.85 -18.6957 -8
      vertex 21.0829 -18.378 -10
      vertex 20.9576 -18.3261 -8
    endloop
  endfacet
  facet normal 0.382691 0.923876 0
    outer loop
      vertex 20.9576 -18.3261 -12
      vertex 21.0829 -18.378 -10
      vertex 21.0829 -18.378 -12
    endloop
  endfacet
  facet normal 0.382691 0.923876 0
    outer loop
      vertex 21.0829 -18.378 -10
      vertex 20.9576 -18.3261 -12
      vertex 20.9576 -18.3261 -8
    endloop
  endfacet
  facet normal 0.608761 0.793353 0
    outer loop
      vertex 21.8785 -18.7176 -10
      vertex 22.6163 -19.2837 -8
      vertex 22.6163 -19.2837 -10
    endloop
  endfacet
  facet normal 0.608761 0.793354 1.18309e-007
    outer loop
      vertex 22.6163 -19.2837 -8
      vertex 21.8785 -18.7176 -10
      vertex 21.85 -18.6957 -8
    endloop
  endfacet
  facet normal 0.608756 0.793358 0
    outer loop
      vertex 21.85 -18.6957 -12
      vertex 21.8785 -18.7176 -10
      vertex 21.8785 -18.7176 -12
    endloop
  endfacet
  facet normal 0.608756 0.793358 0
    outer loop
      vertex 21.8785 -18.7176 -10
      vertex 21.85 -18.6957 -12
      vertex 21.85 -18.6957 -8
    endloop
  endfacet
  facet normal 0.991445 0.130528 0
    outer loop
      vertex 23.7 -21.9 -8
      vertex 23.5739 -20.9424 -10
      vertex 23.5739 -20.9424 -8
    endloop
  endfacet
  facet normal 0.991445 0.130528 0
    outer loop
      vertex 23.5739 -20.9424 -10
      vertex 23.7 -21.9 -8
      vertex 23.7 -21.9 -10
    endloop
  endfacet
  facet normal -0.92388 -0.382683 0
    outer loop
      vertex 16.7957 -23.75 -10
      vertex 16.4261 -22.8576 -8
      vertex 16.4261 -22.8576 -10
    endloop
  endfacet
  facet normal -0.92388 -0.382683 0
    outer loop
      vertex 16.4261 -22.8576 -8
      vertex 16.7957 -23.75 -10
      vertex 16.7957 -23.75 -8
    endloop
  endfacet
  facet normal -0.991445 0.130528 0
    outer loop
      vertex 16.3 -21.9 -10
      vertex 16.4261 -20.9424 -8
      vertex 16.4261 -20.9424 -10
    endloop
  endfacet
  facet normal -0.991445 0.130528 0
    outer loop
      vertex 16.4261 -20.9424 -8
      vertex 16.3 -21.9 -10
      vertex 16.3 -21.9 -8
    endloop
  endfacet
  facet normal -0.130524 0.991445 0
    outer loop
      vertex 20 -18.2 -10
      vertex 19.0424 -18.3261 -8
      vertex 20 -18.2 -8
    endloop
  endfacet
  facet normal -0.130524 0.991445 0
    outer loop
      vertex 19.0424 -18.3261 -8
      vertex 20 -18.2 -10
      vertex 19.0424 -18.3261 -10
    endloop
  endfacet
  facet normal 0.130524 0.991445 -1.09016e-007
    outer loop
      vertex 20.9576 -18.3261 -8
      vertex 20.8859 -18.3166 -10
      vertex 20 -18.2 -8
    endloop
  endfacet
  facet normal 0.130521 0.991446 -0
    outer loop
      vertex 20.9576 -18.3261 -12
      vertex 20.8859 -18.3166 -10
      vertex 20.9576 -18.3261 -8
    endloop
  endfacet
  facet normal 0.130521 0.991446 0
    outer loop
      vertex 20.8859 -18.3166 -10
      vertex 20.9576 -18.3261 -12
      vertex 20.8859 -18.3166 -12
    endloop
  endfacet
  facet normal 0.130524 0.991445 0
    outer loop
      vertex 20 -18.2 -8
      vertex 20.8859 -18.3166 -10
      vertex 20 -18.2 -10
    endloop
  endfacet
  facet normal 0 0 1
    outer loop
      vertex 21.65 -21.9 -8
      vertex 23.7 -21.9 -8
      vertex 23.5739 -20.9424 -8
    endloop
  endfacet
  facet normal 0 0 1
    outer loop
      vertex 21.5938 -21.4729 -8
      vertex 23.5739 -20.9424 -8
      vertex 23.2043 -20.05 -8
    endloop
  endfacet
  facet normal 0 0 1
    outer loop
      vertex 23.7 -21.9 -8
      vertex 21.65 -21.9 -8
      vertex 23.5739 -22.8576 -8
    endloop
  endfacet
  facet normal 0 0 1
    outer loop
      vertex 21.4289 -21.075 -8
      vertex 23.2043 -20.05 -8
      vertex 22.6163 -19.2837 -8
    endloop
  endfacet
  facet normal -0 0 1
    outer loop
      vertex 21.5938 -22.3271 -8
      vertex 23.5739 -22.8576 -8
      vertex 21.65 -21.9 -8
    endloop
  endfacet
  facet normal 0 0 1
    outer loop
      vertex 21.1667 -20.7333 -8
      vertex 22.6163 -19.2837 -8
      vertex 21.85 -18.6957 -8
    endloop
  endfacet
  facet normal 0 0 1
    outer loop
      vertex 23.5739 -22.8576 -8
      vertex 21.5938 -22.3271 -8
      vertex 23.2043 -23.75 -8
    endloop
  endfacet
  facet normal -0 0 1
    outer loop
      vertex 21.4289 -22.725 -8
      vertex 23.2043 -23.75 -8
      vertex 21.5938 -22.3271 -8
    endloop
  endfacet
  facet normal 0 0 1
    outer loop
      vertex 23.5739 -20.9424 -8
      vertex 21.5938 -21.4729 -8
      vertex 21.65 -21.9 -8
    endloop
  endfacet
  facet normal 0 0 1
    outer loop
      vertex 23.2043 -20.05 -8
      vertex 21.4289 -21.075 -8
      vertex 21.5938 -21.4729 -8
    endloop
  endfacet
  facet normal 0 0 1
    outer loop
      vertex 22.6163 -19.2837 -8
      vertex 21.1667 -20.7333 -8
      vertex 21.4289 -21.075 -8
    endloop
  endfacet
  facet normal 0 0 1
    outer loop
      vertex 20.825 -20.4711 -8
      vertex 21.85 -18.6957 -8
      vertex 20.9576 -18.3261 -8
    endloop
  endfacet
  facet normal 0 0 1
    outer loop
      vertex 21.85 -18.6957 -8
      vertex 20.825 -20.4711 -8
      vertex 21.1667 -20.7333 -8
    endloop
  endfacet
  facet normal 0 0 1
    outer loop
      vertex 20.9576 -18.3261 -8
      vertex 20.4271 -20.3062 -8
      vertex 20.825 -20.4711 -8
    endloop
  endfacet
  facet normal 0 0 1
    outer loop
      vertex 20 -18.2 -8
      vertex 20.4271 -20.3062 -8
      vertex 20.9576 -18.3261 -8
    endloop
  endfacet
  facet normal 0 0 1
    outer loop
      vertex 20 -18.2 -8
      vertex 20 -20.25 -8
      vertex 20.4271 -20.3062 -8
    endloop
  endfacet
  facet normal 0 0 1
    outer loop
      vertex 20 -18.2 -8
      vertex 19.5729 -20.3062 -8
      vertex 20 -20.25 -8
    endloop
  endfacet
  facet normal -0 0 1
    outer loop
      vertex 19.0424 -18.3261 -8
      vertex 19.5729 -20.3062 -8
      vertex 20 -18.2 -8
    endloop
  endfacet
  facet normal 0 0 1
    outer loop
      vertex 19.5729 -20.3062 -8
      vertex 19.0424 -18.3261 -8
      vertex 19.175 -20.4711 -8
    endloop
  endfacet
  facet normal -0 0 1
    outer loop
      vertex 18.15 -18.6957 -8
      vertex 19.175 -20.4711 -8
      vertex 19.0424 -18.3261 -8
    endloop
  endfacet
  facet normal 0 0 1
    outer loop
      vertex 19.175 -20.4711 -8
      vertex 18.15 -18.6957 -8
      vertex 18.8333 -20.7333 -8
    endloop
  endfacet
  facet normal -0 0 1
    outer loop
      vertex 17.3837 -19.2837 -8
      vertex 18.8333 -20.7333 -8
      vertex 18.15 -18.6957 -8
    endloop
  endfacet
  facet normal -0 0 1
    outer loop
      vertex 16.7957 -20.05 -8
      vertex 18.5711 -21.075 -8
      vertex 17.3837 -19.2837 -8
    endloop
  endfacet
  facet normal 0 0 1
    outer loop
      vertex 18.8333 -20.7333 -8
      vertex 17.3837 -19.2837 -8
      vertex 18.5711 -21.075 -8
    endloop
  endfacet
  facet normal 0 0 1
    outer loop
      vertex 23.2043 -23.75 -8
      vertex 21.4289 -22.725 -8
      vertex 22.6163 -24.5163 -8
    endloop
  endfacet
  facet normal -0 0 1
    outer loop
      vertex 21.1667 -23.0667 -8
      vertex 22.6163 -24.5163 -8
      vertex 21.4289 -22.725 -8
    endloop
  endfacet
  facet normal 0 0 1
    outer loop
      vertex 22.6163 -24.5163 -8
      vertex 21.1667 -23.0667 -8
      vertex 21.85 -25.1043 -8
    endloop
  endfacet
  facet normal -0 0 1
    outer loop
      vertex 20.825 -23.3289 -8
      vertex 21.85 -25.1043 -8
      vertex 21.1667 -23.0667 -8
    endloop
  endfacet
  facet normal 0 0 1
    outer loop
      vertex 21.85 -25.1043 -8
      vertex 20.825 -23.3289 -8
      vertex 20.9576 -25.4739 -8
    endloop
  endfacet
  facet normal -0 0 1
    outer loop
      vertex 20.4271 -23.4938 -8
      vertex 20.9576 -25.4739 -8
      vertex 20.825 -23.3289 -8
    endloop
  endfacet
  facet normal -0 0 1
    outer loop
      vertex 20 -23.55 -8
      vertex 20.9576 -25.4739 -8
      vertex 20.4271 -23.4938 -8
    endloop
  endfacet
  facet normal 0 0 1
    outer loop
      vertex 20 -23.55 -8
      vertex 20 -25.6 -8
      vertex 20.9576 -25.4739 -8
    endloop
  endfacet
  facet normal 0 0 1
    outer loop
      vertex 19.5729 -23.4938 -8
      vertex 20 -25.6 -8
      vertex 20 -23.55 -8
    endloop
  endfacet
  facet normal 0 0 1
    outer loop
      vertex 19.0424 -25.4739 -8
      vertex 19.5729 -23.4938 -8
      vertex 19.175 -23.3289 -8
    endloop
  endfacet
  facet normal 0 0 1
    outer loop
      vertex 19.5729 -23.4938 -8
      vertex 19.0424 -25.4739 -8
      vertex 20 -25.6 -8
    endloop
  endfacet
  facet normal 0 0 1
    outer loop
      vertex 18.15 -25.1043 -8
      vertex 19.175 -23.3289 -8
      vertex 18.8333 -23.0667 -8
    endloop
  endfacet
  facet normal 0 0 1
    outer loop
      vertex 17.3837 -24.5163 -8
      vertex 18.8333 -23.0667 -8
      vertex 18.5711 -22.725 -8
    endloop
  endfacet
  facet normal 0 0 1
    outer loop
      vertex 16.7957 -23.75 -8
      vertex 18.5711 -22.725 -8
      vertex 18.4062 -22.3271 -8
    endloop
  endfacet
  facet normal 0 0 1
    outer loop
      vertex 19.175 -23.3289 -8
      vertex 18.15 -25.1043 -8
      vertex 19.0424 -25.4739 -8
    endloop
  endfacet
  facet normal 0 0 1
    outer loop
      vertex 16.4261 -22.8576 -8
      vertex 18.4062 -22.3271 -8
      vertex 18.35 -21.9 -8
    endloop
  endfacet
  facet normal 0 0 1
    outer loop
      vertex 18.5711 -21.075 -8
      vertex 16.7957 -20.05 -8
      vertex 18.4062 -21.4729 -8
    endloop
  endfacet
  facet normal -0 0 1
    outer loop
      vertex 16.4261 -20.9424 -8
      vertex 18.4062 -21.4729 -8
      vertex 16.7957 -20.05 -8
    endloop
  endfacet
  facet normal 0 0 1
    outer loop
      vertex 18.8333 -23.0667 -8
      vertex 17.3837 -24.5163 -8
      vertex 18.15 -25.1043 -8
    endloop
  endfacet
  facet normal 0 0 1
    outer loop
      vertex 18.4062 -21.4729 -8
      vertex 16.4261 -20.9424 -8
      vertex 18.35 -21.9 -8
    endloop
  endfacet
  facet normal 0 0 1
    outer loop
      vertex 18.5711 -22.725 -8
      vertex 16.7957 -23.75 -8
      vertex 17.3837 -24.5163 -8
    endloop
  endfacet
  facet normal 0 0 1
    outer loop
      vertex 16.3 -21.9 -8
      vertex 18.35 -21.9 -8
      vertex 16.4261 -20.9424 -8
    endloop
  endfacet
  facet normal 0 0 1
    outer loop
      vertex 18.4062 -22.3271 -8
      vertex 16.4261 -22.8576 -8
      vertex 16.7957 -23.75 -8
    endloop
  endfacet
  facet normal 0 0 1
    outer loop
      vertex 18.35 -21.9 -8
      vertex 16.3 -21.9 -8
      vertex 16.4261 -22.8576 -8
    endloop
  endfacet
  facet normal -0.92388 0.382683 0
    outer loop
      vertex 16.4261 -20.9424 -10
      vertex 16.7957 -20.05 -8
      vertex 16.7957 -20.05 -10
    endloop
  endfacet
  facet normal -0.92388 0.382683 0
    outer loop
      vertex 16.7957 -20.05 -8
      vertex 16.4261 -20.9424 -10
      vertex 16.4261 -20.9424 -8
    endloop
  endfacet
  facet normal -0.608762 0.793353 0
    outer loop
      vertex 18.15 -18.6957 -10
      vertex 17.3837 -19.2837 -8
      vertex 18.15 -18.6957 -8
    endloop
  endfacet
  facet normal -0.608762 0.793353 0
    outer loop
      vertex 17.3837 -19.2837 -8
      vertex 18.15 -18.6957 -10
      vertex 17.3837 -19.2837 -10
    endloop
  endfacet
  facet normal 0.793354 0.608761 0
    outer loop
      vertex 23.2043 -20.05 -8
      vertex 22.6163 -19.2837 -10
      vertex 22.6163 -19.2837 -8
    endloop
  endfacet
  facet normal 0.793354 0.608761 0
    outer loop
      vertex 22.6163 -19.2837 -10
      vertex 23.2043 -20.05 -8
      vertex 23.2043 -20.05 -10
    endloop
  endfacet
  facet normal -0.382684 0.923879 0
    outer loop
      vertex 19.0424 -18.3261 -10
      vertex 18.15 -18.6957 -8
      vertex 19.0424 -18.3261 -8
    endloop
  endfacet
  facet normal -0.382684 0.923879 0
    outer loop
      vertex 18.15 -18.6957 -8
      vertex 19.0424 -18.3261 -10
      vertex 18.15 -18.6957 -10
    endloop
  endfacet
  facet normal -0.991445 0.130527 0
    outer loop
      vertex 21.5938 -22.3271 -12
      vertex 21.65 -21.9 -8
      vertex 21.65 -21.9 -12
    endloop
  endfacet
  facet normal -0.991445 0.130527 0
    outer loop
      vertex 21.65 -21.9 -8
      vertex 21.5938 -22.3271 -12
      vertex 21.5938 -22.3271 -8
    endloop
  endfacet
  facet normal 0.991444 0.130532 0
    outer loop
      vertex 18.4062 -22.3271 -8
      vertex 18.35 -21.9 -12
      vertex 18.35 -21.9 -8
    endloop
  endfacet
  facet normal 0.991444 0.130532 0
    outer loop
      vertex 18.35 -21.9 -12
      vertex 18.4062 -22.3271 -8
      vertex 18.4062 -22.3271 -12
    endloop
  endfacet
  facet normal 0.130523 0.991445 -0
    outer loop
      vertex 20 -23.55 -12
      vertex 19.5729 -23.4938 -8
      vertex 20 -23.55 -8
    endloop
  endfacet
  facet normal 0.130523 0.991445 0
    outer loop
      vertex 19.5729 -23.4938 -8
      vertex 20 -23.55 -12
      vertex 19.5729 -23.4938 -12
    endloop
  endfacet
  facet normal -0.130523 -0.991445 0
    outer loop
      vertex 20 -20.25 -12
      vertex 20.4271 -20.3062 -8
      vertex 20 -20.25 -8
    endloop
  endfacet
  facet normal -0.130523 -0.991445 -0
    outer loop
      vertex 20.4271 -20.3062 -8
      vertex 20 -20.25 -12
      vertex 20.4271 -20.3062 -12
    endloop
  endfacet
  facet normal -0.608762 0.793353 0
    outer loop
      vertex 21.1667 -23.0667 -12
      vertex 20.825 -23.3289 -8
      vertex 21.1667 -23.0667 -8
    endloop
  endfacet
  facet normal -0.608762 0.793353 0
    outer loop
      vertex 20.825 -23.3289 -8
      vertex 21.1667 -23.0667 -12
      vertex 20.825 -23.3289 -12
    endloop
  endfacet
  facet normal -0.382685 0.923879 0
    outer loop
      vertex 20.825 -23.3289 -12
      vertex 20.4271 -23.4938 -8
      vertex 20.825 -23.3289 -8
    endloop
  endfacet
  facet normal -0.382685 0.923879 0
    outer loop
      vertex 20.4271 -23.4938 -8
      vertex 20.825 -23.3289 -12
      vertex 20.4271 -23.4938 -12
    endloop
  endfacet
  facet normal 0.60876 0.793355 -0
    outer loop
      vertex 19.175 -23.3289 -12
      vertex 18.8333 -23.0667 -8
      vertex 19.175 -23.3289 -8
    endloop
  endfacet
  facet normal 0.60876 0.793355 0
    outer loop
      vertex 18.8333 -23.0667 -8
      vertex 19.175 -23.3289 -12
      vertex 18.8333 -23.0667 -12
    endloop
  endfacet
  facet normal 0.793354 0.60876 0
    outer loop
      vertex 18.8333 -23.0667 -8
      vertex 18.5711 -22.725 -12
      vertex 18.5711 -22.725 -8
    endloop
  endfacet
  facet normal 0.793354 0.60876 0
    outer loop
      vertex 18.5711 -22.725 -12
      vertex 18.8333 -23.0667 -8
      vertex 18.8333 -23.0667 -12
    endloop
  endfacet
  facet normal 0.382685 0.923879 -0
    outer loop
      vertex 19.5729 -23.4938 -12
      vertex 19.175 -23.3289 -8
      vertex 19.5729 -23.4938 -8
    endloop
  endfacet
  facet normal 0.382685 0.923879 0
    outer loop
      vertex 19.175 -23.3289 -8
      vertex 19.5729 -23.4938 -12
      vertex 19.175 -23.3289 -12
    endloop
  endfacet
  facet normal -0.793354 0.60876 0
    outer loop
      vertex 21.1667 -23.0667 -12
      vertex 21.4289 -22.725 -8
      vertex 21.4289 -22.725 -12
    endloop
  endfacet
  facet normal -0.793354 0.60876 0
    outer loop
      vertex 21.4289 -22.725 -8
      vertex 21.1667 -23.0667 -12
      vertex 21.1667 -23.0667 -8
    endloop
  endfacet
  facet normal -0.92388 0.382683 0
    outer loop
      vertex 21.4289 -22.725 -12
      vertex 21.5938 -22.3271 -8
      vertex 21.5938 -22.3271 -12
    endloop
  endfacet
  facet normal -0.92388 0.382683 0
    outer loop
      vertex 21.5938 -22.3271 -8
      vertex 21.4289 -22.725 -12
      vertex 21.4289 -22.725 -8
    endloop
  endfacet
  facet normal -0.130523 0.991445 0
    outer loop
      vertex 20.4271 -23.4938 -12
      vertex 20 -23.55 -8
      vertex 20.4271 -23.4938 -8
    endloop
  endfacet
  facet normal -0.130523 0.991445 0
    outer loop
      vertex 20 -23.55 -8
      vertex 20.4271 -23.4938 -12
      vertex 20 -23.55 -12
    endloop
  endfacet
  facet normal 0.923881 0.382679 0
    outer loop
      vertex 18.5711 -22.725 -8
      vertex 18.4062 -22.3271 -12
      vertex 18.4062 -22.3271 -8
    endloop
  endfacet
  facet normal 0.923881 0.382679 0
    outer loop
      vertex 18.4062 -22.3271 -12
      vertex 18.5711 -22.725 -8
      vertex 18.5711 -22.725 -12
    endloop
  endfacet
  facet normal -0.991445 -0.130527 0
    outer loop
      vertex 21.65 -21.9 -12
      vertex 21.5938 -21.4729 -8
      vertex 21.5938 -21.4729 -12
    endloop
  endfacet
  facet normal -0.991445 -0.130527 0
    outer loop
      vertex 21.5938 -21.4729 -8
      vertex 21.65 -21.9 -12
      vertex 21.65 -21.9 -8
    endloop
  endfacet
  facet normal -0.793354 -0.60876 0
    outer loop
      vertex 21.4289 -21.075 -12
      vertex 21.1667 -20.7333 -8
      vertex 21.1667 -20.7333 -12
    endloop
  endfacet
  facet normal -0.793354 -0.60876 0
    outer loop
      vertex 21.1667 -20.7333 -8
      vertex 21.4289 -21.075 -12
      vertex 21.4289 -21.075 -8
    endloop
  endfacet
  facet normal -0.92388 -0.382683 0
    outer loop
      vertex 21.5938 -21.4729 -12
      vertex 21.4289 -21.075 -8
      vertex 21.4289 -21.075 -12
    endloop
  endfacet
  facet normal -0.92388 -0.382683 0
    outer loop
      vertex 21.4289 -21.075 -8
      vertex 21.5938 -21.4729 -12
      vertex 21.5938 -21.4729 -8
    endloop
  endfacet
  facet normal 0.60876 -0.793355 0
    outer loop
      vertex 18.8333 -20.7333 -12
      vertex 19.175 -20.4711 -8
      vertex 18.8333 -20.7333 -8
    endloop
  endfacet
  facet normal 0.60876 -0.793355 0
    outer loop
      vertex 19.175 -20.4711 -8
      vertex 18.8333 -20.7333 -12
      vertex 19.175 -20.4711 -12
    endloop
  endfacet
  facet normal 0.793354 -0.60876 0
    outer loop
      vertex 18.5711 -21.075 -8
      vertex 18.8333 -20.7333 -12
      vertex 18.8333 -20.7333 -8
    endloop
  endfacet
  facet normal 0.793354 -0.60876 0
    outer loop
      vertex 18.8333 -20.7333 -12
      vertex 18.5711 -21.075 -8
      vertex 18.5711 -21.075 -12
    endloop
  endfacet
  facet normal 0.130523 -0.991445 0
    outer loop
      vertex 19.5729 -20.3062 -12
      vertex 20 -20.25 -8
      vertex 19.5729 -20.3062 -8
    endloop
  endfacet
  facet normal 0.130523 -0.991445 0
    outer loop
      vertex 20 -20.25 -8
      vertex 19.5729 -20.3062 -12
      vertex 20 -20.25 -12
    endloop
  endfacet
  facet normal 0.923881 -0.382679 0
    outer loop
      vertex 18.4062 -21.4729 -8
      vertex 18.5711 -21.075 -12
      vertex 18.5711 -21.075 -8
    endloop
  endfacet
  facet normal 0.923881 -0.382679 0
    outer loop
      vertex 18.5711 -21.075 -12
      vertex 18.4062 -21.4729 -8
      vertex 18.4062 -21.4729 -12
    endloop
  endfacet
  facet normal 0.991444 -0.130532 0
    outer loop
      vertex 18.35 -21.9 -8
      vertex 18.4062 -21.4729 -12
      vertex 18.4062 -21.4729 -8
    endloop
  endfacet
  facet normal 0.991444 -0.130532 0
    outer loop
      vertex 18.4062 -21.4729 -12
      vertex 18.35 -21.9 -8
      vertex 18.35 -21.9 -12
    endloop
  endfacet
  facet normal -0.608762 -0.793353 0
    outer loop
      vertex 20.825 -20.4711 -12
      vertex 21.1667 -20.7333 -8
      vertex 20.825 -20.4711 -8
    endloop
  endfacet
  facet normal -0.608762 -0.793353 -0
    outer loop
      vertex 21.1667 -20.7333 -8
      vertex 20.825 -20.4711 -12
      vertex 21.1667 -20.7333 -12
    endloop
  endfacet
  facet normal -0.382685 -0.923879 0
    outer loop
      vertex 20.4271 -20.3062 -12
      vertex 20.825 -20.4711 -8
      vertex 20.4271 -20.3062 -8
    endloop
  endfacet
  facet normal -0.382685 -0.923879 -0
    outer loop
      vertex 20.825 -20.4711 -8
      vertex 20.4271 -20.3062 -12
      vertex 20.825 -20.4711 -12
    endloop
  endfacet
  facet normal 0.382685 -0.923879 0
    outer loop
      vertex 19.175 -20.4711 -12
      vertex 19.5729 -20.3062 -8
      vertex 19.175 -20.4711 -8
    endloop
  endfacet
  facet normal 0.382685 -0.923879 0
    outer loop
      vertex 19.5729 -20.3062 -8
      vertex 19.175 -20.4711 -12
      vertex 19.5729 -20.3062 -12
    endloop
  endfacet
  facet normal -0.991445 0.0337831 0.12608
    outer loop
      vertex 32.1733 -26.4996 -6.17427
      vertex 32.25 -24.9 -6
      vertex 32.1733 -24.9 -6.60289
    endloop
  endfacet
  facet normal -0.991445 0.0337831 0.12608
    outer loop
      vertex 32.25 -24.9 -6
      vertex 32.1733 -26.4996 -6.17427
      vertex 32.25 -26.3489 -5.61177
    endloop
  endfacet
  facet normal -4.94576e-006 0.965923 -0.258829
    outer loop
      vertex 31.125 -25.8446 -3.72961
      vertex 31.591 -25.9371 -4.07499
      vertex 30.5823 -25.7864 -3.51249
    endloop
  endfacet
  facet normal -0.923881 0.0990448 0.369641
    outer loop
      vertex 31.9486 -26.6401 -6.69844
      vertex 32.0773 -24.9 -6.84293
      vertex 31.9486 -24.9 -7.16469
    endloop
  endfacet
  facet normal 0.923881 0.0990448 0.36964
    outer loop
      vertex 28.0514 -26.6401 -6.69844
      vertex 27.8267 -24.9 -6.60289
      vertex 27.8267 -26.4996 -6.17427
    endloop
  endfacet
  facet normal 0.923881 0.0990448 0.36964
    outer loop
      vertex 27.8267 -24.9 -6.60289
      vertex 28.0514 -26.6401 -6.69844
      vertex 27.9227 -24.9 -6.84293
    endloop
  endfacet
  facet normal 1.34929e-006 0.965926 -0.258817
    outer loop
      vertex 30 -26.9312 -7.7851
      vertex 28.875 -26.8532 -7.49393
      vertex 27.8267 -26.4996 -6.17427
    endloop
  endfacet
  facet normal 0.923881 0.0990448 0.369641
    outer loop
      vertex 28.0514 -26.6401 -6.69844
      vertex 28.0514 -24.9 -7.16469
      vertex 27.9227 -24.9 -6.84293
    endloop
  endfacet
  facet normal 0.130528 0.256605 0.957662
    outer loop
      vertex 29.4177 -26.9114 -7.71105
      vertex 30 -24.9 -8.32937
      vertex 29.4177 -24.9 -8.25
    endloop
  endfacet
  facet normal 0.130527 0.256605 0.957662
    outer loop
      vertex 30 -24.9 -8.32937
      vertex 29.4177 -26.9114 -7.71105
      vertex 30 -26.9312 -7.7851
    endloop
  endfacet
  facet normal 0 0.965922 -0.258833
    outer loop
      vertex 30 -25.7665 -3.43844
      vertex 30.5823 -25.7864 -3.51249
      vertex 29.4177 -25.7864 -3.51249
    endloop
  endfacet
  facet normal 2.89677e-006 0.965928 -0.258812
    outer loop
      vertex 30 -26.9312 -7.7851
      vertex 29.4177 -26.9114 -7.71105
      vertex 28.875 -26.8532 -7.49393
    endloop
  endfacet
  facet normal 5.78143e-006 0.965925 -0.25882
    outer loop
      vertex 32.1733 -26.4996 -6.17427
      vertex 31.9486 -26.6401 -6.69844
      vertex 31.591 -26.7607 -7.14855
    endloop
  endfacet
  facet normal 8.60942e-006 0.965925 -0.258822
    outer loop
      vertex 27.8267 -26.1982 -5.04927
      vertex 28.409 -25.9371 -4.07499
      vertex 27.75 -26.3489 -5.61177
    endloop
  endfacet
  facet normal -0.793353 -0.157559 -0.588019
    outer loop
      vertex 31.9486 -26.0577 -4.5251
      vertex 31.7245 -24.9 -4.53304
      vertex 31.9486 -24.9 -4.83531
    endloop
  endfacet
  facet normal -0.793353 -0.157559 -0.588018
    outer loop
      vertex 31.7245 -24.9 -4.53304
      vertex 31.9486 -26.0577 -4.5251
      vertex 31.591 -25.9371 -4.07499
    endloop
  endfacet
  facet normal -0.382682 -0.239118 -0.892399
    outer loop
      vertex 30.7517 -24.9 -3.82264
      vertex 30.5823 -25.7864 -3.51249
      vertex 30.5823 -24.9 -3.75
    endloop
  endfacet
  facet normal -0.793354 0.157559 0.588017
    outer loop
      vertex 31.591 -26.7607 -7.14855
      vertex 31.7245 -24.9 -7.46696
      vertex 31.591 -24.9 -7.64711
    endloop
  endfacet
  facet normal -0.793353 0.157559 0.588019
    outer loop
      vertex 31.7245 -24.9 -7.46696
      vertex 31.591 -26.7607 -7.14855
      vertex 31.9486 -26.6401 -6.69844
    endloop
  endfacet
  facet normal -0.60876 0.205335 0.766321
    outer loop
      vertex 31.125 -26.8532 -7.49393
      vertex 31.4294 -24.9 -7.7755
      vertex 31.125 -24.9 -8.01729
    endloop
  endfacet
  facet normal 0 0.965925 -0.258821
    outer loop
      vertex 31.591 -25.9371 -4.07499
      vertex 29.4177 -25.7864 -3.51249
      vertex 30.5823 -25.7864 -3.51249
    endloop
  endfacet
  facet normal 0 0.965925 -0.258821
    outer loop
      vertex 29.4177 -25.7864 -3.51249
      vertex 31.591 -25.9371 -4.07499
      vertex 28.409 -25.9371 -4.07499
    endloop
  endfacet
  facet normal 2.89114e-008 0.965926 -0.258819
    outer loop
      vertex 28.409 -25.9371 -4.07499
      vertex 30 -26.9312 -7.7851
      vertex 27.8267 -26.4996 -6.17427
    endloop
  endfacet
  facet normal -1.34929e-006 0.965926 -0.258817
    outer loop
      vertex 32.1733 -26.4996 -6.17427
      vertex 31.125 -26.8532 -7.49393
      vertex 30 -26.9312 -7.7851
    endloop
  endfacet
  facet normal -0.923879 0.0990451 0.369646
    outer loop
      vertex 31.9486 -26.6401 -6.69844
      vertex 32.1733 -24.9 -6.60289
      vertex 32.0773 -24.9 -6.84293
    endloop
  endfacet
  facet normal -0.92388 0.0990455 0.369643
    outer loop
      vertex 32.1733 -24.9 -6.60289
      vertex 31.9486 -26.6401 -6.69844
      vertex 32.1733 -26.4996 -6.17427
    endloop
  endfacet
  facet normal -0.382685 0.239117 0.892399
    outer loop
      vertex 31.125 -26.8532 -7.49393
      vertex 31.125 -24.9 -8.01729
      vertex 30.7517 -24.9 -8.17736
    endloop
  endfacet
  facet normal -8.60938e-006 0.965925 -0.258822
    outer loop
      vertex 32.1733 -26.1982 -5.04927
      vertex 32.25 -26.3489 -5.61177
      vertex 31.591 -25.9371 -4.07499
    endloop
  endfacet
  facet normal -0.608763 -0.205335 -0.766319
    outer loop
      vertex 31.591 -24.9 -4.35289
      vertex 31.591 -25.9371 -4.07499
      vertex 31.4294 -24.9 -4.2245
    endloop
  endfacet
  facet normal 4.45652e-006 0.965926 -0.25882
    outer loop
      vertex 28.409 -25.9371 -4.07499
      vertex 27.8267 -26.4996 -6.17427
      vertex 27.75 -26.3489 -5.61177
    endloop
  endfacet
  facet normal -4.45651e-006 0.965926 -0.25882
    outer loop
      vertex 32.25 -26.3489 -5.61177
      vertex 32.1733 -26.4996 -6.17427
      vertex 31.591 -25.9371 -4.07499
    endloop
  endfacet
  facet normal -0.793353 0.157559 0.588019
    outer loop
      vertex 31.9486 -26.6401 -6.69844
      vertex 31.9486 -24.9 -7.16469
      vertex 31.7245 -24.9 -7.46696
    endloop
  endfacet
  facet normal -0.608763 0.205335 0.766319
    outer loop
      vertex 31.4294 -24.9 -7.7755
      vertex 31.591 -26.7607 -7.14855
      vertex 31.591 -24.9 -7.64711
    endloop
  endfacet
  facet normal -0.608763 0.205335 0.76632
    outer loop
      vertex 31.591 -26.7607 -7.14855
      vertex 31.4294 -24.9 -7.7755
      vertex 31.125 -26.8532 -7.49393
    endloop
  endfacet
  facet normal -7.25711e-006 0.965927 -0.258813
    outer loop
      vertex 32.1733 -26.4996 -6.17427
      vertex 31.591 -26.7607 -7.14855
      vertex 31.125 -26.8532 -7.49393
    endloop
  endfacet
  facet normal 0.382686 0.239117 0.892398
    outer loop
      vertex 28.875 -26.8532 -7.49393
      vertex 29.2483 -24.9 -8.17736
      vertex 28.875 -24.9 -8.01729
    endloop
  endfacet
  facet normal 0.382679 0.239118 0.892401
    outer loop
      vertex 29.2483 -24.9 -8.17736
      vertex 29.4177 -26.9114 -7.71105
      vertex 29.4177 -24.9 -8.25
    endloop
  endfacet
  facet normal 0.382683 0.239118 0.892399
    outer loop
      vertex 29.4177 -26.9114 -7.71105
      vertex 29.2483 -24.9 -8.17736
      vertex 28.875 -26.8532 -7.49393
    endloop
  endfacet
  facet normal 0.793353 0.157559 0.588019
    outer loop
      vertex 28.0514 -26.6401 -6.69844
      vertex 28.2755 -24.9 -7.46696
      vertex 28.0514 -24.9 -7.16469
    endloop
  endfacet
  facet normal -8.56961e-006 0.965925 -0.258822
    outer loop
      vertex 31.9486 -26.0577 -4.5251
      vertex 32.1733 -26.1982 -5.04927
      vertex 31.591 -25.9371 -4.07499
    endloop
  endfacet
  facet normal 0 0.965926 -0.258819
    outer loop
      vertex 31.591 -25.9371 -4.07499
      vertex 30 -26.9312 -7.7851
      vertex 28.409 -25.9371 -4.07499
    endloop
  endfacet
  facet normal 0.793354 -0.157559 -0.588017
    outer loop
      vertex 28.409 -24.9 -4.35289
      vertex 28.409 -25.9371 -4.07499
      vertex 28.2755 -24.9 -4.53304
    endloop
  endfacet
  facet normal 0.923881 -0.0990449 -0.36964
    outer loop
      vertex 27.9227 -24.9 -5.15707
      vertex 27.8267 -26.1982 -5.04927
      vertex 27.8267 -24.9 -5.39711
    endloop
  endfacet
  facet normal -0.130527 -0.256605 -0.957662
    outer loop
      vertex 30 -25.7665 -3.43844
      vertex 30.5823 -24.9 -3.75
      vertex 30.5823 -25.7864 -3.51249
    endloop
  endfacet
  facet normal -0.130527 -0.256605 -0.957662
    outer loop
      vertex 30.5823 -24.9 -3.75
      vertex 30 -25.7665 -3.43844
      vertex 30 -24.9 -3.67063
    endloop
  endfacet
  facet normal 0.608761 -0.205335 -0.766321
    outer loop
      vertex 28.875 -25.8446 -3.72961
      vertex 28.5706 -24.9 -4.2245
      vertex 28.875 -24.9 -3.9827
    endloop
  endfacet
  facet normal 0.60876 -0.205336 -0.766321
    outer loop
      vertex 28.5706 -24.9 -4.2245
      vertex 28.875 -25.8446 -3.72961
      vertex 28.409 -25.9371 -4.07499
    endloop
  endfacet
  facet normal -2.89114e-008 0.965926 -0.258819
    outer loop
      vertex 31.591 -25.9371 -4.07499
      vertex 32.1733 -26.4996 -6.17427
      vertex 30 -26.9312 -7.7851
    endloop
  endfacet
  facet normal -0.923881 -0.0990462 -0.36964
    outer loop
      vertex 32.1733 -26.1982 -5.04927
      vertex 31.9486 -24.9 -4.83531
      vertex 32.0773 -24.9 -5.15707
    endloop
  endfacet
  facet normal -0.92388 -0.0990456 -0.369643
    outer loop
      vertex 31.9486 -24.9 -4.83531
      vertex 32.1733 -26.1982 -5.04927
      vertex 31.9486 -26.0577 -4.5251
    endloop
  endfacet
  facet normal -0.130528 0.256605 0.957662
    outer loop
      vertex 30 -24.9 -8.32937
      vertex 30.5823 -26.9114 -7.71105
      vertex 30.5823 -24.9 -8.25
    endloop
  endfacet
  facet normal -0.130527 0.256605 0.957662
    outer loop
      vertex 30.5823 -26.9114 -7.71105
      vertex 30 -24.9 -8.32937
      vertex 30 -26.9312 -7.7851
    endloop
  endfacet
  facet normal -5.78137e-006 0.965925 -0.25882
    outer loop
      vertex 28.409 -26.7607 -7.14855
      vertex 28.0514 -26.6401 -6.69844
      vertex 27.8267 -26.4996 -6.17427
    endloop
  endfacet
  facet normal 0.793353 0.157559 0.588019
    outer loop
      vertex 28.409 -26.7607 -7.14855
      vertex 28.2755 -24.9 -7.46696
      vertex 28.0514 -26.6401 -6.69844
    endloop
  endfacet
  facet normal 0.793354 0.157559 0.588017
    outer loop
      vertex 28.2755 -24.9 -7.46696
      vertex 28.409 -26.7607 -7.14855
      vertex 28.409 -24.9 -7.64711
    endloop
  endfacet
  facet normal 0.60876 0.205335 0.766321
    outer loop
      vertex 28.875 -26.8532 -7.49393
      vertex 28.875 -24.9 -8.01729
      vertex 28.5706 -24.9 -7.7755
    endloop
  endfacet
  facet normal 0.991445 0.0337831 0.12608
    outer loop
      vertex 27.8267 -26.4996 -6.17427
      vertex 27.75 -24.9 -6
      vertex 27.75 -26.3489 -5.61177
    endloop
  endfacet
  facet normal 0.991445 0.0337831 0.12608
    outer loop
      vertex 27.75 -24.9 -6
      vertex 27.8267 -26.4996 -6.17427
      vertex 27.8267 -24.9 -6.60289
    endloop
  endfacet
  facet normal 0.991445 -0.0337831 -0.12608
    outer loop
      vertex 27.75 -26.3489 -5.61177
      vertex 27.8267 -24.9 -5.39711
      vertex 27.8267 -26.1982 -5.04927
    endloop
  endfacet
  facet normal 0.991445 -0.0337831 -0.12608
    outer loop
      vertex 27.8267 -24.9 -5.39711
      vertex 27.75 -26.3489 -5.61177
      vertex 27.75 -24.9 -6
    endloop
  endfacet
  facet normal 8.56952e-006 0.965925 -0.258822
    outer loop
      vertex 28.0514 -26.0577 -4.5251
      vertex 28.409 -25.9371 -4.07499
      vertex 27.8267 -26.1982 -5.04927
    endloop
  endfacet
  facet normal 0.382682 -0.239118 -0.892399
    outer loop
      vertex 29.4177 -24.9 -3.75
      vertex 29.4177 -25.7864 -3.51249
      vertex 29.2483 -24.9 -3.82264
    endloop
  endfacet
  facet normal 0.382685 -0.239117 -0.892399
    outer loop
      vertex 28.875 -25.8446 -3.72961
      vertex 29.2483 -24.9 -3.82264
      vertex 29.4177 -25.7864 -3.51249
    endloop
  endfacet
  facet normal 0.382685 -0.239117 -0.892398
    outer loop
      vertex 29.2483 -24.9 -3.82264
      vertex 28.875 -25.8446 -3.72961
      vertex 28.875 -24.9 -3.9827
    endloop
  endfacet
  facet normal -0.608762 -0.205335 -0.766321
    outer loop
      vertex 31.125 -25.8446 -3.72961
      vertex 31.4294 -24.9 -4.2245
      vertex 31.591 -25.9371 -4.07499
    endloop
  endfacet
  facet normal -0.608761 -0.205335 -0.766321
    outer loop
      vertex 31.4294 -24.9 -4.2245
      vertex 31.125 -25.8446 -3.72961
      vertex 31.125 -24.9 -3.9827
    endloop
  endfacet
  facet normal -0.382684 -0.239118 -0.892399
    outer loop
      vertex 31.125 -25.8446 -3.72961
      vertex 30.7517 -24.9 -3.82264
      vertex 31.125 -24.9 -3.9827
    endloop
  endfacet
  facet normal -0.382683 -0.239118 -0.892399
    outer loop
      vertex 30.7517 -24.9 -3.82264
      vertex 31.125 -25.8446 -3.72961
      vertex 30.5823 -25.7864 -3.51249
    endloop
  endfacet
  facet normal -0.793354 -0.157559 -0.588017
    outer loop
      vertex 31.7245 -24.9 -4.53304
      vertex 31.591 -25.9371 -4.07499
      vertex 31.591 -24.9 -4.35289
    endloop
  endfacet
  facet normal -0.923879 -0.0990465 -0.369646
    outer loop
      vertex 32.1733 -24.9 -5.39711
      vertex 32.1733 -26.1982 -5.04927
      vertex 32.0773 -24.9 -5.15707
    endloop
  endfacet
  facet normal -0.991445 -0.0337831 -0.12608
    outer loop
      vertex 32.25 -26.3489 -5.61177
      vertex 32.1733 -24.9 -5.39711
      vertex 32.25 -24.9 -6
    endloop
  endfacet
  facet normal -0.991445 -0.0337831 -0.12608
    outer loop
      vertex 32.1733 -24.9 -5.39711
      vertex 32.25 -26.3489 -5.61177
      vertex 32.1733 -26.1982 -5.04927
    endloop
  endfacet
  facet normal -0.382679 0.239118 0.892401
    outer loop
      vertex 30.5823 -26.9114 -7.71105
      vertex 30.7517 -24.9 -8.17736
      vertex 30.5823 -24.9 -8.25
    endloop
  endfacet
  facet normal -0.382682 0.239118 0.8924
    outer loop
      vertex 30.7517 -24.9 -8.17736
      vertex 30.5823 -26.9114 -7.71105
      vertex 31.125 -26.8532 -7.49393
    endloop
  endfacet
  facet normal -2.89679e-006 0.965928 -0.258812
    outer loop
      vertex 31.125 -26.8532 -7.49393
      vertex 30.5823 -26.9114 -7.71105
      vertex 30 -26.9312 -7.7851
    endloop
  endfacet
  facet normal 0.608758 0.205336 0.766323
    outer loop
      vertex 28.409 -26.7607 -7.14855
      vertex 28.5706 -24.9 -7.7755
      vertex 28.409 -24.9 -7.64711
    endloop
  endfacet
  facet normal 0.608761 0.205335 0.766321
    outer loop
      vertex 28.5706 -24.9 -7.7755
      vertex 28.409 -26.7607 -7.14855
      vertex 28.875 -26.8532 -7.49393
    endloop
  endfacet
  facet normal 7.25703e-006 0.965927 -0.258813
    outer loop
      vertex 28.875 -26.8532 -7.49393
      vertex 28.409 -26.7607 -7.14855
      vertex 27.8267 -26.4996 -6.17427
    endloop
  endfacet
  facet normal 0.608758 -0.205336 -0.766323
    outer loop
      vertex 28.5706 -24.9 -4.2245
      vertex 28.409 -25.9371 -4.07499
      vertex 28.409 -24.9 -4.35289
    endloop
  endfacet
  facet normal 0.793353 -0.157559 -0.588018
    outer loop
      vertex 28.0514 -26.0577 -4.5251
      vertex 28.2755 -24.9 -4.53304
      vertex 28.409 -25.9371 -4.07499
    endloop
  endfacet
  facet normal 0.793353 -0.157559 -0.588019
    outer loop
      vertex 28.2755 -24.9 -4.53304
      vertex 28.0514 -26.0577 -4.5251
      vertex 28.0514 -24.9 -4.83531
    endloop
  endfacet
  facet normal 0.923881 -0.0990449 -0.369641
    outer loop
      vertex 27.8267 -26.1982 -5.04927
      vertex 28.0514 -24.9 -4.83531
      vertex 28.0514 -26.0577 -4.5251
    endloop
  endfacet
  facet normal 0.923881 -0.0990449 -0.369641
    outer loop
      vertex 28.0514 -24.9 -4.83531
      vertex 27.8267 -26.1982 -5.04927
      vertex 27.9227 -24.9 -5.15707
    endloop
  endfacet
  facet normal 0.130527 -0.256605 -0.957662
    outer loop
      vertex 29.4177 -24.9 -3.75
      vertex 30 -25.7665 -3.43844
      vertex 29.4177 -25.7864 -3.51249
    endloop
  endfacet
  facet normal 0.130526 -0.256605 -0.957662
    outer loop
      vertex 30 -25.7665 -3.43844
      vertex 29.4177 -24.9 -3.75
      vertex 30 -24.9 -3.67063
    endloop
  endfacet
  facet normal 4.94582e-006 0.965923 -0.258829
    outer loop
      vertex 28.875 -25.8446 -3.72961
      vertex 29.4177 -25.7864 -3.51249
      vertex 28.409 -25.9371 -4.07499
    endloop
  endfacet
endsolid OpenSCAD_Model
