solid OpenSCAD_Model
  facet normal 0 0.793354 -0.608761
    outer loop
      vertex 49.9 10.5711 -4.175
      vertex 45.9 10.8333 -3.83327
      vertex 49.9 10.8333 -3.83327
    endloop
  endfacet
  facet normal 0 0.793354 -0.608761
    outer loop
      vertex 45.9 10.8333 -3.83327
      vertex 49.9 10.5711 -4.175
      vertex 45.9 10.5711 -4.175
    endloop
  endfacet
  facet normal 0 -0.130528 -0.991445
    outer loop
      vertex 45.9 12 -3.35
      vertex 49.9 12.4271 -3.40622
      vertex 49.9 12 -3.35
    endloop
  endfacet
  facet normal -0 -0.130528 -0.991445
    outer loop
      vertex 49.9 12.4271 -3.40622
      vertex 45.9 12 -3.35
      vertex 45.9 12.4271 -3.40622
    endloop
  endfacet
  facet normal 0 -0.92388 0.382681
    outer loop
      vertex 45.9 13.4289 -5.825
      vertex 49.9 13.5938 -5.42705
      vertex 45.9 13.5938 -5.42705
    endloop
  endfacet
  facet normal 0 -0.92388 0.382681
    outer loop
      vertex 49.9 13.5938 -5.42705
      vertex 45.9 13.4289 -5.825
      vertex 49.9 13.4289 -5.825
    endloop
  endfacet
  facet normal 0 0.382681 -0.92388
    outer loop
      vertex 45.9 11.175 -3.57106
      vertex 49.9 11.5729 -3.40622
      vertex 49.9 11.175 -3.57106
    endloop
  endfacet
  facet normal 0 0.382681 -0.92388
    outer loop
      vertex 49.9 11.5729 -3.40622
      vertex 45.9 11.175 -3.57106
      vertex 45.9 11.5729 -3.40622
    endloop
  endfacet
  facet normal 0 0.92388 0.382681
    outer loop
      vertex 49.9 10.5711 -5.825
      vertex 45.9 10.4062 -5.42705
      vertex 49.9 10.4062 -5.42705
    endloop
  endfacet
  facet normal 0 0.92388 0.382681
    outer loop
      vertex 45.9 10.4062 -5.42705
      vertex 49.9 10.5711 -5.825
      vertex 45.9 10.5711 -5.825
    endloop
  endfacet
  facet normal 0 0.793354 0.608761
    outer loop
      vertex 49.9 10.8333 -6.16673
      vertex 45.9 10.5711 -5.825
      vertex 49.9 10.5711 -5.825
    endloop
  endfacet
  facet normal 0 0.793354 0.608761
    outer loop
      vertex 45.9 10.5711 -5.825
      vertex 49.9 10.8333 -6.16673
      vertex 45.9 10.8333 -6.16673
    endloop
  endfacet
  facet normal 0 -0.793354 -0.608761
    outer loop
      vertex 45.9 13.4289 -4.175
      vertex 49.9 13.1667 -3.83327
      vertex 45.9 13.1667 -3.83327
    endloop
  endfacet
  facet normal 0 -0.793354 -0.608761
    outer loop
      vertex 49.9 13.1667 -3.83327
      vertex 45.9 13.4289 -4.175
      vertex 49.9 13.4289 -4.175
    endloop
  endfacet
  facet normal 0 -0.382681 0.92388
    outer loop
      vertex 45.9 12.825 -6.42894
      vertex 49.9 12.4271 -6.59378
      vertex 49.9 12.825 -6.42894
    endloop
  endfacet
  facet normal 0 -0.382681 0.92388
    outer loop
      vertex 49.9 12.4271 -6.59378
      vertex 45.9 12.825 -6.42894
      vertex 45.9 12.4271 -6.59378
    endloop
  endfacet
  facet normal 0 -0.793354 0.608761
    outer loop
      vertex 45.9 13.1667 -6.16673
      vertex 49.9 13.4289 -5.825
      vertex 45.9 13.4289 -5.825
    endloop
  endfacet
  facet normal 0 -0.793354 0.608761
    outer loop
      vertex 49.9 13.4289 -5.825
      vertex 45.9 13.1667 -6.16673
      vertex 49.9 13.1667 -6.16673
    endloop
  endfacet
  facet normal 0 -0.608761 0.793354
    outer loop
      vertex 45.9 13.1667 -6.16673
      vertex 49.9 12.825 -6.42894
      vertex 49.9 13.1667 -6.16673
    endloop
  endfacet
  facet normal 0 -0.608761 0.793354
    outer loop
      vertex 49.9 12.825 -6.42894
      vertex 45.9 13.1667 -6.16673
      vertex 45.9 12.825 -6.42894
    endloop
  endfacet
  facet normal 0 0.608761 -0.793354
    outer loop
      vertex 45.9 10.8333 -3.83327
      vertex 49.9 11.175 -3.57106
      vertex 49.9 10.8333 -3.83327
    endloop
  endfacet
  facet normal 0 0.608761 -0.793354
    outer loop
      vertex 49.9 11.175 -3.57106
      vertex 45.9 10.8333 -3.83327
      vertex 45.9 11.175 -3.57106
    endloop
  endfacet
  facet normal 0 0.92388 -0.382681
    outer loop
      vertex 49.9 10.4062 -4.57295
      vertex 45.9 10.5711 -4.175
      vertex 49.9 10.5711 -4.175
    endloop
  endfacet
  facet normal 0 0.92388 -0.382681
    outer loop
      vertex 45.9 10.5711 -4.175
      vertex 49.9 10.4062 -4.57295
      vertex 45.9 10.4062 -4.57295
    endloop
  endfacet
  facet normal 0 0.991445 -0.130528
    outer loop
      vertex 49.9 10.35 -5
      vertex 45.9 10.4062 -4.57295
      vertex 49.9 10.4062 -4.57295
    endloop
  endfacet
  facet normal 0 0.991445 -0.130528
    outer loop
      vertex 45.9 10.4062 -4.57295
      vertex 49.9 10.35 -5
      vertex 45.9 10.35 -5
    endloop
  endfacet
  facet normal -0 0.130528 0.991445
    outer loop
      vertex 45.9 12 -6.65
      vertex 49.9 11.5729 -6.59378
      vertex 49.9 12 -6.65
    endloop
  endfacet
  facet normal 0 0.130528 0.991445
    outer loop
      vertex 49.9 11.5729 -6.59378
      vertex 45.9 12 -6.65
      vertex 45.9 11.5729 -6.59378
    endloop
  endfacet
  facet normal -0 0.608761 0.793354
    outer loop
      vertex 45.9 11.175 -6.42894
      vertex 49.9 10.8333 -6.16673
      vertex 49.9 11.175 -6.42894
    endloop
  endfacet
  facet normal 0 0.608761 0.793354
    outer loop
      vertex 49.9 10.8333 -6.16673
      vertex 45.9 11.175 -6.42894
      vertex 45.9 10.8333 -6.16673
    endloop
  endfacet
  facet normal 0 0.991445 0.130528
    outer loop
      vertex 49.9 10.4062 -5.42705
      vertex 45.9 10.35 -5
      vertex 49.9 10.35 -5
    endloop
  endfacet
  facet normal 0 0.991445 0.130528
    outer loop
      vertex 45.9 10.35 -5
      vertex 49.9 10.4062 -5.42705
      vertex 45.9 10.4062 -5.42705
    endloop
  endfacet
  facet normal 0 0.130528 -0.991445
    outer loop
      vertex 45.9 11.5729 -3.40622
      vertex 49.9 12 -3.35
      vertex 49.9 11.5729 -3.40622
    endloop
  endfacet
  facet normal 0 0.130528 -0.991445
    outer loop
      vertex 49.9 12 -3.35
      vertex 45.9 11.5729 -3.40622
      vertex 45.9 12 -3.35
    endloop
  endfacet
  facet normal 0 -0.991445 -0.130528
    outer loop
      vertex 45.9 13.65 -5
      vertex 49.9 13.5938 -4.57295
      vertex 45.9 13.5938 -4.57295
    endloop
  endfacet
  facet normal 0 -0.991445 -0.130528
    outer loop
      vertex 49.9 13.5938 -4.57295
      vertex 45.9 13.65 -5
      vertex 49.9 13.65 -5
    endloop
  endfacet
  facet normal 0 -0.608761 -0.793354
    outer loop
      vertex 45.9 12.825 -3.57106
      vertex 49.9 13.1667 -3.83327
      vertex 49.9 12.825 -3.57106
    endloop
  endfacet
  facet normal -0 -0.608761 -0.793354
    outer loop
      vertex 49.9 13.1667 -3.83327
      vertex 45.9 12.825 -3.57106
      vertex 45.9 13.1667 -3.83327
    endloop
  endfacet
  facet normal 0 -0.382681 -0.92388
    outer loop
      vertex 45.9 12.4271 -3.40622
      vertex 49.9 12.825 -3.57106
      vertex 49.9 12.4271 -3.40622
    endloop
  endfacet
  facet normal -0 -0.382681 -0.92388
    outer loop
      vertex 49.9 12.825 -3.57106
      vertex 45.9 12.4271 -3.40622
      vertex 45.9 12.825 -3.57106
    endloop
  endfacet
  facet normal 0 -0.92388 -0.382681
    outer loop
      vertex 45.9 13.5938 -4.57295
      vertex 49.9 13.4289 -4.175
      vertex 45.9 13.4289 -4.175
    endloop
  endfacet
  facet normal 0 -0.92388 -0.382681
    outer loop
      vertex 49.9 13.4289 -4.175
      vertex 45.9 13.5938 -4.57295
      vertex 49.9 13.5938 -4.57295
    endloop
  endfacet
  facet normal 0 -0.991445 0.130528
    outer loop
      vertex 45.9 13.5938 -5.42705
      vertex 49.9 13.65 -5
      vertex 45.9 13.65 -5
    endloop
  endfacet
  facet normal 0 -0.991445 0.130528
    outer loop
      vertex 49.9 13.65 -5
      vertex 45.9 13.5938 -5.42705
      vertex 49.9 13.5938 -5.42705
    endloop
  endfacet
  facet normal 0 -0.130528 0.991445
    outer loop
      vertex 45.9 12.4271 -6.59378
      vertex 49.9 12 -6.65
      vertex 49.9 12.4271 -6.59378
    endloop
  endfacet
  facet normal 0 -0.130528 0.991445
    outer loop
      vertex 49.9 12 -6.65
      vertex 45.9 12.4271 -6.59378
      vertex 45.9 12 -6.65
    endloop
  endfacet
  facet normal -0 0.382681 0.92388
    outer loop
      vertex 45.9 11.5729 -6.59378
      vertex 49.9 11.175 -6.42894
      vertex 49.9 11.5729 -6.59378
    endloop
  endfacet
  facet normal 0 0.382681 0.92388
    outer loop
      vertex 49.9 11.175 -6.42894
      vertex 45.9 11.5729 -6.59378
      vertex 45.9 11.175 -6.42894
    endloop
  endfacet
  facet normal 0 0.130528 -0.991445
    outer loop
      vertex 45.9 3.57295 -3.40622
      vertex 49.9 4 -3.35
      vertex 49.9 3.57295 -3.40622
    endloop
  endfacet
  facet normal 0 0.130528 -0.991445
    outer loop
      vertex 49.9 4 -3.35
      vertex 45.9 3.57295 -3.40622
      vertex 45.9 4 -3.35
    endloop
  endfacet
  facet normal 0 -0.130527 0.991445
    outer loop
      vertex 45.9 4.42705 -6.59378
      vertex 49.9 4 -6.65
      vertex 49.9 4.42705 -6.59378
    endloop
  endfacet
  facet normal 0 -0.130527 0.991445
    outer loop
      vertex 49.9 4 -6.65
      vertex 45.9 4.42705 -6.59378
      vertex 45.9 4 -6.65
    endloop
  endfacet
  facet normal 0 0.991445 0.130528
    outer loop
      vertex 49.9 2.40622 -5.42705
      vertex 45.9 2.35 -5
      vertex 49.9 2.35 -5
    endloop
  endfacet
  facet normal 0 0.991445 0.130528
    outer loop
      vertex 45.9 2.35 -5
      vertex 49.9 2.40622 -5.42705
      vertex 45.9 2.40622 -5.42705
    endloop
  endfacet
  facet normal 0 0.608761 -0.793354
    outer loop
      vertex 45.9 2.83327 -3.83327
      vertex 49.9 3.175 -3.57106
      vertex 49.9 2.83327 -3.83327
    endloop
  endfacet
  facet normal 0 0.608761 -0.793354
    outer loop
      vertex 49.9 3.175 -3.57106
      vertex 45.9 2.83327 -3.83327
      vertex 45.9 3.175 -3.57106
    endloop
  endfacet
  facet normal 0 0.382681 -0.92388
    outer loop
      vertex 45.9 3.175 -3.57106
      vertex 49.9 3.57295 -3.40622
      vertex 49.9 3.175 -3.57106
    endloop
  endfacet
  facet normal 0 0.382681 -0.92388
    outer loop
      vertex 49.9 3.57295 -3.40622
      vertex 45.9 3.175 -3.57106
      vertex 45.9 3.57295 -3.40622
    endloop
  endfacet
  facet normal 0 0.92388 0.382681
    outer loop
      vertex 49.9 2.57106 -5.825
      vertex 45.9 2.40622 -5.42705
      vertex 49.9 2.40622 -5.42705
    endloop
  endfacet
  facet normal 0 0.92388 0.382681
    outer loop
      vertex 45.9 2.40622 -5.42705
      vertex 49.9 2.57106 -5.825
      vertex 45.9 2.57106 -5.825
    endloop
  endfacet
  facet normal -0 0.130528 0.991445
    outer loop
      vertex 45.9 4 -6.65
      vertex 49.9 3.57295 -6.59378
      vertex 49.9 4 -6.65
    endloop
  endfacet
  facet normal 0 0.130528 0.991445
    outer loop
      vertex 49.9 3.57295 -6.59378
      vertex 45.9 4 -6.65
      vertex 45.9 3.57295 -6.59378
    endloop
  endfacet
  facet normal 0 0.92388 -0.382681
    outer loop
      vertex 49.9 2.40622 -4.57295
      vertex 45.9 2.57106 -4.175
      vertex 49.9 2.57106 -4.175
    endloop
  endfacet
  facet normal 0 0.92388 -0.382681
    outer loop
      vertex 45.9 2.57106 -4.175
      vertex 49.9 2.40622 -4.57295
      vertex 45.9 2.40622 -4.57295
    endloop
  endfacet
  facet normal -0 0.382681 0.92388
    outer loop
      vertex 45.9 3.57295 -6.59378
      vertex 49.9 3.175 -6.42894
      vertex 49.9 3.57295 -6.59378
    endloop
  endfacet
  facet normal 0 0.382681 0.92388
    outer loop
      vertex 49.9 3.175 -6.42894
      vertex 45.9 3.57295 -6.59378
      vertex 45.9 3.175 -6.42894
    endloop
  endfacet
  facet normal 0 0.793354 0.608761
    outer loop
      vertex 49.9 2.83327 -6.16673
      vertex 45.9 2.57106 -5.825
      vertex 49.9 2.57106 -5.825
    endloop
  endfacet
  facet normal 0 0.793354 0.608761
    outer loop
      vertex 45.9 2.57106 -5.825
      vertex 49.9 2.83327 -6.16673
      vertex 45.9 2.83327 -6.16673
    endloop
  endfacet
  facet normal -0 0.608761 0.793354
    outer loop
      vertex 45.9 3.175 -6.42894
      vertex 49.9 2.83327 -6.16673
      vertex 49.9 3.175 -6.42894
    endloop
  endfacet
  facet normal 0 0.608761 0.793354
    outer loop
      vertex 49.9 2.83327 -6.16673
      vertex 45.9 3.175 -6.42894
      vertex 45.9 2.83327 -6.16673
    endloop
  endfacet
  facet normal 0 -0.382681 -0.92388
    outer loop
      vertex 45.9 4.42705 -3.40622
      vertex 49.9 4.825 -3.57106
      vertex 49.9 4.42705 -3.40622
    endloop
  endfacet
  facet normal -0 -0.382681 -0.92388
    outer loop
      vertex 49.9 4.825 -3.57106
      vertex 45.9 4.42705 -3.40622
      vertex 45.9 4.825 -3.57106
    endloop
  endfacet
  facet normal 0 -0.382681 0.92388
    outer loop
      vertex 45.9 4.825 -6.42894
      vertex 49.9 4.42705 -6.59378
      vertex 49.9 4.825 -6.42894
    endloop
  endfacet
  facet normal 0 -0.382681 0.92388
    outer loop
      vertex 49.9 4.42705 -6.59378
      vertex 45.9 4.825 -6.42894
      vertex 45.9 4.42705 -6.59378
    endloop
  endfacet
  facet normal 0 -0.92388 -0.382681
    outer loop
      vertex 45.9 5.59378 -4.57295
      vertex 49.9 5.42894 -4.175
      vertex 45.9 5.42894 -4.175
    endloop
  endfacet
  facet normal 0 -0.92388 -0.382681
    outer loop
      vertex 49.9 5.42894 -4.175
      vertex 45.9 5.59378 -4.57295
      vertex 49.9 5.59378 -4.57295
    endloop
  endfacet
  facet normal 0 -0.793354 -0.608761
    outer loop
      vertex 45.9 5.42894 -4.175
      vertex 49.9 5.16673 -3.83327
      vertex 45.9 5.16673 -3.83327
    endloop
  endfacet
  facet normal 0 -0.793354 -0.608761
    outer loop
      vertex 49.9 5.16673 -3.83327
      vertex 45.9 5.42894 -4.175
      vertex 49.9 5.42894 -4.175
    endloop
  endfacet
  facet normal 0 -0.130527 -0.991445
    outer loop
      vertex 45.9 4 -3.35
      vertex 49.9 4.42705 -3.40622
      vertex 49.9 4 -3.35
    endloop
  endfacet
  facet normal -0 -0.130527 -0.991445
    outer loop
      vertex 49.9 4.42705 -3.40622
      vertex 45.9 4 -3.35
      vertex 45.9 4.42705 -3.40622
    endloop
  endfacet
  facet normal 0 0.793354 -0.608761
    outer loop
      vertex 49.9 2.57106 -4.175
      vertex 45.9 2.83327 -3.83327
      vertex 49.9 2.83327 -3.83327
    endloop
  endfacet
  facet normal 0 0.793354 -0.608761
    outer loop
      vertex 45.9 2.83327 -3.83327
      vertex 49.9 2.57106 -4.175
      vertex 45.9 2.57106 -4.175
    endloop
  endfacet
  facet normal 0 0.991445 -0.130528
    outer loop
      vertex 49.9 2.35 -5
      vertex 45.9 2.40622 -4.57295
      vertex 49.9 2.40622 -4.57295
    endloop
  endfacet
  facet normal 0 0.991445 -0.130528
    outer loop
      vertex 45.9 2.40622 -4.57295
      vertex 49.9 2.35 -5
      vertex 45.9 2.35 -5
    endloop
  endfacet
  facet normal 0 -0.991445 -0.130528
    outer loop
      vertex 45.9 5.65 -5
      vertex 49.9 5.59378 -4.57295
      vertex 45.9 5.59378 -4.57295
    endloop
  endfacet
  facet normal 0 -0.991445 -0.130528
    outer loop
      vertex 49.9 5.59378 -4.57295
      vertex 45.9 5.65 -5
      vertex 49.9 5.65 -5
    endloop
  endfacet
  facet normal 0 -0.991445 0.130528
    outer loop
      vertex 45.9 5.59378 -5.42705
      vertex 49.9 5.65 -5
      vertex 45.9 5.65 -5
    endloop
  endfacet
  facet normal 0 -0.991445 0.130528
    outer loop
      vertex 49.9 5.65 -5
      vertex 45.9 5.59378 -5.42705
      vertex 49.9 5.59378 -5.42705
    endloop
  endfacet
  facet normal 0 -0.608761 0.793354
    outer loop
      vertex 45.9 5.16673 -6.16673
      vertex 49.9 4.825 -6.42894
      vertex 49.9 5.16673 -6.16673
    endloop
  endfacet
  facet normal 0 -0.608761 0.793354
    outer loop
      vertex 49.9 4.825 -6.42894
      vertex 45.9 5.16673 -6.16673
      vertex 45.9 4.825 -6.42894
    endloop
  endfacet
  facet normal 0 -0.92388 0.382681
    outer loop
      vertex 45.9 5.42894 -5.825
      vertex 49.9 5.59378 -5.42705
      vertex 45.9 5.59378 -5.42705
    endloop
  endfacet
  facet normal 0 -0.92388 0.382681
    outer loop
      vertex 49.9 5.59378 -5.42705
      vertex 45.9 5.42894 -5.825
      vertex 49.9 5.42894 -5.825
    endloop
  endfacet
  facet normal 0 -0.793354 0.608761
    outer loop
      vertex 45.9 5.16673 -6.16673
      vertex 49.9 5.42894 -5.825
      vertex 45.9 5.42894 -5.825
    endloop
  endfacet
  facet normal 0 -0.793354 0.608761
    outer loop
      vertex 49.9 5.42894 -5.825
      vertex 45.9 5.16673 -6.16673
      vertex 49.9 5.16673 -6.16673
    endloop
  endfacet
  facet normal 0 -0.608761 -0.793354
    outer loop
      vertex 45.9 4.825 -3.57106
      vertex 49.9 5.16673 -3.83327
      vertex 49.9 4.825 -3.57106
    endloop
  endfacet
  facet normal -0 -0.608761 -0.793354
    outer loop
      vertex 49.9 5.16673 -3.83327
      vertex 45.9 4.825 -3.57106
      vertex 45.9 5.16673 -3.83327
    endloop
  endfacet
  facet normal -1 0 0
    outer loop
      vertex 45.9 10.4062 -5.42705
      vertex 45.9 5.59378 -5.42705
      vertex 45.9 5.65 -5
    endloop
  endfacet
  facet normal -1 0 0
    outer loop
      vertex 45.9 10.5711 -5.825
      vertex 45.9 5.42894 -5.825
      vertex 45.9 5.59378 -5.42705
    endloop
  endfacet
  facet normal -1 0 0
    outer loop
      vertex 45.9 8.82792 -10
      vertex 45.9 5.16673 -6.16673
      vertex 45.9 5.42894 -5.825
    endloop
  endfacet
  facet normal -1 0 0
    outer loop
      vertex 45.9 8.82792 -10
      vertex 45.9 4.825 -6.42894
      vertex 45.9 5.16673 -6.16673
    endloop
  endfacet
  facet normal -1 0 0
    outer loop
      vertex 45.9 8.82792 -10
      vertex 45.9 4.42705 -6.59378
      vertex 45.9 4.825 -6.42894
    endloop
  endfacet
  facet normal -1 0 0
    outer loop
      vertex 45.9 8.82792 -10
      vertex 45.9 4 -6.65
      vertex 45.9 4.42705 -6.59378
    endloop
  endfacet
  facet normal -1 0 0
    outer loop
      vertex 45.9 -1.22461e-015 -10
      vertex 45.9 4 -6.65
      vertex 45.9 8.82792 -10
    endloop
  endfacet
  facet normal -1 -0 0
    outer loop
      vertex 45.9 4 -6.65
      vertex 45.9 -1.22461e-015 -10
      vertex 45.9 3.57295 -6.59378
    endloop
  endfacet
  facet normal -1 0 0
    outer loop
      vertex 45.9 -1.22461e-015 -10
      vertex 45.9 2.35 -5
      vertex 45.9 2.40622 -5.42705
    endloop
  endfacet
  facet normal -1 0 0
    outer loop
      vertex 45.9 -1.22461e-015 -10
      vertex 45.9 2.40622 -5.42705
      vertex 45.9 2.57106 -5.825
    endloop
  endfacet
  facet normal -1 -0 0
    outer loop
      vertex 45.9 2.35 -5
      vertex 45.9 -1.22461e-015 -10
      vertex 45.9 0 0
    endloop
  endfacet
  facet normal -1 -0 0
    outer loop
      vertex 45.9 2.83327 -6.16673
      vertex 45.9 -1.22461e-015 -10
      vertex 45.9 2.57106 -5.825
    endloop
  endfacet
  facet normal -1 -0 0
    outer loop
      vertex 45.9 3.175 -6.42894
      vertex 45.9 -1.22461e-015 -10
      vertex 45.9 2.83327 -6.16673
    endloop
  endfacet
  facet normal -1 -0 0
    outer loop
      vertex 45.9 3.57295 -6.59378
      vertex 45.9 -1.22461e-015 -10
      vertex 45.9 3.175 -6.42894
    endloop
  endfacet
  facet normal -1 0 0
    outer loop
      vertex 45.9 16 -12
      vertex 45.9 13.65 -5
      vertex 45.9 16 -1.95937e-015
    endloop
  endfacet
  facet normal -1 0 0
    outer loop
      vertex 45.9 16 -12
      vertex 45.9 13.5938 -5.42705
      vertex 45.9 13.65 -5
    endloop
  endfacet
  facet normal -1 0 0
    outer loop
      vertex 45.9 16 -12
      vertex 45.9 13.4289 -5.825
      vertex 45.9 13.5938 -5.42705
    endloop
  endfacet
  facet normal -1 0 0
    outer loop
      vertex 45.9 16 -12
      vertex 45.9 13.1667 -6.16673
      vertex 45.9 13.4289 -5.825
    endloop
  endfacet
  facet normal -1 0 0
    outer loop
      vertex 45.9 16 -12
      vertex 45.9 12.825 -6.42894
      vertex 45.9 13.1667 -6.16673
    endloop
  endfacet
  facet normal -1 0 0
    outer loop
      vertex 45.9 16 -12
      vertex 45.9 12.4271 -6.59378
      vertex 45.9 12.825 -6.42894
    endloop
  endfacet
  facet normal -1 0 0
    outer loop
      vertex 45.9 16 -12
      vertex 45.9 12 -6.65
      vertex 45.9 12.4271 -6.59378
    endloop
  endfacet
  facet normal -1 0 0
    outer loop
      vertex 45.9 8.82792 -10
      vertex 45.9 12 -6.65
      vertex 45.9 16 -12
    endloop
  endfacet
  facet normal -1 -0 0
    outer loop
      vertex 45.9 12 -6.65
      vertex 45.9 8.82792 -10
      vertex 45.9 11.5729 -6.59378
    endloop
  endfacet
  facet normal -1 -0 0
    outer loop
      vertex 45.9 11.5729 -6.59378
      vertex 45.9 8.82792 -10
      vertex 45.9 11.175 -6.42894
    endloop
  endfacet
  facet normal -1 0 0
    outer loop
      vertex 45.9 5.42894 -5.825
      vertex 45.9 10.5711 -5.825
      vertex 45.9 8.82792 -10
    endloop
  endfacet
  facet normal -1 -0 0
    outer loop
      vertex 45.9 10.8333 -6.16673
      vertex 45.9 8.82792 -10
      vertex 45.9 10.5711 -5.825
    endloop
  endfacet
  facet normal -1 -0 0
    outer loop
      vertex 45.9 11.175 -6.42894
      vertex 45.9 8.82792 -10
      vertex 45.9 10.8333 -6.16673
    endloop
  endfacet
  facet normal -1 0 0
    outer loop
      vertex 45.9 8.82792 -10
      vertex 45.9 16 -12
      vertex 45.9 8.82792 -12
    endloop
  endfacet
  facet normal -1 0 0
    outer loop
      vertex 45.9 13.5938 -4.57295
      vertex 45.9 16 -1.95937e-015
      vertex 45.9 13.65 -5
    endloop
  endfacet
  facet normal -1 0 0
    outer loop
      vertex 45.9 13.4289 -4.175
      vertex 45.9 16 -1.95937e-015
      vertex 45.9 13.5938 -4.57295
    endloop
  endfacet
  facet normal -1 0 0
    outer loop
      vertex 45.9 13.1667 -3.83327
      vertex 45.9 16 -1.95937e-015
      vertex 45.9 13.4289 -4.175
    endloop
  endfacet
  facet normal -1 0 0
    outer loop
      vertex 45.9 12.825 -3.57106
      vertex 45.9 16 -1.95937e-015
      vertex 45.9 13.1667 -3.83327
    endloop
  endfacet
  facet normal -1 0 0
    outer loop
      vertex 45.9 12.4271 -3.40622
      vertex 45.9 16 -1.95937e-015
      vertex 45.9 12.825 -3.57106
    endloop
  endfacet
  facet normal -1 0 0
    outer loop
      vertex 45.9 12 -3.35
      vertex 45.9 16 -1.95937e-015
      vertex 45.9 12.4271 -3.40622
    endloop
  endfacet
  facet normal -1 0 0
    outer loop
      vertex 45.9 11.5729 -3.40622
      vertex 45.9 16 -1.95937e-015
      vertex 45.9 12 -3.35
    endloop
  endfacet
  facet normal -1 0 0
    outer loop
      vertex 45.9 4.42705 -3.40622
      vertex 45.9 11.5729 -3.40622
      vertex 45.9 11.175 -3.57106
    endloop
  endfacet
  facet normal -1 0 0
    outer loop
      vertex 45.9 5.59378 -5.42705
      vertex 45.9 10.4062 -5.42705
      vertex 45.9 10.5711 -5.825
    endloop
  endfacet
  facet normal -1 0 0
    outer loop
      vertex 45.9 10.4062 -5.42705
      vertex 45.9 5.65 -5
      vertex 45.9 10.35 -5
    endloop
  endfacet
  facet normal -1 0 0
    outer loop
      vertex 45.9 10.35 -5
      vertex 45.9 5.65 -5
      vertex 45.9 10.4062 -4.57295
    endloop
  endfacet
  facet normal -1 0 0
    outer loop
      vertex 45.9 5.59378 -4.57295
      vertex 45.9 10.4062 -4.57295
      vertex 45.9 5.65 -5
    endloop
  endfacet
  facet normal -1 0 0
    outer loop
      vertex 45.9 10.4062 -4.57295
      vertex 45.9 5.59378 -4.57295
      vertex 45.9 10.5711 -4.175
    endloop
  endfacet
  facet normal -1 0 0
    outer loop
      vertex 45.9 5.42894 -4.175
      vertex 45.9 10.5711 -4.175
      vertex 45.9 5.59378 -4.57295
    endloop
  endfacet
  facet normal -1 0 0
    outer loop
      vertex 45.9 10.5711 -4.175
      vertex 45.9 5.42894 -4.175
      vertex 45.9 10.8333 -3.83327
    endloop
  endfacet
  facet normal -1 0 0
    outer loop
      vertex 45.9 5.16673 -3.83327
      vertex 45.9 10.8333 -3.83327
      vertex 45.9 5.42894 -4.175
    endloop
  endfacet
  facet normal -1 0 0
    outer loop
      vertex 45.9 10.8333 -3.83327
      vertex 45.9 5.16673 -3.83327
      vertex 45.9 11.175 -3.57106
    endloop
  endfacet
  facet normal -1 0 0
    outer loop
      vertex 45.9 4.825 -3.57106
      vertex 45.9 11.175 -3.57106
      vertex 45.9 5.16673 -3.83327
    endloop
  endfacet
  facet normal -1 0 0
    outer loop
      vertex 45.9 4.42705 -3.40622
      vertex 45.9 11.175 -3.57106
      vertex 45.9 4.825 -3.57106
    endloop
  endfacet
  facet normal -1 0 0
    outer loop
      vertex 45.9 11.5729 -3.40622
      vertex 45.9 4.42705 -3.40622
      vertex 45.9 16 -1.95937e-015
    endloop
  endfacet
  facet normal -1 0 0
    outer loop
      vertex 45.9 0 0
      vertex 45.9 4.42705 -3.40622
      vertex 45.9 4 -3.35
    endloop
  endfacet
  facet normal -1 0 0
    outer loop
      vertex 45.9 0 0
      vertex 45.9 4 -3.35
      vertex 45.9 3.57295 -3.40622
    endloop
  endfacet
  facet normal -1 0 0
    outer loop
      vertex 45.9 4.42705 -3.40622
      vertex 45.9 0 0
      vertex 45.9 16 -1.95937e-015
    endloop
  endfacet
  facet normal -1 0 0
    outer loop
      vertex 45.9 3.175 -3.57106
      vertex 45.9 0 0
      vertex 45.9 3.57295 -3.40622
    endloop
  endfacet
  facet normal -1 0 0
    outer loop
      vertex 45.9 2.83327 -3.83327
      vertex 45.9 0 0
      vertex 45.9 3.175 -3.57106
    endloop
  endfacet
  facet normal -1 0 0
    outer loop
      vertex 45.9 2.57106 -4.175
      vertex 45.9 0 0
      vertex 45.9 2.83327 -3.83327
    endloop
  endfacet
  facet normal -1 0 0
    outer loop
      vertex 45.9 2.40622 -4.57295
      vertex 45.9 0 0
      vertex 45.9 2.57106 -4.175
    endloop
  endfacet
  facet normal -1 0 0
    outer loop
      vertex 45.9 0 0
      vertex 45.9 2.40622 -4.57295
      vertex 45.9 2.35 -5
    endloop
  endfacet
  facet normal 0 0 -1
    outer loop
      vertex 49.9 -1.46953e-015 -12
      vertex 45.3288 3.02829 -12
      vertex 45.9 8.82792 -12
    endloop
  endfacet
  facet normal 0 0 -1
    outer loop
      vertex 43.6371 -2.54846 -12
      vertex 46.4901 -1.46953e-015 -12
      vertex 45.4849 -3.31383 -12
    endloop
  endfacet
  facet normal -0 0 -1
    outer loop
      vertex 46.4901 -1.46953e-015 -12
      vertex 43.6371 -2.54846 -12
      vertex 45.3288 3.02829 -12
    endloop
  endfacet
  facet normal 0 0 -1
    outer loop
      vertex 42.5529 -8.79917 -12
      vertex 43.6371 -2.54846 -12
      vertex 45.4849 -3.31383 -12
    endloop
  endfacet
  facet normal 0 0 -1
    outer loop
      vertex 40.8899 -7.68803 -12
      vertex 42.5529 -8.79917 -12
      vertex 41.157 -10.5001 -12
    endloop
  endfacet
  facet normal 0 0 -1
    outer loop
      vertex 42.5529 -8.79917 -12
      vertex 40.8899 -7.68803 -12
      vertex 43.6371 -2.54846 -12
    endloop
  endfacet
  facet normal 0 -0 -1
    outer loop
      vertex 40.8899 -7.68803 -12
      vertex 41.157 -10.5001 -12
      vertex 39.7427 -9.08589 -12
    endloop
  endfacet
  facet normal 0 0 -1
    outer loop
      vertex 45.3288 3.02829 -12
      vertex 49.9 -1.46953e-015 -12
      vertex 46.4901 -1.46953e-015 -12
    endloop
  endfacet
  facet normal 0 0 -1
    outer loop
      vertex 49.9 -1.46953e-015 -12
      vertex 45.9 8.82792 -12
      vertex 49.9 16 -12
    endloop
  endfacet
  facet normal -0 0 -1
    outer loop
      vertex 49.9 16 -12
      vertex 45.9 8.82792 -12
      vertex 45.9 16 -12
    endloop
  endfacet
  facet normal 1 0 0
    outer loop
      vertex 49.9 16 -1.95937e-015
      vertex 49.9 13.65 -5
      vertex 49.9 16 -12
    endloop
  endfacet
  facet normal 1 0 0
    outer loop
      vertex 49.9 16 -1.95937e-015
      vertex 49.9 13.5938 -4.57295
      vertex 49.9 13.65 -5
    endloop
  endfacet
  facet normal 1 0 0
    outer loop
      vertex 49.9 16 -1.95937e-015
      vertex 49.9 13.4289 -4.175
      vertex 49.9 13.5938 -4.57295
    endloop
  endfacet
  facet normal 1 0 0
    outer loop
      vertex 49.9 16 -1.95937e-015
      vertex 49.9 13.1667 -3.83327
      vertex 49.9 13.4289 -4.175
    endloop
  endfacet
  facet normal 1 0 0
    outer loop
      vertex 49.9 16 -1.95937e-015
      vertex 49.9 12.825 -3.57106
      vertex 49.9 13.1667 -3.83327
    endloop
  endfacet
  facet normal 1 0 0
    outer loop
      vertex 49.9 16 -1.95937e-015
      vertex 49.9 12.4271 -3.40622
      vertex 49.9 12.825 -3.57106
    endloop
  endfacet
  facet normal 1 0 0
    outer loop
      vertex 49.9 16 -1.95937e-015
      vertex 49.9 12 -3.35
      vertex 49.9 12.4271 -3.40622
    endloop
  endfacet
  facet normal 1 0 0
    outer loop
      vertex 49.9 16 -1.95937e-015
      vertex 49.9 11.5729 -3.40622
      vertex 49.9 12 -3.35
    endloop
  endfacet
  facet normal 1 0 0
    outer loop
      vertex 49.9 4.42705 -3.40622
      vertex 49.9 11.5729 -3.40622
      vertex 49.9 16 -1.95937e-015
    endloop
  endfacet
  facet normal 1 0 0
    outer loop
      vertex 49.9 10.4062 -4.57295
      vertex 49.9 5.65 -5
      vertex 49.9 10.35 -5
    endloop
  endfacet
  facet normal 1 0 0
    outer loop
      vertex 49.9 5.59378 -4.57295
      vertex 49.9 10.4062 -4.57295
      vertex 49.9 10.5711 -4.175
    endloop
  endfacet
  facet normal 1 0 0
    outer loop
      vertex 49.9 5.42894 -4.175
      vertex 49.9 10.5711 -4.175
      vertex 49.9 10.8333 -3.83327
    endloop
  endfacet
  facet normal 1 0 0
    outer loop
      vertex 49.9 5.16673 -3.83327
      vertex 49.9 10.8333 -3.83327
      vertex 49.9 11.175 -3.57106
    endloop
  endfacet
  facet normal 1 0 0
    outer loop
      vertex 49.9 11.5729 -3.40622
      vertex 49.9 4.42705 -3.40622
      vertex 49.9 11.175 -3.57106
    endloop
  endfacet
  facet normal 1 0 0
    outer loop
      vertex 49.9 10.4062 -4.57295
      vertex 49.9 5.59378 -4.57295
      vertex 49.9 5.65 -5
    endloop
  endfacet
  facet normal 1 0 0
    outer loop
      vertex 49.9 10.5711 -4.175
      vertex 49.9 5.42894 -4.175
      vertex 49.9 5.59378 -4.57295
    endloop
  endfacet
  facet normal 1 0 0
    outer loop
      vertex 49.9 10.8333 -3.83327
      vertex 49.9 5.16673 -3.83327
      vertex 49.9 5.42894 -4.175
    endloop
  endfacet
  facet normal 1 0 0
    outer loop
      vertex 49.9 11.175 -3.57106
      vertex 49.9 4.825 -3.57106
      vertex 49.9 5.16673 -3.83327
    endloop
  endfacet
  facet normal 1 0 0
    outer loop
      vertex 49.9 11.175 -3.57106
      vertex 49.9 4.42705 -3.40622
      vertex 49.9 4.825 -3.57106
    endloop
  endfacet
  facet normal 1 0 0
    outer loop
      vertex 49.9 0 0
      vertex 49.9 4.42705 -3.40622
      vertex 49.9 16 -1.95937e-015
    endloop
  endfacet
  facet normal 1 0 0
    outer loop
      vertex 49.9 4.42705 -3.40622
      vertex 49.9 0 0
      vertex 49.9 4 -3.35
    endloop
  endfacet
  facet normal 1 0 0
    outer loop
      vertex 49.9 2.40622 -4.57295
      vertex 49.9 0 0
      vertex 49.9 2.35 -5
    endloop
  endfacet
  facet normal 1 0 0
    outer loop
      vertex 49.9 2.57106 -4.175
      vertex 49.9 0 0
      vertex 49.9 2.40622 -4.57295
    endloop
  endfacet
  facet normal 1 0 0
    outer loop
      vertex 49.9 2.83327 -3.83327
      vertex 49.9 0 0
      vertex 49.9 2.57106 -4.175
    endloop
  endfacet
  facet normal 1 0 0
    outer loop
      vertex 49.9 3.175 -3.57106
      vertex 49.9 0 0
      vertex 49.9 2.83327 -3.83327
    endloop
  endfacet
  facet normal 1 0 0
    outer loop
      vertex 49.9 3.57295 -3.40622
      vertex 49.9 0 0
      vertex 49.9 3.175 -3.57106
    endloop
  endfacet
  facet normal 1 0 0
    outer loop
      vertex 49.9 4 -3.35
      vertex 49.9 0 0
      vertex 49.9 3.57295 -3.40622
    endloop
  endfacet
  facet normal 1 -0 0
    outer loop
      vertex 49.9 13.5938 -5.42705
      vertex 49.9 16 -12
      vertex 49.9 13.65 -5
    endloop
  endfacet
  facet normal 1 -0 0
    outer loop
      vertex 49.9 13.4289 -5.825
      vertex 49.9 16 -12
      vertex 49.9 13.5938 -5.42705
    endloop
  endfacet
  facet normal 1 -0 0
    outer loop
      vertex 49.9 13.1667 -6.16673
      vertex 49.9 16 -12
      vertex 49.9 13.4289 -5.825
    endloop
  endfacet
  facet normal 1 -0 0
    outer loop
      vertex 49.9 12.825 -6.42894
      vertex 49.9 16 -12
      vertex 49.9 13.1667 -6.16673
    endloop
  endfacet
  facet normal 1 -0 0
    outer loop
      vertex 49.9 12.4271 -6.59378
      vertex 49.9 16 -12
      vertex 49.9 12.825 -6.42894
    endloop
  endfacet
  facet normal 1 -0 0
    outer loop
      vertex 49.9 12 -6.65
      vertex 49.9 16 -12
      vertex 49.9 12.4271 -6.59378
    endloop
  endfacet
  facet normal 1 0 0
    outer loop
      vertex 49.9 11.5729 -6.59378
      vertex 49.9 16 -12
      vertex 49.9 12 -6.65
    endloop
  endfacet
  facet normal 1 0 0
    outer loop
      vertex 49.9 11.175 -6.42894
      vertex 49.9 16 -12
      vertex 49.9 11.5729 -6.59378
    endloop
  endfacet
  facet normal 1 0 0
    outer loop
      vertex 49.9 4.825 -6.42894
      vertex 49.9 11.175 -6.42894
      vertex 49.9 10.8333 -6.16673
    endloop
  endfacet
  facet normal 1 -0 0
    outer loop
      vertex 49.9 5.65 -5
      vertex 49.9 10.4062 -5.42705
      vertex 49.9 10.35 -5
    endloop
  endfacet
  facet normal 1 0 0
    outer loop
      vertex 49.9 5.59378 -5.42705
      vertex 49.9 10.4062 -5.42705
      vertex 49.9 5.65 -5
    endloop
  endfacet
  facet normal 1 0 0
    outer loop
      vertex 49.9 10.4062 -5.42705
      vertex 49.9 5.59378 -5.42705
      vertex 49.9 10.5711 -5.825
    endloop
  endfacet
  facet normal 1 0 0
    outer loop
      vertex 49.9 5.42894 -5.825
      vertex 49.9 10.5711 -5.825
      vertex 49.9 5.59378 -5.42705
    endloop
  endfacet
  facet normal 1 0 0
    outer loop
      vertex 49.9 10.5711 -5.825
      vertex 49.9 5.42894 -5.825
      vertex 49.9 10.8333 -6.16673
    endloop
  endfacet
  facet normal 1 0 0
    outer loop
      vertex 49.9 5.16673 -6.16673
      vertex 49.9 10.8333 -6.16673
      vertex 49.9 5.42894 -5.825
    endloop
  endfacet
  facet normal 1 0 0
    outer loop
      vertex 49.9 4.825 -6.42894
      vertex 49.9 10.8333 -6.16673
      vertex 49.9 5.16673 -6.16673
    endloop
  endfacet
  facet normal 1 0 0
    outer loop
      vertex 49.9 11.175 -6.42894
      vertex 49.9 4.825 -6.42894
      vertex 49.9 16 -12
    endloop
  endfacet
  facet normal 1 0 0
    outer loop
      vertex 49.9 -1.46953e-015 -12
      vertex 49.9 4.825 -6.42894
      vertex 49.9 4.42705 -6.59378
    endloop
  endfacet
  facet normal 1 0 0
    outer loop
      vertex 49.9 -1.46953e-015 -12
      vertex 49.9 4.42705 -6.59378
      vertex 49.9 4 -6.65
    endloop
  endfacet
  facet normal 1 0 0
    outer loop
      vertex 49.9 -1.46953e-015 -12
      vertex 49.9 4 -6.65
      vertex 49.9 3.57295 -6.59378
    endloop
  endfacet
  facet normal 1 0 0
    outer loop
      vertex 49.9 -1.46953e-015 -12
      vertex 49.9 3.57295 -6.59378
      vertex 49.9 3.175 -6.42894
    endloop
  endfacet
  facet normal 1 0 0
    outer loop
      vertex 49.9 -1.46953e-015 -12
      vertex 49.9 2.35 -5
      vertex 49.9 0 0
    endloop
  endfacet
  facet normal 1 0 0
    outer loop
      vertex 49.9 2.35 -5
      vertex 49.9 -1.46953e-015 -12
      vertex 49.9 2.40622 -5.42705
    endloop
  endfacet
  facet normal 1 0 0
    outer loop
      vertex 49.9 4.825 -6.42894
      vertex 49.9 -1.46953e-015 -12
      vertex 49.9 16 -12
    endloop
  endfacet
  facet normal 1 0 0
    outer loop
      vertex 49.9 2.83327 -6.16673
      vertex 49.9 -1.46953e-015 -12
      vertex 49.9 3.175 -6.42894
    endloop
  endfacet
  facet normal 1 0 0
    outer loop
      vertex 49.9 2.57106 -5.825
      vertex 49.9 -1.46953e-015 -12
      vertex 49.9 2.83327 -6.16673
    endloop
  endfacet
  facet normal 1 0 0
    outer loop
      vertex 49.9 2.40622 -5.42705
      vertex 49.9 -1.46953e-015 -12
      vertex 49.9 2.57106 -5.825
    endloop
  endfacet
  facet normal -0 1.22461e-016 1
    outer loop
      vertex 45.9 16 -1.95937e-015
      vertex 49.9 0 0
      vertex 49.9 16 -1.95937e-015
    endloop
  endfacet
  facet normal 0 1.22461e-016 1
    outer loop
      vertex 49.9 0 0
      vertex 45.9 16 -1.95937e-015
      vertex 45.9 0 0
    endloop
  endfacet
  facet normal 0 1 -0
    outer loop
      vertex 49.9 16 -12
      vertex 45.9 16 -1.95937e-015
      vertex 49.9 16 -1.95937e-015
    endloop
  endfacet
  facet normal 0 1 0
    outer loop
      vertex 45.9 16 -1.95937e-015
      vertex 49.9 16 -12
      vertex 45.9 16 -12
    endloop
  endfacet
  facet normal 0 -1 1.22461e-016
    outer loop
      vertex 46.4901 -1.22461e-015 -10
      vertex 45.9 0 0
      vertex 45.9 -1.22461e-015 -10
    endloop
  endfacet
  facet normal 0 -1 1.22461e-016
    outer loop
      vertex 45.9 0 0
      vertex 46.4901 -1.22461e-015 -10
      vertex 49.9 0 0
    endloop
  endfacet
  facet normal 0 -1 1.22461e-016
    outer loop
      vertex 49.9 -1.46953e-015 -12
      vertex 46.4901 -1.22461e-015 -10
      vertex 46.4901 -1.46953e-015 -12
    endloop
  endfacet
  facet normal 0 -1 1.22461e-016
    outer loop
      vertex 46.4901 -1.22461e-015 -10
      vertex 49.9 -1.46953e-015 -12
      vertex 49.9 0 0
    endloop
  endfacet
  facet normal 0.881921 -0.471397 0
    outer loop
      vertex 42.5529 -8.79917 -10
      vertex 45.4849 -3.31383 -12
      vertex 45.4849 -3.31383 -10
    endloop
  endfacet
  facet normal 0.881921 -0.471397 0
    outer loop
      vertex 45.4849 -3.31383 -12
      vertex 42.5529 -8.79917 -10
      vertex 42.5529 -8.79917 -12
    endloop
  endfacet
  facet normal 0.77301 -0.634394 0
    outer loop
      vertex 41.157 -10.5001 -10
      vertex 42.5529 -8.79917 -12
      vertex 42.5529 -8.79917 -10
    endloop
  endfacet
  facet normal 0.77301 -0.634394 0
    outer loop
      vertex 42.5529 -8.79917 -12
      vertex 41.157 -10.5001 -10
      vertex 41.157 -10.5001 -12
    endloop
  endfacet
  facet normal 0.95694 -0.290284 0
    outer loop
      vertex 45.4849 -3.31383 -10
      vertex 46.4901 -1.46953e-015 -12
      vertex 46.4901 -1.22461e-015 -10
    endloop
  endfacet
  facet normal 0.95694 -0.290284 0
    outer loop
      vertex 46.4901 -1.46953e-015 -12
      vertex 45.4849 -3.31383 -10
      vertex 45.4849 -3.31383 -12
    endloop
  endfacet
  facet normal -0 0 1
    outer loop
      vertex 45.9 -1.22461e-015 -10
      vertex 45.4849 -3.31383 -10
      vertex 46.4901 -1.22461e-015 -10
    endloop
  endfacet
  facet normal 0 0 1
    outer loop
      vertex 45.9 8.82792 -10
      vertex 45.3288 3.02829 -10
      vertex 45.9 -1.22461e-015 -10
    endloop
  endfacet
  facet normal 0 0 1
    outer loop
      vertex 43.6371 -2.54846 -10
      vertex 45.9 -1.22461e-015 -10
      vertex 45.3288 3.02829 -10
    endloop
  endfacet
  facet normal 0 0 1
    outer loop
      vertex 45.9 -1.22461e-015 -10
      vertex 43.6371 -2.54846 -10
      vertex 45.4849 -3.31383 -10
    endloop
  endfacet
  facet normal 0 0 1
    outer loop
      vertex 43.6371 -2.54846 -10
      vertex 42.5529 -8.79917 -10
      vertex 45.4849 -3.31383 -10
    endloop
  endfacet
  facet normal -0 0 1
    outer loop
      vertex 40.8899 -7.68803 -10
      vertex 42.5529 -8.79917 -10
      vertex 43.6371 -2.54846 -10
    endloop
  endfacet
  facet normal 0 0 1
    outer loop
      vertex 42.5529 -8.79917 -10
      vertex 40.8899 -7.68803 -10
      vertex 41.157 -10.5001 -10
    endloop
  endfacet
  facet normal -0 0 1
    outer loop
      vertex 39.7427 -9.08589 -10
      vertex 41.157 -10.5001 -10
      vertex 40.8899 -7.68803 -10
    endloop
  endfacet
  facet normal 0 0 1
    outer loop
      vertex 34.0109 -14.6678 -10
      vertex 39.7427 -9.08589 -10
      vertex 39.6678 -9.01091 -10
    endloop
  endfacet
  facet normal 0 0 1
    outer loop
      vertex 41.157 -10.5001 -10
      vertex 36.1322 -16.7891 -10
      vertex 41.7891 -11.1322 -10
    endloop
  endfacet
  facet normal 0 0 1
    outer loop
      vertex 39.7427 -9.08589 -10
      vertex 34.0109 -14.6678 -10
      vertex 41.157 -10.5001 -10
    endloop
  endfacet
  facet normal 0 0 1
    outer loop
      vertex 41.157 -10.5001 -10
      vertex 34.0109 -14.6678 -10
      vertex 36.1322 -16.7891 -10
    endloop
  endfacet
  facet normal -0.995185 0.098017 0
    outer loop
      vertex 45.3288 3.02829 -12
      vertex 45.9 8.82792 -10
      vertex 45.9 8.82792 -12
    endloop
  endfacet
  facet normal -0.995185 0.098017 0
    outer loop
      vertex 45.9 8.82792 -10
      vertex 45.3288 3.02829 -12
      vertex 45.3288 3.02829 -10
    endloop
  endfacet
  facet normal -0.77301 0.634394 0
    outer loop
      vertex 39.7427 -9.08589 -12
      vertex 40.8899 -7.68803 -10
      vertex 40.8899 -7.68803 -12
    endloop
  endfacet
  facet normal -0.77301 0.634394 0
    outer loop
      vertex 40.8899 -7.68803 -10
      vertex 39.7427 -9.08589 -12
      vertex 39.7427 -9.08589 -10
    endloop
  endfacet
  facet normal -0.95694 0.290284 0
    outer loop
      vertex 43.6371 -2.54846 -12
      vertex 45.3288 3.02829 -10
      vertex 45.3288 3.02829 -12
    endloop
  endfacet
  facet normal -0.95694 0.290284 0
    outer loop
      vertex 45.3288 3.02829 -10
      vertex 43.6371 -2.54846 -12
      vertex 43.6371 -2.54846 -10
    endloop
  endfacet
  facet normal -0.881921 0.471397 0
    outer loop
      vertex 40.8899 -7.68803 -12
      vertex 43.6371 -2.54846 -10
      vertex 43.6371 -2.54846 -12
    endloop
  endfacet
  facet normal -0.881921 0.471397 0
    outer loop
      vertex 43.6371 -2.54846 -10
      vertex 40.8899 -7.68803 -12
      vertex 40.8899 -7.68803 -10
    endloop
  endfacet
  facet normal 0 0 -1
    outer loop
      vertex 37.5464 -18.2033 -12.025
      vertex 38.2536 -7.5967 -12.025
      vertex 43.2033 -12.5464 -12.025
    endloop
  endfacet
  facet normal 0 0 -1
    outer loop
      vertex 38.2536 -7.5967 -12.025
      vertex 37.5464 -18.2033 -12.025
      vertex 32.5967 -13.2536 -12.025
    endloop
  endfacet
  facet normal -0.707107 0.707107 0
    outer loop
      vertex 38.2536 -7.5967 -12.025
      vertex 32.5967 -13.2536 -11.975
      vertex 38.2536 -7.5967 -11.975
    endloop
  endfacet
  facet normal -0.707107 0.707107 0
    outer loop
      vertex 32.5967 -13.2536 -11.975
      vertex 38.2536 -7.5967 -12.025
      vertex 32.5967 -13.2536 -12.025
    endloop
  endfacet
  facet normal -0.707107 -0.707106 0
    outer loop
      vertex 32.5967 -13.2536 -12.025
      vertex 34.0109 -14.6678 -10
      vertex 32.5967 -13.2536 -11.975
    endloop
  endfacet
  facet normal -0.707106 -0.707107 -1.11004e-006
    outer loop
      vertex 34.0109 -14.6678 -10
      vertex 32.5967 -13.2536 -12.025
      vertex 36.1322 -16.7891 -10
    endloop
  endfacet
  facet normal -0.707107 -0.707107 -4.75732e-007
    outer loop
      vertex 37.5464 -18.2033 -12.025
      vertex 36.1322 -16.7891 -10
      vertex 32.5967 -13.2536 -12.025
    endloop
  endfacet
  facet normal -0.707106 -0.707107 0
    outer loop
      vertex 36.1322 -16.7891 -10
      vertex 37.5464 -18.2033 -12.025
      vertex 37.5464 -18.2033 -11.975
    endloop
  endfacet
  facet normal -0.496846 0.496846 0.71154
    outer loop
      vertex 38.2536 -7.5967 -11.975
      vertex 34.0109 -14.6678 -10
      vertex 39.6678 -9.01091 -10
    endloop
  endfacet
  facet normal -0.496846 0.496846 0.71154
    outer loop
      vertex 34.0109 -14.6678 -10
      vertex 38.2536 -7.5967 -11.975
      vertex 32.5967 -13.2536 -11.975
    endloop
  endfacet
  facet normal 0.707107 0.707107 0
    outer loop
      vertex 41.157 -10.5001 -10
      vertex 41.7891 -11.1322 -10
      vertex 41.157 -10.5001 -12
    endloop
  endfacet
  facet normal 0.707107 0.707106 3.39736e-008
    outer loop
      vertex 39.7427 -9.08589 -12
      vertex 38.2536 -7.5967 -11.975
      vertex 39.6678 -9.01091 -10
    endloop
  endfacet
  facet normal 0.707107 0.707107 -0
    outer loop
      vertex 39.7427 -9.08589 -12
      vertex 39.6678 -9.01091 -10
      vertex 39.7427 -9.08589 -10
    endloop
  endfacet
  facet normal 0.707107 0.707106 0
    outer loop
      vertex 38.2536 -7.5967 -11.975
      vertex 39.7427 -9.08589 -12
      vertex 38.2536 -7.5967 -12.025
    endloop
  endfacet
  facet normal 0.707107 0.707106 -2.86023e-006
    outer loop
      vertex 41.157 -10.5001 -12
      vertex 38.2536 -7.5967 -12.025
      vertex 39.7427 -9.08589 -12
    endloop
  endfacet
  facet normal 0.707106 0.707107 2.09119e-007
    outer loop
      vertex 43.2033 -12.5464 -11.975
      vertex 41.157 -10.5001 -12
      vertex 41.7891 -11.1322 -10
    endloop
  endfacet
  facet normal 0.707107 0.707107 7.62525e-005
    outer loop
      vertex 41.157 -10.5001 -12
      vertex 43.2033 -12.5464 -12.025
      vertex 38.2536 -7.5967 -12.025
    endloop
  endfacet
  facet normal 0.707106 0.707107 -0
    outer loop
      vertex 43.2033 -12.5464 -12.025
      vertex 41.157 -10.5001 -12
      vertex 43.2033 -12.5464 -11.975
    endloop
  endfacet
  facet normal 0.496845 -0.496845 0.71154
    outer loop
      vertex 41.7891 -11.1322 -10
      vertex 37.5464 -18.2033 -11.975
      vertex 43.2033 -12.5464 -11.975
    endloop
  endfacet
  facet normal 0.496845 -0.496845 0.71154
    outer loop
      vertex 37.5464 -18.2033 -11.975
      vertex 41.7891 -11.1322 -10
      vertex 36.1322 -16.7891 -10
    endloop
  endfacet
  facet normal 0.707107 -0.707107 0
    outer loop
      vertex 37.5464 -18.2033 -11.975
      vertex 43.2033 -12.5464 -12.025
      vertex 43.2033 -12.5464 -11.975
    endloop
  endfacet
  facet normal 0.707107 -0.707107 0
    outer loop
      vertex 43.2033 -12.5464 -12.025
      vertex 37.5464 -18.2033 -11.975
      vertex 37.5464 -18.2033 -12.025
    endloop
  endfacet
endsolid OpenSCAD_Model
