solid OpenSCAD_Model
  facet normal 0.707107 0.707107 0
    outer loop
      vertex 7.4482 6.19896 39
      vertex 6.19896 7.4482 28.5
      vertex 6.19896 7.4482 39
    endloop
  endfacet
  facet normal 0.707107 0.707107 0
    outer loop
      vertex 6.19896 7.4482 28.5
      vertex 7.4482 6.19896 39
      vertex 7.4482 6.19896 28.5
    endloop
  endfacet
  facet normal 0.258819 -0.965926 0
    outer loop
      vertex 6.35138 8.01703 28.5
      vertex 8.05787 8.47428 39
      vertex 6.35138 8.01703 39
    endloop
  endfacet
  facet normal 0.258819 -0.965926 0
    outer loop
      vertex 8.05787 8.47428 39
      vertex 6.35138 8.01703 28.5
      vertex 8.05787 8.47428 28.5
    endloop
  endfacet
  facet normal -0.965926 0.258819 0
    outer loop
      vertex 8.01703 6.35138 28.5
      vertex 8.47428 8.05787 39
      vertex 8.47428 8.05787 28.5
    endloop
  endfacet
  facet normal -0.965926 0.258819 0
    outer loop
      vertex 8.47428 8.05787 39
      vertex 8.01703 6.35138 28.5
      vertex 8.01703 6.35138 39
    endloop
  endfacet
  facet normal -0.258819 0.965926 0
    outer loop
      vertex 8.01703 6.35138 28.5
      vertex 7.4482 6.19896 39
      vertex 8.01703 6.35138 39
    endloop
  endfacet
  facet normal -0.258819 0.965926 0
    outer loop
      vertex 7.4482 6.19896 39
      vertex 8.01703 6.35138 28.5
      vertex 7.4482 6.19896 28.5
    endloop
  endfacet
  facet normal 0.965926 -0.258819 0
    outer loop
      vertex 6.19896 7.4482 39
      vertex 6.35138 8.01703 28.5
      vertex 6.35138 8.01703 39
    endloop
  endfacet
  facet normal 0.965926 -0.258819 0
    outer loop
      vertex 6.35138 8.01703 28.5
      vertex 6.19896 7.4482 39
      vertex 6.19896 7.4482 28.5
    endloop
  endfacet
  facet normal -0.707107 -0.707107 0
    outer loop
      vertex 8.47428 8.05787 28.5
      vertex 8.05787 8.47428 39
      vertex 8.05787 8.47428 28.5
    endloop
  endfacet
  facet normal -0.707107 -0.707107 0
    outer loop
      vertex 8.05787 8.47428 39
      vertex 8.47428 8.05787 28.5
      vertex 8.47428 8.05787 39
    endloop
  endfacet
  facet normal 0.499999 0.866026 -0
    outer loop
      vertex 8.83883 8.83883 35.05
      vertex 7.94226 9.35647 39
      vertex 8.83883 8.83883 39
    endloop
  endfacet
  facet normal 0.499999 0.866026 0
    outer loop
      vertex 7.94226 9.35647 39
      vertex 8.83883 8.83883 35.05
      vertex 7.94226 9.35647 35.05
    endloop
  endfacet
  facet normal -0.866026 -0.499999 0
    outer loop
      vertex 6.01041 6.01041 35.05
      vertex 5.49277 6.90698 39
      vertex 5.49277 6.90698 35.05
    endloop
  endfacet
  facet normal -0.866026 -0.499999 0
    outer loop
      vertex 5.49277 6.90698 39
      vertex 6.01041 6.01041 35.05
      vertex 6.01041 6.01041 39
    endloop
  endfacet
  facet normal -0.499999 0.866026 0
    outer loop
      vertex 6.90698 9.35647 35.05
      vertex 6.01041 8.83883 39
      vertex 6.90698 9.35647 39
    endloop
  endfacet
  facet normal -0.499999 0.866026 0
    outer loop
      vertex 6.01041 8.83883 39
      vertex 6.90698 9.35647 35.05
      vertex 6.01041 8.83883 35.05
    endloop
  endfacet
  facet normal 0 1 -0
    outer loop
      vertex 7.94226 9.35647 35.05
      vertex 6.90698 9.35647 39
      vertex 7.94226 9.35647 39
    endloop
  endfacet
  facet normal 0 1 0
    outer loop
      vertex 6.90698 9.35647 39
      vertex 7.94226 9.35647 35.05
      vertex 6.90698 9.35647 35.05
    endloop
  endfacet
  facet normal -0.866026 0.499999 0
    outer loop
      vertex 5.49277 7.94226 35.05
      vertex 6.01041 8.83883 39
      vertex 6.01041 8.83883 35.05
    endloop
  endfacet
  facet normal -0.866026 0.499999 0
    outer loop
      vertex 6.01041 8.83883 39
      vertex 5.49277 7.94226 35.05
      vertex 5.49277 7.94226 39
    endloop
  endfacet
  facet normal 1 0 0
    outer loop
      vertex 9.35647 6.90698 39
      vertex 9.35647 6.90698 35.05
      vertex 9.35647 6.90698 35
    endloop
  endfacet
  facet normal 0.866026 -0.499999 1.20718e-007
    outer loop
      vertex 8.83883 6.01041 39
      vertex 9.35647 6.90698 35.05
      vertex 9.35647 6.90698 39
    endloop
  endfacet
  facet normal 0.866026 -0.499999 0
    outer loop
      vertex 9.35647 6.90698 35.05
      vertex 8.83883 6.01041 39
      vertex 8.83883 6.01041 35.05
    endloop
  endfacet
  facet normal -0.499999 -0.866026 0
    outer loop
      vertex 6.01041 6.01041 35.05
      vertex 6.90698 5.49277 39
      vertex 6.01041 6.01041 39
    endloop
  endfacet
  facet normal -0.499999 -0.866026 -0
    outer loop
      vertex 6.90698 5.49277 39
      vertex 6.01041 6.01041 35.05
      vertex 6.90698 5.49277 35.05
    endloop
  endfacet
  facet normal 0.499999 -0.866026 0
    outer loop
      vertex 7.94226 5.49277 35.05
      vertex 8.83883 6.01041 39
      vertex 7.94226 5.49277 39
    endloop
  endfacet
  facet normal 0.499999 -0.866026 0
    outer loop
      vertex 8.83883 6.01041 39
      vertex 7.94226 5.49277 35.05
      vertex 8.83883 6.01041 35.05
    endloop
  endfacet
  facet normal -4.60589e-007 -1 0
    outer loop
      vertex 6.90698 5.49277 35.05
      vertex 7.94226 5.49277 39
      vertex 6.90698 5.49277 39
    endloop
  endfacet
  facet normal -4.60589e-007 -1 -0
    outer loop
      vertex 7.94226 5.49277 39
      vertex 6.90698 5.49277 35.05
      vertex 7.94226 5.49277 35.05
    endloop
  endfacet
  facet normal -0 0 1
    outer loop
      vertex 8.47428 8.05787 39
      vertex 9.35647 7.94226 39
      vertex 8.83883 8.83883 39
    endloop
  endfacet
  facet normal 0 0 1
    outer loop
      vertex 9.35647 7.94226 39
      vertex 8.47428 8.05787 39
      vertex 9.35647 6.90698 39
    endloop
  endfacet
  facet normal 0 0 1
    outer loop
      vertex 8.01703 6.35138 39
      vertex 9.35647 6.90698 39
      vertex 8.47428 8.05787 39
    endloop
  endfacet
  facet normal 0 0 1
    outer loop
      vertex 8.83883 8.83883 39
      vertex 8.05787 8.47428 39
      vertex 8.47428 8.05787 39
    endloop
  endfacet
  facet normal 0 0 1
    outer loop
      vertex 7.94226 9.35647 39
      vertex 8.05787 8.47428 39
      vertex 8.83883 8.83883 39
    endloop
  endfacet
  facet normal -0 0 1
    outer loop
      vertex 6.90698 9.35647 39
      vertex 8.05787 8.47428 39
      vertex 7.94226 9.35647 39
    endloop
  endfacet
  facet normal 0 0 1
    outer loop
      vertex 6.90698 9.35647 39
      vertex 6.35138 8.01703 39
      vertex 8.05787 8.47428 39
    endloop
  endfacet
  facet normal 0 0 1
    outer loop
      vertex 5.49277 7.94226 39
      vertex 6.35138 8.01703 39
      vertex 6.01041 8.83883 39
    endloop
  endfacet
  facet normal -0 0 1
    outer loop
      vertex 6.01041 8.83883 39
      vertex 6.35138 8.01703 39
      vertex 6.90698 9.35647 39
    endloop
  endfacet
  facet normal 0 0 1
    outer loop
      vertex 9.35647 6.90698 39
      vertex 8.01703 6.35138 39
      vertex 8.83883 6.01041 39
    endloop
  endfacet
  facet normal 0 0 1
    outer loop
      vertex 8.01703 6.35138 39
      vertex 7.94226 5.49277 39
      vertex 8.83883 6.01041 39
    endloop
  endfacet
  facet normal -0 0 1
    outer loop
      vertex 7.4482 6.19896 39
      vertex 7.94226 5.49277 39
      vertex 8.01703 6.35138 39
    endloop
  endfacet
  facet normal 0 0 1
    outer loop
      vertex 7.4482 6.19896 39
      vertex 6.90698 5.49277 39
      vertex 7.94226 5.49277 39
    endloop
  endfacet
  facet normal 0 0 1
    outer loop
      vertex 6.01041 6.01041 39
      vertex 7.4482 6.19896 39
      vertex 6.19896 7.4482 39
    endloop
  endfacet
  facet normal 0 0 1
    outer loop
      vertex 7.4482 6.19896 39
      vertex 6.01041 6.01041 39
      vertex 6.90698 5.49277 39
    endloop
  endfacet
  facet normal 0 0 1
    outer loop
      vertex 6.35138 8.01703 39
      vertex 5.49277 7.94226 39
      vertex 6.19896 7.4482 39
    endloop
  endfacet
  facet normal 0 0 1
    outer loop
      vertex 5.49277 6.90698 39
      vertex 6.19896 7.4482 39
      vertex 5.49277 7.94226 39
    endloop
  endfacet
  facet normal 0 0 1
    outer loop
      vertex 6.19896 7.4482 39
      vertex 5.49277 6.90698 39
      vertex 6.01041 6.01041 39
    endloop
  endfacet
  facet normal -1 0 0
    outer loop
      vertex 5.49277 6.90698 35.05
      vertex 5.49277 7.94226 39
      vertex 5.49277 7.94226 35.05
    endloop
  endfacet
  facet normal -1 -0 0
    outer loop
      vertex 5.49277 7.94226 39
      vertex 5.49277 6.90698 35.05
      vertex 5.49277 6.90698 39
    endloop
  endfacet
  facet normal 1 -0 0
    outer loop
      vertex 9.35647 6.90698 39
      vertex 9.35647 7.94226 35
      vertex 9.35647 7.94226 39
    endloop
  endfacet
  facet normal 1 0 0
    outer loop
      vertex 9.35647 7.94226 35
      vertex 9.35647 6.90698 39
      vertex 9.35647 6.90698 35
    endloop
  endfacet
  facet normal 0.866026 0.5 0
    outer loop
      vertex 8.83883 8.83883 39
      vertex 9.35647 7.94226 35.05
      vertex 8.83883 8.83883 35.05
    endloop
  endfacet
  facet normal 0.866026 0.499999 1.20718e-007
    outer loop
      vertex 9.35647 7.94226 39
      vertex 9.35647 7.94226 35.05
      vertex 8.83883 8.83883 39
    endloop
  endfacet
  facet normal 1 0 0
    outer loop
      vertex 9.35647 7.94226 35
      vertex 9.35647 7.94226 35.05
      vertex 9.35647 7.94226 39
    endloop
  endfacet
  facet normal 0.707107 0.707107 -0
    outer loop
      vertex -1.39063 15.0378 28.5
      vertex -2.63987 16.287 39
      vertex -1.39063 15.0378 39
    endloop
  endfacet
  facet normal 0.707107 0.707107 0
    outer loop
      vertex -2.63987 16.287 39
      vertex -1.39063 15.0378 28.5
      vertex -2.63987 16.287 28.5
    endloop
  endfacet
  facet normal 0.25882 -0.965926 0
    outer loop
      vertex -2.48746 16.8559 39
      vertex -0.780963 17.3131 30.2021
      vertex -0.780963 17.3131 39
    endloop
  endfacet
  facet normal 0.25882 -0.965925 1.57558e-007
    outer loop
      vertex -2.48746 16.8559 39
      vertex -1.5525 17.1064 29.9954
      vertex -0.780963 17.3131 30.2021
    endloop
  endfacet
  facet normal 0.258819 -0.965926 0
    outer loop
      vertex -2.48746 16.8559 28.5
      vertex -1.5525 17.1064 29.9954
      vertex -2.48746 16.8559 39
    endloop
  endfacet
  facet normal 0.258823 -0.965925 -2.6256e-006
    outer loop
      vertex -1.5525 17.1064 29.9954
      vertex -2.48746 16.8559 28.5
      vertex -2.3002 16.906 28.5
    endloop
  endfacet
  facet normal -0.965926 0.258819 2.51428e-007
    outer loop
      vertex -0.821804 15.1902 28.5
      vertex -0.36455 16.8967 29.7857
      vertex -0.709056 15.611 28.5
    endloop
  endfacet
  facet normal -0.965926 0.258819 0
    outer loop
      vertex -0.36455 16.8967 29.7857
      vertex -0.821804 15.1902 28.5
      vertex -0.821804 15.1902 39
    endloop
  endfacet
  facet normal -0.965926 0.258819 0
    outer loop
      vertex -0.36455 16.8967 29.7857
      vertex -0.821804 15.1902 39
      vertex -0.36455 16.8967 39
    endloop
  endfacet
  facet normal -0.258818 0.965926 0
    outer loop
      vertex -0.821804 15.1902 28.5
      vertex -1.39063 15.0378 39
      vertex -0.821804 15.1902 39
    endloop
  endfacet
  facet normal -0.258818 0.965926 0
    outer loop
      vertex -1.39063 15.0378 39
      vertex -0.821804 15.1902 28.5
      vertex -1.39063 15.0378 28.5
    endloop
  endfacet
  facet normal 0.965926 -0.258819 0
    outer loop
      vertex -2.63987 16.287 39
      vertex -2.48746 16.8559 28.5
      vertex -2.48746 16.8559 39
    endloop
  endfacet
  facet normal 0.965926 -0.258819 0
    outer loop
      vertex -2.48746 16.8559 28.5
      vertex -2.63987 16.287 39
      vertex -2.63987 16.287 28.5
    endloop
  endfacet
  facet normal -0.707108 -0.707106 -0
    outer loop
      vertex -0.36455 16.8967 39
      vertex -0.780963 17.3131 30.2021
      vertex -0.36455 16.8967 29.7857
    endloop
  endfacet
  facet normal -0.707108 -0.707106 0
    outer loop
      vertex -0.780963 17.3131 30.2021
      vertex -0.36455 16.8967 39
      vertex -0.780963 17.3131 39
    endloop
  endfacet
  facet normal 0.499999 0.866026 -0
    outer loop
      vertex 1.38778e-015 17.6777 35.05
      vertex -0.211882 17.8 39
      vertex 1.38778e-015 17.6777 39
    endloop
  endfacet
  facet normal 0.499999 0.866026 0
    outer loop
      vertex -0.211882 17.8 39
      vertex 1.38778e-015 17.6777 35.05
      vertex -0.211882 17.8 35.05
    endloop
  endfacet
  facet normal -0.866026 -0.499999 0
    outer loop
      vertex -2.82843 14.8492 35.05
      vertex -3.34606 15.7458 39
      vertex -3.34606 15.7458 35.05
    endloop
  endfacet
  facet normal -0.866026 -0.499999 0
    outer loop
      vertex -3.34606 15.7458 39
      vertex -2.82843 14.8492 35.05
      vertex -2.82843 14.8492 39
    endloop
  endfacet
  facet normal -0.499999 0.866026 0
    outer loop
      vertex -2.61655 17.8 35.05
      vertex -2.82843 17.6777 39
      vertex -2.61655 17.8 39
    endloop
  endfacet
  facet normal -0.499999 0.866026 0
    outer loop
      vertex -2.82843 17.6777 39
      vertex -2.61655 17.8 35.05
      vertex -2.82843 17.6777 35.05
    endloop
  endfacet
  facet normal -0.866026 0.499999 0
    outer loop
      vertex -3.34606 16.7811 35.05
      vertex -2.82843 17.6777 39
      vertex -2.82843 17.6777 35.05
    endloop
  endfacet
  facet normal -0.866026 0.499999 0
    outer loop
      vertex -2.82843 17.6777 39
      vertex -3.34606 16.7811 35.05
      vertex -3.34606 16.7811 39
    endloop
  endfacet
  facet normal 0.866026 -0.499999 0
    outer loop
      vertex 1.16573e-015 14.8492 39
      vertex 0.517637 15.7458 35.05
      vertex 0.517637 15.7458 39
    endloop
  endfacet
  facet normal 0.866026 -0.499999 0
    outer loop
      vertex 0.517637 15.7458 35.05
      vertex 1.16573e-015 14.8492 39
      vertex 1.16573e-015 14.8492 35.05
    endloop
  endfacet
  facet normal -0.499999 -0.866026 0
    outer loop
      vertex -2.82843 14.8492 35.05
      vertex -1.93185 14.3316 39
      vertex -2.82843 14.8492 39
    endloop
  endfacet
  facet normal -0.499999 -0.866026 -0
    outer loop
      vertex -1.93185 14.3316 39
      vertex -2.82843 14.8492 35.05
      vertex -1.93185 14.3316 35.05
    endloop
  endfacet
  facet normal 0.499999 -0.866026 0
    outer loop
      vertex -0.896576 14.3316 35.05
      vertex 1.16573e-015 14.8492 39
      vertex -0.896576 14.3316 39
    endloop
  endfacet
  facet normal 0.499999 -0.866026 0
    outer loop
      vertex 1.16573e-015 14.8492 39
      vertex -0.896576 14.3316 35.05
      vertex 1.16573e-015 14.8492 35.05
    endloop
  endfacet
  facet normal -9.21179e-007 -1 0
    outer loop
      vertex -1.93185 14.3316 35.05
      vertex -0.896576 14.3316 39
      vertex -1.93185 14.3316 39
    endloop
  endfacet
  facet normal -9.21179e-007 -1 -0
    outer loop
      vertex -0.896576 14.3316 39
      vertex -1.93185 14.3316 35.05
      vertex -0.896576 14.3316 35.05
    endloop
  endfacet
  facet normal 0 0 1
    outer loop
      vertex -0.211882 17.8 39
      vertex -0.780963 17.3131 39
      vertex -0.36455 16.8967 39
    endloop
  endfacet
  facet normal -0 0 1
    outer loop
      vertex -2.61655 17.8 39
      vertex -0.780963 17.3131 39
      vertex -0.211882 17.8 39
    endloop
  endfacet
  facet normal 0 0 1
    outer loop
      vertex -0.780963 17.3131 39
      vertex -2.61655 17.8 39
      vertex -2.48746 16.8559 39
    endloop
  endfacet
  facet normal -0 0 1
    outer loop
      vertex -2.82843 17.6777 39
      vertex -2.48746 16.8559 39
      vertex -2.61655 17.8 39
    endloop
  endfacet
  facet normal 0 0 1
    outer loop
      vertex -3.34606 16.7811 39
      vertex -2.48746 16.8559 39
      vertex -2.82843 17.6777 39
    endloop
  endfacet
  facet normal -0 0 1
    outer loop
      vertex -0.36455 16.8967 39
      vertex 0.517637 16.7811 39
      vertex 1.38778e-015 17.6777 39
    endloop
  endfacet
  facet normal 0 0 1
    outer loop
      vertex 0.517637 16.7811 39
      vertex -0.36455 16.8967 39
      vertex 0.517637 15.7458 39
    endloop
  endfacet
  facet normal 0 0 1
    outer loop
      vertex -0.36455 16.8967 39
      vertex 1.38778e-015 17.6777 39
      vertex -0.211882 17.8 39
    endloop
  endfacet
  facet normal 0 0 1
    outer loop
      vertex -0.821804 15.1902 39
      vertex 0.517637 15.7458 39
      vertex -0.36455 16.8967 39
    endloop
  endfacet
  facet normal 0 0 1
    outer loop
      vertex 0.517637 15.7458 39
      vertex -0.821804 15.1902 39
      vertex 1.16573e-015 14.8492 39
    endloop
  endfacet
  facet normal 0 0 1
    outer loop
      vertex -0.821804 15.1902 39
      vertex -0.896576 14.3316 39
      vertex 1.16573e-015 14.8492 39
    endloop
  endfacet
  facet normal -0 0 1
    outer loop
      vertex -1.39063 15.0378 39
      vertex -0.896576 14.3316 39
      vertex -0.821804 15.1902 39
    endloop
  endfacet
  facet normal 0 0 1
    outer loop
      vertex -1.39063 15.0378 39
      vertex -1.93185 14.3316 39
      vertex -0.896576 14.3316 39
    endloop
  endfacet
  facet normal 0 0 1
    outer loop
      vertex -2.82843 14.8492 39
      vertex -1.39063 15.0378 39
      vertex -2.63987 16.287 39
    endloop
  endfacet
  facet normal 0 0 1
    outer loop
      vertex -1.39063 15.0378 39
      vertex -2.82843 14.8492 39
      vertex -1.93185 14.3316 39
    endloop
  endfacet
  facet normal 0 0 1
    outer loop
      vertex -2.48746 16.8559 39
      vertex -3.34606 16.7811 39
      vertex -2.63987 16.287 39
    endloop
  endfacet
  facet normal 0 0 1
    outer loop
      vertex -3.34606 15.7458 39
      vertex -2.63987 16.287 39
      vertex -3.34606 16.7811 39
    endloop
  endfacet
  facet normal 0 0 1
    outer loop
      vertex -2.63987 16.287 39
      vertex -3.34606 15.7458 39
      vertex -2.82843 14.8492 39
    endloop
  endfacet
  facet normal -1 0 0
    outer loop
      vertex -3.34606 15.7458 35.05
      vertex -3.34606 16.7811 39
      vertex -3.34606 16.7811 35.05
    endloop
  endfacet
  facet normal -1 -0 0
    outer loop
      vertex -3.34606 16.7811 39
      vertex -3.34606 15.7458 35.05
      vertex -3.34606 15.7458 39
    endloop
  endfacet
  facet normal 1 -0 0
    outer loop
      vertex 0.517637 15.7458 39
      vertex 0.517637 16.7811 35.05
      vertex 0.517637 16.7811 39
    endloop
  endfacet
  facet normal 1 0 0
    outer loop
      vertex 0.517637 16.7811 35.05
      vertex 0.517637 15.7458 39
      vertex 0.517637 15.7458 35.05
    endloop
  endfacet
  facet normal 0.866026 0.499999 0
    outer loop
      vertex 0.517637 16.7811 39
      vertex 1.38778e-015 17.6777 35.05
      vertex 1.38778e-015 17.6777 39
    endloop
  endfacet
  facet normal 0.866026 0.499999 0
    outer loop
      vertex 1.38778e-015 17.6777 35.05
      vertex 0.517637 16.7811 39
      vertex 0.517637 16.7811 35.05
    endloop
  endfacet
  facet normal -0.707107 -0.707107 0
    outer loop
      vertex -6.19896 -7.4482 28.5
      vertex -7.4482 -6.19896 39
      vertex -7.4482 -6.19896 28.5
    endloop
  endfacet
  facet normal -0.707107 -0.707107 0
    outer loop
      vertex -7.4482 -6.19896 39
      vertex -6.19896 -7.4482 28.5
      vertex -6.19896 -7.4482 39
    endloop
  endfacet
  facet normal 0.965926 -0.258819 0
    outer loop
      vertex -8.47428 -8.05787 31.22
      vertex -8.01703 -6.35138 28.5
      vertex -8.01703 -6.35138 39
    endloop
  endfacet
  facet normal 0.965926 -0.258819 0
    outer loop
      vertex -8.47428 -8.05787 31.22
      vertex -8.01703 -6.35138 39
      vertex -8.47428 -8.05787 39
    endloop
  endfacet
  facet normal 0.965926 -0.258819 -7.41629e-008
    outer loop
      vertex -8.01703 -6.35138 28.5
      vertex -8.47428 -8.05787 31.22
      vertex -8.30009 -7.40778 28.5
    endloop
  endfacet
  facet normal -0.258819 0.965926 0
    outer loop
      vertex -6.35138 -8.01703 39
      vertex -8.05787 -8.47428 31.506
      vertex -8.05787 -8.47428 39
    endloop
  endfacet
  facet normal -0.258819 0.965926 0
    outer loop
      vertex -6.35138 -8.01703 28.5
      vertex -8.05787 -8.47428 31.506
      vertex -6.35138 -8.01703 39
    endloop
  endfacet
  facet normal -0.258819 0.965926 -2.05343e-008
    outer loop
      vertex -8.05787 -8.47428 31.506
      vertex -6.35138 -8.01703 28.5
      vertex -7.22792 -8.2519 28.5
    endloop
  endfacet
  facet normal -0.965926 0.258819 0
    outer loop
      vertex -6.35138 -8.01703 28.5
      vertex -6.19896 -7.4482 39
      vertex -6.19896 -7.4482 28.5
    endloop
  endfacet
  facet normal -0.965926 0.258819 0
    outer loop
      vertex -6.19896 -7.4482 39
      vertex -6.35138 -8.01703 28.5
      vertex -6.35138 -8.01703 39
    endloop
  endfacet
  facet normal 0.258819 -0.965926 0
    outer loop
      vertex -8.01703 -6.35138 28.5
      vertex -7.4482 -6.19896 39
      vertex -8.01703 -6.35138 39
    endloop
  endfacet
  facet normal 0.258819 -0.965926 0
    outer loop
      vertex -7.4482 -6.19896 39
      vertex -8.01703 -6.35138 28.5
      vertex -7.4482 -6.19896 28.5
    endloop
  endfacet
  facet normal 0.707107 0.707107 0
    outer loop
      vertex -8.05787 -8.47428 31.506
      vertex -8.47428 -8.05787 31.22
      vertex -8.47428 -8.05787 39
    endloop
  endfacet
  facet normal 0.707109 0.707105 -5.37657e-006
    outer loop
      vertex -8.16945 -8.36271 31.304
      vertex -8.47428 -8.05787 31.22
      vertex -8.05787 -8.47428 31.506
    endloop
  endfacet
  facet normal 0.707107 0.707107 -0
    outer loop
      vertex -8.05787 -8.47428 31.506
      vertex -8.47428 -8.05787 39
      vertex -8.05787 -8.47428 39
    endloop
  endfacet
  facet normal 0.707108 0.707105 -3.7277e-006
    outer loop
      vertex -8.47428 -8.05787 31.22
      vertex -8.16945 -8.36271 31.304
      vertex -8.26608 -8.26608 31.22
    endloop
  endfacet
  facet normal -0.866026 -0.499999 0
    outer loop
      vertex -8.83883 -8.83883 35.05
      vertex -9.35647 -7.94226 39
      vertex -9.35647 -7.94226 35.05
    endloop
  endfacet
  facet normal -0.866026 -0.499999 0
    outer loop
      vertex -9.35647 -7.94226 39
      vertex -8.83883 -8.83883 35.05
      vertex -8.83883 -8.83883 39
    endloop
  endfacet
  facet normal 0 0 0
    outer loop
      vertex -8.83883 -8.83883 39
      vertex -8.83883 -8.83883 35.05
      vertex -8.83883 -8.83883 35
    endloop
  endfacet
  facet normal 0.499999 0.866026 -0
    outer loop
      vertex -6.01041 -6.01041 35.05
      vertex -6.90698 -5.49277 39
      vertex -6.01041 -6.01041 39
    endloop
  endfacet
  facet normal 0.499999 0.866026 0
    outer loop
      vertex -6.90698 -5.49277 39
      vertex -6.01041 -6.01041 35.05
      vertex -6.90698 -5.49277 35.05
    endloop
  endfacet
  facet normal -0.866026 0.499999 0
    outer loop
      vertex -9.35647 -6.90698 35.05
      vertex -8.83883 -6.01041 39
      vertex -8.83883 -6.01041 35.05
    endloop
  endfacet
  facet normal -0.866026 0.499999 0
    outer loop
      vertex -8.83883 -6.01041 39
      vertex -9.35647 -6.90698 35.05
      vertex -9.35647 -6.90698 39
    endloop
  endfacet
  facet normal -1 0 0
    outer loop
      vertex -9.35647 -7.94226 35.05
      vertex -9.35647 -6.90698 39
      vertex -9.35647 -6.90698 35.05
    endloop
  endfacet
  facet normal -1 -0 0
    outer loop
      vertex -9.35647 -6.90698 39
      vertex -9.35647 -7.94226 35.05
      vertex -9.35647 -7.94226 39
    endloop
  endfacet
  facet normal -0.499999 0.866026 0
    outer loop
      vertex -7.94226 -5.49277 35.05
      vertex -8.83883 -6.01041 39
      vertex -7.94226 -5.49277 39
    endloop
  endfacet
  facet normal -0.499999 0.866026 0
    outer loop
      vertex -8.83883 -6.01041 39
      vertex -7.94226 -5.49277 35.05
      vertex -8.83883 -6.01041 35.05
    endloop
  endfacet
  facet normal 0.499999 -0.866026 1.20718e-007
    outer loop
      vertex -6.90698 -9.35647 39
      vertex -6.90698 -9.35647 35.05
      vertex -6.01041 -8.83883 39
    endloop
  endfacet
  facet normal 0 -1 0
    outer loop
      vertex -6.90698 -9.35647 35
      vertex -6.90698 -9.35647 35.05
      vertex -6.90698 -9.35647 39
    endloop
  endfacet
  facet normal 0.499999 -0.866026 0
    outer loop
      vertex -6.01041 -8.83883 39
      vertex -6.90698 -9.35647 35.05
      vertex -6.01041 -8.83883 35.05
    endloop
  endfacet
  facet normal 0.866026 0.499999 0
    outer loop
      vertex -5.49277 -6.90698 39
      vertex -6.01041 -6.01041 35.05
      vertex -6.01041 -6.01041 39
    endloop
  endfacet
  facet normal 0.866026 0.499999 0
    outer loop
      vertex -6.01041 -6.01041 35.05
      vertex -5.49277 -6.90698 39
      vertex -5.49277 -6.90698 35.05
    endloop
  endfacet
  facet normal 0.866026 -0.499999 0
    outer loop
      vertex -6.01041 -8.83883 39
      vertex -5.49277 -7.94226 35.05
      vertex -5.49277 -7.94226 39
    endloop
  endfacet
  facet normal 0.866026 -0.499999 0
    outer loop
      vertex -5.49277 -7.94226 35.05
      vertex -6.01041 -8.83883 39
      vertex -6.01041 -8.83883 35.05
    endloop
  endfacet
  facet normal 1 4.60589e-007 0
    outer loop
      vertex -5.49277 -7.94226 39
      vertex -5.49277 -6.90698 35.05
      vertex -5.49277 -6.90698 39
    endloop
  endfacet
  facet normal 1 4.60589e-007 0
    outer loop
      vertex -5.49277 -6.90698 35.05
      vertex -5.49277 -7.94226 39
      vertex -5.49277 -7.94226 35.05
    endloop
  endfacet
  facet normal 0 0 1
    outer loop
      vertex -6.19896 -7.4482 39
      vertex -5.49277 -6.90698 39
      vertex -6.01041 -6.01041 39
    endloop
  endfacet
  facet normal 0 0 1
    outer loop
      vertex -5.49277 -6.90698 39
      vertex -6.19896 -7.4482 39
      vertex -5.49277 -7.94226 39
    endloop
  endfacet
  facet normal 0 0 1
    outer loop
      vertex -6.35138 -8.01703 39
      vertex -5.49277 -7.94226 39
      vertex -6.19896 -7.4482 39
    endloop
  endfacet
  facet normal 0 0 1
    outer loop
      vertex -7.4482 -6.19896 39
      vertex -6.01041 -6.01041 39
      vertex -6.90698 -5.49277 39
    endloop
  endfacet
  facet normal 0 0 1
    outer loop
      vertex -6.01041 -6.01041 39
      vertex -7.4482 -6.19896 39
      vertex -6.19896 -7.4482 39
    endloop
  endfacet
  facet normal -0 0 1
    outer loop
      vertex -7.94226 -5.49277 39
      vertex -7.4482 -6.19896 39
      vertex -6.90698 -5.49277 39
    endloop
  endfacet
  facet normal 0 0 1
    outer loop
      vertex -7.94226 -5.49277 39
      vertex -8.01703 -6.35138 39
      vertex -7.4482 -6.19896 39
    endloop
  endfacet
  facet normal -0 0 1
    outer loop
      vertex -8.83883 -6.01041 39
      vertex -8.01703 -6.35138 39
      vertex -7.94226 -5.49277 39
    endloop
  endfacet
  facet normal 0 0 1
    outer loop
      vertex -9.35647 -6.90698 39
      vertex -8.01703 -6.35138 39
      vertex -8.83883 -6.01041 39
    endloop
  endfacet
  facet normal 0 0 1
    outer loop
      vertex -5.49277 -7.94226 39
      vertex -6.35138 -8.01703 39
      vertex -6.01041 -8.83883 39
    endloop
  endfacet
  facet normal 0 0 1
    outer loop
      vertex -6.35138 -8.01703 39
      vertex -6.90698 -9.35647 39
      vertex -6.01041 -8.83883 39
    endloop
  endfacet
  facet normal -0 0 1
    outer loop
      vertex -8.05787 -8.47428 39
      vertex -6.90698 -9.35647 39
      vertex -6.35138 -8.01703 39
    endloop
  endfacet
  facet normal 0 0 1
    outer loop
      vertex -6.90698 -9.35647 39
      vertex -8.05787 -8.47428 39
      vertex -7.94226 -9.35647 39
    endloop
  endfacet
  facet normal 0 0 1
    outer loop
      vertex -8.83883 -8.83883 39
      vertex -8.05787 -8.47428 39
      vertex -8.47428 -8.05787 39
    endloop
  endfacet
  facet normal 0 0 1
    outer loop
      vertex -8.05787 -8.47428 39
      vertex -8.83883 -8.83883 39
      vertex -7.94226 -9.35647 39
    endloop
  endfacet
  facet normal 0 0 1
    outer loop
      vertex -8.01703 -6.35138 39
      vertex -9.35647 -6.90698 39
      vertex -8.47428 -8.05787 39
    endloop
  endfacet
  facet normal -0 0 1
    outer loop
      vertex -9.35647 -7.94226 39
      vertex -8.47428 -8.05787 39
      vertex -9.35647 -6.90698 39
    endloop
  endfacet
  facet normal 0 0 1
    outer loop
      vertex -8.47428 -8.05787 39
      vertex -9.35647 -7.94226 39
      vertex -8.83883 -8.83883 39
    endloop
  endfacet
  facet normal 0 1 -0
    outer loop
      vertex -6.90698 -5.49277 35.05
      vertex -7.94226 -5.49277 39
      vertex -6.90698 -5.49277 39
    endloop
  endfacet
  facet normal 0 1 0
    outer loop
      vertex -7.94226 -5.49277 39
      vertex -6.90698 -5.49277 35.05
      vertex -7.94226 -5.49277 35.05
    endloop
  endfacet
  facet normal 0 -1 0
    outer loop
      vertex -7.94226 -9.35647 35
      vertex -6.90698 -9.35647 39
      vertex -7.94226 -9.35647 39
    endloop
  endfacet
  facet normal 0 -1 -0
    outer loop
      vertex -6.90698 -9.35647 39
      vertex -7.94226 -9.35647 35
      vertex -6.90698 -9.35647 35
    endloop
  endfacet
  facet normal -0.499999 -0.866026 0
    outer loop
      vertex -8.83883 -8.83883 35
      vertex -7.94226 -9.35647 39
      vertex -8.83883 -8.83883 39
    endloop
  endfacet
  facet normal -0.499999 -0.866026 -0
    outer loop
      vertex -7.94226 -9.35647 39
      vertex -8.83883 -8.83883 35
      vertex -7.94226 -9.35647 35
    endloop
  endfacet
  facet normal -0.707107 -0.707107 0
    outer loop
      vertex -15.0378 1.39063 28.5
      vertex -16.287 2.63987 39
      vertex -16.287 2.63987 28.5
    endloop
  endfacet
  facet normal -0.707107 -0.707107 0
    outer loop
      vertex -16.287 2.63987 39
      vertex -15.0378 1.39063 28.5
      vertex -15.0378 1.39063 39
    endloop
  endfacet
  facet normal 0.965925 -0.258821 0
    outer loop
      vertex -16.9403 2.17244 30.5002
      vertex -16.8559 2.48746 30.1215
      vertex -16.8559 2.48746 39
    endloop
  endfacet
  facet normal 0.965925 -0.258821 4.35871e-007
    outer loop
      vertex -16.8559 2.48746 30.1215
      vertex -16.9403 2.17244 30.5002
      vertex -16.8944 2.34365 30.2618
    endloop
  endfacet
  facet normal 0.965926 -0.25882 0
    outer loop
      vertex -17.3131 0.780963 32.6661
      vertex -16.8559 2.48746 39
      vertex -17.3131 0.780963 39
    endloop
  endfacet
  facet normal 0.965926 -0.258819 -6.94257e-008
    outer loop
      vertex -16.8559 2.48746 39
      vertex -17.3131 0.780963 32.6661
      vertex -16.9403 2.17244 30.5002
    endloop
  endfacet
  facet normal -0.258819 0.965926 0
    outer loop
      vertex -15.1902 0.821804 39
      vertex -16.8967 0.36455 32.085
      vertex -16.8967 0.36455 39
    endloop
  endfacet
  facet normal -0.258819 0.965926 5.92799e-008
    outer loop
      vertex -15.1902 0.821804 39
      vertex -16.4797 0.476294 30.6692
      vertex -16.8967 0.36455 32.085
    endloop
  endfacet
  facet normal -0.258819 0.965926 0
    outer loop
      vertex -15.1902 0.821804 28.5
      vertex -16.4797 0.476294 30.6692
      vertex -15.1902 0.821804 39
    endloop
  endfacet
  facet normal -0.258819 0.965926 -2.02043e-007
    outer loop
      vertex -16.4797 0.476294 30.6692
      vertex -15.1902 0.821804 28.5
      vertex -16.1576 0.562591 29.664
    endloop
  endfacet
  facet normal -0.258819 0.965926 1.35758e-007
    outer loop
      vertex -16.1576 0.562591 29.664
      vertex -15.1902 0.821804 28.5
      vertex -15.766 0.667523 28.5
    endloop
  endfacet
  facet normal -0.965926 0.258818 0
    outer loop
      vertex -15.1902 0.821804 28.5
      vertex -15.0378 1.39063 39
      vertex -15.0378 1.39063 28.5
    endloop
  endfacet
  facet normal -0.965926 0.258818 0
    outer loop
      vertex -15.0378 1.39063 39
      vertex -15.1902 0.821804 28.5
      vertex -15.1902 0.821804 39
    endloop
  endfacet
  facet normal 0.258819 -0.965926 0
    outer loop
      vertex -16.8559 2.48746 30.1215
      vertex -16.287 2.63987 39
      vertex -16.8559 2.48746 39
    endloop
  endfacet
  facet normal 0.258813 -0.965928 -2.42625e-006
    outer loop
      vertex -16.287 2.63987 28.5
      vertex -16.8559 2.48746 30.1215
      vertex -16.7363 2.51949 29.686
    endloop
  endfacet
  facet normal 0.258813 -0.965928 -2.35037e-006
    outer loop
      vertex -16.287 2.63987 28.5
      vertex -16.7363 2.51949 29.686
      vertex -16.5497 2.56949 29.0999
    endloop
  endfacet
  facet normal 0.258816 -0.965927 -6.98483e-007
    outer loop
      vertex -16.287 2.63987 28.5
      vertex -16.5497 2.56949 29.0999
      vertex -16.3479 2.62357 28.5
    endloop
  endfacet
  facet normal 0.258819 -0.965926 0
    outer loop
      vertex -16.8559 2.48746 30.1215
      vertex -16.287 2.63987 28.5
      vertex -16.287 2.63987 39
    endloop
  endfacet
  facet normal 0.707106 0.707108 0
    outer loop
      vertex -16.8967 0.36455 39
      vertex -17.3131 0.780963 32.6661
      vertex -17.3131 0.780963 39
    endloop
  endfacet
  facet normal 0.707106 0.707108 -0
    outer loop
      vertex -16.8967 0.36455 32.085
      vertex -17.3131 0.780963 32.6661
      vertex -16.8967 0.36455 39
    endloop
  endfacet
  facet normal 0.707102 0.707111 -5.64105e-006
    outer loop
      vertex -17.18 0.647857 32.4371
      vertex -17.3131 0.780963 32.6661
      vertex -16.8967 0.36455 32.085
    endloop
  endfacet
  facet normal 0.707089 0.707125 -2.13261e-005
    outer loop
      vertex -17.3131 0.780963 32.6661
      vertex -17.18 0.647857 32.4371
      vertex -17.2785 0.746301 32.5991
    endloop
  endfacet
  facet normal -0.866026 -0.499999 0
    outer loop
      vertex -17.6777 1.38778e-015 35
      vertex -18.1953 0.896575 39
      vertex -18.1953 0.896575 35
    endloop
  endfacet
  facet normal -0.866026 -0.499999 0
    outer loop
      vertex -18.1953 0.896575 39
      vertex -17.6777 1.38778e-015 35
      vertex -17.6777 1.38778e-015 39
    endloop
  endfacet
  facet normal 0.499999 0.866026 -0
    outer loop
      vertex -14.8492 2.82843 35.05
      vertex -15.7458 3.34606 39
      vertex -14.8492 2.82843 39
    endloop
  endfacet
  facet normal 0.499999 0.866026 0
    outer loop
      vertex -15.7458 3.34606 39
      vertex -14.8492 2.82843 35.05
      vertex -15.7458 3.34606 35.05
    endloop
  endfacet
  facet normal -0.866026 0.499999 0
    outer loop
      vertex -18.1953 1.93185 35
      vertex -17.6777 2.82843 39
      vertex -17.6777 2.82843 35
    endloop
  endfacet
  facet normal -0.866026 0.499999 0
    outer loop
      vertex -17.6777 2.82843 39
      vertex -18.1953 1.93185 35
      vertex -18.1953 1.93185 39
    endloop
  endfacet
  facet normal -1 0 0
    outer loop
      vertex -18.1953 0.896575 35
      vertex -18.1953 1.93185 39
      vertex -18.1953 1.93185 35
    endloop
  endfacet
  facet normal -1 -0 0
    outer loop
      vertex -18.1953 1.93185 39
      vertex -18.1953 0.896575 35
      vertex -18.1953 0.896575 39
    endloop
  endfacet
  facet normal -0.499999 0.866026 0
    outer loop
      vertex -16.7811 3.34606 35.05
      vertex -17.6777 2.82843 39
      vertex -16.7811 3.34606 39
    endloop
  endfacet
  facet normal -0.499999 0.866026 -3.23457e-008
    outer loop
      vertex -17.6777 2.82843 35.05
      vertex -17.6777 2.82843 39
      vertex -16.7811 3.34606 35.05
    endloop
  endfacet
  facet normal -0.447214 0.894427 0
    outer loop
      vertex -17.6777 2.82843 35.05
      vertex -17.6777 2.82843 35
      vertex -17.6777 2.82843 39
    endloop
  endfacet
  facet normal 0.499999 -0.866026 0
    outer loop
      vertex -15.7458 -0.517637 35.05
      vertex -14.8492 1.16573e-015 39
      vertex -15.7458 -0.517637 39
    endloop
  endfacet
  facet normal 0.499999 -0.866026 0
    outer loop
      vertex -14.8492 1.16573e-015 39
      vertex -15.7458 -0.517637 35.05
      vertex -14.8492 1.16573e-015 35.05
    endloop
  endfacet
  facet normal 0.866026 0.499999 0
    outer loop
      vertex -14.3316 1.93185 39
      vertex -14.8492 2.82843 35.05
      vertex -14.8492 2.82843 39
    endloop
  endfacet
  facet normal 0.866026 0.499999 0
    outer loop
      vertex -14.8492 2.82843 35.05
      vertex -14.3316 1.93185 39
      vertex -14.3316 1.93185 35.05
    endloop
  endfacet
  facet normal 0.866026 -0.499999 0
    outer loop
      vertex -14.8492 1.16573e-015 39
      vertex -14.3316 0.896576 35.05
      vertex -14.3316 0.896576 39
    endloop
  endfacet
  facet normal 0.866026 -0.499999 0
    outer loop
      vertex -14.3316 0.896576 35.05
      vertex -14.8492 1.16573e-015 39
      vertex -14.8492 1.16573e-015 35.05
    endloop
  endfacet
  facet normal 0 0 -1
    outer loop
      vertex -18.1953 0.896575 35
      vertex -17.6777 0 35
      vertex -17.6777 -6.17058e-009 35
    endloop
  endfacet
  facet normal 0 -0 1
    outer loop
      vertex -17.6777 -6.17058e-009 35
      vertex -17.6777 1.38778e-015 35
      vertex -18.1953 0.896575 35
    endloop
  endfacet
  facet normal 1 9.21179e-007 0
    outer loop
      vertex -14.3316 0.896576 39
      vertex -14.3316 1.93185 35.05
      vertex -14.3316 1.93185 39
    endloop
  endfacet
  facet normal 1 9.21179e-007 0
    outer loop
      vertex -14.3316 1.93185 35.05
      vertex -14.3316 0.896576 39
      vertex -14.3316 0.896576 35.05
    endloop
  endfacet
  facet normal 0 0 1
    outer loop
      vertex -15.0378 1.39063 39
      vertex -14.3316 1.93185 39
      vertex -14.8492 2.82843 39
    endloop
  endfacet
  facet normal 0 0 1
    outer loop
      vertex -14.3316 1.93185 39
      vertex -15.0378 1.39063 39
      vertex -14.3316 0.896576 39
    endloop
  endfacet
  facet normal 0 0 1
    outer loop
      vertex -15.1902 0.821804 39
      vertex -14.3316 0.896576 39
      vertex -15.0378 1.39063 39
    endloop
  endfacet
  facet normal 0 0 1
    outer loop
      vertex -16.287 2.63987 39
      vertex -14.8492 2.82843 39
      vertex -15.7458 3.34606 39
    endloop
  endfacet
  facet normal 0 0 1
    outer loop
      vertex -14.8492 2.82843 39
      vertex -16.287 2.63987 39
      vertex -15.0378 1.39063 39
    endloop
  endfacet
  facet normal -0 0 1
    outer loop
      vertex -16.7811 3.34606 39
      vertex -16.287 2.63987 39
      vertex -15.7458 3.34606 39
    endloop
  endfacet
  facet normal 0 0 1
    outer loop
      vertex -16.7811 3.34606 39
      vertex -16.8559 2.48746 39
      vertex -16.287 2.63987 39
    endloop
  endfacet
  facet normal -0 0 1
    outer loop
      vertex -17.6777 2.82843 39
      vertex -16.8559 2.48746 39
      vertex -16.7811 3.34606 39
    endloop
  endfacet
  facet normal 0 0 1
    outer loop
      vertex -18.1953 1.93185 39
      vertex -16.8559 2.48746 39
      vertex -17.6777 2.82843 39
    endloop
  endfacet
  facet normal 0 0 1
    outer loop
      vertex -14.3316 0.896576 39
      vertex -15.1902 0.821804 39
      vertex -14.8492 1.16573e-015 39
    endloop
  endfacet
  facet normal 0 0 1
    outer loop
      vertex -15.1902 0.821804 39
      vertex -15.7458 -0.517637 39
      vertex -14.8492 1.16573e-015 39
    endloop
  endfacet
  facet normal -0 0 1
    outer loop
      vertex -16.8967 0.36455 39
      vertex -15.7458 -0.517637 39
      vertex -15.1902 0.821804 39
    endloop
  endfacet
  facet normal 0 0 1
    outer loop
      vertex -15.7458 -0.517637 39
      vertex -16.8967 0.36455 39
      vertex -16.7811 -0.517637 39
    endloop
  endfacet
  facet normal 0 0 1
    outer loop
      vertex -17.6777 1.38778e-015 39
      vertex -16.8967 0.36455 39
      vertex -17.3131 0.780963 39
    endloop
  endfacet
  facet normal 0 0 1
    outer loop
      vertex -16.8967 0.36455 39
      vertex -17.6777 1.38778e-015 39
      vertex -16.7811 -0.517637 39
    endloop
  endfacet
  facet normal 0 0 1
    outer loop
      vertex -16.8559 2.48746 39
      vertex -18.1953 1.93185 39
      vertex -17.3131 0.780963 39
    endloop
  endfacet
  facet normal -0 0 1
    outer loop
      vertex -18.1953 0.896575 39
      vertex -17.3131 0.780963 39
      vertex -18.1953 1.93185 39
    endloop
  endfacet
  facet normal 0 0 1
    outer loop
      vertex -17.3131 0.780963 39
      vertex -18.1953 0.896575 39
      vertex -17.6777 1.38778e-015 39
    endloop
  endfacet
  facet normal 0 1 -0
    outer loop
      vertex -15.7458 3.34606 35.05
      vertex -16.7811 3.34606 39
      vertex -15.7458 3.34606 39
    endloop
  endfacet
  facet normal 0 1 0
    outer loop
      vertex -16.7811 3.34606 39
      vertex -15.7458 3.34606 35.05
      vertex -16.7811 3.34606 35.05
    endloop
  endfacet
  facet normal 0 -1 0
    outer loop
      vertex -16.7811 -0.517637 35.05
      vertex -15.7458 -0.517637 39
      vertex -16.7811 -0.517637 39
    endloop
  endfacet
  facet normal 0 -1 -0
    outer loop
      vertex -15.7458 -0.517637 39
      vertex -16.7811 -0.517637 35.05
      vertex -15.7458 -0.517637 35.05
    endloop
  endfacet
  facet normal -0.499999 -0.866026 1.35288e-009
    outer loop
      vertex -17.6777 -6.17058e-009 35.05
      vertex -16.7811 -0.517637 39
      vertex -17.6777 1.38778e-015 39
    endloop
  endfacet
  facet normal -0.499999 -0.866026 -0
    outer loop
      vertex -16.7811 -0.517637 39
      vertex -17.6777 -6.17058e-009 35.05
      vertex -16.7811 -0.517637 35.05
    endloop
  endfacet
  facet normal -1 0 0
    outer loop
      vertex -17.6777 1.38778e-015 35
      vertex -17.6777 -6.17058e-009 35
      vertex -17.6777 -6.17058e-009 35.05
    endloop
  endfacet
  facet normal -1 0 0
    outer loop
      vertex -17.6777 -6.17058e-009 35.05
      vertex -17.6777 1.38778e-015 39
      vertex -17.6777 1.38778e-015 35
    endloop
  endfacet
  facet normal -0.905189 -0.269282 -0.328816
    outer loop
      vertex -4.82963 -1.2941 0
      vertex -16.3479 2.62357 28.5
      vertex -8.43353 10.8204 0
    endloop
  endfacet
  facet normal -0.905189 -0.269284 -0.328816
    outer loop
      vertex -15.766 0.667523 28.5
      vertex -4.82963 -1.2941 0
      vertex -16.1576 0.562591 29.664
    endloop
  endfacet
  facet normal -0.905189 -0.269282 -0.328816
    outer loop
      vertex -16.3479 2.62357 28.5
      vertex -4.82963 -1.2941 0
      vertex -15.766 0.667523 28.5
    endloop
  endfacet
  facet normal -0.905188 -0.269286 -0.328817
    outer loop
      vertex -8.43353 10.8204 0
      vertex -16.3479 2.62357 28.5
      vertex -16.5497 2.56949 29.0999
    endloop
  endfacet
  facet normal -0.90519 -0.269281 -0.328816
    outer loop
      vertex -17.3131 0.780963 32.6661
      vertex -18.1953 0.896575 35
      vertex -16.9403 2.17244 30.5002
    endloop
  endfacet
  facet normal -0.905193 -0.269269 -0.328817
    outer loop
      vertex -18.1953 0.896575 35
      vertex -17.3131 0.780963 32.6661
      vertex -17.2785 0.746301 32.5991
    endloop
  endfacet
  facet normal 0 0 -1
    outer loop
      vertex 8.43353 10.8204 0
      vertex 8.43353 12.3512 0
      vertex 8.58578 11.5858 0
    endloop
  endfacet
  facet normal 0 0 -1
    outer loop
      vertex 8.43353 10.8204 0
      vertex 8 13 0
      vertex 8.43353 12.3512 0
    endloop
  endfacet
  facet normal 0 0 -1
    outer loop
      vertex -8.43353 10.8204 0
      vertex 8.43353 10.8204 0
      vertex 4.82963 -1.2941 0
    endloop
  endfacet
  facet normal 0 0 -1
    outer loop
      vertex -4.82963 -1.2941 0
      vertex 4.82963 -1.2941 0
      vertex 4.33013 -2.5 0
    endloop
  endfacet
  facet normal 0 0 -1
    outer loop
      vertex -4.82963 -1.2941 0
      vertex 4.33013 -2.5 0
      vertex 3.53553 -3.53553 0
    endloop
  endfacet
  facet normal 0 0 -1
    outer loop
      vertex -8.43353 10.8204 0
      vertex 4.82963 -1.2941 0
      vertex -4.82963 -1.2941 0
    endloop
  endfacet
  facet normal 0 0 -1
    outer loop
      vertex -4.82963 -1.2941 0
      vertex 3.53553 -3.53553 0
      vertex 2.5 -4.33013 0
    endloop
  endfacet
  facet normal 0 0 -1
    outer loop
      vertex -4.82963 -1.2941 0
      vertex 2.5 -4.33013 0
      vertex 1.2941 -4.82963 0
    endloop
  endfacet
  facet normal 0 0 -1
    outer loop
      vertex -4.82963 -1.2941 0
      vertex 1.2941 -4.82963 0
      vertex 0 -5 0
    endloop
  endfacet
  facet normal 0 0 -1
    outer loop
      vertex -4.82963 -1.2941 0
      vertex 0 -5 0
      vertex -1.2941 -4.82963 0
    endloop
  endfacet
  facet normal 0 0 -1
    outer loop
      vertex -4.82963 -1.2941 0
      vertex -1.2941 -4.82963 0
      vertex -2.5 -4.33013 0
    endloop
  endfacet
  facet normal 0 -0 -1
    outer loop
      vertex 3.2 17.8 0
      vertex 8.43353 10.8204 0
      vertex -8.43353 10.8204 0
    endloop
  endfacet
  facet normal 0 0 -1
    outer loop
      vertex -4.82963 -1.2941 0
      vertex -2.5 -4.33013 0
      vertex -3.53553 -3.53553 0
    endloop
  endfacet
  facet normal 0 0 -1
    outer loop
      vertex -4.82963 -1.2941 0
      vertex -3.53553 -3.53553 0
      vertex -4.33013 -2.5 0
    endloop
  endfacet
  facet normal 0 0 -1
    outer loop
      vertex 8.43353 10.8204 0
      vertex 3.2 17.8 0
      vertex 8 13 0
    endloop
  endfacet
  facet normal -0 0 -1
    outer loop
      vertex 3.2 17.8 0
      vertex -8.43353 10.8204 0
      vertex -3.2 17.8 0
    endloop
  endfacet
  facet normal 0 0 -1
    outer loop
      vertex -3.2 17.8 0
      vertex -8.43353 10.8204 0
      vertex -8 13 0
    endloop
  endfacet
  facet normal 0 0 -1
    outer loop
      vertex -8.43353 10.8204 0
      vertex -8.43353 12.3512 0
      vertex -8 13 0
    endloop
  endfacet
  facet normal 0 -0 -1
    outer loop
      vertex -8.43353 12.3512 0
      vertex -8.43353 10.8204 0
      vertex -8.58578 11.5858 0
    endloop
  endfacet
  facet normal -0.707106 0.707108 0
    outer loop
      vertex -3.2 17.8 0
      vertex -8 13 35.05
      vertex -3.2 17.8 35.05
    endloop
  endfacet
  facet normal -0.707106 0.707108 0
    outer loop
      vertex -8 13 35.05
      vertex -3.2 17.8 0
      vertex -8 13 0
    endloop
  endfacet
  facet normal -0.375806 -0.907277 -0.188729
    outer loop
      vertex -1.2941 -4.82963 0
      vertex -7.94226 -9.35647 35
      vertex -2.5 -4.33013 0
    endloop
  endfacet
  facet normal -0.595469 -0.776034 -0.207814
    outer loop
      vertex -3.53553 -3.53553 0
      vertex -7.66162 -8.0015 28.5
      vertex -7.85394 -7.85394 28.5
    endloop
  endfacet
  facet normal -0.595471 -0.776033 -0.207814
    outer loop
      vertex -7.66162 -8.0015 28.5
      vertex -3.53553 -3.53553 0
      vertex -2.5 -4.33013 0
    endloop
  endfacet
  facet normal -0.595472 -0.776033 -0.207814
    outer loop
      vertex -8.16945 -8.36271 31.304
      vertex -8.83883 -8.83883 35
      vertex -8.26608 -8.26608 31.22
    endloop
  endfacet
  facet normal -0.707107 -0.707107 0
    outer loop
      vertex -8.83883 -8.83883 35
      vertex -17.6777 -6.17058e-009 35.05
      vertex -17.6777 -6.17058e-009 35
    endloop
  endfacet
  facet normal -0.707107 -0.707107 0
    outer loop
      vertex -17.6777 -6.17058e-009 35.05
      vertex -8.83883 -8.83883 35
      vertex -8.83883 -8.83883 35.05
    endloop
  endfacet
  facet normal -0.767999 -0.589306 -0.25079
    outer loop
      vertex -3.53553 -3.53553 0
      vertex -17.6777 0 35
      vertex -4.33013 -2.5 0
    endloop
  endfacet
  facet normal -0.297569 0.9547 0
    outer loop
      vertex -3.19996 17.8 0.00101322
      vertex -3.2 17.8 35.05
      vertex -3.19996 17.8 35.05
    endloop
  endfacet
  facet normal -0.297569 0.9547 0
    outer loop
      vertex -3.2 17.8 35.05
      vertex -3.19996 17.8 0.00101322
      vertex -3.2 17.8 0
    endloop
  endfacet
  facet normal -0.877641 -0.363531 -0.312397
    outer loop
      vertex -4.33013 -2.5 0
      vertex -16.1576 0.562591 29.664
      vertex -4.82963 -1.2941 0
    endloop
  endfacet
  facet normal -0.877642 -0.363528 -0.312397
    outer loop
      vertex -16.1576 0.562591 29.664
      vertex -4.33013 -2.5 0
      vertex -16.4797 0.476294 30.6692
    endloop
  endfacet
  facet normal -0.877638 -0.36354 -0.312394
    outer loop
      vertex -17.18 0.647857 32.4371
      vertex -18.1953 0.896575 35
      vertex -17.2785 0.746301 32.5991
    endloop
  endfacet
  facet normal -0.490088 -0.848861 -0.19811
    outer loop
      vertex -7.66162 -8.0015 28.5
      vertex -2.5 -4.33013 0
      vertex -7.22792 -8.2519 28.5
    endloop
  endfacet
  facet normal -0.490089 -0.848861 -0.19811
    outer loop
      vertex -8.83883 -8.83883 35
      vertex -8.05787 -8.47428 31.506
      vertex -7.94226 -9.35647 35
    endloop
  endfacet
  facet normal -0.490084 -0.848864 -0.19811
    outer loop
      vertex -8.05787 -8.47428 31.506
      vertex -8.83883 -8.83883 35
      vertex -8.16945 -8.36271 31.304
    endloop
  endfacet
  facet normal -0.490089 -0.848861 -0.19811
    outer loop
      vertex -7.22792 -8.2519 28.5
      vertex -7.94226 -9.35647 35
      vertex -8.05787 -8.47428 31.506
    endloop
  endfacet
  facet normal -0.49009 -0.848861 -0.19811
    outer loop
      vertex -7.94226 -9.35647 35
      vertex -7.22792 -8.2519 28.5
      vertex -2.5 -4.33013 0
    endloop
  endfacet
  facet normal 0.881991 -0.471266 0
    outer loop
      vertex 9.35647 6.90698 35.05
      vertex 4.33013 -2.5 35.05
      vertex 9.35647 6.90698 35
    endloop
  endfacet
  facet normal 0.881991 -0.471266 0
    outer loop
      vertex 4.33013 -2.5 0
      vertex 9.35647 6.90698 35
      vertex 4.33013 -2.5 35.05
    endloop
  endfacet
  facet normal -0.691411 -0.69141 -0.209529
    outer loop
      vertex -3.53553 -3.53553 0
      vertex -7.85394 -7.85394 28.5
      vertex -8.30009 -7.40778 28.5
    endloop
  endfacet
  facet normal -0.691411 -0.691411 -0.209529
    outer loop
      vertex -8.30009 -7.40778 28.5
      vertex -17.6777 0 35
      vertex -3.53553 -3.53553 0
    endloop
  endfacet
  facet normal -0.569674 -0 -0.821871
    outer loop
      vertex -17.6777 0 35
      vertex -8.30009 -7.40778 28.5
      vertex -17.6777 -6.17058e-009 35
    endloop
  endfacet
  facet normal -0.691411 -0.691411 -0.209529
    outer loop
      vertex -8.47428 -8.05787 31.22
      vertex -17.6777 -6.17058e-009 35
      vertex -8.30009 -7.40778 28.5
    endloop
  endfacet
  facet normal -0.691412 -0.691409 -0.209529
    outer loop
      vertex -8.83883 -8.83883 35
      vertex -8.47428 -8.05787 31.22
      vertex -8.26608 -8.26608 31.22
    endloop
  endfacet
  facet normal -0.691411 -0.691411 -0.209529
    outer loop
      vertex -8.47428 -8.05787 31.22
      vertex -8.83883 -8.83883 35
      vertex -17.6777 -6.17058e-009 35
    endloop
  endfacet
  facet normal -0.724477 0.689299 0
    outer loop
      vertex -8 13 0
      vertex -17.6777 2.82843 35
      vertex -8 13 35.05
    endloop
  endfacet
  facet normal -0.724477 0.689299 0
    outer loop
      vertex -8 13 35.05
      vertex -17.6777 2.82843 35
      vertex -17.6777 2.82843 35.05
    endloop
  endfacet
  facet normal 0 0.999936 -0.0112941
    outer loop
      vertex -3.2 17.8 0
      vertex 3.19985 17.8 0.00101322
      vertex 3.2 17.8 0
    endloop
  endfacet
  facet normal 0 0.999936 -0.0112941
    outer loop
      vertex 3.19985 17.8 0.00101322
      vertex -3.2 17.8 0
      vertex -3.19996 17.8 0.00101322
    endloop
  endfacet
  facet normal -0.964315 7.58435e-006 -0.264758
    outer loop
      vertex -16.8559 2.48746 30.1215
      vertex -8.58578 11.5858 0
      vertex -16.7363 2.51949 29.686
    endloop
  endfacet
  facet normal -0.964314 -1.56793e-006 -0.26476
    outer loop
      vertex -16.8559 2.48746 30.1215
      vertex -18.1953 1.93185 35
      vertex -8.58578 11.5858 0
    endloop
  endfacet
  facet normal -0.964314 2.82616e-006 -0.26476
    outer loop
      vertex -16.8944 2.34365 30.2618
      vertex -18.1953 1.93185 35
      vertex -16.8559 2.48746 30.1215
    endloop
  endfacet
  facet normal -0.964314 -1.77661e-006 -0.26476
    outer loop
      vertex -18.1953 1.93185 35
      vertex -16.8944 2.34365 30.2618
      vertex -18.1953 0.896575 35
    endloop
  endfacet
  facet normal -0.931693 -0.185339 -0.312407
    outer loop
      vertex -16.5497 2.56949 29.0999
      vertex -8.58578 11.5858 0
      vertex -8.43353 10.8204 0
    endloop
  endfacet
  facet normal -0.931694 -0.185334 -0.312406
    outer loop
      vertex -8.58578 11.5858 0
      vertex -16.5497 2.56949 29.0999
      vertex -16.7363 2.51949 29.686
    endloop
  endfacet
  facet normal -0.931694 -0.185334 -0.312406
    outer loop
      vertex -16.9403 2.17244 30.5002
      vertex -18.1953 0.896575 35
      vertex -16.8944 2.34365 30.2618
    endloop
  endfacet
  facet normal -0 0 1
    outer loop
      vertex -3.19996 17.8 35.05
      vertex -2.82843 17.6777 35.05
      vertex -2.61655 17.8 35.05
    endloop
  endfacet
  facet normal -0 0 1
    outer loop
      vertex -3.2 17.8 35.05
      vertex -2.82843 17.6777 35.05
      vertex -3.19996 17.8 35.05
    endloop
  endfacet
  facet normal 0 0 1
    outer loop
      vertex -3.2 17.8 35.05
      vertex -3.34606 16.7811 35.05
      vertex -2.82843 17.6777 35.05
    endloop
  endfacet
  facet normal 0 0 1
    outer loop
      vertex -8 13 35.05
      vertex -3.34606 15.7458 35.05
      vertex -3.34606 16.7811 35.05
    endloop
  endfacet
  facet normal 0 0 1
    outer loop
      vertex -3.34606 15.7458 35.05
      vertex -5.49277 -6.90698 35.05
      vertex -5.49277 -7.94226 35.05
    endloop
  endfacet
  facet normal 0 0 1
    outer loop
      vertex -3.34606 15.7458 35.05
      vertex -6.01041 -6.01041 35.05
      vertex -5.49277 -6.90698 35.05
    endloop
  endfacet
  facet normal 0 0 1
    outer loop
      vertex -3.34606 15.7458 35.05
      vertex -8 13 35.05
      vertex -6.01041 -6.01041 35.05
    endloop
  endfacet
  facet normal 0 0 1
    outer loop
      vertex -8 13 35.05
      vertex -3.34606 16.7811 35.05
      vertex -3.2 17.8 35.05
    endloop
  endfacet
  facet normal 0 0 1
    outer loop
      vertex -6.01041 -6.01041 35.05
      vertex -8 13 35.05
      vertex -6.90698 -5.49277 35.05
    endloop
  endfacet
  facet normal -0 0 1
    outer loop
      vertex -14.3316 1.93185 35.05
      vertex -6.90698 -5.49277 35.05
      vertex -8 13 35.05
    endloop
  endfacet
  facet normal 0 0 1
    outer loop
      vertex -6.90698 -5.49277 35.05
      vertex -14.3316 1.93185 35.05
      vertex -7.94226 -5.49277 35.05
    endloop
  endfacet
  facet normal -0 -0 1
    outer loop
      vertex -14.3316 0.896576 35.05
      vertex -7.94226 -5.49277 35.05
      vertex -14.3316 1.93185 35.05
    endloop
  endfacet
  facet normal 0 0 1
    outer loop
      vertex -8.83883 -6.01041 35.05
      vertex -14.8492 1.16573e-015 35.05
      vertex -9.35647 -6.90698 35.05
    endloop
  endfacet
  facet normal 0 0 1
    outer loop
      vertex -7.94226 -5.49277 35.05
      vertex -14.3316 0.896576 35.05
      vertex -8.83883 -6.01041 35.05
    endloop
  endfacet
  facet normal -0 0 1
    outer loop
      vertex -14.8492 1.16573e-015 35.05
      vertex -8.83883 -6.01041 35.05
      vertex -14.3316 0.896576 35.05
    endloop
  endfacet
  facet normal 0 0 1
    outer loop
      vertex -8 13 35.05
      vertex -14.8492 2.82843 35.05
      vertex -14.3316 1.93185 35.05
    endloop
  endfacet
  facet normal 0 0 1
    outer loop
      vertex -8 13 35.05
      vertex -15.7458 3.34606 35.05
      vertex -14.8492 2.82843 35.05
    endloop
  endfacet
  facet normal 0 0 1
    outer loop
      vertex -8 13 35.05
      vertex -16.7811 3.34606 35.05
      vertex -15.7458 3.34606 35.05
    endloop
  endfacet
  facet normal 0 -0 1
    outer loop
      vertex -16.7811 3.34606 35.05
      vertex -8 13 35.05
      vertex -17.6777 2.82843 35.05
    endloop
  endfacet
  facet normal 0 0 1
    outer loop
      vertex 8.43353 12.3512 35.05
      vertex 8.83883 8.83883 35.05
      vertex 9.35647 7.94226 35.05
    endloop
  endfacet
  facet normal 0 0 1
    outer loop
      vertex 6.90698 9.35647 35.05
      vertex 8.43353 12.3512 35.05
      vertex 8 13 35.05
    endloop
  endfacet
  facet normal 0 0 1
    outer loop
      vertex 8.43353 12.3512 35.05
      vertex 7.94226 9.35647 35.05
      vertex 8.83883 8.83883 35.05
    endloop
  endfacet
  facet normal 0 0 1
    outer loop
      vertex 8.43353 12.3512 35.05
      vertex 6.90698 9.35647 35.05
      vertex 7.94226 9.35647 35.05
    endloop
  endfacet
  facet normal 0 0 1
    outer loop
      vertex 8 13 35.05
      vertex 6.01041 8.83883 35.05
      vertex 6.90698 9.35647 35.05
    endloop
  endfacet
  facet normal 0 0 1
    outer loop
      vertex 1.16573e-015 14.8492 35.05
      vertex 6.01041 8.83883 35.05
      vertex 8 13 35.05
    endloop
  endfacet
  facet normal 0 0 1
    outer loop
      vertex -1.93185 14.3316 35.05
      vertex 5.49277 6.90698 35.05
      vertex 5.49277 7.94226 35.05
    endloop
  endfacet
  facet normal 0 0 1
    outer loop
      vertex 5.49277 6.90698 35.05
      vertex 2.5 -4.33013 35.05
      vertex 4.33013 -2.5 35.05
    endloop
  endfacet
  facet normal -0 0 1
    outer loop
      vertex 0.517637 15.7458 35.05
      vertex 8 13 35.05
      vertex 3.2 17.8 35.05
    endloop
  endfacet
  facet normal -0 0 1
    outer loop
      vertex 1.16573e-015 14.8492 35.05
      vertex 8 13 35.05
      vertex 0.517637 15.7458 35.05
    endloop
  endfacet
  facet normal 0 0 1
    outer loop
      vertex 0.517637 15.7458 35.05
      vertex 3.2 17.8 35.05
      vertex 3.19988 17.8 35.05
    endloop
  endfacet
  facet normal -0 0 1
    outer loop
      vertex -0.896576 14.3316 35.05
      vertex 5.49277 7.94226 35.05
      vertex 1.16573e-015 14.8492 35.05
    endloop
  endfacet
  facet normal 0 0 1
    outer loop
      vertex 0.517637 15.7458 35.05
      vertex 3.19988 17.8 35.05
      vertex 0.517637 16.7811 35.05
    endloop
  endfacet
  facet normal 0 0 1
    outer loop
      vertex 3.19988 17.8 35.05
      vertex 1.38778e-015 17.6777 35.05
      vertex 0.517637 16.7811 35.05
    endloop
  endfacet
  facet normal 0 -0 1
    outer loop
      vertex 1.38778e-015 17.6777 35.05
      vertex 3.19988 17.8 35.05
      vertex -0.211882 17.8 35.05
    endloop
  endfacet
  facet normal -0 0 1
    outer loop
      vertex 8.83883 6.01041 35.05
      vertex 4.33013 -2.5 35.05
      vertex 9.35647 6.90698 35.05
    endloop
  endfacet
  facet normal -0 0 1
    outer loop
      vertex 7.94226 5.49277 35.05
      vertex 4.33013 -2.5 35.05
      vertex 8.83883 6.01041 35.05
    endloop
  endfacet
  facet normal 0 0 1
    outer loop
      vertex 6.90698 5.49277 35.05
      vertex 4.33013 -2.5 35.05
      vertex 7.94226 5.49277 35.05
    endloop
  endfacet
  facet normal 0 0 1
    outer loop
      vertex 6.01041 6.01041 35.05
      vertex 4.33013 -2.5 35.05
      vertex 6.90698 5.49277 35.05
    endloop
  endfacet
  facet normal 0 0 1
    outer loop
      vertex 4.33013 -2.5 35.05
      vertex 6.01041 6.01041 35.05
      vertex 5.49277 6.90698 35.05
    endloop
  endfacet
  facet normal 0 0 1
    outer loop
      vertex 6.01041 8.83883 35.05
      vertex 1.16573e-015 14.8492 35.05
      vertex 5.49277 7.94226 35.05
    endloop
  endfacet
  facet normal 0 0 1
    outer loop
      vertex -1.93185 14.3316 35.05
      vertex 5.49277 7.94226 35.05
      vertex -0.896576 14.3316 35.05
    endloop
  endfacet
  facet normal 0 0 1
    outer loop
      vertex 5.49277 6.90698 35.05
      vertex -1.93185 14.3316 35.05
      vertex 2.5 -4.33013 35.05
    endloop
  endfacet
  facet normal 0 0 1
    outer loop
      vertex 4.33013 -2.5 35.05
      vertex 2.5 -4.33013 35.05
      vertex 3.53553 -3.53553 35.05
    endloop
  endfacet
  facet normal 0 0 1
    outer loop
      vertex -5.49277 -7.94226 35.05
      vertex -1.93185 14.3316 35.05
      vertex -2.82843 14.8492 35.05
    endloop
  endfacet
  facet normal 0 0 1
    outer loop
      vertex -5.49277 -7.94226 35.05
      vertex -2.82843 14.8492 35.05
      vertex -3.34606 15.7458 35.05
    endloop
  endfacet
  facet normal 0 0 1
    outer loop
      vertex -1.93185 14.3316 35.05
      vertex -5.49277 -7.94226 35.05
      vertex 2.5 -4.33013 35.05
    endloop
  endfacet
  facet normal 0 0 1
    outer loop
      vertex -6.01041 -8.83883 35.05
      vertex 2.5 -4.33013 35.05
      vertex -5.49277 -7.94226 35.05
    endloop
  endfacet
  facet normal 0 0 1
    outer loop
      vertex 2.5 -4.33013 35.05
      vertex -6.01041 -8.83883 35.05
      vertex -6.90698 -9.35647 35.05
    endloop
  endfacet
  facet normal -0 0 1
    outer loop
      vertex -15.7458 -0.517637 35.05
      vertex -9.35647 -6.90698 35.05
      vertex -14.8492 1.16573e-015 35.05
    endloop
  endfacet
  facet normal 0 0 1
    outer loop
      vertex -9.35647 -6.90698 35.05
      vertex -15.7458 -0.517637 35.05
      vertex -9.35647 -7.94226 35.05
    endloop
  endfacet
  facet normal -0 0 1
    outer loop
      vertex -16.7811 -0.517637 35.05
      vertex -9.35647 -7.94226 35.05
      vertex -15.7458 -0.517637 35.05
    endloop
  endfacet
  facet normal 0 0 1
    outer loop
      vertex -9.35647 -7.94226 35.05
      vertex -16.7811 -0.517637 35.05
      vertex -8.83883 -8.83883 35.05
    endloop
  endfacet
  facet normal 0 0 1
    outer loop
      vertex -8.83883 -8.83883 35.05
      vertex -16.7811 -0.517637 35.05
      vertex -17.6777 -6.17058e-009 35.05
    endloop
  endfacet
  facet normal 0.956925 -0.284672 -0.0570637
    outer loop
      vertex 9.35647 6.90698 35
      vertex 4.82963 -1.2941 0
      vertex 8.43353 10.8204 0
    endloop
  endfacet
  facet normal 0.97967 -0.194883 -0.0476239
    outer loop
      vertex 9.35647 6.90698 35
      vertex 8.43353 10.8204 0
      vertex 8.58578 11.5858 0
    endloop
  endfacet
  facet normal 0.707106 0.707108 -0
    outer loop
      vertex 8 13 0
      vertex 3.2 17.8 35.05
      vertex 8 13 35.05
    endloop
  endfacet
  facet normal 0.707106 0.707108 0
    outer loop
      vertex 3.2 17.8 35.05
      vertex 8 13 0
      vertex 3.2 17.8 0
    endloop
  endfacet
  facet normal 0.831478 0.555557 0
    outer loop
      vertex 8.43353 12.3512 35.05
      vertex 8 13 0
      vertex 8 13 35.05
    endloop
  endfacet
  facet normal 0.831478 0.555557 0
    outer loop
      vertex 8 13 0
      vertex 8.43353 12.3512 35.05
      vertex 8.43353 12.3512 0
    endloop
  endfacet
  facet normal 0.793353 -0.608761 0
    outer loop
      vertex 3.53553 -3.53553 35.05
      vertex 4.33013 -2.5 0
      vertex 4.33013 -2.5 35.05
    endloop
  endfacet
  facet normal 0.793353 -0.608761 0
    outer loop
      vertex 4.33013 -2.5 0
      vertex 3.53553 -3.53553 35.05
      vertex 3.53553 -3.53553 0
    endloop
  endfacet
  facet normal 0.608761 -0.793353 0
    outer loop
      vertex 2.5 -4.33013 0
      vertex 3.53553 -3.53553 35.05
      vertex 2.5 -4.33013 35.05
    endloop
  endfacet
  facet normal 0.608761 -0.793353 0
    outer loop
      vertex 3.53553 -3.53553 35.05
      vertex 2.5 -4.33013 0
      vertex 3.53553 -3.53553 0
    endloop
  endfacet
  facet normal -0.958779 0.190727 -0.210632
    outer loop
      vertex -8.58578 11.5858 0
      vertex -18.1953 1.93185 35
      vertex -8.43353 12.3512 0
    endloop
  endfacet
  facet normal -0.830742 -0.479618 -0.28255
    outer loop
      vertex -16.4797 0.476294 30.6692
      vertex -17.6777 0 35
      vertex -16.8967 0.36455 32.085
    endloop
  endfacet
  facet normal -0.830738 -0.479626 -0.28255
    outer loop
      vertex -17.6777 0 35
      vertex -16.4797 0.476294 30.6692
      vertex -4.33013 -2.5 0
    endloop
  endfacet
  facet normal -0.830737 -0.479626 -0.28255
    outer loop
      vertex -17.6777 0 35
      vertex -17.18 0.647857 32.4371
      vertex -16.8967 0.36455 32.085
    endloop
  endfacet
  facet normal -0.830738 -0.479625 -0.28255
    outer loop
      vertex -17.18 0.647857 32.4371
      vertex -17.6777 0 35
      vertex -18.1953 0.896575 35
    endloop
  endfacet
  facet normal 0.923469 -0.382513 -0.0298108
    outer loop
      vertex 9.35647 6.90698 35
      vertex 4.33013 -2.5 0
      vertex 4.82963 -1.2941 0
    endloop
  endfacet
  facet normal 0.0961322 0.995369 0
    outer loop
      vertex 3.2 17.8 35.05
      vertex 3.19988 17.8 0.00101322
      vertex 3.19988 17.8 35.05
    endloop
  endfacet
  facet normal 0.0961322 0.995369 0
    outer loop
      vertex 3.19988 17.8 0.00101322
      vertex 3.2 17.8 35.05
      vertex 3.2 17.8 0
    endloop
  endfacet
  facet normal 9.19106e-007 0.999936 -0.011294
    outer loop
      vertex 3.2 17.8 0
      vertex 3.19985 17.8 0.00101322
      vertex 3.19988 17.8 0.00101322
    endloop
  endfacet
  facet normal 0.978784 0.204895 -0
    outer loop
      vertex 9.35647 7.94226 35
      vertex 8.43353 12.3512 35.05
      vertex 9.35647 7.94226 35.05
    endloop
  endfacet
  facet normal 0.978784 0.204895 0
    outer loop
      vertex 8.43353 12.3512 35.05
      vertex 9.35647 7.94226 35
      vertex 8.43353 12.3512 0
    endloop
  endfacet
  facet normal -0.129024 -0.980037 -0.151264
    outer loop
      vertex 0 -5 0
      vertex -7.94226 -9.35647 35
      vertex -1.2941 -4.82963 0
    endloop
  endfacet
  facet normal 0.382513 -0.923469 -0.0298108
    outer loop
      vertex 2.5 -4.33013 0
      vertex -6.90698 -9.35647 35
      vertex 1.2941 -4.82963 0
    endloop
  endfacet
  facet normal 0.471266 -0.881991 0
    outer loop
      vertex -6.90698 -9.35647 35
      vertex 2.5 -4.33013 35.05
      vertex -6.90698 -9.35647 35.05
    endloop
  endfacet
  facet normal 0.471266 -0.881991 0
    outer loop
      vertex 2.5 -4.33013 35.05
      vertex -6.90698 -9.35647 35
      vertex 2.5 -4.33013 0
    endloop
  endfacet
  facet normal -0.829537 0.55426 -0.0682939
    outer loop
      vertex -8.43353 12.3512 0
      vertex -17.6777 2.82843 35
      vertex -8 13 0
    endloop
  endfacet
  facet normal -0.862329 0.497865 -0.0922988
    outer loop
      vertex -8.43353 12.3512 0
      vertex -18.1953 1.93185 35
      vertex -17.6777 2.82843 35
    endloop
  endfacet
  facet normal 0.999758 0 -0.0220143
    outer loop
      vertex 9.35647 6.90698 35
      vertex 8.58578 11.5858 0
      vertex 9.35647 7.94226 35
    endloop
  endfacet
  facet normal 0.980782 0.195104 -0.00128594
    outer loop
      vertex 8.58578 11.5858 0
      vertex 8.43353 12.3512 0
      vertex 9.35647 7.94226 35
    endloop
  endfacet
  facet normal -0 -0.992342 -0.123517
    outer loop
      vertex -6.90698 -9.35647 35
      vertex -7.94226 -9.35647 35
      vertex 0 -5 0
    endloop
  endfacet
  facet normal 0.129908 -0.986752 -0.0971852
    outer loop
      vertex 1.2941 -4.82963 0
      vertex -6.90698 -9.35647 35
      vertex 0 -5 0
    endloop
  endfacet
  facet normal 0.980785 0 -0.195091
    outer loop
      vertex -1.67338 7.55 18.1931
      vertex -1.81125 14.3 17.5
      vertex -1.67338 14.3 18.1931
    endloop
  endfacet
  facet normal 0.980785 0 -0.195091
    outer loop
      vertex -1.81125 14.3 17.5
      vertex -1.67338 7.55 18.1931
      vertex -1.81125 7.55 17.5
    endloop
  endfacet
  facet normal 0.980785 0 -0.195091
    outer loop
      vertex -1.67338 16.8 18.1931
      vertex -1.81125 17.8 17.5
      vertex -1.67338 17.8 18.1931
    endloop
  endfacet
  facet normal 0.980785 0 -0.195091
    outer loop
      vertex -1.81125 17.8 17.5
      vertex -1.67338 16.8 18.1931
      vertex -1.81125 16.8 17.5
    endloop
  endfacet
  facet normal -0.980785 0 0.195091
    outer loop
      vertex 1.67338 7.55 16.8069
      vertex 1.81125 14.3 17.5
      vertex 1.67338 14.3 16.8069
    endloop
  endfacet
  facet normal -0.980785 0 0.195091
    outer loop
      vertex 1.81125 14.3 17.5
      vertex 1.67338 7.55 16.8069
      vertex 1.81125 7.55 17.5
    endloop
  endfacet
  facet normal -0.980785 0 0.195091
    outer loop
      vertex 1.67338 16.8 16.8069
      vertex 1.81125 17.8 17.5
      vertex 1.67338 17.8 16.8069
    endloop
  endfacet
  facet normal -0.980785 0 0.195091
    outer loop
      vertex 1.81125 17.8 17.5
      vertex 1.67338 16.8 16.8069
      vertex 1.81125 16.8 17.5
    endloop
  endfacet
  facet normal 0 0 -1
    outer loop
      vertex -0.693135 7.55 19.3112
      vertex 0.693135 14.3 19.3112
      vertex 0.693135 7.55 19.3112
    endloop
  endfacet
  facet normal -0 0 -1
    outer loop
      vertex 0.693135 14.3 19.3112
      vertex -0.693135 7.55 19.3112
      vertex -0.693135 14.3 19.3112
    endloop
  endfacet
  facet normal 0 0 -1
    outer loop
      vertex -0.693135 16.8 19.3112
      vertex 0.693135 17.8 19.3112
      vertex 0.693135 16.8 19.3112
    endloop
  endfacet
  facet normal -0 0 -1
    outer loop
      vertex 0.693135 17.8 19.3112
      vertex -0.693135 16.8 19.3112
      vertex -0.693135 17.8 19.3112
    endloop
  endfacet
  facet normal 0.83147 0 -0.55557
    outer loop
      vertex -1.28075 7.55 18.7807
      vertex -1.67338 14.3 18.1931
      vertex -1.28075 14.3 18.7807
    endloop
  endfacet
  facet normal 0.83147 0 -0.55557
    outer loop
      vertex -1.67338 14.3 18.1931
      vertex -1.28075 7.55 18.7807
      vertex -1.67338 7.55 18.1931
    endloop
  endfacet
  facet normal 0.83147 0 -0.55557
    outer loop
      vertex -1.28075 16.8 18.7807
      vertex -1.67338 17.8 18.1931
      vertex -1.28075 17.8 18.7807
    endloop
  endfacet
  facet normal 0.83147 0 -0.55557
    outer loop
      vertex -1.67338 17.8 18.1931
      vertex -1.28075 16.8 18.7807
      vertex -1.67338 16.8 18.1931
    endloop
  endfacet
  facet normal -0.670117 0 -0.742255
    outer loop
      vertex 0.693135 7.55 19.3112
      vertex 1.28075 14.3 18.7807
      vertex 1.28075 7.55 18.7807
    endloop
  endfacet
  facet normal -0.670117 0 -0.742255
    outer loop
      vertex 1.28075 14.3 18.7807
      vertex 0.693135 7.55 19.3112
      vertex 0.693135 14.3 19.3112
    endloop
  endfacet
  facet normal -0.670117 0 -0.742255
    outer loop
      vertex 0.693135 16.8 19.3112
      vertex 1.28075 17.8 18.7807
      vertex 1.28075 16.8 18.7807
    endloop
  endfacet
  facet normal -0.670117 0 -0.742255
    outer loop
      vertex 1.28075 17.8 18.7807
      vertex 0.693135 16.8 19.3112
      vertex 0.693135 17.8 19.3112
    endloop
  endfacet
  facet normal -0.980785 0 -0.195091
    outer loop
      vertex 1.81125 7.55 17.5
      vertex 1.67338 14.3 18.1931
      vertex 1.81125 14.3 17.5
    endloop
  endfacet
  facet normal -0.980785 -0 -0.195091
    outer loop
      vertex 1.67338 14.3 18.1931
      vertex 1.81125 7.55 17.5
      vertex 1.67338 7.55 18.1931
    endloop
  endfacet
  facet normal -0.980785 0 -0.195091
    outer loop
      vertex 1.81125 16.8 17.5
      vertex 1.67338 17.8 18.1931
      vertex 1.81125 17.8 17.5
    endloop
  endfacet
  facet normal -0.980785 -0 -0.195091
    outer loop
      vertex 1.67338 17.8 18.1931
      vertex 1.81125 16.8 17.5
      vertex 1.67338 16.8 18.1931
    endloop
  endfacet
  facet normal -0.83147 0 -0.55557
    outer loop
      vertex 1.67338 7.55 18.1931
      vertex 1.28075 14.3 18.7807
      vertex 1.67338 14.3 18.1931
    endloop
  endfacet
  facet normal -0.83147 -0 -0.55557
    outer loop
      vertex 1.28075 14.3 18.7807
      vertex 1.67338 7.55 18.1931
      vertex 1.28075 7.55 18.7807
    endloop
  endfacet
  facet normal -0.83147 0 -0.55557
    outer loop
      vertex 1.67338 16.8 18.1931
      vertex 1.28075 17.8 18.7807
      vertex 1.67338 17.8 18.1931
    endloop
  endfacet
  facet normal -0.83147 -0 -0.55557
    outer loop
      vertex 1.28075 17.8 18.7807
      vertex 1.67338 16.8 18.1931
      vertex 1.28075 16.8 18.7807
    endloop
  endfacet
  facet normal 0.980785 -0 0.195091
    outer loop
      vertex -1.81125 7.55 17.5
      vertex -1.67338 14.3 16.8069
      vertex -1.81125 14.3 17.5
    endloop
  endfacet
  facet normal 0.980785 0 0.195091
    outer loop
      vertex -1.67338 14.3 16.8069
      vertex -1.81125 7.55 17.5
      vertex -1.67338 7.55 16.8069
    endloop
  endfacet
  facet normal 0.980785 -0 0.195091
    outer loop
      vertex -1.81125 16.8 17.5
      vertex -1.67338 17.8 16.8069
      vertex -1.81125 17.8 17.5
    endloop
  endfacet
  facet normal 0.980785 0 0.195091
    outer loop
      vertex -1.67338 17.8 16.8069
      vertex -1.81125 16.8 17.5
      vertex -1.67338 16.8 16.8069
    endloop
  endfacet
  facet normal 0.670117 0 -0.742255
    outer loop
      vertex -1.28075 7.55 18.7807
      vertex -0.693135 14.3 19.3112
      vertex -0.693135 7.55 19.3112
    endloop
  endfacet
  facet normal 0.670117 0 -0.742255
    outer loop
      vertex -0.693135 14.3 19.3112
      vertex -1.28075 7.55 18.7807
      vertex -1.28075 14.3 18.7807
    endloop
  endfacet
  facet normal 0.670117 0 -0.742255
    outer loop
      vertex -1.28075 16.8 18.7807
      vertex -0.693135 17.8 19.3112
      vertex -0.693135 16.8 19.3112
    endloop
  endfacet
  facet normal 0.670117 0 -0.742255
    outer loop
      vertex -0.693135 17.8 19.3112
      vertex -1.28075 16.8 18.7807
      vertex -1.28075 17.8 18.7807
    endloop
  endfacet
  facet normal 0.555571 0 0.831469
    outer loop
      vertex -1.28075 14.3 16.2193
      vertex -0.693135 7.55 15.8266
      vertex -0.693135 14.3 15.8266
    endloop
  endfacet
  facet normal 0.555571 0 0.831469
    outer loop
      vertex -0.693135 7.55 15.8266
      vertex -1.28075 14.3 16.2193
      vertex -1.28075 7.55 16.2193
    endloop
  endfacet
  facet normal 0.555571 0 0.831469
    outer loop
      vertex -1.28075 17.8 16.2193
      vertex -0.693135 16.8 15.8266
      vertex -0.693135 17.8 15.8266
    endloop
  endfacet
  facet normal 0.555571 0 0.831469
    outer loop
      vertex -0.693135 16.8 15.8266
      vertex -1.28075 17.8 16.2193
      vertex -1.28075 16.8 16.2193
    endloop
  endfacet
  facet normal 0.83147 -0 0.55557
    outer loop
      vertex -1.67338 7.55 16.8069
      vertex -1.28075 14.3 16.2193
      vertex -1.67338 14.3 16.8069
    endloop
  endfacet
  facet normal 0.83147 0 0.55557
    outer loop
      vertex -1.28075 14.3 16.2193
      vertex -1.67338 7.55 16.8069
      vertex -1.28075 7.55 16.2193
    endloop
  endfacet
  facet normal 0.83147 -0 0.55557
    outer loop
      vertex -1.67338 16.8 16.8069
      vertex -1.28075 17.8 16.2193
      vertex -1.67338 17.8 16.8069
    endloop
  endfacet
  facet normal 0.83147 0 0.55557
    outer loop
      vertex -1.28075 17.8 16.2193
      vertex -1.67338 16.8 16.8069
      vertex -1.28075 16.8 16.2193
    endloop
  endfacet
  facet normal -0.555571 0 0.831469
    outer loop
      vertex 0.693135 14.3 15.8266
      vertex 1.28075 7.55 16.2193
      vertex 1.28075 14.3 16.2193
    endloop
  endfacet
  facet normal -0.555571 0 0.831469
    outer loop
      vertex 1.28075 7.55 16.2193
      vertex 0.693135 14.3 15.8266
      vertex 0.693135 7.55 15.8266
    endloop
  endfacet
  facet normal -0.555571 0 0.831469
    outer loop
      vertex 0.693135 17.8 15.8266
      vertex 1.28075 16.8 16.2193
      vertex 1.28075 17.8 16.2193
    endloop
  endfacet
  facet normal -0.555571 0 0.831469
    outer loop
      vertex 1.28075 16.8 16.2193
      vertex 0.693135 17.8 15.8266
      vertex 0.693135 16.8 15.8266
    endloop
  endfacet
  facet normal 0.195091 0 0.980785
    outer loop
      vertex -0.693135 14.3 15.8266
      vertex 0 7.55 15.6888
      vertex 0 14.3 15.6888
    endloop
  endfacet
  facet normal 0.195091 0 0.980785
    outer loop
      vertex 0 7.55 15.6888
      vertex -0.693135 14.3 15.8266
      vertex -0.693135 7.55 15.8266
    endloop
  endfacet
  facet normal 0.195091 0 0.980785
    outer loop
      vertex -0.693135 17.8 15.8266
      vertex 0 16.8 15.6888
      vertex 0 17.8 15.6888
    endloop
  endfacet
  facet normal 0.195091 0 0.980785
    outer loop
      vertex 0 16.8 15.6888
      vertex -0.693135 17.8 15.8266
      vertex -0.693135 16.8 15.8266
    endloop
  endfacet
  facet normal -0.195091 0 0.980785
    outer loop
      vertex 0 14.3 15.6888
      vertex 0.693135 7.55 15.8266
      vertex 0.693135 14.3 15.8266
    endloop
  endfacet
  facet normal -0.195091 0 0.980785
    outer loop
      vertex 0.693135 7.55 15.8266
      vertex 0 14.3 15.6888
      vertex 0 7.55 15.6888
    endloop
  endfacet
  facet normal -0.195091 0 0.980785
    outer loop
      vertex 0 17.8 15.6888
      vertex 0.693135 16.8 15.8266
      vertex 0.693135 17.8 15.8266
    endloop
  endfacet
  facet normal -0.195091 0 0.980785
    outer loop
      vertex 0.693135 16.8 15.8266
      vertex 0 17.8 15.6888
      vertex 0 16.8 15.6888
    endloop
  endfacet
  facet normal -0.83147 0 0.55557
    outer loop
      vertex 1.28075 7.55 16.2193
      vertex 1.67338 14.3 16.8069
      vertex 1.28075 14.3 16.2193
    endloop
  endfacet
  facet normal -0.83147 0 0.55557
    outer loop
      vertex 1.67338 14.3 16.8069
      vertex 1.28075 7.55 16.2193
      vertex 1.67338 7.55 16.8069
    endloop
  endfacet
  facet normal -0.83147 0 0.55557
    outer loop
      vertex 1.28075 16.8 16.2193
      vertex 1.67338 17.8 16.8069
      vertex 1.28075 17.8 16.2193
    endloop
  endfacet
  facet normal -0.83147 0 0.55557
    outer loop
      vertex 1.67338 17.8 16.8069
      vertex 1.28075 16.8 16.2193
      vertex 1.67338 16.8 16.8069
    endloop
  endfacet
  facet normal -6.87942e-007 1 -2.55968e-006
    outer loop
      vertex 1.28075 7.55 18.7807
      vertex -0.693135 7.55 19.3112
      vertex 0.693135 7.55 19.3112
    endloop
  endfacet
  facet normal 0 1 0
    outer loop
      vertex 1.28075 7.55 18.7807
      vertex -1.28075 7.55 18.7807
      vertex -0.693135 7.55 19.3112
    endloop
  endfacet
  facet normal 0 1 0
    outer loop
      vertex 1.67338 7.55 18.1931
      vertex -1.28075 7.55 18.7807
      vertex 1.28075 7.55 18.7807
    endloop
  endfacet
  facet normal 0 1 0
    outer loop
      vertex 1.67338 7.55 18.1931
      vertex -1.67338 7.55 18.1931
      vertex -1.28075 7.55 18.7807
    endloop
  endfacet
  facet normal 0 1 0
    outer loop
      vertex 1.81125 7.55 17.5
      vertex -1.67338 7.55 18.1931
      vertex 1.67338 7.55 18.1931
    endloop
  endfacet
  facet normal 0 1 0
    outer loop
      vertex 1.81125 7.55 17.5
      vertex -1.81125 7.55 17.5
      vertex -1.67338 7.55 18.1931
    endloop
  endfacet
  facet normal 0 1 -0
    outer loop
      vertex 1.67338 7.55 16.8069
      vertex -1.81125 7.55 17.5
      vertex 1.81125 7.55 17.5
    endloop
  endfacet
  facet normal 0 1 0
    outer loop
      vertex 1.67338 7.55 16.8069
      vertex -1.67338 7.55 16.8069
      vertex -1.81125 7.55 17.5
    endloop
  endfacet
  facet normal 0 1 -0
    outer loop
      vertex 1.28075 7.55 16.2193
      vertex -1.67338 7.55 16.8069
      vertex 1.67338 7.55 16.8069
    endloop
  endfacet
  facet normal 0 1 0
    outer loop
      vertex 1.28075 7.55 16.2193
      vertex -1.28075 7.55 16.2193
      vertex -1.67338 7.55 16.8069
    endloop
  endfacet
  facet normal 0 1 -0
    outer loop
      vertex 0.693135 7.55 15.8266
      vertex -1.28075 7.55 16.2193
      vertex 1.28075 7.55 16.2193
    endloop
  endfacet
  facet normal 0 1 0
    outer loop
      vertex 0.693135 7.55 15.8266
      vertex -0.693135 7.55 15.8266
      vertex -1.28075 7.55 16.2193
    endloop
  endfacet
  facet normal -0 1 0
    outer loop
      vertex -0.693135 7.55 15.8266
      vertex 0.693135 7.55 15.8266
      vertex 0 7.55 15.6888
    endloop
  endfacet
  facet normal 0 1 0
    outer loop
      vertex 3.105 14.3 24.5
      vertex -1.5525 14.3 27.189
      vertex 1.5525 14.3 27.189
    endloop
  endfacet
  facet normal 0 1 0
    outer loop
      vertex 3.105 14.3 24.5
      vertex -3.105 14.3 24.5
      vertex -1.5525 14.3 27.189
    endloop
  endfacet
  facet normal 0 1 0
    outer loop
      vertex 3.105 14.3 24.5
      vertex 0.693135 14.3 19.3112
      vertex -3.105 14.3 24.5
    endloop
  endfacet
  facet normal 0 1 0
    outer loop
      vertex 3.105 14.3 24.5
      vertex 1.28075 14.3 18.7807
      vertex 0.693135 14.3 19.3112
    endloop
  endfacet
  facet normal 0 1 -0
    outer loop
      vertex 3.105 14.3 17.5
      vertex 1.28075 14.3 18.7807
      vertex 3.105 14.3 24.5
    endloop
  endfacet
  facet normal 0 1 0
    outer loop
      vertex 1.28075 14.3 18.7807
      vertex 3.105 14.3 17.5
      vertex 1.67338 14.3 18.1931
    endloop
  endfacet
  facet normal 0 1 0
    outer loop
      vertex 3.105 14.3 17.5
      vertex 1.81125 14.3 17.5
      vertex 1.67338 14.3 18.1931
    endloop
  endfacet
  facet normal 0 1 0
    outer loop
      vertex 3.105 14.3 17.5
      vertex 1.67338 14.3 16.8069
      vertex 1.81125 14.3 17.5
    endloop
  endfacet
  facet normal 0 1 0
    outer loop
      vertex 1.5525 14.3 14.811
      vertex 1.67338 14.3 16.8069
      vertex 3.105 14.3 17.5
    endloop
  endfacet
  facet normal 0 1 0
    outer loop
      vertex 0.693135 14.3 15.8266
      vertex 1.5525 14.3 14.811
      vertex 0 14.3 15.6888
    endloop
  endfacet
  facet normal 0 1 0
    outer loop
      vertex 1.28075 14.3 16.2193
      vertex 1.5525 14.3 14.811
      vertex 0.693135 14.3 15.8266
    endloop
  endfacet
  facet normal 0 1 0
    outer loop
      vertex 1.67338 14.3 16.8069
      vertex 1.5525 14.3 14.811
      vertex 1.28075 14.3 16.2193
    endloop
  endfacet
  facet normal 0 1 -0
    outer loop
      vertex -0.693135 14.3 19.3112
      vertex -3.105 14.3 24.5
      vertex 0.693135 14.3 19.3112
    endloop
  endfacet
  facet normal 0 1 -0
    outer loop
      vertex -1.28075 14.3 18.7807
      vertex -3.105 14.3 24.5
      vertex -0.693135 14.3 19.3112
    endloop
  endfacet
  facet normal 0 1 0
    outer loop
      vertex -3.105 14.3 17.5
      vertex -1.28075 14.3 18.7807
      vertex -1.67338 14.3 18.1931
    endloop
  endfacet
  facet normal 0 1 0
    outer loop
      vertex -3.105 14.3 17.5
      vertex -1.67338 14.3 18.1931
      vertex -1.81125 14.3 17.5
    endloop
  endfacet
  facet normal 0 1 0
    outer loop
      vertex -1.28075 14.3 18.7807
      vertex -3.105 14.3 17.5
      vertex -3.105 14.3 24.5
    endloop
  endfacet
  facet normal 0 1 0
    outer loop
      vertex -1.67338 14.3 16.8069
      vertex -3.105 14.3 17.5
      vertex -1.81125 14.3 17.5
    endloop
  endfacet
  facet normal 0 1 -0
    outer loop
      vertex -1.5525 14.3 14.811
      vertex -1.67338 14.3 16.8069
      vertex -1.28075 14.3 16.2193
    endloop
  endfacet
  facet normal 0 1 0
    outer loop
      vertex -1.5525 14.3 14.811
      vertex 0 14.3 15.6888
      vertex 1.5525 14.3 14.811
    endloop
  endfacet
  facet normal 0 1 0
    outer loop
      vertex -1.67338 14.3 16.8069
      vertex -1.5525 14.3 14.811
      vertex -3.105 14.3 17.5
    endloop
  endfacet
  facet normal 0 1 0
    outer loop
      vertex -0.693135 14.3 15.8266
      vertex -1.5525 14.3 14.811
      vertex -1.28075 14.3 16.2193
    endloop
  endfacet
  facet normal 0 1 0
    outer loop
      vertex 0 14.3 15.6888
      vertex -1.5525 14.3 14.811
      vertex -0.693135 14.3 15.8266
    endloop
  endfacet
  facet normal -0.866025 0 0.5
    outer loop
      vertex 1.5525 14.3 14.811
      vertex 3.105 16.8 17.5
      vertex 1.5525 16.8 14.811
    endloop
  endfacet
  facet normal -0.866025 0 0.5
    outer loop
      vertex 3.105 16.8 17.5
      vertex 1.5525 14.3 14.811
      vertex 3.105 14.3 17.5
    endloop
  endfacet
  facet normal -0 0 1
    outer loop
      vertex -1.5525 16.8 14.811
      vertex 1.5525 14.3 14.811
      vertex 1.5525 16.8 14.811
    endloop
  endfacet
  facet normal 0 0 1
    outer loop
      vertex 1.5525 14.3 14.811
      vertex -1.5525 16.8 14.811
      vertex -1.5525 14.3 14.811
    endloop
  endfacet
  facet normal 0 -1 0
    outer loop
      vertex -1.5525 16.8 21.811
      vertex -0.693135 16.8 19.3112
      vertex 1.5525 16.8 21.811
    endloop
  endfacet
  facet normal 0 -1 0
    outer loop
      vertex -3.105 16.8 17.5
      vertex -1.5525 16.8 21.811
      vertex -3.105 16.8 24.5
    endloop
  endfacet
  facet normal 0 -1 0
    outer loop
      vertex -1.5525 16.8 21.811
      vertex -1.28075 16.8 18.7807
      vertex -0.693135 16.8 19.3112
    endloop
  endfacet
  facet normal 0 -1 -0
    outer loop
      vertex -1.5525 16.8 21.811
      vertex -3.105 16.8 17.5
      vertex -1.28075 16.8 18.7807
    endloop
  endfacet
  facet normal 0 -1 0
    outer loop
      vertex -1.28075 16.8 18.7807
      vertex -3.105 16.8 17.5
      vertex -1.67338 16.8 18.1931
    endloop
  endfacet
  facet normal 0 -1 0
    outer loop
      vertex -3.105 16.8 17.5
      vertex -1.81125 16.8 17.5
      vertex -1.67338 16.8 18.1931
    endloop
  endfacet
  facet normal 0 -1 0
    outer loop
      vertex -3.105 16.8 17.5
      vertex -1.67338 16.8 16.8069
      vertex -1.81125 16.8 17.5
    endloop
  endfacet
  facet normal 0 -1 0
    outer loop
      vertex -1.5525 16.8 14.811
      vertex -1.67338 16.8 16.8069
      vertex -3.105 16.8 17.5
    endloop
  endfacet
  facet normal 0 -1 -0
    outer loop
      vertex -0.693135 16.8 15.8266
      vertex -1.5525 16.8 14.811
      vertex 0 16.8 15.6888
    endloop
  endfacet
  facet normal 0 -1 -0
    outer loop
      vertex -1.28075 16.8 16.2193
      vertex -1.5525 16.8 14.811
      vertex -0.693135 16.8 15.8266
    endloop
  endfacet
  facet normal 0 -1 0
    outer loop
      vertex -1.67338 16.8 16.8069
      vertex -1.5525 16.8 14.811
      vertex -1.28075 16.8 16.2193
    endloop
  endfacet
  facet normal 0 -1 0
    outer loop
      vertex 0.693135 16.8 19.3112
      vertex 1.5525 16.8 21.811
      vertex -0.693135 16.8 19.3112
    endloop
  endfacet
  facet normal 0 -1 0
    outer loop
      vertex 1.28075 16.8 18.7807
      vertex 1.5525 16.8 21.811
      vertex 0.693135 16.8 19.3112
    endloop
  endfacet
  facet normal 0 -1 0
    outer loop
      vertex 3.105 16.8 17.5
      vertex 1.5525 16.8 21.811
      vertex 1.28075 16.8 18.7807
    endloop
  endfacet
  facet normal 0 -1 0
    outer loop
      vertex 3.105 16.8 17.5
      vertex 1.28075 16.8 18.7807
      vertex 1.67338 16.8 18.1931
    endloop
  endfacet
  facet normal 0 -1 0
    outer loop
      vertex 3.105 16.8 17.5
      vertex 1.67338 16.8 18.1931
      vertex 1.81125 16.8 17.5
    endloop
  endfacet
  facet normal 0 -1 0
    outer loop
      vertex 1.5525 16.8 21.811
      vertex 3.105 16.8 17.5
      vertex 3.105 16.8 24.5
    endloop
  endfacet
  facet normal 0 -1 0
    outer loop
      vertex 1.67338 16.8 16.8069
      vertex 3.105 16.8 17.5
      vertex 1.81125 16.8 17.5
    endloop
  endfacet
  facet normal 0 -1 0
    outer loop
      vertex 1.5525 16.8 14.811
      vertex 1.67338 16.8 16.8069
      vertex 1.28075 16.8 16.2193
    endloop
  endfacet
  facet normal 0 -1 0
    outer loop
      vertex 1.5525 16.8 14.811
      vertex 0 16.8 15.6888
      vertex -1.5525 16.8 14.811
    endloop
  endfacet
  facet normal 0 -1 -0
    outer loop
      vertex 1.67338 16.8 16.8069
      vertex 1.5525 16.8 14.811
      vertex 3.105 16.8 17.5
    endloop
  endfacet
  facet normal 0 -1 0
    outer loop
      vertex 0.693135 16.8 15.8266
      vertex 1.5525 16.8 14.811
      vertex 1.28075 16.8 16.2193
    endloop
  endfacet
  facet normal 0 -1 0
    outer loop
      vertex 0 16.8 15.6888
      vertex 1.5525 16.8 14.811
      vertex 0.693135 16.8 15.8266
    endloop
  endfacet
  facet normal 0.866025 -0 0.5
    outer loop
      vertex -3.105 14.3 17.5
      vertex -1.5525 16.8 14.811
      vertex -3.105 16.8 17.5
    endloop
  endfacet
  facet normal 0.866025 0 0.5
    outer loop
      vertex -1.5525 16.8 14.811
      vertex -3.105 14.3 17.5
      vertex -1.5525 14.3 14.811
    endloop
  endfacet
  facet normal 1 0 0
    outer loop
      vertex -3.105 17.8 28
      vertex -3.105 16.8 24.5
      vertex -3.105 17.8 24.5
    endloop
  endfacet
  facet normal 1 0 0
    outer loop
      vertex -3.105 14.3 24.5
      vertex -3.105 16.8 24.5
      vertex -3.105 17.8 28
    endloop
  endfacet
  facet normal 1 -0 0
    outer loop
      vertex -3.105 14.3 24.5
      vertex -3.105 16.8 17.5
      vertex -3.105 16.8 24.5
    endloop
  endfacet
  facet normal 1 0 0
    outer loop
      vertex -3.105 16.8 17.5
      vertex -3.105 14.3 24.5
      vertex -3.105 14.3 17.5
    endloop
  endfacet
  facet normal -1 0 0
    outer loop
      vertex 3.105 16.8 17.5
      vertex 3.105 14.3 17.5
      vertex 3.105 16.8 24.5
    endloop
  endfacet
  facet normal -1 0 0
    outer loop
      vertex 3.105 16.8 24.5
      vertex 3.105 17.8 28
      vertex 3.105 17.8 24.5
    endloop
  endfacet
  facet normal -1 0 0
    outer loop
      vertex 3.105 14.3 24.5
      vertex 3.105 16.8 24.5
      vertex 3.105 14.3 17.5
    endloop
  endfacet
  facet normal -1 0 0
    outer loop
      vertex 3.105 16.8 24.5
      vertex 3.105 14.3 24.5
      vertex 3.105 17.8 28
    endloop
  endfacet
  facet normal 0 0.707108 -0.707105
    outer loop
      vertex 1.5525 17.8 30.689
      vertex -0.780963 17.3131 30.2021
      vertex -1.5525 17.8 30.689
    endloop
  endfacet
  facet normal 1.03733e-006 0.707106 -0.707108
    outer loop
      vertex 1.5525 17.8 30.689
      vertex -0.36455 16.8967 29.7857
      vertex -0.780963 17.3131 30.2021
    endloop
  endfacet
  facet normal -9.07847e-008 0.707107 -0.707107
    outer loop
      vertex 1.5525 14.3 27.189
      vertex -0.36455 16.8967 29.7857
      vertex 1.5525 17.8 30.689
    endloop
  endfacet
  facet normal 2.63165e-007 0.707107 -0.707107
    outer loop
      vertex -0.36455 16.8967 29.7857
      vertex 1.5525 14.3 27.189
      vertex -0.709056 15.611 28.5
    endloop
  endfacet
  facet normal 0 0.707107 -0.707107
    outer loop
      vertex -1.5525 14.3 27.189
      vertex -0.709056 15.611 28.5
      vertex 1.5525 14.3 27.189
    endloop
  endfacet
  facet normal 0 0.707107 -0.707107
    outer loop
      vertex -0.709056 15.611 28.5
      vertex -1.5525 14.3 27.189
      vertex -1.5525 15.611 28.5
    endloop
  endfacet
  facet normal -1.74807e-006 0.707107 -0.707107
    outer loop
      vertex -1.5525 17.8 30.689
      vertex -0.780963 17.3131 30.2021
      vertex -1.5525 17.1064 29.9954
    endloop
  endfacet
  facet normal -0.866025 0 0.5
    outer loop
      vertex 1.5525 16.8 21.811
      vertex 3.105 17.8 24.5
      vertex 1.5525 17.8 21.811
    endloop
  endfacet
  facet normal -0.866025 0 0.5
    outer loop
      vertex 3.105 17.8 24.5
      vertex 1.5525 16.8 21.811
      vertex 3.105 16.8 24.5
    endloop
  endfacet
  facet normal -0.774597 0.447214 -0.447214
    outer loop
      vertex 1.5525 14.3 27.189
      vertex 3.105 17.8 28
      vertex 3.105 14.3 24.5
    endloop
  endfacet
  facet normal -0.774597 0.447214 -0.447214
    outer loop
      vertex 3.105 17.8 28
      vertex 1.5525 14.3 27.189
      vertex 1.5525 17.8 30.689
    endloop
  endfacet
  facet normal 0.774597 0.447214 -0.447214
    outer loop
      vertex -1.5525 17.1064 29.9954
      vertex -3.105 17.8 28
      vertex -1.5525 17.8 30.689
    endloop
  endfacet
  facet normal 0.774597 0.447214 -0.447213
    outer loop
      vertex -2.3002 16.906 28.5
      vertex -3.105 17.8 28
      vertex -1.5525 17.1064 29.9954
    endloop
  endfacet
  facet normal 0.774597 0.447214 -0.447214
    outer loop
      vertex -1.5525 14.3 27.189
      vertex -2.3002 16.906 28.5
      vertex -1.5525 15.611 28.5
    endloop
  endfacet
  facet normal 0.774596 0.447214 -0.447214
    outer loop
      vertex -2.3002 16.906 28.5
      vertex -1.5525 14.3 27.189
      vertex -3.105 17.8 28
    endloop
  endfacet
  facet normal 0.774597 0.447214 -0.447214
    outer loop
      vertex -3.105 17.8 28
      vertex -1.5525 14.3 27.189
      vertex -3.105 14.3 24.5
    endloop
  endfacet
  facet normal 0.866025 -0 0.5
    outer loop
      vertex -3.105 16.8 24.5
      vertex -1.5525 17.8 21.811
      vertex -3.105 17.8 24.5
    endloop
  endfacet
  facet normal 0.866025 0 0.5
    outer loop
      vertex -1.5525 17.8 21.811
      vertex -3.105 16.8 24.5
      vertex -1.5525 16.8 21.811
    endloop
  endfacet
  facet normal -0 0 1
    outer loop
      vertex -1.5525 17.8 21.811
      vertex 1.5525 16.8 21.811
      vertex 1.5525 17.8 21.811
    endloop
  endfacet
  facet normal 0 0 1
    outer loop
      vertex 1.5525 16.8 21.811
      vertex -1.5525 17.8 21.811
      vertex -1.5525 16.8 21.811
    endloop
  endfacet
  facet normal 0 1 -0
    outer loop
      vertex 1.5525 17.8 30.689
      vertex -0.211882 17.8 35.05
      vertex 3.19988 17.8 35.05
    endloop
  endfacet
  facet normal 0 1 0
    outer loop
      vertex -1.5525 17.8 30.689
      vertex -0.211882 17.8 35.05
      vertex 1.5525 17.8 30.689
    endloop
  endfacet
  facet normal 0 1 0
    outer loop
      vertex -0.211882 17.8 35.05
      vertex -1.5525 17.8 30.689
      vertex -2.61655 17.8 35.05
    endloop
  endfacet
  facet normal 0 1 0
    outer loop
      vertex 3.19988 17.8 35.05
      vertex 3.105 17.8 28
      vertex 1.5525 17.8 30.689
    endloop
  endfacet
  facet normal 0 1 0
    outer loop
      vertex 3.19988 17.8 35.05
      vertex 3.105 17.8 24.5
      vertex 3.105 17.8 28
    endloop
  endfacet
  facet normal 0 1 0
    outer loop
      vertex 1.5525 17.8 21.811
      vertex 0.693135 17.8 19.3112
      vertex -1.5525 17.8 21.811
    endloop
  endfacet
  facet normal 0 1 -0
    outer loop
      vertex 1.67338 17.8 18.1931
      vertex 1.5525 17.8 21.811
      vertex 3.105 17.8 24.5
    endloop
  endfacet
  facet normal 0 1 0
    outer loop
      vertex 1.5525 17.8 21.811
      vertex 1.28075 17.8 18.7807
      vertex 0.693135 17.8 19.3112
    endloop
  endfacet
  facet normal 0 1 0
    outer loop
      vertex 1.5525 17.8 21.811
      vertex 1.67338 17.8 18.1931
      vertex 1.28075 17.8 18.7807
    endloop
  endfacet
  facet normal 0 1 0
    outer loop
      vertex 3.105 17.8 24.5
      vertex 1.81125 17.8 17.5
      vertex 1.67338 17.8 18.1931
    endloop
  endfacet
  facet normal 0 1 -0
    outer loop
      vertex 3.19985 17.8 0.00101322
      vertex 0.693135 17.8 15.8266
      vertex 3.19988 17.8 0.00101322
    endloop
  endfacet
  facet normal 0 1 0
    outer loop
      vertex 1.28075 17.8 16.2193
      vertex 3.19988 17.8 0.00101322
      vertex 0.693135 17.8 15.8266
    endloop
  endfacet
  facet normal 0 1 0
    outer loop
      vertex 1.67338 17.8 16.8069
      vertex 3.19988 17.8 0.00101322
      vertex 1.28075 17.8 16.2193
    endloop
  endfacet
  facet normal 0 1 0
    outer loop
      vertex 1.81125 17.8 17.5
      vertex 3.19988 17.8 0.00101322
      vertex 1.67338 17.8 16.8069
    endloop
  endfacet
  facet normal 0 1 0
    outer loop
      vertex 3.105 17.8 24.5
      vertex 3.19988 17.8 0.00101322
      vertex 1.81125 17.8 17.5
    endloop
  endfacet
  facet normal 0 1 -0
    outer loop
      vertex 3.19988 17.8 0.00101322
      vertex 3.105 17.8 24.5
      vertex 3.19988 17.8 35.05
    endloop
  endfacet
  facet normal 0 1 -0
    outer loop
      vertex -0.211882 17.8 35.05
      vertex -2.61655 17.8 39
      vertex -0.211882 17.8 39
    endloop
  endfacet
  facet normal 0 1 0
    outer loop
      vertex -2.61655 17.8 39
      vertex -0.211882 17.8 35.05
      vertex -2.61655 17.8 35.05
    endloop
  endfacet
  facet normal 0 1 0
    outer loop
      vertex -2.61655 17.8 35.05
      vertex -1.5525 17.8 30.689
      vertex -3.19996 17.8 35.05
    endloop
  endfacet
  facet normal 0 1 -0
    outer loop
      vertex -3.105 17.8 28
      vertex -3.19996 17.8 35.05
      vertex -1.5525 17.8 30.689
    endloop
  endfacet
  facet normal 0 1 -0
    outer loop
      vertex -3.105 17.8 24.5
      vertex -3.19996 17.8 35.05
      vertex -3.105 17.8 28
    endloop
  endfacet
  facet normal 0 1 -0
    outer loop
      vertex -0.693135 17.8 19.3112
      vertex -1.5525 17.8 21.811
      vertex 0.693135 17.8 19.3112
    endloop
  endfacet
  facet normal 0 1 -0
    outer loop
      vertex -1.28075 17.8 18.7807
      vertex -1.5525 17.8 21.811
      vertex -0.693135 17.8 19.3112
    endloop
  endfacet
  facet normal 0 1 0
    outer loop
      vertex -1.67338 17.8 18.1931
      vertex -1.5525 17.8 21.811
      vertex -1.28075 17.8 18.7807
    endloop
  endfacet
  facet normal 0 1 0
    outer loop
      vertex -1.5525 17.8 21.811
      vertex -1.67338 17.8 18.1931
      vertex -3.105 17.8 24.5
    endloop
  endfacet
  facet normal 0 1 -0
    outer loop
      vertex -1.81125 17.8 17.5
      vertex -3.105 17.8 24.5
      vertex -1.67338 17.8 18.1931
    endloop
  endfacet
  facet normal 0 1 0
    outer loop
      vertex 0.693135 17.8 15.8266
      vertex 3.19985 17.8 0.00101322
      vertex 0 17.8 15.6888
    endloop
  endfacet
  facet normal 0 1 0
    outer loop
      vertex -3.19996 17.8 0.00101322
      vertex 0 17.8 15.6888
      vertex 3.19985 17.8 0.00101322
    endloop
  endfacet
  facet normal 0 1 0
    outer loop
      vertex 0 17.8 15.6888
      vertex -3.19996 17.8 0.00101322
      vertex -0.693135 17.8 15.8266
    endloop
  endfacet
  facet normal 0 1 0
    outer loop
      vertex -0.693135 17.8 15.8266
      vertex -3.19996 17.8 0.00101322
      vertex -1.28075 17.8 16.2193
    endloop
  endfacet
  facet normal 0 1 0
    outer loop
      vertex -3.105 17.8 24.5
      vertex -3.19996 17.8 0.00101322
      vertex -3.19996 17.8 35.05
    endloop
  endfacet
  facet normal 0 1 0
    outer loop
      vertex -1.81125 17.8 17.5
      vertex -3.19996 17.8 0.00101322
      vertex -3.105 17.8 24.5
    endloop
  endfacet
  facet normal 0 1 0
    outer loop
      vertex -1.67338 17.8 16.8069
      vertex -3.19996 17.8 0.00101322
      vertex -1.81125 17.8 17.5
    endloop
  endfacet
  facet normal 0 1 0
    outer loop
      vertex -1.28075 17.8 16.2193
      vertex -3.19996 17.8 0.00101322
      vertex -1.67338 17.8 16.8069
    endloop
  endfacet
  facet normal 0 0 1
    outer loop
      vertex 8.05787 8.47428 28.5
      vertex 8.01703 6.35138 28.5
      vertex 8.47428 8.05787 28.5
    endloop
  endfacet
  facet normal 0 0 1
    outer loop
      vertex 8.05787 8.47428 28.5
      vertex 7.4482 6.19896 28.5
      vertex 8.01703 6.35138 28.5
    endloop
  endfacet
  facet normal -0 0 1
    outer loop
      vertex 6.35138 8.01703 28.5
      vertex 7.4482 6.19896 28.5
      vertex 8.05787 8.47428 28.5
    endloop
  endfacet
  facet normal 0 0 1
    outer loop
      vertex 7.4482 6.19896 28.5
      vertex 6.35138 8.01703 28.5
      vertex 6.19896 7.4482 28.5
    endloop
  endfacet
  facet normal -0 0 1
    outer loop
      vertex -1.5525 15.611 28.5
      vertex -0.821804 15.1902 28.5
      vertex -0.709056 15.611 28.5
    endloop
  endfacet
  facet normal 0 0 1
    outer loop
      vertex -0.821804 15.1902 28.5
      vertex -1.5525 15.611 28.5
      vertex -1.39063 15.0378 28.5
    endloop
  endfacet
  facet normal -0 0 1
    outer loop
      vertex -2.63987 16.287 28.5
      vertex -1.5525 15.611 28.5
      vertex -2.3002 16.906 28.5
    endloop
  endfacet
  facet normal 0 0 1
    outer loop
      vertex -2.63987 16.287 28.5
      vertex -2.3002 16.906 28.5
      vertex -2.48746 16.8559 28.5
    endloop
  endfacet
  facet normal 0 0 1
    outer loop
      vertex -1.5525 15.611 28.5
      vertex -2.63987 16.287 28.5
      vertex -1.39063 15.0378 28.5
    endloop
  endfacet
  facet normal 0 0 1
    outer loop
      vertex -6.19896 -7.4482 28.5
      vertex -7.22792 -8.2519 28.5
      vertex -6.35138 -8.01703 28.5
    endloop
  endfacet
  facet normal 0 0 1
    outer loop
      vertex -7.66162 -8.0015 28.5
      vertex -6.19896 -7.4482 28.5
      vertex -7.4482 -6.19896 28.5
    endloop
  endfacet
  facet normal 0 0 1
    outer loop
      vertex -6.19896 -7.4482 28.5
      vertex -7.66162 -8.0015 28.5
      vertex -7.22792 -8.2519 28.5
    endloop
  endfacet
  facet normal 0 0 1
    outer loop
      vertex -7.4482 -6.19896 28.5
      vertex -7.85394 -7.85394 28.5
      vertex -7.66162 -8.0015 28.5
    endloop
  endfacet
  facet normal 0 0 1
    outer loop
      vertex -8.30009 -7.40778 28.5
      vertex -7.4482 -6.19896 28.5
      vertex -8.01703 -6.35138 28.5
    endloop
  endfacet
  facet normal 0 0 1
    outer loop
      vertex -7.4482 -6.19896 28.5
      vertex -8.30009 -7.40778 28.5
      vertex -7.85394 -7.85394 28.5
    endloop
  endfacet
  facet normal 0 0 1
    outer loop
      vertex -15.0378 1.39063 28.5
      vertex -15.766 0.667523 28.5
      vertex -15.1902 0.821804 28.5
    endloop
  endfacet
  facet normal 0 0 1
    outer loop
      vertex -16.287 2.63987 28.5
      vertex -15.766 0.667523 28.5
      vertex -15.0378 1.39063 28.5
    endloop
  endfacet
  facet normal 0 0 1
    outer loop
      vertex -15.766 0.667523 28.5
      vertex -16.287 2.63987 28.5
      vertex -16.3479 2.62357 28.5
    endloop
  endfacet
endsolid OpenSCAD_Model
