solid OpenSCAD_Model
  facet normal -0.989821 0.142315 0
    outer loop
      vertex -7 0 0
      vertex -6.71645 1.97213 2
      vertex -6.71645 1.97213 0
    endloop
  endfacet
  facet normal -0.989821 0.142315 0
    outer loop
      vertex -6.71645 1.97213 2
      vertex -7 0 0
      vertex -7 0 2
    endloop
  endfacet
  facet normal -0.989821 -0.142315 0
    outer loop
      vertex -6.71645 -1.97213 0
      vertex -7 0 2
      vertex -7 0 0
    endloop
  endfacet
  facet normal -0.989821 -0.142315 0
    outer loop
      vertex -7 0 2
      vertex -6.71645 -1.97213 0
      vertex -6.71645 -1.97213 2
    endloop
  endfacet
  facet normal 0 1 -0
    outer loop
      vertex 0.996203 6.92875 0
      vertex -0.996203 6.92875 2
      vertex 0.996203 6.92875 2
    endloop
  endfacet
  facet normal 0 1 0
    outer loop
      vertex -0.996203 6.92875 2
      vertex 0.996203 6.92875 0
      vertex -0.996203 6.92875 0
    endloop
  endfacet
  facet normal 0.989821 -0.142315 0
    outer loop
      vertex 6.71645 -1.97213 2
      vertex 7 0 0
      vertex 7 0 2
    endloop
  endfacet
  facet normal 0.989821 -0.142315 0
    outer loop
      vertex 7 0 0
      vertex 6.71645 -1.97213 2
      vertex 6.71645 -1.97213 0
    endloop
  endfacet
  facet normal 0.75575 0.654861 0
    outer loop
      vertex 5.88877 3.78448 2
      vertex 4.58402 5.29025 0
      vertex 4.58402 5.29025 2
    endloop
  endfacet
  facet normal 0.75575 0.654861 0
    outer loop
      vertex 4.58402 5.29025 0
      vertex 5.88877 3.78448 2
      vertex 5.88877 3.78448 0
    endloop
  endfacet
  facet normal 0.909632 0.415415 0
    outer loop
      vertex 6.71645 1.97213 2
      vertex 5.88877 3.78448 0
      vertex 5.88877 3.78448 2
    endloop
  endfacet
  facet normal 0.909632 0.415415 0
    outer loop
      vertex 5.88877 3.78448 0
      vertex 6.71645 1.97213 2
      vertex 6.71645 1.97213 0
    endloop
  endfacet
  facet normal 0.281733 0.959493 -0
    outer loop
      vertex 2.9079 6.36742 0
      vertex 0.996203 6.92875 2
      vertex 2.9079 6.36742 2
    endloop
  endfacet
  facet normal 0.281733 0.959493 0
    outer loop
      vertex 0.996203 6.92875 2
      vertex 2.9079 6.36742 0
      vertex 0.996203 6.92875 0
    endloop
  endfacet
  facet normal -0.281733 0.959493 0
    outer loop
      vertex -0.996203 6.92875 0
      vertex -2.9079 6.36742 2
      vertex -0.996203 6.92875 2
    endloop
  endfacet
  facet normal -0.281733 0.959493 0
    outer loop
      vertex -2.9079 6.36742 2
      vertex -0.996203 6.92875 0
      vertex -2.9079 6.36742 0
    endloop
  endfacet
  facet normal -0.909632 0.415415 0
    outer loop
      vertex -6.71645 1.97213 0
      vertex -5.88877 3.78448 2
      vertex -5.88877 3.78448 0
    endloop
  endfacet
  facet normal -0.909632 0.415415 0
    outer loop
      vertex -5.88877 3.78448 2
      vertex -6.71645 1.97213 0
      vertex -6.71645 1.97213 2
    endloop
  endfacet
  facet normal -0.540641 0.841254 0
    outer loop
      vertex -2.9079 6.36742 0
      vertex -4.58402 5.29025 2
      vertex -2.9079 6.36742 2
    endloop
  endfacet
  facet normal -0.540641 0.841254 0
    outer loop
      vertex -4.58402 5.29025 2
      vertex -2.9079 6.36742 0
      vertex -4.58402 5.29025 0
    endloop
  endfacet
  facet normal 0.281733 -0.959493 0
    outer loop
      vertex 0.996203 -6.92875 0
      vertex 2.9079 -6.36742 2
      vertex 0.996203 -6.92875 2
    endloop
  endfacet
  facet normal 0.281733 -0.959493 0
    outer loop
      vertex 2.9079 -6.36742 2
      vertex 0.996203 -6.92875 0
      vertex 2.9079 -6.36742 0
    endloop
  endfacet
  facet normal 0.540641 0.841254 -0
    outer loop
      vertex 4.58402 5.29025 0
      vertex 2.9079 6.36742 2
      vertex 4.58402 5.29025 2
    endloop
  endfacet
  facet normal 0.540641 0.841254 0
    outer loop
      vertex 2.9079 6.36742 2
      vertex 4.58402 5.29025 0
      vertex 2.9079 6.36742 0
    endloop
  endfacet
  facet normal -0 0 1
    outer loop
      vertex -3.85 -3.0649 2
      vertex -2.35 -4.32768 2
      vertex -2.35 0 2
    endloop
  endfacet
  facet normal 0 0 1
    outer loop
      vertex -3.85 -3.0649 2
      vertex -2.35 0 2
      vertex -3.85 0 2
    endloop
  endfacet
  facet normal 0 0 1
    outer loop
      vertex -4.58402 -5.29025 2
      vertex -2.35 -4.32768 2
      vertex -3.85 -3.0649 2
    endloop
  endfacet
  facet normal 0 0 1
    outer loop
      vertex -2.35 -4.32768 2
      vertex -4.58402 -5.29025 2
      vertex -2.9079 -6.36742 2
    endloop
  endfacet
  facet normal 0 0 1
    outer loop
      vertex -5.88877 -3.78448 2
      vertex -3.85 -3.0649 2
      vertex -4.6194 -1.91342 2
    endloop
  endfacet
  facet normal 0 0 1
    outer loop
      vertex -6.71645 -1.97213 2
      vertex -4.6194 -1.91342 2
      vertex -5 0 2
    endloop
  endfacet
  facet normal 0 0 1
    outer loop
      vertex -4.6194 1.91342 2
      vertex -6.71645 1.97213 2
      vertex -5 0 2
    endloop
  endfacet
  facet normal 0 0 1
    outer loop
      vertex -3.85 -3.0649 2
      vertex -5.88877 -3.78448 2
      vertex -4.58402 -5.29025 2
    endloop
  endfacet
  facet normal 0 0 1
    outer loop
      vertex -7 0 2
      vertex -5 0 2
      vertex -6.71645 1.97213 2
    endloop
  endfacet
  facet normal 0 0 1
    outer loop
      vertex -4.6194 -1.91342 2
      vertex -6.71645 -1.97213 2
      vertex -5.88877 -3.78448 2
    endloop
  endfacet
  facet normal 0 0 1
    outer loop
      vertex -5 0 2
      vertex -7 0 2
      vertex -6.71645 -1.97213 2
    endloop
  endfacet
  facet normal 0 0 1
    outer loop
      vertex 2.9079 6.36742 2
      vertex 1.91342 4.6194 2
      vertex 2.35 4.32768 2
    endloop
  endfacet
  facet normal 0 0 1
    outer loop
      vertex 0.996203 6.92875 2
      vertex 1.91342 4.6194 2
      vertex 2.9079 6.36742 2
    endloop
  endfacet
  facet normal 0 0 1
    outer loop
      vertex 0.996203 6.92875 2
      vertex 0 5 2
      vertex 1.91342 4.6194 2
    endloop
  endfacet
  facet normal -0 0 1
    outer loop
      vertex -0.996203 6.92875 2
      vertex 0 5 2
      vertex 0.996203 6.92875 2
    endloop
  endfacet
  facet normal 0 0 1
    outer loop
      vertex -0.996203 6.92875 2
      vertex -1.91342 4.6194 2
      vertex 0 5 2
    endloop
  endfacet
  facet normal -0 0 1
    outer loop
      vertex -2.9079 6.36742 2
      vertex -1.91342 4.6194 2
      vertex -0.996203 6.92875 2
    endloop
  endfacet
  facet normal 0 0 1
    outer loop
      vertex -2.9079 6.36742 2
      vertex -3.0649 3.85 2
      vertex -1.91342 4.6194 2
    endloop
  endfacet
  facet normal -0 0 1
    outer loop
      vertex -4.58402 5.29025 2
      vertex -3.0649 3.85 2
      vertex -2.9079 6.36742 2
    endloop
  endfacet
  facet normal 0 0 1
    outer loop
      vertex -5.88877 3.78448 2
      vertex -3.0649 3.85 2
      vertex -4.58402 5.29025 2
    endloop
  endfacet
  facet normal 0 0 1
    outer loop
      vertex -3.0649 3.85 2
      vertex -5.88877 3.78448 2
      vertex -4.32768 2.35 2
    endloop
  endfacet
  facet normal 0 0 1
    outer loop
      vertex -4.32768 2.35 2
      vertex -5.88877 3.78448 2
      vertex -4.6194 1.91342 2
    endloop
  endfacet
  facet normal -0 0 1
    outer loop
      vertex -6.71645 1.97213 2
      vertex -4.6194 1.91342 2
      vertex -5.88877 3.78448 2
    endloop
  endfacet
  facet normal -0 0 1
    outer loop
      vertex 0 -2.35 2
      vertex 3.0649 -3.85 2
      vertex 4.32768 -2.35 2
    endloop
  endfacet
  facet normal 0 0 1
    outer loop
      vertex 3.0649 -3.85 2
      vertex 0 -2.35 2
      vertex 0 -3.85 2
    endloop
  endfacet
  facet normal 0 0 1
    outer loop
      vertex 5 0 2
      vertex 7 0 2
      vertex 6.71645 1.97213 2
    endloop
  endfacet
  facet normal 0 0 1
    outer loop
      vertex 4.6194 1.91342 2
      vertex 6.71645 1.97213 2
      vertex 5.88877 3.78448 2
    endloop
  endfacet
  facet normal 0 0 1
    outer loop
      vertex 7 0 2
      vertex 5 0 2
      vertex 6.71645 -1.97213 2
    endloop
  endfacet
  facet normal -0 0 1
    outer loop
      vertex 4.6194 -1.91342 2
      vertex 6.71645 -1.97213 2
      vertex 5 0 2
    endloop
  endfacet
  facet normal 0 0 1
    outer loop
      vertex 6.71645 1.97213 2
      vertex 4.6194 1.91342 2
      vertex 5 0 2
    endloop
  endfacet
  facet normal 0 0 1
    outer loop
      vertex 3.85 3.0649 2
      vertex 5.88877 3.78448 2
      vertex 4.58402 5.29025 2
    endloop
  endfacet
  facet normal 0 0 1
    outer loop
      vertex 5.88877 3.78448 2
      vertex 3.85 3.0649 2
      vertex 4.6194 1.91342 2
    endloop
  endfacet
  facet normal 0 0 1
    outer loop
      vertex 2.35 4.32768 2
      vertex 4.58402 5.29025 2
      vertex 2.9079 6.36742 2
    endloop
  endfacet
  facet normal 0 0 1
    outer loop
      vertex 4.58402 5.29025 2
      vertex 2.35 4.32768 2
      vertex 3.85 3.0649 2
    endloop
  endfacet
  facet normal 0 0 1
    outer loop
      vertex 2.35 0 2
      vertex 3.85 3.0649 2
      vertex 2.35 4.32768 2
    endloop
  endfacet
  facet normal 0 0 1
    outer loop
      vertex 3.85 3.0649 2
      vertex 2.35 0 2
      vertex 3.85 0 2
    endloop
  endfacet
  facet normal 0 0 1
    outer loop
      vertex 6.71645 -1.97213 2
      vertex 4.6194 -1.91342 2
      vertex 5.88877 -3.78448 2
    endloop
  endfacet
  facet normal -0 0 1
    outer loop
      vertex 4.32768 -2.35 2
      vertex 5.88877 -3.78448 2
      vertex 4.6194 -1.91342 2
    endloop
  endfacet
  facet normal 0 0 1
    outer loop
      vertex 3.0649 -3.85 2
      vertex 5.88877 -3.78448 2
      vertex 4.32768 -2.35 2
    endloop
  endfacet
  facet normal 0 0 1
    outer loop
      vertex 5.88877 -3.78448 2
      vertex 3.0649 -3.85 2
      vertex 4.58402 -5.29025 2
    endloop
  endfacet
  facet normal 0 0 1
    outer loop
      vertex 3.0649 -3.85 2
      vertex 2.9079 -6.36742 2
      vertex 4.58402 -5.29025 2
    endloop
  endfacet
  facet normal -0 0 1
    outer loop
      vertex 1.91342 -4.6194 2
      vertex 2.9079 -6.36742 2
      vertex 3.0649 -3.85 2
    endloop
  endfacet
  facet normal 0 0 1
    outer loop
      vertex 1.91342 -4.6194 2
      vertex 0.996203 -6.92875 2
      vertex 2.9079 -6.36742 2
    endloop
  endfacet
  facet normal -0 0 1
    outer loop
      vertex 0 -5 2
      vertex 0.996203 -6.92875 2
      vertex 1.91342 -4.6194 2
    endloop
  endfacet
  facet normal 0 0 1
    outer loop
      vertex 0 -5 2
      vertex -0.996203 -6.92875 2
      vertex 0.996203 -6.92875 2
    endloop
  endfacet
  facet normal 0 0 1
    outer loop
      vertex -1.91342 -4.6194 2
      vertex -0.996203 -6.92875 2
      vertex 0 -5 2
    endloop
  endfacet
  facet normal 0 0 1
    outer loop
      vertex -2.9079 -6.36742 2
      vertex -1.91342 -4.6194 2
      vertex -2.35 -4.32768 2
    endloop
  endfacet
  facet normal 0 0 1
    outer loop
      vertex -1.91342 -4.6194 2
      vertex -2.9079 -6.36742 2
      vertex -0.996203 -6.92875 2
    endloop
  endfacet
  facet normal -0 0 1
    outer loop
      vertex -3.0649 3.85 2
      vertex 0 2.35 2
      vertex 0 3.85 2
    endloop
  endfacet
  facet normal 0 0 1
    outer loop
      vertex 0 2.35 2
      vertex -3.0649 3.85 2
      vertex -4.32768 2.35 2
    endloop
  endfacet
  facet normal -0.75575 0.654861 0
    outer loop
      vertex -5.88877 3.78448 0
      vertex -4.58402 5.29025 2
      vertex -4.58402 5.29025 0
    endloop
  endfacet
  facet normal -0.75575 0.654861 0
    outer loop
      vertex -4.58402 5.29025 2
      vertex -5.88877 3.78448 0
      vertex -5.88877 3.78448 2
    endloop
  endfacet
  facet normal 0.989821 0.142315 0
    outer loop
      vertex 7 0 2
      vertex 6.71645 1.97213 0
      vertex 6.71645 1.97213 2
    endloop
  endfacet
  facet normal 0.989821 0.142315 0
    outer loop
      vertex 6.71645 1.97213 0
      vertex 7 0 2
      vertex 7 0 0
    endloop
  endfacet
  facet normal -0.540641 -0.841254 0
    outer loop
      vertex -4.58402 -5.29025 0
      vertex -2.9079 -6.36742 2
      vertex -4.58402 -5.29025 2
    endloop
  endfacet
  facet normal -0.540641 -0.841254 -0
    outer loop
      vertex -2.9079 -6.36742 2
      vertex -4.58402 -5.29025 0
      vertex -2.9079 -6.36742 0
    endloop
  endfacet
  facet normal -0.909632 -0.415415 0
    outer loop
      vertex -5.88877 -3.78448 0
      vertex -6.71645 -1.97213 2
      vertex -6.71645 -1.97213 0
    endloop
  endfacet
  facet normal -0.909632 -0.415415 0
    outer loop
      vertex -6.71645 -1.97213 2
      vertex -5.88877 -3.78448 0
      vertex -5.88877 -3.78448 2
    endloop
  endfacet
  facet normal 0.75575 -0.654861 0
    outer loop
      vertex 4.58402 -5.29025 2
      vertex 5.88877 -3.78448 0
      vertex 5.88877 -3.78448 2
    endloop
  endfacet
  facet normal 0.75575 -0.654861 0
    outer loop
      vertex 5.88877 -3.78448 0
      vertex 4.58402 -5.29025 2
      vertex 4.58402 -5.29025 0
    endloop
  endfacet
  facet normal 0 -1 0
    outer loop
      vertex -0.996203 -6.92875 0
      vertex 0.996203 -6.92875 2
      vertex -0.996203 -6.92875 2
    endloop
  endfacet
  facet normal 0 -1 -0
    outer loop
      vertex 0.996203 -6.92875 2
      vertex -0.996203 -6.92875 0
      vertex 0.996203 -6.92875 0
    endloop
  endfacet
  facet normal 0 0 -1
    outer loop
      vertex 0 2.35 0
      vertex -3.0649 3.85 0
      vertex 0 3.85 0
    endloop
  endfacet
  facet normal 0 -0 -1
    outer loop
      vertex -3.0649 3.85 0
      vertex 0 2.35 0
      vertex -4.32768 2.35 0
    endloop
  endfacet
  facet normal 0 0 -1
    outer loop
      vertex 2.35 0 0
      vertex 3.85 3.0649 0
      vertex 3.85 0 0
    endloop
  endfacet
  facet normal -0 0 -1
    outer loop
      vertex 3.85 3.0649 0
      vertex 2.35 0 0
      vertex 2.35 4.32768 0
    endloop
  endfacet
  facet normal 0 0 -1
    outer loop
      vertex 3.85 3.0649 0
      vertex 2.35 4.32768 0
      vertex 2.9079 6.36742 0
    endloop
  endfacet
  facet normal 0 0 -1
    outer loop
      vertex 1.91342 4.6194 0
      vertex 2.9079 6.36742 0
      vertex 2.35 4.32768 0
    endloop
  endfacet
  facet normal 0 0 -1
    outer loop
      vertex 1.91342 4.6194 0
      vertex 0.996203 6.92875 0
      vertex 2.9079 6.36742 0
    endloop
  endfacet
  facet normal 0 0 -1
    outer loop
      vertex 0 5 0
      vertex 0.996203 6.92875 0
      vertex 1.91342 4.6194 0
    endloop
  endfacet
  facet normal 0 0 -1
    outer loop
      vertex 0 5 0
      vertex -0.996203 6.92875 0
      vertex 0.996203 6.92875 0
    endloop
  endfacet
  facet normal 0 0 -1
    outer loop
      vertex -1.91342 4.6194 0
      vertex -0.996203 6.92875 0
      vertex 0 5 0
    endloop
  endfacet
  facet normal 0 0 -1
    outer loop
      vertex -1.91342 4.6194 0
      vertex -2.9079 6.36742 0
      vertex -0.996203 6.92875 0
    endloop
  endfacet
  facet normal 0 0 -1
    outer loop
      vertex -3.0649 3.85 0
      vertex -2.9079 6.36742 0
      vertex -1.91342 4.6194 0
    endloop
  endfacet
  facet normal 0 0 -1
    outer loop
      vertex -5.88877 3.78448 0
      vertex -3.0649 3.85 0
      vertex -4.32768 2.35 0
    endloop
  endfacet
  facet normal 0 0 -1
    outer loop
      vertex -3.0649 3.85 0
      vertex -4.58402 5.29025 0
      vertex -2.9079 6.36742 0
    endloop
  endfacet
  facet normal 0 0 -1
    outer loop
      vertex -5.88877 3.78448 0
      vertex -4.32768 2.35 0
      vertex -4.6194 1.91342 0
    endloop
  endfacet
  facet normal 0 0 -1
    outer loop
      vertex -6.71645 1.97213 0
      vertex -4.6194 1.91342 0
      vertex -5 0 0
    endloop
  endfacet
  facet normal -0 0 -1
    outer loop
      vertex -4.6194 -1.91342 0
      vertex -6.71645 -1.97213 0
      vertex -5 0 0
    endloop
  endfacet
  facet normal -0 0 -1
    outer loop
      vertex -3.0649 3.85 0
      vertex -5.88877 3.78448 0
      vertex -4.58402 5.29025 0
    endloop
  endfacet
  facet normal 0 0 -1
    outer loop
      vertex -7 0 0
      vertex -5 0 0
      vertex -6.71645 -1.97213 0
    endloop
  endfacet
  facet normal 0 0 -1
    outer loop
      vertex -4.6194 1.91342 0
      vertex -6.71645 1.97213 0
      vertex -5.88877 3.78448 0
    endloop
  endfacet
  facet normal 0 0 -1
    outer loop
      vertex -5 0 0
      vertex -7 0 0
      vertex -6.71645 1.97213 0
    endloop
  endfacet
  facet normal 0 0 -1
    outer loop
      vertex 5 0 0
      vertex 7 0 0
      vertex 6.71645 -1.97213 0
    endloop
  endfacet
  facet normal 0 0 -1
    outer loop
      vertex 4.6194 -1.91342 0
      vertex 6.71645 -1.97213 0
      vertex 5.88877 -3.78448 0
    endloop
  endfacet
  facet normal 0 0 -1
    outer loop
      vertex 7 0 0
      vertex 5 0 0
      vertex 6.71645 1.97213 0
    endloop
  endfacet
  facet normal 0 0 -1
    outer loop
      vertex 4.6194 1.91342 0
      vertex 6.71645 1.97213 0
      vertex 5 0 0
    endloop
  endfacet
  facet normal 0 0 -1
    outer loop
      vertex 6.71645 -1.97213 0
      vertex 4.6194 -1.91342 0
      vertex 5 0 0
    endloop
  endfacet
  facet normal 0 0 -1
    outer loop
      vertex 3.0649 -3.85 0
      vertex 5.88877 -3.78448 0
      vertex 4.58402 -5.29025 0
    endloop
  endfacet
  facet normal 0 0 -1
    outer loop
      vertex 5.88877 -3.78448 0
      vertex 4.32768 -2.35 0
      vertex 4.6194 -1.91342 0
    endloop
  endfacet
  facet normal -0 0 -1
    outer loop
      vertex 5.88877 -3.78448 0
      vertex 3.0649 -3.85 0
      vertex 4.32768 -2.35 0
    endloop
  endfacet
  facet normal 0 0 -1
    outer loop
      vertex 2.9079 -6.36742 0
      vertex 3.0649 -3.85 0
      vertex 4.58402 -5.29025 0
    endloop
  endfacet
  facet normal 0 0 -1
    outer loop
      vertex 2.9079 -6.36742 0
      vertex 1.91342 -4.6194 0
      vertex 3.0649 -3.85 0
    endloop
  endfacet
  facet normal 0 0 -1
    outer loop
      vertex 0.996203 -6.92875 0
      vertex 1.91342 -4.6194 0
      vertex 2.9079 -6.36742 0
    endloop
  endfacet
  facet normal 0 0 -1
    outer loop
      vertex 0.996203 -6.92875 0
      vertex 0 -5 0
      vertex 1.91342 -4.6194 0
    endloop
  endfacet
  facet normal 0 0 -1
    outer loop
      vertex -0.996203 -6.92875 0
      vertex 0 -5 0
      vertex 0.996203 -6.92875 0
    endloop
  endfacet
  facet normal 0 0 -1
    outer loop
      vertex -0.996203 -6.92875 0
      vertex -1.91342 -4.6194 0
      vertex 0 -5 0
    endloop
  endfacet
  facet normal 0 0 -1
    outer loop
      vertex -2.9079 -6.36742 0
      vertex -1.91342 -4.6194 0
      vertex -0.996203 -6.92875 0
    endloop
  endfacet
  facet normal -0 0 -1
    outer loop
      vertex -1.91342 -4.6194 0
      vertex -2.9079 -6.36742 0
      vertex -2.35 -4.32768 0
    endloop
  endfacet
  facet normal 0 0 -1
    outer loop
      vertex -4.58402 -5.29025 0
      vertex -2.35 -4.32768 0
      vertex -2.9079 -6.36742 0
    endloop
  endfacet
  facet normal 0 0 -1
    outer loop
      vertex -2.35 -4.32768 0
      vertex -3.85 -3.0649 0
      vertex -2.35 0 0
    endloop
  endfacet
  facet normal -0 0 -1
    outer loop
      vertex -2.35 0 0
      vertex -3.85 -3.0649 0
      vertex -3.85 0 0
    endloop
  endfacet
  facet normal -0 0 -1
    outer loop
      vertex 6.71645 1.97213 0
      vertex 4.6194 1.91342 0
      vertex 5.88877 3.78448 0
    endloop
  endfacet
  facet normal 0 0 -1
    outer loop
      vertex 3.85 3.0649 0
      vertex 5.88877 3.78448 0
      vertex 4.6194 1.91342 0
    endloop
  endfacet
  facet normal -0 0 -1
    outer loop
      vertex 5.88877 3.78448 0
      vertex 3.85 3.0649 0
      vertex 4.58402 5.29025 0
    endloop
  endfacet
  facet normal -0 0 -1
    outer loop
      vertex 4.58402 5.29025 0
      vertex 3.85 3.0649 0
      vertex 2.9079 6.36742 0
    endloop
  endfacet
  facet normal 0 0 -1
    outer loop
      vertex 0 -2.35 0
      vertex 3.0649 -3.85 0
      vertex 0 -3.85 0
    endloop
  endfacet
  facet normal 0 0 -1
    outer loop
      vertex 3.0649 -3.85 0
      vertex 0 -2.35 0
      vertex 4.32768 -2.35 0
    endloop
  endfacet
  facet normal -0 0 -1
    outer loop
      vertex -2.35 -4.32768 0
      vertex -4.58402 -5.29025 0
      vertex -3.85 -3.0649 0
    endloop
  endfacet
  facet normal 0 0 -1
    outer loop
      vertex -5.88877 -3.78448 0
      vertex -3.85 -3.0649 0
      vertex -4.58402 -5.29025 0
    endloop
  endfacet
  facet normal -0 0 -1
    outer loop
      vertex -3.85 -3.0649 0
      vertex -5.88877 -3.78448 0
      vertex -4.6194 -1.91342 0
    endloop
  endfacet
  facet normal 0 0 -1
    outer loop
      vertex -6.71645 -1.97213 0
      vertex -4.6194 -1.91342 0
      vertex -5.88877 -3.78448 0
    endloop
  endfacet
  facet normal -0.75575 -0.654861 0
    outer loop
      vertex -4.58402 -5.29025 0
      vertex -5.88877 -3.78448 2
      vertex -5.88877 -3.78448 0
    endloop
  endfacet
  facet normal -0.75575 -0.654861 0
    outer loop
      vertex -5.88877 -3.78448 2
      vertex -4.58402 -5.29025 0
      vertex -4.58402 -5.29025 2
    endloop
  endfacet
  facet normal 0.909632 -0.415415 0
    outer loop
      vertex 5.88877 -3.78448 2
      vertex 6.71645 -1.97213 0
      vertex 6.71645 -1.97213 2
    endloop
  endfacet
  facet normal 0.909632 -0.415415 0
    outer loop
      vertex 6.71645 -1.97213 0
      vertex 5.88877 -3.78448 2
      vertex 5.88877 -3.78448 0
    endloop
  endfacet
  facet normal 0.540641 -0.841254 0
    outer loop
      vertex 2.9079 -6.36742 0
      vertex 4.58402 -5.29025 2
      vertex 2.9079 -6.36742 2
    endloop
  endfacet
  facet normal 0.540641 -0.841254 0
    outer loop
      vertex 4.58402 -5.29025 2
      vertex 2.9079 -6.36742 0
      vertex 4.58402 -5.29025 0
    endloop
  endfacet
  facet normal -0.281733 -0.959493 0
    outer loop
      vertex -2.9079 -6.36742 0
      vertex -0.996203 -6.92875 2
      vertex -2.9079 -6.36742 2
    endloop
  endfacet
  facet normal -0.281733 -0.959493 -0
    outer loop
      vertex -0.996203 -6.92875 2
      vertex -2.9079 -6.36742 0
      vertex -0.996203 -6.92875 0
    endloop
  endfacet
  facet normal -0.980785 -0.195091 0
    outer loop
      vertex 5 0 0
      vertex 4.6194 1.91342 2
      vertex 4.6194 1.91342 0
    endloop
  endfacet
  facet normal -0.980785 -0.195091 0
    outer loop
      vertex 4.6194 1.91342 2
      vertex 5 0 0
      vertex 5 0 2
    endloop
  endfacet
  facet normal 0.980785 -0.195091 0
    outer loop
      vertex -5 0 2
      vertex -4.6194 1.91342 0
      vertex -4.6194 1.91342 2
    endloop
  endfacet
  facet normal 0.980785 -0.195091 0
    outer loop
      vertex -4.6194 1.91342 0
      vertex -5 0 2
      vertex -5 0 0
    endloop
  endfacet
  facet normal -0.195091 -0.980785 0
    outer loop
      vertex 0 5 0
      vertex 1.91342 4.6194 2
      vertex 0 5 2
    endloop
  endfacet
  facet normal -0.195091 -0.980785 -0
    outer loop
      vertex 1.91342 4.6194 2
      vertex 0 5 0
      vertex 1.91342 4.6194 0
    endloop
  endfacet
  facet normal -0.83147 -0.55557 0
    outer loop
      vertex 4.6194 1.91342 0
      vertex 3.85 3.0649 2
      vertex 3.85 3.0649 0
    endloop
  endfacet
  facet normal -0.83147 -0.55557 0
    outer loop
      vertex 3.85 3.0649 2
      vertex 4.6194 1.91342 0
      vertex 4.6194 1.91342 2
    endloop
  endfacet
  facet normal -0.195091 0.980785 0
    outer loop
      vertex 1.91342 -4.6194 0
      vertex 0 -5 2
      vertex 1.91342 -4.6194 2
    endloop
  endfacet
  facet normal -0.195091 0.980785 0
    outer loop
      vertex 0 -5 2
      vertex 1.91342 -4.6194 0
      vertex 0 -5 0
    endloop
  endfacet
  facet normal -0.55557 -0.83147 0
    outer loop
      vertex 1.91342 4.6194 0
      vertex 2.35 4.32768 2
      vertex 1.91342 4.6194 2
    endloop
  endfacet
  facet normal -0.55557 -0.83147 -0
    outer loop
      vertex 2.35 4.32768 2
      vertex 1.91342 4.6194 0
      vertex 2.35 4.32768 0
    endloop
  endfacet
  facet normal 0.55557 -0.83147 0
    outer loop
      vertex -3.0649 3.85 0
      vertex -1.91342 4.6194 2
      vertex -3.0649 3.85 2
    endloop
  endfacet
  facet normal 0.55557 -0.83147 0
    outer loop
      vertex -1.91342 4.6194 2
      vertex -3.0649 3.85 0
      vertex -1.91342 4.6194 0
    endloop
  endfacet
  facet normal 0.83147 -0.55557 0
    outer loop
      vertex -4.6194 1.91342 2
      vertex -4.32768 2.35 0
      vertex -4.32768 2.35 2
    endloop
  endfacet
  facet normal 0.83147 -0.55557 0
    outer loop
      vertex -4.32768 2.35 0
      vertex -4.6194 1.91342 2
      vertex -4.6194 1.91342 0
    endloop
  endfacet
  facet normal 0.195091 -0.980785 0
    outer loop
      vertex -1.91342 4.6194 0
      vertex 0 5 2
      vertex -1.91342 4.6194 2
    endloop
  endfacet
  facet normal 0.195091 -0.980785 0
    outer loop
      vertex 0 5 2
      vertex -1.91342 4.6194 0
      vertex 0 5 0
    endloop
  endfacet
  facet normal 0.55557 0.83147 -0
    outer loop
      vertex -1.91342 -4.6194 0
      vertex -2.35 -4.32768 2
      vertex -1.91342 -4.6194 2
    endloop
  endfacet
  facet normal 0.55557 0.83147 0
    outer loop
      vertex -2.35 -4.32768 2
      vertex -1.91342 -4.6194 0
      vertex -2.35 -4.32768 0
    endloop
  endfacet
  facet normal 0.980785 0.195091 0
    outer loop
      vertex -4.6194 -1.91342 2
      vertex -5 0 0
      vertex -5 0 2
    endloop
  endfacet
  facet normal 0.980785 0.195091 0
    outer loop
      vertex -5 0 0
      vertex -4.6194 -1.91342 2
      vertex -4.6194 -1.91342 0
    endloop
  endfacet
  facet normal -0.55557 0.83147 0
    outer loop
      vertex 3.0649 -3.85 0
      vertex 1.91342 -4.6194 2
      vertex 3.0649 -3.85 2
    endloop
  endfacet
  facet normal -0.55557 0.83147 0
    outer loop
      vertex 1.91342 -4.6194 2
      vertex 3.0649 -3.85 0
      vertex 1.91342 -4.6194 0
    endloop
  endfacet
  facet normal -0.83147 0.55557 0
    outer loop
      vertex 4.32768 -2.35 0
      vertex 4.6194 -1.91342 2
      vertex 4.6194 -1.91342 0
    endloop
  endfacet
  facet normal -0.83147 0.55557 0
    outer loop
      vertex 4.6194 -1.91342 2
      vertex 4.32768 -2.35 0
      vertex 4.32768 -2.35 2
    endloop
  endfacet
  facet normal 0.195091 0.980785 -0
    outer loop
      vertex 0 -5 0
      vertex -1.91342 -4.6194 2
      vertex 0 -5 2
    endloop
  endfacet
  facet normal 0.195091 0.980785 0
    outer loop
      vertex -1.91342 -4.6194 2
      vertex 0 -5 0
      vertex -1.91342 -4.6194 0
    endloop
  endfacet
  facet normal 0.83147 0.55557 0
    outer loop
      vertex -3.85 -3.0649 2
      vertex -4.6194 -1.91342 0
      vertex -4.6194 -1.91342 2
    endloop
  endfacet
  facet normal 0.83147 0.55557 0
    outer loop
      vertex -4.6194 -1.91342 0
      vertex -3.85 -3.0649 2
      vertex -3.85 -3.0649 0
    endloop
  endfacet
  facet normal -0.980785 0.195091 0
    outer loop
      vertex 4.6194 -1.91342 0
      vertex 5 0 2
      vertex 5 0 0
    endloop
  endfacet
  facet normal -0.980785 0.195091 0
    outer loop
      vertex 5 0 2
      vertex 4.6194 -1.91342 0
      vertex 4.6194 -1.91342 2
    endloop
  endfacet
  facet normal -1 0 0
    outer loop
      vertex 2.35 0 0
      vertex 2.35 4.32768 2
      vertex 2.35 4.32768 0
    endloop
  endfacet
  facet normal -1 -0 0
    outer loop
      vertex 2.35 4.32768 2
      vertex 2.35 0 0
      vertex 2.35 0 2
    endloop
  endfacet
  facet normal 1 -0 0
    outer loop
      vertex 3.85 0 2
      vertex 3.85 3.0649 0
      vertex 3.85 3.0649 2
    endloop
  endfacet
  facet normal 1 0 0
    outer loop
      vertex 3.85 3.0649 0
      vertex 3.85 0 2
      vertex 3.85 0 0
    endloop
  endfacet
  facet normal 0 -1 0
    outer loop
      vertex 2.35 0 0
      vertex 3.85 0 2
      vertex 2.35 0 2
    endloop
  endfacet
  facet normal 0 -1 -0
    outer loop
      vertex 3.85 0 2
      vertex 2.35 0 0
      vertex 3.85 0 0
    endloop
  endfacet
  facet normal 0 1 -0
    outer loop
      vertex 0 3.85 0
      vertex -3.0649 3.85 2
      vertex 0 3.85 2
    endloop
  endfacet
  facet normal 0 1 0
    outer loop
      vertex -3.0649 3.85 2
      vertex 0 3.85 0
      vertex -3.0649 3.85 0
    endloop
  endfacet
  facet normal 0 -1 0
    outer loop
      vertex -4.32768 2.35 0
      vertex 0 2.35 2
      vertex -4.32768 2.35 2
    endloop
  endfacet
  facet normal 0 -1 -0
    outer loop
      vertex 0 2.35 2
      vertex -4.32768 2.35 0
      vertex 0 2.35 0
    endloop
  endfacet
  facet normal 1 -0 0
    outer loop
      vertex 0 2.35 2
      vertex 0 3.85 0
      vertex 0 3.85 2
    endloop
  endfacet
  facet normal 1 0 0
    outer loop
      vertex 0 3.85 0
      vertex 0 2.35 2
      vertex 0 2.35 0
    endloop
  endfacet
  facet normal -1 0 0
    outer loop
      vertex -3.85 -3.0649 0
      vertex -3.85 0 2
      vertex -3.85 0 0
    endloop
  endfacet
  facet normal -1 -0 0
    outer loop
      vertex -3.85 0 2
      vertex -3.85 -3.0649 0
      vertex -3.85 -3.0649 2
    endloop
  endfacet
  facet normal 0 1 -0
    outer loop
      vertex -2.35 0 0
      vertex -3.85 0 2
      vertex -2.35 0 2
    endloop
  endfacet
  facet normal 0 1 0
    outer loop
      vertex -3.85 0 2
      vertex -2.35 0 0
      vertex -3.85 0 0
    endloop
  endfacet
  facet normal 1 -0 0
    outer loop
      vertex -2.35 -4.32768 2
      vertex -2.35 0 0
      vertex -2.35 0 2
    endloop
  endfacet
  facet normal 1 0 0
    outer loop
      vertex -2.35 0 0
      vertex -2.35 -4.32768 2
      vertex -2.35 -4.32768 0
    endloop
  endfacet
  facet normal 0 1 -0
    outer loop
      vertex 4.32768 -2.35 0
      vertex 0 -2.35 2
      vertex 4.32768 -2.35 2
    endloop
  endfacet
  facet normal 0 1 0
    outer loop
      vertex 0 -2.35 2
      vertex 4.32768 -2.35 0
      vertex 0 -2.35 0
    endloop
  endfacet
  facet normal 0 -1 0
    outer loop
      vertex 0 -3.85 0
      vertex 3.0649 -3.85 2
      vertex 0 -3.85 2
    endloop
  endfacet
  facet normal 0 -1 -0
    outer loop
      vertex 3.0649 -3.85 2
      vertex 0 -3.85 0
      vertex 3.0649 -3.85 0
    endloop
  endfacet
  facet normal -1 0 0
    outer loop
      vertex 0 -3.85 0
      vertex 0 -2.35 2
      vertex 0 -2.35 0
    endloop
  endfacet
  facet normal -1 -0 0
    outer loop
      vertex 0 -2.35 2
      vertex 0 -3.85 0
      vertex 0 -3.85 2
    endloop
  endfacet
endsolid OpenSCAD_Model
