solid OpenSCAD_Model
  facet normal -1 0 0
    outer loop
      vertex -12.5 -6.6 0
      vertex -12.5 -2.20238 3
      vertex -12.5 -2.20238 0
    endloop
  endfacet
  facet normal -1 -0 0
    outer loop
      vertex -12.5 -2.20238 3
      vertex -12.5 -6.6 0
      vertex -12.5 -9.6 3
    endloop
  endfacet
  facet normal -1 0 0
    outer loop
      vertex -12.5 2.20238 0
      vertex -12.5 14.4 3
      vertex -12.5 14.4 0
    endloop
  endfacet
  facet normal -1 -0 0
    outer loop
      vertex -12.5 14.4 3
      vertex -12.5 2.20238 0
      vertex -12.5 2.20238 3
    endloop
  endfacet
  facet normal 0 0 1
    outer loop
      vertex -13.5 0 3
      vertex -11.6 0.455634 3
      vertex -13.2716 1.14805 3
    endloop
  endfacet
  facet normal 0 0 1
    outer loop
      vertex -11.6 0.455634 3
      vertex -13.5 0 3
      vertex -11.6 -0.455634 3
    endloop
  endfacet
  facet normal 0 -0 1
    outer loop
      vertex -13.2716 -1.14805 3
      vertex -11.6 -0.455634 3
      vertex -13.5 0 3
    endloop
  endfacet
  facet normal 0 0 1
    outer loop
      vertex -11.6 -0.455634 3
      vertex -12.6213 -2.12132 3
      vertex -12.5 -2.20238 3
    endloop
  endfacet
  facet normal 0 -0 1
    outer loop
      vertex -12.6213 -2.12132 3
      vertex -11.6 -0.455634 3
      vertex -13.2716 -1.14805 3
    endloop
  endfacet
  facet normal -0 0 1
    outer loop
      vertex -9.4 0.455634 3
      vertex -7.5 0 3
      vertex -7.72836 1.14805 3
    endloop
  endfacet
  facet normal 0 0 1
    outer loop
      vertex -9.4 0.455634 3
      vertex -7.72836 1.14805 3
      vertex -8.37868 2.12132 3
    endloop
  endfacet
  facet normal 0 0 1
    outer loop
      vertex -9.4 -0.455634 3
      vertex -7.5 0 3
      vertex -9.4 0.455634 3
    endloop
  endfacet
  facet normal 0 0 1
    outer loop
      vertex -10.0444 1.1 3
      vertex -8.37868 2.12132 3
      vertex -9.35195 2.77164 3
    endloop
  endfacet
  facet normal 0 0 1
    outer loop
      vertex -7.5 0 3
      vertex -9.4 -0.455634 3
      vertex -7.72836 -1.14805 3
    endloop
  endfacet
  facet normal 0 0 1
    outer loop
      vertex -7.72836 -1.14805 3
      vertex -9.4 -0.455634 3
      vertex -8.37868 -2.12132 3
    endloop
  endfacet
  facet normal 0 0 1
    outer loop
      vertex -8.37868 2.12132 3
      vertex -10.0444 1.1 3
      vertex -9.4 0.455634 3
    endloop
  endfacet
  facet normal 0 0 1
    outer loop
      vertex -10.5 3 3
      vertex -10.0444 1.1 3
      vertex -9.35195 2.77164 3
    endloop
  endfacet
  facet normal 0 0 1
    outer loop
      vertex -10.5 3 3
      vertex -10.9556 1.1 3
      vertex -10.0444 1.1 3
    endloop
  endfacet
  facet normal -0 0 1
    outer loop
      vertex -11.5 2.80109 3
      vertex -10.9556 1.1 3
      vertex -10.5 3 3
    endloop
  endfacet
  facet normal -0 0 1
    outer loop
      vertex -12.5 2.20238 3
      vertex -10.9556 1.1 3
      vertex -11.5 2.80109 3
    endloop
  endfacet
  facet normal -0 0 1
    outer loop
      vertex -10.0444 -1.1 3
      vertex -8.37868 -2.12132 3
      vertex -9.4 -0.455634 3
    endloop
  endfacet
  facet normal 0 0 1
    outer loop
      vertex -8.37868 -2.12132 3
      vertex -10.0444 -1.1 3
      vertex -9.35195 -2.77164 3
    endloop
  endfacet
  facet normal 0 0 1
    outer loop
      vertex -10.0444 -1.1 3
      vertex -10.5 -3 3
      vertex -9.35195 -2.77164 3
    endloop
  endfacet
  facet normal -0 0 1
    outer loop
      vertex -10.9556 -1.1 3
      vertex -10.5 -3 3
      vertex -10.0444 -1.1 3
    endloop
  endfacet
  facet normal 0 0 1
    outer loop
      vertex -10.9556 -1.1 3
      vertex -11.5 -2.80109 3
      vertex -10.5 -3 3
    endloop
  endfacet
  facet normal 0 0 1
    outer loop
      vertex -12.5 -2.20238 3
      vertex -10.9556 -1.1 3
      vertex -11.6 -0.455634 3
    endloop
  endfacet
  facet normal 0 0 1
    outer loop
      vertex -10.9556 -1.1 3
      vertex -12.5 -2.20238 3
      vertex -11.5 -2.80109 3
    endloop
  endfacet
  facet normal -0 0 1
    outer loop
      vertex -12.6213 2.12132 3
      vertex -11.6 0.455634 3
      vertex -12.5 2.20238 3
    endloop
  endfacet
  facet normal -0 0 1
    outer loop
      vertex -13.2716 1.14805 3
      vertex -11.6 0.455634 3
      vertex -12.6213 2.12132 3
    endloop
  endfacet
  facet normal 0 0 1
    outer loop
      vertex -12.5 -9.6 3
      vertex -11.5 -2.80109 3
      vertex -12.5 -2.20238 3
    endloop
  endfacet
  facet normal 0 0 1
    outer loop
      vertex -11.5 -2.80109 3
      vertex -12.5 -9.6 3
      vertex -11.5 -9.6 3
    endloop
  endfacet
  facet normal 0 0 1
    outer loop
      vertex 12.5 -2.20238 3
      vertex 10.9556 -1.1 3
      vertex 11.5 -2.80109 3
    endloop
  endfacet
  facet normal 0 0 1
    outer loop
      vertex 10.9556 -1.1 3
      vertex 10.5 -3 3
      vertex 11.5 -2.80109 3
    endloop
  endfacet
  facet normal -0 0 1
    outer loop
      vertex 10.0444 -1.1 3
      vertex 10.5 -3 3
      vertex 10.9556 -1.1 3
    endloop
  endfacet
  facet normal 0 0 1
    outer loop
      vertex 8.37868 -2.12132 3
      vertex 10.0444 -1.1 3
      vertex 9.4 -0.455634 3
    endloop
  endfacet
  facet normal 0 0 1
    outer loop
      vertex 10.0444 -1.1 3
      vertex 9.35195 -2.77164 3
      vertex 10.5 -3 3
    endloop
  endfacet
  facet normal -0 0 1
    outer loop
      vertex 7.72836 1.14805 3
      vertex 9.4 0.455634 3
      vertex 8.37868 2.12132 3
    endloop
  endfacet
  facet normal 0 0 1
    outer loop
      vertex 7.5 0 3
      vertex 9.4 0.455634 3
      vertex 7.72836 1.14805 3
    endloop
  endfacet
  facet normal 0 0 1
    outer loop
      vertex 10.0444 -1.1 3
      vertex 8.37868 -2.12132 3
      vertex 9.35195 -2.77164 3
    endloop
  endfacet
  facet normal 0 0 1
    outer loop
      vertex 9.4 0.455634 3
      vertex 7.5 0 3
      vertex 9.4 -0.455634 3
    endloop
  endfacet
  facet normal 0 0 1
    outer loop
      vertex 9.4 -0.455634 3
      vertex 7.72836 -1.14805 3
      vertex 8.37868 -2.12132 3
    endloop
  endfacet
  facet normal 0 0 1
    outer loop
      vertex 9.4 -0.455634 3
      vertex 7.5 0 3
      vertex 7.72836 -1.14805 3
    endloop
  endfacet
  facet normal -0 0 1
    outer loop
      vertex 11.5 13.4 3
      vertex 12.5 2.20238 3
      vertex 12.5 14.4 3
    endloop
  endfacet
  facet normal 0 0 1
    outer loop
      vertex 10.9556 1.1 3
      vertex 12.5 2.20238 3
      vertex 11.5 2.80109 3
    endloop
  endfacet
  facet normal -0 0 1
    outer loop
      vertex 11.6 -0.455634 3
      vertex 12.5 -2.20238 3
      vertex 11.6 0.455634 3
    endloop
  endfacet
  facet normal 0 0 1
    outer loop
      vertex 12.5 2.20238 3
      vertex 11.5 13.4 3
      vertex 11.5 2.80109 3
    endloop
  endfacet
  facet normal 0 0 1
    outer loop
      vertex 12.5 14.4 3
      vertex -11.5 13.4 3
      vertex 11.5 13.4 3
    endloop
  endfacet
  facet normal 0 0 1
    outer loop
      vertex -12.5 2.20238 3
      vertex -11.5 13.4 3
      vertex -12.5 14.4 3
    endloop
  endfacet
  facet normal 0 0 1
    outer loop
      vertex -10.9556 1.1 3
      vertex -12.5 2.20238 3
      vertex -11.6 0.455634 3
    endloop
  endfacet
  facet normal 0 0 1
    outer loop
      vertex -11.5 13.4 3
      vertex -12.5 2.20238 3
      vertex -11.5 2.80109 3
    endloop
  endfacet
  facet normal -0 0 1
    outer loop
      vertex -12.5 14.4 3
      vertex -11.5 13.4 3
      vertex 12.5 14.4 3
    endloop
  endfacet
  facet normal 0 0 1
    outer loop
      vertex 12.5 2.20238 3
      vertex 13.5 0 3
      vertex 13.2716 1.14805 3
    endloop
  endfacet
  facet normal 0 0 1
    outer loop
      vertex 12.5 2.20238 3
      vertex 13.2716 1.14805 3
      vertex 12.6213 2.12132 3
    endloop
  endfacet
  facet normal 0 0 1
    outer loop
      vertex 13.5 0 3
      vertex 12.5 2.20238 3
      vertex 13.2716 -1.14805 3
    endloop
  endfacet
  facet normal 0 0 1
    outer loop
      vertex 12.5 -2.20238 3
      vertex 13.2716 -1.14805 3
      vertex 12.5 2.20238 3
    endloop
  endfacet
  facet normal 0 0 1
    outer loop
      vertex 13.2716 -1.14805 3
      vertex 12.5 -2.20238 3
      vertex 12.6213 -2.12132 3
    endloop
  endfacet
  facet normal -0 0 1
    outer loop
      vertex 10.9556 -1.1 3
      vertex 12.5 -2.20238 3
      vertex 11.6 -0.455634 3
    endloop
  endfacet
  facet normal 0 0 1
    outer loop
      vertex 12.5 -2.20238 3
      vertex 11.5 -2.80109 3
      vertex 12.5 -9.6 3
    endloop
  endfacet
  facet normal 0 0 1
    outer loop
      vertex 12.5 -9.6 3
      vertex 11.5 -2.80109 3
      vertex 11.5 -9.6 3
    endloop
  endfacet
  facet normal 0 0 1
    outer loop
      vertex 12.5 2.20238 3
      vertex 11.6 0.455634 3
      vertex 12.5 -2.20238 3
    endloop
  endfacet
  facet normal 0 0 1
    outer loop
      vertex 12.5 2.20238 3
      vertex 10.9556 1.1 3
      vertex 11.6 0.455634 3
    endloop
  endfacet
  facet normal 0 0 1
    outer loop
      vertex 10.5 3 3
      vertex 10.9556 1.1 3
      vertex 11.5 2.80109 3
    endloop
  endfacet
  facet normal 0 0 1
    outer loop
      vertex 10.5 3 3
      vertex 10.0444 1.1 3
      vertex 10.9556 1.1 3
    endloop
  endfacet
  facet normal -0 0 1
    outer loop
      vertex 9.35195 2.77164 3
      vertex 10.0444 1.1 3
      vertex 10.5 3 3
    endloop
  endfacet
  facet normal 0 0 1
    outer loop
      vertex 10.0444 1.1 3
      vertex 8.37868 2.12132 3
      vertex 9.4 0.455634 3
    endloop
  endfacet
  facet normal -0 0 1
    outer loop
      vertex 8.37868 2.12132 3
      vertex 10.0444 1.1 3
      vertex 9.35195 2.77164 3
    endloop
  endfacet
  facet normal 1 0 0
    outer loop
      vertex 12.5 -2.20238 3
      vertex 12.5 -6.6 0
      vertex 12.5 -2.20238 0
    endloop
  endfacet
  facet normal 1 0 -0
    outer loop
      vertex 12.5 -6.6 0
      vertex 12.5 -2.20238 3
      vertex 12.5 -9.6 3
    endloop
  endfacet
  facet normal 1 -0 0
    outer loop
      vertex 12.5 2.20238 3
      vertex 12.5 14.4 0
      vertex 12.5 14.4 3
    endloop
  endfacet
  facet normal 1 0 0
    outer loop
      vertex 12.5 14.4 0
      vertex 12.5 2.20238 3
      vertex 12.5 2.20238 0
    endloop
  endfacet
  facet normal 0 0 -1
    outer loop
      vertex 12.5 -1.22461e-016 0
      vertex 13.5 0 0
      vertex 13.2716 -1.14805 0
    endloop
  endfacet
  facet normal 0 0 -1
    outer loop
      vertex 12.3478 -0.765367 0
      vertex 13.2716 -1.14805 0
      vertex 12.6213 -2.12132 0
    endloop
  endfacet
  facet normal -0 0 -1
    outer loop
      vertex 13.5 0 0
      vertex 12.5 -1.22461e-016 0
      vertex 13.2716 1.14805 0
    endloop
  endfacet
  facet normal 0 0 -1
    outer loop
      vertex 11.9142 -1.41421 0
      vertex 12.6213 -2.12132 0
      vertex 12.5 -2.20238 0
    endloop
  endfacet
  facet normal 0 0 -1
    outer loop
      vertex 12.3478 0.765367 0
      vertex 13.2716 1.14805 0
      vertex 12.5 -1.22461e-016 0
    endloop
  endfacet
  facet normal -0 0 -1
    outer loop
      vertex 13.2716 1.14805 0
      vertex 12.3478 0.765367 0
      vertex 12.6213 2.12132 0
    endloop
  endfacet
  facet normal 0 0 -1
    outer loop
      vertex 11.9142 1.41421 0
      vertex 12.6213 2.12132 0
      vertex 12.3478 0.765367 0
    endloop
  endfacet
  facet normal -0 0 -1
    outer loop
      vertex 12.6213 2.12132 0
      vertex 11.9142 1.41421 0
      vertex 12.5 2.20238 0
    endloop
  endfacet
  facet normal 0 0 -1
    outer loop
      vertex 11.2654 1.84776 0
      vertex 12.5 2.20238 0
      vertex 11.9142 1.41421 0
    endloop
  endfacet
  facet normal 0 0 -1
    outer loop
      vertex 10.5 2 0
      vertex 12.5 2.20238 0
      vertex 11.2654 1.84776 0
    endloop
  endfacet
  facet normal -0 0 -1
    outer loop
      vertex 12.5 2.20238 0
      vertex 10.5 2 0
      vertex 12.5 14.4 0
    endloop
  endfacet
  facet normal 0 0 -1
    outer loop
      vertex 9.73463 1.84776 0
      vertex 12.5 14.4 0
      vertex 10.5 2 0
    endloop
  endfacet
  facet normal 0 0 -1
    outer loop
      vertex 9.08579 1.41421 0
      vertex 12.5 14.4 0
      vertex 9.73463 1.84776 0
    endloop
  endfacet
  facet normal 0 0 -1
    outer loop
      vertex -9.08579 1.41421 0
      vertex 9.08579 1.41421 0
      vertex 8.65224 0.765367 0
    endloop
  endfacet
  facet normal 0 0 -1
    outer loop
      vertex -8.5 1.22461e-016 0
      vertex 8.65224 0.765367 0
      vertex 8.5 1.22461e-016 0
    endloop
  endfacet
  facet normal 0 0 -1
    outer loop
      vertex -8.65224 0.765367 0
      vertex 8.65224 0.765367 0
      vertex -8.5 1.22461e-016 0
    endloop
  endfacet
  facet normal 0 0 -1
    outer loop
      vertex -9.08579 1.41421 0
      vertex 8.65224 0.765367 0
      vertex -8.65224 0.765367 0
    endloop
  endfacet
  facet normal 0 0 -1
    outer loop
      vertex 9.08579 1.41421 0
      vertex -9.08579 1.41421 0
      vertex 12.5 14.4 0
    endloop
  endfacet
  facet normal 0 0 -1
    outer loop
      vertex -12.5 14.4 0
      vertex -9.08579 1.41421 0
      vertex -9.73463 1.84776 0
    endloop
  endfacet
  facet normal 0 0 -1
    outer loop
      vertex -12.5 14.4 0
      vertex -9.73463 1.84776 0
      vertex -10.5 2 0
    endloop
  endfacet
  facet normal 0 0 -1
    outer loop
      vertex -12.5 2.20238 0
      vertex -10.5 2 0
      vertex -11.2654 1.84776 0
    endloop
  endfacet
  facet normal 0 0 -1
    outer loop
      vertex -13.2716 1.14805 0
      vertex -12.3478 0.765367 0
      vertex -12.5 -1.22461e-016 0
    endloop
  endfacet
  facet normal 0 0 -1
    outer loop
      vertex -12.6213 2.12132 0
      vertex -11.9142 1.41421 0
      vertex -12.3478 0.765367 0
    endloop
  endfacet
  facet normal 0 0 -1
    outer loop
      vertex -12.5 2.20238 0
      vertex -11.2654 1.84776 0
      vertex -11.9142 1.41421 0
    endloop
  endfacet
  facet normal 0 0 -1
    outer loop
      vertex -10.5 2 0
      vertex -12.5 2.20238 0
      vertex -12.5 14.4 0
    endloop
  endfacet
  facet normal 0 0 -1
    outer loop
      vertex -9.08579 1.41421 0
      vertex -12.5 14.4 0
      vertex 12.5 14.4 0
    endloop
  endfacet
  facet normal 0 0 -1
    outer loop
      vertex 10.5 -2 0
      vertex 12.5 -2.20238 0
      vertex 12.5 -6.6 0
    endloop
  endfacet
  facet normal 0 0 -1
    outer loop
      vertex 13.2716 -1.14805 0
      vertex 12.3478 -0.765367 0
      vertex 12.5 -1.22461e-016 0
    endloop
  endfacet
  facet normal 0 0 -1
    outer loop
      vertex 12.6213 -2.12132 0
      vertex 11.9142 -1.41421 0
      vertex 12.3478 -0.765367 0
    endloop
  endfacet
  facet normal 0 0 -1
    outer loop
      vertex 12.5 -2.20238 0
      vertex 11.2654 -1.84776 0
      vertex 11.9142 -1.41421 0
    endloop
  endfacet
  facet normal 0 0 -1
    outer loop
      vertex 12.5 -2.20238 0
      vertex 10.5 -2 0
      vertex 11.2654 -1.84776 0
    endloop
  endfacet
  facet normal 0 0 -1
    outer loop
      vertex 12.5 -6.6 0
      vertex 9.73463 -1.84776 0
      vertex 10.5 -2 0
    endloop
  endfacet
  facet normal 0 0 -1
    outer loop
      vertex 12.5 -6.6 0
      vertex 9.08579 -1.41421 0
      vertex 9.73463 -1.84776 0
    endloop
  endfacet
  facet normal 0 0 -1
    outer loop
      vertex -9.08579 -1.41421 0
      vertex 9.08579 -1.41421 0
      vertex 12.5 -6.6 0
    endloop
  endfacet
  facet normal 0 0 -1
    outer loop
      vertex 8.65224 -0.765367 0
      vertex -8.5 1.22461e-016 0
      vertex 8.5 1.22461e-016 0
    endloop
  endfacet
  facet normal 0 0 -1
    outer loop
      vertex 9.08579 -1.41421 0
      vertex -9.08579 -1.41421 0
      vertex 8.65224 -0.765367 0
    endloop
  endfacet
  facet normal 0 0 -1
    outer loop
      vertex 8.65224 -0.765367 0
      vertex -8.65224 -0.765367 0
      vertex -8.5 1.22461e-016 0
    endloop
  endfacet
  facet normal -0 0 -1
    outer loop
      vertex 8.65224 -0.765367 0
      vertex -9.08579 -1.41421 0
      vertex -8.65224 -0.765367 0
    endloop
  endfacet
  facet normal 0 0 -1
    outer loop
      vertex -12.5 -6.6 0
      vertex -9.08579 -1.41421 0
      vertex 12.5 -6.6 0
    endloop
  endfacet
  facet normal 0 0 -1
    outer loop
      vertex -9.08579 -1.41421 0
      vertex -12.5 -6.6 0
      vertex -9.73463 -1.84776 0
    endloop
  endfacet
  facet normal 0 0 -1
    outer loop
      vertex -9.73463 -1.84776 0
      vertex -12.5 -6.6 0
      vertex -10.5 -2 0
    endloop
  endfacet
  facet normal 0 0 -1
    outer loop
      vertex -12.5 -2.20238 0
      vertex -10.5 -2 0
      vertex -12.5 -6.6 0
    endloop
  endfacet
  facet normal -0 0 -1
    outer loop
      vertex -10.5 -2 0
      vertex -12.5 -2.20238 0
      vertex -11.2654 -1.84776 0
    endloop
  endfacet
  facet normal -0 0 -1
    outer loop
      vertex -11.2654 -1.84776 0
      vertex -12.5 -2.20238 0
      vertex -11.9142 -1.41421 0
    endloop
  endfacet
  facet normal 0 0 -1
    outer loop
      vertex -12.6213 -2.12132 0
      vertex -11.9142 -1.41421 0
      vertex -12.5 -2.20238 0
    endloop
  endfacet
  facet normal -0 0 -1
    outer loop
      vertex -11.9142 -1.41421 0
      vertex -12.6213 -2.12132 0
      vertex -12.3478 -0.765367 0
    endloop
  endfacet
  facet normal 0 0 -1
    outer loop
      vertex -13.2716 -1.14805 0
      vertex -12.3478 -0.765367 0
      vertex -12.6213 -2.12132 0
    endloop
  endfacet
  facet normal -0 0 -1
    outer loop
      vertex -12.3478 -0.765367 0
      vertex -13.2716 -1.14805 0
      vertex -12.5 -1.22461e-016 0
    endloop
  endfacet
  facet normal 0 0 -1
    outer loop
      vertex -13.5 0 0
      vertex -12.5 -1.22461e-016 0
      vertex -13.2716 -1.14805 0
    endloop
  endfacet
  facet normal 0 -0 -1
    outer loop
      vertex -13.2716 1.14805 0
      vertex -12.5 -1.22461e-016 0
      vertex -13.5 0 0
    endloop
  endfacet
  facet normal 0 0 -1
    outer loop
      vertex -11.9142 1.41421 0
      vertex -12.6213 2.12132 0
      vertex -12.5 2.20238 0
    endloop
  endfacet
  facet normal 0 0 -1
    outer loop
      vertex -12.3478 0.765367 0
      vertex -13.2716 1.14805 0
      vertex -12.6213 2.12132 0
    endloop
  endfacet
  facet normal 0 1 -0
    outer loop
      vertex 12.5 14.4 0
      vertex -12.5 14.4 3
      vertex 12.5 14.4 3
    endloop
  endfacet
  facet normal 0 1 0
    outer loop
      vertex -12.5 14.4 3
      vertex 12.5 14.4 0
      vertex -12.5 14.4 0
    endloop
  endfacet
  facet normal 1 -0 0
    outer loop
      vertex -11.5 2.80109 3
      vertex -11.5 13.4 0.75
      vertex -11.5 13.4 3
    endloop
  endfacet
  facet normal 1 0 0
    outer loop
      vertex -11.5 13.4 0.75
      vertex -11.5 2.80109 3
      vertex -11.5 2.80109 0.75
    endloop
  endfacet
  facet normal 1 0 0
    outer loop
      vertex -11.5 -2.80109 3
      vertex -11.5 -7.35 0.75
      vertex -11.5 -2.80109 0.75
    endloop
  endfacet
  facet normal 1 0 -0
    outer loop
      vertex -11.5 -7.35 0.75
      vertex -11.5 -2.80109 3
      vertex -11.5 -9.6 3
    endloop
  endfacet
  facet normal -1 0 0
    outer loop
      vertex 11.5 2.80109 0.75
      vertex 11.5 13.4 3
      vertex 11.5 13.4 0.75
    endloop
  endfacet
  facet normal -1 -0 0
    outer loop
      vertex 11.5 13.4 3
      vertex 11.5 2.80109 0.75
      vertex 11.5 2.80109 3
    endloop
  endfacet
  facet normal -1 0 0
    outer loop
      vertex 11.5 -7.35 0.75
      vertex 11.5 -2.80109 3
      vertex 11.5 -2.80109 0.75
    endloop
  endfacet
  facet normal -1 -0 0
    outer loop
      vertex 11.5 -2.80109 3
      vertex 11.5 -7.35 0.75
      vertex 11.5 -9.6 3
    endloop
  endfacet
  facet normal 0 0 1
    outer loop
      vertex 11.5 13.4 0.75
      vertex 10.5 3 0.75
      vertex 11.5 2.80109 0.75
    endloop
  endfacet
  facet normal 0 0 1
    outer loop
      vertex 11.5 13.4 0.75
      vertex 9.35195 2.77164 0.75
      vertex 10.5 3 0.75
    endloop
  endfacet
  facet normal 0 0 1
    outer loop
      vertex 11.5 13.4 0.75
      vertex 8.37868 2.12132 0.75
      vertex 9.35195 2.77164 0.75
    endloop
  endfacet
  facet normal 0 0 1
    outer loop
      vertex -8.37868 2.12132 0.75
      vertex 8.37868 2.12132 0.75
      vertex 11.5 13.4 0.75
    endloop
  endfacet
  facet normal 0 0 1
    outer loop
      vertex 7.72836 1.14805 0.75
      vertex -7.5 0 0.75
      vertex 7.5 0 0.75
    endloop
  endfacet
  facet normal 0 0 1
    outer loop
      vertex 8.37868 2.12132 0.75
      vertex -8.37868 2.12132 0.75
      vertex 7.72836 1.14805 0.75
    endloop
  endfacet
  facet normal 0 0 1
    outer loop
      vertex 7.72836 1.14805 0.75
      vertex -7.72836 1.14805 0.75
      vertex -7.5 0 0.75
    endloop
  endfacet
  facet normal 0 0 1
    outer loop
      vertex 7.72836 1.14805 0.75
      vertex -8.37868 2.12132 0.75
      vertex -7.72836 1.14805 0.75
    endloop
  endfacet
  facet normal -0 0 1
    outer loop
      vertex -11.5 13.4 0.75
      vertex -8.37868 2.12132 0.75
      vertex 11.5 13.4 0.75
    endloop
  endfacet
  facet normal 0 0 1
    outer loop
      vertex -8.37868 2.12132 0.75
      vertex -11.5 13.4 0.75
      vertex -9.35195 2.77164 0.75
    endloop
  endfacet
  facet normal 0 0 1
    outer loop
      vertex -9.35195 2.77164 0.75
      vertex -11.5 13.4 0.75
      vertex -10.5 3 0.75
    endloop
  endfacet
  facet normal 0 0 1
    outer loop
      vertex -10.5 3 0.75
      vertex -11.5 13.4 0.75
      vertex -11.5 2.80109 0.75
    endloop
  endfacet
  facet normal -0 0 1
    outer loop
      vertex 10.5 -3 0.75
      vertex 11.5 -7.35 0.75
      vertex 11.5 -2.80109 0.75
    endloop
  endfacet
  facet normal 0 0 1
    outer loop
      vertex 9.35195 -2.77164 0.75
      vertex 11.5 -7.35 0.75
      vertex 10.5 -3 0.75
    endloop
  endfacet
  facet normal 0 0 1
    outer loop
      vertex 8.37868 -2.12132 0.75
      vertex 11.5 -7.35 0.75
      vertex 9.35195 -2.77164 0.75
    endloop
  endfacet
  facet normal 0 0 1
    outer loop
      vertex -8.37868 -2.12132 0.75
      vertex 8.37868 -2.12132 0.75
      vertex 7.72836 -1.14805 0.75
    endloop
  endfacet
  facet normal -0 0 1
    outer loop
      vertex -7.5 0 0.75
      vertex 7.72836 -1.14805 0.75
      vertex 7.5 0 0.75
    endloop
  endfacet
  facet normal 0 0 1
    outer loop
      vertex -7.72836 -1.14805 0.75
      vertex 7.72836 -1.14805 0.75
      vertex -7.5 0 0.75
    endloop
  endfacet
  facet normal 0 0 1
    outer loop
      vertex -8.37868 -2.12132 0.75
      vertex 7.72836 -1.14805 0.75
      vertex -7.72836 -1.14805 0.75
    endloop
  endfacet
  facet normal 0 0 1
    outer loop
      vertex 8.37868 -2.12132 0.75
      vertex -8.37868 -2.12132 0.75
      vertex 11.5 -7.35 0.75
    endloop
  endfacet
  facet normal 0 0 1
    outer loop
      vertex -11.5 -7.35 0.75
      vertex -8.37868 -2.12132 0.75
      vertex -9.35195 -2.77164 0.75
    endloop
  endfacet
  facet normal 0 0 1
    outer loop
      vertex -11.5 -7.35 0.75
      vertex -9.35195 -2.77164 0.75
      vertex -10.5 -3 0.75
    endloop
  endfacet
  facet normal 0 0 1
    outer loop
      vertex -8.37868 -2.12132 0.75
      vertex -11.5 -7.35 0.75
      vertex 11.5 -7.35 0.75
    endloop
  endfacet
  facet normal 0 0 1
    outer loop
      vertex -11.5 -7.35 0.75
      vertex -10.5 -3 0.75
      vertex -11.5 -2.80109 0.75
    endloop
  endfacet
  facet normal 0 -1 0
    outer loop
      vertex -11.5 13.4 0.75
      vertex 11.5 13.4 3
      vertex -11.5 13.4 3
    endloop
  endfacet
  facet normal 0 -1 -0
    outer loop
      vertex 11.5 13.4 3
      vertex -11.5 13.4 0.75
      vertex 11.5 13.4 0.75
    endloop
  endfacet
  facet normal 0 -0.707107 -0.707107
    outer loop
      vertex -12.5 -9.6 3
      vertex -11.5 -7.35 0.75
      vertex -11.5 -9.6 3
    endloop
  endfacet
  facet normal 0 -0.707107 -0.707107
    outer loop
      vertex -11.5 -7.35 0.75
      vertex -12.5 -6.6 0
      vertex 11.5 -7.35 0.75
    endloop
  endfacet
  facet normal 0 -0.707107 -0.707107
    outer loop
      vertex -12.5 -6.6 0
      vertex -11.5 -7.35 0.75
      vertex -12.5 -9.6 3
    endloop
  endfacet
  facet normal 0 -0.707107 -0.707107
    outer loop
      vertex 11.5 -7.35 0.75
      vertex 12.5 -9.6 3
      vertex 11.5 -9.6 3
    endloop
  endfacet
  facet normal 0 -0.707107 -0.707107
    outer loop
      vertex 11.5 -7.35 0.75
      vertex 12.5 -6.6 0
      vertex 12.5 -9.6 3
    endloop
  endfacet
  facet normal -0 -0.707107 -0.707107
    outer loop
      vertex 12.5 -6.6 0
      vertex 11.5 -7.35 0.75
      vertex -12.5 -6.6 0
    endloop
  endfacet
  facet normal 0.980785 0.195091 0
    outer loop
      vertex 13.5 0 3
      vertex 13.2716 1.14805 0
      vertex 13.2716 1.14805 3
    endloop
  endfacet
  facet normal 0.980785 0.195091 0
    outer loop
      vertex 13.2716 1.14805 0
      vertex 13.5 0 3
      vertex 13.5 0 0
    endloop
  endfacet
  facet normal -0.980785 -0.19509 0
    outer loop
      vertex 7.72836 -1.14805 0.75
      vertex 7.5 0 3
      vertex 7.5 0 0.75
    endloop
  endfacet
  facet normal -0.980785 -0.19509 0
    outer loop
      vertex 7.5 0 3
      vertex 7.72836 -1.14805 0.75
      vertex 7.72836 -1.14805 3
    endloop
  endfacet
  facet normal 0.195091 -0.980785 0
    outer loop
      vertex 10.5 -3 0.75
      vertex 11.5 -2.80109 3
      vertex 10.5 -3 3
    endloop
  endfacet
  facet normal 0.195091 -0.980785 0
    outer loop
      vertex 11.5 -2.80109 3
      vertex 10.5 -3 0.75
      vertex 11.5 -2.80109 0.75
    endloop
  endfacet
  facet normal -0.195091 0.980785 0
    outer loop
      vertex 10.5 3 0.75
      vertex 9.35195 2.77164 3
      vertex 10.5 3 3
    endloop
  endfacet
  facet normal -0.195091 0.980785 0
    outer loop
      vertex 9.35195 2.77164 3
      vertex 10.5 3 0.75
      vertex 9.35195 2.77164 0.75
    endloop
  endfacet
  facet normal 0.55557 0.83147 -0
    outer loop
      vertex 12.6213 2.12132 0
      vertex 12.5 2.20238 3
      vertex 12.6213 2.12132 3
    endloop
  endfacet
  facet normal 0.55557 0.83147 0
    outer loop
      vertex 12.5 2.20238 3
      vertex 12.6213 2.12132 0
      vertex 12.5 2.20238 0
    endloop
  endfacet
  facet normal 0.83147 0.55557 0
    outer loop
      vertex 13.2716 1.14805 3
      vertex 12.6213 2.12132 0
      vertex 12.6213 2.12132 3
    endloop
  endfacet
  facet normal 0.83147 0.55557 0
    outer loop
      vertex 12.6213 2.12132 0
      vertex 13.2716 1.14805 3
      vertex 13.2716 1.14805 0
    endloop
  endfacet
  facet normal 0.195091 0.980785 -0
    outer loop
      vertex 11.5 2.80109 0.75
      vertex 10.5 3 3
      vertex 11.5 2.80109 3
    endloop
  endfacet
  facet normal 0.195091 0.980785 0
    outer loop
      vertex 10.5 3 3
      vertex 11.5 2.80109 0.75
      vertex 10.5 3 0.75
    endloop
  endfacet
  facet normal -0.83147 0.55557 0
    outer loop
      vertex 7.72836 1.14805 0.75
      vertex 8.37868 2.12132 3
      vertex 8.37868 2.12132 0.75
    endloop
  endfacet
  facet normal -0.83147 0.55557 0
    outer loop
      vertex 8.37868 2.12132 3
      vertex 7.72836 1.14805 0.75
      vertex 7.72836 1.14805 3
    endloop
  endfacet
  facet normal -0.980785 0.19509 0
    outer loop
      vertex 7.5 0 0.75
      vertex 7.72836 1.14805 3
      vertex 7.72836 1.14805 0.75
    endloop
  endfacet
  facet normal -0.980785 0.19509 0
    outer loop
      vertex 7.72836 1.14805 3
      vertex 7.5 0 0.75
      vertex 7.5 0 3
    endloop
  endfacet
  facet normal -0.55557 0.83147 0
    outer loop
      vertex 9.35195 2.77164 0.75
      vertex 8.37868 2.12132 3
      vertex 9.35195 2.77164 3
    endloop
  endfacet
  facet normal -0.55557 0.83147 0
    outer loop
      vertex 8.37868 2.12132 3
      vertex 9.35195 2.77164 0.75
      vertex 8.37868 2.12132 0.75
    endloop
  endfacet
  facet normal 0.980785 -0.195091 0
    outer loop
      vertex 13.2716 -1.14805 3
      vertex 13.5 0 0
      vertex 13.5 0 3
    endloop
  endfacet
  facet normal 0.980785 -0.195091 0
    outer loop
      vertex 13.5 0 0
      vertex 13.2716 -1.14805 3
      vertex 13.2716 -1.14805 0
    endloop
  endfacet
  facet normal 0.55557 -0.83147 0
    outer loop
      vertex 12.5 -2.20238 0
      vertex 12.6213 -2.12132 3
      vertex 12.5 -2.20238 3
    endloop
  endfacet
  facet normal 0.55557 -0.83147 0
    outer loop
      vertex 12.6213 -2.12132 3
      vertex 12.5 -2.20238 0
      vertex 12.6213 -2.12132 0
    endloop
  endfacet
  facet normal -0.195091 -0.980785 0
    outer loop
      vertex 9.35195 -2.77164 0.75
      vertex 10.5 -3 3
      vertex 9.35195 -2.77164 3
    endloop
  endfacet
  facet normal -0.195091 -0.980785 -0
    outer loop
      vertex 10.5 -3 3
      vertex 9.35195 -2.77164 0.75
      vertex 10.5 -3 0.75
    endloop
  endfacet
  facet normal -0.55557 -0.83147 0
    outer loop
      vertex 8.37868 -2.12132 0.75
      vertex 9.35195 -2.77164 3
      vertex 8.37868 -2.12132 3
    endloop
  endfacet
  facet normal -0.55557 -0.83147 -0
    outer loop
      vertex 9.35195 -2.77164 3
      vertex 8.37868 -2.12132 0.75
      vertex 9.35195 -2.77164 0.75
    endloop
  endfacet
  facet normal -0.83147 -0.55557 0
    outer loop
      vertex 8.37868 -2.12132 0.75
      vertex 7.72836 -1.14805 3
      vertex 7.72836 -1.14805 0.75
    endloop
  endfacet
  facet normal -0.83147 -0.55557 0
    outer loop
      vertex 7.72836 -1.14805 3
      vertex 8.37868 -2.12132 0.75
      vertex 8.37868 -2.12132 3
    endloop
  endfacet
  facet normal 0.83147 -0.55557 0
    outer loop
      vertex 12.6213 -2.12132 3
      vertex 13.2716 -1.14805 0
      vertex 13.2716 -1.14805 3
    endloop
  endfacet
  facet normal 0.83147 -0.55557 0
    outer loop
      vertex 13.2716 -1.14805 0
      vertex 12.6213 -2.12132 3
      vertex 12.6213 -2.12132 0
    endloop
  endfacet
  facet normal -0.980785 0.195091 0
    outer loop
      vertex -13.5 0 0
      vertex -13.2716 1.14805 3
      vertex -13.2716 1.14805 0
    endloop
  endfacet
  facet normal -0.980785 0.195091 0
    outer loop
      vertex -13.2716 1.14805 3
      vertex -13.5 0 0
      vertex -13.5 0 3
    endloop
  endfacet
  facet normal -0.55557 -0.83147 0
    outer loop
      vertex -12.6213 -2.12132 0
      vertex -12.5 -2.20238 3
      vertex -12.6213 -2.12132 3
    endloop
  endfacet
  facet normal -0.55557 -0.83147 -0
    outer loop
      vertex -12.5 -2.20238 3
      vertex -12.6213 -2.12132 0
      vertex -12.5 -2.20238 0
    endloop
  endfacet
  facet normal -0.195091 -0.980785 0
    outer loop
      vertex -11.5 -2.80109 0.75
      vertex -10.5 -3 3
      vertex -11.5 -2.80109 3
    endloop
  endfacet
  facet normal -0.195091 -0.980785 -0
    outer loop
      vertex -10.5 -3 3
      vertex -11.5 -2.80109 0.75
      vertex -10.5 -3 0.75
    endloop
  endfacet
  facet normal -0.980785 -0.195091 0
    outer loop
      vertex -13.2716 -1.14805 0
      vertex -13.5 0 3
      vertex -13.5 0 0
    endloop
  endfacet
  facet normal -0.980785 -0.195091 0
    outer loop
      vertex -13.5 0 3
      vertex -13.2716 -1.14805 0
      vertex -13.2716 -1.14805 3
    endloop
  endfacet
  facet normal -0.83147 0.55557 0
    outer loop
      vertex -13.2716 1.14805 0
      vertex -12.6213 2.12132 3
      vertex -12.6213 2.12132 0
    endloop
  endfacet
  facet normal -0.83147 0.55557 0
    outer loop
      vertex -12.6213 2.12132 3
      vertex -13.2716 1.14805 0
      vertex -13.2716 1.14805 3
    endloop
  endfacet
  facet normal 0.83147 -0.55557 0
    outer loop
      vertex -8.37868 -2.12132 3
      vertex -7.72836 -1.14805 0.75
      vertex -7.72836 -1.14805 3
    endloop
  endfacet
  facet normal 0.83147 -0.55557 0
    outer loop
      vertex -7.72836 -1.14805 0.75
      vertex -8.37868 -2.12132 3
      vertex -8.37868 -2.12132 0.75
    endloop
  endfacet
  facet normal 0.55557 0.83147 -0
    outer loop
      vertex -8.37868 2.12132 0.75
      vertex -9.35195 2.77164 3
      vertex -8.37868 2.12132 3
    endloop
  endfacet
  facet normal 0.55557 0.83147 0
    outer loop
      vertex -9.35195 2.77164 3
      vertex -8.37868 2.12132 0.75
      vertex -9.35195 2.77164 0.75
    endloop
  endfacet
  facet normal -0.55557 0.83147 0
    outer loop
      vertex -12.5 2.20238 0
      vertex -12.6213 2.12132 3
      vertex -12.5 2.20238 3
    endloop
  endfacet
  facet normal -0.55557 0.83147 0
    outer loop
      vertex -12.6213 2.12132 3
      vertex -12.5 2.20238 0
      vertex -12.6213 2.12132 0
    endloop
  endfacet
  facet normal 0.195091 0.980785 -0
    outer loop
      vertex -9.35195 2.77164 0.75
      vertex -10.5 3 3
      vertex -9.35195 2.77164 3
    endloop
  endfacet
  facet normal 0.195091 0.980785 0
    outer loop
      vertex -10.5 3 3
      vertex -9.35195 2.77164 0.75
      vertex -10.5 3 0.75
    endloop
  endfacet
  facet normal 0.55557 -0.83147 0
    outer loop
      vertex -9.35195 -2.77164 0.75
      vertex -8.37868 -2.12132 3
      vertex -9.35195 -2.77164 3
    endloop
  endfacet
  facet normal 0.55557 -0.83147 0
    outer loop
      vertex -8.37868 -2.12132 3
      vertex -9.35195 -2.77164 0.75
      vertex -8.37868 -2.12132 0.75
    endloop
  endfacet
  facet normal 0.195091 -0.980785 0
    outer loop
      vertex -10.5 -3 0.75
      vertex -9.35195 -2.77164 3
      vertex -10.5 -3 3
    endloop
  endfacet
  facet normal 0.195091 -0.980785 0
    outer loop
      vertex -9.35195 -2.77164 3
      vertex -10.5 -3 0.75
      vertex -9.35195 -2.77164 0.75
    endloop
  endfacet
  facet normal 0.980785 -0.19509 0
    outer loop
      vertex -7.72836 -1.14805 3
      vertex -7.5 0 0.75
      vertex -7.5 0 3
    endloop
  endfacet
  facet normal 0.980785 -0.19509 0
    outer loop
      vertex -7.5 0 0.75
      vertex -7.72836 -1.14805 3
      vertex -7.72836 -1.14805 0.75
    endloop
  endfacet
  facet normal 0.980785 0.19509 0
    outer loop
      vertex -7.5 0 3
      vertex -7.72836 1.14805 0.75
      vertex -7.72836 1.14805 3
    endloop
  endfacet
  facet normal 0.980785 0.19509 0
    outer loop
      vertex -7.72836 1.14805 0.75
      vertex -7.5 0 3
      vertex -7.5 0 0.75
    endloop
  endfacet
  facet normal -0.195091 0.980785 0
    outer loop
      vertex -10.5 3 0.75
      vertex -11.5 2.80109 3
      vertex -10.5 3 3
    endloop
  endfacet
  facet normal -0.195091 0.980785 0
    outer loop
      vertex -11.5 2.80109 3
      vertex -10.5 3 0.75
      vertex -11.5 2.80109 0.75
    endloop
  endfacet
  facet normal -0.83147 -0.55557 0
    outer loop
      vertex -12.6213 -2.12132 0
      vertex -13.2716 -1.14805 3
      vertex -13.2716 -1.14805 0
    endloop
  endfacet
  facet normal -0.83147 -0.55557 0
    outer loop
      vertex -13.2716 -1.14805 3
      vertex -12.6213 -2.12132 0
      vertex -12.6213 -2.12132 3
    endloop
  endfacet
  facet normal 0.83147 0.55557 0
    outer loop
      vertex -7.72836 1.14805 3
      vertex -8.37868 2.12132 0.75
      vertex -8.37868 2.12132 3
    endloop
  endfacet
  facet normal 0.83147 0.55557 0
    outer loop
      vertex -8.37868 2.12132 0.75
      vertex -7.72836 1.14805 3
      vertex -7.72836 1.14805 0.75
    endloop
  endfacet
  facet normal 0 1 -0
    outer loop
      vertex 11.6 -1.1 2.5
      vertex 10.9556 -1.1 3
      vertex 11.6 -1.1 3
    endloop
  endfacet
  facet normal 0 1 0
    outer loop
      vertex 10.9556 -1.1 3
      vertex 11.6 -1.1 2.5
      vertex 10.0444 -1.1 3
    endloop
  endfacet
  facet normal 0 1 0
    outer loop
      vertex 9.4 -1.1 2.5
      vertex 10.0444 -1.1 3
      vertex 11.6 -1.1 2.5
    endloop
  endfacet
  facet normal 0 1 0
    outer loop
      vertex 10.0444 -1.1 3
      vertex 9.4 -1.1 2.5
      vertex 9.4 -1.1 3
    endloop
  endfacet
  facet normal 1 0 0
    outer loop
      vertex 9.4 1.1 3
      vertex 9.4 0.455634 3
      vertex 9.4 1.1 2.5
    endloop
  endfacet
  facet normal 1 -0 0
    outer loop
      vertex 9.4 1.1 2.5
      vertex 9.4 1.62416 2
      vertex 9.4 1.62416 2.5
    endloop
  endfacet
  facet normal 1 0 0
    outer loop
      vertex 9.4 -1.1 2.5
      vertex 9.4 1.1 2.5
      vertex 9.4 0.455634 3
    endloop
  endfacet
  facet normal 1 0 0
    outer loop
      vertex 9.4 -1.1 2.5
      vertex 9.4 0.455634 3
      vertex 9.4 -0.455634 3
    endloop
  endfacet
  facet normal 1 0 0
    outer loop
      vertex 9.4 -1.1 2.5
      vertex 9.4 -0.455634 3
      vertex 9.4 -1.1 3
    endloop
  endfacet
  facet normal 1 0 0
    outer loop
      vertex 9.4 1.1 2.5
      vertex 9.4 -1.1 2.5
      vertex 9.4 1.62416 2
    endloop
  endfacet
  facet normal 1 0 0
    outer loop
      vertex 9.4 -1.62416 2
      vertex 9.4 -1.1 2.5
      vertex 9.4 -1.62416 2.5
    endloop
  endfacet
  facet normal 1 0 0
    outer loop
      vertex 9.4 -1.1 2.5
      vertex 9.4 -1.62416 2
      vertex 9.4 1.62416 2
    endloop
  endfacet
  facet normal 0 0 -1
    outer loop
      vertex 9.4 -0.455634 3
      vertex 10.0444 -1.1 3
      vertex 9.4 -1.1 3
    endloop
  endfacet
  facet normal 0 0 -1
    outer loop
      vertex 9.4 1.1 3
      vertex 10.0444 1.1 3
      vertex 9.4 0.455634 3
    endloop
  endfacet
  facet normal 0 -0 -1
    outer loop
      vertex 11.6 -0.455634 3
      vertex 11.6 -1.1 3
      vertex 10.9556 -1.1 3
    endloop
  endfacet
  facet normal -0 -0 -1
    outer loop
      vertex 11.6 1.1 3
      vertex 11.6 0.455634 3
      vertex 10.9556 1.1 3
    endloop
  endfacet
  facet normal 0 -1 0
    outer loop
      vertex 9.4 1.1 2.5
      vertex 10.0444 1.1 3
      vertex 9.4 1.1 3
    endloop
  endfacet
  facet normal 0 -1 -0
    outer loop
      vertex 10.0444 1.1 3
      vertex 9.4 1.1 2.5
      vertex 10.9556 1.1 3
    endloop
  endfacet
  facet normal 0 -1 0
    outer loop
      vertex 11.6 1.1 2.5
      vertex 10.9556 1.1 3
      vertex 9.4 1.1 2.5
    endloop
  endfacet
  facet normal 0 -1 0
    outer loop
      vertex 10.9556 1.1 3
      vertex 11.6 1.1 2.5
      vertex 11.6 1.1 3
    endloop
  endfacet
  facet normal -1 0 0
    outer loop
      vertex 11.6 1.62416 2
      vertex 11.6 1.1 2.5
      vertex 11.6 1.62416 2.5
    endloop
  endfacet
  facet normal -1 0 0
    outer loop
      vertex 11.6 1.1 2.5
      vertex 11.6 0.455634 3
      vertex 11.6 1.1 3
    endloop
  endfacet
  facet normal -1 0 0
    outer loop
      vertex 11.6 -1.1 2.5
      vertex 11.6 1.1 2.5
      vertex 11.6 1.62416 2
    endloop
  endfacet
  facet normal -1 0 0
    outer loop
      vertex 11.6 1.1 2.5
      vertex 11.6 -1.1 2.5
      vertex 11.6 0.455634 3
    endloop
  endfacet
  facet normal -1 -0 0
    outer loop
      vertex 11.6 0.455634 3
      vertex 11.6 -1.1 2.5
      vertex 11.6 -0.455634 3
    endloop
  endfacet
  facet normal -1 0 0
    outer loop
      vertex 11.6 -1.62416 2
      vertex 11.6 -1.1 2.5
      vertex 11.6 1.62416 2
    endloop
  endfacet
  facet normal -1 -0 0
    outer loop
      vertex 11.6 -1.1 2.5
      vertex 11.6 -1.62416 2
      vertex 11.6 -1.62416 2.5
    endloop
  endfacet
  facet normal -1 -0 0
    outer loop
      vertex 11.6 -0.455634 3
      vertex 11.6 -1.1 2.5
      vertex 11.6 -1.1 3
    endloop
  endfacet
  facet normal 0 0 -1
    outer loop
      vertex 11.2654 -1.84776 2.5
      vertex 11.6 -1.1 2.5
      vertex 11.6 -1.62416 2.5
    endloop
  endfacet
  facet normal 0 0 -1
    outer loop
      vertex 10.5 -2 2.5
      vertex 11.6 -1.1 2.5
      vertex 11.2654 -1.84776 2.5
    endloop
  endfacet
  facet normal 0 0 -1
    outer loop
      vertex 9.4 -1.1 2.5
      vertex 10.5 -2 2.5
      vertex 9.73463 -1.84776 2.5
    endloop
  endfacet
  facet normal 0 0 -1
    outer loop
      vertex 9.4 -1.1 2.5
      vertex 9.73463 -1.84776 2.5
      vertex 9.4 -1.62416 2.5
    endloop
  endfacet
  facet normal 0 0 -1
    outer loop
      vertex 10.5 -2 2.5
      vertex 9.4 -1.1 2.5
      vertex 11.6 -1.1 2.5
    endloop
  endfacet
  facet normal 0 0 -1
    outer loop
      vertex 11.6 1.1 2.5
      vertex 11.2654 1.84776 2.5
      vertex 11.6 1.62416 2.5
    endloop
  endfacet
  facet normal 0 0 -1
    outer loop
      vertex 11.6 1.1 2.5
      vertex 10.5 2 2.5
      vertex 11.2654 1.84776 2.5
    endloop
  endfacet
  facet normal 0 0 -1
    outer loop
      vertex 9.4 1.1 2.5
      vertex 10.5 2 2.5
      vertex 11.6 1.1 2.5
    endloop
  endfacet
  facet normal 0 0 -1
    outer loop
      vertex 10.5 2 2.5
      vertex 9.4 1.1 2.5
      vertex 9.73463 1.84776 2.5
    endloop
  endfacet
  facet normal 0 0 -1
    outer loop
      vertex 9.73463 1.84776 2.5
      vertex 9.4 1.1 2.5
      vertex 9.4 1.62416 2.5
    endloop
  endfacet
  facet normal 0 0 -1
    outer loop
      vertex 11.6 -1.62416 2
      vertex 12.5 -1.22461e-016 2
      vertex 12.3478 -0.765367 2
    endloop
  endfacet
  facet normal 0 0 -1
    outer loop
      vertex 11.6 -1.62416 2
      vertex 12.3478 -0.765367 2
      vertex 11.9142 -1.41421 2
    endloop
  endfacet
  facet normal 0 0 -1
    outer loop
      vertex 11.6 1.62416 2
      vertex 12.5 -1.22461e-016 2
      vertex 11.6 -1.62416 2
    endloop
  endfacet
  facet normal 0 0 -1
    outer loop
      vertex 12.5 -1.22461e-016 2
      vertex 11.6 1.62416 2
      vertex 12.3478 0.765367 2
    endloop
  endfacet
  facet normal 0 0 -1
    outer loop
      vertex 12.3478 0.765367 2
      vertex 11.6 1.62416 2
      vertex 11.9142 1.41421 2
    endloop
  endfacet
  facet normal 0 0 -1
    outer loop
      vertex 8.65224 -0.765367 2
      vertex 9.4 -1.62416 2
      vertex 9.08579 -1.41421 2
    endloop
  endfacet
  facet normal 0 0 -1
    outer loop
      vertex 8.5 1.22461e-016 2
      vertex 9.4 -1.62416 2
      vertex 8.65224 -0.765367 2
    endloop
  endfacet
  facet normal 0 0 -1
    outer loop
      vertex 9.4 -1.62416 2
      vertex 8.5 1.22461e-016 2
      vertex 9.4 1.62416 2
    endloop
  endfacet
  facet normal 0 0 -1
    outer loop
      vertex 9.4 1.62416 2
      vertex 8.65224 0.765367 2
      vertex 9.08579 1.41421 2
    endloop
  endfacet
  facet normal 0 0 -1
    outer loop
      vertex 9.4 1.62416 2
      vertex 8.5 1.22461e-016 2
      vertex 8.65224 0.765367 2
    endloop
  endfacet
  facet normal 0.195091 -0.980785 0
    outer loop
      vertex 9.73463 1.84776 0
      vertex 10.5 2 2.5
      vertex 9.73463 1.84776 2.5
    endloop
  endfacet
  facet normal 0.195091 -0.980785 0
    outer loop
      vertex 10.5 2 2.5
      vertex 9.73463 1.84776 0
      vertex 10.5 2 0
    endloop
  endfacet
  facet normal 0.195091 0.980785 -0
    outer loop
      vertex 10.5 -2 0
      vertex 9.73463 -1.84776 2.5
      vertex 10.5 -2 2.5
    endloop
  endfacet
  facet normal 0.195091 0.980785 0
    outer loop
      vertex 9.73463 -1.84776 2.5
      vertex 10.5 -2 0
      vertex 9.73463 -1.84776 0
    endloop
  endfacet
  facet normal 0.980785 -0.195091 0
    outer loop
      vertex 8.5 1.22461e-016 2
      vertex 8.65224 0.765367 0
      vertex 8.65224 0.765367 2
    endloop
  endfacet
  facet normal 0.980785 -0.195091 0
    outer loop
      vertex 8.65224 0.765367 0
      vertex 8.5 1.22461e-016 2
      vertex 8.5 1.22461e-016 0
    endloop
  endfacet
  facet normal 0.55557 -0.83147 0
    outer loop
      vertex 9.08579 1.41421 2
      vertex 9.08579 1.41421 0
      vertex 9.4 1.62416 2
    endloop
  endfacet
  facet normal 0.55557 -0.83147 0
    outer loop
      vertex 9.4 1.62416 2
      vertex 9.73463 1.84776 2.5
      vertex 9.4 1.62416 2.5
    endloop
  endfacet
  facet normal 0.55557 -0.83147 2.21073e-008
    outer loop
      vertex 9.73463 1.84776 0
      vertex 9.4 1.62416 2
      vertex 9.08579 1.41421 0
    endloop
  endfacet
  facet normal 0.55557 -0.83147 0
    outer loop
      vertex 9.4 1.62416 2
      vertex 9.73463 1.84776 0
      vertex 9.73463 1.84776 2.5
    endloop
  endfacet
  facet normal -0.980785 0.195091 0
    outer loop
      vertex 12.3478 -0.765367 0
      vertex 12.5 -1.22461e-016 2
      vertex 12.5 -1.22461e-016 0
    endloop
  endfacet
  facet normal -0.980785 0.195091 0
    outer loop
      vertex 12.5 -1.22461e-016 2
      vertex 12.3478 -0.765367 0
      vertex 12.3478 -0.765367 2
    endloop
  endfacet
  facet normal 0.83147 -0.55557 0
    outer loop
      vertex 8.65224 0.765367 2
      vertex 9.08579 1.41421 0
      vertex 9.08579 1.41421 2
    endloop
  endfacet
  facet normal 0.83147 -0.55557 0
    outer loop
      vertex 9.08579 1.41421 0
      vertex 8.65224 0.765367 2
      vertex 8.65224 0.765367 0
    endloop
  endfacet
  facet normal 0.83147 0.55557 0
    outer loop
      vertex 9.08579 -1.41421 2
      vertex 8.65224 -0.765367 0
      vertex 8.65224 -0.765367 2
    endloop
  endfacet
  facet normal 0.83147 0.55557 0
    outer loop
      vertex 8.65224 -0.765367 0
      vertex 9.08579 -1.41421 2
      vertex 9.08579 -1.41421 0
    endloop
  endfacet
  facet normal 0.55557 0.83147 0
    outer loop
      vertex 9.73463 -1.84776 2.5
      vertex 9.4 -1.62416 2
      vertex 9.4 -1.62416 2.5
    endloop
  endfacet
  facet normal 0.55557 0.83147 -0
    outer loop
      vertex 9.73463 -1.84776 0
      vertex 9.4 -1.62416 2
      vertex 9.73463 -1.84776 2.5
    endloop
  endfacet
  facet normal 0.55557 0.83147 2.21073e-008
    outer loop
      vertex 9.08579 -1.41421 0
      vertex 9.4 -1.62416 2
      vertex 9.73463 -1.84776 0
    endloop
  endfacet
  facet normal 0.55557 0.83147 0
    outer loop
      vertex 9.4 -1.62416 2
      vertex 9.08579 -1.41421 0
      vertex 9.08579 -1.41421 2
    endloop
  endfacet
  facet normal 0.980785 0.195091 0
    outer loop
      vertex 8.65224 -0.765367 2
      vertex 8.5 1.22461e-016 0
      vertex 8.5 1.22461e-016 2
    endloop
  endfacet
  facet normal 0.980785 0.195091 0
    outer loop
      vertex 8.5 1.22461e-016 0
      vertex 8.65224 -0.765367 2
      vertex 8.65224 -0.765367 0
    endloop
  endfacet
  facet normal -0.83147 0.55557 0
    outer loop
      vertex 11.9142 -1.41421 0
      vertex 12.3478 -0.765367 2
      vertex 12.3478 -0.765367 0
    endloop
  endfacet
  facet normal -0.83147 0.55557 0
    outer loop
      vertex 12.3478 -0.765367 2
      vertex 11.9142 -1.41421 0
      vertex 11.9142 -1.41421 2
    endloop
  endfacet
  facet normal -0.195091 0.980785 0
    outer loop
      vertex 11.2654 -1.84776 0
      vertex 10.5 -2 2.5
      vertex 11.2654 -1.84776 2.5
    endloop
  endfacet
  facet normal -0.195091 0.980785 0
    outer loop
      vertex 10.5 -2 2.5
      vertex 11.2654 -1.84776 0
      vertex 10.5 -2 0
    endloop
  endfacet
  facet normal -0.195091 -0.980785 0
    outer loop
      vertex 10.5 2 0
      vertex 11.2654 1.84776 2.5
      vertex 10.5 2 2.5
    endloop
  endfacet
  facet normal -0.195091 -0.980785 -0
    outer loop
      vertex 11.2654 1.84776 2.5
      vertex 10.5 2 0
      vertex 11.2654 1.84776 0
    endloop
  endfacet
  facet normal -0.83147 -0.55557 0
    outer loop
      vertex 12.3478 0.765367 0
      vertex 11.9142 1.41421 2
      vertex 11.9142 1.41421 0
    endloop
  endfacet
  facet normal -0.83147 -0.55557 0
    outer loop
      vertex 11.9142 1.41421 2
      vertex 12.3478 0.765367 0
      vertex 12.3478 0.765367 2
    endloop
  endfacet
  facet normal -0.980785 -0.195091 0
    outer loop
      vertex 12.5 -1.22461e-016 0
      vertex 12.3478 0.765367 2
      vertex 12.3478 0.765367 0
    endloop
  endfacet
  facet normal -0.980785 -0.195091 0
    outer loop
      vertex 12.3478 0.765367 2
      vertex 12.5 -1.22461e-016 0
      vertex 12.5 -1.22461e-016 2
    endloop
  endfacet
  facet normal -0.55557 -0.83147 0
    outer loop
      vertex 11.2654 1.84776 2.5
      vertex 11.6 1.62416 2
      vertex 11.6 1.62416 2.5
    endloop
  endfacet
  facet normal -0.55557 -0.83147 0
    outer loop
      vertex 11.2654 1.84776 0
      vertex 11.6 1.62416 2
      vertex 11.2654 1.84776 2.5
    endloop
  endfacet
  facet normal -0.55557 -0.83147 2.21073e-008
    outer loop
      vertex 11.9142 1.41421 0
      vertex 11.6 1.62416 2
      vertex 11.2654 1.84776 0
    endloop
  endfacet
  facet normal -0.55557 -0.83147 0
    outer loop
      vertex 11.6 1.62416 2
      vertex 11.9142 1.41421 0
      vertex 11.9142 1.41421 2
    endloop
  endfacet
  facet normal -0.55557 0.83147 0
    outer loop
      vertex 11.9142 -1.41421 2
      vertex 11.9142 -1.41421 0
      vertex 11.6 -1.62416 2
    endloop
  endfacet
  facet normal -0.55557 0.83147 0
    outer loop
      vertex 11.6 -1.62416 2
      vertex 11.2654 -1.84776 2.5
      vertex 11.6 -1.62416 2.5
    endloop
  endfacet
  facet normal -0.55557 0.83147 2.21073e-008
    outer loop
      vertex 11.2654 -1.84776 0
      vertex 11.6 -1.62416 2
      vertex 11.9142 -1.41421 0
    endloop
  endfacet
  facet normal -0.55557 0.83147 0
    outer loop
      vertex 11.6 -1.62416 2
      vertex 11.2654 -1.84776 0
      vertex 11.2654 -1.84776 2.5
    endloop
  endfacet
  facet normal 0 1 -0
    outer loop
      vertex -9.4 -1.1 2.5
      vertex -10.0444 -1.1 3
      vertex -9.4 -1.1 3
    endloop
  endfacet
  facet normal 0 1 0
    outer loop
      vertex -10.0444 -1.1 3
      vertex -9.4 -1.1 2.5
      vertex -10.9556 -1.1 3
    endloop
  endfacet
  facet normal 0 1 0
    outer loop
      vertex -11.6 -1.1 2.5
      vertex -10.9556 -1.1 3
      vertex -9.4 -1.1 2.5
    endloop
  endfacet
  facet normal 0 1 0
    outer loop
      vertex -10.9556 -1.1 3
      vertex -11.6 -1.1 2.5
      vertex -11.6 -1.1 3
    endloop
  endfacet
  facet normal -1 0 0
    outer loop
      vertex -9.4 1.62416 2
      vertex -9.4 1.1 2.5
      vertex -9.4 1.62416 2.5
    endloop
  endfacet
  facet normal -1 0 0
    outer loop
      vertex -9.4 1.1 2.5
      vertex -9.4 0.455634 3
      vertex -9.4 1.1 3
    endloop
  endfacet
  facet normal -1 0 0
    outer loop
      vertex -9.4 -1.1 2.5
      vertex -9.4 1.1 2.5
      vertex -9.4 1.62416 2
    endloop
  endfacet
  facet normal -1 0 0
    outer loop
      vertex -9.4 1.1 2.5
      vertex -9.4 -1.1 2.5
      vertex -9.4 0.455634 3
    endloop
  endfacet
  facet normal -1 -0 0
    outer loop
      vertex -9.4 0.455634 3
      vertex -9.4 -1.1 2.5
      vertex -9.4 -0.455634 3
    endloop
  endfacet
  facet normal -1 0 0
    outer loop
      vertex -9.4 -1.62416 2
      vertex -9.4 -1.1 2.5
      vertex -9.4 1.62416 2
    endloop
  endfacet
  facet normal -1 -0 0
    outer loop
      vertex -9.4 -1.1 2.5
      vertex -9.4 -1.62416 2
      vertex -9.4 -1.62416 2.5
    endloop
  endfacet
  facet normal -1 -0 0
    outer loop
      vertex -9.4 -0.455634 3
      vertex -9.4 -1.1 2.5
      vertex -9.4 -1.1 3
    endloop
  endfacet
  facet normal 0 0 -1
    outer loop
      vertex -9.4 -1.1 3
      vertex -10.0444 -1.1 3
      vertex -9.4 -0.455634 3
    endloop
  endfacet
  facet normal 0 0 -1
    outer loop
      vertex -9.4 0.455634 3
      vertex -10.0444 1.1 3
      vertex -9.4 1.1 3
    endloop
  endfacet
  facet normal 0 0 -1
    outer loop
      vertex -11.6 -1.1 3
      vertex -11.6 -0.455634 3
      vertex -10.9556 -1.1 3
    endloop
  endfacet
  facet normal 0 0 -1
    outer loop
      vertex -11.6 0.455634 3
      vertex -11.6 1.1 3
      vertex -10.9556 1.1 3
    endloop
  endfacet
  facet normal 0 -1 0
    outer loop
      vertex -11.6 1.1 2.5
      vertex -10.9556 1.1 3
      vertex -11.6 1.1 3
    endloop
  endfacet
  facet normal 0 -1 -0
    outer loop
      vertex -10.9556 1.1 3
      vertex -11.6 1.1 2.5
      vertex -10.0444 1.1 3
    endloop
  endfacet
  facet normal 0 -1 0
    outer loop
      vertex -9.4 1.1 2.5
      vertex -10.0444 1.1 3
      vertex -11.6 1.1 2.5
    endloop
  endfacet
  facet normal 0 -1 0
    outer loop
      vertex -10.0444 1.1 3
      vertex -9.4 1.1 2.5
      vertex -9.4 1.1 3
    endloop
  endfacet
  facet normal 1 0 0
    outer loop
      vertex -11.6 1.1 3
      vertex -11.6 0.455634 3
      vertex -11.6 1.1 2.5
    endloop
  endfacet
  facet normal 1 -0 0
    outer loop
      vertex -11.6 1.1 2.5
      vertex -11.6 1.62416 2
      vertex -11.6 1.62416 2.5
    endloop
  endfacet
  facet normal 1 0 0
    outer loop
      vertex -11.6 -1.1 2.5
      vertex -11.6 1.1 2.5
      vertex -11.6 0.455634 3
    endloop
  endfacet
  facet normal 1 0 0
    outer loop
      vertex -11.6 -1.1 2.5
      vertex -11.6 0.455634 3
      vertex -11.6 -0.455634 3
    endloop
  endfacet
  facet normal 1 0 0
    outer loop
      vertex -11.6 -1.1 2.5
      vertex -11.6 -0.455634 3
      vertex -11.6 -1.1 3
    endloop
  endfacet
  facet normal 1 0 0
    outer loop
      vertex -11.6 1.1 2.5
      vertex -11.6 -1.1 2.5
      vertex -11.6 1.62416 2
    endloop
  endfacet
  facet normal 1 0 0
    outer loop
      vertex -11.6 -1.62416 2
      vertex -11.6 -1.1 2.5
      vertex -11.6 -1.62416 2.5
    endloop
  endfacet
  facet normal 1 0 0
    outer loop
      vertex -11.6 -1.1 2.5
      vertex -11.6 -1.62416 2
      vertex -11.6 1.62416 2
    endloop
  endfacet
  facet normal 0 0 -1
    outer loop
      vertex -9.73463 -1.84776 2.5
      vertex -9.4 -1.1 2.5
      vertex -9.4 -1.62416 2.5
    endloop
  endfacet
  facet normal 0 0 -1
    outer loop
      vertex -10.5 -2 2.5
      vertex -9.4 -1.1 2.5
      vertex -9.73463 -1.84776 2.5
    endloop
  endfacet
  facet normal 0 0 -1
    outer loop
      vertex -11.6 -1.1 2.5
      vertex -10.5 -2 2.5
      vertex -11.2654 -1.84776 2.5
    endloop
  endfacet
  facet normal 0 0 -1
    outer loop
      vertex -11.6 -1.1 2.5
      vertex -11.2654 -1.84776 2.5
      vertex -11.6 -1.62416 2.5
    endloop
  endfacet
  facet normal 0 0 -1
    outer loop
      vertex -10.5 -2 2.5
      vertex -11.6 -1.1 2.5
      vertex -9.4 -1.1 2.5
    endloop
  endfacet
  facet normal 0 0 -1
    outer loop
      vertex -9.4 1.1 2.5
      vertex -9.73463 1.84776 2.5
      vertex -9.4 1.62416 2.5
    endloop
  endfacet
  facet normal 0 0 -1
    outer loop
      vertex -9.4 1.1 2.5
      vertex -10.5 2 2.5
      vertex -9.73463 1.84776 2.5
    endloop
  endfacet
  facet normal 0 0 -1
    outer loop
      vertex -11.6 1.1 2.5
      vertex -10.5 2 2.5
      vertex -9.4 1.1 2.5
    endloop
  endfacet
  facet normal 0 0 -1
    outer loop
      vertex -10.5 2 2.5
      vertex -11.6 1.1 2.5
      vertex -11.2654 1.84776 2.5
    endloop
  endfacet
  facet normal 0 0 -1
    outer loop
      vertex -11.2654 1.84776 2.5
      vertex -11.6 1.1 2.5
      vertex -11.6 1.62416 2.5
    endloop
  endfacet
  facet normal 0 0 -1
    outer loop
      vertex -12.3478 -0.765367 2
      vertex -11.6 -1.62416 2
      vertex -11.9142 -1.41421 2
    endloop
  endfacet
  facet normal 0 0 -1
    outer loop
      vertex -12.5 -1.22461e-016 2
      vertex -11.6 -1.62416 2
      vertex -12.3478 -0.765367 2
    endloop
  endfacet
  facet normal 0 0 -1
    outer loop
      vertex -11.6 -1.62416 2
      vertex -12.5 -1.22461e-016 2
      vertex -11.6 1.62416 2
    endloop
  endfacet
  facet normal 0 0 -1
    outer loop
      vertex -11.6 1.62416 2
      vertex -12.3478 0.765367 2
      vertex -11.9142 1.41421 2
    endloop
  endfacet
  facet normal 0 0 -1
    outer loop
      vertex -11.6 1.62416 2
      vertex -12.5 -1.22461e-016 2
      vertex -12.3478 0.765367 2
    endloop
  endfacet
  facet normal 0 0 -1
    outer loop
      vertex -9.4 -1.62416 2
      vertex -8.5 1.22461e-016 2
      vertex -8.65224 -0.765367 2
    endloop
  endfacet
  facet normal 0 0 -1
    outer loop
      vertex -9.4 -1.62416 2
      vertex -8.65224 -0.765367 2
      vertex -9.08579 -1.41421 2
    endloop
  endfacet
  facet normal 0 0 -1
    outer loop
      vertex -9.4 1.62416 2
      vertex -8.5 1.22461e-016 2
      vertex -9.4 -1.62416 2
    endloop
  endfacet
  facet normal 0 0 -1
    outer loop
      vertex -8.5 1.22461e-016 2
      vertex -9.4 1.62416 2
      vertex -8.65224 0.765367 2
    endloop
  endfacet
  facet normal 0 0 -1
    outer loop
      vertex -8.65224 0.765367 2
      vertex -9.4 1.62416 2
      vertex -9.08579 1.41421 2
    endloop
  endfacet
  facet normal -0.195091 -0.980785 0
    outer loop
      vertex -10.5 2 0
      vertex -9.73463 1.84776 2.5
      vertex -10.5 2 2.5
    endloop
  endfacet
  facet normal -0.195091 -0.980785 -0
    outer loop
      vertex -9.73463 1.84776 2.5
      vertex -10.5 2 0
      vertex -9.73463 1.84776 0
    endloop
  endfacet
  facet normal -0.195091 0.980785 0
    outer loop
      vertex -9.73463 -1.84776 0
      vertex -10.5 -2 2.5
      vertex -9.73463 -1.84776 2.5
    endloop
  endfacet
  facet normal -0.195091 0.980785 0
    outer loop
      vertex -10.5 -2 2.5
      vertex -9.73463 -1.84776 0
      vertex -10.5 -2 0
    endloop
  endfacet
  facet normal -0.980785 -0.195091 0
    outer loop
      vertex -8.5 1.22461e-016 0
      vertex -8.65224 0.765367 2
      vertex -8.65224 0.765367 0
    endloop
  endfacet
  facet normal -0.980785 -0.195091 0
    outer loop
      vertex -8.65224 0.765367 2
      vertex -8.5 1.22461e-016 0
      vertex -8.5 1.22461e-016 2
    endloop
  endfacet
  facet normal -0.55557 -0.83147 0
    outer loop
      vertex -9.73463 1.84776 2.5
      vertex -9.4 1.62416 2
      vertex -9.4 1.62416 2.5
    endloop
  endfacet
  facet normal -0.55557 -0.83147 0
    outer loop
      vertex -9.73463 1.84776 0
      vertex -9.4 1.62416 2
      vertex -9.73463 1.84776 2.5
    endloop
  endfacet
  facet normal -0.55557 -0.83147 2.21073e-008
    outer loop
      vertex -9.08579 1.41421 0
      vertex -9.4 1.62416 2
      vertex -9.73463 1.84776 0
    endloop
  endfacet
  facet normal -0.55557 -0.83147 0
    outer loop
      vertex -9.4 1.62416 2
      vertex -9.08579 1.41421 0
      vertex -9.08579 1.41421 2
    endloop
  endfacet
  facet normal 0.980785 0.195091 0
    outer loop
      vertex -12.3478 -0.765367 2
      vertex -12.5 -1.22461e-016 0
      vertex -12.5 -1.22461e-016 2
    endloop
  endfacet
  facet normal 0.980785 0.195091 0
    outer loop
      vertex -12.5 -1.22461e-016 0
      vertex -12.3478 -0.765367 2
      vertex -12.3478 -0.765367 0
    endloop
  endfacet
  facet normal -0.83147 -0.55557 0
    outer loop
      vertex -8.65224 0.765367 0
      vertex -9.08579 1.41421 2
      vertex -9.08579 1.41421 0
    endloop
  endfacet
  facet normal -0.83147 -0.55557 0
    outer loop
      vertex -9.08579 1.41421 2
      vertex -8.65224 0.765367 0
      vertex -8.65224 0.765367 2
    endloop
  endfacet
  facet normal -0.83147 0.55557 0
    outer loop
      vertex -9.08579 -1.41421 0
      vertex -8.65224 -0.765367 2
      vertex -8.65224 -0.765367 0
    endloop
  endfacet
  facet normal -0.83147 0.55557 0
    outer loop
      vertex -8.65224 -0.765367 2
      vertex -9.08579 -1.41421 0
      vertex -9.08579 -1.41421 2
    endloop
  endfacet
  facet normal -0.55557 0.83147 0
    outer loop
      vertex -9.08579 -1.41421 2
      vertex -9.08579 -1.41421 0
      vertex -9.4 -1.62416 2
    endloop
  endfacet
  facet normal -0.55557 0.83147 0
    outer loop
      vertex -9.4 -1.62416 2
      vertex -9.73463 -1.84776 2.5
      vertex -9.4 -1.62416 2.5
    endloop
  endfacet
  facet normal -0.55557 0.83147 2.21073e-008
    outer loop
      vertex -9.73463 -1.84776 0
      vertex -9.4 -1.62416 2
      vertex -9.08579 -1.41421 0
    endloop
  endfacet
  facet normal -0.55557 0.83147 0
    outer loop
      vertex -9.4 -1.62416 2
      vertex -9.73463 -1.84776 0
      vertex -9.73463 -1.84776 2.5
    endloop
  endfacet
  facet normal -0.980785 0.195091 0
    outer loop
      vertex -8.65224 -0.765367 0
      vertex -8.5 1.22461e-016 2
      vertex -8.5 1.22461e-016 0
    endloop
  endfacet
  facet normal -0.980785 0.195091 0
    outer loop
      vertex -8.5 1.22461e-016 2
      vertex -8.65224 -0.765367 0
      vertex -8.65224 -0.765367 2
    endloop
  endfacet
  facet normal 0.83147 0.55557 0
    outer loop
      vertex -11.9142 -1.41421 2
      vertex -12.3478 -0.765367 0
      vertex -12.3478 -0.765367 2
    endloop
  endfacet
  facet normal 0.83147 0.55557 0
    outer loop
      vertex -12.3478 -0.765367 0
      vertex -11.9142 -1.41421 2
      vertex -11.9142 -1.41421 0
    endloop
  endfacet
  facet normal 0.195091 0.980785 -0
    outer loop
      vertex -10.5 -2 0
      vertex -11.2654 -1.84776 2.5
      vertex -10.5 -2 2.5
    endloop
  endfacet
  facet normal 0.195091 0.980785 0
    outer loop
      vertex -11.2654 -1.84776 2.5
      vertex -10.5 -2 0
      vertex -11.2654 -1.84776 0
    endloop
  endfacet
  facet normal 0.195091 -0.980785 0
    outer loop
      vertex -11.2654 1.84776 0
      vertex -10.5 2 2.5
      vertex -11.2654 1.84776 2.5
    endloop
  endfacet
  facet normal 0.195091 -0.980785 0
    outer loop
      vertex -10.5 2 2.5
      vertex -11.2654 1.84776 0
      vertex -10.5 2 0
    endloop
  endfacet
  facet normal 0.83147 -0.55557 0
    outer loop
      vertex -12.3478 0.765367 2
      vertex -11.9142 1.41421 0
      vertex -11.9142 1.41421 2
    endloop
  endfacet
  facet normal 0.83147 -0.55557 0
    outer loop
      vertex -11.9142 1.41421 0
      vertex -12.3478 0.765367 2
      vertex -12.3478 0.765367 0
    endloop
  endfacet
  facet normal 0.980785 -0.195091 0
    outer loop
      vertex -12.5 -1.22461e-016 2
      vertex -12.3478 0.765367 0
      vertex -12.3478 0.765367 2
    endloop
  endfacet
  facet normal 0.980785 -0.195091 0
    outer loop
      vertex -12.3478 0.765367 0
      vertex -12.5 -1.22461e-016 2
      vertex -12.5 -1.22461e-016 0
    endloop
  endfacet
  facet normal 0.55557 -0.83147 0
    outer loop
      vertex -11.9142 1.41421 2
      vertex -11.9142 1.41421 0
      vertex -11.6 1.62416 2
    endloop
  endfacet
  facet normal 0.55557 -0.83147 0
    outer loop
      vertex -11.6 1.62416 2
      vertex -11.2654 1.84776 2.5
      vertex -11.6 1.62416 2.5
    endloop
  endfacet
  facet normal 0.55557 -0.83147 2.21073e-008
    outer loop
      vertex -11.2654 1.84776 0
      vertex -11.6 1.62416 2
      vertex -11.9142 1.41421 0
    endloop
  endfacet
  facet normal 0.55557 -0.83147 0
    outer loop
      vertex -11.6 1.62416 2
      vertex -11.2654 1.84776 0
      vertex -11.2654 1.84776 2.5
    endloop
  endfacet
  facet normal 0.55557 0.83147 0
    outer loop
      vertex -11.2654 -1.84776 2.5
      vertex -11.6 -1.62416 2
      vertex -11.6 -1.62416 2.5
    endloop
  endfacet
  facet normal 0.55557 0.83147 -0
    outer loop
      vertex -11.2654 -1.84776 0
      vertex -11.6 -1.62416 2
      vertex -11.2654 -1.84776 2.5
    endloop
  endfacet
  facet normal 0.55557 0.83147 2.21073e-008
    outer loop
      vertex -11.9142 -1.41421 0
      vertex -11.6 -1.62416 2
      vertex -11.2654 -1.84776 0
    endloop
  endfacet
  facet normal 0.55557 0.83147 0
    outer loop
      vertex -11.6 -1.62416 2
      vertex -11.9142 -1.41421 0
      vertex -11.9142 -1.41421 2
    endloop
  endfacet
endsolid OpenSCAD_Model
